<?xml version="1.0" encoding="utf-8"?>
<!-- Generator: Adobe Illustrator 22.1.0, SVG Export Plug-In . SVG Version: 6.00 Build 0)  -->
<svg version="1.1" id="Layer_1" xmlns="http://www.w3.org/2000/svg" xmlns:xlink="http://www.w3.org/1999/xlink" x="0px" y="0px"
	 viewBox="0 0 300.5 821.3" style="enable-background:new 0 0 300.5 821.3;" xml:space="preserve">
<style type="text/css">
	.st0{fill:#FFFFFF;}
	.st1{fill:#22366B;}
	.st2{fill:#18294C;}
	.st3{fill:#22AA66;}
	.st4{fill:#229958;}
	.st5{fill:#209E5F;}
	.st6{fill:#25AF66;}
	.st7{fill:#E3AC81;}
	.st8{fill:#803E19;}
	.st9{fill:#FBB087;}
	.st10{fill:#EF9D65;}
	.st11{fill:#F8BA8C;}
	.st12{fill:none;stroke:#803E19;stroke-width:1.3237;stroke-linecap:round;stroke-linejoin:round;stroke-miterlimit:10;}
	.st13{clip-path:url(#SVGID_2_);}
	.st14{clip-path:url(#SVGID_4_);}
	.st15{fill:#793B16;}
	.st16{fill:#F7E88F;}
	.st17{fill:#F2D453;}
	.st18{fill:#B77A65;}
	.st19{fill:#0071D6;}
	.st20{fill:#005EA5;}
	.st21{opacity:0.39;fill:#FFFFFF;enable-background:new    ;}
	.st22{opacity:0.42;fill:#F9F9F9;enable-background:new    ;}
	.st23{fill:#2B96F4;}
	.st24{fill:#F7E589;}
	.st25{fill:#E6E8E8;}
	.st26{fill:none;stroke:#BFBFBF;stroke-width:1.4335;stroke-miterlimit:10;}
	.st27{fill:none;stroke:#BFBFBF;stroke-width:0.2491;stroke-miterlimit:10;stroke-dasharray:0,0.4983,1.2457,0,0,0;}
	.st28{opacity:0.4;fill:#BFBFBF;enable-background:new    ;}
	.st29{fill:none;stroke:#BFBFBF;stroke-width:0.2389;stroke-miterlimit:10;stroke-dasharray:1.1939,0,0,0;}
	.st30{fill:none;stroke:#BFBFBF;stroke-width:0.2389;stroke-miterlimit:10;stroke-dasharray:9.994343e-03,0.4676,1.1939,0,0,0;}
	.st31{fill:#BFBFBF;}
	.st32{fill:#F7FBFC;}
	.st33{opacity:0.3;}
	.st34{opacity:0.4;clip-path:url(#SVGID_6_);fill:#BFBFBF;enable-background:new    ;}
	.st35{opacity:0.5;}
</style>
<g id="BACKGROUND">
</g>
<g id="OBJECT">
	<g>
		<g>
			<path class="st0" d="M74.8,816.7c24.4-6.5,45.1-11.1,50-14.3c3.3-2.2-0.1-10.7-0.1-10.7L98.4,778L44,800.8c0,0-1.3,5.4,1,8.6
				C48.9,814.7,62.5,819.9,74.8,816.7z"/>
			<path class="st0" d="M229.8,816.7c-24.4-6.5-45.1-11.1-50-14.3c-3.3-2.2,0.1-10.7,0.1-10.7l26.3-13.7l54.4,22.9
				c0,0,1.3,5.4-1,8.6C255.7,814.7,242.1,819.9,229.8,816.7z"/>
			<path class="st1" d="M230.3,810.8c-24.4-6.5-45.2-11-50-14.3s0-24.9,0-24.9l26.4,0.5c0,0,36.7,21.5,47.3,23.7
				C273.1,799.5,250,815.9,230.3,810.8z"/>
			<path class="st2" d="M259.9,798.2c-5.4,4-13.4,6.2-19.8,5.9c-5.9-0.3-11.4-2.1-16.8-4.4c-5.6-2.3-12.3-4.5-17.3-8
				c-7.2-5.1-10.4-12.9-15.2-19.9l-10.5-0.2c0,0-4.8,21.5,0,24.9c4.8,3.3,25.6,7.9,50,14.3C247,815.2,266.2,804,259.9,798.2z"/>
			<path class="st3" d="M151.2,501.4c6.7,10.5,18.8,58.9,20.7,119.6c2.1,65.5-1.9,157.2,4.8,161.1c11.3,6.4,37.8-3.3,40.1-10.5
				c-0.5-13.9-11.7-207.7-5.3-288.7C174.1,461.1,136,477.4,151.2,501.4z"/>
			<path class="st4" d="M192.4,772.2c-7.8-9.2-7.9-25-9.3-36.4c-2.2-18.1,0.5-35.9-2-54.1c-1.6-11.8-5.7-28.6-0.4-39.9
				c1.9-4,7.4-5.7,10.2-8.7c1.9-2-4.3-3.6-5.5-4.4c-1.7-1-2.9-3.2-3.7-5c-2.3-5.4-1.7-12.5-2.3-18.3c-1.1-9.8-1.9-19.7-2.4-29.5
				c-1.2-22.8,3.6-63-24.2-71.6c6.9,14.8,17.4,60.5,19.2,116.7c2.1,65.5-1.9,157.2,4.8,161.1c8,4.6,23.7,1,32.9-4.1
				C203.3,778.8,197.2,777.9,192.4,772.2z"/>
			<path class="st1" d="M74.8,810.8c24.4-6.5,45.2-11,50-14.3s0-24.9,0-24.9L98.4,772c0,0-36.7,21.5-47.3,23.7
				C32,799.5,55.2,815.9,74.8,810.8z"/>
			<path class="st2" d="M124.8,771.6l-14,0.3c2.4,7.1,0.2,15.5-7.9,19.7c-8.2,4.3-17.6,9-26.6,10.8c-10.1,2.1-20.8-1-31-1.2
				c-0.5,0-0.9-0.1-1.3-0.3c0.2,5.9,16.4,13.7,30.8,9.9c24.4-6.5,45.2-11,50-14.3C129.6,793.1,124.8,771.6,124.8,771.6z"/>
			<path class="st3" d="M148.1,499.5c-6.7,10.5-15.8,60.8-17.7,121.5c-2.1,65.5,3.5,157.2-3.2,161.1c-11.3,6.4-37.8-3.3-40.1-10.5
				c0.5-14.3,9.7-207.4,3.2-288.8C127.8,461,163.3,475.6,148.1,499.5z"/>
			<path class="st4" d="M148.1,499.5c0.5-0.8,0.9-1.5,1.3-2.3c-19.2,13-24.8,40.2-27.1,62.3c-1.6,15.6-0.2,31-1.4,46.5
				c-0.5,6.1-0.9,13.2-5,18.1c-2.6,3.1-5.9,5.3-9.3,7.4c3.5,2.3,7.8,4.3,9.5,8c3.3,7-1.2,11-1,18c0.3,10.1,2.6,20.1,2.6,30.3
				c0,10.3-1.1,20.5-0.9,30.8c0.3,15.1,5.4,33.8-3.4,47.5c-6,9.2-12.5,10.9-21,10.7c8.9,5.6,26.2,10,34.7,5.1
				c6.7-3.8,1.1-95.6,3.2-161.1C132.3,560.3,141.4,510.1,148.1,499.5z"/>
			<path class="st3" d="M211.6,482.9c-3.2,26.1-117,27.9-120.2,4.9c-1.5-10.9-1.5-26-0.5-34.8c0.3-2.4,0.6-4.3,1.1-5.6
				c2-6,112.9-18.2,116.1-1.7c0.4,0,1,1.7,1.7,4.5C211.4,457,213.2,470.4,211.6,482.9z"/>
			<path class="st5" d="M209.8,450.3c-1.7,1.2-3.6,2-5.6,2.8c-29.4,11.8-62.5,11.2-93.6,5.4c-6.3-1.2-13.5-2.5-19.7-5.4
				c0.3-2.4,0.6-4.3,1.1-5.6c2-6,112.9-18.2,116.1-1.7C208.5,445.7,209.1,447.4,209.8,450.3z"/>
			<path class="st5" d="M169.9,251.4c-2.7,6-12.9,27.2-23.6,29.5c0,0-24.9-1.5-35.6-29c2-0.6,3.9-1.1,5.8-1.6l0,0
				c0.2-0.1,0.4-0.2,0.6-0.3c0.1-0.1,0.3-0.2,0.4-0.3c1.3-0.9,3.3-2.5,5.4-5.4c0.1-0.2,0.2-0.3,0.3-0.5c0.2-0.3,0.4-0.6,0.6-1
				c0.1-0.2,0.2-0.4,0.3-0.6c0.5-1,0.9-2,1.2-3.2c2.1-0.1,4.6-0.2,7.2-0.3l0,0c7.4-0.2,16.2,0,23.4,1.1c0.7,2.3,1.5,3.9,2.6,5.5
				c2.3,3.3,6.3,4.7,7.4,5c0.2,0.1,0.3,0.1,0.3,0.1l0,0C167.6,250.7,168.7,251,169.9,251.4z"/>
			<path class="st5" d="M191.3,327.7c0.5,17.3,3.3,34.2,7.6,51c2.1,8.1,3.8,16.3,5.9,24.4c0.7,2.7,1.7,5.3,2.8,7.9
				c-1.5-14.8-3.8-33.3-5-56.2c-1.4-26.4,1-51.6,2.5-68.5C198,299.3,190.9,313.4,191.3,327.7z"/>
			<path class="st6" d="M151.9,447.5c-25,0.9-44.8-11.7-48.8-24.9c-4-13.1-2.8-69.5-4.6-94.1c-1.2-17-7.5-30.5-18.7-41.2
				c3.5,15.5,9.3,33.7,9.3,33.7S85.3,432.8,92,447.4c14.5,9.2,59.5,11.4,90.1,6.7C171.6,453.7,161.9,447.1,151.9,447.5z"/>
			<path class="st7" d="M166.4,250.4L166.4,250.4c-0.2,0.6-8.9,23.9-22,27c-0.8-0.2-1.7-0.4-2.5-0.6c-0.2-0.1-0.4-0.1-0.6-0.2
				c-0.3-0.1-0.6-0.2-0.8-0.3c-0.4-0.1-0.7-0.3-1.1-0.4c-0.3-0.1-0.7-0.3-1-0.5c-12-5.9-20.6-21-22.3-24.2c-0.1-0.1-0.1-0.2-0.2-0.3
				c0-0.1-0.1-0.1-0.1-0.2c0-0.1,0-0.1,0-0.1s0,0,0.1-0.1s0.3-0.1,0.5-0.2l0,0c0.2-0.1,0.4-0.2,0.6-0.3c0.1-0.1,0.3-0.2,0.4-0.3
				c1.3-0.9,3.3-2.5,5.4-5.4c0.1-0.2,0.2-0.3,0.3-0.5c0.2-0.3,0.4-0.6,0.6-1c0.1-0.2,0.2-0.4,0.3-0.6c0.5-1,0.9-2,1.2-3.2
				c0.1-0.5,0.3-1.1,0.4-1.8c0-0.3,0.1-0.5,0.1-0.8c0,0,0-0.1,0-0.2c0.1-0.5,0.1-0.9,0.2-1.5c0.2-2.3,0.2-5.2,0-8.7
				c0-0.4,0-0.8-0.1-1.3c0-0.2,0-0.4,0-0.7c0-0.1,0-0.2,0-0.4l0,0c0-0.1,0-0.2,0-0.3s0-0.3,0-0.5c0-0.1,0-0.1,0-0.2
				c0-0.1,0-0.3,0-0.5l0,0c0-0.3,0-0.6-0.1-1c0-0.3,0-0.5-0.1-0.8c0-0.2,0-0.4,0-0.6c0-0.3,0-0.6-0.1-0.9c0-0.5-0.1-1.1-0.1-1.6
				c0-0.1,0-0.2,0-0.4c0-0.1,0-0.2,0-0.3l0,0c0-0.1,0-0.1,0-0.2c0-0.2,0-0.4,0-0.6c0-0.2,0-0.4-0.1-0.6c0-0.2,0-0.4-0.1-0.6
				c0-0.2,0-0.4-0.1-0.6c0-0.2,0-0.4-0.1-0.6c0-0.2,0-0.3-0.1-0.5l0,0l0,0c0-0.1,0-0.3,0-0.4v-0.1c0-0.2,0-0.4-0.1-0.6
				c0-0.2,0-0.4-0.1-0.6c0-0.2,0-0.4-0.1-0.6c0-0.2,0-0.4-0.1-0.6c0-0.2,0-0.4-0.1-0.6c0-0.1,0-0.3,0-0.5v-0.1c0-0.2,0-0.4-0.1-0.6
				c0-0.2,0-0.4-0.1-0.6c0-0.2,0-0.4-0.1-0.6c0-0.2,0-0.4-0.1-0.6c0-0.2,0-0.3-0.1-0.5v-0.1c0-0.2,0-0.4-0.1-0.6
				c0-0.2,0-0.4-0.1-0.6c0-0.2,0-0.4,0-0.6s0-0.4,0-0.6c0-0.2,0-0.4,0-0.5l0,0c0-0.2,0-0.4,0-0.6c0-0.2,0-0.4,0-0.6l0,0
				c0-0.2,0-0.4,0-0.6v-0.1c0-0.2,0-0.3,0-0.5s0-0.4,0-0.6c0-0.2,0-0.4,0-0.6l0,0c0-0.2,0-0.4,0-0.6c0-0.2,0-0.4,0-0.5
				c0-0.2,0-0.4,0.1-0.6c0-0.2,0-0.4,0-0.6c0-0.2,0-0.4,0.1-0.6c0-0.2,0-0.4,0.1-0.6c0-0.2,0.1-0.4,0.1-0.5V195c0-0.1,0-0.3,0.1-0.4
				c0-0.2,0.1-0.4,0.1-0.5c0-0.2,0.1-0.4,0.1-0.6c0-0.2,0.1-0.4,0.1-0.5c0-0.2,0.1-0.3,0.1-0.5l0,0c0.1-0.2,0.1-0.4,0.2-0.5
				c0-0.2,0.1-0.4,0.2-0.5c0.1-0.2,0.1-0.4,0.2-0.5c0.1-0.2,0.1-0.4,0.2-0.5c0.1-0.2,0.1-0.4,0.2-0.5c0.1-0.2,0.2-0.4,0.2-0.5
				c0.1-0.2,0.2-0.4,0.2-0.5c0.1-0.2,0.2-0.3,0.3-0.5c0.1-0.2,0.2-0.3,0.3-0.5c0.1-0.2,0.2-0.4,0.3-0.5c0.1-0.2,0.2-0.3,0.3-0.5
				c0.1-0.2,0.2-0.3,0.3-0.5c0.1-0.2,0.2-0.3,0.4-0.5c0.1-0.2,0.3-0.3,0.4-0.5c0.1-0.2,0.3-0.4,0.4-0.5c0.2-0.2,0.3-0.3,0.5-0.5
				s0.3-0.3,0.5-0.5s0.3-0.3,0.5-0.5l0,0c0.2-0.2,0.4-0.3,0.6-0.5c0.2-0.2,0.4-0.3,0.7-0.5s0.5-0.3,0.8-0.5s0.6-0.3,0.9-0.5
				c0.4-0.2,0.7-0.4,1.1-0.5l0,0c0.5-0.2,1-0.4,1.5-0.5c0.2-0.1,0.4-0.1,0.6-0.1c0.2,0,0.4-0.1,0.6-0.1c1.2-0.2,2.5-0.2,3.7,0
				c0.2,0,0.4,0.1,0.6,0.1c0.1,0,0.2,0,0.4,0.1l0,0c0.5,0.1,1,0.3,1.5,0.5c0.4,0.1,0.7,0.3,1.1,0.5l0,0c0.3,0.1,0.6,0.3,0.9,0.5
				c0.3,0.1,0.5,0.3,0.8,0.5c0.2,0.1,0.5,0.3,0.7,0.5c0.2,0.1,0.4,0.3,0.6,0.5c0.2,0.1,0.4,0.3,0.6,0.5c0.2,0.2,0.3,0.3,0.5,0.5
				s0.3,0.3,0.5,0.5c0.1,0.2,0.3,0.3,0.4,0.5c0.1,0.2,0.3,0.3,0.4,0.5c0.1,0.2,0.3,0.3,0.4,0.5c0.1,0.2,0.2,0.3,0.4,0.5
				c0.1,0.2,0.2,0.3,0.3,0.5s0.2,0.3,0.3,0.5s0.2,0.3,0.3,0.5s0.2,0.4,0.3,0.5c0.1,0.2,0.2,0.3,0.2,0.5c0.1,0.2,0.2,0.3,0.2,0.5l0,0
				c0,0.1,0.1,0.1,0.1,0.2c0,0.1,0.1,0.2,0.1,0.4c0.1,0.2,0.1,0.3,0.2,0.5c0.1,0.2,0.1,0.4,0.2,0.5c0,0,0,0,0,0.1s0.1,0.3,0.1,0.5
				c0.1,0.2,0.1,0.4,0.2,0.5c0.1,0.2,0.1,0.4,0.1,0.5c0,0.2,0.1,0.4,0.1,0.6c0,0.2,0.1,0.4,0.1,0.5l0,0c0,0.2,0.1,0.4,0.1,0.5
				c0,0.2,0.1,0.4,0.1,0.5c0,0.2,0.1,0.4,0.1,0.6c0,0.2,0,0.4,0.1,0.5c0,0.2,0,0.4,0.1,0.6c0,0.2,0,0.4,0.1,0.6c0,0.2,0,0.4,0,0.5
				c0,0.2,0,0.4,0,0.6c0,0.2,0,0.4,0,0.6v0.1c0,0.1,0,0.3,0,0.4c0,0.2,0,0.4,0,0.6c0,0.2,0,0.4,0,0.6l0,0c0,0.2,0,0.4,0,0.6
				c0,0.2,0,0.4,0,0.6c0,0.2,0,0.4,0,0.6v0.1c0,0.2,0,0.3,0,0.5s0,0.4,0,0.6s0,0.4,0,0.6c0,0.2,0,0.4,0,0.6c0,0.2,0,0.4,0,0.6
				c0,0.2,0,0.4,0,0.6l0,0c0,0.2,0,0.4,0,0.6c0,0.2,0,0.4,0,0.6v0.6c0,0.2,0,0.4,0,0.6c0,0.2,0,0.4,0,0.6c0,0.2,0,0.4,0,0.6
				s0,0.4,0,0.6v0.6c0,0.2,0,0.4,0,0.5v0.6c0,0.2,0,0.4,0,0.6s0,0.4,0,0.6c0,0.2,0,0.4,0,0.5v0.6c0,0.2,0,0.4,0,0.6
				c0,0.2,0,0.4,0,0.6v0.4c0,2.3,0,4.3,0.1,6.2c0,0.2,0,0.4,0,0.6c0.2,8.3,0.8,13.4,1.8,17c0.7,2.3,1.5,3.9,2.6,5.5
				c2.3,3.3,6.3,4.7,7.4,5C166.3,250.4,166.4,250.4,166.4,250.4z"/>
			<g>
				<path class="st8" d="M74.4,126.7c0,0-1.7,35.7-9.3,46.4c0,0-13.7,19.4,2.5,37.8s-7.2,45.9-7.2,45.9H139V122.1L74.4,126.7z"/>
				<path class="st8" d="M207.7,126.8c0,0,0.2,35.6,7.8,46.3c0,0,13.7,19.4-2.5,37.8s7.2,45.9,7.2,45.9h-78.5V122.1L207.7,126.8z"/>
				<path class="st8" d="M203.4,137.9c0,34.8-28.2,62.9-62.9,62.9s-62.9-28.2-62.9-62.9c0-34.8,28.2-57.6,62.9-57.6
					S203.4,103.1,203.4,137.9z"/>
				<g>
					<g>
						<g>
							<path class="st9" d="M95.6,171.9c3.2,7.2,3,18.9-3.9,21.5s-15-6.7-18.3-14c-3.2-7.2-1.3-13.5,5.6-16.1
								C85.9,160.7,92.4,164.6,95.6,171.9z"/>
						</g>
					</g>
					<line class="st10" x1="81.1" y1="172" x2="92.6" y2="181.1"/>
				</g>
				<g>
					<g>
						<g>
							<path class="st9" d="M186.1,171.9c-3.2,7.2-3,18.9,3.9,21.5s15-6.7,18.3-14c3.2-7.2,1.3-13.5-5.6-16.1
								C195.8,160.7,189.3,164.6,186.1,171.9z"/>
						</g>
					</g>
					<line class="st10" x1="201.8" y1="172" x2="190.3" y2="181.1"/>
				</g>
				<path class="st8" d="M198.4,162.5c0,0-25.1,37-57,37s-58.8-37-58.8-37c0-30.6,26.9-74,58.8-74S198.4,131.8,198.4,162.5z"/>
				<g>
					<polygon class="st7" points="124.7,211.6 117.4,283.5 160.5,283.5 153.1,210.9 					"/>
					<polygon class="st10" points="123.7,223.8 157.2,249.7 153.6,214.9 					"/>
				</g>
				<g>
					<g>
						<path id="XMLID_3_" class="st11" d="M141.4,92.3L141.4,92.3c-26.7,0-50.3,23.4-50.3,48.9l1.5,30.6c0,0,0.6,43.4,41.7,56.6
							c4.6,1.5,9.5,1.5,14.1,0c41.2-13.2,41.7-56.6,41.7-56.6l1.5-30.6C191.7,115.7,168.1,92.3,141.4,92.3z"/>
					</g>
				</g>
				<g>
					<g>
						<polyline class="st12" points="139.4,173.5 139.4,183.4 144.7,183.4 						"/>
					</g>
					<g>
						<g>
							<g>
								<path id="XMLID_2_" class="st0" d="M153.2,161.8c0,0,0.1-6.5,12.5-5.6c11.1,0.8,12.4,5.8,12.4,5.8s-1.6,7.5-13.8,7.7
									C152.1,170,153.2,161.8,153.2,161.8z"/>
							</g>
							<g>
								<defs>
									<path id="SVGID_1_" d="M153.2,161.8c0,0,0.1-6.5,12.5-5.6c11.1,0.8,12.4,5.8,12.4,5.8s-1.6,7.5-13.8,7.7
										C152.1,170,153.2,161.8,153.2,161.8z"/>
								</defs>
								<clipPath id="SVGID_2_">
									<use xlink:href="#SVGID_1_"  style="overflow:visible;"/>
								</clipPath>
								<path class="st13" d="M172.7,163.3c0,4.6-3.5,8.4-7.8,8.3c-4.3,0-7.7-3.8-7.7-8.5c0-4.6,3.5-8.4,7.8-8.3
									C169.3,154.8,172.7,158.6,172.7,163.3z"/>
							</g>
						</g>
						<g>
							<path d="M151.9,158.5c0.6-0.5,1.1-0.8,1.7-1.1c0.6-0.3,1.1-0.6,1.7-0.9c1.2-0.5,2.3-0.9,3.5-1.2c2.4-0.6,4.9-0.8,7.3-0.6
								c2.5,0.2,4.9,0.8,7.1,2c2.1,1.2,4,2.9,5.2,5.1c0.1,0.2,0,0.5-0.2,0.6s-0.5,0.1-0.6-0.1l0,0c-1.2-1.8-3.1-3.3-5.1-4.3
								s-4.3-1.4-6.5-1.4s-4.5,0.4-6.6,1c-1.1,0.3-2.1,0.8-3.1,1.3c-0.5,0.3-1,0.5-1.4,0.8s-0.9,0.6-1.2,0.9l0,0
								c-0.6,0.5-1.5,0.5-2-0.1S151.3,159.1,151.9,158.5C151.9,158.6,151.9,158.5,151.9,158.5z"/>
						</g>
					</g>
					<g>
						<g>
							<g>
								<path id="XMLID_1_" class="st0" d="M127.8,161.8c0,0-0.1-6.5-12.5-5.6c-11.1,0.8-12.4,5.8-12.4,5.8s1.5,7.5,13.7,7.7
									C128.8,170,127.8,161.8,127.8,161.8z"/>
							</g>
							<g>
								<defs>
									<path id="SVGID_3_" d="M127.8,161.8c0,0-0.1-6.5-12.5-5.6c-11.1,0.8-12.4,5.8-12.4,5.8s1.5,7.5,13.7,7.7
										C128.8,170,127.8,161.8,127.8,161.8z"/>
								</defs>
								<clipPath id="SVGID_4_">
									<use xlink:href="#SVGID_3_"  style="overflow:visible;"/>
								</clipPath>
								<path class="st14" d="M108.2,163.2c0,4.6,3.5,8.4,7.8,8.3c4.3,0,7.7-3.8,7.7-8.5c0-4.6-3.5-8.4-7.8-8.3
									C111.6,154.8,108.1,158.6,108.2,163.2z"/>
							</g>
						</g>
						<g>
							<path d="M127.1,160.6c-0.3-0.3-0.8-0.6-1.2-0.9c-0.4-0.3-0.9-0.6-1.4-0.8c-1-0.5-2-0.9-3.1-1.3c-2.1-0.7-4.4-1-6.6-1
								s-4.5,0.4-6.5,1.4s-3.9,2.4-5.1,4.3l0,0c-0.1,0.2-0.4,0.3-0.6,0.1c-0.2-0.1-0.3-0.4-0.1-0.6c1.2-2.2,3.1-3.9,5.2-5.1
								c2.1-1.2,4.6-1.9,7.1-2c2.5-0.2,4.9,0.1,7.3,0.6c1.2,0.3,2.4,0.7,3.5,1.2c0.6,0.3,1.1,0.5,1.7,0.9c0.6,0.3,1.1,0.6,1.7,1.1
								c0.6,0.5,0.7,1.4,0.2,2S127.8,161.2,127.1,160.6C127.2,160.7,127.1,160.7,127.1,160.6L127.1,160.6z"/>
						</g>
					</g>
					<path class="st15" d="M148.4,136c0,0,14.2-13.1,34.9,5L148.4,136z"/>
					<path class="st15" d="M132.5,136c0,0-14.2-13.1-34.9,5L132.5,136z"/>
					<path class="st0" d="M127.5,191.9h27.3c0,0-1.5,8.9-13.7,8.9C128.8,200.8,127.5,191.9,127.5,191.9z"/>
				</g>
				<path class="st8" d="M123.7,95.8c0,0-15.9,4.5-19.1,21c-3.3,17.5-19.9,31.7-19.9,31.7s7.1-41.9,7.8-43.2
					C93.3,104,123.7,95.8,123.7,95.8z"/>
				<path class="st8" d="M123.7,95.8c0,0,15.7-8.6,23.9,10.3c9.6,22.3,49.3,29.4,49.3,29.4S202,109,176.1,98
					C150.3,86.9,139.5,86.6,123.7,95.8z"/>
				<path class="st8" d="M120.8,82.9c0,0,12.5-14.2,39.7-7.9c22.8,5.3,45.9,22.7,47.1,51.7l-10.3,9.4L157.2,95L120.8,82.9z"/>
				<path class="st8" d="M120.8,82.9c0,0-19.7-5.4-35.2,12.9C65,120.2,79.2,152,79.2,152l25.1-45.5L120.8,82.9z"/>
			</g>
		</g>
	</g>
	<g>
		<path class="st16" d="M216.5,278.4c-9.6-22.5-46.2-27.6-46.2-27.6l-2.7,0.4l-10.7,8.7l-7.9,4h-5.6l-11.8-1.1h-6l-2.9-2.9l-9-9.1
			c-3.1,0.9-8.7,2.6-18.6,5.4c-33.4,9.7-35,46-41.5,88.1c-1.5,9.5-1.8,19.1-1.5,28.3c9.1,7.1,1.7,6.2,12.1,11.3
			c3.9-4.4,24-58.8,24-58.8S87,348,86.3,357c-0.6,9,5.5,87,2.4,92.3s-0.4,99.9-0.4,99.9s-3.7,103.6-3.2,120.1
			c0.6,16.1,138.7,11.9,135.9-21.6c-0.1-0.7-0.2-1.3-0.3-2c-8.6-35.4-7.5-196.6-7.5-196.6l-9-120.5L222,376c1-0.9,7.3,0.5,7.1,1.9
			c-0.2,1.5,4.2,2.3,4.4,2.3c3.5-4,5.1,6.1,10.3-2.9C243.5,339.1,225.1,298.5,216.5,278.4z"/>
		<path class="st17" d="M84.8,669.2C84.2,652.8,88,549.1,88,549.1s-2.7-94.7,0.4-99.9c3.1-5.3-3.1-83.3-2.4-92.3
			c0.6-9,1.8-31.8,1.8-31.8s-0.1-0.5,2.9-6.1c7.7,4.8,8.9,31.8,10.1,40.7c1.9,14.8,2.8,29.7,3,44.6c0.4,30.4-1.8,60.7-3.1,91.1
			c-1.5,35-1.3,71.3,13.1,103.2c14.4,31.9,46.8,58.2,81.7,54.8c8.6-0.8,17-3.4,25.3-5.9C223.5,681.1,85.3,685.3,84.8,669.2z"/>
	</g>
	<path class="st17" d="M159.9,245.7c-3.1,7.7-10.6,16.3-19.3,16.3c-8.8,0-16.2-8.6-19.3-16.3c0,0-11.2,4.2-10.3,6.1
		c3.6,7.7,10.2,17.8,18.2,20.8c3.6,1.3,7.4-7.3,11.5-7.3c3.9,0,7.2,7.5,10.6,6.3c8.4-3,15.5-12,19.1-20
		C171.2,249.6,159.9,245.7,159.9,245.7z"/>
	<g>
		<g>
			<path class="st18" d="M38.9,235.1c0.1,0.3,0,0.6-0.3,0.7c-0.3,0.1-0.6,0-0.7-0.3v-0.1l-3.6-11.2c-0.1-0.3,0.1-0.6,0.4-0.6
				c0.2,0,0.5,0.1,0.6,0.3L38.9,235.1z"/>
			<path class="st18" d="M46,233.1c0,0.3-0.2,0.6-0.5,0.6c-0.2,0-0.4-0.1-0.5-0.3l-4.9-15.2c-0.1-0.3,0.1-0.6,0.3-0.7
				c0.3-0.1,0.6,0.1,0.7,0.3l0,0L46,233.1z"/>
			<path class="st19" d="M55.7,288.7c-9.4-30.4-6.5-33.8-6.5-33.8l6.4-6.7l2.8-4.9l1.8-7.8c0.5-2.1,1.1-2.5-0.7-3.9
				c-3.7-2.9-6.3,2.3-8.1,6.9c-0.5,1.3-2.2,2.4-2.5,1.5l-7.1-23.9c-1.1-3.7-2.5-4-3.7-3.7c-1.2,0.1-2.2,1-2.5,2.2
				c-0.3,2.3-0.2,4.6,0.3,6.8c0,0-1.5-7.6-5.2-6.4s-1.6,6.7-1.3,8.7c0.2,1.3-0.8-2.6-2.7-4c-1-0.5-2.2-0.3-3,0.4
				c-2.9,2.1-0.1,8.9-0.1,8.9s-1.2-3-2.8-3.2c-1-0.2-2.1,0.6-2.7,2.1c-0.7,1.8-0.7,3.8,0.2,5.5L29,259.3l6.7,32.9L55.7,288.7z"/>
			<path class="st20" d="M27.3,238.7c0.1,0.3-0.1,0.6-0.3,0.7c-0.3,0.1-0.6-0.1-0.7-0.3l0,0l-3.6-11.2c-0.1-0.3,0.1-0.6,0.3-0.7
				c0.3-0.1,0.6,0.1,0.7,0.3l0,0L27.3,238.7z"/>
			<path class="st20" d="M34.4,236.7c0.1,0.3-0.1,0.6-0.3,0.7c-0.3,0.1-0.6-0.1-0.7-0.3l0,0l-4.9-15.2c-0.1-0.3,0.1-0.6,0.3-0.7
				c0.3-0.1,0.6,0.1,0.7,0.3L34.4,236.7z"/>
			<path class="st20" d="M41.2,235.1c0.1,0.3-0.1,0.6-0.4,0.6c-0.3,0.1-0.5-0.1-0.6-0.3l-5.9-17.6c-0.1-0.3,0-0.6,0.3-0.7
				c0.3-0.1,0.6,0,0.7,0.3v0.1L41.2,235.1z"/>
			<path class="st16" d="M31.1,270.1c0,0,1,97.5,11.2,107.9c10.2,10.5,16.1,13.9,24.1,3.2S50.6,264.6,50.6,264.6L31.1,270.1z"/>
		</g>
	</g>
	<g>
		<g>
			<path class="st18" d="M250.2,243c-0.1,0.3,0.1,0.6,0.4,0.7c0.3,0.1,0.6-0.1,0.7-0.4l0,0l3.3-12.2c0.1-0.3-0.1-0.6-0.4-0.7l0,0
				c-0.3-0.1-0.6,0.1-0.7,0.4L250.2,243z"/>
			<path class="st18" d="M242.5,241.2c-0.1,0.3,0.1,0.6,0.4,0.7c0.3,0.1,0.6-0.1,0.7-0.4l4.5-16.5c0.1-0.3-0.1-0.6-0.4-0.7
				c-0.3-0.1-0.6,0.1-0.7,0.4l0,0L242.5,241.2z"/>
			<path class="st19" d="M231.6,297.8l8.6-33.1l-7.3-7.6c-1.4-1.4-2.4-3.1-2.9-5c-0.5-1.4-3.7-10.2-3.7-11c-0.1-2.2,2.9-2.3,4.2-2
				c2.3,0.5,5,4.5,6.6,8.1c0.6,1.4,2.5,2.5,2.8,1.5l6.4-25.9c1-4,2.4-4.4,3.8-4.1c1.3,0.1,2.4,1,2.8,2.3c0.4,2.4,0.5,4.9,0,7.3
				c0,0,1.2-8.2,5.2-7.1c4,1.1,2.1,7.1,1.8,9.2c-0.2,1.4,0.7-2.9,2.7-4.4c0.8-0.7,2.3-0.4,3.2,0.3c3.2,2.1,0.5,9.5,0.5,9.5
				s1.2-3.3,2.9-3.6c1-0.2,2.3,0.6,3,2.1c0.9,1.9,0.9,4,0.1,5.9l-10.2,28.5l-5.6,35.6L231.6,297.8z"/>
			<path class="st20" d="M262.8,246.3c-0.1,0.3,0.1,0.6,0.4,0.7c0.3,0.1,0.6-0.1,0.7-0.4l3.3-12.2c0.1-0.3-0.1-0.6-0.4-0.7
				c-0.3-0.1-0.6,0.1-0.7,0.4l0,0L262.8,246.3z"/>
			<path class="st20" d="M255.1,244.5c-0.1,0.3,0.1,0.6,0.4,0.7c0.3,0.1,0.6-0.1,0.7-0.4l0,0l4.5-16.5c0.1-0.3-0.1-0.6-0.4-0.7
				c-0.3-0.1-0.6,0.1-0.7,0.4L255.1,244.5z"/>
			<path class="st20" d="M247.7,243.2c-0.1,0.3,0,0.6,0.2,0.8c0.3,0.1,0.6,0,0.8-0.2c0-0.1,0.1-0.1,0.1-0.2l5.4-19.2
				c0.1-0.3,0-0.6-0.3-0.8c-0.3-0.1-0.6,0-0.8,0.3c0,0.1,0,0.1-0.1,0.2L247.7,243.2z"/>
			<path class="st16" d="M238.2,272.4c0,0-23.1,84.8-18.2,98.5s8.9,19.3,20.6,12.9s19.7-104.2,19.7-104.2L238.2,272.4z"/>
		</g>
	</g>
	<g>
		<g>
			<g>
				<path class="st21" d="M160.4,232.3h-40.6c-16.8,0-30.5-13.7-30.5-30.5v-81.4h101.6v81.4C190.9,218.7,177.3,232.3,160.4,232.3z"
					/>
				<path class="st22" d="M184,211.2v-90.8h-9.9v90.8c0,7.6-3.2,14.4-8.4,19.6c-2.8,0.9-5.7,1.3-8.7,1.5c0,0,0,0-0.1,0.1h2.2
					c8,0,15.3-2.7,20.9-7.1C182.5,221.1,184,216.3,184,211.2z"/>
				<path class="st23" d="M205.3,133.9l-128.6,0.3l-0.6-5.4l-0.4-8.3l129-0.6c0,0,0.8,6.6,0.8,8.6
					C205.5,129.9,205.3,133.9,205.3,133.9z"/>
				<g>
					<ellipse class="st0" cx="96" cy="127.3" rx="2.6" ry="2.3"/>
					<ellipse class="st0" cx="184" cy="127.3" rx="2.6" ry="2.3"/>
				</g>
			</g>
			<g>
				<path class="st0" d="M110.6,123.7h4.4v1.3h-2.7v1.6h2.6v1.3h-2.6v2.9h-1.6v-7.1H110.6z"/>
				<path class="st0" d="M117.2,129.1l-0.5,1.8H115l2.2-7.1h2.1l2.2,7.1h-1.7l-0.6-1.8H117.2z M119,127.8l-0.4-1.5
					c-0.1-0.4-0.3-1-0.4-1.4l0,0c-0.1,0.4-0.2,1-0.3,1.4l-0.4,1.5H119z"/>
				<path class="st0" d="M127.4,130.7c-0.3,0.1-1,0.3-1.8,0.3c-2.5,0-3.7-1.5-3.7-3.6c0-2.4,1.7-3.8,3.9-3.8c0.8,0,1.5,0.2,1.8,0.3
					l-0.3,1.3c-0.3-0.1-0.8-0.3-1.4-0.3c-1.3,0-2.3,0.8-2.3,2.4c0,1.4,0.8,2.3,2.3,2.3c0.5,0,1-0.1,1.3-0.2L127.4,130.7z"/>
				<path class="st0" d="M132.8,127.9h-2.6v1.7h2.9v1.3h-4.6v-7.1h4.4v1.3h-2.8v1.5h2.6v1.3H132.8z"/>
				<path class="st0" d="M136.4,129.2c0.4,0.2,1.1,0.4,1.8,0.4s1.1-0.3,1.1-0.8c0-0.4-0.3-0.7-1.2-1c-1.2-0.4-2-1.1-2-2.1
					c0-1.2,1-2.2,2.7-2.2c0.8,0,1.4,0.2,1.8,0.4l-0.4,1.3c-0.3-0.1-0.8-0.3-1.5-0.3s-1,0.3-1,0.7c0,0.5,0.4,0.7,1.3,1
					c1.3,0.5,1.9,1.1,1.9,2.1c0,1.2-0.9,2.2-2.9,2.2c-0.8,0-1.6-0.2-2-0.4L136.4,129.2z"/>
				<path class="st0" d="M143.7,123.7v2.7h2.7v-2.7h1.6v7.1h-1.6v-3h-2.7v3H142v-7.1C142,123.7,143.7,123.7,143.7,123.7z"/>
				<path class="st0" d="M151,123.7v7.1h-1.6v-7.1C149.4,123.7,151,123.7,151,123.7z"/>
				<path class="st0" d="M156.6,127.9H154v1.7h2.9v1.3h-4.6v-7.1h4.4v1.3H154v1.5h2.6V127.9z"/>
				<path class="st0" d="M158,123.7h1.6v5.8h2.8v1.4H158V123.7z"/>
				<path class="st0" d="M163.4,123.8c0.6-0.1,1.4-0.1,2.2-0.1c1.4,0,2.2,0.2,2.9,0.8c0.7,0.6,1.2,1.4,1.2,2.7
					c0,1.4-0.5,2.3-1.2,2.9c-0.8,0.6-1.9,0.9-3.3,0.9c-0.8,0-1.4-0.1-1.8-0.1L163.4,123.8L163.4,123.8z M165.1,129.7
					c0.1,0,0.4,0,0.6,0c1.5,0,2.4-0.8,2.4-2.5c0-1.5-0.9-2.3-2.2-2.3c-0.4,0-0.6,0-0.7,0.1v4.7H165.1z"/>
			</g>
		</g>
		<g>
			<g>
				<path class="st24" d="M106.8,196.2c4.2,4.7-10-20.3-15.7-25c-0.7-0.5-1,0.1-1,0.1l0.4,0.4C90.4,171.7,104.8,194,106.8,196.2z"/>
				<path class="st24" d="M178.2,186.5c-3.7,5.1,4.1,0.1,12.2-14.9c0.4-0.8,0-1,0-1v-1.7C190.4,168.9,180,184.1,178.2,186.5z"/>
				<path class="st24" d="M186.6,189.7c0,0-17.5,20.2-18.9,22.7c-1.4,2.6-0.3,1.6-0.3,1.6S187.8,193.9,186.6,189.7z"/>
				<g>
					<path class="st25" d="M179.8,192.9l-0.8,1.4l-12.1,21c-0.6,1.1-1.8,1.8-3.1,1.8H117c-1.3,0-2.5-0.7-3.1-1.8l-12-21l-0.8-1.4
						c-1-1.7-0.4-3.9,1.4-4.9c8.1-4.4,29.3-15.1,33.7-18.2c5.3-3.8,12,0,12,0l30.5,18.3C180.3,189.1,180.8,191.2,179.8,192.9z"/>
					<ellipse class="st25" cx="140.9" cy="213.4" rx="25.6" ry="17.2"/>
					<ellipse class="st26" cx="140.9" cy="213.4" rx="25.6" ry="17.2"/>
					<ellipse class="st27" cx="140.9" cy="213.4" rx="23.5" ry="15.8"/>
					<path class="st28" d="M162.5,219.3h-44.3c-1,0-1.9-0.8-1.9-1.9l0,0c0-1,0.8-1.9,1.9-1.9h44.3c1,0,1.9,0.8,1.9,1.9h0.9
						C165.3,218.4,163.6,219.3,162.5,219.3z"/>
					<g>
						<g>
							<path class="st29" d="M102.8,190.7c0.3-0.2,0.7-0.4,1-0.6"/>
							<path class="st30" d="M103.9,190.2c8.9-4.8,28.2-14.4,32.2-17.5c5.5-4.2,9.6-2.1,12,0c7,6,31.1,19.2,31.6,19.5"/>
						</g>
					</g>
					<g>
						<g>
							<path class="st29" d="M102.8,191.9c0.3-0.2,0.7-0.4,1-0.6"/>
							<path class="st30" d="M103.9,191.3c8.9-4.8,28.2-14.4,32.2-17.5c5.5-4.2,9.6-2.1,12,0c7,6,31.1,19.2,31.6,19.5"/>
						</g>
					</g>
					<g>
						<path class="st31" d="M126.2,221.1c2.5,0.2,4.9,0.4,7.4,0.5c0.6,0,1.2,0,1.8,0.1l1.8,0.1h1.8h1.8h1.8h1.8l1.8-0.1
							c0.6,0,1.2-0.1,1.8-0.1c2.5-0.1,4.9-0.3,7.4-0.5c-2.4,0.6-4.9,1-7.3,1.2c-0.6,0.1-1.2,0.1-1.8,0.2l-1.8,0.1l-1.8,0.1h-1.8
							h-1.8l-1.8-0.1l-1.8-0.1c-0.6-0.1-1.2-0.1-1.8-0.2C131.1,222.1,128.6,221.7,126.2,221.1z"/>
					</g>
					<g>
						<path class="st31" d="M128.8,223.5c2,0.1,4.1,0.3,6.1,0.4c0.5,0,1,0,1.5,0.1h1.5h1.5h1.5h1.5h1.5h1.5c0.5,0,1,0,1.5-0.1
							c2-0.1,4.1-0.2,6.1-0.4c-2,0.5-4,0.8-6.1,1c-0.5,0.1-1,0.1-1.5,0.1l-1.5,0.1l-1.5,0.1h-1.5h-1.5l-1.5-0.1l-1.5-0.1
							c-0.5,0-1-0.1-1.5-0.1C132.9,224.3,130.9,223.9,128.8,223.5z"/>
					</g>
					<g>
						<path class="st31" d="M131.7,225.6c1.6,0.1,3.1,0.2,4.7,0.3c0.4,0,0.8,0,1.2,0h1.2h1.2h1.2h1.2h1.2h1.2c0.4,0,0.8,0,1.2,0
							c1.6-0.1,3.1-0.2,4.7-0.3c-1.5,0.4-3.1,0.6-4.7,0.8c-0.4,0-0.8,0.1-1.2,0.1l-1.2,0.1h-1.2h-1.2H140h-1.2l-1.2-0.1
							c-0.4,0-0.8-0.1-1.2-0.1C134.8,226.2,133.2,226,131.7,225.6z"/>
					</g>
					<path class="st32" d="M179,194.3l-12.1,21c-0.6,1.1-1.8,1.8-3.1,1.8H117c-1.3,0-2.5-0.7-3.1-1.8l-12-21
						c0.2-0.1,0.4-0.3,0.6-0.4c1.1-0.6,2.5-1.3,4.1-2.1c9.7-4.9,26.5-12.7,29.6-16.1c4.4-4.8,9.7-2.3,12,0
						c4.4,4.7,18.4,12.2,25.8,16c2.8,1.4,4.7,2.4,4.7,2.4C178.8,194,178.9,194.2,179,194.3z"/>
					<g class="st33">
						<g>
							<defs>
								<path id="SVGID_5_" d="M135.1,176.5c0,0-18.1,36.7-18.2,40.5c-0.1,3.9,48.6-0.5,48.6-0.5s-15-38.7-15.5-39.1
									c-0.5-0.4-5.6-13.9-5.6-13.9s-6.2,2.1-6.5,3.4S133.9,172.8,135.1,176.5z"/>
							</defs>
							<clipPath id="SVGID_6_">
								<use xlink:href="#SVGID_5_"  style="overflow:visible;"/>
							</clipPath>
							<path class="st34" d="M179,194.3l-12.1,21c-0.6,1.1-1.8,1.8-3.1,1.8H117c-1.3,0-2.5-0.7-3.1-1.8l-12-21
								c0.2-0.1,0.4-0.3,0.6-0.4c8.1-4.4,30-14.3,33.7-18.2c4.4-4.8,9.7-2.3,12,0c6.1,6.5,30.5,18.3,30.5,18.3
								C178.8,194,178.9,194.2,179,194.3z"/>
						</g>
					</g>
					<g class="st35">
						<path class="st31" d="M136.2,179.1c-0.1,0-0.2,0-0.3-0.1c-0.2-0.1-0.2-0.4,0-0.5c1.7-1.7,4-2.7,6.4-2.7l0,0
							c2.4,0,4.7,1,6.4,2.7c0.1,0.2,0.1,0.4,0,0.5c-0.2,0.1-0.4,0.1-0.5,0c-1.5-1.6-3.6-2.5-5.9-2.5c-2.2,0-4.3,0.9-5.9,2.5
							C136.4,179.1,136.3,179.1,136.2,179.1z"/>
					</g>
					<path class="st28" d="M178.6,193.9c0.3,0.2,0.3,0.5,0.2,0.8l-11.9,20.5c-0.6,1.1-1.8,1.8-3.1,1.8H117c-1.3,0-2.5-0.7-3.1-1.8
						l-11.8-20.5c-0.2-0.3-0.1-0.6,0.2-0.8c0,0,0.1,0,0.1-0.1c1-0.6,0.6-2.1,1.9-2.8c0.3-0.1-1.3,1.3-1.1,1.5l15.2,18.8
						c0.1,0.2,0.3,0.3,0.5,0.3l45.1-0.8c0.2,0,0.4-0.1,0.5-0.3l13.9-17.8c0.1-0.3,0.1-1,0.4-0.9
						C181.4,193.1,178.6,193.9,178.6,193.9L178.6,193.9z"/>
					<path class="st26" d="M101,192.9l12.8,22.4c0.6,1.1,1.8,1.8,3.1,1.8h46.9c1.3,0,2.4-0.7,3.1-1.8l12.9-22.4
						c1-1.7,0.4-3.8-1.3-4.8L148,169.8c0,0-6.6-3.8-12,0c-4.4,3.1-25.6,13.8-33.7,18.2C100.7,188.9,100.1,191.1,101,192.9z"/>
				</g>
			</g>
			<path class="st24" d="M96,188.7c0,0,14.5,24.9,17.7,27.4C113.7,216.1,95.4,194.6,96,188.7z"/>
		</g>
	</g>
</g>
</svg>
