<?xml version="1.0" encoding="utf-8"?>
<!-- Generator: Adobe Illustrator 22.1.0, SVG Export Plug-In . SVG Version: 6.00 Build 0)  -->
<svg version="1.1" id="Layer_1" xmlns="http://www.w3.org/2000/svg" xmlns:xlink="http://www.w3.org/1999/xlink" x="0px" y="0px"
	 viewBox="0 0 300.5 821.3" style="enable-background:new 0 0 300.5 821.3;" xml:space="preserve">
<style type="text/css">
	.st0{fill:#F8BA8C;}
	.st1{fill:#FFFFFF;}
	.st2{fill:#22366B;}
	.st3{fill:#18294C;}
	.st4{fill:#22AA66;}
	.st5{fill:#229958;}
	.st6{fill:#209E5F;}
	.st7{fill:#24BF77;}
	.st8{fill:#25AF66;}
	.st9{fill:#E3AC81;}
	.st10{fill:#F4A876;}
	.st11{fill:#793B16;}
	.st12{fill:#EADBD5;}
	.st13{fill:#EF9D65;}
	.st14{fill:#5B2C0B;}
	.st15{fill:#803E19;}
	.st16{fill:#F7E88F;}
	.st17{fill:#F2D453;}
</style>
<g id="BACKGROUND">
</g>
<g id="OBJECT">
	<path class="st0" d="M228.9,477.2l-17-2.4c0,0,10-84.7,5.4-109.7c-5.1-27.7-17.9-55.3-17.9-55.3s-6.9-55.1,6.3-49.7
		s32.8,66.9,36.6,105.5C245.2,395.3,228.9,477.2,228.9,477.2z"/>
	<g>
		<g>
			<g>
				<g>
					<path class="st1" d="M75.5,812c24.4-6.5,45.1-11.1,50-14.3c3.3-2.2-0.1-10.7-0.1-10.7l-26.3-13.7l-54.4,22.9c0,0-1.3,5.4,1,8.6
						C49.6,810,63.3,815.2,75.5,812z"/>
					<path class="st1" d="M230.6,812c-24.4-6.5-45.1-11.1-50-14.3c-3.3-2.2,0.1-10.7,0.1-10.7l26.3-13.7l54.4,22.9
						c0,0,1.3,5.4-1,8.6C256.5,810,242.9,815.2,230.6,812z"/>
					<path class="st2" d="M231.1,806.1c-24.4-6.5-45.2-11-50-14.3s0-24.9,0-24.9l26.4,0.5c0,0,36.7,21.5,47.3,23.7
						C273.9,794.9,250.7,811.3,231.1,806.1z"/>
					<path class="st3" d="M260.7,793.5c-5.4,4-13.4,6.2-19.8,5.9c-5.9-0.3-11.4-2.1-16.8-4.4c-5.6-2.3-12.3-4.5-17.3-8
						c-7.2-5.1-10.4-12.9-15.2-19.9l-10.5-0.2c0,0-4.8,21.5,0,24.9c4.8,3.3,25.6,7.9,50,14.3C247.8,810.5,267,799.3,260.7,793.5z"/>
					<path class="st4" d="M152,496.7c6.7,10.5,18.8,58.9,20.7,119.6c2.1,65.5-1.9,157.2,4.8,161.1c11.3,6.4,37.8-3.3,40.1-10.5
						c-0.5-13.9-11.7-207.7-5.3-288.7C174.9,456.4,136.8,472.8,152,496.7z"/>
					<path class="st5" d="M193.1,767.6c-7.8-9.2-7.9-25-9.3-36.4c-2.2-18.1,0.5-35.9-2-54.1c-1.6-11.8-5.7-28.6-0.4-39.9
						c1.9-4,7.4-5.7,10.2-8.7c1.9-2-4.3-3.6-5.5-4.4c-1.7-1-2.9-3.2-3.7-5c-2.3-5.4-1.7-12.5-2.3-18.3c-1.1-9.8-1.9-19.7-2.4-29.5
						c-1.2-22.8,3.6-63-24.2-71.6c6.9,14.8,17.4,60.5,19.2,116.7c2.1,65.5-1.9,157.2,4.8,161.1c8,4.6,23.7,1,32.9-4.1
						C204.1,774.1,197.9,773.2,193.1,767.6z"/>
					<path class="st2" d="M75.5,806.1c24.4-6.5,45.2-11,50-14.3s0-24.9,0-24.9l-26.4,0.5c0,0-36.7,21.5-47.3,23.7
						C32.8,794.9,55.9,811.3,75.5,806.1z"/>
					<path class="st3" d="M125.5,766.9l-14,0.3c2.4,7.1,0.2,15.5-7.9,19.7c-8.2,4.3-17.6,9-26.6,10.8c-10.1,2.1-20.8-1-31-1.2
						c-0.5,0-0.9-0.1-1.3-0.3c0.2,5.9,16.4,13.7,30.8,9.9c24.4-6.5,45.2-11,50-14.3C130.3,788.4,125.5,766.9,125.5,766.9z"/>
					<path class="st4" d="M148.8,494.9c-6.7,10.5-15.8,60.8-17.7,121.5c-2.1,65.5,3.5,157.2-3.2,161.1c-11.3,6.4-37.8-3.3-40.1-10.5
						c0.5-14.3,9.7-207.4,3.2-288.8C128.5,456.3,164,470.9,148.8,494.9z"/>
					<path class="st5" d="M148.8,494.9c0.5-0.8,0.9-1.5,1.3-2.3c-19.2,13-24.8,40.2-27.1,62.3c-1.6,15.6-0.2,31-1.4,46.5
						c-0.5,6.1-0.9,13.2-5,18.1c-2.6,3.1-5.9,5.3-9.3,7.4c3.5,2.3,7.8,4.3,9.5,8c3.3,7-1.2,11-1,18c0.3,10.1,2.6,20.1,2.6,30.3
						c0,10.3-1.1,20.5-0.9,30.8c0.3,15.1,5.4,33.8-3.4,47.5c-6,9.2-12.5,10.9-21,10.7c8.9,5.6,26.2,10,34.7,5.1
						c6.7-3.8,1.1-95.6,3.2-161.1C133,555.7,142.1,505.4,148.8,494.9z"/>
					<path class="st4" d="M212.4,478.2c-3.2,26.1-117,27.9-120.2,4.9c-1.5-10.9-1.5-26-0.5-34.8c0.3-2.4,0.6-4.3,1.1-5.6
						c2-6,112.9-18.2,116.1-1.7c0.4,0,1,1.7,1.7,4.5C212.2,452.4,213.9,465.7,212.4,478.2z"/>
					<path class="st6" d="M210.6,445.6c-1.7,1.2-3.6,2-5.6,2.8c-29.4,11.8-62.5,11.2-93.6,5.4c-6.3-1.2-13.5-2.5-19.7-5.4
						c0.3-2.4,0.6-4.3,1.1-5.6c2-6,112.9-18.2,116.1-1.7C209.3,441.1,209.9,442.8,210.6,445.6z"/>
					<path class="st7" d="M208.9,441.1c-5,3.8-14.5,6.6-26.1,8.4c-7,1.1-14.7,1.8-22.6,2.1c-1.6,0.1-3.2,0.1-4.8,0.2
						c-0.8,0-1.6,0-2.4,0c-24.8,0.4-50-2.6-60.2-9.1c-6.7-14.6-2.9-126.5-2.9-126.5s-0.1-0.2-0.2-0.6c0-0.1-0.1-0.2-0.1-0.3
						c-0.1-0.2-0.1-0.4-0.2-0.6c0,0,0,0,0-0.1l0,0c0-0.1-0.1-0.2-0.1-0.3c-0.2-0.8-0.5-1.7-0.9-2.8c-0.1-0.2-0.1-0.4-0.2-0.7
						c-0.1-0.4-0.3-0.9-0.4-1.4c-0.1-0.2-0.1-0.4-0.2-0.6c0-0.1,0-0.1,0-0.2c-0.1-0.4-0.2-0.7-0.3-1.1c0,0,0,0,0-0.1l0,0
						c0-0.2-0.1-0.3-0.1-0.5c-0.1-0.3-0.2-0.5-0.2-0.8c-0.6-2-1.2-4.2-1.9-6.5c-0.2-0.8-0.4-1.6-0.7-2.5c-0.3-0.9-0.5-1.9-0.8-2.9
						s-0.5-2-0.8-2.9c-0.1-0.4-0.2-0.8-0.3-1.2c0-0.1,0-0.2-0.1-0.3c-0.2-0.9-0.5-1.9-0.7-2.8c0-0.1,0-0.1,0-0.2
						c-0.2-0.6-0.3-1.3-0.5-1.9c-2.7-11.2-4.5-21.6-2.5-23.8c0.3-0.4,0.8-0.8,1.3-1.2l0,0c5.5-4.6,18.7-9.2,31.5-12.9
						c2-0.6,3.9-1.1,5.8-1.6l0,0c5.6-1.5,10.9-2.8,15.1-3.8c5.9-1.4,9.8-2.2,9.8-2.2s11.4,2.5,24.6,6.1c0.2,0.1,0.3,0.1,0.3,0.1l0,0
						c1.1,0.3,2.3,0.6,3.4,0.9c13.9,3.9,28.9,8.8,34.2,13.1l0,0c0.6,0.5,1.1,1,1.5,1.5c1.2,1.8,0.7,9.3-0.3,20.4
						c-0.2,2.1-0.4,4.3-0.6,6.6c-0.1,0.9-0.2,1.8-0.2,2.7c-0.1,1.6-0.3,3.3-0.4,5c-0.1,1.1-0.2,2.3-0.3,3.5
						c-0.3,3.9-0.6,8.1-0.8,12.4c-0.1,1.1-0.1,2.3-0.2,3.5c-0.1,1-0.1,2.1-0.1,3.1c0,0.1,0,0.2,0,0.3v0.1c-0.1,2.4-0.2,4.9-0.2,7.4
						c0,1.2-0.1,2.4-0.1,3.6c-0.1,6.6,0,13.4,0.4,20.3c0.1,1.7,0.2,3.4,0.3,5.1c0,0.8,0.1,1.7,0.2,2.5c0.2,3.2,0.4,6.3,0.7,9.4
						c0.1,0.8,0.1,1.5,0.2,2.2c0.2,2.1,0.4,4.2,0.5,6.3c0.1,0.7,0.1,1.4,0.2,2.1c0.3,3,0.6,5.9,0.8,8.7c0.1,1.1,0.2,2.2,0.4,3.3
						c0.3,2.7,0.6,5.3,0.8,7.9c0.2,1.5,0.3,2.9,0.5,4.3c0.2,1.5,0.3,3,0.5,4.4C210,421.6,210.8,432.9,208.9,441.1z"/>
					<path class="st6" d="M170.6,246.7c-2.7,6-12.9,27.2-23.6,29.5c0,0-24.9-1.5-35.6-29c2-0.6,3.9-1.1,5.8-1.6l0,0
						c0.2-0.1,0.4-0.2,0.6-0.3c0.1-0.1,0.3-0.2,0.4-0.3c1.3-0.9,3.3-2.5,5.4-5.4c0.1-0.2,0.2-0.3,0.3-0.5c0.2-0.3,0.4-0.6,0.6-1
						c0.1-0.2,0.2-0.4,0.3-0.6c0.5-1,0.9-2,1.2-3.2c2.1-0.1,4.6-0.2,7.2-0.3l0,0c7.4-0.2,16.2,0,23.4,1.1c0.7,2.3,1.5,3.9,2.6,5.5
						c2.3,3.3,6.3,4.7,7.4,5c0.2,0.1,0.3,0.1,0.3,0.1l0,0C168.3,246.1,169.5,246.4,170.6,246.7z"/>
					<path class="st6" d="M192.1,323c0.5,17.3,3.3,34.2,7.6,51c2.1,8.1,3.8,16.3,5.9,24.4c0.7,2.7,1.7,5.3,2.8,7.9
						c-1.5-14.8-3.8-33.3-5-56.2c-1.4-26.4,1-51.6,2.5-68.5C198.8,294.6,191.7,308.8,192.1,323z"/>
					<path class="st8" d="M152.6,442.8c-25,0.9-44.8-11.7-48.8-24.9c-4-13.1-2.8-69.5-4.6-94.1c-1.2-17-7.5-30.5-18.7-41.2
						c3.5,15.5,9.3,33.7,9.3,33.7S86,428.2,92.7,442.8c14.5,9.2,59.5,11.4,90.1,6.7C172.4,449,162.7,442.4,152.6,442.8z"/>
					<path class="st9" d="M167.2,245.7L167.2,245.7c-0.2,0.6-8.9,23.9-22,27c-0.8-0.2-1.7-0.4-2.5-0.6c-0.2-0.1-0.4-0.1-0.6-0.2
						c-0.3-0.1-0.6-0.2-0.8-0.3c-0.4-0.1-0.7-0.3-1.1-0.4c-0.3-0.1-0.7-0.3-1-0.5c-12-5.9-20.6-21-22.3-24.2
						c-0.1-0.1-0.1-0.2-0.2-0.3c0-0.1-0.1-0.1-0.1-0.2c0-0.1,0-0.1,0-0.1s0,0,0.1-0.1s0.3-0.1,0.5-0.2l0,0c0.2-0.1,0.4-0.2,0.6-0.3
						c0.1-0.1,0.3-0.2,0.4-0.3c1.3-0.9,3.3-2.5,5.4-5.4c0.1-0.2,0.2-0.3,0.3-0.5c0.2-0.3,0.4-0.6,0.6-1c0.1-0.2,0.2-0.4,0.3-0.6
						c0.5-1,0.9-2,1.2-3.2c0.1-0.5,0.3-1.1,0.4-1.8c0-0.3,0.1-0.5,0.1-0.8c0,0,0-0.1,0-0.2c0.1-0.5,0.1-0.9,0.2-1.5
						c0.2-2.3,0.2-5.2,0-8.7c0-0.4,0-0.8-0.1-1.3c0-0.2,0-0.4,0-0.7c0-0.1,0-0.2,0-0.4l0,0c0-0.1,0-0.2,0-0.3s0-0.3,0-0.5
						c0-0.1,0-0.1,0-0.2c0-0.1,0-0.3,0-0.5l0,0c0-0.3,0-0.6-0.1-1c0-0.3,0-0.5-0.1-0.8c0-0.2,0-0.4,0-0.6c0-0.3,0-0.6-0.1-0.9
						c0-0.5-0.1-1.1-0.1-1.6c0-0.1,0-0.2,0-0.4c0-0.1,0-0.2,0-0.3l0,0c0-0.1,0-0.1,0-0.2c0-0.2,0-0.4,0-0.6c0-0.2,0-0.4-0.1-0.6
						c0-0.2,0-0.4-0.1-0.6c0-0.2,0-0.4-0.1-0.6c0-0.2,0-0.4-0.1-0.6c0-0.2,0-0.3-0.1-0.5l0,0l0,0c0-0.1,0-0.3,0-0.4v-0.1
						c0-0.2,0-0.4-0.1-0.6c0-0.2,0-0.4-0.1-0.6c0-0.2,0-0.4-0.1-0.6c0-0.2,0-0.4-0.1-0.6c0-0.2,0-0.4-0.1-0.6c0-0.1,0-0.3,0-0.5V204
						c0-0.2,0-0.4-0.1-0.6c0-0.2,0-0.4-0.1-0.6c0-0.2,0-0.4-0.1-0.6c0-0.2,0-0.4-0.1-0.6c0-0.2,0-0.3-0.1-0.5V201
						c0-0.2,0-0.4-0.1-0.6c0-0.2,0-0.4-0.1-0.6c0-0.2,0-0.4,0-0.6s0-0.4,0-0.6c0-0.2,0-0.4,0-0.5l0,0c0-0.2,0-0.4,0-0.6
						c0-0.2,0-0.4,0-0.6l0,0c0-0.2,0-0.4,0-0.6v0.7c0-0.2,0-0.3,0-0.5s0-0.4,0-0.6c0-0.2,0-0.4,0-0.6l0,0c0-0.2,0-0.4,0-0.6
						c0-0.2,0-0.4,0-0.5c0-0.2,0-0.4,0.1-0.6c0-0.2,0-0.4,0-0.6c0-0.2,0-0.4,0.1-0.6c0-0.2,0-0.4,0.1-0.6c0-0.2,0.1-0.4,0.1-0.5
						v-0.2c0-0.1,0-0.3,0.1-0.4c0-0.2,0.1-0.4,0.1-0.5c0-0.2,0.1-0.4,0.1-0.6c0-0.2,0.1-0.4,0.1-0.5c0-0.2,0.1-0.3,0.1-0.5l0,0
						c0.1-0.2,0.1-0.4,0.2-0.5c0-0.2,0.1-0.4,0.2-0.5c0.1-0.2,0.1-0.4,0.2-0.5c0.1-0.2,0.1-0.4,0.2-0.5c0.1-0.2,0.1-0.4,0.2-0.5
						c0.1-0.2,0.2-0.4,0.2-0.5c0.1-0.2,0.2-0.4,0.2-0.5c0.1-0.2,0.2-0.3,0.3-0.5c0.1-0.2,0.2-0.3,0.3-0.5c0.1-0.2,0.2-0.4,0.3-0.5
						c0.1-0.2,0.2-0.3,0.3-0.5c0.1-0.2,0.2-0.3,0.3-0.5c0.1-0.2,0.2-0.3,0.4-0.5c0.1-0.2,0.3-0.3,0.4-0.5c0.1-0.2,0.3-0.4,0.4-0.5
						c0.2-0.2,0.3-0.3,0.5-0.5s0.3-0.3,0.5-0.5s0.3-0.3,0.5-0.5l0,0c0.2-0.2,0.4-0.3,0.6-0.5c0.2-0.2,0.4-0.3,0.7-0.5
						s0.5-0.3,0.8-0.5s0.6-0.3,0.9-0.5c0.4-0.2,0.7-0.4,1.1-0.5l0,0c0.5-0.2,1-0.4,1.5-0.5c0.2-0.1,0.4-0.1,0.6-0.1
						c0.2,0,0.4-0.1,0.6-0.1c1.2-0.2,2.5-0.2,3.7,0c0.2,0,0.4,0.1,0.6,0.1c0.1,0,0.2,0,0.4,0.1l0,0c0.5,0.1,1,0.3,1.5,0.5
						c0.4,0.1,0.7,0.3,1.1,0.5l0,0c0.3,0.1,0.6,0.3,0.9,0.5c0.3,0.1,0.5,0.3,0.8,0.5c0.2,0.1,0.5,0.3,0.7,0.5
						c0.2,0.1,0.4,0.3,0.6,0.5c0.2,0.1,0.4,0.3,0.6,0.5c0.2,0.2,0.3,0.3,0.5,0.5s0.3,0.3,0.5,0.5c0.1,0.2,0.3,0.3,0.4,0.5
						c0.1,0.2,0.3,0.3,0.4,0.5c0.1,0.2,0.3,0.3,0.4,0.5c0.1,0.2,0.2,0.3,0.4,0.5c0.1,0.2,0.2,0.3,0.3,0.5s0.2,0.3,0.3,0.5
						s0.2,0.3,0.3,0.5s0.2,0.4,0.3,0.5c0.1,0.2,0.2,0.3,0.2,0.5c0.1,0.2,0.2,0.3,0.2,0.5l0,0c0,0.1,0.1,0.1,0.1,0.2
						c0,0.1,0.1,0.2,0.1,0.4c0.1,0.2,0.1,0.3,0.2,0.5c0.1,0.2,0.1,0.4,0.2,0.5c0,0,0,0,0,0.1s0.1,0.3,0.1,0.5
						c0.1,0.2,0.1,0.4,0.2,0.5c0.1,0.2,0.1,0.4,0.1,0.5c0,0.2,0.1,0.4,0.1,0.6c0,0.2,0.1,0.4,0.1,0.5l0,0c0,0.2,0.1,0.4,0.1,0.5
						c0,0.2,0.1,0.4,0.1,0.5c0,0.2,0.1,0.4,0.1,0.6c0,0.2,0,0.4,0.1,0.5c0,0.2,0,0.4,0.1,0.6c0,0.2,0,0.4,0.1,0.6c0,0.2,0,0.4,0,0.5
						c0,0.2,0,0.4,0,0.6c0,0.2,0,0.4,0,0.6v0.1c0,0.1,0,0.3,0,0.4c0,0.2,0,0.4,0,0.6c0,0.2,0,0.4,0,0.6l0,0c0,0.2,0,0.4,0,0.6
						c0,0.2,0,0.4,0,0.6c0,0.2,0,0.4,0,0.6v0.1c0,0.2,0,0.3,0,0.5s0,0.4,0,0.6s0,0.4,0,0.6c0,0.2,0,0.4,0,0.6c0,0.2,0,0.4,0,0.6
						c0,0.2,0,0.4,0,0.6l0,0c0,0.2,0,0.4,0,0.6c0,0.2,0,0.4,0,0.6v0.6c0,0.2,0,0.4,0,0.6c0,0.2,0,0.4,0,0.6c0,0.2,0,0.4,0,0.6
						s0,0.4,0,0.6v0.6c0,0.2,0,0.4,0,0.5v0.6c0,0.2,0,0.4,0,0.6s0,0.4,0,0.6c0,0.2,0,0.4,0,0.5v0.6c0,0.2,0,0.4,0,0.6
						c0,0.2,0,0.4,0,0.6v0.4c0,2.3,0,4.3,0.1,6.2c0,0.2,0,0.4,0,0.6c0.2,8.3,0.8,13.4,1.8,17c0.7,2.3,1.5,3.9,2.6,5.5
						c2.3,3.3,6.3,4.7,7.4,5C167.1,245.7,167.2,245.7,167.2,245.7z"/>
					<path class="st10" d="M145.3,272.7c-0.8-0.2-1.7-0.4-2.5-0.6c-0.2-0.1-0.4-0.1-0.6-0.2c-0.3-0.1-0.6-0.2-0.8-0.3
						c-0.4-0.1-0.7-0.3-1.1-0.4c-0.3-0.1-0.7-0.3-1-0.5c-12.3-6-20.6-21-22.3-24.2c-0.1-0.1-0.1-0.2-0.2-0.3c0-0.1-0.1-0.1-0.1-0.2
						c0-0.1,0-0.1,0-0.1s0,0,0.1-0.1s0.3-0.1,0.5-0.2l0,0c0.2-0.1,0.4-0.2,0.6-0.3c0.1-0.1,0.3-0.2,0.4-0.3c1.3-0.9,3.3-2.5,5.4-5.4
						c0.1-0.2,0.2-0.3,0.3-0.5c0.2-0.3,0.4-0.6,0.6-1c0.1-0.2,0.2-0.4,0.3-0.6c0.5-1,0.9-2,1.2-3.2c0.1-0.5,0.3-1.1,0.4-1.8
						c0-0.3,0.1-0.5,0.1-0.8c0,0,0-0.1,0-0.2c0.1-0.5,0.1-0.9,0.2-1.5c0.2-2.3,0.2-5.2,0-8.7c0-0.4,0-0.8-0.1-1.3c0-0.2,0-0.4,0-0.7
						v-0.4l0,0c0-0.1,0-0.2,0-0.3s0-0.3,0-0.5c0-0.1,0-0.1,0-0.2c0-0.1,0-0.3,0-0.5c0-0.3,0-0.6-0.1-1c0-0.3,0-0.5-0.1-0.8
						c0-0.2,0-0.4,0-0.6c0-0.3,0-0.6-0.1-0.9c0-0.5-0.1-1.1-0.1-1.6c0-0.1,0-0.3,0-0.4c0-0.1,0-0.2,0-0.3l0,0c0-0.1,0-0.2,0-0.2
						c0-0.2,0-0.4-0.1-0.6c0-0.2,0-0.4,0-0.6c0-0.2,0-0.4,0-0.6c0-0.2,0-0.4-0.1-0.6c0-0.2,0-0.4-0.1-0.6c0-0.2,0-0.3-0.1-0.5l0,0
						c0-0.1,0-0.3,0-0.4v-0.1c0-0.2,0-0.4-0.1-0.6c0-0.2,0-0.4-0.1-0.6c0-0.2,0-0.4-0.1-0.6c0-0.2,0-0.4-0.1-0.6
						c0-0.2,0-0.4-0.1-0.6c0-0.2,0-0.3,0-0.5l0,0c0.9,0.2,1.8,0.5,2.6,0.8c0.6,0.2,1.2,0.5,1.8,0.8c0.5,0.2,0.9,0.4,1.4,0.7
						c0.4,0.2,0.8,0.4,1.1,0.6c0.3,0.2,0.6,0.4,0.9,0.6c0.3,0.2,0.5,0.4,0.8,0.6c0.2,0.2,0.5,0.4,0.7,0.6l0,0
						c0.2,0.2,0.4,0.4,0.6,0.6c0.2,0.2,0.4,0.4,0.5,0.6c0.2,0.2,0.3,0.4,0.4,0.6c0.1,0.2,0.3,0.4,0.4,0.6c0.1,0.2,0.2,0.4,0.3,0.6
						l0,0c0.1,0.2,0.2,0.4,0.3,0.6l0,0c0.1,0.2,0.2,0.4,0.2,0.6c0.1,0.2,0.1,0.4,0.2,0.5c0.1,0.2,0.1,0.4,0.2,0.6
						c0,0.2,0.1,0.4,0.1,0.5s0,0.3,0.1,0.4c0,0,0,0.1,0,0.2v0.1c0.1,0.8,0.1,1.7,0.1,2.6c0,0.2,0,0.4,0,0.6
						c-0.1,0.8-0.2,1.7-0.4,2.6c-0.9,4.3-3,8.8-4.3,12.8l0,0c-0.5,1.5-0.9,3-1.1,4.4c-0.1,0.9-0.1,2,0.1,3.3
						C133.7,251.1,141.9,268.5,145.3,272.7z"/>
					<path class="st0" d="M210.7,110c-2.4-0.4-5.7,0.6-8.8,2.5c0.2-8.6,0.4-17.8,0.5-27.4c0.5-34.4-35.7-51.5-65.7-47.9
						C99.3,41.6,74,56.9,74.8,87.3c0.2,8,0.7,19.3,1.5,31.8c-4.1-2.4-8.5-3.5-11.4-2.5c-7.4,2.4-8.1,11.5-4.1,23.5
						c4.1,12.1,12.7,20.2,19.4,18.2c1.8,12.6,3.9,19.8,7.3,28.1c5.8,14.1,31,34.9,51.8,34.9c25.3,0,50.7-26.9,54.1-38.4
						c2.9-9.8,5-16.6,6.3-29.7c0.2,0.1,0.5,0.2,0.7,0.2c7,1.3,14.7-8,17.2-20.7C220.2,120.3,218.3,111.4,210.7,110z"/>
					<path class="st10" d="M104.9,200.2c-4.8-5.8-10.9-15.3-12.6-22.6c-2.1-8.4-8.5-22.6-8.5-22.6s-16.3-2.8-18.7-16.9
						c-0.3-1.6-4.3-16.9-4.5-18.5c-3.1,4.1-2.8,11.5,0.3,20.5c4.1,12.1,12.7,20.2,19.4,18.2c1.8,12.6,3.9,19.8,7.3,28.1
						c5.2,12.5,25.7,30.4,44.8,34.1C121.8,215.4,112.3,209.2,104.9,200.2z"/>
					<path class="st10" d="M202.3,94.3c-3.7-10.2-2.4-20-11.2-22.4c-5.7-1.5-31.8,21.1-37.5,19.4c-12.7-3.6-23.3-8.2-33.4-16.8
						c-3.1-2.6-8.8-7.3-12.7-3.4c-2.5,2.5-8.6-2.8-10,0.4c-3.3,7.6-8-2.1-13.3,4.4c-1.6,2-4,13.1-5.9,14.8
						c-2.9,2.6,4.7,23.9,5.1,27.4c0.5,5.6,0.4,11.2,0.3,16.8c0.3-0.3,2.6,2.8,2.9,2.4c4.7-5.8,3.6-17.3,2.3-24.4
						c-2.7-14.9,8.9-26.5,8.9-26.5s5.1,6.2,13.4,9.9c11.2,5.1,25.6,8.4,39,9.1c17.5,0.9,34.5-11.6,38.1-7.5
						c3.6,4.2,0.8,28.8,0.8,28.8S204.9,101.6,202.3,94.3z"/>
					<path class="st11" d="M99.5,81.3c0,0-0.1-25.2-8.2-37.2c-5.9-7.3-22.5,20.1-22.5,20.1S58.4,80.6,66,117.4
						c17-2.2,17.2,12.3,18.2,21.8c1.7-1.8,4.8-4.8,4.8-4.8s-5.4-12.3-4.9-28.4C86.6,82.8,99.5,81.3,99.5,81.3z"/>
					<path class="st11" d="M192.1,82.2c0,0,5.1,19.4,1.5,30.7c-1.6,9.1-4.1,16.6-4.1,16.6l5.3,5.1c0.4-7.7,0.1-21.7,14.3-24.7
						c3.6-9.6-4.3-40.3-4.3-40.3L192.1,82.2z"/>
					<path class="st11" d="M116.9,113.9c-0.5,0.8-4.7-1.8-9.3-1.3c-8.4,0.9-11.6,6.1-11.6,6.1s1.4-9.6,11.6-11.3
						c5.7-1,8.9,0.2,9.9,1.2C118.6,109.6,117.5,113.1,116.9,113.9z"/>
					<path class="st10" d="M119,176.4c2.2,27.6,37.4,27.1,37.4,0H119z"/>
					<path class="st12" d="M79.3,333.6c-2.2,8.2-5.1,17.6-9.9,24.7c-1.4,2-2.9,4.9-5.2,6c-4.9,2.5-3.1,5.5,0,8.6
						c13,12.9,6.9,31.4,10.3,47.8c2,9.6,4.4,19.2,6.7,28.6c2,7.7,5.6,14.2,10.1,20.4c-3.4-17.8-15.5-82.6-13.3-104.3
						c2.9-28,13.3-56.6,13.3-56.6s0-4.4-0.3-10.6c-1.2,2.9-2.5,5.8-3.6,8.7C84.1,315.6,81.8,324.6,79.3,333.6z"/>
					<path class="st13" d="M137.7,155.9c-4.7,0-8.7-2-9.7-4.8c-0.2,0.5-0.3,0.9-0.3,1.4c0,3.4,4.5,6.2,10,6.2s10-2.8,10-6.2
						c0-0.5-0.1-0.9-0.3-1.4C146.4,153.8,142.4,155.9,137.7,155.9z"/>
					<path class="st10" d="M114.7,125.3c0,3.3-2.7,6-6,6s-6-2.7-6-6s2.7-6,6-6C112,119.2,114.7,121.9,114.7,125.3z"/>
					<path class="st14" d="M116.9,126.7c0,3.3-2.7,6-6,6s-6-2.7-6-6s2.7-6,6-6C114.2,120.7,116.9,123.4,116.9,126.7z"/>
					<path class="st11" d="M156.8,113.9c0.5,0.8,4.7-1.8,9.3-1.3c8.4,0.9,11.6,6.1,11.6,6.1s-1.4-9.6-11.6-11.3
						c-5.7-1-8.9,0.2-9.9,1.2C155.2,109.6,156.3,113.1,156.8,113.9z"/>
					<path class="st10" d="M159.1,125.3c0,3.3,2.7,6,6,6s6-2.7,6-6s-2.7-6-6-6C161.8,119.2,159.1,121.9,159.1,125.3z"/>
					<path class="st14" d="M156.8,126.7c0,3.3,2.7,6,6,6s6-2.7,6-6s-2.7-6-6-6S156.8,123.4,156.8,126.7z"/>
					<path class="st15" d="M206.3,58.6c0,27.5-15.2,41.5-58.6,41.5c-29.7,0-48.1-18.8-48.1-18.8l-8.2-37.2c0,0-1-7.3,11.3-10.9
						c6.7-1.9,32.7-6.9,53.2-0.8C177.8,10,206.3,34.2,206.3,58.6z"/>
					<polygon class="st11" points="194,138.1 188.2,132.8 189,130.3 194,135.6 					"/>
					<polygon class="st11" points="84.4,143.1 90.7,137.7 89.9,135.2 84.4,140.6 					"/>
					<path class="st1" d="M119,176.3c2.2,22.3,37.3,21.9,37.3,0H119z"/>
				</g>
			</g>
			<path class="st0" d="M228.9,477.2l-17-2.4c0,0,10-84.7,5.4-109.7c-5.1-27.7-17.9-55.3-17.9-55.3s-6.9-55.1,6.3-49.7
				s32.8,66.9,36.6,105.5C245.2,395.3,228.9,477.2,228.9,477.2z"/>
			<path class="st0" d="M75.5,478.1l16.8-3.8c0,0-16.8-83.6-14.2-108.9c2.9-28,13.3-56.6,13.3-56.6s1.3-55.2-11.3-48.7
				c-12.7,6.5-26.2,69.1-26.9,107.8C52.7,397.7,75.5,478.1,75.5,478.1z"/>
		</g>
		<path class="st1" d="M199.8,153.2c0,0-8.3,33.8-10.3,37.3s1,1.1,1,1.1S201.4,158.9,199.8,153.2z"/>
		<path class="st1" d="M80.2,158.3c0,0,7.4,30.8,10,31.9c2.5,1.1-2.5,2.2-2.5,2.2S79.9,166.7,80.2,158.3z"/>
	</g>
	<path class="st7" d="M88.7,255.1c0,0-25.3,3.4-33.7,68.5l29.5,12.2c0,0,8.4-34.6,12.5-37.6C101.2,295.2,92.2,253.9,88.7,255.1z"/>
	<path class="st7" d="M202.6,258.5c0,0,26.1,3.1,34.6,68.2l-30.4,12.5c0,0-8.4-34.6-12.5-37.6C190.1,298.6,199.1,257.3,202.6,258.5z
		"/>
	<g>
		<path class="st16" d="M131.7,673.6c-2.3,0-4.5,0-6.6,0c-21.9-0.3-38.9-3.4-39.1-9.1c-0.6-16.4,3.2-120.1,3.2-120.1
			s-2.7-94.7,0.4-99.9c1.7-2.9,0.6-27.4-0.6-50.6c0-0.1,0-0.1,0-0.2c-1-19.2-2.1-37.4-1.8-41.5c0.1-1.1,0.2-2.5,0.3-4l0,0
			c0.3-4.4,0.6-10.2,0.9-15.3c0.4-6.8,0.7-12.5,0.7-12.5s-9.7-55.2,3.8-67.1c0.9-0.8,1.9-1.4,3.1-1.8c6.5-2.1,11.2-3.4,14.5-4.3
			c1.7-0.5,3-0.8,4.1-1.1l10,23.9l39.2,0.5l8.7-23c0,0,1.8,0.1,4.6,0.4c9.1,1,18.8,6.2,22.6,8.4c5.3,10.9,6.6,78.9,6.6,78.9
			l8.1,108.8c0,0-1.2,161.3,7.5,196.6c0.2,0.7,0.3,1.4,0.3,2C223.6,663.6,171.8,673.1,131.7,673.6z"/>
		<path class="st17" d="M85.5,664.6c-0.6-16.4,3.2-120.1,3.2-120.1s-2.7-94.7,0.4-99.9c3.1-5.3-2.3-82.1-1.7-91.1
			c0.6-9-8.8-92.2,5.2-100.1c-5.2,21.7,0.5,94.5,1.7,103.4c1.9,14.8,1.7,34.2,1.9,49.1c0.4,30.4,6.3,54.5,5,84.8
			c-1.5,35-1.3,71.3,13.1,103.2s46.8,58.2,81.7,54.8c8.6-0.8,17-3.4,25.3-5.9C224.2,676.5,86.1,680.7,85.5,664.6z"/>
	</g>
	<path class="st0" d="M75.5,478.1l16.8-3.8c0,0-16.8-83.6-14.2-108.9c2.9-28-24.2-36.3-24.9,2.5C52.7,397.7,75.5,478.1,75.5,478.1z"
		/>
	<g>
		<path class="st0" d="M231.1,492.4c1.6-5.7-4.1-27.2-11.2-26.3c-4,0.5-10.4,16.1-10.2,23.7c1.6,0.9,2.7,3.9,3.3,5.4
			C213.7,496.7,229.5,498,231.1,492.4z"/>
		<path class="st0" d="M218.7,511.8c-0.3-4.1-0.7-10.6-0.6-16.3c1.3-0.1,2.6-0.4,3.9-0.8c0.8,5.3,1.2,12,1.4,16c0.3,5.8-0.5,8.8-2,9
			C220,519.8,219.2,517.1,218.7,511.8z"/>
		<path class="st0" d="M224.4,509.5c-0.6-3.9-1.4-9.9-1.6-15.3c1.3-0.1,2.9-0.6,4.1-1.1c1.1,4.9,1.5,11.4,2,15.2
			c0.7,5.5,0.1,8.3-1.4,8.5C226.1,517.1,225.1,514.5,224.4,509.5z"/>
		<path class="st0" d="M229,505.8c-0.5-3.3-1.2-8.5-1.3-13c1.1-0.1,2.5-0.5,3.5-0.9c1,4.2,1.3,9.7,1.7,13c0.6,4.7,0.1,7.1-1.2,7.3
			C230.5,512.3,229.6,510.1,229,505.8z"/>
		<path class="st0" d="M212.5,509.9c0.1-3.9,0.1-11.4,0.8-16.7c1.3,0.1,3.2,1.3,4.4,1c0.3,5-0.4,11.5-0.6,15.3
			c-0.2,5.5-1.3,8.2-2.8,8.2C213,517.6,212.4,515,212.5,509.9z"/>
		<path class="st0" d="M203.6,488.3c3.1-2.4,4.8-11.8,9.4-14.5c0.7,1.1,5.2,7.3,6.1,8.1c-3.8,3.3-8.3,7.2-11.4,9.4
			c-4.5,3.1-8.2,1.9-9.1,0.7C197.8,490.9,202.1,489.5,203.6,488.3z"/>
	</g>
	<g>
		<path class="st0" d="M74.5,493.3c-2-5.5,1.7-26.7,9-27.1c4-0.2,11.7,15.3,12.1,22.8c-1.5,1-2.4,4.1-2.9,5.7S76.6,498.9,74.5,493.3
			z"/>
		<path class="st0" d="M88.4,511.7c0-4.1-0.1-10.7-0.7-16.3c-1.3,0-2.6-0.1-3.9-0.5c-0.4,5.3-0.2,12-0.1,16.1
			c0.1,5.9,1.2,8.8,2.8,8.8C87.8,519.8,88.4,517,88.4,511.7z"/>
		<path class="st0" d="M82.6,509.9c0.3-3.9,0.5-10,0.3-15.3c-1.3,0-3-0.4-4.2-0.8c-0.7,5-0.6,11.5-0.7,15.3
			c-0.2,5.5,0.6,8.3,2.1,8.4C81.5,517.6,82.3,515,82.6,509.9z"/>
		<path class="st0" d="M77.7,506.6c0.2-3.3,0.5-8.5,0.3-13.1c-1.1,0-2.5-0.3-3.6-0.7c-0.6,4.3-0.5,9.8-0.6,13
			c-0.2,4.7,0.5,7.1,1.8,7.1C76.7,513.1,77.4,510.9,77.7,506.6z"/>
		<path class="st0" d="M94.5,509.3c-0.4-3.9-1-11.4-2.1-16.6c-1.3,0.2-3.1,1.5-4.3,1.4c0.1,5,1.3,11.4,1.8,15.2
			c0.7,5.5,2,8.1,3.5,7.9C94.6,517.1,95,514.4,94.5,509.3z"/>
		<path class="st0" d="M101.6,487.1c-3.2-2.2-5.1-11.1-9.9-13.4c-0.6,1.2-5.2,7.4-6.1,8.3c4.1,3,8.8,6.5,12.1,8.4
			c4.8,2.8,8.3,1.3,9.1,0C107.6,489.2,103.2,488.2,101.6,487.1z"/>
	</g>
	<path class="st0" d="M228.9,477.2l-17-2.4c0,0,10-84.7,5.4-109.7c-5.1-27.7,21.2-38.1,25,0.4C245.2,395.3,228.9,477.2,228.9,477.2z
		"/>
	<path class="st17" d="M176.8,248.1l-9.6,26.9h-44.7l-12.2-27.7c1.7-0.5,3-0.8,4.1-1.1l10,23.9l39.2,0.5l9-23.7
		C172.5,247,174,247.8,176.8,248.1z"/>
</g>
</svg>
