<?xml version="1.0" encoding="utf-8"?>
<!-- Generator: Adobe Illustrator 25.0.0, SVG Export Plug-In . SVG Version: 6.00 Build 0)  -->
<svg version="1.1" id="Layer_1" xmlns="http://www.w3.org/2000/svg" xmlns:xlink="http://www.w3.org/1999/xlink" x="0px" y="0px"
	 viewBox="0 0 300.5 821.3" style="enable-background:new 0 0 300.5 821.3;" xml:space="preserve">
<style type="text/css">
	.st0{fill:#FFFFFF;}
	.st1{fill:#22366B;}
	.st2{fill:#800002;}
	.st3{fill:#650F23;}
	.st4{fill:#3E3E3E;}
	.st5{fill:#2B96F4;}
	.st6{fill:#DDCFC9;}
	.st7{fill:#E3AC81;}
	.st8{fill:#F2A775;}
	.st9{fill:#F8BA8C;}
	.st10{fill:#793B16;}
	.st11{fill:#EBE0DA;}
	.st12{fill:#EADBD8;}
	.st13{fill:#5B2C0B;}
	.st14{fill:#803E19;}
	.st15{fill:#0874B7;}
	.st16{fill:#0071D6;}
	.st17{fill:#24BF77;}
	.st18{opacity:0.1;}
	.st19{fill:#60D2A5;}
	.st20{fill:#57C193;}
	.st21{fill:#45BF87;}
	.st22{fill:#028251;}
	.st23{fill:#07AF72;}
	.st24{opacity:0.25;}
	.st25{fill:#8DD9B8;}
	.st26{fill-rule:evenodd;clip-rule:evenodd;fill:#B77A65;}
	.st27{fill-rule:evenodd;clip-rule:evenodd;fill:#0071D6;}
	.st28{fill-rule:evenodd;clip-rule:evenodd;fill:#005EA5;}
</style>
<g>
	<g id="OBJECT">
		<path class="st0" d="M74.8,816.7c24.4-6.5,45.1-11.1,50-14.3c3.3-2.2-0.1-10.7-0.1-10.7L98.4,778L44,800.8c0,0-1.3,5.4,1,8.6
			C48.9,814.7,62.5,819.9,74.8,816.7z"/>
		<path class="st0" d="M229.9,816.7c-24.4-6.5-45.1-11.1-50-14.3c-3.3-2.2,0.1-10.7,0.1-10.7l26.3-13.7l54.4,22.9c0,0,1.3,5.4-1,8.6
			C255.8,814.7,242.1,819.9,229.9,816.7z"/>
		<path class="st1" d="M230.4,810.8c-24.4-6.5-45.2-11-50-14.3s0-24.9,0-24.9l26.4,0.5c0,0,36.7,21.5,47.3,23.7
			C273.1,799.5,250,815.9,230.4,810.8z"/>
		<path class="st1" d="M259.9,798.2c-5.8,4.1-12.8,6.1-19.8,5.8c-5.9-0.3-11.4-2.1-16.8-4.4c-5.6-2.3-12.3-4.5-17.3-8
			c-7.2-5.1-10.4-12.9-15.2-19.9l-10.5-0.2c0,0-4.8,21.5,0,24.9s25.6,7.9,50,14.3C247,815.2,266.2,804,259.9,798.2z"/>
		<path class="st2" d="M151.2,501.4c6.7,10.5,18.8,59,20.7,119.6c2.1,65.5-1.9,157.2,4.8,161.1c11.3,6.4,37.8-3.3,40.1-10.5
			c-0.5-13.8-11.7-207.7-5.3-288.7C174.1,461.1,136,477.4,151.2,501.4z"/>
		<path class="st3" d="M192.4,772.2c-7.8-9.2-7.9-25-9.3-36.4c-2.2-18.2,0.5-35.9-2-54.1c-1.6-11.8-5.7-28.6-0.4-39.9
			c1.9-4,7.4-5.7,10.2-8.7c1.9-2-4.3-3.7-5.5-4.4c-1.8-1-2.9-3.2-3.7-5c-2.3-5.4-1.7-12.5-2.3-18.3c-1.1-9.8-1.9-19.7-2.4-29.5
			c-1.2-22.8,3.6-63-24.2-71.6c6.9,14.8,17.4,60.5,19.2,116.7c2.1,65.5-1.9,157.2,4.8,161.1c8,4.6,23.7,1,32.9-4.1
			C203.3,778.8,197.2,777.9,192.4,772.2z"/>
		<path class="st1" d="M74.8,810.8c24.4-6.5,45.2-11,50-14.3s0-24.9,0-24.9L98.4,772c0,0-36.7,21.6-47.3,23.7
			C32,799.5,55.2,815.9,74.8,810.8z"/>
		<path class="st1" d="M124.8,771.6l-14,0.3c2.8,7.6-0.6,16.1-7.9,19.7c-8.2,4.2-17.6,9-26.6,10.8c-10.1,2.1-20.8-1-31-1.2
			c-0.4,0-0.9-0.1-1.3-0.3c0.2,5.9,16.4,13.7,30.8,9.9c24.4-6.5,45.2-11,50-14.3S124.8,771.6,124.8,771.6z"/>
		<path class="st2" d="M148.1,499.5c-6.7,10.5-15.8,60.8-17.7,121.5c-2.1,65.5,3.5,157.2-3.2,161.1c-11.3,6.4-37.8-3.3-40.2-10.5
			c0.5-14.3,9.7-207.4,3.2-288.8C127.8,461,163.3,475.6,148.1,499.5z"/>
		<path class="st3" d="M148.1,499.5c0.5-0.8,0.9-1.5,1.3-2.3c-19.2,13-24.8,40.2-27.1,62.3c-1.6,15.5-0.2,31-1.4,46.5
			c-0.5,6.1-0.9,13.2-5,18.2c-2.6,3.1-5.9,5.3-9.3,7.4c3.5,2.3,7.8,4.3,9.5,8c3.3,7-1.2,11-1,18c0.3,10.1,2.6,20.1,2.6,30.3
			s-1.1,20.5-0.9,30.8c0.3,15.1,5.4,33.8-3.4,47.5c-6,9.2-12.5,10.9-21,10.7c8.9,5.6,26.2,10,34.7,5.1c6.7-3.8,1.1-95.6,3.2-161.1
			C132.2,560.3,141.4,510,148.1,499.5z"/>
		<path class="st4" d="M91.5,487.8c-1.9-13.9-1.5-34.4,0.6-40.4s113-18.2,116.1-1.7c1.2,0.1,5.7,19.5,3.5,37.1
			C208.4,508.9,94.6,510.7,91.5,487.8z"/>
		<path class="st5" d="M208.1,445.7C189.9,459.6,112,460,92,447.4c-6.7-14.6-2.9-126.5-2.9-126.5S73.4,271.1,77.9,266
			c9.3-10.5,63.5-21.8,63.5-21.8s57.7,12.8,64,21.8c3.1,4.4-5.1,45-2.8,88.9C205.1,401.3,211.9,429.8,208.1,445.7z"/>
		<path class="st6" d="M191.3,327.7c0.6,17.2,3.2,34.3,7.6,51c2.1,8.1,3.8,16.3,5.9,24.4c0.7,2.7,1.7,5.3,2.8,7.9
			c-1.5-14.8-3.8-33.3-5-56.2c-1.4-26.4,1-51.6,2.5-68.5C198,299.3,190.9,313.5,191.3,327.7z"/>
		<path class="st6" d="M151.9,447.5c-25,0.9-44.8-11.8-48.8-24.9s-2.8-69.5-4.6-94.1c-1.2-17-7.5-30.5-18.7-41.2
			c3.5,15.5,9.3,33.6,9.3,33.6S85.3,432.8,92,447.4c14.5,9.2,59.5,11.4,90.1,6.7C171.6,453.7,161.9,447.1,151.9,447.5z"/>
		<path class="st7" d="M166.4,250.4c0,0-7.2,12.7-24.3,12.7c-10.2-0.1-19.8-4.7-26.2-12.6c0,0,3.2-1.2,7.1-6.3s4.3-12.4,1.4-37.8
			c-3.7-31.6,28.7-34.2,30.1-6.4c-0.8,32.2,0.3,39.7,4.3,45.4C161.5,249.2,166.4,250.4,166.4,250.4z"/>
		<path class="st8" d="M131.6,243.1c1.1-8.5,11-21.6,2.5-29.1c-2.7-2.3-5.9-3.9-9.4-4.7c2.6,23.1,2.1,29.9-1.7,34.9
			s-7.1,6.3-7.1,6.3c5.5,5.8,12.6,9.8,20.3,11.5C132.4,257.2,130.6,250.7,131.6,243.1z"/>
		<path class="st9" d="M209.9,114.7c-2.4-0.4-5.7,0.6-8.8,2.5c0.2-8.6,0.4-17.8,0.5-27.4c0.5-34.4-35.7-51.5-65.7-47.9
			C98.5,46.3,73.2,61.6,74.1,92c0.2,8,0.7,19.3,1.5,31.8c-4.1-2.4-8.5-3.5-11.4-2.6c-7.4,2.4-8.1,11.5-4.1,23.5s12.7,20.1,19.4,18.2
			c1.8,12.6,3.9,19.8,7.3,28.1c5.8,14.1,31,34.9,51.8,34.9c25.3,0,50.8-26.9,54.1-38.4c2.9-9.8,5-16.6,6.3-29.7
			c0.2,0.1,0.5,0.2,0.7,0.2c7,1.3,14.7-8,17.2-20.7C219.5,124.9,217.6,116,209.9,114.7z"/>
		<path class="st8" d="M104.1,204.9c-4.8-5.8-10.9-15.3-12.7-22.6c-2.1-8.4-8.5-22.6-8.5-22.6s-16.3-2.8-18.7-16.9
			c-0.3-1.6-4.3-16.9-4.5-18.5c-3.1,4.1-2.8,11.5,0.3,20.5c4.1,12.1,12.7,20.2,19.4,18.2c1.8,12.6,3.9,19.8,7.3,28.1
			c5.2,12.5,25.7,30.4,44.8,34.1C121.1,220.1,111.5,213.9,104.1,204.9z"/>
		<path class="st8" d="M201.5,99c-3.7-10.2-2.4-20-11.2-22.4c-5.7-1.5-31.8,21-37.5,19.4c-12.7-3.6-23.3-8.2-33.4-16.8
			c-3.1-2.6-8.8-7.3-12.7-3.4c-2.5,2.5-8.6-2.8-10,0.4c-3.3,7.6-8-2.1-13.3,4.4c-1.6,2-4,13.1-5.9,14.8c-2.9,2.7,4.7,23.9,5.1,27.4
			c0.4,5.6,0.5,11.2,0.3,16.8c0.3-0.3,2.6,2.8,2.8,2.4c4.7-5.8,3.6-17.3,2.3-24.4c-2.7-14.9,8.9-26.5,8.9-26.5
			c3.7,4.2,8.2,7.5,13.3,9.9c12.3,5.4,25.6,8.4,39,9.1c17.5,0.9,34.5-11.6,38.1-7.5s0.8,28.8,0.8,28.8S204.2,106.2,201.5,99z"/>
		<path class="st10" d="M98.8,86c0,0,0-25.2-8.2-37.2C84.7,41.5,68,68.9,68,68.9S57.6,85.3,65.3,122c17-2.2,17.2,12.3,18.2,21.8
			c1.7-1.8,4.8-4.8,4.8-4.8c-3.6-9-5.2-18.7-4.9-28.4C85.8,87.4,98.8,86,98.8,86z"/>
		<path class="st10" d="M191.3,86.9c0,0,5.1,19.4,1.5,30.7c-1,5.6-2.4,11.1-4.1,16.6l5.3,5.1c0.4-7.7,0.1-21.7,14.4-24.7
			c3.6-9.6-4.4-40.3-4.4-40.3L191.3,86.9z"/>
		<path class="st10" d="M116.2,118.6c-0.6,0.8-4.7-1.8-9.3-1.2c-8.4,0.9-11.6,6.1-11.6,6.1c1.1-5.8,5.7-10.4,11.6-11.3
			c5.8-1,8.9,0.2,9.9,1.2S116.7,117.7,116.2,118.6z"/>
		<path class="st11" d="M118.2,181.1c2.2,27.6,37.4,27.1,37.4,0H118.2z"/>
		<path class="st12" d="M136.9,160.5c-4.7,0-8.7-2.1-9.7-4.8c-0.2,0.4-0.3,0.9-0.3,1.4c0,3.4,4.5,6.2,10,6.2s10-2.8,10-6.2
			c0-0.5-0.1-1-0.3-1.4C145.6,158.5,141.6,160.5,136.9,160.5z"/>
		<path class="st8" d="M113.9,129.9c0,3.3-2.7,6-6,6s-6-2.7-6-6s2.7-6,6-6S113.9,126.6,113.9,129.9z"/>
		<path class="st13" d="M116.2,131.4c0,3.3-2.7,6-6,6s-6-2.7-6-6s2.7-6,6-6S116.2,128.1,116.2,131.4z"/>
		<path class="st10" d="M156.1,118.6c0.5,0.8,4.6-1.8,9.3-1.2c8.4,0.9,11.6,6.1,11.6,6.1c-1.1-5.8-5.7-10.4-11.6-11.3
			c-5.8-1-8.9,0.2-9.9,1.2S155.5,117.7,156.1,118.6z"/>
		<path class="st8" d="M158.3,129.9c0,3.3,2.7,6,6,6s6-2.7,6-6s-2.7-6-6-6S158.3,126.6,158.3,129.9z"/>
		<path class="st13" d="M156.1,131.4c0,3.3,2.7,6,6,6s6-2.7,6-6s-2.7-6-6-6S156.1,128.1,156.1,131.4z"/>
		<path class="st14" d="M205.5,63.3c0,27.5-15.2,41.5-58.6,41.5c-17.8-0.1-35-6.8-48.1-18.8l-8.2-37.2c0,0-1-7.3,11.3-10.9
			c6.7-1.9,32.7-6.9,53.2-0.8C177,14.7,205.6,38.9,205.5,63.3z"/>
		<path class="st15" d="M159.9,245.7c-3.1,7.7-10.6,16.3-19.3,16.3s-16.2-8.6-19.3-16.3c0,0-11.2,4.2-10.3,6.1
			c3.6,7.7,10.2,17.8,18.2,20.8c3.6,1.3,7.4-7.3,11.5-7.3s7.2,7.5,10.6,6.3c8.4-3,15.4-12,19.1-20
			C171.2,249.6,159.9,245.7,159.9,245.7z"/>
		<polygon class="st10" points="193.2,142.8 187.4,137.4 188.2,135 193.2,140.3 		"/>
		<polygon class="st10" points="83.6,147.7 90,142.3 89.2,139.9 83.6,145.2 		"/>
		<path class="st0" d="M118.2,180.9c2.2,22.3,37.3,21.9,37.3,0H118.2z"/>
		<path class="st5" d="M112.5,250l-0.1-0.1C112.4,249.9,119.8,247.8,112.5,250z"/>
		<path class="st5" d="M216.5,278.5c-9.6-22.5-45-26.1-45-26.1l-3.9-1.1l-10.8,8.7l-7.9,4h-5.6l-11.8-1.1h-6l-2.9-2.9l-9-9.1
			c-3.1,0.9-8.7,2.6-18.6,5.4c-33.4,9.7-31.5,46.4-38,88.5c-1.5,9.5-5.3,18.7-5,27.9c-6.2,22.7,25.1,25.9,28.8,9.7
			c1.8-7.7,0.4-15.6,1.1-22.7l0,0c1.2-11.7,3.2-23.2,6.1-34.5c0,0-1.1,22.8-1.7,31.8s5.5,87,2.4,92.3s-0.4,99.9-0.4,99.9
			s-3.7,103.6-3.2,120c0.6,16.1,138.7,11.9,135.9-21.6c-0.1-0.7-0.2-1.3-0.3-2c-8.6-35.4-7.5-196.6-7.5-196.6l-8.1-108.8
			c5.6,9.5,9.8,19.8,12.4,30.5c0.7,3.3,1.2,6.7,1.4,10.1c1,0.2,2,0.7,2.7,1.5c3.2,3.1,7.3,5.1,11.1,7.5c3.1-2.7,6.6-5.1,10.8-12.4
			C243.5,339.1,225.1,298.5,216.5,278.5z"/>
		<path class="st2" d="M205.2,340.1c0,0-15.2-54.3-6.1-79.2c0,0,29.1,0.9,44.5,104.6c0,0-21.6,20.5-24.6,15.2
			S205.2,340.1,205.2,340.1z"/>
		<path class="st2" d="M92.4,257.2c0,0,5.2,45.5-4.8,69.9c0,0-4.3,23.2-6.1,44.8s-12.8,20.5-12.8,20.5s-20.7,2.5-16.8-19.7
			S53.4,265.5,92.4,257.2z"/>
		<path class="st16" d="M84.8,669.2C84.2,652.8,88,549.2,88,549.2s-2.7-94.7,0.4-99.9S85.3,366,85.9,357s1.8-31.8,1.8-31.8
			c-2.9,11.3-5,22.9-6.1,34.5c-0.2-14.9,1.6-29.1,9.1-40.6c7.7,4.8,8.9,31.8,10.1,40.7c1.9,14.8,2.9,29.7,3,44.6
			c0.4,30.4-1.8,60.7-3.1,91c-1.5,35-1.3,71.3,13.1,103.2s46.8,58.2,81.7,54.8c8.6-0.8,17-3.4,25.3-5.9
			C223.5,681.1,85.3,685.3,84.8,669.2z"/>
		<path class="st16" d="M159.9,245.7c-3.1,7.7-10.6,16.3-19.3,16.3s-16.2-8.6-19.3-16.3c0,0-11.2,4.2-10.3,6.1
			c3.6,7.7,10.2,17.8,18.2,20.8c3.6,1.3,7.4-7.3,11.5-7.3s7.2,7.5,10.6,6.3c8.4-3,15.4-12,19.1-20
			C171.2,249.6,159.9,245.7,159.9,245.7z"/>
		<path class="st0" d="M199.1,119.9c0,0-13.9,16.4-15.5,38.8s0.2,4,0.2,4l1.2-2.1C185.1,160.6,182.2,153.9,199.1,119.9z"/>
		<path class="st0" d="M97.3,160.6c5.1,7-11.1-28.9-18.3-35.9c-0.3-0.4-0.8-0.5-1.2-0.2c-0.1,0.1-0.1,0.1-0.2,0.2l0.5,0.6
			C78.1,125.3,95,157.3,97.3,160.6z"/>
		<path class="st0" d="M199,157.9c0,0-8.3,33.8-10.3,37.3s1,1.1,1,1.1S200.7,163.5,199,157.9z"/>
		<path class="st0" d="M79.5,163c0,0,7.4,30.8,10,31.9s-2.5,2.2-2.5,2.2S79.1,171.4,79.5,163z"/>
		<path class="st17" d="M190.3,165.2c0-2.6-35.2-24.8-51.9-24.8s-51.9,22.2-51.9,24.8s3.7,13.2,3.7,18s-3.7,15.4-3.7,18
			s35.2,24.8,51.9,24.8s51.9-22.2,51.9-24.8s-3.7-13.2-3.7-18S190.3,167.8,190.3,165.2z"/>
		<g class="st18">
			<path class="st0" d="M90.9,201.8c-0.1,0-0.1,0-0.2-0.1c-0.5-0.4-0.9-0.7-1.2-1c-0.1-0.1-0.1-0.2-0.1-0.2c0.1-0.4,0.2-0.8,0.3-1.4
				c0-0.2,0.2-0.3,0.3-0.2c0,0,0,0,0,0c0.2,0,0.3,0.2,0.2,0.3c0,0,0,0,0,0c-0.1,0.5-0.2,0.9-0.3,1.2c0.3,0.2,0.6,0.5,1,0.8
				c0.1,0.1,0.1,0.3,0,0.4c0,0,0,0,0,0C91,201.7,91,201.7,90.9,201.8z"/>
			<path class="st0" d="M90.8,196.5L90.8,196.5c-0.2,0-0.3-0.2-0.3-0.3c0,0,0,0,0,0l0.2-0.9c0.2-0.6,0.3-1.3,0.5-1.9
				c0-0.2,0.2-0.3,0.4-0.2c0.2,0,0.3,0.2,0.2,0.3c0,0,0,0,0,0c-0.2,0.6-0.3,1.3-0.5,1.9l-0.2,0.9C91,196.4,90.9,196.5,90.8,196.5z
				 M92.2,190.8L92.2,190.8c-0.2,0-0.3-0.2-0.3-0.3c0.2-1.1,0.5-2,0.6-2.9c0-0.2,0.2-0.3,0.4-0.2c0.2,0,0.3,0.2,0.2,0.3
				c-0.2,0.9-0.4,1.8-0.6,2.9C92.5,190.7,92.4,190.8,92.2,190.8z M93.2,184.9L93.2,184.9c-0.2,0-0.3-0.1-0.3-0.3c0,0,0,0,0,0
				c0.1-0.5,0.1-1,0.1-1.4s0-0.9-0.1-1.4c0-0.2,0.1-0.3,0.3-0.3c0,0,0,0,0,0c0.2,0,0.3,0.1,0.3,0.3c0.1,0.5,0.1,1.1,0.1,1.5
				s0,1-0.1,1.5C93.6,184.9,93.4,185,93.2,184.9C93.3,185,93.3,185,93.2,184.9L93.2,184.9z M92.8,179.1c-0.1,0-0.3-0.1-0.3-0.2
				c-0.2-0.9-0.4-1.8-0.6-2.9c0-0.2,0.1-0.3,0.2-0.3c0.2,0,0.3,0.1,0.4,0.2c0.2,1.1,0.4,2,0.6,2.9C93.1,178.9,93,179.1,92.8,179.1
				C92.8,179.1,92.8,179.1,92.8,179.1L92.8,179.1z M91.5,173.3c-0.1,0-0.3-0.1-0.3-0.2l-0.5-2l-0.2-0.9c0-0.2,0.1-0.3,0.2-0.3
				c0,0,0,0,0,0c0.2,0,0.3,0.1,0.4,0.2l0.2,0.9c0.2,0.7,0.3,1.3,0.5,2C91.8,173.1,91.7,173.3,91.5,173.3
				C91.5,173.3,91.5,173.3,91.5,173.3L91.5,173.3z"/>
			<path class="st0" d="M90.1,167.6c-0.1,0-0.3-0.1-0.3-0.2c-0.1-0.6-0.2-1.1-0.3-1.4c0-0.1,0-0.2,0.1-0.2c0.3-0.3,0.7-0.6,1.2-1
				c0.1-0.1,0.3-0.1,0.4,0c0.1,0.1,0.1,0.3,0,0.4c0,0,0,0,0,0c-0.4,0.3-0.8,0.6-1,0.9c0.1,0.3,0.2,0.8,0.3,1.2
				c0,0.2-0.1,0.3-0.2,0.3c0,0,0,0,0,0L90.1,167.6z"/>
			<path class="st0" d="M93.3,163.4c-0.1,0-0.2,0-0.2-0.1c-0.1-0.1-0.1-0.3,0.1-0.4c0,0,0,0,0,0c0.8-0.5,1.6-1.1,2.5-1.7
				c0.1-0.1,0.3-0.1,0.4,0.1c0.1,0.1,0.1,0.3,0,0.4c0,0,0,0,0,0c-0.9,0.6-1.7,1.1-2.5,1.7C93.4,163.4,93.4,163.4,93.3,163.4z
				 M183.6,163.4c-0.1,0-0.1,0-0.2-0.1c-0.8-0.5-1.6-1.1-2.5-1.7c-0.1-0.1-0.2-0.2-0.1-0.4c0,0,0,0,0,0c0.1-0.1,0.3-0.2,0.4-0.1
				c0.9,0.6,1.7,1.1,2.5,1.7c0.1,0.1,0.2,0.2,0.1,0.4c0,0,0,0,0,0C183.8,163.4,183.7,163.5,183.6,163.4z M98.3,160.2
				c-0.1,0-0.2-0.1-0.3-0.2c-0.1-0.1-0.1-0.3,0.1-0.4c0,0,0,0,0,0l2.6-1.6c0.1-0.1,0.3,0,0.4,0.1c0.1,0.1,0.1,0.3-0.1,0.4
				c0,0,0,0,0,0c-0.9,0.5-1.7,1-2.6,1.6C98.4,160.1,98.3,160.1,98.3,160.2z M178.6,160.2c-0.1,0-0.1,0-0.2,0l-2.6-1.6
				c-0.1-0.1-0.2-0.2-0.1-0.4c0,0,0,0,0,0c0.1-0.1,0.3-0.2,0.4-0.1l2.6,1.6c0.1,0.1,0.2,0.2,0.1,0.4c0,0,0,0,0,0
				C178.8,160.1,178.7,160.2,178.6,160.2z M103.4,157.1c-0.1,0-0.2,0-0.3-0.1c-0.1-0.1,0-0.3,0.1-0.4c0,0,0,0,0,0l2.6-1.5
				c0.1-0.1,0.3,0,0.4,0.1c0.1,0.1,0,0.3-0.1,0.4c0,0,0,0,0,0c-0.9,0.5-1.8,1-2.6,1.5C103.5,157.1,103.5,157.1,103.4,157.1z
				 M173.5,157.1c-0.1,0-0.1,0-0.2,0c-0.9-0.5-1.7-1-2.6-1.5c-0.1-0.1-0.2-0.2-0.1-0.4c0,0,0,0,0,0c0.1-0.1,0.3-0.2,0.4-0.1
				c0.9,0.5,1.8,1,2.6,1.5c0.1,0.1,0.2,0.2,0.1,0.4c0,0,0,0,0,0C173.7,157,173.6,157.1,173.5,157.1z M108.7,154.2
				c-0.1,0-0.2-0.1-0.3-0.1c-0.1-0.1,0-0.3,0.1-0.4c0,0,0,0,0,0l0.7-0.4l2-1c0.1-0.1,0.3,0,0.4,0.1c0.1,0.1,0,0.3-0.1,0.4
				c0,0,0,0,0,0l-2,1l-0.7,0.4C108.8,154.1,108.7,154.2,108.7,154.2z M168.2,154.2c-0.1,0-0.1,0-0.2,0l-0.7-0.4l-2-1
				c-0.1-0.1-0.2-0.2-0.1-0.4c0,0,0,0,0,0c0.1-0.1,0.3-0.2,0.4-0.1l2,1l0.7,0.4c0.1,0.1,0.2,0.2,0.1,0.4c0,0,0,0,0,0
				C168.4,154.1,168.3,154.2,168.2,154.2L168.2,154.2z M114.1,151.4c-0.1,0-0.2-0.1-0.3-0.1c-0.1-0.1,0-0.3,0.1-0.4c0,0,0,0,0,0
				c0.9-0.4,1.8-0.9,2.7-1.3c0.1-0.1,0.3,0,0.4,0.1c0.1,0.1,0,0.3-0.1,0.4c0,0,0,0,0,0c-0.9,0.4-1.8,0.9-2.7,1.3
				C114.1,151.4,114.1,151.4,114.1,151.4z M162.9,151.4c0,0-0.1,0-0.1,0c-0.9-0.4-1.8-0.9-2.7-1.3c-0.1-0.1-0.2-0.2-0.2-0.3
				c0,0,0,0,0,0c0.1-0.1,0.3-0.2,0.4-0.1c0.9,0.4,1.8,0.9,2.7,1.3c0.1,0.1,0.2,0.2,0.1,0.4c0,0,0,0,0,0
				C163.1,151.4,163,151.4,162.9,151.4L162.9,151.4z M119.5,148.9c-0.1,0-0.2-0.1-0.3-0.2c-0.1-0.1,0-0.3,0.1-0.4c0,0,0,0,0,0
				c0.9-0.4,1.9-0.8,2.8-1.2c0.2-0.1,0.3,0,0.4,0.1c0.1,0.1,0,0.3-0.1,0.4c0,0,0,0,0,0c-0.9,0.4-1.8,0.8-2.8,1.2
				C119.6,148.9,119.6,148.9,119.5,148.9L119.5,148.9z M157.4,148.9c0,0-0.1,0-0.1,0c-0.9-0.4-1.9-0.8-2.8-1.2
				c-0.1-0.1-0.2-0.2-0.2-0.4c0,0,0,0,0,0c0.1-0.1,0.3-0.2,0.4-0.1c0.9,0.4,1.9,0.8,2.8,1.2c0.1,0.1,0.2,0.2,0.2,0.4c0,0,0,0,0,0
				C157.6,148.9,157.5,148.9,157.4,148.9z M125.2,146.6c-0.1,0-0.2-0.1-0.3-0.2c-0.1-0.1,0-0.3,0.1-0.4c0,0,0,0,0,0
				c1-0.4,1.9-0.7,2.9-1c0.2-0.1,0.3,0,0.4,0.2c0,0,0,0,0,0c0.1,0.1,0,0.3-0.2,0.4c0,0,0,0,0,0c-0.9,0.3-1.9,0.6-2.8,1
				C125.2,146.6,125.2,146.6,125.2,146.6z M151.8,146.6c0,0-0.1,0-0.1,0c-1-0.4-1.9-0.7-2.9-1c-0.2,0-0.2-0.2-0.2-0.4c0,0,0,0,0,0
				c0.1-0.2,0.2-0.2,0.4-0.2c0.9,0.3,1.9,0.6,2.9,1c0.1,0,0.2,0.2,0.2,0.3c0,0,0,0,0,0C152,146.6,151.9,146.6,151.8,146.6
				L151.8,146.6z M130.9,144.8c-0.1,0-0.3-0.1-0.3-0.2c0-0.2,0-0.3,0.2-0.4c0,0,0,0,0,0c1.1-0.3,2.1-0.5,3-0.7
				c0.2,0,0.3,0.1,0.4,0.2c0,0.2-0.1,0.3-0.2,0.3C133.1,144.3,132.1,144.5,130.9,144.8L130.9,144.8z M145.9,144.8L145.9,144.8
				c-1.1-0.3-2.1-0.5-3-0.7c-0.2,0-0.3-0.2-0.2-0.3c0-0.2,0.2-0.3,0.4-0.2c0.9,0.2,1.9,0.4,3,0.7c0.2,0,0.3,0.2,0.2,0.4c0,0,0,0,0,0
				C146.2,144.7,146.1,144.8,145.9,144.8L145.9,144.8z M136.9,143.7c-0.2,0-0.3-0.1-0.3-0.3c0-0.2,0.1-0.3,0.3-0.3c0,0,0,0,0,0
				c0.5,0,1.1-0.1,1.6-0.1s1,0,1.6,0.1c0.2,0,0.3,0.1,0.3,0.3c0,0.2-0.2,0.3-0.3,0.3c0,0,0,0,0,0c-0.5,0-1-0.1-1.5-0.1
				C138,143.6,137.5,143.6,136.9,143.7L136.9,143.7z"/>
			<path class="st0" d="M186.9,167.6L186.9,167.6c-0.2,0-0.3-0.2-0.3-0.3c0,0,0,0,0,0c0.1-0.5,0.2-0.9,0.3-1.2
				c-0.3-0.2-0.6-0.5-1-0.9c-0.1-0.1-0.1-0.3,0-0.4c0,0,0,0,0,0c0.1-0.1,0.3-0.1,0.4,0c0.5,0.4,0.9,0.7,1.2,1
				c0.1,0.1,0.1,0.2,0.1,0.2c-0.1,0.4-0.2,0.8-0.3,1.4C187.1,167.6,187,167.6,186.9,167.6z"/>
			<path class="st0" d="M186.1,196.5c-0.1,0-0.3-0.1-0.3-0.2l-0.3-1.1c-0.1-0.6-0.3-1.1-0.4-1.7c0-0.2,0.1-0.3,0.2-0.3c0,0,0,0,0,0
				c0.2,0,0.3,0,0.4,0.2c0,0,0,0,0,0c0.1,0.6,0.3,1.1,0.4,1.7l0.3,1.1C186.5,196.3,186.4,196.5,186.1,196.5
				C186.2,196.5,186.2,196.5,186.1,196.5L186.1,196.5z M184.7,190.8c-0.1,0-0.3-0.1-0.3-0.2c-0.2-1.1-0.5-2-0.6-2.9
				c0-0.2,0.1-0.3,0.2-0.3c0,0,0,0,0,0c0.2,0,0.3,0.1,0.4,0.2c0,0,0,0,0,0c0.2,0.9,0.4,1.8,0.6,2.9
				C185,190.6,184.9,190.7,184.7,190.8C184.8,190.8,184.8,190.8,184.7,190.8L184.7,190.8z M183.7,185c-0.2,0-0.3-0.1-0.3-0.3
				c-0.1-0.5-0.1-1.1-0.1-1.5s0-1,0.1-1.5c0-0.2,0.2-0.3,0.3-0.3c0.2,0,0.3,0.1,0.3,0.3c0,0,0,0,0,0c-0.1,0.5-0.1,1-0.1,1.4
				s0,0.9,0.1,1.4C184,184.8,183.9,184.9,183.7,185L183.7,185z M184.1,179.1H184c-0.2,0-0.3-0.2-0.3-0.3c0,0,0,0,0,0
				c0.2-0.9,0.4-1.8,0.6-2.9c0-0.2,0.2-0.3,0.4-0.2c0,0,0,0,0,0c0.2,0,0.3,0.2,0.2,0.3c0,0,0,0,0,0c-0.2,1.1-0.4,2-0.6,2.9
				C184.3,179,184.2,179.1,184.1,179.1L184.1,179.1z M185.5,173.3L185.5,173.3c-0.2,0-0.3-0.2-0.3-0.3c0.2-0.6,0.3-1.3,0.5-1.9
				l0.2-1c0-0.2,0.2-0.3,0.4-0.2c0.2,0,0.3,0.2,0.2,0.3c0,0,0,0,0,0l-0.2,1c-0.2,0.6-0.3,1.2-0.5,1.9
				C185.7,173.3,185.6,173.4,185.5,173.3L185.5,173.3z"/>
			<path class="st0" d="M186,201.8c-0.1,0-0.2,0-0.2-0.1c-0.1-0.1-0.1-0.3,0-0.4c0,0,0,0,0,0c0.4-0.3,0.8-0.6,1-0.8
				c-0.1-0.3-0.1-0.7-0.3-1.2c0-0.2,0.1-0.3,0.2-0.3c0,0,0,0,0,0c0.2,0,0.3,0.1,0.4,0.2c0,0,0,0,0,0c0.1,0.6,0.2,1.1,0.3,1.4
				c0,0.1,0,0.2-0.1,0.2c-0.3,0.3-0.7,0.6-1.2,1C186.1,201.7,186.1,201.7,186,201.8z"/>
			<path class="st0" d="M138.5,223.4c-0.5,0-1,0-1.6-0.1c-0.2,0-0.3-0.1-0.3-0.3c0,0,0,0,0,0c0-0.2,0.2-0.3,0.3-0.3c0,0,0,0,0,0
				c0.5,0,1,0.1,1.5,0.1s1,0,1.5-0.1c0.2,0,0.3,0.1,0.3,0.2c0,0,0,0,0,0c0,0.2-0.1,0.3-0.2,0.3c0,0,0,0,0,0
				C139.5,223.4,139,223.4,138.5,223.4z M133.9,222.9L133.9,222.9c-1-0.2-2-0.4-3.1-0.7c-0.2,0-0.3-0.2-0.2-0.4
				c0.1-0.2,0.2-0.2,0.4-0.2c1,0.3,2,0.5,2.9,0.7c0.2,0,0.3,0.2,0.2,0.3c0,0,0,0,0,0C134.2,222.8,134,222.9,133.9,222.9z M143,222.9
				c-0.1,0-0.3-0.1-0.3-0.2c0-0.2,0.1-0.3,0.2-0.3c0,0,0,0,0,0c0.9-0.2,1.9-0.4,2.9-0.7c0.2-0.1,0.3,0,0.4,0.2c0,0,0,0,0,0
				c0,0.2,0,0.3-0.2,0.4c0,0,0,0,0,0C145.1,222.5,144,222.7,143,222.9L143,222.9z M128,221.3h-0.1c-0.9-0.3-1.9-0.6-2.9-1
				c-0.1,0-0.2-0.2-0.2-0.3c0,0,0,0,0,0c0.1-0.2,0.2-0.2,0.4-0.2c1,0.4,1.9,0.7,2.9,1c0.1,0,0.2,0.2,0.2,0.3c0,0,0,0,0,0
				C128.2,221.3,128.1,221.3,128,221.3L128,221.3z M148.9,221.3c-0.1,0-0.2-0.1-0.3-0.2c-0.1-0.1,0-0.3,0.2-0.3c0,0,0,0,0,0
				c0.9-0.3,1.9-0.6,2.9-1c0.2-0.1,0.3,0,0.4,0.2c0.1,0.1,0,0.3-0.2,0.4c0,0,0,0,0,0c-1,0.4-2,0.7-2.9,1L148.9,221.3z M122.3,219.2
				h-0.1c-0.9-0.4-1.8-0.8-2.8-1.2c-0.1,0-0.2-0.2-0.2-0.3c0,0,0,0,0,0c0.1-0.1,0.3-0.2,0.4-0.1c0.9,0.4,1.9,0.8,2.8,1.2
				c0.1,0,0.2,0.2,0.2,0.3c0,0,0,0,0,0C122.5,219.2,122.4,219.2,122.3,219.2L122.3,219.2z M154.6,219.2c-0.1,0-0.2-0.1-0.3-0.2
				c-0.1-0.1,0-0.3,0.1-0.4c0,0,0,0,0,0c0.9-0.4,1.8-0.8,2.8-1.2c0.2-0.1,0.3,0,0.4,0.1c0.1,0.1,0,0.3-0.1,0.4c0,0,0,0,0,0
				c-0.9,0.4-1.9,0.8-2.8,1.2L154.6,219.2z M116.8,216.9c0,0-0.1,0-0.1,0l-2.7-1.3c-0.1-0.1-0.2-0.2-0.1-0.4c0,0,0,0,0,0
				c0.1-0.1,0.3-0.2,0.4-0.1c0.9,0.4,1.8,0.9,2.7,1.3c0.1,0.1,0.2,0.2,0.1,0.4c0,0,0,0,0,0C117,216.8,116.9,216.8,116.8,216.9
				L116.8,216.9z M160.1,216.9c-0.1,0-0.2-0.1-0.3-0.2c-0.1-0.1,0-0.3,0.1-0.4c0,0,0,0,0,0c0.9-0.4,1.8-0.8,2.7-1.3
				c0.2-0.1,0.3,0,0.4,0.1c0.1,0.1,0,0.3-0.1,0.4c0,0,0,0,0,0c-0.9,0.4-1.9,0.9-2.7,1.3C160.2,216.8,160.2,216.8,160.1,216.9
				L160.1,216.9z M111.3,214.2c0,0-0.1,0-0.2,0l-2-1l-0.7-0.4c-0.1-0.1-0.2-0.2-0.1-0.4c0,0,0,0,0,0c0.1-0.1,0.3-0.2,0.4-0.1
				l0.7,0.4l2,1c0.1,0.1,0.2,0.2,0.1,0.4C111.5,214.2,111.5,214.2,111.3,214.2L111.3,214.2z M165.5,214.2c-0.1,0-0.2-0.1-0.3-0.1
				c-0.1-0.1,0-0.3,0.1-0.4c0,0,0,0,0,0l2-1l0.7-0.4c0.1-0.1,0.3,0,0.4,0.1c0.1,0.1,0,0.3-0.1,0.4c0,0,0,0,0,0l-0.7,0.4l-2,1
				C165.7,214.2,165.6,214.2,165.5,214.2L165.5,214.2z M106,211.4c0,0-0.1,0-0.2,0c-0.9-0.5-1.8-1-2.6-1.5c-0.1-0.1-0.2-0.2-0.1-0.4
				c0,0,0,0,0,0c0.1-0.1,0.3-0.2,0.4-0.1c0.9,0.5,1.7,1,2.6,1.5c0.1,0.1,0.2,0.2,0.1,0.4c0,0,0,0,0,0
				C106.2,211.4,106.1,211.4,106,211.4z M170.8,211.4c-0.1,0-0.2-0.1-0.3-0.1c-0.1-0.1,0-0.3,0.1-0.4c0,0,0,0,0,0
				c0.9-0.5,1.7-1,2.6-1.5c0.1-0.1,0.3,0,0.4,0.1c0.1,0.1,0,0.3-0.1,0.4c0,0,0,0,0,0c-0.9,0.5-1.7,1-2.6,1.5
				C171,211.4,170.9,211.4,170.8,211.4L170.8,211.4z M100.8,208.4c-0.1,0-0.1,0-0.2,0c-0.9-0.5-1.7-1.1-2.6-1.6
				c-0.1-0.1-0.2-0.2-0.1-0.4c0,0,0,0,0,0c0.1-0.1,0.3-0.2,0.4-0.1c0.8,0.5,1.7,1.1,2.6,1.6c0.1,0.1,0.2,0.2,0.1,0.3c0,0,0,0,0,0
				C101,208.4,100.9,208.4,100.8,208.4L100.8,208.4z M176.1,208.4c-0.1,0-0.2,0-0.3-0.1c-0.1-0.1,0-0.3,0.1-0.4c0,0,0,0,0,0
				c0.9-0.5,1.7-1,2.5-1.6c0.1-0.1,0.3-0.1,0.4,0.1c0.1,0.1,0.1,0.3,0,0.4c0,0,0,0,0,0c-0.8,0.5-1.7,1.1-2.6,1.6
				C176.2,208.4,176.1,208.4,176.1,208.4L176.1,208.4z M95.8,205.2c-0.1,0-0.1,0-0.2-0.1c-0.9-0.6-1.7-1.1-2.5-1.7
				c-0.1-0.1-0.2-0.3-0.1-0.4c0,0,0,0,0,0c0.1-0.1,0.3-0.1,0.4-0.1c0.8,0.5,1.6,1.1,2.5,1.7c0.1,0.1,0.2,0.2,0.1,0.4c0,0,0,0,0,0
				C96,205.2,95.9,205.2,95.8,205.2L95.8,205.2z M181.1,205.2c-0.1,0-0.2,0-0.3-0.1c-0.1-0.1-0.1-0.3,0-0.4c0,0,0,0,0,0
				c0.9-0.6,1.7-1.1,2.5-1.7c0.1-0.1,0.3-0.1,0.4,0.1c0.1,0.1,0.1,0.3,0,0.4c0,0,0,0,0,0c-0.8,0.5-1.6,1.1-2.5,1.7
				C181.3,205.2,181.2,205.2,181.1,205.2L181.1,205.2z"/>
		</g>
		<path class="st19" d="M138.5,220.2c-5.5,0-15.3-3.4-26.9-9.5c-5.5-2.8-10.9-6-16-9.5c-1.5-1-2.2-2.9-1.8-4.6
			c0-0.2,0.1-0.4,0.2-0.6c1.1-4.4,2.4-9.4,2.4-12.8s-1.3-8.4-2.4-12.8c-0.1-0.2-0.1-0.4-0.2-0.6c-0.4-1.8,0.3-3.6,1.8-4.6
			c5.1-3.5,10.5-6.6,16-9.5c11.6-6,21.4-9.5,26.9-9.5s15.3,3.4,26.9,9.5c5.5,2.8,10.8,6,15.9,9.5c1.5,1,2.2,2.9,1.8,4.6
			c-0.1,0.2-0.1,0.4-0.2,0.6c-1.1,4.4-2.4,9.4-2.4,12.8s1.3,8.4,2.4,12.8c0.1,0.2,0.1,0.4,0.2,0.6c0.4,1.8-0.3,3.6-1.8,4.6
			c-5.1,3.5-10.4,6.6-15.9,9.5C153.8,216.8,144,220.2,138.5,220.2z"/>
		<g>
			<path class="st20" d="M94.3,170.3c0.1,0.2,0.1,0.5,0.2,0.7c28.6-9.4,59.4-9.4,87.9,0l0.1-0.4l0.1-0.4l0.2-0.6
				c0.4-1.7-0.3-3.4-1.7-4.3c-5.1-3.5-10.4-6.6-15.9-9.5c-11.5-6-21.3-9.4-26.7-9.4s-15.2,3.4-26.7,9.4c-5.5,2.8-10.8,6-15.9,9.5
				c-1.4,0.9-2.1,2.7-1.7,4.3L94.3,170.3z"/>
		</g>
		<path class="st21" d="M94.3,170.3c0.1,0.2,0.1,0.5,0.2,0.7c9.6-3.2,24.7-9.2,43.4-9.3c19.3-0.1,34.7,6.1,44.5,9.3l0.1-0.4l0.1-0.4
			l0.2-0.6c0.4-1.7-0.3-3.4-1.7-4.3c-5.1-3.5-10.4-6.6-15.9-9.5c-11.5-6-21.3-9.4-26.7-9.4s-15.2,3.4-26.7,9.4
			c-5.5,2.8-10.8,6-15.9,9.5c-1.4,0.9-2.1,2.7-1.7,4.3L94.3,170.3z"/>
		<path class="st22" d="M182.6,196.1c-0.1-0.2-0.1-0.5-0.2-0.7c-28.6,9.4-59.4,9.4-87.9,0l-0.1,0.4l-0.1,0.4l-0.2,0.6
			c-0.4,1.7,0.3,3.4,1.7,4.3c5.1,3.5,10.4,6.6,15.9,9.4c11.5,6,21.3,9.4,26.7,9.4s15.2-3.4,26.7-9.4c5.5-2.8,10.8-6,15.9-9.4
			c1.4-0.9,2.1-2.7,1.7-4.3L182.6,196.1z"/>
		<path class="st23" d="M182.6,196.1c-0.1-0.2-0.1-0.5-0.2-0.7c-9.6,3.2-24.7,9.2-43.5,9.3c-19.3,0.1-34.7-6-44.5-9.3l-0.1,0.4
			l-0.1,0.4l-0.2,0.6c-0.4,1.7,0.3,3.4,1.7,4.3c5.1,3.5,10.4,6.6,15.9,9.4c11.5,6,21.3,9.4,26.7,9.4s15.2-3.4,26.7-9.4
			c5.5-2.8,10.8-6,15.9-9.4c1.4-0.9,2.1-2.7,1.7-4.3L182.6,196.1z"/>
		<g class="st24">
			<path class="st25" d="M140.4,220.1c1.2-0.2,2.4-0.4,3.6-0.7c-1.9,0.1-3.7,0.1-5.6,0.1s-3.8-0.1-5.6-0.1c1.2,0.3,2.4,0.5,3.6,0.7
				h2H140.4z"/>
			<path class="st25" d="M146.7,218.7c0.8-0.2,1.5-0.5,2.3-0.8c-3.5,0.3-7,0.5-10.6,0.5s-7.1-0.1-10.6-0.4c0.8,0.3,1.6,0.5,2.3,0.8
				c2.7,0.2,5.5,0.3,8.2,0.3S144,218.9,146.7,218.7z"/>
			<path class="st25" d="M151.2,217.2c0.7-0.3,1.4-0.5,2.1-0.8c-9.9,1.4-19.9,1.4-29.8,0c0.7,0.3,1.4,0.6,2.1,0.8
				C134.2,218.1,142.7,218.1,151.2,217.2z"/>
			<path class="st25" d="M155.5,215.4l2.1-0.9c-12.6,2.3-25.6,2.3-38.2,0c0.7,0.3,1.4,0.6,2.1,0.9
				C132.7,217.2,144.2,217.2,155.5,215.4L155.5,215.4z"/>
			<path class="st25" d="M159.6,213.6c0.7-0.3,1.4-0.7,2.1-1c-15.4,3.4-31.3,3.4-46.6,0c0.7,0.4,1.4,0.7,2.1,1
				C131.3,216.4,145.7,216.4,159.6,213.6z"/>
			<path class="st25" d="M164,211.5l1.4-0.7l0.9-0.5c-18.2,5-37.3,5-55.5,0l0.9,0.5l1.4,0.7C129.8,215.6,147.3,215.6,164,211.5
				L164,211.5z"/>
			<path class="st25" d="M168.5,209l2.4-1.4c-21.1,7-43.9,7-65,0l2.4,1.4C128,214.9,148.9,214.9,168.5,209L168.5,209z"/>
			<path class="st25" d="M173.5,206.2c1-0.6,1.9-1.1,2.7-1.6c-24.3,9.6-51.3,9.6-75.5,0c0.9,0.5,1.8,1.1,2.7,1.6
				C126.1,214.4,150.9,214.4,173.5,206.2L173.5,206.2z"/>
			<path class="st25" d="M179.1,202.8c0.8-0.5,1.6-1,2.2-1.5c0.2-0.1,0.3-0.2,0.4-0.4c-27.4,13-59.2,13-86.6,0
				c0.1,0.1,0.3,0.2,0.4,0.4c0.7,0.5,1.4,1,2.2,1.5C123.8,214,153.2,214,179.1,202.8L179.1,202.8z"/>
			<path class="st25" d="M182.6,199.9c0.2-0.3,0.3-0.6,0.4-0.9c-28,14-61,14-89.1,0c0.1,0.3,0.2,0.6,0.4,0.8
				C122.2,213.5,154.8,213.5,182.6,199.9L182.6,199.9z"/>
			<path class="st25" d="M183.2,198.3c0-0.2,0.1-0.4,0.1-0.7c-28.1,14.4-61.4,14.4-89.5,0c0,0.2,0,0.4,0,0.7
				C121.8,212.6,155,212.6,183.2,198.3L183.2,198.3z"/>
			<path class="st25" d="M183.2,197c0-0.1,0-0.3-0.1-0.4l-0.1-0.2c-27.9,14.5-61.2,14.5-89.2,0v0.2c0,0.1-0.1,0.3-0.1,0.4
				C121.8,211.5,155.2,211.5,183.2,197L183.2,197z"/>
			<path class="st25" d="M182.9,195.9l-0.1-0.6c-27.7,14.5-60.8,14.5-88.6,0c0,0.2-0.1,0.4-0.1,0.6
				C121.9,210.4,155,210.4,182.9,195.9L182.9,195.9z"/>
			<path class="st25" d="M182.6,194.8l-0.1-0.6c-27.5,14.5-60.5,14.5-88,0c0,0.2-0.1,0.4-0.1,0.6C121.9,209.3,155,209.3,182.6,194.8
				L182.6,194.8z"/>
			<path class="st25" d="M182.3,193.7c-0.1-0.2-0.1-0.4-0.1-0.6c-27.3,14.6-60.1,14.6-87.4,0c0,0.2-0.1,0.4-0.1,0.6
				C122,208.2,154.9,208.2,182.3,193.7z"/>
			<path class="st25" d="M182,192.5c0-0.2-0.1-0.4-0.1-0.6c-27.1,14.6-59.7,14.6-86.9,0c0,0.2-0.1,0.4-0.1,0.6
				C122.1,207.1,154.8,207.1,182,192.5L182,192.5z"/>
			<path class="st25" d="M181.8,191.4c-0.1-0.2-0.1-0.4-0.1-0.6c-26.9,14.6-59.4,14.6-86.3,0c0,0.2-0.1,0.4-0.1,0.6
				C122.2,206,154.7,206,181.8,191.4z"/>
			<path class="st25" d="M181.5,190.2c-0.1-0.2-0.1-0.4-0.1-0.6c-26.7,14.7-59.1,14.7-85.8,0l-0.1,0.6
				C122.2,204.9,154.7,204.9,181.5,190.2L181.5,190.2z"/>
			<path class="st25" d="M181.2,189.1l-0.1-0.6c-26.5,14.7-58.8,14.7-85.3,0c0,0.2-0.1,0.4-0.1,0.6
				C122.3,203.8,154.6,203.8,181.2,189.1z"/>
			<path class="st25" d="M181,187.9c0-0.2-0.1-0.4-0.1-0.6c-26.4,14.8-58.5,14.8-84.9,0c0,0.2-0.1,0.4-0.1,0.6
				C122.3,202.7,154.6,202.7,181,187.9z"/>
			<path class="st25" d="M180.8,186.7c0-0.2-0.1-0.4-0.1-0.6c-26.2,15-58.3,15-84.5,0l-0.1,0.6C122.4,201.6,154.5,201.6,180.8,186.7
				L180.8,186.7z"/>
			<path class="st25" d="M180.6,185.5c0-0.2,0-0.4-0.1-0.6c-26,15.1-58.2,15.1-84.2,0l-0.1,0.6C122.4,200.5,154.5,200.5,180.6,185.5
				L180.6,185.5z"/>
			<path class="st25" d="M180.5,184.3v-0.6c-25.9,15.3-58.1,15.3-84.1,0c0,0.2,0,0.4,0,0.6C122.4,199.5,154.6,199.5,180.5,184.3
				L180.5,184.3z"/>
			<path class="st25" d="M138.5,194c-14.8,0.1-29.4-4-42.1-11.7c0,0.2,0,0.5,0,0.7c25.9,15.5,58.2,15.5,84.1,0c0-0.2,0-0.4,0-0.7
				C167.8,190,153.3,194,138.5,194z"/>
			<path class="st25" d="M180.6,181.6c0-0.2,0.1-0.5,0.1-0.7c-25.8,16-58.5,16-84.4,0c0,0.2,0,0.5,0.1,0.7
				C122.2,197.4,154.7,197.4,180.6,181.6z"/>
			<path class="st25" d="M180.7,180.1c0-0.2,0.1-0.5,0.1-0.8c-25.8,16.5-58.9,16.5-84.8,0c0,0.2,0.1,0.5,0.1,0.8
				C122,196.4,154.9,196.4,180.7,180.1z"/>
			<path class="st25" d="M181,178.6l0.1-0.8c-25.9,17.1-59.5,17.1-85.3,0c0.1,0.3,0.1,0.5,0.2,0.8
				C121.8,195.4,155.1,195.4,181,178.6L181,178.6z"/>
			<path class="st25" d="M181.3,177l0.2-0.8c-25.9,17.8-60.1,17.8-86,0c0.1,0.3,0.1,0.5,0.2,0.8C121.5,194.4,155.4,194.4,181.3,177
				L181.3,177z"/>
			<path class="st25" d="M181.7,175.4c0.1-0.3,0.1-0.6,0.2-0.9c-26,18.5-60.8,18.5-86.8,0c0.1,0.3,0.1,0.6,0.2,0.9
				C121.2,193.5,155.7,193.5,181.7,175.4z"/>
			<path class="st25" d="M182.1,173.7c0.1-0.3,0.1-0.6,0.2-0.9c-26,19.4-61.7,19.4-87.7,0c0.1,0.3,0.1,0.6,0.2,0.9
				C120.8,192.6,156.1,192.6,182.1,173.7z"/>
			<path class="st25" d="M182.5,171.9c0.1-0.3,0.1-0.6,0.2-0.9c-26,20.3-62.6,20.3-88.6,0l0.2,0.9
				C120.4,191.7,156.5,191.7,182.5,171.9z"/>
			<path class="st25" d="M183,170.1l0.1-0.3c0-0.2,0.1-0.4,0.1-0.6c-26,21.3-63.4,21.3-89.4,0c0,0.2,0.1,0.4,0.1,0.6l0.1,0.3
				C120,190.9,157,190.9,183,170.1z"/>
			<path class="st25" d="M183.2,168.4c0-0.2-0.1-0.4-0.1-0.7c-25.8,21.7-63.5,21.7-89.3,0c-0.1,0.2-0.1,0.4-0.1,0.7
				C119.7,189.9,157.3,189.9,183.2,168.4L183.2,168.4z"/>
			<path class="st25" d="M182.9,167.1c-0.1-0.2-0.2-0.4-0.3-0.5c-25.5,21.7-62.9,21.7-88.4,0c-0.1,0.2-0.2,0.3-0.3,0.5
				C119.6,188.9,157.3,188.9,182.9,167.1z"/>
			<path class="st25" d="M182.3,166.1c-0.1-0.2-0.2-0.3-0.4-0.4c-25,21.5-62,21.5-87,0c-0.1,0.1-0.3,0.3-0.4,0.4
				C119.8,187.7,157.1,187.7,182.3,166.1L182.3,166.1z"/>
			<path class="st25" d="M181.5,165.3l-0.2-0.2l-0.2-0.2c-24.5,20.9-60.6,20.9-85.2,0l-0.2,0.2l-0.2,0.2
				C120.2,186.5,156.7,186.5,181.5,165.3z"/>
			<path class="st25" d="M180.6,164.6l-0.5-0.3c-24,20.4-59.2,20.4-83.2,0l-0.5,0.3C120.6,185.3,156.3,185.3,180.6,164.6z"/>
			<path class="st25" d="M179.6,164l-0.5-0.3c-23.5,19.7-57.7,19.7-81.2,0l-0.5,0.3C121.1,184.1,155.8,184.1,179.6,164z"/>
			<path class="st25" d="M178.6,163.3l-0.5-0.3c-22.9,19.1-56.3,19.1-79.2,0l-0.5,0.3C121.6,182.8,155.4,182.8,178.6,163.3z"/>
			<path class="st25" d="M177.6,162.7l-0.5-0.3c-22.4,18.5-54.8,18.5-77.2,0l-0.5,0.3C122,181.5,154.9,181.5,177.6,162.7z"/>
			<path class="st25" d="M176.5,162l-0.5-0.3c-21.9,17.9-53.3,17.9-75.1,0l-0.5,0.3C122.5,180.2,154.4,180.2,176.5,162z"/>
			<path class="st25" d="M175.5,161.4l-0.5-0.3c-21.3,17.2-51.8,17.2-73.1,0l-0.5,0.3C123,178.9,153.9,178.9,175.5,161.4z"/>
			<path class="st25" d="M174.5,160.8l-0.5-0.3c-20.8,16.6-50.2,16.6-71,0l-0.5,0.3C123.4,177.7,153.4,177.7,174.5,160.8
				L174.5,160.8z"/>
			<path class="st25" d="M173.4,160.1l-0.5-0.3c-20.2,15.9-48.7,15.9-68.9,0c-0.2,0.1-0.4,0.2-0.5,0.3
				C124,176.4,152.9,176.4,173.4,160.1z"/>
			<path class="st25" d="M172.4,159.5l-0.5-0.3c-19.6,15.3-47.1,15.3-66.8,0l-0.5,0.3C124.5,175.1,152.5,175.1,172.4,159.5z"/>
			<path class="st25" d="M171.3,158.9l-0.5-0.3c-19.1,14.6-45.6,14.6-64.6,0l-0.5,0.3C125,173.8,152,173.8,171.3,158.9L171.3,158.9z
				"/>
			<path class="st25" d="M170.2,158.3l-0.5-0.3c-18.5,13.9-44,13.9-62.4,0l-0.5,0.3C125.5,172.6,151.5,172.6,170.2,158.3z"/>
			<path class="st25" d="M169.1,157.7l-0.6-0.3c-17.9,13.3-42.4,13.3-60.3,0l-0.6,0.3C126,171.3,150.9,171.3,169.1,157.7z"/>
			<path class="st25" d="M168,157.1l-0.6-0.3c-17.3,12.6-40.7,12.6-58,0l-0.6,0.3C126.5,170,150.4,170,168,157.1L168,157.1z"/>
			<path class="st25" d="M166.9,156.5l-0.6-0.3c-16.7,11.9-39.1,11.9-55.8,0l-0.6,0.3C127,168.7,149.9,168.7,166.9,156.5z"/>
			<path class="st25" d="M165.8,155.9l-0.5-0.2h-0.1c-16.1,11.2-37.5,11.2-53.6,0h-0.1l-0.5,0.2
				C127.5,167.4,149.4,167.4,165.8,155.9z"/>
			<path class="st25" d="M164.7,155.3l-0.6-0.3c-15.5,10.5-35.8,10.5-51.3,0l-0.6,0.3C128,166.2,148.9,166.2,164.7,155.3
				L164.7,155.3z"/>
			<path class="st25" d="M163.5,154.7l-0.6-0.3c-14.8,9.8-34.1,9.8-48.9,0l-0.6,0.3C128.6,164.9,148.4,164.9,163.5,154.7z"/>
			<path class="st25" d="M162.3,154.1l-0.6-0.3c-14.2,9.1-32.4,9.1-46.6,0l-0.6,0.3C129.1,163.6,147.8,163.6,162.3,154.1
				L162.3,154.1z"/>
			<path class="st25" d="M161.1,153.6l-0.6-0.3c-13.5,8.4-30.7,8.4-44.2,0l-0.6,0.3C129.6,162.3,147.3,162.3,161.1,153.6z"/>
			<path class="st25" d="M159.9,153l-0.6-0.3c-12.8,7.7-28.9,7.7-41.7,0L117,153C130.2,161.1,146.8,161.1,159.9,153L159.9,153z"/>
			<path class="st25" d="M158.7,152.4l-0.6-0.3c-12.2,7-27.1,7-39.2,0l-0.6,0.3C130.7,159.7,146.2,159.7,158.7,152.4L158.7,152.4z"
				/>
			<path class="st25" d="M157.4,151.8l-0.6-0.3c-11.4,6.3-25.3,6.3-36.7,0l-0.7,0.3C131.3,158.4,145.7,158.4,157.4,151.8
				L157.4,151.8z"/>
			<path class="st25" d="M156.1,151.2l-0.7-0.3c-10.7,5.5-23.3,5.5-34,0l-0.7,0.3C131.9,157.1,145.1,157.1,156.1,151.2L156.1,151.2z
				"/>
			<path class="st25" d="M154.8,150.7l-0.7-0.3c-9.9,4.8-21.4,4.8-31.3,0l-0.7,0.3C132.4,155.9,144.5,155.9,154.8,150.7z"/>
			<path class="st25" d="M153.4,150.1l-0.7-0.3c-9.1,4.1-19.4,4.1-28.5,0l-0.7,0.3C133,154.6,143.9,154.6,153.4,150.1z"/>
			<path class="st25" d="M152,149.5l-0.8-0.3c-8.2,3.4-17.4,3.4-25.5,0l-0.8,0.3C133.6,153.3,143.4,153.3,152,149.5L152,149.5z"/>
			<path class="st25" d="M150.4,148.9l-0.8-0.3c-7.2,2.7-15.1,2.7-22.3,0l-0.8,0.3C134.2,152,142.8,152,150.4,148.9L150.4,148.9z"/>
			<path class="st25" d="M148.8,148.4l-0.9-0.3c-6.1,2-12.8,2-18.9,0l-0.9,0.3C134.8,150.7,142.1,150.7,148.8,148.4z"/>
			<path class="st25" d="M147,147.8l-1-0.3c-4.9,1.3-10.1,1.3-15,0l-1,0.3C135.5,149.4,141.5,149.4,147,147.8z"/>
			<path class="st25" d="M144.9,147.2l-1.3-0.3c-3.4,0.6-6.9,0.6-10.3,0l-1.3,0.3C136.3,148.1,140.6,148.1,144.9,147.2L144.9,147.2z
				"/>
			<path class="st25" d="M142.1,146.5c-0.9-0.2-1.8-0.3-2.7-0.3h-0.9h-0.9c-0.9,0.1-1.8,0.2-2.7,0.3
				C137.3,146.9,139.7,146.9,142.1,146.5L142.1,146.5z"/>
		</g>
		<g class="st24">
			<path class="st25" d="M140.4,220.1c1.2-0.2,2.4-0.4,3.6-0.7c-1.9,0.1-3.7,0.1-5.6,0.1s-3.8-0.1-5.6-0.1c1.2,0.3,2.4,0.5,3.6,0.7
				h2H140.4z"/>
			<path class="st25" d="M146.7,218.7c0.8-0.2,1.5-0.5,2.3-0.8c-3.5,0.3-7,0.5-10.6,0.5s-7.1-0.1-10.6-0.4c0.8,0.3,1.6,0.5,2.3,0.8
				c2.7,0.2,5.5,0.3,8.2,0.3S144,218.9,146.7,218.7z"/>
			<path class="st25" d="M151.2,217.2c0.7-0.3,1.4-0.5,2.1-0.8c-9.9,1.4-19.9,1.4-29.8,0c0.7,0.3,1.4,0.6,2.1,0.8
				C134.2,218.1,142.7,218.1,151.2,217.2z"/>
			<path class="st25" d="M155.5,215.4l2.1-0.9c-12.6,2.3-25.6,2.3-38.2,0c0.7,0.3,1.4,0.6,2.1,0.9
				C132.7,217.2,144.2,217.2,155.5,215.4L155.5,215.4z"/>
			<path class="st25" d="M159.6,213.6c0.7-0.3,1.4-0.7,2.1-1c-15.4,3.4-31.3,3.4-46.6,0c0.7,0.4,1.4,0.7,2.1,1
				C131.3,216.4,145.7,216.4,159.6,213.6z"/>
			<path class="st25" d="M164,211.5l1.4-0.7l0.9-0.5c-18.2,5-37.3,5-55.5,0l0.9,0.5l1.4,0.7C129.8,215.6,147.3,215.6,164,211.5
				L164,211.5z"/>
			<path class="st25" d="M168.5,209l2.4-1.4c-21.1,7-43.9,7-65,0l2.4,1.4C128,214.9,148.9,214.9,168.5,209L168.5,209z"/>
			<path class="st25" d="M173.5,206.2c1-0.6,1.9-1.1,2.7-1.6c-24.3,9.6-51.3,9.6-75.5,0c0.9,0.5,1.8,1.1,2.7,1.6
				C126.1,214.4,150.9,214.4,173.5,206.2L173.5,206.2z"/>
			<path class="st25" d="M179.1,202.8c0.8-0.5,1.6-1,2.2-1.5c0.2-0.1,0.3-0.2,0.4-0.4c-27.4,13-59.2,13-86.6,0
				c0.1,0.1,0.3,0.2,0.4,0.4c0.7,0.5,1.4,1,2.2,1.5C123.8,214,153.2,214,179.1,202.8L179.1,202.8z"/>
			<path class="st25" d="M182.6,199.9c0.2-0.3,0.3-0.6,0.4-0.9c-28,14-61,14-89.1,0c0.1,0.3,0.2,0.6,0.4,0.8
				C122.2,213.5,154.8,213.5,182.6,199.9L182.6,199.9z"/>
			<path class="st25" d="M183.2,198.3c0-0.2,0.1-0.4,0.1-0.7c-28.1,14.4-61.4,14.4-89.5,0c0,0.2,0,0.4,0,0.7
				C121.8,212.6,155,212.6,183.2,198.3L183.2,198.3z"/>
			<path class="st25" d="M183.2,197c0-0.1,0-0.3-0.1-0.4l-0.1-0.2c-27.9,14.5-61.2,14.5-89.2,0v0.2c0,0.1-0.1,0.3-0.1,0.4
				C121.8,211.5,155.2,211.5,183.2,197L183.2,197z"/>
			<path class="st25" d="M182.9,195.9l-0.1-0.6c-27.7,14.5-60.8,14.5-88.6,0c0,0.2-0.1,0.4-0.1,0.6
				C121.9,210.4,155,210.4,182.9,195.9L182.9,195.9z"/>
			<path class="st25" d="M182.6,194.8l-0.1-0.6c-27.5,14.5-60.5,14.5-88,0c0,0.2-0.1,0.4-0.1,0.6C121.9,209.3,155,209.3,182.6,194.8
				L182.6,194.8z"/>
			<path class="st25" d="M182.3,193.7c-0.1-0.2-0.1-0.4-0.1-0.6c-27.3,14.6-60.1,14.6-87.4,0c0,0.2-0.1,0.4-0.1,0.6
				C122,208.2,154.9,208.2,182.3,193.7z"/>
			<path class="st25" d="M182,192.5c0-0.2-0.1-0.4-0.1-0.6c-27.1,14.6-59.7,14.6-86.9,0c0,0.2-0.1,0.4-0.1,0.6
				C122.1,207.1,154.8,207.1,182,192.5L182,192.5z"/>
			<path class="st25" d="M181.8,191.4c-0.1-0.2-0.1-0.4-0.1-0.6c-26.9,14.6-59.4,14.6-86.3,0c0,0.2-0.1,0.4-0.1,0.6
				C122.2,206,154.7,206,181.8,191.4z"/>
			<path class="st25" d="M181.5,190.2c-0.1-0.2-0.1-0.4-0.1-0.6c-26.7,14.7-59.1,14.7-85.8,0l-0.1,0.6
				C122.2,204.9,154.7,204.9,181.5,190.2L181.5,190.2z"/>
			<path class="st25" d="M181.2,189.1l-0.1-0.6c-26.5,14.7-58.8,14.7-85.3,0c0,0.2-0.1,0.4-0.1,0.6
				C122.3,203.8,154.6,203.8,181.2,189.1z"/>
			<path class="st25" d="M181,187.9c0-0.2-0.1-0.4-0.1-0.6c-26.4,14.8-58.5,14.8-84.9,0c0,0.2-0.1,0.4-0.1,0.6
				C122.3,202.7,154.6,202.7,181,187.9z"/>
			<path class="st25" d="M180.8,186.7c0-0.2-0.1-0.4-0.1-0.6c-26.2,15-58.3,15-84.5,0l-0.1,0.6C122.4,201.6,154.5,201.6,180.8,186.7
				L180.8,186.7z"/>
			<path class="st25" d="M180.6,185.5c0-0.2,0-0.4-0.1-0.6c-26,15.1-58.2,15.1-84.2,0l-0.1,0.6C122.4,200.5,154.5,200.5,180.6,185.5
				L180.6,185.5z"/>
			<path class="st25" d="M180.5,184.3v-0.6c-25.9,15.3-58.1,15.3-84.1,0c0,0.2,0,0.4,0,0.6C122.4,199.5,154.6,199.5,180.5,184.3
				L180.5,184.3z"/>
			<path class="st25" d="M138.5,194c-14.8,0.1-29.4-4-42.1-11.7c0,0.2,0,0.5,0,0.7c25.9,15.5,58.2,15.5,84.1,0c0-0.2,0-0.4,0-0.7
				C167.8,190,153.3,194,138.5,194z"/>
			<path class="st25" d="M180.6,181.6c0-0.2,0.1-0.5,0.1-0.7c-25.8,16-58.5,16-84.4,0c0,0.2,0,0.5,0.1,0.7
				C122.2,197.4,154.7,197.4,180.6,181.6z"/>
			<path class="st25" d="M180.7,180.1c0-0.2,0.1-0.5,0.1-0.8c-25.8,16.5-58.9,16.5-84.8,0c0,0.2,0.1,0.5,0.1,0.8
				C122,196.4,154.9,196.4,180.7,180.1z"/>
			<path class="st25" d="M181,178.6l0.1-0.8c-25.9,17.1-59.5,17.1-85.3,0c0.1,0.3,0.1,0.5,0.2,0.8
				C121.8,195.4,155.1,195.4,181,178.6L181,178.6z"/>
			<path class="st25" d="M181.3,177l0.2-0.8c-25.9,17.8-60.1,17.8-86,0c0.1,0.3,0.1,0.5,0.2,0.8C121.5,194.4,155.4,194.4,181.3,177
				L181.3,177z"/>
			<path class="st25" d="M181.7,175.4c0.1-0.3,0.1-0.6,0.2-0.9c-26,18.5-60.8,18.5-86.8,0c0.1,0.3,0.1,0.6,0.2,0.9
				C121.2,193.5,155.7,193.5,181.7,175.4z"/>
			<path class="st25" d="M182.1,173.7c0.1-0.3,0.1-0.6,0.2-0.9c-26,19.4-61.7,19.4-87.7,0c0.1,0.3,0.1,0.6,0.2,0.9
				C120.8,192.6,156.1,192.6,182.1,173.7z"/>
			<path class="st25" d="M182.5,171.9c0.1-0.3,0.1-0.6,0.2-0.9c-26,20.3-62.6,20.3-88.6,0l0.2,0.9
				C120.4,191.7,156.5,191.7,182.5,171.9z"/>
			<path class="st25" d="M183,170.1l0.1-0.3c0-0.2,0.1-0.4,0.1-0.6c-26,21.3-63.4,21.3-89.4,0c0,0.2,0.1,0.4,0.1,0.6l0.1,0.3
				C120,190.9,157,190.9,183,170.1z"/>
			<path class="st25" d="M183.2,168.4c0-0.2-0.1-0.4-0.1-0.7c-25.8,21.7-63.5,21.7-89.3,0c-0.1,0.2-0.1,0.4-0.1,0.7
				C119.7,189.9,157.3,189.9,183.2,168.4L183.2,168.4z"/>
			<path class="st25" d="M182.9,167.1c-0.1-0.2-0.2-0.4-0.3-0.5c-25.5,21.7-62.9,21.7-88.4,0c-0.1,0.2-0.2,0.3-0.3,0.5
				C119.6,188.9,157.3,188.9,182.9,167.1z"/>
			<path class="st25" d="M182.3,166.1c-0.1-0.2-0.2-0.3-0.4-0.4c-25,21.5-62,21.5-87,0c-0.1,0.1-0.3,0.3-0.4,0.4
				C119.8,187.7,157.1,187.7,182.3,166.1L182.3,166.1z"/>
			<path class="st25" d="M181.5,165.3l-0.2-0.2l-0.2-0.2c-24.5,20.9-60.6,20.9-85.2,0l-0.2,0.2l-0.2,0.2
				C120.2,186.5,156.7,186.5,181.5,165.3z"/>
			<path class="st25" d="M180.6,164.6l-0.5-0.3c-24,20.4-59.2,20.4-83.2,0l-0.5,0.3C120.6,185.3,156.3,185.3,180.6,164.6z"/>
			<path class="st25" d="M179.6,164l-0.5-0.3c-23.5,19.7-57.7,19.7-81.2,0l-0.5,0.3C121.1,184.1,155.8,184.1,179.6,164z"/>
			<path class="st25" d="M178.6,163.3l-0.5-0.3c-22.9,19.1-56.3,19.1-79.2,0l-0.5,0.3C121.6,182.8,155.4,182.8,178.6,163.3z"/>
			<path class="st25" d="M177.6,162.7l-0.5-0.3c-22.4,18.5-54.8,18.5-77.2,0l-0.5,0.3C122,181.5,154.9,181.5,177.6,162.7z"/>
			<path class="st25" d="M176.5,162l-0.5-0.3c-21.9,17.9-53.3,17.9-75.1,0l-0.5,0.3C122.5,180.2,154.4,180.2,176.5,162z"/>
			<path class="st25" d="M175.5,161.4l-0.5-0.3c-21.3,17.2-51.8,17.2-73.1,0l-0.5,0.3C123,178.9,153.9,178.9,175.5,161.4z"/>
			<path class="st25" d="M174.5,160.8l-0.5-0.3c-20.8,16.6-50.2,16.6-71,0l-0.5,0.3C123.4,177.7,153.4,177.7,174.5,160.8
				L174.5,160.8z"/>
			<path class="st25" d="M173.4,160.1l-0.5-0.3c-20.2,15.9-48.7,15.9-68.9,0c-0.2,0.1-0.4,0.2-0.5,0.3
				C124,176.4,152.9,176.4,173.4,160.1z"/>
			<path class="st25" d="M172.4,159.5l-0.5-0.3c-19.6,15.3-47.1,15.3-66.8,0l-0.5,0.3C124.5,175.1,152.5,175.1,172.4,159.5z"/>
			<path class="st25" d="M171.3,158.9l-0.5-0.3c-19.1,14.6-45.6,14.6-64.6,0l-0.5,0.3C125,173.8,152,173.8,171.3,158.9L171.3,158.9z
				"/>
			<path class="st25" d="M170.2,158.3l-0.5-0.3c-18.5,13.9-44,13.9-62.4,0l-0.5,0.3C125.5,172.6,151.5,172.6,170.2,158.3z"/>
			<path class="st25" d="M169.1,157.7l-0.6-0.3c-17.9,13.3-42.4,13.3-60.3,0l-0.6,0.3C126,171.3,150.9,171.3,169.1,157.7z"/>
			<path class="st25" d="M168,157.1l-0.6-0.3c-17.3,12.6-40.7,12.6-58,0l-0.6,0.3C126.5,170,150.4,170,168,157.1L168,157.1z"/>
			<path class="st25" d="M166.9,156.5l-0.6-0.3c-16.7,11.9-39.1,11.9-55.8,0l-0.6,0.3C127,168.7,149.9,168.7,166.9,156.5z"/>
			<path class="st25" d="M165.8,155.9l-0.5-0.2h-0.1c-16.1,11.2-37.5,11.2-53.6,0h-0.1l-0.5,0.2
				C127.5,167.4,149.4,167.4,165.8,155.9z"/>
			<path class="st25" d="M164.7,155.3l-0.6-0.3c-15.5,10.5-35.8,10.5-51.3,0l-0.6,0.3C128,166.2,148.9,166.2,164.7,155.3
				L164.7,155.3z"/>
			<path class="st25" d="M163.5,154.7l-0.6-0.3c-14.8,9.8-34.1,9.8-48.9,0l-0.6,0.3C128.6,164.9,148.4,164.9,163.5,154.7z"/>
			<path class="st25" d="M162.3,154.1l-0.6-0.3c-14.2,9.1-32.4,9.1-46.6,0l-0.6,0.3C129.1,163.6,147.8,163.6,162.3,154.1
				L162.3,154.1z"/>
			<path class="st25" d="M161.1,153.6l-0.6-0.3c-13.5,8.4-30.7,8.4-44.2,0l-0.6,0.3C129.6,162.3,147.3,162.3,161.1,153.6z"/>
			<path class="st25" d="M159.9,153l-0.6-0.3c-12.8,7.7-28.9,7.7-41.7,0L117,153C130.2,161.1,146.8,161.1,159.9,153L159.9,153z"/>
			<path class="st25" d="M158.7,152.4l-0.6-0.3c-12.2,7-27.1,7-39.2,0l-0.6,0.3C130.7,159.7,146.2,159.7,158.7,152.4L158.7,152.4z"
				/>
			<path class="st25" d="M157.4,151.8l-0.6-0.3c-11.4,6.3-25.3,6.3-36.7,0l-0.7,0.3C131.3,158.4,145.7,158.4,157.4,151.8
				L157.4,151.8z"/>
			<path class="st25" d="M156.1,151.2l-0.7-0.3c-10.7,5.5-23.3,5.5-34,0l-0.7,0.3C131.9,157.1,145.1,157.1,156.1,151.2L156.1,151.2z
				"/>
			<path class="st25" d="M154.8,150.7l-0.7-0.3c-9.9,4.8-21.4,4.8-31.3,0l-0.7,0.3C132.4,155.9,144.5,155.9,154.8,150.7z"/>
			<path class="st25" d="M153.4,150.1l-0.7-0.3c-9.1,4.1-19.4,4.1-28.5,0l-0.7,0.3C133,154.6,143.9,154.6,153.4,150.1z"/>
			<path class="st25" d="M152,149.5l-0.8-0.3c-8.2,3.4-17.4,3.4-25.5,0l-0.8,0.3C133.6,153.3,143.4,153.3,152,149.5L152,149.5z"/>
			<path class="st25" d="M150.4,148.9l-0.8-0.3c-7.2,2.7-15.1,2.7-22.3,0l-0.8,0.3C134.2,152,142.8,152,150.4,148.9L150.4,148.9z"/>
			<path class="st25" d="M148.8,148.4l-0.9-0.3c-6.1,2-12.8,2-18.9,0l-0.9,0.3C134.8,150.7,142.1,150.7,148.8,148.4z"/>
			<path class="st25" d="M147,147.8l-1-0.3c-4.9,1.3-10.1,1.3-15,0l-1,0.3C135.5,149.4,141.5,149.4,147,147.8z"/>
			<path class="st25" d="M144.9,147.2l-1.3-0.3c-3.4,0.6-6.9,0.6-10.3,0l-1.3,0.3C136.3,148.1,140.6,148.1,144.9,147.2L144.9,147.2z
				"/>
			<path class="st25" d="M142.1,146.5c-0.9-0.2-1.8-0.3-2.7-0.3h-0.9h-0.9c-0.9,0.1-1.8,0.2-2.7,0.3
				C137.3,146.9,139.7,146.9,142.1,146.5L142.1,146.5z"/>
		</g>
		<path class="st26" d="M271.2,254.4c-0.1,0.3,0,0.6,0.3,0.8c0.3,0.1,0.6,0,0.7-0.2c0,0,0,0,0,0l0,0l5.5-11.4c0.1-0.3,0-0.6-0.2-0.7
			c0,0,0,0,0,0l0,0c-0.3-0.1-0.6,0-0.8,0.3L271.2,254.4z"/>
		<path class="st26" d="M263.9,251.2c-0.1,0.3,0,0.6,0.3,0.8c0.3,0.1,0.6,0,0.8-0.3l7.4-15.4c0.1-0.3,0-0.6-0.3-0.8
			c-0.3-0.1-0.6,0-0.7,0.2c0,0,0,0,0,0l0,0L263.9,251.2z"/>
		<path class="st27" d="M242.8,304.8l14.5-31l-5.8-8.8c-1.1-1.6-1.8-3.5-1.9-5.4c-0.2-1.5-1.8-10.7-1.6-11.5
			c0.3-2.2,3.3-1.7,4.5-1.2c2.2,0.9,4.1,5.3,5,9.2c0.3,1.4,2,2.9,2.5,2l11.1-24.3c1.7-3.7,3.2-3.9,4.5-3.4c1.3,0.3,2.2,1.4,2.3,2.7
			c0,2.5-0.5,4.9-1.3,7.2c0,0,2.7-7.8,6.4-6s0.7,7.3,0.1,9.4c-0.4,1.3,1.2-2.7,3.4-3.9c0.9-0.5,2.3,0.1,3.1,0.8
			c2.7,2.6-1.2,9.4-1.2,9.4s1.8-3,3.5-3c1.3,0.2,2.4,1.3,2.6,2.6c0.5,2,0.1,4.1-1,5.8l-15.2,26.2l-12,34L242.8,304.8z"/>
		<path class="st28" d="M282.9,259.9c-0.1,0.3,0,0.6,0.3,0.8c0.3,0.1,0.6,0,0.8-0.3l5.5-11.4c0.1-0.3,0-0.6-0.3-0.8
			c-0.3-0.1-0.6,0-0.7,0.2c0,0,0,0,0,0l0,0L282.9,259.9z"/>
		<path class="st28" d="M275.7,256.7c-0.1,0.3,0,0.6,0.3,0.8c0.3,0.1,0.6,0,0.7-0.2c0,0,0,0,0,0l0,0l7.4-15.4c0.1-0.3,0-0.6-0.3-0.8
			c-0.3-0.1-0.6,0-0.8,0.3L275.7,256.7z"/>
		<path class="st28" d="M268.7,254.1c-0.2,0.2-0.1,0.6,0.1,0.8c0.2,0.2,0.6,0.1,0.8-0.1c0-0.1,0.1-0.1,0.1-0.2l8.8-17.9
			c0.2-0.3,0.1-0.6-0.1-0.8c-0.3-0.2-0.6-0.1-0.8,0.1c0,0.1-0.1,0.1-0.1,0.2L268.7,254.1z"/>
		<path class="st9" d="M254,281.1c0,0-38.2,79.1-35.9,93.5s5.2,20.6,17.9,16.5s38.4-98.9,38.4-98.9L254,281.1z"/>
		<path class="st26" d="M28.3,241.5c0.2,0.2,0.1,0.6-0.1,0.7s-0.6,0.1-0.7-0.1c0,0,0-0.1-0.1-0.1c0,0,0-0.1,0-0.1l-5.2-10.5
			c-0.1-0.3,0.1-0.6,0.3-0.7c0.2-0.1,0.5,0,0.6,0.2L28.3,241.5z"/>
		<path class="st26" d="M35,238.5c0.1,0.3,0,0.6-0.3,0.7s-0.6,0-0.7-0.3l0,0l-7-14.3c-0.1-0.3,0-0.6,0.2-0.7c0.3-0.1,0.6,0,0.7,0.2
			l0,0L35,238.5z"/>
		<path class="st27" d="M52.8,292.1c-13.8-28.7-11.4-32.5-11.4-32.5l5.4-7.6l2.1-5.3l0.6-8c0.2-2.1,0.7-2.7-1.2-3.8
			c-4.1-2.3-5.9,3.2-7,8.1c-0.3,1.3-1.9,2.7-2.3,1.9l-10.5-22.6c-1.6-3.5-3-3.6-4.2-3.1c-1.2,0.3-2.1,1.3-2.1,2.6
			c0,2.3,0.4,4.6,1.3,6.7c0,0-2.6-7.3-6.1-5.6s-0.6,6.8,0,8.8c0.4,1.2-1.2-2.5-3.2-3.6c-1-0.3-2.2,0-2.9,0.8
			c-2.5,2.5,1.2,8.8,1.2,8.8s-1.7-2.8-3.3-2.8c-1,0-2,0.9-2.4,2.4c-0.4,1.9-0.1,3.8,1,5.4L22,267l11.5,31.6L52.8,292.1z"/>
		<path class="st28" d="M17.4,246.8c0.1,0.3,0,0.6-0.2,0.7c-0.3,0.1-0.6,0-0.7-0.2l0,0l-5.2-10.5c-0.1-0.3,0-0.6,0.2-0.7
			c0.3-0.1,0.6,0,0.7,0.2l0,0L17.4,246.8z"/>
		<path class="st28" d="M24.1,243.8c0.1,0.3,0,0.6-0.2,0.7c-0.3,0.1-0.6,0-0.7-0.2l0,0L16.1,230c-0.1-0.3,0-0.6,0.2-0.7
			c0.3-0.1,0.6,0,0.7,0.2L24.1,243.8z"/>
		<path class="st28" d="M30.6,241.2c0.1,0.3,0,0.6-0.3,0.7c-0.2,0.1-0.5,0-0.6-0.2l-8.4-16.6c-0.2-0.2-0.1-0.6,0.2-0.7c0,0,0,0,0,0
			c0.2-0.2,0.6-0.1,0.7,0.2v0.1L30.6,241.2z"/>
		<path class="st9" d="M25.8,277.3c0,0,15.3,96.3,26.9,105.1s18,11.4,24.3-0.4S44.2,269,44.2,269L25.8,277.3z"/>
	</g>
</g>
</svg>
