<?xml version="1.0" encoding="utf-8"?>
<!-- Generator: Adobe Illustrator 22.1.0, SVG Export Plug-In . SVG Version: 6.00 Build 0)  -->
<svg version="1.1" id="Layer_1" xmlns="http://www.w3.org/2000/svg" xmlns:xlink="http://www.w3.org/1999/xlink" x="0px" y="0px"
	 viewBox="0 0 300.5 821.3" style="enable-background:new 0 0 300.5 821.3;" xml:space="preserve">
<style type="text/css">
	.st0{fill:#F8BA8C;}
	.st1{fill:#FFFFFF;}
	.st2{fill:#22366B;}
	.st3{fill:#18294C;}
	.st4{fill:#22AA66;}
	.st5{fill:#229958;}
	.st6{fill:#209E5F;}
	.st7{fill:#24BF77;}
	.st8{fill:#25AF66;}
	.st9{fill:#E3AC81;}
	.st10{fill:#F4A876;}
	.st11{fill:#793B16;}
	.st12{fill:#EBE0DA;}
	.st13{fill:#EADBD5;}
	.st14{fill:#EADBD8;}
	.st15{fill:#5B2C0B;}
	.st16{fill:#803E19;}
	.st17{opacity:0.1;}
	.st18{fill:#60D2A5;}
	.st19{fill:#57C193;}
	.st20{fill:#45BF87;}
	.st21{fill:#028251;}
	.st22{fill:#07AF72;}
	.st23{opacity:0.25;}
	.st24{fill:#8DD9B8;}
	.st25{fill:#F7E88F;}
	.st26{fill:#F2D453;}
</style>
<g id="BACKGROUND">
</g>
<g id="OBJECT">
	<path class="st0" d="M228.4,477.2l-17-2.4c0,0,10-84.7,5.4-109.7c-5.1-27.7-17.9-55.3-17.9-55.3s-6.9-55.1,6.3-49.7
		S238,327,241.8,365.6C244.7,395.3,228.4,477.2,228.4,477.2z"/>
	<g>
		<g>
			<g>
				<g>
					<path class="st1" d="M75,812c24.4-6.5,45.1-11.1,50-14.3c3.3-2.2-0.1-10.7-0.1-10.7l-26.3-13.7l-54.4,22.9c0,0-1.3,5.4,1,8.6
						C49.1,810,62.8,815.2,75,812z"/>
					<path class="st1" d="M230.1,812c-24.4-6.5-45.1-11.1-50-14.3c-3.3-2.2,0.1-10.7,0.1-10.7l26.3-13.7l54.4,22.9
						c0,0,1.3,5.4-1,8.6C256,810,242.4,815.2,230.1,812z"/>
					<path class="st2" d="M230.6,806.1c-24.4-6.5-45.2-11-50-14.3s0-24.9,0-24.9l26.4,0.5c0,0,36.7,21.5,47.3,23.7
						C273.4,794.9,250.2,811.3,230.6,806.1z"/>
					<path class="st3" d="M260.2,793.5c-5.4,4-13.4,6.2-19.8,5.9c-5.9-0.3-11.4-2.1-16.8-4.4c-5.6-2.3-12.3-4.5-17.3-8
						c-7.2-5.1-10.4-12.9-15.2-19.9l-10.5-0.2c0,0-4.8,21.5,0,24.9c4.8,3.3,25.6,7.9,50,14.3C247.3,810.5,266.5,799.3,260.2,793.5z"
						/>
					<path class="st4" d="M151.5,496.7c6.7,10.5,18.8,58.9,20.7,119.6c2.1,65.5-1.9,157.2,4.8,161.1c11.3,6.4,37.8-3.3,40.1-10.5
						c-0.5-13.9-11.7-207.7-5.3-288.7C174.4,456.4,136.3,472.8,151.5,496.7z"/>
					<path class="st5" d="M192.6,767.6c-7.8-9.2-7.9-25-9.3-36.4c-2.2-18.1,0.5-35.9-2-54.1c-1.6-11.8-5.7-28.6-0.4-39.9
						c1.9-4,7.4-5.7,10.2-8.7c1.9-2-4.3-3.6-5.5-4.4c-1.7-1-2.9-3.2-3.7-5c-2.3-5.4-1.7-12.5-2.3-18.3c-1.1-9.8-1.9-19.7-2.4-29.5
						c-1.2-22.8,3.6-63-24.2-71.6c6.9,14.8,17.4,60.5,19.2,116.7c2.1,65.5-1.9,157.2,4.8,161.1c8,4.6,23.7,1,32.9-4.1
						C203.6,774.1,197.4,773.2,192.6,767.6z"/>
					<path class="st2" d="M75,806.1c24.4-6.5,45.2-11,50-14.3s0-24.9,0-24.9l-26.4,0.5c0,0-36.7,21.5-47.3,23.7
						C32.2,794.9,55.4,811.3,75,806.1z"/>
					<path class="st3" d="M125,766.9l-14,0.3c2.4,7.1,0.2,15.5-7.9,19.7c-8.2,4.3-17.6,9-26.6,10.8c-10.1,2.1-20.8-1-31-1.2
						c-0.5,0-0.9-0.1-1.3-0.3c0.2,5.9,16.4,13.7,30.8,9.9c24.4-6.5,45.2-11,50-14.3C129.8,788.4,125,766.9,125,766.9z"/>
					<path class="st4" d="M148.3,494.9c-6.7,10.5-15.8,60.8-17.7,121.5c-2.1,65.5,3.5,157.2-3.2,161.1c-11.3,6.4-37.8-3.3-40.1-10.5
						c0.5-14.3,9.7-207.4,3.2-288.8C128,456.3,163.5,470.9,148.3,494.9z"/>
					<path class="st5" d="M148.3,494.9c0.5-0.8,0.9-1.5,1.3-2.3c-19.2,13-24.8,40.2-27.1,62.3c-1.6,15.6-0.2,31-1.4,46.5
						c-0.5,6.1-0.9,13.2-5,18.1c-2.6,3.1-5.9,5.3-9.3,7.4c3.5,2.3,7.8,4.3,9.5,8c3.3,7-1.2,11-1,18c0.3,10.1,2.6,20.1,2.6,30.3
						c0,10.3-1.1,20.5-0.9,30.8c0.3,15.1,5.4,33.8-3.4,47.5c-6,9.2-12.5,10.9-21,10.7c8.9,5.6,26.2,10,34.7,5.1
						c6.7-3.8,1.1-95.6,3.2-161.1C132.5,555.7,141.6,505.4,148.3,494.9z"/>
					<path class="st4" d="M211.9,478.2c-3.2,26.1-117,27.9-120.2,4.9c-1.5-10.9-1.5-26-0.5-34.8c0.3-2.4,0.6-4.3,1.1-5.6
						c2-6,112.9-18.2,116.1-1.7c0.4,0,1,1.7,1.7,4.5C211.7,452.4,213.4,465.7,211.9,478.2z"/>
					<path class="st6" d="M210.1,445.6c-1.7,1.2-3.6,2-5.6,2.8c-29.4,11.8-62.5,11.2-93.6,5.4c-6.3-1.2-13.5-2.5-19.7-5.4
						c0.3-2.4,0.6-4.3,1.1-5.6c2-6,112.9-18.2,116.1-1.7C208.8,441.1,209.4,442.8,210.1,445.6z"/>
					<path class="st7" d="M208.4,441.1c-5,3.8-14.5,6.6-26.1,8.4c-7,1.1-14.7,1.8-22.6,2.1c-1.6,0.1-3.2,0.1-4.8,0.2
						c-0.8,0-1.6,0-2.4,0c-24.8,0.4-50-2.6-60.2-9.1c-6.7-14.6-2.9-126.5-2.9-126.5s-0.1-0.2-0.2-0.6c0-0.1-0.1-0.2-0.1-0.3
						c-0.1-0.2-0.1-0.4-0.2-0.6c0,0,0,0,0-0.1l0,0c0-0.1-0.1-0.2-0.1-0.3c-0.2-0.8-0.5-1.7-0.9-2.8c-0.1-0.2-0.1-0.4-0.2-0.7
						c-0.1-0.4-0.3-0.9-0.4-1.4c-0.1-0.2-0.1-0.4-0.2-0.6c0-0.1,0-0.1,0-0.2c-0.1-0.4-0.2-0.7-0.3-1.1c0,0,0,0,0-0.1l0,0
						c0-0.2-0.1-0.3-0.1-0.5c-0.1-0.3-0.2-0.5-0.2-0.8c-0.6-2-1.2-4.2-1.9-6.5c-0.2-0.8-0.4-1.6-0.7-2.5c-0.3-0.9-0.5-1.9-0.8-2.9
						s-0.5-2-0.8-2.9c-0.1-0.4-0.2-0.8-0.3-1.2c0-0.1,0-0.2-0.1-0.3c-0.2-0.9-0.5-1.9-0.7-2.8c0-0.1,0-0.1,0-0.2
						c-0.2-0.6-0.3-1.3-0.5-1.9c-2.7-11.2-4.5-21.6-2.5-23.8c0.3-0.4,0.8-0.8,1.3-1.2l0,0c5.5-4.6,18.7-9.2,31.5-12.9
						c2-0.6,3.9-1.1,5.8-1.6l0,0c5.6-1.5,10.9-2.8,15.1-3.8c5.9-1.4,9.8-2.2,9.8-2.2s11.4,2.5,24.6,6.1c0.2,0.1,0.3,0.1,0.3,0.1l0,0
						c1.1,0.3,2.3,0.6,3.4,0.9c13.9,3.9,28.9,8.8,34.2,13.1l0,0c0.6,0.5,1.1,1,1.5,1.5c1.2,1.8,0.7,9.3-0.3,20.4
						c-0.2,2.1-0.4,4.3-0.6,6.6c-0.1,0.9-0.2,1.8-0.2,2.7c-0.1,1.6-0.3,3.3-0.4,5c-0.1,1.1-0.2,2.3-0.3,3.5
						c-0.3,3.9-0.6,8.1-0.8,12.4c-0.1,1.1-0.1,2.3-0.2,3.5c-0.1,1-0.1,2.1-0.1,3.1c0,0.1,0,0.2,0,0.3v0.1c-0.1,2.4-0.2,4.9-0.2,7.4
						c0,1.2-0.1,2.4-0.1,3.6c-0.1,6.6,0,13.4,0.4,20.3c0.1,1.7,0.2,3.4,0.3,5.1c0,0.8,0.1,1.7,0.2,2.5c0.2,3.2,0.4,6.3,0.7,9.4
						c0.1,0.8,0.1,1.5,0.2,2.2c0.2,2.1,0.4,4.2,0.5,6.3c0.1,0.7,0.1,1.4,0.2,2.1c0.3,3,0.6,5.9,0.8,8.7c0.1,1.1,0.2,2.2,0.4,3.3
						c0.3,2.7,0.6,5.3,0.8,7.9c0.2,1.5,0.3,2.9,0.5,4.3c0.2,1.5,0.3,3,0.5,4.4C209.5,421.6,210.3,432.9,208.4,441.1z"/>
					<path class="st6" d="M170.1,246.7c-2.7,6-12.9,27.2-23.6,29.5c0,0-24.9-1.5-35.6-29c2-0.6,3.9-1.1,5.8-1.6l0,0
						c0.2-0.1,0.4-0.2,0.6-0.3c0.1-0.1,0.3-0.2,0.4-0.3c1.3-0.9,3.3-2.5,5.4-5.4c0.1-0.2,0.2-0.3,0.3-0.5c0.2-0.3,0.4-0.6,0.6-1
						c0.1-0.2,0.2-0.4,0.3-0.6c0.5-1,0.9-2,1.2-3.2c2.1-0.1,4.6-0.2,7.2-0.3l0,0c7.4-0.2,16.2,0,23.4,1.1c0.7,2.3,1.5,3.9,2.6,5.5
						c2.3,3.3,6.3,4.7,7.4,5c0.2,0.1,0.3,0.1,0.3,0.1l0,0C167.8,246.1,169,246.4,170.1,246.7z"/>
					<path class="st6" d="M191.6,323c0.5,17.3,3.3,34.2,7.6,51c2.1,8.1,3.8,16.3,5.9,24.4c0.7,2.7,1.7,5.3,2.8,7.9
						c-1.5-14.8-3.8-33.3-5-56.2c-1.4-26.4,1-51.6,2.5-68.5C198.3,294.6,191.2,308.8,191.6,323z"/>
					<path class="st8" d="M152.1,442.8c-25,0.9-44.8-11.7-48.8-24.9c-4-13.1-2.8-69.5-4.6-94.1c-1.2-17-7.5-30.5-18.7-41.2
						c3.5,15.5,9.3,33.7,9.3,33.7s-3.8,111.9,2.9,126.5c14.5,9.2,59.5,11.4,90.1,6.7C171.9,449,162.2,442.4,152.1,442.8z"/>
					<path class="st9" d="M166.7,245.7L166.7,245.7c-0.2,0.6-8.9,23.9-22,27c-0.8-0.2-1.7-0.4-2.5-0.6c-0.2-0.1-0.4-0.1-0.6-0.2
						c-0.3-0.1-0.6-0.2-0.8-0.3c-0.4-0.1-0.7-0.3-1.1-0.4c-0.3-0.1-0.7-0.3-1-0.5c-12-5.9-20.6-21-22.3-24.2
						c-0.1-0.1-0.1-0.2-0.2-0.3c0-0.1-0.1-0.1-0.1-0.2c0-0.1,0-0.1,0-0.1s0,0,0.1-0.1s0.3-0.1,0.5-0.2l0,0c0.2-0.1,0.4-0.2,0.6-0.3
						c0.1-0.1,0.3-0.2,0.4-0.3c1.3-0.9,3.3-2.5,5.4-5.4c0.1-0.2,0.2-0.3,0.3-0.5c0.2-0.3,0.4-0.6,0.6-1c0.1-0.2,0.2-0.4,0.3-0.6
						c0.5-1,0.9-2,1.2-3.2c0.1-0.5,0.3-1.1,0.4-1.8c0-0.3,0.1-0.5,0.1-0.8c0,0,0-0.1,0-0.2c0.1-0.5,0.1-0.9,0.2-1.5
						c0.2-2.3,0.2-5.2,0-8.7c0-0.4,0-0.8-0.1-1.3c0-0.2,0-0.4,0-0.7c0-0.1,0-0.2,0-0.4l0,0c0-0.1,0-0.2,0-0.3s0-0.3,0-0.5
						c0-0.1,0-0.1,0-0.2c0-0.1,0-0.3,0-0.5l0,0c0-0.3,0-0.6-0.1-1c0-0.3,0-0.5-0.1-0.8c0-0.2,0-0.4,0-0.6c0-0.3,0-0.6-0.1-0.9
						c0-0.5-0.1-1.1-0.1-1.6c0-0.1,0-0.2,0-0.4c0-0.1,0-0.2,0-0.3l0,0c0-0.1,0-0.1,0-0.2c0-0.2,0-0.4,0-0.6c0-0.2,0-0.4-0.1-0.6
						c0-0.2,0-0.4-0.1-0.6c0-0.2,0-0.4-0.1-0.6c0-0.2,0-0.4-0.1-0.6c0-0.2,0-0.3-0.1-0.5l0,0l0,0c0-0.1,0-0.3,0-0.4v-0.1
						c0-0.2,0-0.4-0.1-0.6c0-0.2,0-0.4-0.1-0.6c0-0.2,0-0.4-0.1-0.6c0-0.2,0-0.4-0.1-0.6c0-0.2,0-0.4-0.1-0.6c0-0.1,0-0.3,0-0.5V204
						c0-0.2,0-0.4-0.1-0.6c0-0.2,0-0.4-0.1-0.6c0-0.2,0-0.4-0.1-0.6c0-0.2,0-0.4-0.1-0.6c0-0.2,0-0.3-0.1-0.5V201
						c0-0.2,0-0.4-0.1-0.6c0-0.2,0-0.4-0.1-0.6c0-0.2,0-0.4,0-0.6s0-0.4,0-0.6c0-0.2,0-0.4,0-0.5l0,0c0-0.2,0-0.4,0-0.6
						c0-0.2,0-0.4,0-0.6l0,0c0-0.2,0-0.4,0-0.6v0.7c0-0.2,0-0.3,0-0.5s0-0.4,0-0.6c0-0.2,0-0.4,0-0.6l0,0c0-0.2,0-0.4,0-0.6
						c0-0.2,0-0.4,0-0.5c0-0.2,0-0.4,0.1-0.6c0-0.2,0-0.4,0-0.6c0-0.2,0-0.4,0.1-0.6c0-0.2,0-0.4,0.1-0.6c0-0.2,0.1-0.4,0.1-0.5
						v-0.2c0-0.1,0-0.3,0.1-0.4c0-0.2,0.1-0.4,0.1-0.5c0-0.2,0.1-0.4,0.1-0.6c0-0.2,0.1-0.4,0.1-0.5c0-0.2,0.1-0.3,0.1-0.5l0,0
						c0.1-0.2,0.1-0.4,0.2-0.5c0-0.2,0.1-0.4,0.2-0.5c0.1-0.2,0.1-0.4,0.2-0.5c0.1-0.2,0.1-0.4,0.2-0.5c0.1-0.2,0.1-0.4,0.2-0.5
						c0.1-0.2,0.2-0.4,0.2-0.5c0.1-0.2,0.2-0.4,0.2-0.5c0.1-0.2,0.2-0.3,0.3-0.5c0.1-0.2,0.2-0.3,0.3-0.5c0.1-0.2,0.2-0.4,0.3-0.5
						c0.1-0.2,0.2-0.3,0.3-0.5c0.1-0.2,0.2-0.3,0.3-0.5c0.1-0.2,0.2-0.3,0.4-0.5c0.1-0.2,0.3-0.3,0.4-0.5c0.1-0.2,0.3-0.4,0.4-0.5
						c0.2-0.2,0.3-0.3,0.5-0.5s0.3-0.3,0.5-0.5s0.3-0.3,0.5-0.5l0,0c0.2-0.2,0.4-0.3,0.6-0.5c0.2-0.2,0.4-0.3,0.7-0.5
						s0.5-0.3,0.8-0.5s0.6-0.3,0.9-0.5c0.4-0.2,0.7-0.4,1.1-0.5l0,0c0.5-0.2,1-0.4,1.5-0.5c0.2-0.1,0.4-0.1,0.6-0.1
						c0.2,0,0.4-0.1,0.6-0.1c1.2-0.2,2.5-0.2,3.7,0c0.2,0,0.4,0.1,0.6,0.1c0.1,0,0.2,0,0.4,0.1l0,0c0.5,0.1,1,0.3,1.5,0.5
						c0.4,0.1,0.7,0.3,1.1,0.5l0,0c0.3,0.1,0.6,0.3,0.9,0.5c0.3,0.1,0.5,0.3,0.8,0.5c0.2,0.1,0.5,0.3,0.7,0.5
						c0.2,0.1,0.4,0.3,0.6,0.5c0.2,0.1,0.4,0.3,0.6,0.5c0.2,0.2,0.3,0.3,0.5,0.5s0.3,0.3,0.5,0.5c0.1,0.2,0.3,0.3,0.4,0.5
						c0.1,0.2,0.3,0.3,0.4,0.5c0.1,0.2,0.3,0.3,0.4,0.5c0.1,0.2,0.2,0.3,0.4,0.5c0.1,0.2,0.2,0.3,0.3,0.5s0.2,0.3,0.3,0.5
						s0.2,0.3,0.3,0.5s0.2,0.4,0.3,0.5c0.1,0.2,0.2,0.3,0.2,0.5c0.1,0.2,0.2,0.3,0.2,0.5l0,0c0,0.1,0.1,0.1,0.1,0.2
						c0,0.1,0.1,0.2,0.1,0.4c0.1,0.2,0.1,0.3,0.2,0.5c0.1,0.2,0.1,0.4,0.2,0.5c0,0,0,0,0,0.1s0.1,0.3,0.1,0.5
						c0.1,0.2,0.1,0.4,0.2,0.5c0.1,0.2,0.1,0.4,0.1,0.5c0,0.2,0.1,0.4,0.1,0.6c0,0.2,0.1,0.4,0.1,0.5l0,0c0,0.2,0.1,0.4,0.1,0.5
						c0,0.2,0.1,0.4,0.1,0.5c0,0.2,0.1,0.4,0.1,0.6c0,0.2,0,0.4,0.1,0.5c0,0.2,0,0.4,0.1,0.6c0,0.2,0,0.4,0.1,0.6c0,0.2,0,0.4,0,0.5
						c0,0.2,0,0.4,0,0.6c0,0.2,0,0.4,0,0.6v0.1c0,0.1,0,0.3,0,0.4c0,0.2,0,0.4,0,0.6c0,0.2,0,0.4,0,0.6l0,0c0,0.2,0,0.4,0,0.6
						c0,0.2,0,0.4,0,0.6c0,0.2,0,0.4,0,0.6v0.1c0,0.2,0,0.3,0,0.5s0,0.4,0,0.6s0,0.4,0,0.6c0,0.2,0,0.4,0,0.6c0,0.2,0,0.4,0,0.6
						c0,0.2,0,0.4,0,0.6l0,0c0,0.2,0,0.4,0,0.6c0,0.2,0,0.4,0,0.6v0.6c0,0.2,0,0.4,0,0.6c0,0.2,0,0.4,0,0.6c0,0.2,0,0.4,0,0.6
						s0,0.4,0,0.6v0.6c0,0.2,0,0.4,0,0.5v0.6c0,0.2,0,0.4,0,0.6s0,0.4,0,0.6c0,0.2,0,0.4,0,0.5v0.6c0,0.2,0,0.4,0,0.6
						c0,0.2,0,0.4,0,0.6v0.4c0,2.3,0,4.3,0.1,6.2c0,0.2,0,0.4,0,0.6c0.2,8.3,0.8,13.4,1.8,17c0.7,2.3,1.5,3.9,2.6,5.5
						c2.3,3.3,6.3,4.7,7.4,5C166.6,245.7,166.7,245.7,166.7,245.7z"/>
					<path class="st10" d="M144.7,272.7c-0.8-0.2-1.7-0.4-2.5-0.6c-0.2-0.1-0.4-0.1-0.6-0.2c-0.3-0.1-0.6-0.2-0.8-0.3
						c-0.4-0.1-0.7-0.3-1.1-0.4c-0.3-0.1-0.7-0.3-1-0.5c-12.3-6-20.6-21-22.3-24.2c-0.1-0.1-0.1-0.2-0.2-0.3c0-0.1-0.1-0.1-0.1-0.2
						c0-0.1,0-0.1,0-0.1s0,0,0.1-0.1s0.3-0.1,0.5-0.2l0,0c0.2-0.1,0.4-0.2,0.6-0.3c0.1-0.1,0.3-0.2,0.4-0.3c1.3-0.9,3.3-2.5,5.4-5.4
						c0.1-0.2,0.2-0.3,0.3-0.5c0.2-0.3,0.4-0.6,0.6-1c0.1-0.2,0.2-0.4,0.3-0.6c0.5-1,0.9-2,1.2-3.2c0.1-0.5,0.3-1.1,0.4-1.8
						c0-0.3,0.1-0.5,0.1-0.8c0,0,0-0.1,0-0.2c0.1-0.5,0.1-0.9,0.2-1.5c0.2-2.3,0.2-5.2,0-8.7c0-0.4,0-0.8-0.1-1.3c0-0.2,0-0.4,0-0.7
						v-0.4l0,0c0-0.1,0-0.2,0-0.3s0-0.3,0-0.5c0-0.1,0-0.1,0-0.2c0-0.1,0-0.3,0-0.5c0-0.3,0-0.6-0.1-1c0-0.3,0-0.5-0.1-0.8
						c0-0.2,0-0.4,0-0.6c0-0.3,0-0.6-0.1-0.9c0-0.5-0.1-1.1-0.1-1.6c0-0.1,0-0.3,0-0.4c0-0.1,0-0.2,0-0.3l0,0c0-0.1,0-0.2,0-0.2
						c0-0.2,0-0.4-0.1-0.6c0-0.2,0-0.4,0-0.6c0-0.2,0-0.4,0-0.6c0-0.2,0-0.4-0.1-0.6c0-0.2,0-0.4-0.1-0.6c0-0.2,0-0.3-0.1-0.5l0,0
						c0-0.1,0-0.3,0-0.4v-0.1c0-0.2,0-0.4-0.1-0.6c0-0.2,0-0.4-0.1-0.6c0-0.2,0-0.4-0.1-0.6c0-0.2,0-0.4-0.1-0.6
						c0-0.2,0-0.4-0.1-0.6c0-0.2,0-0.3,0-0.5l0,0c0.9,0.2,1.8,0.5,2.6,0.8c0.6,0.2,1.2,0.5,1.8,0.8c0.5,0.2,0.9,0.4,1.4,0.7
						c0.4,0.2,0.8,0.4,1.1,0.6c0.3,0.2,0.6,0.4,0.9,0.6c0.3,0.2,0.5,0.4,0.8,0.6c0.2,0.2,0.5,0.4,0.7,0.6l0,0
						c0.2,0.2,0.4,0.4,0.6,0.6c0.2,0.2,0.4,0.4,0.5,0.6c0.2,0.2,0.3,0.4,0.4,0.6c0.1,0.2,0.3,0.4,0.4,0.6c0.1,0.2,0.2,0.4,0.3,0.6
						l0,0c0.1,0.2,0.2,0.4,0.3,0.6l0,0c0.1,0.2,0.2,0.4,0.2,0.6c0.1,0.2,0.1,0.4,0.2,0.5c0.1,0.2,0.1,0.4,0.2,0.6
						c0,0.2,0.1,0.4,0.1,0.5s0,0.3,0.1,0.4c0,0,0,0.1,0,0.2v0.1c0.1,0.8,0.1,1.7,0.1,2.6c0,0.2,0,0.4,0,0.6
						c-0.1,0.8-0.2,1.7-0.4,2.6c-0.9,4.3-3,8.8-4.3,12.8l0,0c-0.5,1.5-0.9,3-1.1,4.4c-0.1,0.9-0.1,2,0.1,3.3
						C133.2,251.1,141.4,268.5,144.7,272.7z"/>
					<path class="st0" d="M210.2,110c-2.4-0.4-5.7,0.6-8.8,2.5c0.2-8.6,0.4-17.8,0.5-27.4c0.5-34.4-35.7-51.5-65.7-47.9
						c-37.4,4.4-62.7,19.6-61.9,50.1c0.2,8,0.7,19.3,1.5,31.8c-4.1-2.4-8.5-3.5-11.4-2.5c-7.4,2.4-8.1,11.5-4.1,23.5
						c4.1,12.1,12.7,20.2,19.4,18.2c1.8,12.6,3.9,19.8,7.3,28.1c5.8,14.1,31,34.9,51.8,34.9c25.3,0,50.7-26.9,54.1-38.4
						c2.9-9.8,5-16.6,6.3-29.7c0.2,0.1,0.5,0.2,0.7,0.2c7,1.3,14.7-8,17.2-20.7C219.7,120.3,217.8,111.4,210.2,110z"/>
					<path class="st10" d="M104.4,200.2c-4.8-5.8-10.9-15.3-12.6-22.6c-2.1-8.4-8.5-22.6-8.5-22.6s-16.3-2.8-18.7-16.9
						c-0.3-1.6-4.3-16.9-4.5-18.5c-3.1,4.1-2.8,11.5,0.3,20.5c4.1,12.1,12.7,20.2,19.4,18.2c1.8,12.6,3.9,19.8,7.3,28.1
						c5.2,12.5,25.7,30.4,44.8,34.1C121.3,215.4,111.8,209.2,104.4,200.2z"/>
					<path class="st10" d="M201.8,94.3c-3.7-10.2-2.4-20-11.2-22.4c-5.7-1.5-31.8,21.1-37.5,19.4c-12.7-3.6-23.3-8.2-33.4-16.8
						c-3.1-2.6-8.8-7.3-12.7-3.4c-2.5,2.5-8.6-2.8-10,0.4c-3.3,7.6-8-2.1-13.3,4.4c-1.6,2-4,13.1-5.9,14.8
						c-2.9,2.6,4.7,23.9,5.1,27.4c0.5,5.6,0.4,11.2,0.3,16.8c0.3-0.3,2.6,2.8,2.9,2.4c4.7-5.8,3.6-17.3,2.3-24.4
						C85.5,98.1,97,86.4,97,86.4s5.1,6.2,13.4,9.9c11.2,5.1,25.6,8.4,39,9.1c17.5,0.9,34.5-11.6,38.1-7.5c3.6,4.2,0.8,28.8,0.8,28.8
						S204.4,101.6,201.8,94.3z"/>
					<path class="st11" d="M99,81.3c0,0-0.1-25.2-8.2-37.2c-5.9-7.3-22.5,20.1-22.5,20.1s-10.4,16.4-2.8,53.1
						c17-2.2,17.2,12.3,18.2,21.8c1.7-1.8,4.8-4.8,4.8-4.8s-5.4-12.3-4.9-28.4C86.1,82.8,99,81.3,99,81.3z"/>
					<path class="st11" d="M191.6,82.2c0,0,5.1,19.4,1.5,30.7c-1.6,9.1-4.1,16.6-4.1,16.6l5.3,5.1c0.4-7.7,0.1-21.7,14.3-24.7
						c3.6-9.6-4.3-40.3-4.3-40.3L191.6,82.2z"/>
					<path class="st11" d="M116.4,113.9c-0.5,0.8-4.7-1.8-9.3-1.3c-8.4,0.9-11.6,6.1-11.6,6.1s1.4-9.6,11.6-11.3
						c5.7-1,8.9,0.2,9.9,1.2C118.1,109.6,117,113.1,116.4,113.9z"/>
					<path class="st12" d="M118.5,176.4c2.2,27.6,37.4,27.1,37.4,0H118.5z"/>
					<path class="st13" d="M78.8,333.6c-2.2,8.2-5.1,17.6-9.9,24.7c-1.4,2-2.9,4.9-5.2,6c-4.9,2.5-3.1,5.5,0,8.6
						c13,12.9,6.9,31.4,10.3,47.8c2,9.6,4.4,19.2,6.7,28.6c2,7.7,5.6,14.2,10.1,20.4c-3.4-17.8-15.5-82.6-13.3-104.3
						c2.9-28,13.3-56.6,13.3-56.6s0-4.4-0.3-10.6c-1.2,2.9-2.5,5.8-3.6,8.7C83.6,315.6,81.3,324.6,78.8,333.6z"/>
					<path class="st14" d="M137.2,155.9c-4.7,0-8.7-2-9.7-4.8c-0.2,0.5-0.3,0.9-0.3,1.4c0,3.4,4.5,6.2,10,6.2s10-2.8,10-6.2
						c0-0.5-0.1-0.9-0.3-1.4C145.8,153.8,141.9,155.9,137.2,155.9z"/>
					<path class="st10" d="M114.2,125.3c0,3.3-2.7,6-6,6s-6-2.7-6-6s2.7-6,6-6C111.5,119.2,114.2,121.9,114.2,125.3z"/>
					<path class="st15" d="M116.4,126.7c0,3.3-2.7,6-6,6s-6-2.7-6-6s2.7-6,6-6C113.7,120.7,116.4,123.4,116.4,126.7z"/>
					<path class="st11" d="M156.3,113.9c0.5,0.8,4.7-1.8,9.3-1.3c8.4,0.9,11.6,6.1,11.6,6.1s-1.4-9.6-11.6-11.3
						c-5.7-1-8.9,0.2-9.9,1.2C154.7,109.6,155.8,113.1,156.3,113.9z"/>
					<path class="st10" d="M158.6,125.3c0,3.3,2.7,6,6,6s6-2.7,6-6s-2.7-6-6-6C161.3,119.2,158.6,121.9,158.6,125.3z"/>
					<path class="st15" d="M156.3,126.7c0,3.3,2.7,6,6,6s6-2.7,6-6s-2.7-6-6-6S156.3,123.4,156.3,126.7z"/>
					<path class="st16" d="M205.8,58.6c0,27.5-15.2,41.5-58.6,41.5c-29.7,0-48.1-18.8-48.1-18.8l-8.2-37.2c0,0-1-7.3,11.3-10.9
						c6.7-1.9,32.7-6.9,53.2-0.8C177.3,10,205.8,34.2,205.8,58.6z"/>
					<polygon class="st11" points="193.5,138.1 187.7,132.8 188.5,130.3 193.5,135.6 					"/>
					<polygon class="st11" points="83.9,143.1 90.2,137.7 89.4,135.2 83.9,140.6 					"/>
					<path class="st1" d="M118.5,176.3c2.2,22.3,37.3,21.9,37.3,0H118.5z"/>
				</g>
			</g>
			<path class="st0" d="M228.4,477.2l-17-2.4c0,0,10-84.7,5.4-109.7c-5.1-27.7-17.9-55.3-17.9-55.3s-6.9-55.1,6.3-49.7
				S238,327,241.8,365.6C244.7,395.3,228.4,477.2,228.4,477.2z"/>
			<path class="st0" d="M75,478.1l16.8-3.8c0,0-16.8-83.6-14.2-108.9c2.9-28,13.3-56.6,13.3-56.6s1.3-55.2-11.3-48.7
				c-12.7,6.5-26.2,69.1-26.9,107.8C52.2,397.7,75,478.1,75,478.1z"/>
		</g>
		<path class="st1" d="M199.4,115.2c0,0-13.8,16.4-15.5,38.8c-1.6,22.4,0.2,4,0.2,4l1.2-2.1C185.4,156,182.4,149.2,199.4,115.2z"/>
		<path class="st1" d="M97.6,155.9c5.1,7-11.1-28.9-18.3-35.9c-0.8-0.8-1.4,0-1.4,0l0.5,0.6C78.4,120.7,95.2,152.7,97.6,155.9z"/>
		<path class="st1" d="M199.3,153.2c0,0-8.3,33.8-10.3,37.3s1,1.1,1,1.1S200.9,158.9,199.3,153.2z"/>
		<path class="st1" d="M79.7,158.3c0,0,7.4,30.8,10,31.9c2.5,1.1-2.5,2.2-2.5,2.2S79.4,166.7,79.7,158.3z"/>
		<g>
			<g>
				<g>
					<g>
						<g>
							<g>
								<path class="st7" d="M190.6,160.5c0-2.6-35.2-24.8-51.9-24.8S86.8,158,86.8,160.5c0,2.6,3.7,13.2,3.7,18s-3.7,15.4-3.7,18
									s35.2,24.8,51.9,24.8s51.9-22.2,51.9-24.8s-3.7-13.2-3.7-18S190.6,163.1,190.6,160.5z"/>
							</g>
						</g>
						<g class="st17">
							<g>
								<g>
									<path class="st1" d="M91.2,197.1c-0.1,0-0.1,0-0.2-0.1c-0.5-0.4-0.9-0.7-1.2-1c-0.1-0.1-0.1-0.2-0.1-0.2
										c0.1-0.4,0.2-0.8,0.3-1.4c0-0.2,0.2-0.3,0.4-0.2c0.2,0,0.3,0.2,0.2,0.3c-0.1,0.5-0.2,0.9-0.3,1.2c0.3,0.2,0.6,0.5,1,0.8
										c0.1,0.1,0.1,0.3,0,0.4C91.3,197,91.2,197.1,91.2,197.1z"/>
								</g>
							</g>
							<g>
								<g>
									<path class="st1" d="M91.8,188.4c-0.2,0-0.3,0.1-0.4,0.2c-0.2,0.7-0.3,1.3-0.5,1.9l-0.2,0.9c0,0.1,0.1,0.3,0.2,0.3
										c0,0,0,0,0.1,0s0.3-0.1,0.3-0.2l0.2-0.9c0.2-0.6,0.3-1.3,0.5-1.9C92.1,188.6,92,188.4,91.8,188.4z M93.1,182.6
										c-0.2,0-0.3,0.1-0.4,0.2c-0.2,0.9-0.4,1.8-0.6,2.9c0,0.2,0.1,0.3,0.2,0.4h0.1c0.1,0,0.3-0.1,0.3-0.2c0.3-1.1,0.4-2,0.6-2.9
										C93.4,182.8,93.3,182.7,93.1,182.6z M93.8,177c0-0.2-0.2-0.3-0.3-0.3c-0.2,0-0.3,0.2-0.3,0.3c0,0.5,0.1,1,0.1,1.4
										s0,0.9-0.1,1.5c0,0.2,0.1,0.3,0.3,0.3l0,0c0.2,0,0.3-0.1,0.3-0.3c0-0.5,0.1-1,0.1-1.5C93.9,178.1,93.9,177.6,93.8,177z
										 M92.8,171.2c0-0.1-0.2-0.3-0.4-0.2c-0.2,0-0.3,0.2-0.2,0.3c0.3,1.1,0.5,2,0.6,2.9c0,0.1,0.2,0.2,0.3,0.2l0,0
										c0.2,0,0.3-0.2,0.3-0.3C93.2,173.2,93,172.3,92.8,171.2z M91.6,166.3l-0.2-0.9c0-0.1-0.2-0.2-0.4-0.2
										c-0.2,0-0.3,0.2-0.2,0.4l0.2,0.9c0.2,0.6,0.3,1.3,0.5,2c0,0.1,0.2,0.2,0.3,0.2h0.1c0.2,0,0.3-0.2,0.2-0.4
										C91.9,167.6,91.7,167,91.6,166.3z"/>
								</g>
							</g>
							<g>
								<g>
									<path class="st1" d="M90.3,162.9c-0.1,0-0.3-0.1-0.3-0.2c-0.1-0.6-0.2-1.1-0.3-1.4c0-0.1,0-0.2,0.1-0.2
										c0.3-0.3,0.7-0.6,1.2-1c0.1-0.1,0.3-0.1,0.4,0s0.1,0.3,0,0.4c-0.4,0.3-0.8,0.6-1,0.8c0.1,0.3,0.2,0.7,0.3,1.2
										C90.7,162.7,90.5,162.9,90.3,162.9C90.4,162.9,90.3,162.9,90.3,162.9z"/>
								</g>
							</g>
							<g>
								<g>
									<path class="st1" d="M96.3,156.7c-0.1-0.1-0.3-0.2-0.4-0.1c-0.9,0.6-1.7,1.2-2.5,1.7c-0.1,0.1-0.2,0.3-0.1,0.4
										c0.1,0.1,0.2,0.1,0.3,0.1c0.1,0,0.1,0,0.2-0.1c0.8-0.5,1.6-1.1,2.5-1.7C96.3,157,96.4,156.8,96.3,156.7z M184.1,158.3
										L184.1,158.3c-0.2-0.1-0.3-0.3-0.5-0.4c-0.6-0.4-1.3-0.9-2-1.4c-0.1-0.1-0.3-0.1-0.4,0.1c-0.1,0.1-0.1,0.3,0.1,0.4
										c0.8,0.5,1.6,1.1,2.3,1.6l0.1,0.1c0,0,0.1,0.1,0.2,0.1c0.1,0,0.1,0,0.2-0.1c0,0,0,0,0.1,0
										C184.2,158.6,184.2,158.4,184.1,158.3z M101.4,153.5c-0.1-0.1-0.3-0.2-0.4-0.1c-0.9,0.5-1.7,1.1-2.6,1.6
										c-0.1,0.1-0.1,0.2-0.1,0.3c0,0,0,0,0,0.1l0,0c0.1,0.1,0.2,0.1,0.3,0.1c0.1,0,0.1,0,0.2,0c0.8-0.5,1.7-1.1,2.5-1.6
										C101.4,153.8,101.4,153.6,101.4,153.5z M179.1,155c-0.8-0.5-1.7-1.1-2.6-1.6c-0.1-0.1-0.3,0-0.4,0.1
										c-0.1,0.1,0,0.3,0.1,0.4c0.9,0.5,1.7,1.1,2.5,1.6c0.1,0,0.1,0,0.2,0c0.1,0,0.2,0,0.3-0.1
										C179.2,155.2,179.2,155.1,179.1,155z M106.6,150.5c-0.1-0.1-0.3-0.2-0.4-0.1c-0.9,0.5-1.8,1-2.6,1.5
										c-0.1,0.1-0.2,0.3-0.1,0.4c0.1,0.1,0.2,0.1,0.3,0.1c0,0,0.1,0,0.2,0c0.9-0.5,1.7-1,2.6-1.5
										C106.6,150.8,106.6,150.6,106.6,150.5z M173.9,151.9c-0.9-0.5-1.8-1-2.6-1.5c-0.1-0.1-0.3,0-0.4,0.1
										c-0.1,0.1,0,0.3,0.1,0.4c0.9,0.5,1.8,1,2.6,1.5c0,0,0.1,0.1,0.2,0.1c0.1,0,0.2-0.1,0.3-0.1
										C174.1,152.1,174,152,173.9,151.9z M111.9,147.7c-0.1-0.1-0.3-0.2-0.4-0.1c-0.7,0.3-1.3,0.7-2,1c-0.2,0.1-0.5,0.3-0.7,0.4
										c-0.1,0.1-0.2,0.3-0.1,0.4c0,0.1,0.2,0.1,0.3,0.1c0.1,0,0.1,0,0.2,0c0.2-0.1,0.5-0.3,0.7-0.4c0.7-0.3,1.3-0.7,2-1
										C111.9,148,112,147.8,111.9,147.7z M168.6,149c-0.2-0.1-0.5-0.3-0.7-0.4c-0.7-0.3-1.3-0.7-2-1c-0.2-0.1-0.3,0-0.4,0.1
										c-0.1,0.1,0,0.3,0.1,0.4c0.7,0.3,1.3,0.7,2,1c0.2,0.1,0.5,0.2,0.7,0.4c0,0,0.1,0,0.2,0c0.1,0,0.2-0.1,0.3-0.1
										C168.8,149.2,168.8,149,168.6,149z M117.3,145.1c-0.1-0.1-0.3-0.2-0.4-0.1c-0.9,0.4-1.8,0.8-2.7,1.3
										c-0.1,0.1-0.2,0.3-0.1,0.4c0.1,0.1,0.2,0.2,0.3,0.2h0.1c0.9-0.4,1.8-0.9,2.7-1.3C117.3,145.4,117.4,145.2,117.3,145.1z
										 M163.3,146.2c-0.9-0.5-1.8-0.9-2.7-1.3c-0.2-0.1-0.3,0-0.4,0.1c-0.1,0.1,0,0.3,0.1,0.4c0.9,0.4,1.8,0.8,2.7,1.3h0.1
										c0.1,0,0.2-0.1,0.3-0.2C163.5,146.5,163.4,146.3,163.3,146.2z M122.9,142.7c-0.1-0.1-0.3-0.2-0.4-0.1
										c-0.9,0.4-1.9,0.8-2.8,1.2c-0.2,0.1-0.2,0.2-0.2,0.4c0.1,0.1,0.2,0.2,0.3,0.2c0.1,0,0.1,0,0.1,0c0.9-0.4,1.9-0.8,2.8-1.2
										C122.9,143,122.9,142.8,122.9,142.7z M157.8,143.7c-1-0.4-1.9-0.8-2.8-1.2c-0.2-0.1-0.3,0-0.4,0.1c-0.1,0.1,0,0.3,0.2,0.4
										c0.9,0.4,1.8,0.8,2.8,1.2h0.1c0.1,0,0.2-0.1,0.3-0.2C158,143.9,157.9,143.8,157.8,143.7z M128.2,140.4
										c-0.9,0.3-1.9,0.6-2.9,1c-0.2,0.1-0.2,0.2-0.2,0.4c0,0.1,0.2,0.2,0.3,0.2h0.1c1-0.4,1.9-0.7,2.8-1c0.2-0.1,0.3-0.2,0.2-0.4
										C128.5,140.5,128.3,140.4,128.2,140.4z M152.1,141.4c-1-0.4-2-0.7-2.9-1c-0.2-0.1-0.3,0-0.4,0.2c-0.1,0.2,0,0.3,0.2,0.4
										c0.9,0.3,1.9,0.6,2.9,1h0.1c0.1,0,0.2-0.1,0.3-0.2C152.4,141.6,152.3,141.5,152.1,141.4z M134.1,138.9
										c-0.9,0.2-1.9,0.4-3,0.7c-0.2,0-0.3,0.2-0.2,0.4c0,0.1,0.2,0.2,0.3,0.2c0,0,0,0,0.1,0c1-0.3,2-0.5,2.9-0.7
										c0.2,0,0.3-0.2,0.2-0.3C134.4,138.9,134.3,138.8,134.1,138.9z M146.3,139.6c-1-0.3-2-0.5-3-0.7c-0.2,0-0.3,0.1-0.4,0.2
										c0,0.2,0.1,0.3,0.2,0.3c0.9,0.2,1.9,0.4,3,0.7h0.1c0.1,0,0.3-0.1,0.3-0.2C146.6,139.8,146.5,139.6,146.3,139.6z
										 M140.3,138.4c-0.5,0-1.1-0.1-1.5-0.1c-0.5,0-1,0-1.6,0.1c-0.2,0-0.3,0.2-0.3,0.3s0.2,0.3,0.3,0.3l0,0c0.5,0,1-0.1,1.5-0.1
										s1,0,1.5,0.1c0.2,0,0.3-0.1,0.3-0.3C140.6,138.6,140.4,138.4,140.3,138.4z"/>
								</g>
							</g>
							<g>
								<g>
									<path class="st1" d="M187.1,162.9L187.1,162.9c-0.2,0-0.3-0.2-0.3-0.3c0.1-0.5,0.2-0.9,0.3-1.2c-0.3-0.2-0.6-0.5-1-0.8
										c-0.1-0.1-0.1-0.3,0-0.4c0.1-0.1,0.3-0.1,0.4,0c0.5,0.4,0.9,0.7,1.2,1c0.1,0.1,0.1,0.2,0.1,0.2c-0.1,0.4-0.2,0.8-0.3,1.4
										C187.4,162.8,187.3,162.9,187.1,162.9z"/>
								</g>
							</g>
							<g>
								<g>
									<path class="st1" d="M186.4,190.3c-0.2-0.6-0.3-1.1-0.4-1.7c0-0.2-0.2-0.3-0.4-0.2c-0.2,0-0.3,0.2-0.2,0.4
										c0.1,0.6,0.3,1.1,0.4,1.7l0.3,1.1c0,0.1,0.2,0.2,0.3,0.2c0,0,0,0,0.1,0c0.2,0,0.3-0.2,0.2-0.3L186.4,190.3z M184.6,182.9
										c0-0.2-0.2-0.3-0.4-0.2c-0.2,0-0.3,0.2-0.3,0.3c0.2,0.9,0.4,1.8,0.6,2.9c0,0.1,0.2,0.2,0.3,0.2c0,0,0,0,0.1,0
										c0.2,0,0.3-0.2,0.2-0.3C185,184.7,184.8,183.7,184.6,182.9z M184.2,177.1c0-0.2-0.1-0.3-0.3-0.3s-0.3,0.1-0.3,0.3
										c0,0.5-0.1,1-0.1,1.5s0,1,0.1,1.5c0,0.2,0.2,0.3,0.3,0.3l0,0c0.2,0,0.3-0.1,0.3-0.3c-0.1-0.5-0.1-1-0.1-1.5
										C184.1,178.1,184.2,177.6,184.2,177.1z M185,171c-0.2,0-0.3,0.1-0.4,0.2c-0.3,1.1-0.5,2-0.6,2.9c0,0.1,0.1,0.3,0.3,0.3h0.1
										c0.1,0,0.3-0.1,0.3-0.2c0.2-0.9,0.4-1.8,0.6-2.9C185.3,171.2,185.2,171,185,171z M186.5,165.2c-0.2,0-0.3,0.1-0.4,0.2
										l-0.3,1c-0.2,0.6-0.3,1.3-0.5,1.9c0,0.2,0.1,0.3,0.2,0.4c0,0,0,0,0.1,0s0.3-0.1,0.3-0.2c0.2-0.6,0.3-1.3,0.5-1.9l0.3-1
										C186.7,165.4,186.6,165.3,186.5,165.2z"/>
								</g>
							</g>
							<g>
								<g>
									<path class="st1" d="M186.3,197.1c-0.1,0-0.2,0-0.2-0.1c-0.1-0.1-0.1-0.3,0-0.4c0.4-0.3,0.8-0.6,1-0.8
										c-0.1-0.3-0.2-0.7-0.3-1.2c0-0.2,0.1-0.3,0.2-0.3c0.2,0,0.3,0.1,0.4,0.2c0.1,0.6,0.2,1.1,0.3,1.4c0,0.1,0,0.2-0.1,0.2
										C187.3,196.4,186.9,196.7,186.3,197.1C186.4,197.1,186.3,197.1,186.3,197.1z"/>
								</g>
							</g>
							<g>
								<g>
									<path class="st1" d="M140.2,218.1c-0.5,0-1,0.1-1.5,0.1c-0.3,0-0.7,0-1,0c-0.2,0-0.3,0-0.5,0s-0.3,0.1-0.3,0.3
										s0.1,0.3,0.3,0.3s0.3,0,0.5,0c0.4,0,0.7,0,1.1,0c0.5,0,1,0,1.6-0.1c0.2,0,0.3-0.2,0.3-0.3
										C140.5,218.2,140.4,218.1,140.2,218.1z M134.2,217.6c-0.9-0.2-1.9-0.4-2.9-0.7c-0.2,0-0.3,0-0.4,0.2c0,0.2,0,0.3,0.2,0.4
										c1,0.3,2,0.5,3,0.7h0.1c0.1,0,0.3-0.1,0.3-0.2C134.5,217.8,134.4,217.7,134.2,217.6z M146.1,216.9c-1,0.3-2,0.5-2.9,0.7
										c-0.2,0-0.3,0.2-0.2,0.3c0,0.1,0.2,0.2,0.3,0.2h0.1c0.9-0.2,2-0.4,3-0.7c0.2-0.1,0.3-0.2,0.2-0.4
										C146.5,217,146.3,216.9,146.1,216.9z M128.4,216.1c-0.8-0.2-1.6-0.5-2.4-0.8l0,0c-0.2,0-0.3-0.1-0.5-0.2
										c-0.2-0.1-0.3,0-0.4,0.2s0,0.3,0.2,0.4c0.3,0.1,0.5,0.2,0.8,0.3l0,0c0.7,0.3,1.4,0.5,2.1,0.7h0.1c0.1,0,0.2-0.1,0.3-0.2
										C128.6,216.3,128.5,216.1,128.4,216.1z M151.9,215.1c-1,0.4-1.9,0.7-2.9,1c-0.2,0.1-0.3,0.2-0.2,0.4c0,0.1,0.2,0.2,0.3,0.2
										h0.1c0.9-0.3,1.9-0.6,2.9-1c0.2-0.1,0.2-0.2,0.2-0.4S152.1,215,151.9,215.1z M122.7,214c-0.9-0.4-1.8-0.8-2.8-1.2
										c-0.2-0.1-0.3,0-0.4,0.1s0,0.3,0.1,0.4c1,0.4,1.9,0.8,2.8,1.2h0.1c0.1,0,0.2-0.1,0.3-0.2
										C122.9,214.3,122.9,214.1,122.7,214z M157.9,213c-0.1-0.1-0.3-0.2-0.4-0.1c-0.9,0.4-1.9,0.8-2.8,1.2
										c-0.2,0.1-0.2,0.2-0.2,0.4c0,0.1,0.2,0.2,0.3,0.2h0.1c0.9-0.4,1.8-0.8,2.8-1.2C157.9,213.3,158,213.1,157.9,213z
										 M117.2,211.6c-0.5-0.2-1-0.5-1.5-0.7l0,0c-0.4-0.2-0.8-0.4-1.2-0.6c-0.2-0.1-0.3,0-0.4,0.1s0,0.3,0.1,0.4
										c0.9,0.5,1.9,0.9,2.7,1.3h0.1c0.1,0,0.2,0,0.2-0.1c0,0,0,0,0.1-0.1C117.4,211.9,117.3,211.7,117.2,211.6z M163.4,210.5
										c-0.1-0.1-0.3-0.2-0.4-0.1c-0.9,0.5-1.8,0.9-2.7,1.3c-0.2,0.1-0.2,0.2-0.1,0.4c0,0.1,0.2,0.2,0.3,0.2h0.1
										c0.9-0.4,1.8-0.8,2.7-1.3C163.4,210.8,163.5,210.6,163.4,210.5z M111.8,209c-0.7-0.3-1.3-0.7-2-1c-0.2-0.1-0.5-0.2-0.7-0.4
										c-0.1-0.1-0.3,0-0.4,0.1s0,0.3,0.1,0.4c0.2,0.1,0.5,0.3,0.7,0.4c0.7,0.4,1.3,0.7,2,1h0.1c0.1,0,0.2-0.1,0.3-0.1
										C112,209.2,111.9,209.1,111.8,209z M168.8,207.7c-0.1-0.1-0.3-0.2-0.4-0.1c-0.2,0.1-0.5,0.3-0.7,0.4c-0.7,0.4-1.3,0.7-2,1
										c-0.1,0.1-0.2,0.3-0.1,0.4c0.1,0.1,0.2,0.1,0.3,0.1c0,0,0.1,0,0.2,0c0.6-0.3,1.3-0.7,2-1c0.2-0.1,0.5-0.3,0.7-0.4
										C168.8,208,168.8,207.8,168.8,207.7z M106.5,206.2c-0.9-0.5-1.8-1-2.6-1.5c-0.1-0.1-0.3,0-0.4,0.1s0,0.3,0.1,0.4
										c0.9,0.5,1.7,1,2.6,1.5h0.1c0.1,0,0.2,0,0.3-0.1C106.7,206.4,106.6,206.3,106.5,206.2z M174,204.8
										c-0.1-0.1-0.3-0.2-0.4-0.1c-0.9,0.5-1.7,1-2.6,1.5c-0.1,0.1-0.2,0.3-0.1,0.4c0.1,0.1,0.2,0.1,0.3,0.1s0.1,0,0.2,0
										c0.9-0.5,1.8-1,2.6-1.5C174.1,205.1,174.1,204.9,174,204.8z M101.3,203.2c-0.9-0.5-1.7-1-2.5-1.6c-0.1-0.1-0.2-0.1-0.3,0
										l0,0c0,0-0.1,0-0.1,0.1c-0.1,0.1-0.1,0.3,0.1,0.4c0.5,0.3,0.9,0.6,1.4,0.9l0,0l0,0l0,0c0.4,0.2,0.7,0.4,1.1,0.7
										c0,0,0.1,0,0.2,0s0.2,0,0.3-0.1C101.5,203.4,101.4,203.3,101.3,203.2z M179.1,201.7c-0.1-0.1-0.3-0.2-0.4-0.1
										c-0.8,0.5-1.7,1-2.5,1.6c-0.1,0.1-0.2,0.3-0.1,0.4c0.1,0.1,0.2,0.1,0.3,0.1s0.1,0,0.2,0c0.8-0.5,1.6-1,2.4-1.5l0.1-0.1
										c0.1,0,0.1-0.1,0.1-0.2C179.2,201.9,179.2,201.8,179.1,201.7z M96.2,200c-0.9-0.6-1.7-1.1-2.5-1.7
										c-0.1-0.1-0.3-0.1-0.4,0.1c-0.1,0.1-0.1,0.3,0.1,0.4c0.8,0.5,1.6,1.1,2.5,1.7c0.1,0,0.1,0,0.2,0s0.2,0,0.3-0.1
										C96.4,200.3,96.3,200.1,96.2,200z M184.1,198.4c-0.1-0.1-0.3-0.1-0.4-0.1c-0.8,0.5-1.6,1.1-2.5,1.7
										c-0.1,0.1-0.2,0.3-0.1,0.4c0.1,0.1,0.2,0.1,0.3,0.1s0.1,0,0.2,0c0.9-0.6,1.7-1.1,2.5-1.7
										C184.2,198.7,184.2,198.5,184.1,198.4z"/>
								</g>
							</g>
						</g>
						<g>
							<g>
								<path class="st18" d="M138.7,215.6c-5.5,0-15.3-3.5-26.9-9.5c-6.7-3.5-12.4-7-16-9.5c-1.5-1.1-2.2-2.9-1.8-4.6
									c0.1-0.2,0.1-0.4,0.2-0.7c1.1-4.4,2.4-9.4,2.4-12.8s-1.3-8.4-2.4-12.8c-0.1-0.2-0.1-0.4-0.2-0.7c-0.4-1.7,0.3-3.6,1.8-4.6
									c3.6-2.5,9.2-6,16-9.5c11.6-6,21.4-9.5,26.9-9.5s15.3,3.5,26.9,9.5c6.7,3.5,12.4,7,16,9.5c1.5,1.1,2.2,2.9,1.8,4.6
									c-0.1,0.2-0.1,0.4-0.2,0.7c-1.1,4.4-2.4,9.4-2.4,12.8s1.3,8.4,2.4,12.8c0.1,0.2,0.1,0.4,0.2,0.7c0.4,1.7-0.3,3.6-1.8,4.6
									c-3.6,2.5-9.2,6-16,9.5C154,212.1,144.2,215.6,138.7,215.6z"/>
							</g>
						</g>
						<g>
							<g>
								<g>
									<path class="st19" d="M94.6,165.7c0.1,0.2,0.1,0.5,0.2,0.7c9.6-3.2,24.7-7,43.5-7.1c19.3-0.1,34.7,3.8,44.5,7.1
										c0,0,0.1-0.3,0.1-0.4c0-0.1,0.1-0.2,0.1-0.4l0.2-0.7c0.4-1.6-0.2-3.3-1.7-4.3c-2.1-1.4-7.8-5.2-15.9-9.5
										c-11.5-6-21.3-9.4-26.7-9.4c-5.5,0-15.2,3.4-26.7,9.4c-8.2,4.2-13.9,8-15.9,9.5c-1.4,1-2.1,2.7-1.7,4.3L94.6,165.7z"/>
								</g>
							</g>
							<g>
								<g>
									<path class="st20" d="M94.6,165.7c0.1,0.2,0.1,0.5,0.2,0.7c9.6-3.2,24.7-9.2,43.5-9.3c19.3-0.1,34.7,6,44.5,9.3
										c0,0,0.1-0.3,0.1-0.4c0-0.1,0.1-0.2,0.1-0.4l0.2-0.7c0.4-1.6-0.2-3.3-1.7-4.3c-2.1-1.4-7.8-5.2-15.9-9.5
										c-11.5-6-21.3-9.4-26.7-9.4c-5.5,0-15.2,3.4-26.7,9.4c-8.2,4.2-13.9,8-15.9,9.5c-1.4,1-2.1,2.7-1.7,4.3L94.6,165.7z"/>
								</g>
							</g>
						</g>
						<g>
							<g>
								<g>
									<path class="st21" d="M182.9,191.5c-0.1-0.2-0.1-0.5-0.2-0.7c-9.6,3.2-24.7,7-43.5,7.1c-19.3,0.1-34.7-3.8-44.5-7.1
										c0,0-0.1,0.3-0.1,0.4c0,0.1-0.1,0.2-0.1,0.4l-0.2,0.7c-0.4,1.6,0.2,3.3,1.7,4.3c2.1,1.4,7.8,5.2,15.9,9.5
										c11.5,6,21.3,9.4,26.7,9.4c5.5,0,15.2-3.4,26.7-9.4c8.2-4.2,13.9-8,15.9-9.5c1.4-1,2.1-2.7,1.7-4.3V191.5z"/>
								</g>
							</g>
							<g>
								<g>
									<path class="st22" d="M182.9,191.5c-0.1-0.2-0.1-0.5-0.2-0.7c-9.6,3.2-24.7,9.2-43.5,9.3c-19.3,0.1-34.7-6-44.5-9.3
										c0,0-0.1,0.3-0.1,0.4c0,0.1-0.1,0.2-0.1,0.4l-0.2,0.7c-0.4,1.6,0.2,3.3,1.7,4.3c2.1,1.4,7.8,5.2,15.9,9.5
										c11.5,6,21.3,9.4,26.7,9.4c5.5,0,15.2-3.4,26.7-9.4c8.2-4.2,13.9-8,15.9-9.5c1.4-1,2.1-2.7,1.7-4.3V191.5z"/>
								</g>
							</g>
						</g>
						<g class="st23">
							<g>
								<g>
									<path class="st24" d="M140.7,215.4c1.1-0.1,2.3-0.4,3.6-0.7c-1.9,0.1-3.7,0.1-5.6,0.1c-1.9,0-3.7,0-5.6-0.1
										c1.3,0.3,2.5,0.5,3.6,0.7c0.7,0,1.3,0,2,0C139.4,215.5,140,215.4,140.7,215.4z"/>
								</g>
							</g>
							<g>
								<g>
									<path class="st24" d="M146.9,214c0.8-0.2,1.5-0.5,2.3-0.8c-3.5,0.3-7,0.5-10.6,0.5s-7.1-0.2-10.6-0.5
										c0.8,0.3,1.6,0.5,2.3,0.8c2.7,0.2,5.5,0.3,8.2,0.3C141.5,214.3,144.2,214.2,146.9,214z"/>
								</g>
							</g>
							<g>
								<g>
									<path class="st24" d="M151.5,212.5c0.7-0.3,1.4-0.5,2.1-0.8c-4.9,0.7-9.8,1-14.9,1c-5.1,0-10-0.4-14.9-1
										c0.7,0.3,1.4,0.6,2.1,0.8c4.2,0.5,8.4,0.7,12.8,0.7C143,213.2,147.3,213,151.5,212.5z"/>
								</g>
							</g>
							<g>
								<g>
									<path class="st24" d="M155.7,210.8c0.7-0.3,1.4-0.6,2.1-0.9c-6.2,1.1-12.6,1.7-19.1,1.7s-12.9-0.6-19.1-1.7
										c0.7,0.3,1.4,0.6,2.1,0.9c5.5,0.9,11.2,1.3,17,1.3S150.2,211.7,155.7,210.8z"/>
								</g>
							</g>
							<g>
								<g>
									<path class="st24" d="M159.9,208.9c0.7-0.3,1.4-0.7,2.1-1c-7.5,1.7-15.3,2.6-23.3,2.6s-15.8-0.9-23.3-2.6
										c0.7,0.4,1.4,0.7,2.1,1c6.8,1.4,13.9,2.1,21.2,2.1S153.1,210.3,159.9,208.9z"/>
								</g>
							</g>
							<g>
								<g>
									<path class="st24" d="M164.2,206.8c0.5-0.2,0.9-0.5,1.4-0.7c0.3-0.2,0.6-0.3,0.9-0.5c-8.8,2.4-18.1,3.7-27.7,3.7
										c-9.6,0-18.9-1.3-27.7-3.7c0.3,0.2,0.6,0.3,0.9,0.5c0.5,0.2,0.9,0.5,1.4,0.7c8.1,2,16.7,3.1,25.5,3.1
										C147.5,209.9,156.1,208.8,164.2,206.8z"/>
								</g>
							</g>
							<g>
								<g>
									<path class="st24" d="M168.8,204.4c0.8-0.5,1.6-0.9,2.4-1.4c-10.2,3.4-21.1,5.2-32.5,5.2s-22.3-1.8-32.5-5.2
										c0.8,0.4,1.6,0.9,2.4,1.4c9.5,2.9,19.6,4.4,30.1,4.4C149.2,208.8,159.3,207.2,168.8,204.4z"/>
								</g>
							</g>
							<g>
								<g>
									<path class="st24" d="M173.8,201.5c0.9-0.6,1.9-1.1,2.7-1.6c-11.6,4.6-24.4,7.2-37.8,7.2s-26.2-2.6-37.8-7.2
										c0.9,0.5,1.8,1.1,2.7,1.6c10.9,4,22.7,6.1,35,6.1C151.1,207.7,162.9,205.5,173.8,201.5z"/>
								</g>
							</g>
							<g>
								<g>
									<path class="st24" d="M179.3,198.1c0.8-0.5,1.6-1,2.2-1.5c0.2-0.1,0.3-0.2,0.5-0.4c-13,6.2-27.7,9.8-43.3,9.8
										s-30.3-3.5-43.3-9.8c0.1,0.1,0.3,0.2,0.5,0.4c0.7,0.5,1.4,1,2.2,1.5c12.3,5.4,26.1,8.5,40.6,8.5
										C153.2,206.6,167,203.5,179.3,198.1z"/>
								</g>
							</g>
							<g>
								<g>
									<path class="st24" d="M182.9,195.2c0.2-0.3,0.3-0.5,0.4-0.8c-13.2,6.7-28.4,10.5-44.5,10.5s-31.3-3.8-44.5-10.5
										c0.1,0.3,0.2,0.6,0.4,0.8c13.2,6.5,28.2,10.3,44.2,10.3S169.7,201.7,182.9,195.2z"/>
								</g>
							</g>
							<g>
								<g>
									<path class="st24" d="M183.4,193.6c0-0.2,0-0.4,0-0.7c-13.3,6.9-28.5,10.8-44.8,10.8S107.2,199.9,94,193c0,0.2,0,0.4,0,0.7
										c13.3,6.8,28.5,10.7,44.7,10.7C154.9,204.3,170.2,200.5,183.4,193.6z"/>
								</g>
							</g>
							<g>
								<g>
									<path class="st24" d="M183.4,192.4c0-0.1,0-0.3-0.1-0.4c0-0.1,0-0.1,0-0.2c-13.2,6.9-28.4,10.9-44.6,10.9
										s-31.4-4-44.6-10.9c0,0.1,0,0.1,0,0.2c0,0.1-0.1,0.3-0.1,0.4c13.2,6.9,28.5,10.9,44.7,10.9
										C154.9,203.2,170.2,199.3,183.4,192.4z"/>
								</g>
							</g>
							<g>
								<g>
									<path class="st24" d="M183.1,191.2c0-0.2-0.1-0.4-0.1-0.6c-13.1,6.9-28.2,10.9-44.3,10.9s-31.2-4-44.3-10.9
										c0,0.2-0.1,0.4-0.1,0.6c13.1,6.9,28.3,10.9,44.4,10.9S170,198.2,183.1,191.2z"/>
								</g>
							</g>
							<g>
								<g>
									<path class="st24" d="M182.9,190.1c0-0.2-0.1-0.4-0.1-0.6c-13,6.9-28,10.9-44,10.9s-31-4-44-10.9c0,0.2-0.1,0.4-0.1,0.6
										c13,6.9,28.1,10.9,44.1,10.9S169.8,197,182.9,190.1z"/>
								</g>
							</g>
							<g>
								<g>
									<path class="st24" d="M182.6,189c0-0.2-0.1-0.4-0.1-0.6c-12.9,6.9-27.8,10.9-43.7,10.9s-30.8-4-43.7-10.9
										c0,0.2-0.1,0.4-0.1,0.6c12.9,6.9,27.9,10.9,43.9,10.9C154.7,199.9,169.7,195.9,182.6,189z"/>
								</g>
							</g>
							<g>
								<g>
									<path class="st24" d="M182.3,187.9c0-0.2-0.1-0.4-0.1-0.6c-12.8,6.9-27.6,10.9-43.4,10.9s-30.7-4-43.4-10.9
										c0,0.2-0.1,0.4-0.1,0.6c12.8,6.9,27.7,10.9,43.6,10.9S169.5,194.8,182.3,187.9z"/>
								</g>
							</g>
							<g>
								<g>
									<path class="st24" d="M182,186.7c0-0.2-0.1-0.4-0.1-0.6c-12.7,7-27.4,11-43.2,11c-15.7,0-30.5-4-43.2-11
										c0,0.2-0.1,0.4-0.1,0.6c12.7,7,27.5,11,43.3,11S169.3,193.7,182,186.7z"/>
								</g>
							</g>
							<g>
								<g>
									<path class="st24" d="M181.7,185.6c0-0.2-0.1-0.4-0.1-0.6c-12.6,7-27.2,11-42.9,11s-30.3-4-42.9-11c0,0.2-0.1,0.4-0.1,0.6
										c12.6,7,27.3,11,43,11S169.1,192.5,181.7,185.6z"/>
								</g>
							</g>
							<g>
								<g>
									<path class="st24" d="M181.5,184.4c0-0.2-0.1-0.4-0.1-0.6c-12.5,7-27.1,11.1-42.7,11.1s-30.2-4-42.7-11.1
										c0,0.2-0.1,0.4-0.1,0.6c12.5,7,27.1,11,42.8,11C154.4,195.5,169,191.4,181.5,184.4z"/>
								</g>
							</g>
							<g>
								<g>
									<path class="st24" d="M181.3,183.3c0-0.2-0.1-0.4-0.1-0.6c-12.4,7.1-26.9,11.1-42.4,11.1s-30.1-4.1-42.4-11.1
										c0,0.2-0.1,0.4-0.1,0.6c12.4,7,27,11.1,42.6,11.1S168.9,190.3,181.3,183.3z"/>
								</g>
							</g>
							<g>
								<g>
									<path class="st24" d="M181.1,182.1c0-0.2-0.1-0.4-0.1-0.6c-12.3,7.1-26.8,11.2-42.3,11.2s-30-4.1-42.3-11.2
										c0,0.2-0.1,0.4-0.1,0.6c12.3,7.1,26.8,11.2,42.3,11.2C154.2,193.2,168.7,189.1,181.1,182.1z"/>
								</g>
							</g>
							<g>
								<g>
									<path class="st24" d="M180.9,180.8c0-0.2,0-0.4-0.1-0.6c-12.2,7.2-26.6,11.3-42.1,11.3s-29.9-4.2-42.1-11.3
										c0,0.2,0,0.4-0.1,0.6c12.2,7.1,26.7,11.3,42.2,11.3S168.7,188,180.9,180.8z"/>
								</g>
							</g>
							<g>
								<g>
									<path class="st24" d="M180.8,179.6c0-0.2,0-0.4,0-0.6c-12.1,7.3-26.6,11.5-42,11.5c-15.5,0-29.9-4.2-42-11.5
										c0,0.2,0,0.4,0,0.6c12.2,7.2,26.6,11.4,42.1,11.4C154.2,191,168.6,186.8,180.8,179.6z"/>
								</g>
							</g>
							<g>
								<g>
									<path class="st24" d="M138.7,189.3c-15.5,0-30-4.3-42.1-11.7c0,0.2,0,0.5,0,0.7c12.1,7.3,26.5,11.6,42,11.6
										s29.9-4.3,42-11.6c0-0.2,0-0.4,0-0.7C168.7,185,154.2,189.3,138.7,189.3z"/>
								</g>
							</g>
							<g>
								<g>
									<path class="st24" d="M180.8,176.9c0-0.2,0-0.5,0.1-0.7c-12,7.6-26.6,12-42.2,12s-30.1-4.4-42.2-12c0,0.2,0.1,0.5,0.1,0.7
										c12.1,7.5,26.5,11.9,42.1,11.9C154.3,188.8,168.8,184.4,180.8,176.9z"/>
								</g>
							</g>
							<g>
								<g>
									<path class="st24" d="M181,175.5c0-0.2,0.1-0.5,0.1-0.8c-12,7.8-26.6,12.4-42.4,12.4s-30.4-4.6-42.4-12.4
										c0,0.3,0.1,0.5,0.1,0.8c12,7.7,26.6,12.2,42.3,12.2C154.4,187.7,169,183.2,181,175.5z"/>
								</g>
							</g>
							<g>
								<g>
									<path class="st24" d="M181.2,174c0-0.3,0.1-0.5,0.1-0.8c-12,8.1-26.8,12.8-42.7,12.8s-30.7-4.8-42.7-12.8
										c0.1,0.3,0.1,0.5,0.1,0.8c12,7.9,26.7,12.6,42.5,12.6C154.5,186.6,169.2,181.9,181.2,174z"/>
								</g>
							</g>
							<g>
								<g>
									<path class="st24" d="M181.6,172.4c0.1-0.3,0.1-0.5,0.2-0.8c-12,8.4-26.9,13.3-43,13.3s-31-5-43-13.3
										c0.1,0.3,0.1,0.5,0.2,0.8c12,8.2,26.8,13.1,42.8,13.1C154.7,185.5,169.6,180.6,181.6,172.4z"/>
								</g>
							</g>
							<g>
								<g>
									<path class="st24" d="M181.9,170.7c0.1-0.3,0.1-0.6,0.2-0.8c-12,8.7-27,13.9-43.4,13.9s-31.4-5.2-43.4-13.9
										c0.1,0.3,0.1,0.6,0.2,0.8c12,8.5,27,13.6,43.2,13.6C155,184.3,169.9,179.3,181.9,170.7z"/>
								</g>
							</g>
							<g>
								<g>
									<path class="st24" d="M182.3,169c0.1-0.3,0.1-0.6,0.2-0.9c-12,9.1-27.2,14.5-43.8,14.5s-31.9-5.5-43.8-14.5
										c0.1,0.3,0.1,0.6,0.2,0.9c12,8.9,27.1,14.2,43.6,14.2C155.2,183.2,170.4,177.9,182.3,169z"/>
								</g>
							</g>
							<g>
								<g>
									<path class="st24" d="M182.8,167.2c0.1-0.3,0.2-0.6,0.2-0.9c-11.9,9.5-27.4,15.2-44.3,15.2s-32.4-5.7-44.3-15.2
										c0.1,0.3,0.2,0.6,0.2,0.9c11.9,9.3,27.3,14.9,44.1,14.9C155.5,182.1,170.8,176.5,182.8,167.2z"/>
								</g>
							</g>
							<g>
								<g>
									<path class="st24" d="M183.2,165.4c0-0.1,0.1-0.2,0.1-0.3c0-0.2,0.1-0.4,0.1-0.6c-11.9,9.9-27.5,15.9-44.7,15.9
										s-32.9-6-44.7-15.9c0,0.2,0.1,0.4,0.1,0.6c0,0.1,0.1,0.2,0.1,0.3c11.9,9.7,27.5,15.6,44.5,15.6
										C155.8,181,171.3,175.1,183.2,165.4z"/>
								</g>
							</g>
							<g>
								<g>
									<path class="st24" d="M183.5,163.7c0-0.2-0.1-0.5-0.1-0.7c-11.7,10.1-27.4,16.3-44.6,16.3s-32.9-6.2-44.6-16.3
										c-0.1,0.2-0.1,0.4-0.1,0.7c11.8,10,27.5,16.2,44.7,16.2S171.7,173.8,183.5,163.7z"/>
								</g>
							</g>
							<g>
								<g>
									<path class="st24" d="M183.2,162.5c-0.1-0.2-0.2-0.4-0.3-0.5c-11.6,10.1-27.1,16.3-44.2,16.3s-32.6-6.2-44.2-16.3
										c-0.1,0.2-0.2,0.4-0.3,0.5c11.7,10.1,27.3,16.3,44.5,16.3S171.5,172.6,183.2,162.5z"/>
								</g>
							</g>
							<g>
								<g>
									<path class="st24" d="M182.6,161.5c-0.1-0.2-0.2-0.3-0.4-0.4c-11.4,10-26.7,16.1-43.5,16.1s-32.1-6.1-43.5-16.1
										c-0.1,0.1-0.3,0.3-0.4,0.4c11.5,10,26.9,16.2,43.9,16.2S171.1,171.5,182.6,161.5z"/>
								</g>
							</g>
							<g>
								<g>
									<path class="st24" d="M181.8,160.6c-0.1-0.1-0.2-0.1-0.2-0.2c-0.1-0.1-0.2-0.1-0.2-0.2c-11.1,9.7-26.1,15.7-42.6,15.7
										s-31.5-6-42.6-15.7c-0.1,0.1-0.2,0.1-0.2,0.2c-0.1,0.1-0.2,0.1-0.2,0.2c11.2,9.9,26.4,15.9,43.1,15.9
										C155.4,176.6,170.5,170.5,181.8,160.6z"/>
								</g>
							</g>
							<g>
								<g>
									<path class="st24" d="M180.8,160c-0.2-0.1-0.3-0.2-0.5-0.3c-10.9,9.5-25.5,15.3-41.6,15.3s-30.7-5.8-41.6-15.3
										c-0.2,0.1-0.3,0.2-0.5,0.3c11,9.6,25.8,15.5,42.1,15.5C155,175.4,169.8,169.6,180.8,160z"/>
								</g>
							</g>
							<g>
								<g>
									<path class="st24" d="M179.8,159.3c-0.2-0.1-0.3-0.2-0.5-0.3c-10.7,9.2-24.9,14.8-40.6,14.8s-29.9-5.6-40.6-14.8
										c-0.2,0.1-0.3,0.2-0.5,0.3c10.8,9.3,25.2,15,41.1,15S169,168.6,179.8,159.3z"/>
								</g>
							</g>
							<g>
								<g>
									<path class="st24" d="M178.8,158.6c-0.2-0.1-0.3-0.2-0.5-0.3c-10.4,8.9-24.3,14.4-39.6,14.4s-29.2-5.4-39.6-14.4
										c-0.2,0.1-0.3,0.2-0.5,0.3c10.6,9,24.6,14.6,40.1,14.6S168.3,167.7,178.8,158.6z"/>
								</g>
							</g>
							<g>
								<g>
									<path class="st24" d="M177.8,158c-0.2-0.1-0.3-0.2-0.5-0.3c-10.2,8.6-23.7,13.9-38.6,13.9s-28.4-5.3-38.6-13.9
										c-0.2,0.1-0.3,0.2-0.5,0.3c10.3,8.8,24,14.1,39.1,14.1S167.5,166.8,177.8,158z"/>
								</g>
							</g>
							<g>
								<g>
									<path class="st24" d="M176.8,157.4c-0.2-0.1-0.3-0.2-0.5-0.3c-10,8.3-23.1,13.4-37.6,13.4c-14.4,0-27.6-5.1-37.6-13.4
										c-0.2,0.1-0.3,0.2-0.5,0.3c10.1,8.5,23.4,13.6,38.1,13.6C153.4,171,166.7,165.8,176.8,157.4z"/>
								</g>
							</g>
							<g>
								<g>
									<path class="st24" d="M175.8,156.7c-0.2-0.1-0.3-0.2-0.5-0.3c-9.7,8-22.5,12.9-36.5,12.9s-26.8-4.9-36.5-12.9
										c-0.2,0.1-0.3,0.2-0.5,0.3c9.8,8.2,22.8,13.2,37.1,13.2C152.9,169.9,165.9,164.9,175.8,156.7z"/>
								</g>
							</g>
							<g>
								<g>
									<path class="st24" d="M174.7,156.1c-0.2-0.1-0.3-0.2-0.5-0.3c-9.5,7.7-21.9,12.4-35.5,12.4s-26-4.7-35.5-12.4
										c-0.2,0.1-0.4,0.2-0.5,0.3c9.6,7.9,22.2,12.7,36,12.7S165.1,164,174.7,156.1z"/>
								</g>
							</g>
							<g>
								<g>
									<path class="st24" d="M173.7,155.5c-0.2-0.1-0.4-0.2-0.5-0.3c-9.2,7.4-21.3,12-34.4,12c-13.2,0-25.2-4.5-34.4-12
										c-0.2,0.1-0.4,0.2-0.5,0.3c9.4,7.6,21.6,12.2,35,12.2C152.1,167.7,164.3,163.1,173.7,155.5z"/>
								</g>
							</g>
							<g>
								<g>
									<path class="st24" d="M172.6,154.9c-0.2-0.1-0.4-0.2-0.5-0.3c-9,7.1-20.6,11.5-33.4,11.5c-12.7,0-24.4-4.3-33.4-11.5
										c-0.2,0.1-0.4,0.2-0.5,0.3c9.1,7.3,21,11.7,33.9,11.7C151.7,166.6,163.5,162.1,172.6,154.9z"/>
								</g>
							</g>
							<g>
								<g>
									<path class="st24" d="M171.6,154.2c-0.2-0.1-0.4-0.2-0.5-0.3c-8.7,6.8-20,11-32.3,11s-23.6-4.1-32.3-11
										c-0.2,0.1-0.4,0.2-0.5,0.3c8.9,7,20.3,11.2,32.8,11.2C151.2,165.4,162.7,161.2,171.6,154.2z"/>
								</g>
							</g>
							<g>
								<g>
									<path class="st24" d="M170.5,153.6c-0.2-0.1-0.4-0.2-0.5-0.3c-8.5,6.5-19.4,10.5-31.2,10.5c-11.9,0-22.7-3.9-31.2-10.5
										c-0.2,0.1-0.4,0.2-0.5,0.3c8.6,6.7,19.7,10.7,31.8,10.7C150.8,164.3,161.9,160.3,170.5,153.6z"/>
								</g>
							</g>
							<g>
								<g>
									<path class="st24" d="M169.4,153c-0.2-0.1-0.4-0.2-0.5-0.3c-8.2,6.2-18.7,9.9-30.1,9.9s-21.9-3.7-30.1-9.9
										c-0.2,0.1-0.4,0.2-0.5,0.3c8.4,6.4,19,10.2,30.7,10.2C150.3,163.2,161,159.4,169.4,153z"/>
								</g>
							</g>
							<g>
								<g>
									<path class="st24" d="M168.3,152.4c-0.2-0.1-0.4-0.2-0.6-0.3c-8,5.9-18.1,9.4-29,9.4c-11,0-21.1-3.5-29-9.4
										c-0.2,0.1-0.4,0.2-0.6,0.3c8.1,6.1,18.4,9.7,29.6,9.7C149.9,162.1,160.2,158.5,168.3,152.4z"/>
								</g>
							</g>
							<g>
								<g>
									<path class="st24" d="M167.2,151.8c-0.2-0.1-0.4-0.2-0.6-0.3c-7.7,5.6-17.4,8.9-27.9,8.9s-20.2-3.3-27.9-8.9
										c-0.2,0.1-0.4,0.2-0.6,0.3c7.8,5.7,17.7,9.2,28.5,9.2S159.3,157.6,167.2,151.8z"/>
								</g>
							</g>
							<g>
								<g>
									<path class="st24" d="M166.1,151.2c-0.2-0.1-0.3-0.2-0.5-0.2h-0.1c-7.4,5.3-16.7,8.4-26.8,8.4s-19.3-3.1-26.8-8.4h-0.1
										c-0.2,0.1-0.3,0.2-0.5,0.2c7.6,5.4,17.1,8.7,27.3,8.7C149,159.9,158.5,156.7,166.1,151.2z"/>
								</g>
							</g>
							<g>
								<g>
									<path class="st24" d="M164.9,150.6c-0.2-0.1-0.4-0.2-0.6-0.3c-7.2,5-16,7.9-25.6,7.9s-18.5-2.9-25.6-7.9
										c-0.2,0.1-0.4,0.2-0.6,0.3c7.3,5.1,16.4,8.1,26.2,8.1C148.5,158.8,157.6,155.7,164.9,150.6z"/>
								</g>
							</g>
							<g>
								<g>
									<path class="st24" d="M163.8,150c-0.2-0.1-0.4-0.2-0.6-0.3c-6.9,4.6-15.3,7.4-24.5,7.4c-9.1,0-17.6-2.7-24.5-7.4
										c-0.2,0.1-0.4,0.2-0.6,0.3c7,4.8,15.7,7.6,25.1,7.6C148.1,157.7,156.7,154.8,163.8,150z"/>
								</g>
							</g>
							<g>
								<g>
									<path class="st24" d="M162.6,149.5c-0.2-0.1-0.4-0.2-0.6-0.3c-6.6,4.3-14.6,6.8-23.3,6.8s-16.7-2.5-23.3-6.8
										c-0.2,0.1-0.4,0.2-0.6,0.3c6.7,4.5,15,7.1,23.9,7.1S155.9,153.9,162.6,149.5z"/>
								</g>
							</g>
							<g>
								<g>
									<path class="st24" d="M161.4,148.9c-0.2-0.1-0.4-0.2-0.6-0.3c-6.3,4-13.9,6.3-22.1,6.3c-8.2,0-15.8-2.3-22.1-6.3
										c-0.2,0.1-0.4,0.2-0.6,0.3c6.5,4.1,14.3,6.6,22.7,6.6C147.1,155.4,155,153,161.4,148.9z"/>
								</g>
							</g>
							<g>
								<g>
									<path class="st24" d="M160.2,148.3c-0.2-0.1-0.4-0.2-0.6-0.3c-6,3.6-13.2,5.8-20.9,5.8s-14.9-2.1-20.9-5.8
										c-0.2,0.1-0.4,0.2-0.6,0.3c6.2,3.8,13.5,6,21.5,6S154,152.1,160.2,148.3z"/>
								</g>
							</g>
							<g>
								<g>
									<path class="st24" d="M159,147.7c-0.2-0.1-0.4-0.2-0.6-0.3c-5.7,3.3-12.4,5.2-19.6,5.2c-7.2,0-13.9-1.9-19.6-5.2
										c-0.2,0.1-0.4,0.2-0.6,0.3c5.9,3.5,12.8,5.5,20.3,5.5C146.2,153.2,153.1,151.2,159,147.7z"/>
								</g>
							</g>
							<g>
								<g>
									<path class="st24" d="M157.7,147.1c-0.2-0.1-0.4-0.2-0.6-0.3c-5.4,3-11.6,4.7-18.3,4.7s-13-1.7-18.3-4.7
										c-0.2,0.1-0.4,0.2-0.6,0.3c5.5,3.1,12,5,19,5C145.7,152.1,152.2,150.3,157.7,147.1z"/>
								</g>
							</g>
							<g>
								<g>
									<path class="st24" d="M156.4,146.6c-0.2-0.1-0.4-0.2-0.7-0.3c-5,2.6-10.8,4.2-17,4.2s-12-1.5-17-4.2
										c-0.2,0.1-0.4,0.2-0.7,0.3c5.2,2.8,11.2,4.4,17.7,4.4S151.2,149.4,156.4,146.6z"/>
								</g>
							</g>
							<g>
								<g>
									<path class="st24" d="M155.1,146c-0.2-0.1-0.5-0.2-0.7-0.3c-4.7,2.3-10,3.6-15.7,3.6s-11-1.3-15.7-3.6
										c-0.2,0.1-0.5,0.2-0.7,0.3c4.9,2.5,10.4,3.9,16.4,3.9C144.6,149.9,150.2,148.5,155.1,146z"/>
								</g>
							</g>
							<g>
								<g>
									<path class="st24" d="M153.7,145.4c-0.2-0.1-0.5-0.2-0.7-0.3c-4.3,2-9.1,3.1-14.2,3.1c-5.1,0-9.9-1.1-14.2-3.1
										c-0.2,0.1-0.5,0.2-0.7,0.3c4.5,2.1,9.6,3.4,15,3.4C144.1,148.8,149.2,147.6,153.7,145.4z"/>
								</g>
							</g>
							<g>
								<g>
									<path class="st24" d="M152.2,144.9c-0.3-0.1-0.5-0.2-0.8-0.3c-3.9,1.6-8.2,2.5-12.8,2.5c-4.5,0-8.9-0.9-12.8-2.5
										c-0.2,0.1-0.5,0.2-0.8,0.3c4.1,1.8,8.7,2.8,13.5,2.8C143.5,147.7,148.1,146.7,152.2,144.9z"/>
								</g>
							</g>
							<g>
								<g>
									<path class="st24" d="M150.7,144.3c-0.3-0.1-0.5-0.2-0.8-0.3c-3.5,1.3-7.2,2-11.2,2c-3.9,0-7.7-0.7-11.2-2
										c-0.3,0.1-0.5,0.2-0.8,0.3c3.7,1.5,7.7,2.3,12,2.3S147,145.7,150.7,144.3z"/>
								</g>
							</g>
							<g>
								<g>
									<path class="st24" d="M149,143.7c-0.3-0.1-0.6-0.2-0.9-0.3c-3,1-6.1,1.5-9.4,1.5c-3.3,0-6.5-0.5-9.4-1.5
										c-0.3,0.1-0.6,0.2-0.9,0.3c3.2,1.1,6.7,1.7,10.3,1.7C142.4,145.4,145.8,144.8,149,143.7z"/>
								</g>
							</g>
							<g>
								<g>
									<path class="st24" d="M147.2,143.1c-0.3-0.1-0.7-0.2-1-0.3c-2.4,0.6-4.9,1-7.5,1s-5.1-0.3-7.5-1c-0.3,0.1-0.7,0.2-1,0.3
										c2.7,0.8,5.5,1.2,8.5,1.2S144.5,143.9,147.2,143.1z"/>
								</g>
							</g>
							<g>
								<g>
									<path class="st24" d="M145.1,142.5c-0.4-0.1-0.9-0.2-1.3-0.3c-1.7,0.3-3.4,0.5-5.1,0.5s-3.5-0.2-5.1-0.5
										c-0.4,0.1-0.8,0.2-1.3,0.3c2.1,0.5,4.2,0.7,6.4,0.7C140.9,143.2,143.1,143,145.1,142.5z"/>
								</g>
							</g>
							<g>
								<g>
									<path class="st24" d="M142.3,141.9c-1-0.2-1.9-0.3-2.7-0.3c-0.3,0-0.6,0-0.9,0c-0.3,0-0.6,0-0.9,0c-0.8,0-1.7,0.2-2.7,0.3
										c1.2,0.2,2.4,0.2,3.6,0.2C139.9,142.1,141.1,142,142.3,141.9z"/>
								</g>
							</g>
						</g>
						<g class="st23">
							<g>
								<g>
									<path class="st24" d="M140.7,215.4c1.1-0.1,2.3-0.4,3.6-0.7c-1.9,0.1-3.7,0.1-5.6,0.1c-1.9,0-3.7,0-5.6-0.1
										c1.3,0.3,2.5,0.5,3.6,0.7c0.7,0,1.3,0,2,0C139.4,215.5,140,215.4,140.7,215.4z"/>
								</g>
							</g>
							<g>
								<g>
									<path class="st24" d="M146.9,214c0.8-0.2,1.5-0.5,2.3-0.8c-3.5,0.3-7,0.5-10.6,0.5s-7.1-0.2-10.6-0.5
										c0.8,0.3,1.6,0.5,2.3,0.8c2.7,0.2,5.5,0.3,8.2,0.3C141.5,214.3,144.2,214.2,146.9,214z"/>
								</g>
							</g>
							<g>
								<g>
									<path class="st24" d="M151.5,212.5c0.7-0.3,1.4-0.5,2.1-0.8c-4.9,0.7-9.8,1-14.9,1c-5.1,0-10-0.4-14.9-1
										c0.7,0.3,1.4,0.6,2.1,0.8c4.2,0.5,8.4,0.7,12.8,0.7C143,213.2,147.3,213,151.5,212.5z"/>
								</g>
							</g>
							<g>
								<g>
									<path class="st24" d="M155.7,210.8c0.7-0.3,1.4-0.6,2.1-0.9c-6.2,1.1-12.6,1.7-19.1,1.7s-12.9-0.6-19.1-1.7
										c0.7,0.3,1.4,0.6,2.1,0.9c5.5,0.9,11.2,1.3,17,1.3S150.2,211.7,155.7,210.8z"/>
								</g>
							</g>
							<g>
								<g>
									<path class="st24" d="M159.9,208.9c0.7-0.3,1.4-0.7,2.1-1c-7.5,1.7-15.3,2.6-23.3,2.6s-15.8-0.9-23.3-2.6
										c0.7,0.4,1.4,0.7,2.1,1c6.8,1.4,13.9,2.1,21.2,2.1S153.1,210.3,159.9,208.9z"/>
								</g>
							</g>
							<g>
								<g>
									<path class="st24" d="M164.2,206.8c0.5-0.2,0.9-0.5,1.4-0.7c0.3-0.2,0.6-0.3,0.9-0.5c-8.8,2.4-18.1,3.7-27.7,3.7
										c-9.6,0-18.9-1.3-27.7-3.7c0.3,0.2,0.6,0.3,0.9,0.5c0.5,0.2,0.9,0.5,1.4,0.7c8.1,2,16.7,3.1,25.5,3.1
										C147.5,209.9,156.1,208.8,164.2,206.8z"/>
								</g>
							</g>
							<g>
								<g>
									<path class="st24" d="M168.8,204.4c0.8-0.5,1.6-0.9,2.4-1.4c-10.2,3.4-21.1,5.2-32.5,5.2s-22.3-1.8-32.5-5.2
										c0.8,0.4,1.6,0.9,2.4,1.4c9.5,2.9,19.6,4.4,30.1,4.4C149.2,208.8,159.3,207.2,168.8,204.4z"/>
								</g>
							</g>
							<g>
								<g>
									<path class="st24" d="M173.8,201.5c0.9-0.6,1.9-1.1,2.7-1.6c-11.6,4.6-24.4,7.2-37.8,7.2s-26.2-2.6-37.8-7.2
										c0.9,0.5,1.8,1.1,2.7,1.6c10.9,4,22.7,6.1,35,6.1C151.1,207.7,162.9,205.5,173.8,201.5z"/>
								</g>
							</g>
							<g>
								<g>
									<path class="st24" d="M179.3,198.1c0.8-0.5,1.6-1,2.2-1.5c0.2-0.1,0.3-0.2,0.5-0.4c-13,6.2-27.7,9.8-43.3,9.8
										s-30.3-3.5-43.3-9.8c0.1,0.1,0.3,0.2,0.5,0.4c0.7,0.5,1.4,1,2.2,1.5c12.3,5.4,26.1,8.5,40.6,8.5
										C153.2,206.6,167,203.5,179.3,198.1z"/>
								</g>
							</g>
							<g>
								<g>
									<path class="st24" d="M182.9,195.2c0.2-0.3,0.3-0.5,0.4-0.8c-13.2,6.7-28.4,10.5-44.5,10.5s-31.3-3.8-44.5-10.5
										c0.1,0.3,0.2,0.6,0.4,0.8c13.2,6.5,28.2,10.3,44.2,10.3S169.7,201.7,182.9,195.2z"/>
								</g>
							</g>
							<g>
								<g>
									<path class="st24" d="M183.4,193.6c0-0.2,0-0.4,0-0.7c-13.3,6.9-28.5,10.8-44.8,10.8S107.2,199.9,94,193c0,0.2,0,0.4,0,0.7
										c13.3,6.8,28.5,10.7,44.7,10.7C154.9,204.3,170.2,200.5,183.4,193.6z"/>
								</g>
							</g>
							<g>
								<g>
									<path class="st24" d="M183.4,192.4c0-0.1,0-0.3-0.1-0.4c0-0.1,0-0.1,0-0.2c-13.2,6.9-28.4,10.9-44.6,10.9
										s-31.4-4-44.6-10.9c0,0.1,0,0.1,0,0.2c0,0.1-0.1,0.3-0.1,0.4c13.2,6.9,28.5,10.9,44.7,10.9
										C154.9,203.2,170.2,199.3,183.4,192.4z"/>
								</g>
							</g>
							<g>
								<g>
									<path class="st24" d="M183.1,191.2c0-0.2-0.1-0.4-0.1-0.6c-13.1,6.9-28.2,10.9-44.3,10.9s-31.2-4-44.3-10.9
										c0,0.2-0.1,0.4-0.1,0.6c13.1,6.9,28.3,10.9,44.4,10.9S170,198.2,183.1,191.2z"/>
								</g>
							</g>
							<g>
								<g>
									<path class="st24" d="M182.9,190.1c0-0.2-0.1-0.4-0.1-0.6c-13,6.9-28,10.9-44,10.9s-31-4-44-10.9c0,0.2-0.1,0.4-0.1,0.6
										c13,6.9,28.1,10.9,44.1,10.9S169.8,197,182.9,190.1z"/>
								</g>
							</g>
							<g>
								<g>
									<path class="st24" d="M182.6,189c0-0.2-0.1-0.4-0.1-0.6c-12.9,6.9-27.8,10.9-43.7,10.9s-30.8-4-43.7-10.9
										c0,0.2-0.1,0.4-0.1,0.6c12.9,6.9,27.9,10.9,43.9,10.9C154.7,199.9,169.7,195.9,182.6,189z"/>
								</g>
							</g>
							<g>
								<g>
									<path class="st24" d="M182.3,187.9c0-0.2-0.1-0.4-0.1-0.6c-12.8,6.9-27.6,10.9-43.4,10.9s-30.7-4-43.4-10.9
										c0,0.2-0.1,0.4-0.1,0.6c12.8,6.9,27.7,10.9,43.6,10.9S169.5,194.8,182.3,187.9z"/>
								</g>
							</g>
							<g>
								<g>
									<path class="st24" d="M182,186.7c0-0.2-0.1-0.4-0.1-0.6c-12.7,7-27.4,11-43.2,11c-15.7,0-30.5-4-43.2-11
										c0,0.2-0.1,0.4-0.1,0.6c12.7,7,27.5,11,43.3,11S169.3,193.7,182,186.7z"/>
								</g>
							</g>
							<g>
								<g>
									<path class="st24" d="M181.7,185.6c0-0.2-0.1-0.4-0.1-0.6c-12.6,7-27.2,11-42.9,11s-30.3-4-42.9-11c0,0.2-0.1,0.4-0.1,0.6
										c12.6,7,27.3,11,43,11S169.1,192.5,181.7,185.6z"/>
								</g>
							</g>
							<g>
								<g>
									<path class="st24" d="M181.5,184.4c0-0.2-0.1-0.4-0.1-0.6c-12.5,7-27.1,11.1-42.7,11.1s-30.2-4-42.7-11.1
										c0,0.2-0.1,0.4-0.1,0.6c12.5,7,27.1,11,42.8,11C154.4,195.5,169,191.4,181.5,184.4z"/>
								</g>
							</g>
							<g>
								<g>
									<path class="st24" d="M181.3,183.3c0-0.2-0.1-0.4-0.1-0.6c-12.4,7.1-26.9,11.1-42.4,11.1s-30.1-4.1-42.4-11.1
										c0,0.2-0.1,0.4-0.1,0.6c12.4,7,27,11.1,42.6,11.1S168.9,190.3,181.3,183.3z"/>
								</g>
							</g>
							<g>
								<g>
									<path class="st24" d="M181.1,182.1c0-0.2-0.1-0.4-0.1-0.6c-12.3,7.1-26.8,11.2-42.3,11.2s-30-4.1-42.3-11.2
										c0,0.2-0.1,0.4-0.1,0.6c12.3,7.1,26.8,11.2,42.3,11.2C154.2,193.2,168.7,189.1,181.1,182.1z"/>
								</g>
							</g>
							<g>
								<g>
									<path class="st24" d="M180.9,180.8c0-0.2,0-0.4-0.1-0.6c-12.2,7.2-26.6,11.3-42.1,11.3s-29.9-4.2-42.1-11.3
										c0,0.2,0,0.4-0.1,0.6c12.2,7.1,26.7,11.3,42.2,11.3S168.7,188,180.9,180.8z"/>
								</g>
							</g>
							<g>
								<g>
									<path class="st24" d="M180.8,179.6c0-0.2,0-0.4,0-0.6c-12.1,7.3-26.6,11.5-42,11.5c-15.5,0-29.9-4.2-42-11.5
										c0,0.2,0,0.4,0,0.6c12.2,7.2,26.6,11.4,42.1,11.4C154.2,191,168.6,186.8,180.8,179.6z"/>
								</g>
							</g>
							<g>
								<g>
									<path class="st24" d="M138.7,189.3c-15.5,0-30-4.3-42.1-11.7c0,0.2,0,0.5,0,0.7c12.1,7.3,26.5,11.6,42,11.6
										s29.9-4.3,42-11.6c0-0.2,0-0.4,0-0.7C168.7,185,154.2,189.3,138.7,189.3z"/>
								</g>
							</g>
							<g>
								<g>
									<path class="st24" d="M180.8,176.9c0-0.2,0-0.5,0.1-0.7c-12,7.6-26.6,12-42.2,12s-30.1-4.4-42.2-12c0,0.2,0.1,0.5,0.1,0.7
										c12.1,7.5,26.5,11.9,42.1,11.9C154.3,188.8,168.8,184.4,180.8,176.9z"/>
								</g>
							</g>
							<g>
								<g>
									<path class="st24" d="M181,175.5c0-0.2,0.1-0.5,0.1-0.8c-12,7.8-26.6,12.4-42.4,12.4s-30.4-4.6-42.4-12.4
										c0,0.3,0.1,0.5,0.1,0.8c12,7.7,26.6,12.2,42.3,12.2C154.4,187.7,169,183.2,181,175.5z"/>
								</g>
							</g>
							<g>
								<g>
									<path class="st24" d="M181.2,174c0-0.3,0.1-0.5,0.1-0.8c-12,8.1-26.8,12.8-42.7,12.8s-30.7-4.8-42.7-12.8
										c0.1,0.3,0.1,0.5,0.1,0.8c12,7.9,26.7,12.6,42.5,12.6C154.5,186.6,169.2,181.9,181.2,174z"/>
								</g>
							</g>
							<g>
								<g>
									<path class="st24" d="M181.6,172.4c0.1-0.3,0.1-0.5,0.2-0.8c-12,8.4-26.9,13.3-43,13.3s-31-5-43-13.3
										c0.1,0.3,0.1,0.5,0.2,0.8c12,8.2,26.8,13.1,42.8,13.1C154.7,185.5,169.6,180.6,181.6,172.4z"/>
								</g>
							</g>
							<g>
								<g>
									<path class="st24" d="M181.9,170.7c0.1-0.3,0.1-0.6,0.2-0.8c-12,8.7-27,13.9-43.4,13.9s-31.4-5.2-43.4-13.9
										c0.1,0.3,0.1,0.6,0.2,0.8c12,8.5,27,13.6,43.2,13.6C155,184.3,169.9,179.3,181.9,170.7z"/>
								</g>
							</g>
							<g>
								<g>
									<path class="st24" d="M182.3,169c0.1-0.3,0.1-0.6,0.2-0.9c-12,9.1-27.2,14.5-43.8,14.5s-31.9-5.5-43.8-14.5
										c0.1,0.3,0.1,0.6,0.2,0.9c12,8.9,27.1,14.2,43.6,14.2C155.2,183.2,170.4,177.9,182.3,169z"/>
								</g>
							</g>
							<g>
								<g>
									<path class="st24" d="M182.8,167.2c0.1-0.3,0.2-0.6,0.2-0.9c-11.9,9.5-27.4,15.2-44.3,15.2s-32.4-5.7-44.3-15.2
										c0.1,0.3,0.2,0.6,0.2,0.9c11.9,9.3,27.3,14.9,44.1,14.9C155.5,182.1,170.8,176.5,182.8,167.2z"/>
								</g>
							</g>
							<g>
								<g>
									<path class="st24" d="M183.2,165.4c0-0.1,0.1-0.2,0.1-0.3c0-0.2,0.1-0.4,0.1-0.6c-11.9,9.9-27.5,15.9-44.7,15.9
										s-32.9-6-44.7-15.9c0,0.2,0.1,0.4,0.1,0.6c0,0.1,0.1,0.2,0.1,0.3c11.9,9.7,27.5,15.6,44.5,15.6
										C155.8,181,171.3,175.1,183.2,165.4z"/>
								</g>
							</g>
							<g>
								<g>
									<path class="st24" d="M183.5,163.7c0-0.2-0.1-0.5-0.1-0.7c-11.7,10.1-27.4,16.3-44.6,16.3s-32.9-6.2-44.6-16.3
										c-0.1,0.2-0.1,0.4-0.1,0.7c11.8,10,27.5,16.2,44.7,16.2S171.7,173.8,183.5,163.7z"/>
								</g>
							</g>
							<g>
								<g>
									<path class="st24" d="M183.2,162.5c-0.1-0.2-0.2-0.4-0.3-0.5c-11.6,10.1-27.1,16.3-44.2,16.3s-32.6-6.2-44.2-16.3
										c-0.1,0.2-0.2,0.4-0.3,0.5c11.7,10.1,27.3,16.3,44.5,16.3S171.5,172.6,183.2,162.5z"/>
								</g>
							</g>
							<g>
								<g>
									<path class="st24" d="M182.6,161.5c-0.1-0.2-0.2-0.3-0.4-0.4c-11.4,10-26.7,16.1-43.5,16.1s-32.1-6.1-43.5-16.1
										c-0.1,0.1-0.3,0.3-0.4,0.4c11.5,10,26.9,16.2,43.9,16.2S171.1,171.5,182.6,161.5z"/>
								</g>
							</g>
							<g>
								<g>
									<path class="st24" d="M181.8,160.6c-0.1-0.1-0.2-0.1-0.2-0.2c-0.1-0.1-0.2-0.1-0.2-0.2c-11.1,9.7-26.1,15.7-42.6,15.7
										s-31.5-6-42.6-15.7c-0.1,0.1-0.2,0.1-0.2,0.2c-0.1,0.1-0.2,0.1-0.2,0.2c11.2,9.9,26.4,15.9,43.1,15.9
										C155.4,176.6,170.5,170.5,181.8,160.6z"/>
								</g>
							</g>
							<g>
								<g>
									<path class="st24" d="M180.8,160c-0.2-0.1-0.3-0.2-0.5-0.3c-10.9,9.5-25.5,15.3-41.6,15.3s-30.7-5.8-41.6-15.3
										c-0.2,0.1-0.3,0.2-0.5,0.3c11,9.6,25.8,15.5,42.1,15.5C155,175.4,169.8,169.6,180.8,160z"/>
								</g>
							</g>
							<g>
								<g>
									<path class="st24" d="M179.8,159.3c-0.2-0.1-0.3-0.2-0.5-0.3c-10.7,9.2-24.9,14.8-40.6,14.8s-29.9-5.6-40.6-14.8
										c-0.2,0.1-0.3,0.2-0.5,0.3c10.8,9.3,25.2,15,41.1,15S169,168.6,179.8,159.3z"/>
								</g>
							</g>
							<g>
								<g>
									<path class="st24" d="M178.8,158.6c-0.2-0.1-0.3-0.2-0.5-0.3c-10.4,8.9-24.3,14.4-39.6,14.4s-29.2-5.4-39.6-14.4
										c-0.2,0.1-0.3,0.2-0.5,0.3c10.6,9,24.6,14.6,40.1,14.6S168.3,167.7,178.8,158.6z"/>
								</g>
							</g>
							<g>
								<g>
									<path class="st24" d="M177.8,158c-0.2-0.1-0.3-0.2-0.5-0.3c-10.2,8.6-23.7,13.9-38.6,13.9s-28.4-5.3-38.6-13.9
										c-0.2,0.1-0.3,0.2-0.5,0.3c10.3,8.8,24,14.1,39.1,14.1S167.5,166.8,177.8,158z"/>
								</g>
							</g>
							<g>
								<g>
									<path class="st24" d="M176.8,157.4c-0.2-0.1-0.3-0.2-0.5-0.3c-10,8.3-23.1,13.4-37.6,13.4c-14.4,0-27.6-5.1-37.6-13.4
										c-0.2,0.1-0.3,0.2-0.5,0.3c10.1,8.5,23.4,13.6,38.1,13.6C153.4,171,166.7,165.8,176.8,157.4z"/>
								</g>
							</g>
							<g>
								<g>
									<path class="st24" d="M175.8,156.7c-0.2-0.1-0.3-0.2-0.5-0.3c-9.7,8-22.5,12.9-36.5,12.9s-26.8-4.9-36.5-12.9
										c-0.2,0.1-0.3,0.2-0.5,0.3c9.8,8.2,22.8,13.2,37.1,13.2C152.9,169.9,165.9,164.9,175.8,156.7z"/>
								</g>
							</g>
							<g>
								<g>
									<path class="st24" d="M174.7,156.1c-0.2-0.1-0.3-0.2-0.5-0.3c-9.5,7.7-21.9,12.4-35.5,12.4s-26-4.7-35.5-12.4
										c-0.2,0.1-0.4,0.2-0.5,0.3c9.6,7.9,22.2,12.7,36,12.7S165.1,164,174.7,156.1z"/>
								</g>
							</g>
							<g>
								<g>
									<path class="st24" d="M173.7,155.5c-0.2-0.1-0.4-0.2-0.5-0.3c-9.2,7.4-21.3,12-34.4,12c-13.2,0-25.2-4.5-34.4-12
										c-0.2,0.1-0.4,0.2-0.5,0.3c9.4,7.6,21.6,12.2,35,12.2C152.1,167.7,164.3,163.1,173.7,155.5z"/>
								</g>
							</g>
							<g>
								<g>
									<path class="st24" d="M172.6,154.9c-0.2-0.1-0.4-0.2-0.5-0.3c-9,7.1-20.6,11.5-33.4,11.5c-12.7,0-24.4-4.3-33.4-11.5
										c-0.2,0.1-0.4,0.2-0.5,0.3c9.1,7.3,21,11.7,33.9,11.7C151.7,166.6,163.5,162.1,172.6,154.9z"/>
								</g>
							</g>
							<g>
								<g>
									<path class="st24" d="M171.6,154.2c-0.2-0.1-0.4-0.2-0.5-0.3c-8.7,6.8-20,11-32.3,11s-23.6-4.1-32.3-11
										c-0.2,0.1-0.4,0.2-0.5,0.3c8.9,7,20.3,11.2,32.8,11.2C151.2,165.4,162.7,161.2,171.6,154.2z"/>
								</g>
							</g>
							<g>
								<g>
									<path class="st24" d="M170.5,153.6c-0.2-0.1-0.4-0.2-0.5-0.3c-8.5,6.5-19.4,10.5-31.2,10.5c-11.9,0-22.7-3.9-31.2-10.5
										c-0.2,0.1-0.4,0.2-0.5,0.3c8.6,6.7,19.7,10.7,31.8,10.7C150.8,164.3,161.9,160.3,170.5,153.6z"/>
								</g>
							</g>
							<g>
								<g>
									<path class="st24" d="M169.4,153c-0.2-0.1-0.4-0.2-0.5-0.3c-8.2,6.2-18.7,9.9-30.1,9.9s-21.9-3.7-30.1-9.9
										c-0.2,0.1-0.4,0.2-0.5,0.3c8.4,6.4,19,10.2,30.7,10.2C150.3,163.2,161,159.4,169.4,153z"/>
								</g>
							</g>
							<g>
								<g>
									<path class="st24" d="M168.3,152.4c-0.2-0.1-0.4-0.2-0.6-0.3c-8,5.9-18.1,9.4-29,9.4c-11,0-21.1-3.5-29-9.4
										c-0.2,0.1-0.4,0.2-0.6,0.3c8.1,6.1,18.4,9.7,29.6,9.7C149.9,162.1,160.2,158.5,168.3,152.4z"/>
								</g>
							</g>
							<g>
								<g>
									<path class="st24" d="M167.2,151.8c-0.2-0.1-0.4-0.2-0.6-0.3c-7.7,5.6-17.4,8.9-27.9,8.9s-20.2-3.3-27.9-8.9
										c-0.2,0.1-0.4,0.2-0.6,0.3c7.8,5.7,17.7,9.2,28.5,9.2S159.3,157.6,167.2,151.8z"/>
								</g>
							</g>
							<g>
								<g>
									<path class="st24" d="M166.1,151.2c-0.2-0.1-0.3-0.2-0.5-0.2h-0.1c-7.4,5.3-16.7,8.4-26.8,8.4s-19.3-3.1-26.8-8.4h-0.1
										c-0.2,0.1-0.3,0.2-0.5,0.2c7.6,5.4,17.1,8.7,27.3,8.7C149,159.9,158.5,156.7,166.1,151.2z"/>
								</g>
							</g>
							<g>
								<g>
									<path class="st24" d="M164.9,150.6c-0.2-0.1-0.4-0.2-0.6-0.3c-7.2,5-16,7.9-25.6,7.9s-18.5-2.9-25.6-7.9
										c-0.2,0.1-0.4,0.2-0.6,0.3c7.3,5.1,16.4,8.1,26.2,8.1C148.5,158.8,157.6,155.7,164.9,150.6z"/>
								</g>
							</g>
							<g>
								<g>
									<path class="st24" d="M163.8,150c-0.2-0.1-0.4-0.2-0.6-0.3c-6.9,4.6-15.3,7.4-24.5,7.4c-9.1,0-17.6-2.7-24.5-7.4
										c-0.2,0.1-0.4,0.2-0.6,0.3c7,4.8,15.7,7.6,25.1,7.6C148.1,157.7,156.7,154.8,163.8,150z"/>
								</g>
							</g>
							<g>
								<g>
									<path class="st24" d="M162.6,149.5c-0.2-0.1-0.4-0.2-0.6-0.3c-6.6,4.3-14.6,6.8-23.3,6.8s-16.7-2.5-23.3-6.8
										c-0.2,0.1-0.4,0.2-0.6,0.3c6.7,4.5,15,7.1,23.9,7.1S155.9,153.9,162.6,149.5z"/>
								</g>
							</g>
							<g>
								<g>
									<path class="st24" d="M161.4,148.9c-0.2-0.1-0.4-0.2-0.6-0.3c-6.3,4-13.9,6.3-22.1,6.3c-8.2,0-15.8-2.3-22.1-6.3
										c-0.2,0.1-0.4,0.2-0.6,0.3c6.5,4.1,14.3,6.6,22.7,6.6C147.1,155.4,155,153,161.4,148.9z"/>
								</g>
							</g>
							<g>
								<g>
									<path class="st24" d="M160.2,148.3c-0.2-0.1-0.4-0.2-0.6-0.3c-6,3.6-13.2,5.8-20.9,5.8s-14.9-2.1-20.9-5.8
										c-0.2,0.1-0.4,0.2-0.6,0.3c6.2,3.8,13.5,6,21.5,6S154,152.1,160.2,148.3z"/>
								</g>
							</g>
							<g>
								<g>
									<path class="st24" d="M159,147.7c-0.2-0.1-0.4-0.2-0.6-0.3c-5.7,3.3-12.4,5.2-19.6,5.2c-7.2,0-13.9-1.9-19.6-5.2
										c-0.2,0.1-0.4,0.2-0.6,0.3c5.9,3.5,12.8,5.5,20.3,5.5C146.2,153.2,153.1,151.2,159,147.7z"/>
								</g>
							</g>
							<g>
								<g>
									<path class="st24" d="M157.7,147.1c-0.2-0.1-0.4-0.2-0.6-0.3c-5.4,3-11.6,4.7-18.3,4.7s-13-1.7-18.3-4.7
										c-0.2,0.1-0.4,0.2-0.6,0.3c5.5,3.1,12,5,19,5C145.7,152.1,152.2,150.3,157.7,147.1z"/>
								</g>
							</g>
							<g>
								<g>
									<path class="st24" d="M156.4,146.6c-0.2-0.1-0.4-0.2-0.7-0.3c-5,2.6-10.8,4.2-17,4.2s-12-1.5-17-4.2
										c-0.2,0.1-0.4,0.2-0.7,0.3c5.2,2.8,11.2,4.4,17.7,4.4S151.2,149.4,156.4,146.6z"/>
								</g>
							</g>
							<g>
								<g>
									<path class="st24" d="M155.1,146c-0.2-0.1-0.5-0.2-0.7-0.3c-4.7,2.3-10,3.6-15.7,3.6s-11-1.3-15.7-3.6
										c-0.2,0.1-0.5,0.2-0.7,0.3c4.9,2.5,10.4,3.9,16.4,3.9C144.6,149.9,150.2,148.5,155.1,146z"/>
								</g>
							</g>
							<g>
								<g>
									<path class="st24" d="M153.7,145.4c-0.2-0.1-0.5-0.2-0.7-0.3c-4.3,2-9.1,3.1-14.2,3.1c-5.1,0-9.9-1.1-14.2-3.1
										c-0.2,0.1-0.5,0.2-0.7,0.3c4.5,2.1,9.6,3.4,15,3.4C144.1,148.8,149.2,147.6,153.7,145.4z"/>
								</g>
							</g>
							<g>
								<g>
									<path class="st24" d="M152.2,144.9c-0.3-0.1-0.5-0.2-0.8-0.3c-3.9,1.6-8.2,2.5-12.8,2.5c-4.5,0-8.9-0.9-12.8-2.5
										c-0.2,0.1-0.5,0.2-0.8,0.3c4.1,1.8,8.7,2.8,13.5,2.8C143.5,147.7,148.1,146.7,152.2,144.9z"/>
								</g>
							</g>
							<g>
								<g>
									<path class="st24" d="M150.7,144.3c-0.3-0.1-0.5-0.2-0.8-0.3c-3.5,1.3-7.2,2-11.2,2c-3.9,0-7.7-0.7-11.2-2
										c-0.3,0.1-0.5,0.2-0.8,0.3c3.7,1.5,7.7,2.3,12,2.3S147,145.7,150.7,144.3z"/>
								</g>
							</g>
							<g>
								<g>
									<path class="st24" d="M149,143.7c-0.3-0.1-0.6-0.2-0.9-0.3c-3,1-6.1,1.5-9.4,1.5c-3.3,0-6.5-0.5-9.4-1.5
										c-0.3,0.1-0.6,0.2-0.9,0.3c3.2,1.1,6.7,1.7,10.3,1.7C142.4,145.4,145.8,144.8,149,143.7z"/>
								</g>
							</g>
							<g>
								<g>
									<path class="st24" d="M147.2,143.1c-0.3-0.1-0.7-0.2-1-0.3c-2.4,0.6-4.9,1-7.5,1s-5.1-0.3-7.5-1c-0.3,0.1-0.7,0.2-1,0.3
										c2.7,0.8,5.5,1.2,8.5,1.2S144.5,143.9,147.2,143.1z"/>
								</g>
							</g>
							<g>
								<g>
									<path class="st24" d="M145.1,142.5c-0.4-0.1-0.9-0.2-1.3-0.3c-1.7,0.3-3.4,0.5-5.1,0.5s-3.5-0.2-5.1-0.5
										c-0.4,0.1-0.8,0.2-1.3,0.3c2.1,0.5,4.2,0.7,6.4,0.7C140.9,143.2,143.1,143,145.1,142.5z"/>
								</g>
							</g>
							<g>
								<g>
									<path class="st24" d="M142.3,141.9c-1-0.2-1.9-0.3-2.7-0.3c-0.3,0-0.6,0-0.9,0c-0.3,0-0.6,0-0.9,0c-0.8,0-1.7,0.2-2.7,0.3
										c1.2,0.2,2.4,0.2,3.6,0.2C139.9,142.1,141.1,142,142.3,141.9z"/>
								</g>
							</g>
						</g>
					</g>
				</g>
			</g>
		</g>
	</g>
	<path class="st7" d="M88.2,255.1c0,0-25.3,3.4-33.7,68.5L84,335.8c0,0,8.4-34.6,12.5-37.6C100.7,295.2,91.7,253.9,88.2,255.1z"/>
	<path class="st7" d="M202.1,258.5c0,0,26.1,3.1,34.6,68.2l-30.4,12.5c0,0-8.4-34.6-12.5-37.6C189.6,298.6,198.6,257.3,202.1,258.5z
		"/>
	<g>
		<path class="st25" d="M131.2,673.6c-2.3,0-4.5,0-6.6,0c-21.9-0.3-38.9-3.4-39.1-9.1c-0.6-16.4,3.2-120.1,3.2-120.1
			s-2.7-94.7,0.4-99.9c1.7-2.9,0.6-27.4-0.6-50.6c0-0.1,0-0.1,0-0.2c-1-19.2-2.1-37.4-1.8-41.5c0.1-1.1,0.2-2.5,0.3-4l0,0
			c0.3-4.4,0.6-10.2,0.9-15.3c0.4-6.8,0.7-12.5,0.7-12.5s-9.7-55.2,3.8-67.1c0.9-0.8,1.9-1.4,3.1-1.8c6.5-2.1,11.2-3.4,14.5-4.3
			c1.7-0.5,3-0.8,4.1-1.1l10,23.9l39.2,0.5l8.7-23c0,0,1.8,0.1,4.6,0.4c9.1,1,18.8,6.2,22.6,8.4c5.3,10.9,6.6,78.9,6.6,78.9
			l8.1,108.8c0,0-1.2,161.3,7.5,196.6c0.2,0.7,0.3,1.4,0.3,2C223.1,663.6,171.3,673.1,131.2,673.6z"/>
		<path class="st26" d="M85,664.6c-0.6-16.4,3.2-120.1,3.2-120.1s-2.7-94.7,0.4-99.9c3.1-5.3-2.3-82.1-1.7-91.1
			c0.6-9-8.8-92.2,5.2-100.1c-5.2,21.7,0.5,94.5,1.7,103.4c1.9,14.8,1.7,34.2,1.9,49.1c0.4,30.4,6.3,54.5,5,84.8
			c-1.5,35-1.3,71.3,13.1,103.2s46.8,58.2,81.7,54.8c8.6-0.8,17-3.4,25.3-5.9C223.7,676.5,85.6,680.7,85,664.6z"/>
	</g>
	<path class="st0" d="M75,478.1l16.8-3.8c0,0-16.8-83.6-14.2-108.9c2.9-28-24.2-36.3-24.9,2.5C52.2,397.7,75,478.1,75,478.1z"/>
	<g>
		<path class="st0" d="M230.6,492.4c1.6-5.7-4.1-27.2-11.2-26.3c-4,0.5-10.4,16.1-10.2,23.7c1.6,0.9,2.7,3.9,3.3,5.4
			C213.2,496.7,229,498,230.6,492.4z"/>
		<path class="st0" d="M218.2,511.8c-0.3-4.1-0.7-10.6-0.6-16.3c1.3-0.1,2.6-0.4,3.9-0.8c0.8,5.3,1.2,12,1.4,16c0.3,5.8-0.5,8.8-2,9
			C219.5,519.8,218.6,517.1,218.2,511.8z"/>
		<path class="st0" d="M223.9,509.5c-0.6-3.9-1.4-9.9-1.6-15.3c1.3-0.1,2.9-0.6,4.1-1.1c1.1,4.9,1.5,11.4,2,15.2
			c0.7,5.5,0.1,8.3-1.4,8.5C225.6,517.1,224.6,514.5,223.9,509.5z"/>
		<path class="st0" d="M228.5,505.8c-0.5-3.3-1.2-8.5-1.3-13c1.1-0.1,2.5-0.5,3.5-0.9c1,4.2,1.3,9.7,1.7,13c0.6,4.7,0.1,7.1-1.2,7.3
			C230,512.3,229.1,510.1,228.5,505.8z"/>
		<path class="st0" d="M212,509.9c0.1-3.9,0.1-11.4,0.8-16.7c1.3,0.1,3.2,1.3,4.4,1c0.3,5-0.4,11.5-0.6,15.3
			c-0.2,5.5-1.3,8.2-2.8,8.2C212.5,517.6,211.9,515,212,509.9z"/>
		<path class="st0" d="M203.1,488.3c3.1-2.4,4.8-11.8,9.4-14.5c0.7,1.1,5.2,7.3,6.1,8.1c-3.8,3.3-8.3,7.2-11.4,9.4
			c-4.5,3.1-8.2,1.9-9.1,0.7C197.3,490.9,201.6,489.5,203.1,488.3z"/>
	</g>
	<g>
		<path class="st0" d="M74,493.3c-2-5.5,1.7-26.7,9-27.1c4-0.2,11.7,15.3,12.1,22.8c-1.5,1-2.4,4.1-2.9,5.7S76.1,498.9,74,493.3z"/>
		<path class="st0" d="M87.9,511.7c0-4.1-0.1-10.7-0.7-16.3c-1.3,0-2.6-0.1-3.9-0.5c-0.4,5.3-0.2,12-0.1,16.1
			c0.1,5.9,1.2,8.8,2.8,8.8C87.3,519.8,87.9,517,87.9,511.7z"/>
		<path class="st0" d="M82.1,509.9c0.3-3.9,0.5-10,0.3-15.3c-1.3,0-3-0.4-4.2-0.8c-0.7,5-0.6,11.5-0.7,15.3
			c-0.2,5.5,0.6,8.3,2.1,8.4C81,517.6,81.8,515,82.1,509.9z"/>
		<path class="st0" d="M77.2,506.6c0.2-3.3,0.5-8.5,0.3-13.1c-1.1,0-2.5-0.3-3.6-0.7c-0.6,4.3-0.5,9.8-0.6,13
			c-0.2,4.7,0.5,7.1,1.8,7.1C76.2,513.1,76.9,510.9,77.2,506.6z"/>
		<path class="st0" d="M94,509.3c-0.4-3.9-1-11.4-2.1-16.6c-1.3,0.2-3.1,1.5-4.3,1.4c0.1,5,1.3,11.4,1.8,15.2c0.7,5.5,2,8.1,3.5,7.9
			C94.1,517.1,94.5,514.4,94,509.3z"/>
		<path class="st0" d="M101.1,487.1c-3.2-2.2-5.1-11.1-9.9-13.4c-0.6,1.2-5.2,7.4-6.1,8.3c4.1,3,8.8,6.5,12.1,8.4
			c4.8,2.8,8.3,1.3,9.1,0C107.1,489.2,102.7,488.2,101.1,487.1z"/>
	</g>
	<path class="st0" d="M228.4,477.2l-17-2.4c0,0,10-84.7,5.4-109.7c-5.1-27.7,21.2-38.1,25,0.4C244.7,395.3,228.4,477.2,228.4,477.2z
		"/>
	<path class="st26" d="M176.3,248.1l-9.6,26.9H122l-12.2-27.7c1.7-0.5,3-0.8,4.1-1.1l10,23.9l39.2,0.5l9-23.7
		C172,247,173.5,247.8,176.3,248.1z"/>
</g>
</svg>
