<svg xmlns="http://www.w3.org/2000/svg" viewBox="0 0 300.52 821.26"><defs><style>.cls-1{isolation:isolate;}.cls-2{fill:#fff;}.cls-3{fill:#22366b;}.cls-4{fill:#cfcfcf;}.cls-10,.cls-13,.cls-21,.cls-4,.cls-6,.cls-8{mix-blend-mode:multiply;}.cls-5{fill:#3e3e3e;}.cls-6{fill:#b7c1c6;}.cls-7{fill:#2b96f4;}.cls-8{fill:#ddcfc9;}.cls-9{fill:#e3ac81;}.cls-10{fill:#ebe0da;}.cls-11{fill:#f8ba8c;}.cls-12{fill:#793b16;}.cls-13{fill:#eadbd8;}.cls-14{fill:#5b2c0b;}.cls-15{fill:#803e19;}.cls-16{fill:#0874b7;}.cls-17,.cls-29{fill:#0071d6;}.cls-18{fill:#24bf77;}.cls-19{opacity:0.1;}.cls-20{fill:#60d2a5;}.cls-22{fill:#57c193;}.cls-23{fill:#45bf87;}.cls-24{fill:#028251;}.cls-25{fill:#07af72;}.cls-26{opacity:0.25;mix-blend-mode:lighten;}.cls-27{fill:#8dd9b8;}.cls-28{fill:#b77a65;}.cls-28,.cls-29,.cls-30{fill-rule:evenodd;}.cls-30{fill:#005ea5;}</style></defs><g class="cls-1"><g id="OBJECT"><path class="cls-2" d="M74.76,816.67c24.38-6.46,45.14-11.14,50-14.34,3.3-2.16-.06-10.67-.06-10.67L98.42,778,44,800.84s-1.26,5.41,1,8.59C48.87,814.71,62.51,819.91,74.76,816.67Z"/><path class="cls-2" d="M229.85,816.67c-24.38-6.46-45.14-11.14-50-14.34-3.3-2.16.07-10.67.07-10.67L206.19,778l54.43,22.89s1.28,5.41-1,8.59C255.75,814.71,242.1,819.91,229.85,816.67Z"/><path class="cls-3" d="M230.35,810.76c-24.37-6.46-45.24-11-50-14.34s0-24.86,0-24.86l26.36.48S243.41,793.58,254,795.7C273.12,799.53,250,815.94,230.35,810.76Z"/><path class="cls-4" d="M259.91,798.18A32.37,32.37,0,0,1,240.09,804c-5.9-.33-11.4-2.13-16.83-4.37-5.62-2.32-12.27-4.46-17.26-8-7.22-5.1-10.39-12.88-15.17-19.92l-10.5-.2s-4.78,21.51,0,24.86,25.65,7.88,50,14.34C247,815.16,266.21,804,259.91,798.18Z"/><path class="cls-5" d="M151.24,501.37c6.69,10.52,18.82,59,20.73,119.64,2.06,65.48-1.91,157.25,4.78,161.07,11.27,6.44,37.76-3.34,40.14-10.52-.47-13.85-11.72-207.7-5.27-288.71C174.11,461.11,136,477.44,151.24,501.37Z"/><path class="cls-6" d="M192.37,772.24c-7.83-9.22-7.92-25-9.31-36.42-2.2-18.15.53-35.88-2-54.09-1.64-11.83-5.71-28.62-.39-39.93,1.86-4,7.39-5.72,10.24-8.72,1.9-2-4.26-3.65-5.51-4.37-1.75-1-2.94-3.21-3.69-5-2.32-5.43-1.66-12.55-2.29-18.31-1.07-9.82-1.92-19.66-2.42-29.53-1.17-22.77,3.57-63-24.21-71.58,6.86,14.8,17.4,60.47,19.17,116.69,2.06,65.48-1.91,157.25,4.78,161.07,8,4.57,23.67,1,32.94-4.08C203.3,778.75,197.18,777.91,192.37,772.24Z"/><path class="cls-3" d="M74.76,810.76c24.38-6.46,45.24-11,50-14.34s0-24.86,0-24.86L98.42,772S61.7,793.58,51.11,795.7C32,799.53,55.16,815.94,74.76,810.76Z"/><path class="cls-4" d="M124.78,771.56l-14,.26a15.91,15.91,0,0,1-7.93,19.72c-8.18,4.25-17.56,9-26.58,10.83-10.13,2.11-20.82-1-31-1.25a3.31,3.31,0,0,1-1.3-.28c.2,5.94,16.44,13.71,30.78,9.92,24.38-6.46,45.24-11,50-14.34S124.78,771.56,124.78,771.56Z"/><path class="cls-5" d="M148.05,499.54c-6.69,10.51-15.8,60.78-17.71,121.47-2.06,65.48,3.52,157.25-3.17,161.07-11.27,6.44-37.76-3.34-40.15-10.52.5-14.29,9.72-207.4,3.23-288.83C127.77,461,163.28,475.61,148.05,499.54Z"/><path class="cls-6" d="M148.05,499.54c.49-.78.93-1.54,1.32-2.3-19.23,13-24.76,40.2-27.08,62.34-1.63,15.55-.18,31-1.4,46.53-.47,6.07-.91,13.23-5,18.15-2.58,3.13-5.9,5.3-9.29,7.41,3.52,2.34,7.76,4.3,9.51,8,3.34,7-1.24,11-1,18,.31,10.14,2.64,20.09,2.61,30.27s-1.13,20.53-.92,30.79c.31,15.07,5.45,33.79-3.42,47.48-6,9.23-12.54,10.88-21,10.74,8.9,5.57,26.19,10,34.74,5.13,6.69-3.82,1.11-95.59,3.17-161.07C132.25,560.32,141.36,510.05,148.05,499.54Z"/><path class="cls-5" d="M91.46,487.79c-1.88-13.87-1.47-34.4.56-40.38S205,429.17,208.14,445.72c1.24.06,5.67,19.45,3.48,37.13C208.4,508.94,94.57,510.72,91.46,487.79Z"/><path class="cls-7" d="M208.14,445.72C189.87,459.61,112,460,92,447.41c-6.68-14.59-2.89-126.52-2.89-126.52S73.38,271.14,77.94,266c9.28-10.5,63.53-21.76,63.53-21.76S199.19,257,205.5,266c3.07,4.39-5.13,45-2.83,88.87C205.11,401.27,211.92,429.75,208.14,445.72Z"/><path class="cls-8" d="M191.34,327.68a231.33,231.33,0,0,0,7.64,51c2.09,8.12,3.82,16.33,5.91,24.44a60.72,60.72,0,0,0,2.77,7.91c-1.53-14.81-3.79-33.31-5-56.17-1.38-26.4,1-51.61,2.51-68.46C198,299.31,190.91,313.45,191.34,327.68Z"/><path class="cls-8" d="M151.88,447.47c-25,.9-44.8-11.75-48.75-24.87s-2.84-69.46-4.56-94.13c-1.19-17-7.54-30.54-18.72-41.23,3.54,15.51,9.28,33.65,9.28,33.65S85.34,432.82,92,447.41c14.48,9.16,59.48,11.44,90.06,6.7C171.63,453.67,161.91,447.11,151.88,447.47Z"/><path class="cls-9" d="M166.45,250.41s-7.19,12.72-24.3,12.72a34,34,0,0,1-26.25-12.61s3.23-1.17,7.07-6.31,4.33-12.36,1.38-37.81c-3.65-31.56,28.72-34.23,30.06-6.45-.81,32.2.27,39.67,4.29,45.35C161.46,249.2,166.45,250.41,166.45,250.41Z"/><path class="cls-10" d="M131.57,243.07c1.12-8.51,11-21.63,2.47-29.14a21.86,21.86,0,0,0-9.37-4.66c2.59,23.11,2.1,29.86-1.7,34.94s-7.07,6.31-7.07,6.31A39.77,39.77,0,0,0,136.25,262C132.41,257.22,130.58,250.66,131.57,243.07Z"/><path class="cls-11" d="M209.93,114.71c-2.39-.42-5.66.56-8.78,2.52.21-8.64.35-17.75.49-27.38.49-34.42-35.73-51.47-65.7-47.94C98.51,46.31,73.25,61.56,74.06,92c.21,8,.65,19.35,1.48,31.85-4.05-2.44-8.53-3.47-11.41-2.55-7.42,2.39-8.14,11.46-4.07,23.5S72.74,164.94,79.49,163c1.81,12.55,3.86,19.76,7.32,28.14,5.81,14.06,31,34.87,51.78,34.87,25.34,0,50.75-26.93,54.12-38.39,2.88-9.81,5-16.63,6.31-29.67a4.41,4.41,0,0,0,.7.23c7,1.34,14.68-8,17.23-20.71C219.46,124.93,217.59,116,209.93,114.71Z"/><path class="cls-10" d="M104.11,204.85c-4.75-5.83-10.86-15.29-12.65-22.57-2.06-8.38-8.53-22.59-8.53-22.59s-16.33-2.78-18.66-16.9c-.26-1.59-4.34-16.93-4.49-18.52-3.13,4.12-2.77,11.47.28,20.49,4.09,12.05,12.68,20.18,19.43,18.19,1.81,12.55,3.86,19.76,7.32,28.14,5.17,12.51,25.71,30.35,44.78,34.14C121.06,220.11,111.49,213.91,104.11,204.85Z"/><path class="cls-10" d="M201.5,99c-3.73-10.17-2.38-20-11.22-22.37-5.73-1.53-31.77,21-37.47,19.43-12.69-3.62-23.34-8.25-33.41-16.8-3.08-2.62-8.78-7.33-12.74-3.44-2.54,2.5-8.6-2.78-10,.45-3.34,7.58-8-2.14-13.28,4.39-1.63,2-4,13.07-5.9,14.79-2.92,2.65,4.72,23.88,5.06,27.4a138.43,138.43,0,0,1,.26,16.79c.26-.32,2.58,2.77,2.85,2.44,4.72-5.83,3.59-17.27,2.3-24.43-2.68-14.89,8.87-26.52,8.87-26.52A40.69,40.69,0,0,0,110.14,101a111.61,111.61,0,0,0,39,9.08c17.48.86,34.48-11.6,38.06-7.48s.77,28.76.77,28.76S204.16,106.23,201.5,99Z"/><path class="cls-12" d="M98.78,86s0-25.24-8.2-37.2C84.69,41.45,68,68.91,68,68.91S57.59,85.3,65.27,122c17-2.15,17.19,12.3,18.16,21.79,1.71-1.77,4.84-4.83,4.84-4.83a71.19,71.19,0,0,1-4.9-28.39C85.83,87.44,98.78,86,98.78,86Z"/><path class="cls-12" d="M191.32,86.91s5.14,19.44,1.54,30.7a139.3,139.3,0,0,1-4.07,16.59l5.33,5.11c.45-7.73.08-21.7,14.35-24.68,3.57-9.57-4.35-40.33-4.35-40.33Z"/><path class="cls-12" d="M116.18,118.57c-.55.85-4.66-1.76-9.31-1.25-8.44.91-11.62,6.12-11.62,6.12a14.08,14.08,0,0,1,11.6-11.31c5.75-1,8.87.25,9.93,1.21S116.72,117.72,116.18,118.57Z"/><path class="cls-10" d="M118.22,181.05c2.2,27.6,37.36,27.11,37.36,0Z"/><path class="cls-13" d="M136.9,160.52c-4.73,0-8.69-2.05-9.71-4.79a4,4,0,0,0-.27,1.4c0,3.42,4.47,6.19,10,6.19s10-2.77,10-6.19a4,4,0,0,0-.27-1.4C145.59,158.47,141.63,160.52,136.9,160.52Z"/><path class="cls-13" d="M113.92,129.93a6,6,0,1,1-6-6A6,6,0,0,1,113.92,129.93Z"/><path class="cls-14" d="M116.18,131.39a6,6,0,1,1-6-6A6,6,0,0,1,116.18,131.39Z"/><path class="cls-12" d="M156.07,118.57c.54.85,4.65-1.76,9.3-1.25,8.44.91,11.63,6.12,11.63,6.12a14.09,14.09,0,0,0-11.61-11.31c-5.75-1-8.87.25-9.93,1.21S155.52,117.72,156.07,118.57Z"/><path class="cls-13" d="M158.32,129.93a6,6,0,1,0,6-6A6,6,0,0,0,158.32,129.93Z"/><path class="cls-14" d="M156.07,131.39a6,6,0,1,0,6-6A6,6,0,0,0,156.07,131.39Z"/><path class="cls-15" d="M205.51,63.31c0,27.48-15.17,41.48-58.63,41.48A71.83,71.83,0,0,1,98.78,86l-8.2-37.2s-1-7.3,11.28-10.86c6.7-1.94,32.68-6.86,53.17-.82C177,14.68,205.56,38.86,205.51,63.31Z"/><path class="cls-16" d="M159.9,245.68c-3.08,7.66-10.57,16.3-19.33,16.3s-16.25-8.64-19.33-16.3c0,0-11.22,4.17-10.31,6.11,3.62,7.74,10.19,17.79,18.24,20.79,3.55,1.33,7.45-7.33,11.46-7.33s7.18,7.48,10.61,6.26c8.36-3,15.45-12,19.1-20C171.19,249.64,159.9,245.68,159.9,245.68Z"/><polygon class="cls-12" points="193.22 142.79 187.45 137.42 188.24 135 193.22 140.31 193.22 142.79"/><polygon class="cls-12" points="83.6 147.73 89.96 142.33 89.17 139.91 83.6 145.24 83.6 147.73"/><path class="cls-2" d="M118.24,180.93c2.2,22.34,37.32,21.94,37.32,0Z"/><path class="cls-7" d="M112.49,250l-.12-.12S119.82,247.81,112.49,250Z"/><path class="cls-7" d="M216.49,278.45c-9.61-22.46-45-26.07-45-26.07l-3.9-1.08L156.83,260l-7.92,4h-5.65l-11.76-1.12h-6L122.6,260l-9-9.11c-3.07.91-8.72,2.56-18.58,5.41C61.57,266,63.5,302.7,57,344.8c-1.47,9.54-5.33,18.71-5,27.88-6.23,22.73,25.07,25.86,28.83,9.72,1.78-7.68.4-15.58,1.13-22.66v0a234.43,234.43,0,0,1,6.13-34.54S87,348,86.35,357s5.54,87,2.43,92.26-.42,99.93-.42,99.93S84.64,652.79,85.2,669.23c.55,16.11,138.69,11.91,135.92-21.63a12.25,12.25,0,0,0-.33-2c-8.63-35.39-7.46-196.64-7.46-196.64l-8.1-108.81a110.79,110.79,0,0,1,12.42,30.55,69.38,69.38,0,0,1,1.43,10.07,5.31,5.31,0,0,1,2.73,1.45c3.23,3.11,7.3,5.12,11.08,7.45,3.05-2.74,6.62-5.11,10.8-12.39C243.46,339.1,225.07,298.49,216.49,278.45Z"/><path class="cls-17" d="M84.79,669.23C84.23,652.79,88,549.16,88,549.16s-2.69-94.66.42-99.93S85.3,366,85.94,357s1.78-31.79,1.78-31.79a234.43,234.43,0,0,0-6.13,34.54c-.25-14.9,1.59-29.13,9.07-40.63,7.71,4.83,8.89,31.83,10.06,40.72a379.68,379.68,0,0,1,3,44.58c.41,30.38-1.83,60.71-3.11,91.05-1.47,35-1.31,71.33,13.12,103.24s46.82,58.22,81.68,54.85c8.65-.84,17-3.4,25.32-5.93C223.48,681.14,85.34,685.34,84.79,669.23Z"/><path class="cls-17" d="M159.9,245.68c-3.08,7.66-10.57,16.3-19.33,16.3s-16.25-8.64-19.33-16.3c0,0-11.22,4.17-10.31,6.11,3.62,7.74,10.19,17.79,18.24,20.79,3.55,1.33,7.45-7.33,11.46-7.33s7.18,7.48,10.61,6.26c8.36-3,15.45-12,19.1-20C171.19,249.64,159.9,245.68,159.9,245.68Z"/><path class="cls-2" d="M199.09,119.9s-13.85,16.38-15.48,38.79.25,4,.25,4l1.24-2.06S182.16,153.9,199.09,119.9Z"/><path class="cls-2" d="M97.35,160.61c5.08,7-11.13-28.86-18.35-35.89a.88.88,0,0,0-1.43,0l.54.63S95,157.33,97.35,160.61Z"/><path class="cls-2" d="M199,157.9s-8.33,33.77-10.26,37.28,1,1.08,1,1.08S200.67,163.52,199,157.9Z"/><path class="cls-2" d="M79.49,163s7.43,30.83,10,31.93-2.47,2.2-2.47,2.2S79.12,171.39,79.49,163Z"/><path class="cls-18" d="M190.34,165.19c0-2.56-35.23-24.76-51.88-24.76s-51.88,22.2-51.88,24.76,3.67,13.24,3.67,18-3.67,15.44-3.67,18S121.81,226,138.46,226s51.88-22.19,51.88-24.75-3.67-13.24-3.67-18S190.34,167.75,190.34,165.19Z"/><g class="cls-19"><path class="cls-2" d="M90.9,201.75a.37.37,0,0,1-.2-.07c-.48-.38-.88-.71-1.16-1a.3.3,0,0,1-.09-.25c.07-.37.17-.83.31-1.42a.29.29,0,0,1,.36-.22.28.28,0,0,1,.24.34c-.12.5-.21.92-.27,1.25.26.23.6.52,1,.84a.28.28,0,0,1,0,.41A.35.35,0,0,1,90.9,201.75Z"/><path class="cls-2" d="M90.77,196.5H90.7a.29.29,0,0,1-.23-.35l.24-.93c.16-.63.33-1.28.5-1.93a.31.31,0,0,1,.37-.22.29.29,0,0,1,.23.35c-.17.65-.33,1.3-.5,1.94l-.24.92A.29.29,0,0,1,90.77,196.5Zm1.45-5.74h-.07a.3.3,0,0,1-.24-.34c.25-1.08.46-2,.62-2.88a.32.32,0,0,1,.36-.24.3.3,0,0,1,.25.33c-.17.87-.37,1.82-.62,2.91A.3.3,0,0,1,92.22,190.76Zm1-5.81h0a.29.29,0,0,1-.28-.31c.05-.52.07-1,.07-1.44s0-.92-.07-1.45a.29.29,0,0,1,.28-.31.3.3,0,0,1,.33.26c.05.54.08,1.05.08,1.5s0,1-.08,1.49A.3.3,0,0,1,93.26,185Zm-.43-5.86a.29.29,0,0,1-.3-.24c-.17-.86-.37-1.8-.62-2.88a.3.3,0,0,1,.24-.34.33.33,0,0,1,.37.22c.25,1.09.45,2,.62,2.9a.3.3,0,0,1-.26.34Zm-1.32-5.76a.3.3,0,0,1-.3-.23l-.51-2-.23-.89a.29.29,0,0,1,.23-.35.32.32,0,0,1,.37.22l.23.88q.26,1,.51,2a.29.29,0,0,1-.23.35Z"/><path class="cls-2" d="M90.06,167.59a.3.3,0,0,1-.3-.22c-.14-.6-.24-1.06-.31-1.43a.27.27,0,0,1,.09-.24c.28-.27.68-.6,1.16-1a.34.34,0,0,1,.44,0,.27.27,0,0,1,0,.4c-.41.33-.75.61-1,.85.06.33.15.75.27,1.24a.29.29,0,0,1-.24.35Z"/><path class="cls-2" d="M93.3,163.45a.34.34,0,0,1-.25-.11.28.28,0,0,1,.06-.4c.77-.54,1.6-1.1,2.48-1.68a.31.31,0,0,1,.43.06.27.27,0,0,1-.07.4c-.88.58-1.71,1.14-2.47,1.68A.37.37,0,0,1,93.3,163.45Zm90.31,0a.3.3,0,0,1-.18-.06c-.76-.53-1.59-1.09-2.47-1.67a.27.27,0,0,1-.07-.4.32.32,0,0,1,.43-.07c.88.58,1.72,1.15,2.48,1.69a.27.27,0,0,1,.06.4A.33.33,0,0,1,183.61,163.45Zm-85.32-3.29A.33.33,0,0,1,98,160a.28.28,0,0,1,.08-.4l2.56-1.57a.34.34,0,0,1,.43.09.28.28,0,0,1-.09.4c-.86.51-1.72,1-2.55,1.56A.34.34,0,0,1,98.29,160.16Zm80.34,0a.41.41,0,0,1-.18,0l-2.55-1.57a.27.27,0,0,1-.09-.39.33.33,0,0,1,.43-.09l2.56,1.57a.27.27,0,0,1,.08.4A.33.33,0,0,1,178.63,160.16Zm-75.2-3.09a.34.34,0,0,1-.27-.13.28.28,0,0,1,.1-.4l2.62-1.48a.33.33,0,0,1,.43.1.27.27,0,0,1-.11.39c-.87.49-1.75,1-2.61,1.48A.32.32,0,0,1,103.43,157.07Zm70.06,0a.33.33,0,0,1-.17,0c-.86-.5-1.74-1-2.61-1.48a.27.27,0,0,1-.1-.39.31.31,0,0,1,.42-.1c.87.48,1.75,1,2.62,1.48a.27.27,0,0,1,.1.39A.31.31,0,0,1,173.49,157.07Zm-64.81-2.91a.29.29,0,0,1-.26-.15.27.27,0,0,1,.11-.39l.71-.37,2-1a.32.32,0,0,1,.42.11.27.27,0,0,1-.12.39l-2,1-.7.37A.29.29,0,0,1,108.68,154.16Zm59.55,0a.32.32,0,0,1-.16,0l-.7-.37-2-1a.28.28,0,0,1-.12-.39.32.32,0,0,1,.42-.11l2,1,.7.37a.28.28,0,0,1,.12.39A.32.32,0,0,1,168.23,154.16Zm-54.18-2.74a.29.29,0,0,1-.27-.15.28.28,0,0,1,.13-.39c.91-.44,1.83-.88,2.73-1.29a.32.32,0,0,1,.41.13.27.27,0,0,1-.14.38c-.89.41-1.8.85-2.72,1.29A.32.32,0,0,1,114.05,151.42Zm48.81,0a.32.32,0,0,1-.14,0c-.92-.44-1.83-.88-2.72-1.29a.27.27,0,0,1-.14-.38.31.31,0,0,1,.41-.13c.9.41,1.82.85,2.73,1.29a.27.27,0,0,1,.13.39A.29.29,0,0,1,162.86,151.42Zm-43.33-2.52a.32.32,0,0,1-.28-.17.28.28,0,0,1,.15-.38c.95-.41,1.89-.8,2.8-1.17a.32.32,0,0,1,.41.15.28.28,0,0,1-.16.38c-.91.36-1.84.75-2.78,1.16A.35.35,0,0,1,119.53,148.9Zm37.85,0a.28.28,0,0,1-.13,0c-.95-.41-1.88-.8-2.79-1.16a.29.29,0,0,1-.16-.38.32.32,0,0,1,.41-.15c.91.37,1.85.76,2.8,1.17a.28.28,0,0,1,.15.38A.32.32,0,0,1,157.38,148.9Zm-32.23-2.26a.28.28,0,0,1-.28-.18.27.27,0,0,1,.17-.37c1-.36,1.95-.69,2.88-1a.3.3,0,0,1,.39.17.28.28,0,0,1-.19.37c-.92.29-1.88.63-2.85,1A.25.25,0,0,1,125.15,146.64Zm26.61,0a.25.25,0,0,1-.12,0c-1-.35-1.93-.69-2.85-1a.29.29,0,0,1-.19-.37.31.31,0,0,1,.39-.18c.93.3,1.9.64,2.88,1a.28.28,0,0,1,.18.37A.32.32,0,0,1,151.76,146.64Zm-20.82-1.85a.3.3,0,0,1-.3-.21.29.29,0,0,1,.21-.36c1.05-.28,2.05-.51,3-.7a.32.32,0,0,1,.37.23.3.3,0,0,1-.24.34c-.92.18-1.92.41-2.95.69Zm15,0h-.08c-1-.28-2-.51-2.95-.69a.3.3,0,0,1-.24-.34.32.32,0,0,1,.37-.23c.94.19,1.94.42,3,.7a.29.29,0,0,1,.21.36A.3.3,0,0,1,146,144.79Zm-9-1.13a.31.31,0,0,1-.31-.26.3.3,0,0,1,.28-.32c.54,0,1.07-.07,1.56-.07s1,0,1.55.07a.3.3,0,0,1,.28.31.29.29,0,0,1-.33.26q-.79-.06-1.5-.06c-.47,0-1,0-1.5.06Z"/><path class="cls-2" d="M186.86,167.59h-.07a.3.3,0,0,1-.24-.35c.12-.5.21-.91.27-1.24-.26-.24-.6-.52-1-.85a.27.27,0,0,1,0-.4.32.32,0,0,1,.43,0q.73.58,1.17,1a.24.24,0,0,1,.08.24c-.06.37-.16.83-.3,1.43A.3.3,0,0,1,186.86,167.59Z"/><path class="cls-2" d="M186.15,196.51a.32.32,0,0,1-.31-.22l-.29-1.15c-.15-.57-.3-1.14-.44-1.72a.28.28,0,0,1,.23-.34.3.3,0,0,1,.37.21c.14.58.29,1.15.44,1.71l.3,1.15a.29.29,0,0,1-.23.35Zm-1.45-5.74a.3.3,0,0,1-.3-.23c-.25-1.08-.46-2-.62-2.9a.28.28,0,0,1,.25-.33.3.3,0,0,1,.36.23c.16.86.36,1.81.61,2.88a.28.28,0,0,1-.23.34Zm-1-5.81a.31.31,0,0,1-.31-.27c-.05-.54-.07-1.05-.07-1.49s0-1,.07-1.5a.31.31,0,0,1,.34-.26.29.29,0,0,1,.28.31c-.05.53-.08,1-.08,1.45s0,.91.08,1.44a.31.31,0,0,1-.28.32Zm.43-5.87H184a.29.29,0,0,1-.25-.33c.16-.87.36-1.82.62-2.9a.3.3,0,0,1,.37-.22.28.28,0,0,1,.23.34c-.25,1.07-.45,2-.61,2.88A.3.3,0,0,1,184.08,179.09Zm1.33-5.76h-.08a.3.3,0,0,1-.23-.34c.17-.64.33-1.27.49-1.89l.25-1a.31.31,0,0,1,.38-.21.28.28,0,0,1,.22.34l-.25,1c-.16.61-.32,1.24-.48,1.88A.31.31,0,0,1,185.41,173.33Z"/><path class="cls-2" d="M186,201.75a.33.33,0,0,1-.23-.1.28.28,0,0,1,0-.41c.41-.32.75-.61,1-.84-.06-.33-.15-.74-.27-1.25a.29.29,0,0,1,.24-.34.3.3,0,0,1,.37.22c.14.59.24,1.06.3,1.42a.27.27,0,0,1-.08.25c-.29.27-.68.6-1.17,1A.37.37,0,0,1,186,201.75Z"/><path class="cls-2" d="M138.46,223.38c-.49,0-1,0-1.56-.07a.29.29,0,0,1-.28-.31.3.3,0,0,1,.34-.26c.52,0,1,.06,1.5.06s1,0,1.5-.06a.29.29,0,0,1,.33.26.28.28,0,0,1-.27.31C139.47,223.36,139,223.38,138.46,223.38Zm-4.55-.5h-.07c-.93-.18-1.94-.42-3-.7a.3.3,0,0,1-.22-.36.31.31,0,0,1,.39-.19c1,.27,2,.51,2.94.69a.28.28,0,0,1,.24.34A.31.31,0,0,1,133.91,222.88Zm9.1,0a.3.3,0,0,1-.3-.22.28.28,0,0,1,.24-.34c.92-.18,1.91-.42,2.94-.69a.3.3,0,0,1,.38.19.29.29,0,0,1-.21.36c-1,.28-2.05.51-3,.7Zm-15-1.56h-.11c-.92-.3-1.89-.64-2.88-1a.27.27,0,0,1-.17-.37.31.31,0,0,1,.4-.16c1,.36,1.94.69,2.86,1a.28.28,0,0,1,.19.36A.31.31,0,0,1,128,221.31Zm20.86,0a.3.3,0,0,1-.29-.19.27.27,0,0,1,.19-.36c.92-.3,1.88-.63,2.86-1a.31.31,0,0,1,.4.16.28.28,0,0,1-.18.37c-1,.36-2,.7-2.88,1Zm-26.56-2.07-.12,0c-.91-.36-1.85-.76-2.8-1.17a.27.27,0,0,1-.15-.38.33.33,0,0,1,.41-.14c.94.41,1.88.8,2.78,1.17a.27.27,0,0,1,.16.37A.31.31,0,0,1,122.33,219.24Zm32.26,0a.31.31,0,0,1-.28-.18.28.28,0,0,1,.16-.38c.9-.36,1.84-.75,2.78-1.16a.32.32,0,0,1,.41.14.28.28,0,0,1-.15.38c-.95.41-1.89.81-2.8,1.17Zm-37.81-2.4a.35.35,0,0,1-.14,0l-2.73-1.3a.28.28,0,0,1-.13-.39.33.33,0,0,1,.42-.12c.92.45,1.84.89,2.72,1.29a.29.29,0,0,1,.14.39A.33.33,0,0,1,116.78,216.84Zm43.36,0a.29.29,0,0,1-.28-.16.27.27,0,0,1,.14-.38c.88-.41,1.8-.84,2.72-1.29a.33.33,0,0,1,.42.12.28.28,0,0,1-.13.39c-.93.45-1.85.89-2.74,1.29A.31.31,0,0,1,160.14,216.83Zm-48.78-2.63a.26.26,0,0,1-.15,0l-2-1-.71-.37a.27.27,0,0,1-.11-.39.33.33,0,0,1,.42-.11l.7.37,2,1a.29.29,0,0,1,.12.39A.31.31,0,0,1,111.36,214.2Zm54.2,0a.33.33,0,0,1-.27-.15.28.28,0,0,1,.12-.39l2-1,.71-.37a.32.32,0,0,1,.42.11.28.28,0,0,1-.12.39l-.7.37-2,1A.28.28,0,0,1,165.56,214.2ZM106,211.38a.3.3,0,0,1-.15,0c-.88-.48-1.76-1-2.62-1.48a.27.27,0,0,1-.1-.39.31.31,0,0,1,.42-.09c.86.49,1.74,1,2.61,1.47a.28.28,0,0,1,.11.4A.32.32,0,0,1,106,211.38Zm64.83,0a.31.31,0,0,1-.26-.14.27.27,0,0,1,.11-.39c.87-.48,1.74-1,2.61-1.47a.31.31,0,0,1,.42.09.27.27,0,0,1-.1.39c-.86.5-1.74,1-2.62,1.48A.29.29,0,0,1,170.87,211.37Zm-70-3a.33.33,0,0,1-.16,0c-.87-.52-1.73-1.05-2.56-1.57a.28.28,0,0,1-.09-.4.34.34,0,0,1,.43-.08c.83.53,1.69,1.05,2.55,1.57a.26.26,0,0,1,.09.39A.31.31,0,0,1,100.84,208.38Zm75.23,0a.3.3,0,0,1-.26-.13.27.27,0,0,1,.1-.39c.86-.52,1.71-1,2.54-1.57a.32.32,0,0,1,.43.08.27.27,0,0,1-.08.4c-.83.52-1.7,1.05-2.56,1.57A.33.33,0,0,1,176.07,208.37Zm-80.3-3.18a.41.41,0,0,1-.18-.05c-.88-.58-1.71-1.15-2.48-1.68a.29.29,0,0,1-.06-.41.34.34,0,0,1,.44-.05c.75.53,1.58,1.09,2.46,1.67a.27.27,0,0,1,.07.4A.3.3,0,0,1,95.77,205.19Zm85.38,0a.32.32,0,0,1-.26-.12.27.27,0,0,1,.08-.4c.88-.58,1.7-1.14,2.46-1.67a.32.32,0,0,1,.43.05.27.27,0,0,1-.06.41c-.76.53-1.59,1.1-2.48,1.68A.34.34,0,0,1,181.15,205.19Z"/></g><path class="cls-20" d="M138.46,220.22c-5.51,0-15.31-3.45-26.87-9.47a155.89,155.89,0,0,1-16-9.48,4.29,4.29,0,0,1-1.79-4.62c0-.22.11-.44.17-.65,1.13-4.39,2.42-9.37,2.42-12.8s-1.29-8.42-2.42-12.81c-.06-.21-.12-.43-.17-.65a4.29,4.29,0,0,1,1.79-4.62,157.75,157.75,0,0,1,16-9.48c11.56-6,21.36-9.47,26.87-9.47s15.3,3.45,26.87,9.47a157.4,157.4,0,0,1,15.95,9.48,4.29,4.29,0,0,1,1.8,4.62c-.06.22-.12.44-.17.65-1.14,4.39-2.43,9.37-2.43,12.81s1.29,8.41,2.43,12.8c.05.21.11.43.17.65a4.29,4.29,0,0,1-1.8,4.62,155.55,155.55,0,0,1-15.95,9.48C153.76,216.77,144,220.22,138.46,220.22Z"/><g class="cls-21"><path class="cls-22" d="M94.31,170.32c.06.25.12.49.19.74a140.37,140.37,0,0,1,87.92,0l.09-.37.1-.37.17-.65a4,4,0,0,0-1.68-4.32,154.44,154.44,0,0,0-15.92-9.46c-11.53-6-21.26-9.43-26.72-9.43s-15.2,3.44-26.72,9.43a154.44,154.44,0,0,0-15.92,9.46,4,4,0,0,0-1.68,4.32Z"/></g><path class="cls-23" d="M94.31,170.32c.06.25.12.49.19.74,9.64-3.19,24.69-9.21,43.45-9.28,19.28-.07,34.71,6.05,44.47,9.28l.09-.37.1-.37.17-.65a4,4,0,0,0-1.68-4.32,154.44,154.44,0,0,0-15.92-9.46c-11.53-6-21.26-9.43-26.72-9.43s-15.2,3.44-26.72,9.43a154.44,154.44,0,0,0-15.92,9.46,4,4,0,0,0-1.68,4.32Z"/><path class="cls-24" d="M182.61,196.12c-.06-.25-.13-.49-.19-.74a140.37,140.37,0,0,1-87.92,0l-.1.37-.09.37-.17.65a4,4,0,0,0,1.68,4.32,153.14,153.14,0,0,0,15.92,9.45c11.52,6,21.26,9.44,26.72,9.44s15.19-3.44,26.72-9.44a153.14,153.14,0,0,0,15.92-9.45,4,4,0,0,0,1.68-4.32Z"/><path class="cls-25" d="M182.61,196.12c-.06-.25-.13-.49-.19-.74-9.64,3.19-24.7,9.21-43.46,9.28-19.27.06-34.71-6-44.46-9.28l-.1.37-.09.37-.17.65a4,4,0,0,0,1.68,4.32,153.14,153.14,0,0,0,15.92,9.45c11.52,6,21.26,9.44,26.72,9.44s15.19-3.44,26.72-9.44a153.14,153.14,0,0,0,15.92-9.45,4,4,0,0,0,1.68-4.32Z"/><g class="cls-26"><path class="cls-27" d="M140.41,220.1a30.93,30.93,0,0,0,3.65-.68c-1.85.09-3.72.14-5.6.14s-3.75-.05-5.61-.14a31.7,31.7,0,0,0,3.65.68l2,0Z"/><path class="cls-27" d="M146.68,218.7c.75-.22,1.53-.47,2.33-.75q-5.2.5-10.55.5T127.9,218c.8.28,1.58.53,2.33.75,2.72.2,5.46.31,8.23.31S144,218.9,146.68,218.7Z"/><path class="cls-27" d="M151.22,217.16c.7-.26,1.41-.54,2.14-.84a109.34,109.34,0,0,1-29.8,0c.72.3,1.44.58,2.13.84a110.47,110.47,0,0,0,25.53,0Z"/><path class="cls-27" d="M155.46,215.45l2.09-.92a108,108,0,0,1-38.18,0c.71.32,1.4.63,2.09.92a108.51,108.51,0,0,0,34,0Z"/><path class="cls-27" d="M159.64,213.57c.7-.33,1.41-.67,2.13-1a106.64,106.64,0,0,1-46.63,0c.72.36,1.43.7,2.13,1a107.91,107.91,0,0,0,42.37,0Z"/><path class="cls-27" d="M164,211.46l1.38-.71.87-.46a105.29,105.29,0,0,1-55.48,0l.87.46,1.37.71a106.39,106.39,0,0,0,51,0Z"/><path class="cls-27" d="M168.53,209l2.43-1.36a103.81,103.81,0,0,1-65,0l2.44,1.36a104.72,104.72,0,0,0,60.14,0Z"/><path class="cls-27" d="M173.51,206.21c1-.56,1.85-1.11,2.71-1.64a102.48,102.48,0,0,1-75.52,0c.86.53,1.76,1.08,2.71,1.64a103.27,103.27,0,0,0,70.1,0Z"/><path class="cls-27" d="M179.06,202.77q1.22-.79,2.22-1.5a5.37,5.37,0,0,0,.45-.35,100.91,100.91,0,0,1-86.55,0,5.37,5.37,0,0,0,.45.35c.67.47,1.42,1,2.23,1.49a101.6,101.6,0,0,0,81.2,0Z"/><path class="cls-27" d="M182.61,199.86A4.34,4.34,0,0,0,183,199a99.51,99.51,0,0,1-89.06,0,4.3,4.3,0,0,0,.37.82,100.14,100.14,0,0,0,88.31,0Z"/><path class="cls-27" d="M183.16,198.31a3.67,3.67,0,0,0,.05-.66,98.13,98.13,0,0,1-89.51,0,4.89,4.89,0,0,0,0,.66,98.74,98.74,0,0,0,89.41,0Z"/><path class="cls-27" d="M183.16,197c0-.13,0-.26-.08-.39l-.05-.18a96.83,96.83,0,0,1-89.15,0l0,.18a2.7,2.7,0,0,0-.08.39,97.42,97.42,0,0,0,89.4,0Z"/><path class="cls-27" d="M182.89,195.91l-.15-.56a95.57,95.57,0,0,1-88.57,0c0,.19-.09.38-.14.56a96.24,96.24,0,0,0,88.86,0Z"/><path class="cls-27" d="M182.6,194.79l-.15-.56a94.31,94.31,0,0,1-88,0c0,.19-.09.37-.14.56a95,95,0,0,0,88.28,0Z"/><path class="cls-27" d="M182.31,193.66c-.05-.19-.1-.38-.14-.57a92.94,92.94,0,0,1-87.42,0c0,.19-.1.38-.14.57a93.65,93.65,0,0,0,87.7,0Z"/><path class="cls-27" d="M182,192.53c0-.19-.09-.38-.13-.57A91.75,91.75,0,0,1,95,192c0,.19-.09.38-.14.57a92.36,92.36,0,0,0,87.13,0Z"/><path class="cls-27" d="M181.75,191.39c-.05-.19-.09-.39-.13-.58a90.39,90.39,0,0,1-86.32,0c0,.19-.09.39-.14.58a91.07,91.07,0,0,0,86.59,0Z"/><path class="cls-27" d="M181.49,190.24c-.05-.19-.09-.38-.13-.58a89.1,89.1,0,0,1-85.81,0l-.12.58a89.73,89.73,0,0,0,86.06,0Z"/><path class="cls-27" d="M181.24,189.09l-.12-.59a87.82,87.82,0,0,1-85.33,0c0,.2-.07.39-.11.59a88.48,88.48,0,0,0,85.56,0Z"/><path class="cls-27" d="M181,187.92c0-.2-.07-.4-.11-.6a86.5,86.5,0,0,1-84.89,0c0,.2-.07.4-.1.6a87.17,87.17,0,0,0,85.1,0Z"/><path class="cls-27" d="M180.8,186.73c0-.21-.06-.41-.08-.61a85.2,85.2,0,0,1-84.52,0l-.09.61a85.92,85.92,0,0,0,84.69,0Z"/><path class="cls-27" d="M180.64,185.51c0-.21,0-.41-.07-.61a83.94,83.94,0,0,1-84.23,0l-.06.61a84.57,84.57,0,0,0,84.36,0Z"/><path class="cls-27" d="M180.52,184.27l0-.64a82.64,82.64,0,0,1-84.07,0c0,.21,0,.42,0,.64a83.31,83.31,0,0,0,84.13,0Z"/><path class="cls-27" d="M138.46,194A80.28,80.28,0,0,1,96.4,182.28c0,.24,0,.46,0,.69a82,82,0,0,0,84.06,0c0-.23,0-.45,0-.69A80.25,80.25,0,0,1,138.46,194Z"/><path class="cls-27" d="M180.56,181.59c0-.24.05-.47.08-.72a80,80,0,0,1-84.36,0c0,.25,0,.48.07.72a80.67,80.67,0,0,0,84.21,0Z"/><path class="cls-27" d="M180.74,180.14c0-.25.07-.5.11-.75a78.73,78.73,0,0,1-84.79,0c0,.25.08.5.12.75a79.36,79.36,0,0,0,84.56,0Z"/><path class="cls-27" d="M181,178.63l.15-.79a77.39,77.39,0,0,1-85.35,0c.06.26.11.53.15.79a78.06,78.06,0,0,0,85,0Z"/><path class="cls-27" d="M181.29,177l.18-.81a76.05,76.05,0,0,1-86,0c.06.27.11.54.17.81a76.68,76.68,0,0,0,85.67,0Z"/><path class="cls-27" d="M181.66,175.4c.06-.28.13-.57.2-.85a74.7,74.7,0,0,1-86.8,0c.07.28.13.57.2.85a75.41,75.41,0,0,0,86.4,0Z"/><path class="cls-27" d="M182.07,173.69c.07-.3.14-.59.22-.88a73.37,73.37,0,0,1-87.66,0c.07.29.14.58.22.88a74.07,74.07,0,0,0,87.22,0Z"/><path class="cls-27" d="M182.52,171.91c.07-.3.15-.61.23-.91a72,72,0,0,1-88.59,0l.24.91a72.71,72.71,0,0,0,88.12,0Z"/><path class="cls-27" d="M183,170.07l.09-.33a3.78,3.78,0,0,0,.1-.57,70.68,70.68,0,0,1-89.45,0,5.72,5.72,0,0,0,.11.57l.08.33a71.37,71.37,0,0,0,89.07,0Z"/><path class="cls-27" d="M183.2,168.41a4.92,4.92,0,0,0-.1-.67,69.41,69.41,0,0,1-89.28,0,3.75,3.75,0,0,0-.11.67,70.06,70.06,0,0,0,89.49,0Z"/><path class="cls-27" d="M182.91,167.14a3.71,3.71,0,0,0-.26-.53,68.13,68.13,0,0,1-88.39,0,5.2,5.2,0,0,0-.26.53,68.74,68.74,0,0,0,88.91,0Z"/><path class="cls-27" d="M182.33,166.12a5,5,0,0,0-.37-.43,66.85,66.85,0,0,1-87,0,5.08,5.08,0,0,0-.38.43,67.45,67.45,0,0,0,87.75,0Z"/><path class="cls-27" d="M181.53,165.3l-.25-.18-.23-.16a65.59,65.59,0,0,1-85.18,0l-.24.16-.24.18a66.19,66.19,0,0,0,86.14,0Z"/><path class="cls-27" d="M180.56,164.62l-.5-.33a64.31,64.31,0,0,1-83.21,0l-.49.33a65,65,0,0,0,84.2,0Z"/><path class="cls-27" d="M179.57,164l-.5-.32a63.08,63.08,0,0,1-81.22,0l-.5.32a63.7,63.7,0,0,0,82.22,0Z"/><path class="cls-27" d="M178.57,163.31l-.51-.32a61.83,61.83,0,0,1-79.21,0l-.5.32a62.46,62.46,0,0,0,80.22,0Z"/><path class="cls-27" d="M177.56,162.66l-.51-.32a60.57,60.57,0,0,1-77.19,0l-.5.32a61.2,61.2,0,0,0,78.2,0Z"/><path class="cls-27" d="M176.54,162l-.52-.31a59.35,59.35,0,0,1-75.13,0l-.51.31a59.94,59.94,0,0,0,76.16,0Z"/><path class="cls-27" d="M175.51,161.39l-.52-.32a58.07,58.07,0,0,1-73.06,0l-.52.32a58.7,58.7,0,0,0,74.1,0Z"/><path class="cls-27" d="M174.47,160.76l-.52-.31a56.84,56.84,0,0,1-71,0l-.53.31a57.45,57.45,0,0,0,72,0Z"/><path class="cls-27" d="M173.42,160.14l-.52-.31a55.6,55.6,0,0,1-68.88,0c-.18.1-.36.2-.53.31a56.2,56.2,0,0,0,69.93,0Z"/><path class="cls-27" d="M172.37,159.52l-.54-.31a54.33,54.33,0,0,1-66.75,0l-.53.31a55,55,0,0,0,67.82,0Z"/><path class="cls-27" d="M171.3,158.9l-.54-.3a53.09,53.09,0,0,1-64.61,0l-.53.3a53.71,53.71,0,0,0,65.68,0Z"/><path class="cls-27" d="M170.22,158.29l-.54-.3a51.84,51.84,0,0,1-62.45,0l-.54.3a52.46,52.46,0,0,0,63.53,0Z"/><path class="cls-27" d="M169.14,157.69l-.55-.3a50.59,50.59,0,0,1-60.26,0l-.55.3a51.24,51.24,0,0,0,61.36,0Z"/><path class="cls-27" d="M168,157.09l-.56-.3a49.38,49.38,0,0,1-58,0l-.55.3a50,50,0,0,0,59.16,0Z"/><path class="cls-27" d="M166.93,156.49l-.56-.3a48.12,48.12,0,0,1-55.82,0l-.56.3a48.74,48.74,0,0,0,56.94,0Z"/><path class="cls-27" d="M165.8,155.89l-.47-.25-.09,0a46.89,46.89,0,0,1-53.56,0l-.09,0-.48.25a47.46,47.46,0,0,0,54.69,0Z"/><path class="cls-27" d="M164.67,155.3l-.58-.29a45.64,45.64,0,0,1-51.27,0l-.57.29a46.22,46.22,0,0,0,52.42,0Z"/><path class="cls-27" d="M163.51,154.71l-.58-.29a44.36,44.36,0,0,1-48.94,0l-.59.29a45,45,0,0,0,50.11,0Z"/><path class="cls-27" d="M162.34,154.13l-.59-.29a43.14,43.14,0,0,1-46.59,0l-.59.29a43.78,43.78,0,0,0,47.77,0Z"/><path class="cls-27" d="M161.15,153.55l-.6-.29a41.9,41.9,0,0,1-44.19,0l-.6.29a42.54,42.54,0,0,0,45.39,0Z"/><path class="cls-27" d="M159.94,153l-.61-.29a40.63,40.63,0,0,1-41.74,0L117,153a41.29,41.29,0,0,0,43,0Z"/><path class="cls-27" d="M158.71,152.39l-.63-.29a39.44,39.44,0,0,1-39.25,0l-.62.29a40,40,0,0,0,40.5,0Z"/><path class="cls-27" d="M157.44,151.81l-.64-.28a38.2,38.2,0,0,1-36.68,0l-.65.28a38.75,38.75,0,0,0,38,0Z"/><path class="cls-27" d="M156.15,151.24l-.67-.29a36.92,36.92,0,0,1-34,0l-.66.29a37.54,37.54,0,0,0,35.38,0Z"/><path class="cls-27" d="M154.81,150.67l-.69-.29a35.7,35.7,0,0,1-31.33,0l-.68.29a36.31,36.31,0,0,0,32.7,0Z"/><path class="cls-27" d="M153.42,150.09l-.72-.28a34.48,34.48,0,0,1-28.49,0l-.72.28a35,35,0,0,0,29.93,0Z"/><path class="cls-27" d="M152,149.52l-.75-.29a33.2,33.2,0,0,1-25.52,0l-.75.29a33.88,33.88,0,0,0,27,0Z"/><path class="cls-27" d="M150.44,148.94l-.81-.29a31.89,31.89,0,0,1-22.34,0l-.81.29a32.61,32.61,0,0,0,24,0Z"/><path class="cls-27" d="M148.79,148.36l-.89-.29a30.68,30.68,0,0,1-18.89,0l-.88.29a31.36,31.36,0,0,0,20.66,0Z"/><path class="cls-27" d="M147,147.77l-1-.29a29.82,29.82,0,0,1-15,0l-1,.29a30.05,30.05,0,0,0,17,0Z"/><path class="cls-27" d="M144.86,147.17l-1.26-.31a28.34,28.34,0,0,1-10.28,0l-1.26.31a28.8,28.8,0,0,0,12.8,0Z"/><path class="cls-27" d="M142.05,146.54a22.51,22.51,0,0,0-2.71-.34l-.88,0-.89,0a22.62,22.62,0,0,0-2.7.34,27,27,0,0,0,7.18,0Z"/></g><g class="cls-26"><path class="cls-27" d="M140.41,220.1a30.93,30.93,0,0,0,3.65-.68c-1.85.09-3.72.14-5.6.14s-3.75-.05-5.61-.14a31.7,31.7,0,0,0,3.65.68l2,0Z"/><path class="cls-27" d="M146.68,218.7c.75-.22,1.53-.47,2.33-.75q-5.2.5-10.55.5T127.9,218c.8.28,1.58.53,2.33.75,2.72.2,5.46.31,8.23.31S144,218.9,146.68,218.7Z"/><path class="cls-27" d="M151.22,217.16c.7-.26,1.41-.54,2.14-.84a109.34,109.34,0,0,1-29.8,0c.72.3,1.44.58,2.13.84a110.47,110.47,0,0,0,25.53,0Z"/><path class="cls-27" d="M155.46,215.45l2.09-.92a108,108,0,0,1-38.18,0c.71.32,1.4.63,2.09.92a108.51,108.51,0,0,0,34,0Z"/><path class="cls-27" d="M159.64,213.57c.7-.33,1.41-.67,2.13-1a106.64,106.64,0,0,1-46.63,0c.72.36,1.43.7,2.13,1a107.91,107.91,0,0,0,42.37,0Z"/><path class="cls-27" d="M164,211.46l1.38-.71.87-.46a105.29,105.29,0,0,1-55.48,0l.87.46,1.37.71a106.39,106.39,0,0,0,51,0Z"/><path class="cls-27" d="M168.53,209l2.43-1.36a103.81,103.81,0,0,1-65,0l2.44,1.36a104.72,104.72,0,0,0,60.14,0Z"/><path class="cls-27" d="M173.51,206.21c1-.56,1.85-1.11,2.71-1.64a102.48,102.48,0,0,1-75.52,0c.86.53,1.76,1.08,2.71,1.64a103.27,103.27,0,0,0,70.1,0Z"/><path class="cls-27" d="M179.06,202.77q1.22-.79,2.22-1.5a5.37,5.37,0,0,0,.45-.35,100.91,100.91,0,0,1-86.55,0,5.37,5.37,0,0,0,.45.35c.67.47,1.42,1,2.23,1.49a101.6,101.6,0,0,0,81.2,0Z"/><path class="cls-27" d="M182.61,199.86A4.34,4.34,0,0,0,183,199a99.51,99.51,0,0,1-89.06,0,4.3,4.3,0,0,0,.37.82,100.14,100.14,0,0,0,88.31,0Z"/><path class="cls-27" d="M183.16,198.31a3.67,3.67,0,0,0,.05-.66,98.13,98.13,0,0,1-89.51,0,4.89,4.89,0,0,0,0,.66,98.74,98.74,0,0,0,89.41,0Z"/><path class="cls-27" d="M183.16,197c0-.13,0-.26-.08-.39l-.05-.18a96.83,96.83,0,0,1-89.15,0l0,.18a2.7,2.7,0,0,0-.08.39,97.42,97.42,0,0,0,89.4,0Z"/><path class="cls-27" d="M182.89,195.91l-.15-.56a95.57,95.57,0,0,1-88.57,0c0,.19-.09.38-.14.56a96.24,96.24,0,0,0,88.86,0Z"/><path class="cls-27" d="M182.6,194.79l-.15-.56a94.31,94.31,0,0,1-88,0c0,.19-.09.37-.14.56a95,95,0,0,0,88.28,0Z"/><path class="cls-27" d="M182.31,193.66c-.05-.19-.1-.38-.14-.57a92.94,92.94,0,0,1-87.42,0c0,.19-.1.38-.14.57a93.65,93.65,0,0,0,87.7,0Z"/><path class="cls-27" d="M182,192.53c0-.19-.09-.38-.13-.57A91.75,91.75,0,0,1,95,192c0,.19-.09.38-.14.57a92.36,92.36,0,0,0,87.13,0Z"/><path class="cls-27" d="M181.75,191.39c-.05-.19-.09-.39-.13-.58a90.39,90.39,0,0,1-86.32,0c0,.19-.09.39-.14.58a91.07,91.07,0,0,0,86.59,0Z"/><path class="cls-27" d="M181.49,190.24c-.05-.19-.09-.38-.13-.58a89.1,89.1,0,0,1-85.81,0l-.12.58a89.73,89.73,0,0,0,86.06,0Z"/><path class="cls-27" d="M181.24,189.09l-.12-.59a87.82,87.82,0,0,1-85.33,0c0,.2-.07.39-.11.59a88.48,88.48,0,0,0,85.56,0Z"/><path class="cls-27" d="M181,187.92c0-.2-.07-.4-.11-.6a86.5,86.5,0,0,1-84.89,0c0,.2-.07.4-.1.6a87.17,87.17,0,0,0,85.1,0Z"/><path class="cls-27" d="M180.8,186.73c0-.21-.06-.41-.08-.61a85.2,85.2,0,0,1-84.52,0l-.09.61a85.92,85.92,0,0,0,84.69,0Z"/><path class="cls-27" d="M180.64,185.51c0-.21,0-.41-.07-.61a83.94,83.94,0,0,1-84.23,0l-.06.61a84.57,84.57,0,0,0,84.36,0Z"/><path class="cls-27" d="M180.52,184.27l0-.64a82.64,82.64,0,0,1-84.07,0c0,.21,0,.42,0,.64a83.31,83.31,0,0,0,84.13,0Z"/><path class="cls-27" d="M138.46,194A80.28,80.28,0,0,1,96.4,182.28c0,.24,0,.46,0,.69a82,82,0,0,0,84.06,0c0-.23,0-.45,0-.69A80.25,80.25,0,0,1,138.46,194Z"/><path class="cls-27" d="M180.56,181.59c0-.24.05-.47.08-.72a80,80,0,0,1-84.36,0c0,.25,0,.48.07.72a80.67,80.67,0,0,0,84.21,0Z"/><path class="cls-27" d="M180.74,180.14c0-.25.07-.5.11-.75a78.73,78.73,0,0,1-84.79,0c0,.25.08.5.12.75a79.36,79.36,0,0,0,84.56,0Z"/><path class="cls-27" d="M181,178.63l.15-.79a77.39,77.39,0,0,1-85.35,0c.06.26.11.53.15.79a78.06,78.06,0,0,0,85,0Z"/><path class="cls-27" d="M181.29,177l.18-.81a76.05,76.05,0,0,1-86,0c.06.27.11.54.17.81a76.68,76.68,0,0,0,85.67,0Z"/><path class="cls-27" d="M181.66,175.4c.06-.28.13-.57.2-.85a74.7,74.7,0,0,1-86.8,0c.07.28.13.57.2.85a75.41,75.41,0,0,0,86.4,0Z"/><path class="cls-27" d="M182.07,173.69c.07-.3.14-.59.22-.88a73.37,73.37,0,0,1-87.66,0c.07.29.14.58.22.88a74.07,74.07,0,0,0,87.22,0Z"/><path class="cls-27" d="M182.52,171.91c.07-.3.15-.61.23-.91a72,72,0,0,1-88.59,0l.24.91a72.71,72.71,0,0,0,88.12,0Z"/><path class="cls-27" d="M183,170.07l.09-.33a3.78,3.78,0,0,0,.1-.57,70.68,70.68,0,0,1-89.45,0,5.72,5.72,0,0,0,.11.57l.08.33a71.37,71.37,0,0,0,89.07,0Z"/><path class="cls-27" d="M183.2,168.41a4.92,4.92,0,0,0-.1-.67,69.41,69.41,0,0,1-89.28,0,3.75,3.75,0,0,0-.11.67,70.06,70.06,0,0,0,89.49,0Z"/><path class="cls-27" d="M182.91,167.14a3.71,3.71,0,0,0-.26-.53,68.13,68.13,0,0,1-88.39,0,5.2,5.2,0,0,0-.26.53,68.74,68.74,0,0,0,88.91,0Z"/><path class="cls-27" d="M182.33,166.12a5,5,0,0,0-.37-.43,66.85,66.85,0,0,1-87,0,5.08,5.08,0,0,0-.38.43,67.45,67.45,0,0,0,87.75,0Z"/><path class="cls-27" d="M181.53,165.3l-.25-.18-.23-.16a65.59,65.59,0,0,1-85.18,0l-.24.16-.24.18a66.19,66.19,0,0,0,86.14,0Z"/><path class="cls-27" d="M180.56,164.62l-.5-.33a64.31,64.31,0,0,1-83.21,0l-.49.33a65,65,0,0,0,84.2,0Z"/><path class="cls-27" d="M179.57,164l-.5-.32a63.08,63.08,0,0,1-81.22,0l-.5.32a63.7,63.7,0,0,0,82.22,0Z"/><path class="cls-27" d="M178.57,163.31l-.51-.32a61.83,61.83,0,0,1-79.21,0l-.5.32a62.46,62.46,0,0,0,80.22,0Z"/><path class="cls-27" d="M177.56,162.66l-.51-.32a60.57,60.57,0,0,1-77.19,0l-.5.32a61.2,61.2,0,0,0,78.2,0Z"/><path class="cls-27" d="M176.54,162l-.52-.31a59.35,59.35,0,0,1-75.13,0l-.51.31a59.94,59.94,0,0,0,76.16,0Z"/><path class="cls-27" d="M175.51,161.39l-.52-.32a58.07,58.07,0,0,1-73.06,0l-.52.32a58.7,58.7,0,0,0,74.1,0Z"/><path class="cls-27" d="M174.47,160.76l-.52-.31a56.84,56.84,0,0,1-71,0l-.53.31a57.45,57.45,0,0,0,72,0Z"/><path class="cls-27" d="M173.42,160.14l-.52-.31a55.6,55.6,0,0,1-68.88,0c-.18.1-.36.2-.53.31a56.2,56.2,0,0,0,69.93,0Z"/><path class="cls-27" d="M172.37,159.52l-.54-.31a54.33,54.33,0,0,1-66.75,0l-.53.31a55,55,0,0,0,67.82,0Z"/><path class="cls-27" d="M171.3,158.9l-.54-.3a53.09,53.09,0,0,1-64.61,0l-.53.3a53.71,53.71,0,0,0,65.68,0Z"/><path class="cls-27" d="M170.22,158.29l-.54-.3a51.84,51.84,0,0,1-62.45,0l-.54.3a52.46,52.46,0,0,0,63.53,0Z"/><path class="cls-27" d="M169.14,157.69l-.55-.3a50.59,50.59,0,0,1-60.26,0l-.55.3a51.24,51.24,0,0,0,61.36,0Z"/><path class="cls-27" d="M168,157.09l-.56-.3a49.38,49.38,0,0,1-58,0l-.55.3a50,50,0,0,0,59.16,0Z"/><path class="cls-27" d="M166.93,156.49l-.56-.3a48.12,48.12,0,0,1-55.82,0l-.56.3a48.74,48.74,0,0,0,56.94,0Z"/><path class="cls-27" d="M165.8,155.89l-.47-.25-.09,0a46.89,46.89,0,0,1-53.56,0l-.09,0-.48.25a47.46,47.46,0,0,0,54.69,0Z"/><path class="cls-27" d="M164.67,155.3l-.58-.29a45.64,45.64,0,0,1-51.27,0l-.57.29a46.22,46.22,0,0,0,52.42,0Z"/><path class="cls-27" d="M163.51,154.71l-.58-.29a44.36,44.36,0,0,1-48.94,0l-.59.29a45,45,0,0,0,50.11,0Z"/><path class="cls-27" d="M162.34,154.13l-.59-.29a43.14,43.14,0,0,1-46.59,0l-.59.29a43.78,43.78,0,0,0,47.77,0Z"/><path class="cls-27" d="M161.15,153.55l-.6-.29a41.9,41.9,0,0,1-44.19,0l-.6.29a42.54,42.54,0,0,0,45.39,0Z"/><path class="cls-27" d="M159.94,153l-.61-.29a40.63,40.63,0,0,1-41.74,0L117,153a41.29,41.29,0,0,0,43,0Z"/><path class="cls-27" d="M158.71,152.39l-.63-.29a39.44,39.44,0,0,1-39.25,0l-.62.29a40,40,0,0,0,40.5,0Z"/><path class="cls-27" d="M157.44,151.81l-.64-.28a38.2,38.2,0,0,1-36.68,0l-.65.28a38.75,38.75,0,0,0,38,0Z"/><path class="cls-27" d="M156.15,151.24l-.67-.29a36.92,36.92,0,0,1-34,0l-.66.29a37.54,37.54,0,0,0,35.38,0Z"/><path class="cls-27" d="M154.81,150.67l-.69-.29a35.7,35.7,0,0,1-31.33,0l-.68.29a36.31,36.31,0,0,0,32.7,0Z"/><path class="cls-27" d="M153.42,150.09l-.72-.28a34.48,34.48,0,0,1-28.49,0l-.72.28a35,35,0,0,0,29.93,0Z"/><path class="cls-27" d="M152,149.52l-.75-.29a33.2,33.2,0,0,1-25.52,0l-.75.29a33.88,33.88,0,0,0,27,0Z"/><path class="cls-27" d="M150.44,148.94l-.81-.29a31.89,31.89,0,0,1-22.34,0l-.81.29a32.61,32.61,0,0,0,24,0Z"/><path class="cls-27" d="M148.79,148.36l-.89-.29a30.68,30.68,0,0,1-18.89,0l-.88.29a31.36,31.36,0,0,0,20.66,0Z"/><path class="cls-27" d="M147,147.77l-1-.29a29.82,29.82,0,0,1-15,0l-1,.29a30.05,30.05,0,0,0,17,0Z"/><path class="cls-27" d="M144.86,147.17l-1.26-.31a28.34,28.34,0,0,1-10.28,0l-1.26.31a28.8,28.8,0,0,0,12.8,0Z"/><path class="cls-27" d="M142.05,146.54a22.51,22.51,0,0,0-2.71-.34l-.88,0-.89,0a22.62,22.62,0,0,0-2.7.34,27,27,0,0,0,7.18,0Z"/></g><path class="cls-28" d="M271.18,254.38a.58.58,0,0,0,.27.76.55.55,0,0,0,.75-.25v0l5.47-11.35a.55.55,0,0,0-.25-.75h0a.58.58,0,0,0-.77.26Z"/><path class="cls-28" d="M263.94,251.21a.59.59,0,0,0,.27.77.58.58,0,0,0,.76-.27l7.43-15.41a.58.58,0,0,0-.27-.76.55.55,0,0,0-.75.25v0Z"/><path class="cls-29" d="M242.84,304.84l14.51-30.95-5.81-8.81a11.08,11.08,0,0,1-1.92-5.41c-.19-1.51-1.75-10.68-1.62-11.52.32-2.22,3.29-1.72,4.46-1.22,2.16.92,4.06,5.34,5,9.21.34,1.44,2,2.88,2.46,2L271,233.81c1.7-3.73,3.21-3.89,4.51-3.38a3,3,0,0,1,2.32,2.72,21.13,21.13,0,0,1-1.3,7.21s2.69-7.82,6.44-6,.74,7.32.09,9.42c-.41,1.32,1.22-2.68,3.43-3.85.93-.5,2.32.06,3.12.84,2.72,2.64-1.23,9.42-1.23,9.42s1.76-3,3.49-3a3.15,3.15,0,0,1,2.59,2.61,7.29,7.29,0,0,1-1,5.8l-15.24,26.19-12,34Z"/><path class="cls-30" d="M282.94,259.89a.58.58,0,0,0,.27.76.57.57,0,0,0,.76-.26L289.44,249a.57.57,0,0,0-.26-.76.55.55,0,0,0-.75.25v0Z"/><path class="cls-30" d="M275.7,256.73a.58.58,0,0,0,.27.76.55.55,0,0,0,.75-.25v0l7.43-15.4a.58.58,0,0,0-.27-.76.57.57,0,0,0-.76.26Z"/><path class="cls-30" d="M268.67,254.07a.57.57,0,1,0,.9.7.54.54,0,0,0,.1-.2l8.77-17.87a.57.57,0,1,0-.91-.69.76.76,0,0,0-.09.18Z"/><path class="cls-7" d="M254,281.08s-38.23,79.12-35.88,93.54,5.25,20.62,17.89,16.48,38.44-98.86,38.44-98.86Z"/><path class="cls-28" d="M28.29,241.54a.53.53,0,1,1-.9.55.2.2,0,0,1,0-.08l-5.21-10.54a.53.53,0,0,1,.33-.67.51.51,0,0,1,.62.21Z"/><path class="cls-28" d="M35,238.53a.54.54,0,0,1-1,.47l-7-14.29a.54.54,0,0,1,.25-.72.53.53,0,0,1,.71.24h0Z"/><path class="cls-29" d="M52.77,292.09C39,263.38,41.36,259.6,41.36,259.6L46.72,252l2.07-5.26.59-8c.16-2.14.73-2.66-1.23-3.77-4.11-2.31-5.88,3.2-7,8.05-.32,1.34-1.88,2.71-2.28,1.86L28.36,222.33c-1.62-3.47-3-3.61-4.24-3.11A2.8,2.8,0,0,0,22,221.78a19.21,19.21,0,0,0,1.27,6.71s-2.57-7.26-6.06-5.58-.62,6.82,0,8.78c.39,1.22-1.17-2.49-3.24-3.58a2.79,2.79,0,0,0-2.92.81c-2.52,2.49,1.23,8.77,1.23,8.77S10.61,234.9,9,234.92c-1,0-2,.92-2.4,2.45a6.81,6.81,0,0,0,1,5.39L22,267l11.5,31.6Z"/><path class="cls-30" d="M17.38,246.78a.54.54,0,0,1-.24.72.53.53,0,0,1-.71-.24h0l-5.24-10.52a.56.56,0,0,1,.24-.73.54.54,0,0,1,.71.25h0Z"/><path class="cls-30" d="M24.1,243.77a.55.55,0,0,1-.24.72.53.53,0,0,1-.71-.24h0L16.09,230a.53.53,0,0,1,.24-.71.55.55,0,0,1,.72.24Z"/><path class="cls-30" d="M30.63,241.23a.53.53,0,0,1-.29.69.52.52,0,0,1-.65-.21l-8.38-16.57a.52.52,0,0,1,.17-.73.53.53,0,0,1,.73.17l0,.08Z"/><path class="cls-7" d="M25.76,277.29S41.06,373.56,52.7,382.4s18,11.35,24.31-.37S44.22,269,44.22,269Z"/></g></g></svg>