<?xml version="1.0" encoding="utf-8"?>
<!-- Generator: Adobe Illustrator 22.1.0, SVG Export Plug-In . SVG Version: 6.00 Build 0)  -->
<svg version="1.1" id="Layer_1" xmlns="http://www.w3.org/2000/svg" xmlns:xlink="http://www.w3.org/1999/xlink" x="0px" y="0px"
	 viewBox="0 0 300.5 821.3" style="enable-background:new 0 0 300.5 821.3;" xml:space="preserve">
<style type="text/css">
	.st0{fill:#F8BA8C;}
	.st1{fill:#FFFFFF;}
	.st2{fill:#22366B;}
	.st3{fill:#18294C;}
	.st4{fill:#22AA66;}
	.st5{fill:#229958;}
	.st6{fill:#209E5F;}
	.st7{fill:#24BF77;}
	.st8{fill:#25AF66;}
	.st9{fill:#E3AC81;}
	.st10{fill:#F4A876;}
	.st11{fill:#EBE0DA;}
	.st12{fill:#793B16;}
	.st13{fill:#EADBD5;}
	.st14{fill:#EADBD8;}
	.st15{fill:#5B2C0B;}
	.st16{fill:#803E19;}
	.st17{opacity:0.1;}
	.st18{fill:#60D2A5;}
	.st19{fill:#57C193;}
	.st20{fill:#45BF87;}
	.st21{fill:#028251;}
	.st22{fill:#07AF72;}
	.st23{opacity:0.25;}
	.st24{fill:#8DD9B8;}
	.st25{fill:#F7E88F;}
	.st26{fill:#F2D453;}
	.st27{opacity:0.39;fill:#FFFFFF;enable-background:new    ;}
	.st28{opacity:0.42;fill:#F9F9F9;enable-background:new    ;}
	.st29{fill:#2B96F4;}
</style>
<g id="BACKGROUND">
</g>
<g id="OBJECT">
	<path class="st0" d="M233.9,477.2l-17-2.4c0,0,10-84.7,5.4-109.7c-5.1-27.7-17.9-55.3-17.9-55.3s-6.9-55.1,6.3-49.7
		s32.8,66.9,36.6,105.5C250.1,395.3,233.9,477.2,233.9,477.2z"/>
	<g>
		<g>
			<g>
				<g>
					<path class="st1" d="M80.5,812c24.4-6.5,45.1-11.1,50-14.3c3.3-2.2-0.1-10.7-0.1-10.7l-26.3-13.7l-54.4,22.9c0,0-1.3,5.4,1,8.6
						C54.6,810,68.2,815.2,80.5,812z"/>
					<path class="st1" d="M235.6,812c-24.4-6.5-45.1-11.1-50-14.3c-3.3-2.2,0.1-10.7,0.1-10.7l26.3-13.7l54.4,22.9
						c0,0,1.3,5.4-1,8.6C261.5,810,247.8,815.2,235.6,812z"/>
					<path class="st2" d="M236.1,806.1c-24.4-6.5-45.2-11-50-14.3s0-24.9,0-24.9l26.4,0.5c0,0,36.7,21.5,47.3,23.7
						C278.9,794.9,255.7,811.3,236.1,806.1z"/>
					<path class="st3" d="M265.6,793.5c-5.4,4-13.4,6.2-19.8,5.9c-5.9-0.3-11.4-2.1-16.8-4.4c-5.6-2.3-12.3-4.5-17.3-8
						c-7.2-5.1-10.4-12.9-15.2-19.9l-10.5-0.2c0,0-4.8,21.5,0,24.9c4.8,3.3,25.6,7.9,50,14.3C252.7,810.5,271.9,799.3,265.6,793.5z"
						/>
					<path class="st4" d="M157,496.7c6.7,10.5,18.8,58.9,20.7,119.6c2.1,65.5-1.9,157.2,4.8,161.1c11.3,6.4,37.8-3.3,40.1-10.5
						c-0.5-13.9-11.7-207.7-5.3-288.7C179.8,456.4,141.7,472.8,157,496.7z"/>
					<path class="st5" d="M198.1,767.6c-7.8-9.2-7.9-25-9.3-36.4c-2.2-18.1,0.5-35.9-2-54.1c-1.6-11.8-5.7-28.6-0.4-39.9
						c1.9-4,7.4-5.7,10.2-8.7c1.9-2-4.3-3.6-5.5-4.4c-1.7-1-2.9-3.2-3.7-5c-2.3-5.4-1.7-12.5-2.3-18.3c-1.1-9.8-1.9-19.7-2.4-29.5
						c-1.2-22.8,3.6-63-24.2-71.6c6.9,14.8,17.4,60.5,19.2,116.7c2.1,65.5-1.9,157.2,4.8,161.1c8,4.6,23.7,1,32.9-4.1
						C209,774.1,202.9,773.2,198.1,767.6z"/>
					<path class="st2" d="M80.5,806.1c24.4-6.5,45.2-11,50-14.3s0-24.9,0-24.9l-26.4,0.5c0,0-36.7,21.5-47.3,23.7
						C37.7,794.9,60.9,811.3,80.5,806.1z"/>
					<path class="st3" d="M130.5,766.9l-14,0.3c2.4,7.1,0.2,15.5-7.9,19.7c-8.2,4.3-17.6,9-26.6,10.8c-10.1,2.1-20.8-1-31-1.2
						c-0.5,0-0.9-0.1-1.3-0.3c0.2,5.9,16.4,13.7,30.8,9.9c24.4-6.5,45.2-11,50-14.3C135.3,788.4,130.5,766.9,130.5,766.9z"/>
					<path class="st4" d="M153.8,494.9c-6.7,10.5-15.8,60.8-17.7,121.5c-2.1,65.5,3.5,157.2-3.2,161.1c-11.3,6.4-37.8-3.3-40.1-10.5
						c0.5-14.3,9.7-207.4,3.2-288.8C133.5,456.3,169,470.9,153.8,494.9z"/>
					<path class="st5" d="M153.8,494.9c0.5-0.8,0.9-1.5,1.3-2.3c-19.2,13-24.8,40.2-27.1,62.3c-1.6,15.6-0.2,31-1.4,46.5
						c-0.5,6.1-0.9,13.2-5,18.1c-2.6,3.1-5.9,5.3-9.3,7.4c3.5,2.3,7.8,4.3,9.5,8c3.3,7-1.2,11-1,18c0.3,10.1,2.6,20.1,2.6,30.3
						c0,10.3-1.1,20.5-0.9,30.8c0.3,15.1,5.4,33.8-3.4,47.5c-6,9.2-12.5,10.9-21,10.7c8.9,5.6,26.2,10,34.7,5.1
						c6.7-3.8,1.1-95.6,3.2-161.1C138,555.7,147.1,505.4,153.8,494.9z"/>
					<path class="st4" d="M217.3,478.2c-3.2,26.1-117,27.9-120.2,4.9c-1.5-10.9-1.5-26-0.5-34.8c0.3-2.4,0.6-4.3,1.1-5.6
						c2-6,112.9-18.2,116.1-1.7c0.4,0,1,1.7,1.7,4.5C217.1,452.4,218.9,465.7,217.3,478.2z"/>
					<path class="st6" d="M215.5,445.6c-1.7,1.2-3.6,2-5.6,2.8c-29.4,11.8-62.5,11.2-93.6,5.4c-6.3-1.2-13.5-2.5-19.7-5.4
						c0.3-2.4,0.6-4.3,1.1-5.6c2-6,112.9-18.2,116.1-1.7C214.2,441.1,214.9,442.8,215.5,445.6z"/>
					<path class="st7" d="M213.9,441.1c-5,3.8-14.5,6.6-26.1,8.4c-7,1.1-14.7,1.8-22.6,2.1c-1.6,0.1-3.2,0.1-4.8,0.2
						c-0.8,0-1.6,0-2.4,0c-24.8,0.4-50-2.6-60.2-9.1c-6.7-14.6-2.9-126.5-2.9-126.5s-0.1-0.2-0.2-0.6c0-0.1-0.1-0.2-0.1-0.3
						c-0.1-0.2-0.1-0.4-0.2-0.6c0,0,0,0,0-0.1l0,0c0-0.1-0.1-0.2-0.1-0.3c-0.2-0.8-0.5-1.7-0.9-2.8c-0.1-0.2-0.1-0.4-0.2-0.7
						c-0.1-0.4-0.3-0.9-0.4-1.4c-0.1-0.2-0.1-0.4-0.2-0.6c0-0.1,0-0.1,0-0.2c-0.1-0.4-0.2-0.7-0.3-1.1c0,0,0,0,0-0.1l0,0
						c0-0.2-0.1-0.3-0.1-0.5c-0.1-0.3-0.2-0.5-0.2-0.8c-0.6-2-1.2-4.2-1.9-6.5c-0.2-0.8-0.4-1.6-0.7-2.5c-0.3-0.9-0.5-1.9-0.8-2.9
						s-0.5-2-0.8-2.9c-0.1-0.4-0.2-0.8-0.3-1.2c0-0.1,0-0.2-0.1-0.3c-0.2-0.9-0.5-1.9-0.7-2.8c0-0.1,0-0.1,0-0.2
						c-0.2-0.6-0.3-1.3-0.5-1.9c-2.7-11.2-4.5-21.6-2.5-23.8c0.3-0.4,0.8-0.8,1.3-1.2l0,0c5.5-4.6,18.7-9.2,31.5-12.9
						c2-0.6,3.9-1.1,5.8-1.6l0,0c5.6-1.5,10.9-2.8,15.1-3.8c5.9-1.4,9.8-2.2,9.8-2.2s11.4,2.5,24.6,6.1c0.2,0.1,0.3,0.1,0.3,0.1l0,0
						c1.1,0.3,2.3,0.6,3.4,0.9c13.9,3.9,28.9,8.8,34.2,13.1l0,0c0.6,0.5,1.1,1,1.5,1.5c1.2,1.8,0.7,9.3-0.3,20.4
						c-0.2,2.1-0.4,4.3-0.6,6.6c-0.1,0.9-0.2,1.8-0.2,2.7c-0.1,1.6-0.3,3.3-0.4,5c-0.1,1.1-0.2,2.3-0.3,3.5
						c-0.3,3.9-0.6,8.1-0.8,12.4c-0.1,1.1-0.1,2.3-0.2,3.5c-0.1,1-0.1,2.1-0.1,3.1c0,0.1,0,0.2,0,0.3v0.1c-0.1,2.4-0.2,4.9-0.2,7.4
						c0,1.2-0.1,2.4-0.1,3.6c-0.1,6.6,0,13.4,0.4,20.3c0.1,1.7,0.2,3.4,0.3,5.1c0,0.8,0.1,1.7,0.2,2.5c0.2,3.2,0.4,6.3,0.7,9.4
						c0.1,0.8,0.1,1.5,0.2,2.2c0.2,2.1,0.4,4.2,0.5,6.3c0.1,0.7,0.1,1.4,0.2,2.1c0.3,3,0.6,5.9,0.8,8.7c0.1,1.1,0.2,2.2,0.4,3.3
						c0.3,2.7,0.6,5.3,0.8,7.9c0.2,1.5,0.3,2.9,0.5,4.3c0.2,1.5,0.3,3,0.5,4.4C215,421.6,215.8,432.9,213.9,441.1z"/>
					<path class="st6" d="M175.6,246.7c-2.7,6-12.9,27.2-23.6,29.5c0,0-24.9-1.5-35.6-29c2-0.6,3.9-1.1,5.8-1.6l0,0
						c0.2-0.1,0.4-0.2,0.6-0.3c0.1-0.1,0.3-0.2,0.4-0.3c1.3-0.9,3.3-2.5,5.4-5.4c0.1-0.2,0.2-0.3,0.3-0.5c0.2-0.3,0.4-0.6,0.6-1
						c0.1-0.2,0.2-0.4,0.3-0.6c0.5-1,0.9-2,1.2-3.2c2.1-0.1,4.6-0.2,7.2-0.3l0,0c7.4-0.2,16.2,0,23.4,1.1c0.7,2.3,1.5,3.9,2.6,5.5
						c2.3,3.3,6.3,4.7,7.4,5c0.2,0.1,0.3,0.1,0.3,0.1l0,0C173.3,246.1,174.4,246.4,175.6,246.7z"/>
					<path class="st6" d="M197.1,323c0.5,17.3,3.3,34.2,7.6,51c2.1,8.1,3.8,16.3,5.9,24.4c0.7,2.7,1.7,5.3,2.8,7.9
						c-1.5-14.8-3.8-33.3-5-56.2c-1.4-26.4,1-51.6,2.5-68.5C203.8,294.6,196.6,308.8,197.1,323z"/>
					<path class="st8" d="M157.6,442.8c-25,0.9-44.8-11.7-48.8-24.9c-4-13.1-2.8-69.5-4.6-94.1c-1.2-17-7.5-30.5-18.7-41.2
						c3.5,15.5,9.3,33.7,9.3,33.7S91,428.2,97.7,442.8c14.5,9.2,59.5,11.4,90.1,6.7C177.4,449,167.6,442.4,157.6,442.8z"/>
					<path class="st9" d="M172.2,245.7L172.2,245.7c-0.2,0.6-8.9,23.9-22,27c-0.8-0.2-1.7-0.4-2.5-0.6c-0.2-0.1-0.4-0.1-0.6-0.2
						c-0.3-0.1-0.6-0.2-0.8-0.3c-0.4-0.1-0.7-0.3-1.1-0.4c-0.3-0.1-0.7-0.3-1-0.5c-12-5.9-20.6-21-22.3-24.2
						c-0.1-0.1-0.1-0.2-0.2-0.3c0-0.1-0.1-0.1-0.1-0.2c0-0.1,0-0.1,0-0.1s0,0,0.1-0.1s0.3-0.1,0.5-0.2l0,0c0.2-0.1,0.4-0.2,0.6-0.3
						c0.1-0.1,0.3-0.2,0.4-0.3c1.3-0.9,3.3-2.5,5.4-5.4c0.1-0.2,0.2-0.3,0.3-0.5c0.2-0.3,0.4-0.6,0.6-1c0.1-0.2,0.2-0.4,0.3-0.6
						c0.5-1,0.9-2,1.2-3.2c0.1-0.5,0.3-1.1,0.4-1.8c0-0.3,0.1-0.5,0.1-0.8c0,0,0-0.1,0-0.2c0.1-0.5,0.1-0.9,0.2-1.5
						c0.2-2.3,0.2-5.2,0-8.7c0-0.4,0-0.8-0.1-1.3c0-0.2,0-0.4,0-0.7c0-0.1,0-0.2,0-0.4l0,0c0-0.1,0-0.2,0-0.3s0-0.3,0-0.5
						c0-0.1,0-0.1,0-0.2c0-0.1,0-0.3,0-0.5l0,0c0-0.3,0-0.6-0.1-1c0-0.3,0-0.5-0.1-0.8c0-0.2,0-0.4,0-0.6c0-0.3,0-0.6-0.1-0.9
						c0-0.5-0.1-1.1-0.1-1.6c0-0.1,0-0.2,0-0.4c0-0.1,0-0.2,0-0.3l0,0c0-0.1,0-0.1,0-0.2c0-0.2,0-0.4,0-0.6c0-0.2,0-0.4-0.1-0.6
						c0-0.2,0-0.4-0.1-0.6c0-0.2,0-0.4-0.1-0.6c0-0.2,0-0.4-0.1-0.6c0-0.2,0-0.3-0.1-0.5l0,0l0,0c0-0.1,0-0.3,0-0.4v-0.1
						c0-0.2,0-0.4-0.1-0.6c0-0.2,0-0.4-0.1-0.6c0-0.2,0-0.4-0.1-0.6c0-0.2,0-0.4-0.1-0.6c0-0.2,0-0.4-0.1-0.6c0-0.1,0-0.3,0-0.5V204
						c0-0.2,0-0.4-0.1-0.6c0-0.2,0-0.4-0.1-0.6c0-0.2,0-0.4-0.1-0.6c0-0.2,0-0.4-0.1-0.6c0-0.2,0-0.3-0.1-0.5V201
						c0-0.2,0-0.4-0.1-0.6c0-0.2,0-0.4-0.1-0.6c0-0.2,0-0.4,0-0.6s0-0.4,0-0.6c0-0.2,0-0.4,0-0.5l0,0c0-0.2,0-0.4,0-0.6
						c0-0.2,0-0.4,0-0.6l0,0c0-0.2,0-0.4,0-0.6v0.7c0-0.2,0-0.3,0-0.5s0-0.4,0-0.6c0-0.2,0-0.4,0-0.6l0,0c0-0.2,0-0.4,0-0.6
						c0-0.2,0-0.4,0-0.5c0-0.2,0-0.4,0.1-0.6c0-0.2,0-0.4,0-0.6c0-0.2,0-0.4,0.1-0.6c0-0.2,0-0.4,0.1-0.6c0-0.2,0.1-0.4,0.1-0.5
						v-0.2c0-0.1,0-0.3,0.1-0.4c0-0.2,0.1-0.4,0.1-0.5c0-0.2,0.1-0.4,0.1-0.6c0-0.2,0.1-0.4,0.1-0.5c0-0.2,0.1-0.3,0.1-0.5l0,0
						c0.1-0.2,0.1-0.4,0.2-0.5c0-0.2,0.1-0.4,0.2-0.5c0.1-0.2,0.1-0.4,0.2-0.5c0.1-0.2,0.1-0.4,0.2-0.5c0.1-0.2,0.1-0.4,0.2-0.5
						c0.1-0.2,0.2-0.4,0.2-0.5c0.1-0.2,0.2-0.4,0.2-0.5c0.1-0.2,0.2-0.3,0.3-0.5s0.2-0.3,0.3-0.5s0.2-0.4,0.3-0.5
						c0.1-0.2,0.2-0.3,0.3-0.5s0.2-0.3,0.3-0.5s0.2-0.3,0.4-0.5c0.1-0.2,0.3-0.3,0.4-0.5c0.1-0.2,0.3-0.4,0.4-0.5
						c0.2-0.2,0.3-0.3,0.5-0.5s0.3-0.3,0.5-0.5s0.3-0.3,0.5-0.5l0,0c0.2-0.2,0.4-0.3,0.6-0.5c0.2-0.2,0.4-0.3,0.7-0.5
						s0.5-0.3,0.8-0.5s0.6-0.3,0.9-0.5c0.4-0.2,0.7-0.4,1.1-0.5l0,0c0.5-0.2,1-0.4,1.5-0.5c0.2-0.1,0.4-0.1,0.6-0.1
						c0.2,0,0.4-0.1,0.6-0.1c1.2-0.2,2.5-0.2,3.7,0c0.2,0,0.4,0.1,0.6,0.1c0.1,0,0.2,0,0.4,0.1l0,0c0.5,0.1,1,0.3,1.5,0.5
						c0.4,0.1,0.7,0.3,1.1,0.5l0,0c0.3,0.1,0.6,0.3,0.9,0.5c0.3,0.1,0.5,0.3,0.8,0.5c0.2,0.1,0.5,0.3,0.7,0.5
						c0.2,0.1,0.4,0.3,0.6,0.5c0.2,0.1,0.4,0.3,0.6,0.5c0.2,0.2,0.3,0.3,0.5,0.5s0.3,0.3,0.5,0.5c0.1,0.2,0.3,0.3,0.4,0.5
						c0.1,0.2,0.3,0.3,0.4,0.5c0.1,0.2,0.3,0.3,0.4,0.5c0.1,0.2,0.2,0.3,0.4,0.5c0.1,0.2,0.2,0.3,0.3,0.5s0.2,0.3,0.3,0.5
						s0.2,0.3,0.3,0.5s0.2,0.4,0.3,0.5c0.1,0.2,0.2,0.3,0.2,0.5c0.1,0.2,0.2,0.3,0.2,0.5l0,0c0,0.1,0.1,0.1,0.1,0.2
						c0,0.1,0.1,0.2,0.1,0.4c0.1,0.2,0.1,0.3,0.2,0.5c0.1,0.2,0.1,0.4,0.2,0.5c0,0,0,0,0,0.1s0.1,0.3,0.1,0.5
						c0.1,0.2,0.1,0.4,0.2,0.5c0.1,0.2,0.1,0.4,0.1,0.5c0,0.2,0.1,0.4,0.1,0.6c0,0.2,0.1,0.4,0.1,0.5l0,0c0,0.2,0.1,0.4,0.1,0.5
						c0,0.2,0.1,0.4,0.1,0.5c0,0.2,0.1,0.4,0.1,0.6c0,0.2,0,0.4,0.1,0.5c0,0.2,0,0.4,0.1,0.6c0,0.2,0,0.4,0.1,0.6c0,0.2,0,0.4,0,0.5
						c0,0.2,0,0.4,0,0.6c0,0.2,0,0.4,0,0.6v0.1c0,0.1,0,0.3,0,0.4c0,0.2,0,0.4,0,0.6c0,0.2,0,0.4,0,0.6l0,0c0,0.2,0,0.4,0,0.6
						c0,0.2,0,0.4,0,0.6c0,0.2,0,0.4,0,0.6v0.1c0,0.2,0,0.3,0,0.5s0,0.4,0,0.6s0,0.4,0,0.6c0,0.2,0,0.4,0,0.6c0,0.2,0,0.4,0,0.6
						c0,0.2,0,0.4,0,0.6l0,0c0,0.2,0,0.4,0,0.6c0,0.2,0,0.4,0,0.6v0.6c0,0.2,0,0.4,0,0.6c0,0.2,0,0.4,0,0.6c0,0.2,0,0.4,0,0.6
						s0,0.4,0,0.6v0.6c0,0.2,0,0.4,0,0.5v0.6c0,0.2,0,0.4,0,0.6s0,0.4,0,0.6c0,0.2,0,0.4,0,0.5v0.6c0,0.2,0,0.4,0,0.6
						c0,0.2,0,0.4,0,0.6v0.4c0,2.3,0,4.3,0.1,6.2c0,0.2,0,0.4,0,0.6c0.2,8.3,0.8,13.4,1.8,17c0.7,2.3,1.5,3.9,2.6,5.5
						c2.3,3.3,6.3,4.7,7.4,5C172.1,245.7,172.2,245.7,172.2,245.7z"/>
					<path class="st10" d="M150.2,272.7c-0.8-0.2-1.7-0.4-2.5-0.6c-0.2-0.1-0.4-0.1-0.6-0.2c-0.3-0.1-0.6-0.2-0.8-0.3
						c-0.4-0.1-0.7-0.3-1.1-0.4c-0.3-0.1-0.7-0.3-1-0.5c-12.3-6-20.6-21-22.3-24.2c-0.1-0.1-0.1-0.2-0.2-0.3c0-0.1-0.1-0.1-0.1-0.2
						c0-0.1,0-0.1,0-0.1s0,0,0.1-0.1s0.3-0.1,0.5-0.2l0,0c0.2-0.1,0.4-0.2,0.6-0.3c0.1-0.1,0.3-0.2,0.4-0.3c1.3-0.9,3.3-2.5,5.4-5.4
						c0.1-0.2,0.2-0.3,0.3-0.5c0.2-0.3,0.4-0.6,0.6-1c0.1-0.2,0.2-0.4,0.3-0.6c0.5-1,0.9-2,1.2-3.2c0.1-0.5,0.3-1.1,0.4-1.8
						c0-0.3,0.1-0.5,0.1-0.8c0,0,0-0.1,0-0.2c0.1-0.5,0.1-0.9,0.2-1.5c0.2-2.3,0.2-5.2,0-8.7c0-0.4,0-0.8-0.1-1.3c0-0.2,0-0.4,0-0.7
						v-0.4l0,0c0-0.1,0-0.2,0-0.3s0-0.3,0-0.5c0-0.1,0-0.1,0-0.2c0-0.1,0-0.3,0-0.5c0-0.3,0-0.6-0.1-1c0-0.3,0-0.5-0.1-0.8
						c0-0.2,0-0.4,0-0.6c0-0.3,0-0.6-0.1-0.9c0-0.5-0.1-1.1-0.1-1.6c0-0.1,0-0.3,0-0.4c0-0.1,0-0.2,0-0.3l0,0c0-0.1,0-0.2,0-0.2
						c0-0.2,0-0.4-0.1-0.6c0-0.2,0-0.4,0-0.6c0-0.2,0-0.4,0-0.6c0-0.2,0-0.4-0.1-0.6c0-0.2,0-0.4-0.1-0.6c0-0.2,0-0.3-0.1-0.5l0,0
						c0-0.1,0-0.3,0-0.4v-0.1c0-0.2,0-0.4-0.1-0.6c0-0.2,0-0.4-0.1-0.6c0-0.2,0-0.4-0.1-0.6c0-0.2,0-0.4-0.1-0.6
						c0-0.2,0-0.4-0.1-0.6c0-0.2,0-0.3,0-0.5l0,0c0.9,0.2,1.8,0.5,2.6,0.8c0.6,0.2,1.2,0.5,1.8,0.8c0.5,0.2,0.9,0.4,1.4,0.7
						c0.4,0.2,0.8,0.4,1.1,0.6c0.3,0.2,0.6,0.4,0.9,0.6c0.3,0.2,0.5,0.4,0.8,0.6c0.2,0.2,0.5,0.4,0.7,0.6l0,0
						c0.2,0.2,0.4,0.4,0.6,0.6c0.2,0.2,0.4,0.4,0.5,0.6c0.2,0.2,0.3,0.4,0.4,0.6c0.1,0.2,0.3,0.4,0.4,0.6c0.1,0.2,0.2,0.4,0.3,0.6
						l0,0c0.1,0.2,0.2,0.4,0.3,0.6l0,0c0.1,0.2,0.2,0.4,0.2,0.6c0.1,0.2,0.1,0.4,0.2,0.5c0.1,0.2,0.1,0.4,0.2,0.6
						c0,0.2,0.1,0.4,0.1,0.5s0,0.3,0.1,0.4c0,0,0,0.1,0,0.2v0.1c0.1,0.8,0.1,1.7,0.1,2.6c0,0.2,0,0.4,0,0.6
						c-0.1,0.8-0.2,1.7-0.4,2.6c-0.9,4.3-3,8.8-4.3,12.8l0,0c-0.5,1.5-0.9,3-1.1,4.4c-0.1,0.9-0.1,2,0.1,3.3
						C138.7,251.1,146.8,268.5,150.2,272.7z"/>
					<path class="st0" d="M215.7,110c-2.4-0.4-5.7,0.6-8.8,2.5c0.2-8.6,0.4-17.8,0.5-27.4c0.5-34.4-35.7-51.5-65.7-47.9
						C104.2,41.6,79,56.9,79.8,87.3c0.2,8,0.7,19.3,1.5,31.8c-4.1-2.4-8.5-3.5-11.4-2.5c-7.4,2.4-8.1,11.5-4.1,23.5
						c4.1,12.1,12.7,20.2,19.4,18.2c1.8,12.6,3.9,19.8,7.3,28.1c5.8,14.1,31,34.9,51.8,34.9c25.3,0,50.7-26.9,54.1-38.4
						c2.9-9.8,5-16.6,6.3-29.7c0.2,0.1,0.5,0.2,0.7,0.2c7,1.3,14.7-8,17.2-20.7C225.2,120.3,223.3,111.4,215.7,110z"/>
					<path class="st10" d="M109.8,200.2c-4.8-5.8-10.9-15.3-12.6-22.6c-2.1-8.4-8.5-22.6-8.5-22.6s-16.3-2.8-18.7-16.9
						c-0.3-1.6-4.3-16.9-4.5-18.5c-3.1,4.1-2.8,11.5,0.3,20.5c4.1,12.1,12.7,20.2,19.4,18.2c1.8,12.6,3.9,19.8,7.3,28.1
						c5.2,12.5,25.7,30.4,44.8,34.1C126.8,215.4,117.2,209.2,109.8,200.2z"/>
					<path class="st11" d="M207.2,94.3c-3.7-10.2-2.4-20-11.2-22.4c-5.7-1.5-31.8,21.1-37.5,19.4c-12.7-3.6-23.3-8.2-33.4-16.8
						c-3.1-2.6-8.8-7.3-12.7-3.4c-2.5,2.5-8.6-2.8-10,0.4c-3.3,7.6-8-2.1-13.3,4.4c-1.6,2-4,13.1-5.9,14.8
						c-2.9,2.6,4.7,23.9,5.1,27.4c0.5,5.6,0.4,11.2,0.3,16.8c0.3-0.3,2.6,2.8,2.9,2.4c4.7-5.8,3.6-17.3,2.3-24.4
						c-2.7-14.9,8.9-26.5,8.9-26.5s5.1,6.2,13.4,9.9c11.2,5.1,25.6,8.4,39,9.1c17.5,0.9,34.5-11.6,38.1-7.5
						c3.6,4.2,0.8,28.8,0.8,28.8S209.9,101.6,207.2,94.3z"/>
					<path class="st12" d="M104.5,81.3c0,0-0.1-25.2-8.2-37.2c-5.9-7.3-22.5,20.1-22.5,20.1S63.3,80.6,71,117.4
						c17-2.2,17.2,12.3,18.2,21.8c1.7-1.8,4.8-4.8,4.8-4.8s-5.4-12.3-4.9-28.4C91.6,82.8,104.5,81.3,104.5,81.3z"/>
					<path class="st12" d="M197,82.2c0,0,5.1,19.4,1.5,30.7c-1.6,9.1-4.1,16.6-4.1,16.6l5.3,5.1c0.4-7.7,0.1-21.7,14.3-24.7
						c3.6-9.6-4.3-40.3-4.3-40.3L197,82.2z"/>
					<path class="st12" d="M121.9,113.9c-0.5,0.8-4.7-1.8-9.3-1.3c-8.4,0.9-11.6,6.1-11.6,6.1s1.4-9.6,11.6-11.3
						c5.7-1,8.9,0.2,9.9,1.2C123.6,109.6,122.4,113.1,121.9,113.9z"/>
					<path class="st11" d="M123.9,176.4c2.2,27.6,37.4,27.1,37.4,0H123.9z"/>
					<path class="st13" d="M84.3,333.6c-2.2,8.2-5.1,17.6-9.9,24.7c-1.4,2-2.9,4.9-5.2,6c-4.9,2.5-3.1,5.5,0,8.6
						c13,12.9,6.9,31.4,10.3,47.8c2,9.6,4.4,19.2,6.7,28.6c2,7.7,5.6,14.2,10.1,20.4c-3.4-17.8-15.5-82.6-13.3-104.3
						c2.9-28,13.3-56.6,13.3-56.6s0-4.4-0.3-10.6c-1.2,2.9-2.5,5.8-3.6,8.7C89,315.6,86.8,324.6,84.3,333.6z"/>
					<path class="st14" d="M142.6,155.9c-4.7,0-8.7-2-9.7-4.8c-0.2,0.5-0.3,0.9-0.3,1.4c0,3.4,4.5,6.2,10,6.2s10-2.8,10-6.2
						c0-0.5-0.1-0.9-0.3-1.4C151.3,153.8,147.4,155.9,142.6,155.9z"/>
					<path class="st14" d="M119.6,125.3c0,3.3-2.7,6-6,6s-6-2.7-6-6s2.7-6,6-6C117,119.2,119.6,121.9,119.6,125.3z"/>
					<path class="st15" d="M121.9,126.7c0,3.3-2.7,6-6,6s-6-2.7-6-6s2.7-6,6-6C119.2,120.7,121.9,123.4,121.9,126.7z"/>
					<path class="st12" d="M161.8,113.9c0.5,0.8,4.7-1.8,9.3-1.3c8.4,0.9,11.6,6.1,11.6,6.1s-1.4-9.6-11.6-11.3
						c-5.7-1-8.9,0.2-9.9,1.2C160.1,109.6,161.2,113.1,161.8,113.9z"/>
					<path class="st14" d="M164,125.3c0,3.3,2.7,6,6,6s6-2.7,6-6s-2.7-6-6-6C166.7,119.2,164,121.9,164,125.3z"/>
					<path class="st15" d="M161.8,126.7c0,3.3,2.7,6,6,6s6-2.7,6-6s-2.7-6-6-6S161.8,123.4,161.8,126.7z"/>
					<path class="st16" d="M211.2,58.6c0,27.5-15.2,41.5-58.6,41.5c-29.7,0-48.1-18.8-48.1-18.8l-8.2-37.2c0,0-1-7.3,11.3-10.9
						c6.7-1.9,32.7-6.9,53.2-0.8C182.7,10,211.3,34.2,211.2,58.6z"/>
					<polygon class="st12" points="199,138.1 193.2,132.8 194,130.3 199,135.6 					"/>
					<polygon class="st12" points="89.3,143.1 95.7,137.7 94.9,135.2 89.3,140.6 					"/>
					<path class="st1" d="M124,176.3c2.2,22.3,37.3,21.9,37.3,0H124z"/>
				</g>
			</g>
			<path class="st0" d="M233.9,477.2l-17-2.4c0,0,10-84.7,5.4-109.7c-5.1-27.7-17.9-55.3-17.9-55.3s-6.9-55.1,6.3-49.7
				s32.8,66.9,36.6,105.5C250.1,395.3,233.9,477.2,233.9,477.2z"/>
			<path class="st0" d="M80.4,478.1l16.8-3.8c0,0-16.8-83.6-14.2-108.9c2.9-28,13.3-56.6,13.3-56.6s1.3-55.2-11.3-48.7
				c-12.7,6.5-26.2,69.1-26.9,107.8C57.6,397.7,80.4,478.1,80.4,478.1z"/>
		</g>
		<path class="st1" d="M204.8,115.2c0,0-13.8,16.4-15.5,38.8s0.2,4,0.2,4l1.2-2.1C190.8,156,187.9,149.2,204.8,115.2z"/>
		<path class="st1" d="M103.1,155.9c5.1,7-11.1-28.9-18.3-35.9c-0.8-0.8-1.4,0-1.4,0l0.5,0.6C83.8,120.7,100.7,152.7,103.1,155.9z"
			/>
		<path class="st1" d="M204.7,153.2c0,0-8.3,33.8-10.3,37.3c-1.9,3.5,1,1.1,1,1.1S206.4,158.9,204.7,153.2z"/>
		<path class="st1" d="M85.2,158.3c0,0,7.4,30.8,10,31.9s-2.5,2.2-2.5,2.2S84.8,166.7,85.2,158.3z"/>
		<g>
			<g>
				<g>
					<g>
						<g>
							<g>
								<path class="st7" d="M196.1,160.5c0-2.6-35.2-24.8-51.9-24.8S92.3,158,92.3,160.5c0,2.6,3.7,13.2,3.7,18s-3.7,15.4-3.7,18
									s35.2,24.8,51.9,24.8s51.9-22.2,51.9-24.8s-3.7-13.2-3.7-18S196.1,163.1,196.1,160.5z"/>
							</g>
						</g>
						<g class="st17">
							<g>
								<g>
									<path class="st1" d="M96.6,197.1c-0.1,0-0.1,0-0.2-0.1c-0.5-0.4-0.9-0.7-1.2-1c-0.1-0.1-0.1-0.2-0.1-0.2
										c0.1-0.4,0.2-0.8,0.3-1.4c0-0.2,0.2-0.3,0.4-0.2c0.2,0,0.3,0.2,0.2,0.3c-0.1,0.5-0.2,0.9-0.3,1.2c0.3,0.2,0.6,0.5,1,0.8
										c0.1,0.1,0.1,0.3,0,0.4C96.8,197,96.7,197.1,96.6,197.1z"/>
								</g>
							</g>
							<g>
								<g>
									<path class="st1" d="M97.3,188.4c-0.2,0-0.3,0.1-0.4,0.2c-0.2,0.7-0.3,1.3-0.5,1.9l-0.2,0.9c0,0.1,0.1,0.3,0.2,0.3
										c0,0,0,0,0.1,0s0.3-0.1,0.3-0.2l0.2-0.9c0.2-0.6,0.3-1.3,0.5-1.9C97.6,188.6,97.5,188.4,97.3,188.4z M98.6,182.6
										c-0.2,0-0.3,0.1-0.4,0.2c-0.2,0.9-0.4,1.8-0.6,2.9c0,0.2,0.1,0.3,0.2,0.4h0.1c0.1,0,0.3-0.1,0.3-0.2c0.3-1.1,0.4-2,0.6-2.9
										C98.9,182.8,98.8,182.7,98.6,182.6z M99.3,177c0-0.2-0.2-0.3-0.3-0.3c-0.2,0-0.3,0.2-0.3,0.3c0,0.5,0.1,1,0.1,1.4
										s0,0.9-0.1,1.5c0,0.2,0.1,0.3,0.3,0.3l0,0c0.2,0,0.3-0.1,0.3-0.3c0-0.5,0.1-1,0.1-1.5C99.4,178.1,99.3,177.6,99.3,177z
										 M98.2,171.2c0-0.1-0.2-0.3-0.4-0.2c-0.2,0-0.3,0.2-0.2,0.3c0.3,1.1,0.5,2,0.6,2.9c0,0.1,0.2,0.2,0.3,0.2l0,0
										c0.2,0,0.3-0.2,0.3-0.3C98.7,173.2,98.5,172.3,98.2,171.2z M97,166.3l-0.2-0.9c0-0.1-0.2-0.2-0.4-0.2
										c-0.2,0-0.3,0.2-0.2,0.4l0.2,0.9c0.2,0.6,0.3,1.3,0.5,2c0,0.1,0.2,0.2,0.3,0.2h0.1c0.2,0,0.3-0.2,0.2-0.4
										C97.4,167.6,97.2,167,97,166.3z"/>
								</g>
							</g>
							<g>
								<g>
									<path class="st1" d="M95.8,162.9c-0.1,0-0.3-0.1-0.3-0.2c-0.1-0.6-0.2-1.1-0.3-1.4c0-0.1,0-0.2,0.1-0.2
										c0.3-0.3,0.7-0.6,1.2-1c0.1-0.1,0.3-0.1,0.4,0s0.1,0.3,0,0.4c-0.4,0.3-0.8,0.6-1,0.8c0.1,0.3,0.2,0.7,0.3,1.2
										C96.1,162.7,96,162.9,95.8,162.9L95.8,162.9z"/>
								</g>
							</g>
							<g>
								<g>
									<path class="st1" d="M101.7,156.7c-0.1-0.1-0.3-0.2-0.4-0.1c-0.9,0.6-1.7,1.2-2.5,1.7c-0.1,0.1-0.2,0.3-0.1,0.4
										c0.1,0.1,0.2,0.1,0.3,0.1c0.1,0,0.1,0,0.2-0.1c0.8-0.5,1.6-1.1,2.5-1.7C101.8,157,101.8,156.8,101.7,156.7z M189.6,158.3
										C189.6,158.3,189.5,158.3,189.6,158.3c-0.2-0.1-0.3-0.3-0.5-0.4c-0.6-0.4-1.3-0.9-2-1.4c-0.1-0.1-0.3-0.1-0.4,0.1
										c-0.1,0.1-0.1,0.3,0.1,0.4c0.8,0.5,1.6,1.1,2.3,1.6l0.1,0.1c0,0,0.1,0.1,0.2,0.1c0.1,0,0.1,0,0.2-0.1c0,0,0,0,0.1,0
										C189.7,158.6,189.7,158.4,189.6,158.3z M106.8,153.5c-0.1-0.1-0.3-0.2-0.4-0.1c-0.9,0.5-1.7,1.1-2.6,1.6
										c-0.1,0.1-0.1,0.2-0.1,0.3c0,0,0,0,0,0.1l0,0c0.1,0.1,0.2,0.1,0.3,0.1c0.1,0,0.1,0,0.2,0c0.8-0.5,1.7-1.1,2.5-1.6
										C106.9,153.8,106.9,153.6,106.8,153.5z M184.5,155c-0.8-0.5-1.7-1.1-2.6-1.6c-0.1-0.1-0.3,0-0.4,0.1
										c-0.1,0.1,0,0.3,0.1,0.4c0.9,0.5,1.7,1.1,2.5,1.6c0.1,0,0.1,0,0.2,0c0.1,0,0.2,0,0.3-0.1
										C184.7,155.2,184.7,155.1,184.5,155z M112,150.5c-0.1-0.1-0.3-0.2-0.4-0.1c-0.9,0.5-1.8,1-2.6,1.5
										c-0.1,0.1-0.2,0.3-0.1,0.4c0.1,0.1,0.2,0.1,0.3,0.1c0,0,0.1,0,0.2,0c0.9-0.5,1.7-1,2.6-1.5
										C112.1,150.8,112.1,150.6,112,150.5z M179.4,151.9c-0.9-0.5-1.8-1-2.6-1.5c-0.1-0.1-0.3,0-0.4,0.1c-0.1,0.1,0,0.3,0.1,0.4
										c0.9,0.5,1.8,1,2.6,1.5c0,0,0.1,0.1,0.2,0.1c0.1,0,0.2-0.1,0.3-0.1C179.6,152.1,179.5,152,179.4,151.9z M117.3,147.7
										c-0.1-0.1-0.3-0.2-0.4-0.1c-0.7,0.3-1.3,0.7-2,1c-0.2,0.1-0.5,0.3-0.7,0.4c-0.1,0.1-0.2,0.3-0.1,0.4c0,0.1,0.2,0.1,0.3,0.1
										c0.1,0,0.1,0,0.2,0c0.2-0.1,0.5-0.3,0.7-0.4c0.7-0.3,1.3-0.7,2-1C117.4,148,117.4,147.8,117.3,147.7z M174.1,149
										c-0.2-0.1-0.5-0.3-0.7-0.4c-0.7-0.3-1.3-0.7-2-1c-0.2-0.1-0.3,0-0.4,0.1c-0.1,0.1,0,0.3,0.1,0.4c0.7,0.3,1.3,0.7,2,1
										c0.2,0.1,0.5,0.2,0.7,0.4c0,0,0.1,0,0.2,0c0.1,0,0.2-0.1,0.3-0.1C174.3,149.2,174.3,149,174.1,149z M122.8,145.1
										c-0.1-0.1-0.3-0.2-0.4-0.1c-0.9,0.4-1.8,0.8-2.7,1.3c-0.1,0.1-0.2,0.3-0.1,0.4c0.1,0.1,0.2,0.2,0.3,0.2h0.1
										c0.9-0.4,1.8-0.9,2.7-1.3C122.8,145.4,122.9,145.2,122.8,145.1z M168.7,146.2c-0.9-0.5-1.8-0.9-2.7-1.3
										c-0.2-0.1-0.3,0-0.4,0.1c-0.1,0.1,0,0.3,0.1,0.4c0.9,0.4,1.8,0.8,2.7,1.3h0.1c0.1,0,0.2-0.1,0.3-0.2
										C168.9,146.5,168.9,146.3,168.7,146.2z M128.3,142.7c-0.1-0.1-0.3-0.2-0.4-0.1c-0.9,0.4-1.9,0.8-2.8,1.2
										c-0.2,0.1-0.2,0.2-0.2,0.4c0.1,0.1,0.2,0.2,0.3,0.2c0.1,0,0.1,0,0.1,0c0.9-0.4,1.9-0.8,2.8-1.2
										C128.3,143,128.4,142.8,128.3,142.7z M163.2,143.7c-1-0.4-1.9-0.8-2.8-1.2c-0.2-0.1-0.3,0-0.4,0.1c-0.1,0.1,0,0.3,0.2,0.4
										c0.9,0.4,1.8,0.8,2.8,1.2h0.1c0.1,0,0.2-0.1,0.3-0.2C163.5,143.9,163.4,143.8,163.2,143.7z M133.6,140.4
										c-0.9,0.3-1.9,0.6-2.9,1c-0.2,0.1-0.2,0.2-0.2,0.4c0,0.1,0.2,0.2,0.3,0.2h0.1c1-0.4,1.9-0.7,2.8-1c0.2-0.1,0.3-0.2,0.2-0.4
										C134,140.5,133.8,140.4,133.6,140.4z M157.6,141.4c-1-0.4-2-0.7-2.9-1c-0.2-0.1-0.3,0-0.4,0.2c-0.1,0.2,0,0.3,0.2,0.4
										c0.9,0.3,1.9,0.6,2.9,1h0.1c0.1,0,0.2-0.1,0.3-0.2C157.8,141.6,157.8,141.5,157.6,141.4z M139.6,138.9
										c-0.9,0.2-1.9,0.4-3,0.7c-0.2,0-0.3,0.2-0.2,0.4c0,0.1,0.2,0.2,0.3,0.2c0,0,0,0,0.1,0c1-0.3,2-0.5,2.9-0.7
										c0.2,0,0.3-0.2,0.2-0.3C139.9,138.9,139.7,138.8,139.6,138.9z M151.8,139.6c-1-0.3-2-0.5-3-0.7c-0.2,0-0.3,0.1-0.4,0.2
										c0,0.2,0.1,0.3,0.2,0.3c0.9,0.2,1.9,0.4,3,0.7h0.1c0.1,0,0.3-0.1,0.3-0.2C152,139.8,151.9,139.6,151.8,139.6z M145.7,138.4
										c-0.5,0-1.1-0.1-1.5-0.1c-0.5,0-1,0-1.6,0.1c-0.2,0-0.3,0.2-0.3,0.3s0.2,0.3,0.3,0.3l0,0c0.5,0,1-0.1,1.5-0.1s1,0,1.5,0.1
										c0.2,0,0.3-0.1,0.3-0.3C146,138.6,145.9,138.4,145.7,138.4z"/>
								</g>
							</g>
							<g>
								<g>
									<path class="st1" d="M192.6,162.9C192.6,162.9,192.5,162.9,192.6,162.9c-0.2,0-0.3-0.2-0.3-0.3c0.1-0.5,0.2-0.9,0.3-1.2
										c-0.3-0.2-0.6-0.5-1-0.8c-0.1-0.1-0.1-0.3,0-0.4c0.1-0.1,0.3-0.1,0.4,0c0.5,0.4,0.9,0.7,1.2,1c0.1,0.1,0.1,0.2,0.1,0.2
										c-0.1,0.4-0.2,0.8-0.3,1.4C192.9,162.8,192.7,162.9,192.6,162.9z"/>
								</g>
							</g>
							<g>
								<g>
									<path class="st1" d="M191.9,190.3c-0.2-0.6-0.3-1.1-0.4-1.7c0-0.2-0.2-0.3-0.4-0.2c-0.2,0-0.3,0.2-0.2,0.4
										c0.1,0.6,0.3,1.1,0.4,1.7l0.3,1.1c0,0.1,0.2,0.2,0.3,0.2c0,0,0,0,0.1,0c0.2,0,0.3-0.2,0.2-0.3L191.9,190.3z M190.1,182.9
										c0-0.2-0.2-0.3-0.4-0.2c-0.2,0-0.3,0.2-0.3,0.3c0.2,0.9,0.4,1.8,0.6,2.9c0,0.1,0.2,0.2,0.3,0.2c0,0,0,0,0.1,0
										c0.2,0,0.3-0.2,0.2-0.3C190.5,184.7,190.3,183.7,190.1,182.9z M189.7,177.1c0-0.2-0.1-0.3-0.3-0.3s-0.3,0.1-0.3,0.3
										c0,0.5-0.1,1-0.1,1.5s0,1,0.1,1.5c0,0.2,0.2,0.3,0.3,0.3l0,0c0.2,0,0.3-0.1,0.3-0.3c-0.1-0.5-0.1-1-0.1-1.5
										C189.6,178.1,189.6,177.6,189.7,177.1z M190.5,171c-0.2,0-0.3,0.1-0.4,0.2c-0.3,1.1-0.5,2-0.6,2.9c0,0.1,0.1,0.3,0.3,0.3
										h0.1c0.1,0,0.3-0.1,0.3-0.2c0.2-0.9,0.4-1.8,0.6-2.9C190.8,171.2,190.7,171,190.5,171z M191.9,165.2
										c-0.2,0-0.3,0.1-0.4,0.2l-0.3,1c-0.2,0.6-0.3,1.3-0.5,1.9c0,0.2,0.1,0.3,0.2,0.4c0,0,0,0,0.1,0s0.3-0.1,0.3-0.2
										c0.2-0.6,0.3-1.3,0.5-1.9l0.3-1C192.2,165.4,192.1,165.3,191.9,165.2z"/>
								</g>
							</g>
							<g>
								<g>
									<path class="st1" d="M191.7,197.1c-0.1,0-0.2,0-0.2-0.1c-0.1-0.1-0.1-0.3,0-0.4c0.4-0.3,0.8-0.6,1-0.8
										c-0.1-0.3-0.2-0.7-0.3-1.2c0-0.2,0.1-0.3,0.2-0.3c0.2,0,0.3,0.1,0.4,0.2c0.1,0.6,0.2,1.1,0.3,1.4c0,0.1,0,0.2-0.1,0.2
										C192.7,196.4,192.3,196.7,191.7,197.1C191.9,197.1,191.8,197.1,191.7,197.1z"/>
								</g>
							</g>
							<g>
								<g>
									<path class="st1" d="M145.7,218.1c-0.5,0-1,0.1-1.5,0.1c-0.3,0-0.7,0-1,0c-0.2,0-0.3,0-0.5,0s-0.3,0.1-0.3,0.3
										s0.1,0.3,0.3,0.3s0.3,0,0.5,0c0.4,0,0.7,0,1.1,0c0.5,0,1,0,1.6-0.1c0.2,0,0.3-0.2,0.3-0.3
										C146,218.2,145.9,218.1,145.7,218.1z M139.7,217.6c-0.9-0.2-1.9-0.4-2.9-0.7c-0.2,0-0.3,0-0.4,0.2c0,0.2,0,0.3,0.2,0.4
										c1,0.3,2,0.5,3,0.7h0.1c0.1,0,0.3-0.1,0.3-0.2C140,217.8,139.9,217.7,139.7,217.6z M151.6,216.9c-1,0.3-2,0.5-2.9,0.7
										c-0.2,0-0.3,0.2-0.2,0.3c0,0.1,0.2,0.2,0.3,0.2h0.1c0.9-0.2,2-0.4,3-0.7c0.2-0.1,0.3-0.2,0.2-0.4
										C152,217,151.8,216.9,151.6,216.9z M133.9,216.1c-0.8-0.2-1.6-0.5-2.4-0.8l0,0c-0.2,0-0.3-0.1-0.5-0.2
										c-0.2-0.1-0.3,0-0.4,0.2s0,0.3,0.2,0.4c0.3,0.1,0.5,0.2,0.8,0.3l0,0c0.7,0.3,1.4,0.5,2.1,0.7h0.1c0.1,0,0.2-0.1,0.3-0.2
										C134.1,216.3,134,216.1,133.9,216.1z M157.4,215.1c-1,0.4-1.9,0.7-2.9,1c-0.2,0.1-0.3,0.2-0.2,0.4c0,0.1,0.2,0.2,0.3,0.2
										h0.1c0.9-0.3,1.9-0.6,2.9-1c0.2-0.1,0.2-0.2,0.2-0.4S157.5,215,157.4,215.1z M128.2,214c-0.9-0.4-1.8-0.8-2.8-1.2
										c-0.2-0.1-0.3,0-0.4,0.1s0,0.3,0.1,0.4c1,0.4,1.9,0.8,2.8,1.2h0.1c0.1,0,0.2-0.1,0.3-0.2
										C128.4,214.3,128.3,214.1,128.2,214z M163.4,213c-0.1-0.1-0.3-0.2-0.4-0.1c-0.9,0.4-1.9,0.8-2.8,1.2
										c-0.2,0.1-0.2,0.2-0.2,0.4c0,0.1,0.2,0.2,0.3,0.2h0.1c0.9-0.4,1.8-0.8,2.8-1.2C163.4,213.3,163.5,213.1,163.4,213z
										 M122.6,211.6c-0.5-0.2-1-0.5-1.5-0.7l0,0c-0.4-0.2-0.8-0.4-1.2-0.6c-0.2-0.1-0.3,0-0.4,0.1s0,0.3,0.1,0.4
										c0.9,0.5,1.9,0.9,2.7,1.3h0.1c0.1,0,0.2,0,0.2-0.1c0,0,0,0,0.1-0.1C122.9,211.9,122.8,211.7,122.6,211.6z M168.9,210.5
										c-0.1-0.1-0.3-0.2-0.4-0.1c-0.9,0.5-1.8,0.9-2.7,1.3c-0.2,0.1-0.2,0.2-0.1,0.4c0,0.1,0.2,0.2,0.3,0.2h0.1
										c0.9-0.4,1.8-0.8,2.7-1.3C168.9,210.8,168.9,210.6,168.9,210.5z M117.2,209c-0.7-0.3-1.3-0.7-2-1c-0.2-0.1-0.5-0.2-0.7-0.4
										c-0.1-0.1-0.3,0-0.4,0.1s0,0.3,0.1,0.4c0.2,0.1,0.5,0.3,0.7,0.4c0.7,0.4,1.3,0.7,2,1h0.1c0.1,0,0.2-0.1,0.3-0.1
										C117.4,209.2,117.4,209.1,117.2,209z M174.2,207.7c-0.1-0.1-0.3-0.2-0.4-0.1c-0.2,0.1-0.5,0.3-0.7,0.4
										c-0.7,0.4-1.3,0.7-2,1c-0.1,0.1-0.2,0.3-0.1,0.4c0.1,0.1,0.2,0.1,0.3,0.1c0,0,0.1,0,0.2,0c0.6-0.3,1.3-0.7,2-1
										c0.2-0.1,0.5-0.3,0.7-0.4C174.3,208,174.3,207.8,174.2,207.7z M111.9,206.2c-0.9-0.5-1.8-1-2.6-1.5c-0.1-0.1-0.3,0-0.4,0.1
										s0,0.3,0.1,0.4c0.9,0.5,1.7,1,2.6,1.5h0.1c0.1,0,0.2,0,0.3-0.1C112.1,206.4,112.1,206.3,111.9,206.2z M179.5,204.8
										c-0.1-0.1-0.3-0.2-0.4-0.1c-0.9,0.5-1.7,1-2.6,1.5c-0.1,0.1-0.2,0.3-0.1,0.4c0.1,0.1,0.2,0.1,0.3,0.1s0.1,0,0.2,0
										c0.9-0.5,1.8-1,2.6-1.5C179.5,205.1,179.6,204.9,179.5,204.8z M106.7,203.2c-0.9-0.5-1.7-1-2.5-1.6c-0.1-0.1-0.2-0.1-0.3,0
										l0,0c0,0-0.1,0-0.1,0.1c-0.1,0.1-0.1,0.3,0.1,0.4c0.5,0.3,0.9,0.6,1.4,0.9l0,0l0,0l0,0c0.4,0.2,0.7,0.4,1.1,0.7
										c0,0,0.1,0,0.2,0s0.2,0,0.3-0.1C106.9,203.4,106.9,203.3,106.7,203.2z M184.6,201.7c-0.1-0.1-0.3-0.2-0.4-0.1
										c-0.8,0.5-1.7,1-2.5,1.6c-0.1,0.1-0.2,0.3-0.1,0.4c0.1,0.1,0.2,0.1,0.3,0.1s0.1,0,0.2,0c0.8-0.5,1.6-1,2.4-1.5l0.1-0.1
										c0.1,0,0.1-0.1,0.1-0.2C184.7,201.9,184.7,201.8,184.6,201.7z M101.7,200c-0.9-0.6-1.7-1.1-2.5-1.7
										c-0.1-0.1-0.3-0.1-0.4,0.1c-0.1,0.1-0.1,0.3,0.1,0.4c0.8,0.5,1.6,1.1,2.5,1.7c0.1,0,0.1,0,0.2,0s0.2,0,0.3-0.1
										C101.8,200.3,101.8,200.1,101.7,200z M189.6,198.4c-0.1-0.1-0.3-0.1-0.4-0.1c-0.8,0.5-1.6,1.1-2.5,1.7
										c-0.1,0.1-0.2,0.3-0.1,0.4c0.1,0.1,0.2,0.1,0.3,0.1s0.1,0,0.2,0c0.9-0.6,1.7-1.1,2.5-1.7
										C189.7,198.7,189.7,198.5,189.6,198.4z"/>
								</g>
							</g>
						</g>
						<g>
							<g>
								<path class="st18" d="M144.2,215.6c-5.5,0-15.3-3.5-26.9-9.5c-6.7-3.5-12.4-7-16-9.5c-1.5-1.1-2.2-2.9-1.8-4.6
									c0.1-0.2,0.1-0.4,0.2-0.7c1.1-4.4,2.4-9.4,2.4-12.8s-1.3-8.4-2.4-12.8c-0.1-0.2-0.1-0.4-0.2-0.7c-0.4-1.7,0.3-3.6,1.8-4.6
									c3.6-2.5,9.2-6,16-9.5c11.6-6,21.4-9.5,26.9-9.5s15.3,3.5,26.9,9.5c6.7,3.5,12.4,7,16,9.5c1.5,1.1,2.2,2.9,1.8,4.6
									c-0.1,0.2-0.1,0.4-0.2,0.7c-1.1,4.4-2.4,9.4-2.4,12.8s1.3,8.4,2.4,12.8c0.1,0.2,0.1,0.4,0.2,0.7c0.4,1.7-0.3,3.6-1.8,4.6
									c-3.6,2.5-9.2,6-16,9.5C159.5,212.1,149.7,215.6,144.2,215.6z"/>
							</g>
						</g>
						<g>
							<g>
								<g>
									<path class="st19" d="M100,165.7c0.1,0.2,0.1,0.5,0.2,0.7c9.6-3.2,24.7-7,43.5-7.1c19.3-0.1,34.7,3.8,44.5,7.1
										c0,0,0.1-0.3,0.1-0.4c0-0.1,0.1-0.2,0.1-0.4l0.2-0.7c0.4-1.6-0.2-3.3-1.7-4.3c-2.1-1.4-7.8-5.2-15.9-9.5
										c-11.5-6-21.3-9.4-26.7-9.4c-5.5,0-15.2,3.4-26.7,9.4c-8.2,4.2-13.9,8-15.9,9.5c-1.4,1-2.1,2.7-1.7,4.3L100,165.7z"/>
								</g>
							</g>
							<g>
								<g>
									<path class="st20" d="M100,165.7c0.1,0.2,0.1,0.5,0.2,0.7c9.6-3.2,24.7-9.2,43.5-9.3c19.3-0.1,34.7,6,44.5,9.3
										c0,0,0.1-0.3,0.1-0.4c0-0.1,0.1-0.2,0.1-0.4l0.2-0.7c0.4-1.6-0.2-3.3-1.7-4.3c-2.1-1.4-7.8-5.2-15.9-9.5
										c-11.5-6-21.3-9.4-26.7-9.4c-5.5,0-15.2,3.4-26.7,9.4c-8.2,4.2-13.9,8-15.9,9.5c-1.4,1-2.1,2.7-1.7,4.3L100,165.7z"/>
								</g>
							</g>
						</g>
						<g>
							<g>
								<g>
									<path class="st21" d="M188.3,191.5c-0.1-0.2-0.1-0.5-0.2-0.7c-9.6,3.2-24.7,7-43.5,7.1c-19.3,0.1-34.7-3.8-44.5-7.1
										c0,0-0.1,0.3-0.1,0.4c0,0.1-0.1,0.2-0.1,0.4l-0.2,0.7c-0.4,1.6,0.2,3.3,1.7,4.3c2.1,1.4,7.8,5.2,15.9,9.5
										c11.5,6,21.3,9.4,26.7,9.4c5.5,0,15.2-3.4,26.7-9.4c8.2-4.2,13.9-8,15.9-9.5c1.4-1,2.1-2.7,1.7-4.3V191.5z"/>
								</g>
							</g>
							<g>
								<g>
									<path class="st22" d="M188.3,191.5c-0.1-0.2-0.1-0.5-0.2-0.7c-9.6,3.2-24.7,9.2-43.5,9.3c-19.3,0.1-34.7-6-44.5-9.3
										c0,0-0.1,0.3-0.1,0.4c0,0.1-0.1,0.2-0.1,0.4l-0.2,0.7c-0.4,1.6,0.2,3.3,1.7,4.3c2.1,1.4,7.8,5.2,15.9,9.5
										c11.5,6,21.3,9.4,26.7,9.4c5.5,0,15.2-3.4,26.7-9.4c8.2-4.2,13.9-8,15.9-9.5c1.4-1,2.1-2.7,1.7-4.3V191.5z"/>
								</g>
							</g>
						</g>
						<g class="st23">
							<g>
								<g>
									<path class="st24" d="M146.1,215.4c1.1-0.1,2.3-0.4,3.6-0.7c-1.9,0.1-3.7,0.1-5.6,0.1c-1.9,0-3.7,0-5.6-0.1
										c1.3,0.3,2.5,0.5,3.6,0.7c0.7,0,1.3,0,2,0S145.5,215.4,146.1,215.4z"/>
								</g>
							</g>
							<g>
								<g>
									<path class="st24" d="M152.4,214c0.8-0.2,1.5-0.5,2.3-0.8c-3.5,0.3-7,0.5-10.6,0.5s-7.1-0.2-10.6-0.5
										c0.8,0.3,1.6,0.5,2.3,0.8c2.7,0.2,5.5,0.3,8.2,0.3C147,214.3,149.7,214.2,152.4,214z"/>
								</g>
							</g>
							<g>
								<g>
									<path class="st24" d="M156.9,212.5c0.7-0.3,1.4-0.5,2.1-0.8c-4.9,0.7-9.8,1-14.9,1c-5.1,0-10-0.4-14.9-1
										c0.7,0.3,1.4,0.6,2.1,0.8c4.2,0.5,8.4,0.7,12.8,0.7C148.5,213.2,152.8,213,156.9,212.5z"/>
								</g>
							</g>
							<g>
								<g>
									<path class="st24" d="M161.2,210.8c0.7-0.3,1.4-0.6,2.1-0.9c-6.2,1.1-12.6,1.7-19.1,1.7s-12.9-0.6-19.1-1.7
										c0.7,0.3,1.4,0.6,2.1,0.9c5.5,0.9,11.2,1.3,17,1.3S155.7,211.7,161.2,210.8z"/>
								</g>
							</g>
							<g>
								<g>
									<path class="st24" d="M165.4,208.9c0.7-0.3,1.4-0.7,2.1-1c-7.5,1.7-15.3,2.6-23.3,2.6s-15.8-0.9-23.3-2.6
										c0.7,0.4,1.4,0.7,2.1,1c6.8,1.4,13.9,2.1,21.2,2.1S158.5,210.3,165.4,208.9z"/>
								</g>
							</g>
							<g>
								<g>
									<path class="st24" d="M169.7,206.8c0.5-0.2,0.9-0.5,1.4-0.7c0.3-0.2,0.6-0.3,0.9-0.5c-8.8,2.4-18.1,3.7-27.7,3.7
										c-9.6,0-18.9-1.3-27.7-3.7c0.3,0.2,0.6,0.3,0.9,0.5c0.5,0.2,0.9,0.5,1.4,0.7c8.1,2,16.7,3.1,25.5,3.1
										C153,209.9,161.5,208.8,169.7,206.8z"/>
								</g>
							</g>
							<g>
								<g>
									<path class="st24" d="M174.3,204.4c0.8-0.5,1.6-0.9,2.4-1.4c-10.2,3.4-21.1,5.2-32.5,5.2s-22.3-1.8-32.5-5.2
										c0.8,0.4,1.6,0.9,2.4,1.4c9.5,2.9,19.6,4.4,30.1,4.4C154.7,208.8,164.8,207.2,174.3,204.4z"/>
								</g>
							</g>
							<g>
								<g>
									<path class="st24" d="M179.2,201.5c0.9-0.6,1.9-1.1,2.7-1.6c-11.6,4.6-24.4,7.2-37.8,7.2c-13.4,0-26.2-2.6-37.8-7.2
										c0.9,0.5,1.8,1.1,2.7,1.6c10.9,4,22.7,6.1,35,6.1C156.5,207.7,168.4,205.5,179.2,201.5z"/>
								</g>
							</g>
							<g>
								<g>
									<path class="st24" d="M184.8,198.1c0.8-0.5,1.6-1,2.2-1.5c0.2-0.1,0.3-0.2,0.5-0.4c-13,6.2-27.7,9.8-43.3,9.8
										s-30.3-3.5-43.3-9.8c0.1,0.1,0.3,0.2,0.5,0.4c0.7,0.5,1.4,1,2.2,1.5c12.3,5.4,26.1,8.5,40.6,8.5
										C158.7,206.6,172.5,203.5,184.8,198.1z"/>
								</g>
							</g>
							<g>
								<g>
									<path class="st24" d="M188.3,195.2c0.2-0.3,0.3-0.5,0.4-0.8c-13.2,6.7-28.4,10.5-44.5,10.5s-31.3-3.8-44.5-10.5
										c0.1,0.3,0.2,0.6,0.4,0.8c13.2,6.5,28.2,10.3,44.2,10.3S175.2,201.7,188.3,195.2z"/>
								</g>
							</g>
							<g>
								<g>
									<path class="st24" d="M188.9,193.6c0-0.2,0-0.4,0-0.7c-13.3,6.9-28.5,10.8-44.8,10.8c-16.2,0-31.5-3.9-44.8-10.8
										c0,0.2,0,0.4,0,0.7c13.3,6.8,28.5,10.7,44.7,10.7C160.4,204.3,175.6,200.5,188.9,193.6z"/>
								</g>
							</g>
							<g>
								<g>
									<path class="st24" d="M188.9,192.4c0-0.1,0-0.3-0.1-0.4c0-0.1,0-0.1,0-0.2c-13.2,6.9-28.4,10.9-44.6,10.9
										s-31.4-4-44.6-10.9c0,0.1,0,0.1,0,0.2c0,0.1-0.1,0.3-0.1,0.4c13.2,6.9,28.5,10.9,44.7,10.9
										C160.4,203.2,175.7,199.3,188.9,192.4z"/>
								</g>
							</g>
							<g>
								<g>
									<path class="st24" d="M188.6,191.2c0-0.2-0.1-0.4-0.1-0.6c-13.1,6.9-28.2,10.9-44.3,10.9s-31.2-4-44.3-10.9
										c0,0.2-0.1,0.4-0.1,0.6c13.1,6.9,28.3,10.9,44.4,10.9C160.3,202.1,175.5,198.2,188.6,191.2z"/>
								</g>
							</g>
							<g>
								<g>
									<path class="st24" d="M188.3,190.1c0-0.2-0.1-0.4-0.1-0.6c-13,6.9-28,10.9-44,10.9s-31-4-44-10.9c0,0.2-0.1,0.4-0.1,0.6
										c13,6.9,28.1,10.9,44.1,10.9S175.3,197,188.3,190.1z"/>
								</g>
							</g>
							<g>
								<g>
									<path class="st24" d="M188,189c0-0.2-0.1-0.4-0.1-0.6c-12.9,6.9-27.8,10.9-43.7,10.9s-30.8-4-43.7-10.9
										c0,0.2-0.1,0.4-0.1,0.6c12.9,6.9,27.9,10.9,43.9,10.9C160.1,199.9,175.1,195.9,188,189z"/>
								</g>
							</g>
							<g>
								<g>
									<path class="st24" d="M187.8,187.9c0-0.2-0.1-0.4-0.1-0.6c-12.8,6.9-27.6,10.9-43.4,10.9s-30.7-4-43.4-10.9
										c0,0.2-0.1,0.4-0.1,0.6c12.8,6.9,27.7,10.9,43.6,10.9S174.9,194.8,187.8,187.9z"/>
								</g>
							</g>
							<g>
								<g>
									<path class="st24" d="M187.5,186.7c0-0.2-0.1-0.4-0.1-0.6c-12.7,7-27.4,11-43.2,11c-15.7,0-30.5-4-43.2-11
										c0,0.2-0.1,0.4-0.1,0.6c12.7,7,27.5,11,43.3,11S174.8,193.7,187.5,186.7z"/>
								</g>
							</g>
							<g>
								<g>
									<path class="st24" d="M187.2,185.6c0-0.2-0.1-0.4-0.1-0.6c-12.6,7-27.2,11-42.9,11s-30.3-4-42.9-11c0,0.2-0.1,0.4-0.1,0.6
										c12.6,7,27.3,11,43,11S174.6,192.5,187.2,185.6z"/>
								</g>
							</g>
							<g>
								<g>
									<path class="st24" d="M187,184.4c0-0.2-0.1-0.4-0.1-0.6c-12.5,7-27.1,11.1-42.7,11.1s-30.2-4-42.7-11.1
										c0,0.2-0.1,0.4-0.1,0.6c12.5,7,27.1,11,42.8,11C159.8,195.5,174.5,191.4,187,184.4z"/>
								</g>
							</g>
							<g>
								<g>
									<path class="st24" d="M186.7,183.3c0-0.2-0.1-0.4-0.1-0.6c-12.4,7.1-26.9,11.1-42.4,11.1s-30.1-4.1-42.4-11.1
										c0,0.2-0.1,0.4-0.1,0.6c12.4,7,27,11.1,42.6,11.1S174.3,190.3,186.7,183.3z"/>
								</g>
							</g>
							<g>
								<g>
									<path class="st24" d="M186.5,182.1c0-0.2-0.1-0.4-0.1-0.6c-12.3,7.1-26.8,11.2-42.3,11.2s-30-4.1-42.3-11.2
										c0,0.2-0.1,0.4-0.1,0.6c12.3,7.1,26.8,11.2,42.3,11.2C159.7,193.2,174.2,189.1,186.5,182.1z"/>
								</g>
							</g>
							<g>
								<g>
									<path class="st24" d="M186.4,180.8c0-0.2,0-0.4-0.1-0.6c-12.2,7.2-26.6,11.3-42.1,11.3s-29.9-4.2-42.1-11.3
										c0,0.2,0,0.4-0.1,0.6c12.2,7.1,26.7,11.3,42.2,11.3S174.1,188,186.4,180.8z"/>
								</g>
							</g>
							<g>
								<g>
									<path class="st24" d="M186.2,179.6c0-0.2,0-0.4,0-0.6c-12.1,7.3-26.6,11.5-42,11.5c-15.5,0-29.9-4.2-42-11.5
										c0,0.2,0,0.4,0,0.6c12.2,7.2,26.6,11.4,42.1,11.4C159.7,191,174.1,186.8,186.2,179.6z"/>
								</g>
							</g>
							<g>
								<g>
									<path class="st24" d="M144.2,189.3c-15.5,0-30-4.3-42.1-11.7c0,0.2,0,0.5,0,0.7c12.1,7.3,26.5,11.6,42,11.6
										s29.9-4.3,42-11.6c0-0.2,0-0.4,0-0.7C174.2,185,159.7,189.3,144.2,189.3z"/>
								</g>
							</g>
							<g>
								<g>
									<path class="st24" d="M186.3,176.9c0-0.2,0-0.5,0.1-0.7c-12,7.6-26.6,12-42.2,12s-30.1-4.4-42.2-12c0,0.2,0.1,0.5,0.1,0.7
										c12.1,7.5,26.5,11.9,42.1,11.9C159.7,188.8,174.2,184.4,186.3,176.9z"/>
								</g>
							</g>
							<g>
								<g>
									<path class="st24" d="M186.5,175.5c0-0.2,0.1-0.5,0.1-0.8c-12,7.8-26.6,12.4-42.4,12.4s-30.4-4.6-42.4-12.4
										c0,0.3,0.1,0.5,0.1,0.8c12,7.7,26.6,12.2,42.3,12.2S174.4,183.2,186.5,175.5z"/>
								</g>
							</g>
							<g>
								<g>
									<path class="st24" d="M186.7,174c0-0.3,0.1-0.5,0.1-0.8c-12,8.1-26.8,12.8-42.7,12.8s-30.7-4.8-42.7-12.8
										c0.1,0.3,0.1,0.5,0.1,0.8c12,7.9,26.7,12.6,42.5,12.6C160,186.6,174.7,181.9,186.7,174z"/>
								</g>
							</g>
							<g>
								<g>
									<path class="st24" d="M187,172.4c0.1-0.3,0.1-0.5,0.2-0.8c-12,8.4-26.9,13.3-43,13.3s-31-5-43-13.3
										c0.1,0.3,0.1,0.5,0.2,0.8c12,8.2,26.8,13.1,42.8,13.1S175,180.6,187,172.4z"/>
								</g>
							</g>
							<g>
								<g>
									<path class="st24" d="M187.4,170.7c0.1-0.3,0.1-0.6,0.2-0.8c-12,8.7-27,13.9-43.4,13.9s-31.4-5.2-43.4-13.9
										c0.1,0.3,0.1,0.6,0.2,0.8c12,8.5,27,13.6,43.2,13.6S175.4,179.3,187.4,170.7z"/>
								</g>
							</g>
							<g>
								<g>
									<path class="st24" d="M187.8,169c0.1-0.3,0.1-0.6,0.2-0.9c-12,9.1-27.2,14.5-43.8,14.5s-31.9-5.5-43.8-14.5
										c0.1,0.3,0.1,0.6,0.2,0.9c12,8.9,27.1,14.2,43.6,14.2C160.7,183.2,175.8,177.9,187.8,169z"/>
								</g>
							</g>
							<g>
								<g>
									<path class="st24" d="M188.2,167.2c0.1-0.3,0.2-0.6,0.2-0.9c-11.9,9.5-27.4,15.2-44.3,15.2s-32.4-5.7-44.3-15.2
										c0.1,0.3,0.2,0.6,0.2,0.9c11.9,9.3,27.3,14.9,44.1,14.9C160.9,182.1,176.3,176.5,188.2,167.2z"/>
								</g>
							</g>
							<g>
								<g>
									<path class="st24" d="M188.7,165.4c0-0.1,0.1-0.2,0.1-0.3c0-0.2,0.1-0.4,0.1-0.6c-11.9,9.9-27.5,15.9-44.7,15.9
										s-32.9-6-44.7-15.9c0,0.2,0.1,0.4,0.1,0.6c0,0.1,0.1,0.2,0.1,0.3c11.9,9.7,27.5,15.6,44.5,15.6S176.8,175.1,188.7,165.4z"
										/>
								</g>
							</g>
							<g>
								<g>
									<path class="st24" d="M188.9,163.7c0-0.2-0.1-0.5-0.1-0.7c-11.7,10.1-27.4,16.3-44.6,16.3s-32.9-6.2-44.6-16.3
										c-0.1,0.2-0.1,0.4-0.1,0.7c11.8,10,27.5,16.2,44.7,16.2S177.1,173.8,188.9,163.7z"/>
								</g>
							</g>
							<g>
								<g>
									<path class="st24" d="M188.6,162.5c-0.1-0.2-0.2-0.4-0.3-0.5c-11.6,10.1-27.1,16.3-44.2,16.3s-32.6-6.2-44.2-16.3
										c-0.1,0.2-0.2,0.4-0.3,0.5c11.7,10.1,27.3,16.3,44.5,16.3S177,172.6,188.6,162.5z"/>
								</g>
							</g>
							<g>
								<g>
									<path class="st24" d="M188.1,161.5c-0.1-0.2-0.2-0.3-0.4-0.4c-11.4,10-26.7,16.1-43.5,16.1s-32.1-6.1-43.5-16.1
										c-0.1,0.1-0.3,0.3-0.4,0.4c11.5,10,26.9,16.2,43.9,16.2S176.6,171.5,188.1,161.5z"/>
								</g>
							</g>
							<g>
								<g>
									<path class="st24" d="M187.3,160.6c-0.1-0.1-0.2-0.1-0.2-0.2c-0.1-0.1-0.2-0.1-0.2-0.2c-11.1,9.7-26.1,15.7-42.6,15.7
										s-31.5-6-42.6-15.7c-0.1,0.1-0.2,0.1-0.2,0.2c-0.1,0.1-0.2,0.1-0.2,0.2c11.2,9.9,26.4,15.9,43.1,15.9
										C160.8,176.6,176,170.5,187.3,160.6z"/>
								</g>
							</g>
							<g>
								<g>
									<path class="st24" d="M186.3,160c-0.2-0.1-0.3-0.2-0.5-0.3c-10.9,9.5-25.5,15.3-41.6,15.3s-30.7-5.8-41.6-15.3
										c-0.2,0.1-0.3,0.2-0.5,0.3c11,9.6,25.8,15.5,42.1,15.5C160.5,175.4,175.3,169.6,186.3,160z"/>
								</g>
							</g>
							<g>
								<g>
									<path class="st24" d="M185.3,159.3c-0.2-0.1-0.3-0.2-0.5-0.3c-10.7,9.2-24.9,14.8-40.6,14.8s-29.9-5.6-40.6-14.8
										c-0.2,0.1-0.3,0.2-0.5,0.3c10.8,9.3,25.2,15,41.1,15S174.5,168.6,185.3,159.3z"/>
								</g>
							</g>
							<g>
								<g>
									<path class="st24" d="M184.3,158.6c-0.2-0.1-0.3-0.2-0.5-0.3c-10.4,8.9-24.3,14.4-39.6,14.4s-29.2-5.4-39.6-14.4
										c-0.2,0.1-0.3,0.2-0.5,0.3c10.6,9,24.6,14.6,40.1,14.6S173.7,167.7,184.3,158.6z"/>
								</g>
							</g>
							<g>
								<g>
									<path class="st24" d="M183.3,158c-0.2-0.1-0.3-0.2-0.5-0.3c-10.2,8.6-23.7,13.9-38.6,13.9c-14.8,0-28.4-5.3-38.6-13.9
										c-0.2,0.1-0.3,0.2-0.5,0.3c10.3,8.8,24,14.1,39.1,14.1C159.2,172.1,173,166.8,183.3,158z"/>
								</g>
							</g>
							<g>
								<g>
									<path class="st24" d="M182.3,157.4c-0.2-0.1-0.3-0.2-0.5-0.3c-10,8.3-23.1,13.4-37.6,13.4c-14.4,0-27.6-5.1-37.6-13.4
										c-0.2,0.1-0.3,0.2-0.5,0.3c10.1,8.5,23.4,13.6,38.1,13.6C158.8,171,172.2,165.8,182.3,157.4z"/>
								</g>
							</g>
							<g>
								<g>
									<path class="st24" d="M181.2,156.7c-0.2-0.1-0.3-0.2-0.5-0.3c-9.7,8-22.5,12.9-36.5,12.9s-26.8-4.9-36.5-12.9
										c-0.2,0.1-0.3,0.2-0.5,0.3c9.8,8.2,22.8,13.2,37.1,13.2C158.4,169.9,171.4,164.9,181.2,156.7z"/>
								</g>
							</g>
							<g>
								<g>
									<path class="st24" d="M180.2,156.1c-0.2-0.1-0.3-0.2-0.5-0.3c-9.5,7.7-21.9,12.4-35.5,12.4s-26-4.7-35.5-12.4
										c-0.2,0.1-0.4,0.2-0.5,0.3c9.6,7.9,22.2,12.7,36,12.7S170.6,164,180.2,156.1z"/>
								</g>
							</g>
							<g>
								<g>
									<path class="st24" d="M179.2,155.5c-0.2-0.1-0.4-0.2-0.5-0.3c-9.2,7.4-21.3,12-34.4,12c-13.2,0-25.2-4.5-34.4-12
										c-0.2,0.1-0.4,0.2-0.5,0.3c9.4,7.6,21.6,12.2,35,12.2C157.6,167.7,169.8,163.1,179.2,155.5z"/>
								</g>
							</g>
							<g>
								<g>
									<path class="st24" d="M178.1,154.9c-0.2-0.1-0.4-0.2-0.5-0.3c-9,7.1-20.6,11.5-33.4,11.5c-12.7,0-24.4-4.3-33.4-11.5
										c-0.2,0.1-0.4,0.2-0.5,0.3c9.1,7.3,21,11.7,33.9,11.7C157.1,166.6,169,162.1,178.1,154.9z"/>
								</g>
							</g>
							<g>
								<g>
									<path class="st24" d="M177,154.2c-0.2-0.1-0.4-0.2-0.5-0.3c-8.7,6.8-20,11-32.3,11s-23.6-4.1-32.3-11
										c-0.2,0.1-0.4,0.2-0.5,0.3c8.9,7,20.3,11.2,32.8,11.2S168.2,161.2,177,154.2z"/>
								</g>
							</g>
							<g>
								<g>
									<path class="st24" d="M176,153.6c-0.2-0.1-0.4-0.2-0.5-0.3c-8.5,6.5-19.4,10.5-31.2,10.5c-11.9,0-22.7-3.9-31.2-10.5
										c-0.2,0.1-0.4,0.2-0.5,0.3c8.6,6.7,19.7,10.7,31.8,10.7C156.3,164.3,167.3,160.3,176,153.6z"/>
								</g>
							</g>
							<g>
								<g>
									<path class="st24" d="M174.9,153c-0.2-0.1-0.4-0.2-0.5-0.3c-8.2,6.2-18.7,9.9-30.1,9.9c-11.4,0-21.9-3.7-30.1-9.9
										c-0.2,0.1-0.4,0.2-0.5,0.3c8.4,6.4,19,10.2,30.7,10.2C155.8,163.2,166.5,159.4,174.9,153z"/>
								</g>
							</g>
							<g>
								<g>
									<path class="st24" d="M173.8,152.4c-0.2-0.1-0.4-0.2-0.6-0.3c-8,5.9-18.1,9.4-29,9.4c-11,0-21.1-3.5-29-9.4
										c-0.2,0.1-0.4,0.2-0.6,0.3c8.1,6.1,18.4,9.7,29.6,9.7C155.4,162.1,165.7,158.5,173.8,152.4z"/>
								</g>
							</g>
							<g>
								<g>
									<path class="st24" d="M172.7,151.8c-0.2-0.1-0.4-0.2-0.6-0.3c-7.7,5.6-17.4,8.9-27.9,8.9s-20.2-3.3-27.9-8.9
										c-0.2,0.1-0.4,0.2-0.6,0.3c7.8,5.7,17.7,9.2,28.5,9.2C154.9,161,164.8,157.6,172.7,151.8z"/>
								</g>
							</g>
							<g>
								<g>
									<path class="st24" d="M171.5,151.2c-0.2-0.1-0.3-0.2-0.5-0.2h-0.1c-7.4,5.3-16.7,8.4-26.8,8.4s-19.3-3.1-26.8-8.4h-0.1
										c-0.2,0.1-0.3,0.2-0.5,0.2c7.6,5.4,17.1,8.7,27.3,8.7C154.5,159.9,164,156.7,171.5,151.2z"/>
								</g>
							</g>
							<g>
								<g>
									<path class="st24" d="M170.4,150.6c-0.2-0.1-0.4-0.2-0.6-0.3c-7.2,5-16,7.9-25.6,7.9s-18.5-2.9-25.6-7.9
										c-0.2,0.1-0.4,0.2-0.6,0.3c7.3,5.1,16.4,8.1,26.2,8.1C154,158.8,163.1,155.7,170.4,150.6z"/>
								</g>
							</g>
							<g>
								<g>
									<path class="st24" d="M169.2,150c-0.2-0.1-0.4-0.2-0.6-0.3c-6.9,4.6-15.3,7.4-24.5,7.4c-9.1,0-17.6-2.7-24.5-7.4
										c-0.2,0.1-0.4,0.2-0.6,0.3c7,4.8,15.7,7.6,25.1,7.6C153.5,157.7,162.2,154.8,169.2,150z"/>
								</g>
							</g>
							<g>
								<g>
									<path class="st24" d="M168.1,149.5c-0.2-0.1-0.4-0.2-0.6-0.3c-6.6,4.3-14.6,6.8-23.3,6.8s-16.7-2.5-23.3-6.8
										c-0.2,0.1-0.4,0.2-0.6,0.3c6.7,4.5,15,7.1,23.9,7.1S161.3,153.9,168.1,149.5z"/>
								</g>
							</g>
							<g>
								<g>
									<path class="st24" d="M166.9,148.9c-0.2-0.1-0.4-0.2-0.6-0.3c-6.3,4-13.9,6.3-22.1,6.3c-8.2,0-15.8-2.3-22.1-6.3
										c-0.2,0.1-0.4,0.2-0.6,0.3c6.5,4.1,14.3,6.6,22.7,6.6C152.6,155.4,160.4,153,166.9,148.9z"/>
								</g>
							</g>
							<g>
								<g>
									<path class="st24" d="M165.7,148.3c-0.2-0.1-0.4-0.2-0.6-0.3c-6,3.6-13.2,5.8-20.9,5.8s-14.9-2.1-20.9-5.8
										c-0.2,0.1-0.4,0.2-0.6,0.3c6.2,3.8,13.5,6,21.5,6C152.1,154.3,159.5,152.1,165.7,148.3z"/>
								</g>
							</g>
							<g>
								<g>
									<path class="st24" d="M164.4,147.7c-0.2-0.1-0.4-0.2-0.6-0.3c-5.7,3.3-12.4,5.2-19.6,5.2c-7.2,0-13.9-1.9-19.6-5.2
										c-0.2,0.1-0.4,0.2-0.6,0.3c5.9,3.5,12.8,5.5,20.3,5.5C151.6,153.2,158.6,151.2,164.4,147.7z"/>
								</g>
							</g>
							<g>
								<g>
									<path class="st24" d="M163.2,147.1c-0.2-0.1-0.4-0.2-0.6-0.3c-5.4,3-11.6,4.7-18.3,4.7s-13-1.7-18.3-4.7
										c-0.2,0.1-0.4,0.2-0.6,0.3c5.5,3.1,12,5,19,5C151.1,152.1,157.6,150.3,163.2,147.1z"/>
								</g>
							</g>
							<g>
								<g>
									<path class="st24" d="M161.9,146.6c-0.2-0.1-0.4-0.2-0.7-0.3c-5,2.6-10.8,4.2-17,4.2s-12-1.5-17-4.2
										c-0.2,0.1-0.4,0.2-0.7,0.3c5.2,2.8,11.2,4.4,17.7,4.4C150.6,151,156.7,149.4,161.9,146.6z"/>
								</g>
							</g>
							<g>
								<g>
									<path class="st24" d="M160.5,146c-0.2-0.1-0.5-0.2-0.7-0.3c-4.7,2.3-10,3.6-15.7,3.6s-11-1.3-15.7-3.6
										c-0.2,0.1-0.5,0.2-0.7,0.3c4.9,2.5,10.4,3.9,16.4,3.9S155.7,148.5,160.5,146z"/>
								</g>
							</g>
							<g>
								<g>
									<path class="st24" d="M159.1,145.4c-0.2-0.1-0.5-0.2-0.7-0.3c-4.3,2-9.1,3.1-14.2,3.1c-5.1,0-9.9-1.1-14.2-3.1
										c-0.2,0.1-0.5,0.2-0.7,0.3c4.5,2.1,9.6,3.4,15,3.4C149.6,148.8,154.7,147.6,159.1,145.4z"/>
								</g>
							</g>
							<g>
								<g>
									<path class="st24" d="M157.7,144.9c-0.3-0.1-0.5-0.2-0.8-0.3c-3.9,1.6-8.2,2.5-12.8,2.5c-4.5,0-8.9-0.9-12.8-2.5
										c-0.2,0.1-0.5,0.2-0.8,0.3c4.1,1.8,8.7,2.8,13.5,2.8C149,147.7,153.6,146.7,157.7,144.9z"/>
								</g>
							</g>
							<g>
								<g>
									<path class="st24" d="M156.2,144.3c-0.3-0.1-0.5-0.2-0.8-0.3c-3.5,1.3-7.2,2-11.2,2s-7.7-0.7-11.2-2
										c-0.3,0.1-0.5,0.2-0.8,0.3c3.7,1.5,7.7,2.3,12,2.3C148.4,146.6,152.5,145.7,156.2,144.3z"/>
								</g>
							</g>
							<g>
								<g>
									<path class="st24" d="M154.5,143.7c-0.3-0.1-0.6-0.2-0.9-0.3c-3,1-6.1,1.5-9.4,1.5s-6.5-0.5-9.4-1.5
										c-0.3,0.1-0.6,0.2-0.9,0.3c3.2,1.1,6.7,1.7,10.3,1.7S151.3,144.8,154.5,143.7z"/>
								</g>
							</g>
							<g>
								<g>
									<path class="st24" d="M152.7,143.1c-0.3-0.1-0.7-0.2-1-0.3c-2.4,0.6-4.9,1-7.5,1s-5.1-0.3-7.5-1c-0.3,0.1-0.7,0.2-1,0.3
										c2.7,0.8,5.5,1.2,8.5,1.2S150,143.9,152.7,143.1z"/>
								</g>
							</g>
							<g>
								<g>
									<path class="st24" d="M150.6,142.5c-0.4-0.1-0.9-0.2-1.3-0.3c-1.7,0.3-3.4,0.5-5.1,0.5s-3.5-0.2-5.1-0.5
										c-0.4,0.1-0.8,0.2-1.3,0.3c2.1,0.5,4.2,0.7,6.4,0.7C146.4,143.2,148.5,143,150.6,142.5z"/>
								</g>
							</g>
							<g>
								<g>
									<path class="st24" d="M147.8,141.9c-1-0.2-1.9-0.3-2.7-0.3c-0.3,0-0.6,0-0.9,0c-0.3,0-0.6,0-0.9,0c-0.8,0-1.7,0.2-2.7,0.3
										c1.2,0.2,2.4,0.2,3.6,0.2C145.4,142.1,146.6,142,147.8,141.9z"/>
								</g>
							</g>
						</g>
						<g class="st23">
							<g>
								<g>
									<path class="st24" d="M146.1,215.4c1.1-0.1,2.3-0.4,3.6-0.7c-1.9,0.1-3.7,0.1-5.6,0.1c-1.9,0-3.7,0-5.6-0.1
										c1.3,0.3,2.5,0.5,3.6,0.7c0.7,0,1.3,0,2,0S145.5,215.4,146.1,215.4z"/>
								</g>
							</g>
							<g>
								<g>
									<path class="st24" d="M152.4,214c0.8-0.2,1.5-0.5,2.3-0.8c-3.5,0.3-7,0.5-10.6,0.5s-7.1-0.2-10.6-0.5
										c0.8,0.3,1.6,0.5,2.3,0.8c2.7,0.2,5.5,0.3,8.2,0.3C147,214.3,149.7,214.2,152.4,214z"/>
								</g>
							</g>
							<g>
								<g>
									<path class="st24" d="M156.9,212.5c0.7-0.3,1.4-0.5,2.1-0.8c-4.9,0.7-9.8,1-14.9,1c-5.1,0-10-0.4-14.9-1
										c0.7,0.3,1.4,0.6,2.1,0.8c4.2,0.5,8.4,0.7,12.8,0.7C148.5,213.2,152.8,213,156.9,212.5z"/>
								</g>
							</g>
							<g>
								<g>
									<path class="st24" d="M161.2,210.8c0.7-0.3,1.4-0.6,2.1-0.9c-6.2,1.1-12.6,1.7-19.1,1.7s-12.9-0.6-19.1-1.7
										c0.7,0.3,1.4,0.6,2.1,0.9c5.5,0.9,11.2,1.3,17,1.3S155.7,211.7,161.2,210.8z"/>
								</g>
							</g>
							<g>
								<g>
									<path class="st24" d="M165.4,208.9c0.7-0.3,1.4-0.7,2.1-1c-7.5,1.7-15.3,2.6-23.3,2.6s-15.8-0.9-23.3-2.6
										c0.7,0.4,1.4,0.7,2.1,1c6.8,1.4,13.9,2.1,21.2,2.1S158.5,210.3,165.4,208.9z"/>
								</g>
							</g>
							<g>
								<g>
									<path class="st24" d="M169.7,206.8c0.5-0.2,0.9-0.5,1.4-0.7c0.3-0.2,0.6-0.3,0.9-0.5c-8.8,2.4-18.1,3.7-27.7,3.7
										c-9.6,0-18.9-1.3-27.7-3.7c0.3,0.2,0.6,0.3,0.9,0.5c0.5,0.2,0.9,0.5,1.4,0.7c8.1,2,16.7,3.1,25.5,3.1
										C153,209.9,161.5,208.8,169.7,206.8z"/>
								</g>
							</g>
							<g>
								<g>
									<path class="st24" d="M174.3,204.4c0.8-0.5,1.6-0.9,2.4-1.4c-10.2,3.4-21.1,5.2-32.5,5.2s-22.3-1.8-32.5-5.2
										c0.8,0.4,1.6,0.9,2.4,1.4c9.5,2.9,19.6,4.4,30.1,4.4C154.7,208.8,164.8,207.2,174.3,204.4z"/>
								</g>
							</g>
							<g>
								<g>
									<path class="st24" d="M179.2,201.5c0.9-0.6,1.9-1.1,2.7-1.6c-11.6,4.6-24.4,7.2-37.8,7.2c-13.4,0-26.2-2.6-37.8-7.2
										c0.9,0.5,1.8,1.1,2.7,1.6c10.9,4,22.7,6.1,35,6.1C156.5,207.7,168.4,205.5,179.2,201.5z"/>
								</g>
							</g>
							<g>
								<g>
									<path class="st24" d="M184.8,198.1c0.8-0.5,1.6-1,2.2-1.5c0.2-0.1,0.3-0.2,0.5-0.4c-13,6.2-27.7,9.8-43.3,9.8
										s-30.3-3.5-43.3-9.8c0.1,0.1,0.3,0.2,0.5,0.4c0.7,0.5,1.4,1,2.2,1.5c12.3,5.4,26.1,8.5,40.6,8.5
										C158.7,206.6,172.5,203.5,184.8,198.1z"/>
								</g>
							</g>
							<g>
								<g>
									<path class="st24" d="M188.3,195.2c0.2-0.3,0.3-0.5,0.4-0.8c-13.2,6.7-28.4,10.5-44.5,10.5s-31.3-3.8-44.5-10.5
										c0.1,0.3,0.2,0.6,0.4,0.8c13.2,6.5,28.2,10.3,44.2,10.3S175.2,201.7,188.3,195.2z"/>
								</g>
							</g>
							<g>
								<g>
									<path class="st24" d="M188.9,193.6c0-0.2,0-0.4,0-0.7c-13.3,6.9-28.5,10.8-44.8,10.8c-16.2,0-31.5-3.9-44.8-10.8
										c0,0.2,0,0.4,0,0.7c13.3,6.8,28.5,10.7,44.7,10.7C160.4,204.3,175.6,200.5,188.9,193.6z"/>
								</g>
							</g>
							<g>
								<g>
									<path class="st24" d="M188.9,192.4c0-0.1,0-0.3-0.1-0.4c0-0.1,0-0.1,0-0.2c-13.2,6.9-28.4,10.9-44.6,10.9
										s-31.4-4-44.6-10.9c0,0.1,0,0.1,0,0.2c0,0.1-0.1,0.3-0.1,0.4c13.2,6.9,28.5,10.9,44.7,10.9
										C160.4,203.2,175.7,199.3,188.9,192.4z"/>
								</g>
							</g>
							<g>
								<g>
									<path class="st24" d="M188.6,191.2c0-0.2-0.1-0.4-0.1-0.6c-13.1,6.9-28.2,10.9-44.3,10.9s-31.2-4-44.3-10.9
										c0,0.2-0.1,0.4-0.1,0.6c13.1,6.9,28.3,10.9,44.4,10.9C160.3,202.1,175.5,198.2,188.6,191.2z"/>
								</g>
							</g>
							<g>
								<g>
									<path class="st24" d="M188.3,190.1c0-0.2-0.1-0.4-0.1-0.6c-13,6.9-28,10.9-44,10.9s-31-4-44-10.9c0,0.2-0.1,0.4-0.1,0.6
										c13,6.9,28.1,10.9,44.1,10.9S175.3,197,188.3,190.1z"/>
								</g>
							</g>
							<g>
								<g>
									<path class="st24" d="M188,189c0-0.2-0.1-0.4-0.1-0.6c-12.9,6.9-27.8,10.9-43.7,10.9s-30.8-4-43.7-10.9
										c0,0.2-0.1,0.4-0.1,0.6c12.9,6.9,27.9,10.9,43.9,10.9C160.1,199.9,175.1,195.9,188,189z"/>
								</g>
							</g>
							<g>
								<g>
									<path class="st24" d="M187.8,187.9c0-0.2-0.1-0.4-0.1-0.6c-12.8,6.9-27.6,10.9-43.4,10.9s-30.7-4-43.4-10.9
										c0,0.2-0.1,0.4-0.1,0.6c12.8,6.9,27.7,10.9,43.6,10.9S174.9,194.8,187.8,187.9z"/>
								</g>
							</g>
							<g>
								<g>
									<path class="st24" d="M187.5,186.7c0-0.2-0.1-0.4-0.1-0.6c-12.7,7-27.4,11-43.2,11c-15.7,0-30.5-4-43.2-11
										c0,0.2-0.1,0.4-0.1,0.6c12.7,7,27.5,11,43.3,11S174.8,193.7,187.5,186.7z"/>
								</g>
							</g>
							<g>
								<g>
									<path class="st24" d="M187.2,185.6c0-0.2-0.1-0.4-0.1-0.6c-12.6,7-27.2,11-42.9,11s-30.3-4-42.9-11c0,0.2-0.1,0.4-0.1,0.6
										c12.6,7,27.3,11,43,11S174.6,192.5,187.2,185.6z"/>
								</g>
							</g>
							<g>
								<g>
									<path class="st24" d="M187,184.4c0-0.2-0.1-0.4-0.1-0.6c-12.5,7-27.1,11.1-42.7,11.1s-30.2-4-42.7-11.1
										c0,0.2-0.1,0.4-0.1,0.6c12.5,7,27.1,11,42.8,11C159.8,195.5,174.5,191.4,187,184.4z"/>
								</g>
							</g>
							<g>
								<g>
									<path class="st24" d="M186.7,183.3c0-0.2-0.1-0.4-0.1-0.6c-12.4,7.1-26.9,11.1-42.4,11.1s-30.1-4.1-42.4-11.1
										c0,0.2-0.1,0.4-0.1,0.6c12.4,7,27,11.1,42.6,11.1S174.3,190.3,186.7,183.3z"/>
								</g>
							</g>
							<g>
								<g>
									<path class="st24" d="M186.5,182.1c0-0.2-0.1-0.4-0.1-0.6c-12.3,7.1-26.8,11.2-42.3,11.2s-30-4.1-42.3-11.2
										c0,0.2-0.1,0.4-0.1,0.6c12.3,7.1,26.8,11.2,42.3,11.2C159.7,193.2,174.2,189.1,186.5,182.1z"/>
								</g>
							</g>
							<g>
								<g>
									<path class="st24" d="M186.4,180.8c0-0.2,0-0.4-0.1-0.6c-12.2,7.2-26.6,11.3-42.1,11.3s-29.9-4.2-42.1-11.3
										c0,0.2,0,0.4-0.1,0.6c12.2,7.1,26.7,11.3,42.2,11.3S174.1,188,186.4,180.8z"/>
								</g>
							</g>
							<g>
								<g>
									<path class="st24" d="M186.2,179.6c0-0.2,0-0.4,0-0.6c-12.1,7.3-26.6,11.5-42,11.5c-15.5,0-29.9-4.2-42-11.5
										c0,0.2,0,0.4,0,0.6c12.2,7.2,26.6,11.4,42.1,11.4C159.7,191,174.1,186.8,186.2,179.6z"/>
								</g>
							</g>
							<g>
								<g>
									<path class="st24" d="M144.2,189.3c-15.5,0-30-4.3-42.1-11.7c0,0.2,0,0.5,0,0.7c12.1,7.3,26.5,11.6,42,11.6
										s29.9-4.3,42-11.6c0-0.2,0-0.4,0-0.7C174.2,185,159.7,189.3,144.2,189.3z"/>
								</g>
							</g>
							<g>
								<g>
									<path class="st24" d="M186.3,176.9c0-0.2,0-0.5,0.1-0.7c-12,7.6-26.6,12-42.2,12s-30.1-4.4-42.2-12c0,0.2,0.1,0.5,0.1,0.7
										c12.1,7.5,26.5,11.9,42.1,11.9C159.7,188.8,174.2,184.4,186.3,176.9z"/>
								</g>
							</g>
							<g>
								<g>
									<path class="st24" d="M186.5,175.5c0-0.2,0.1-0.5,0.1-0.8c-12,7.8-26.6,12.4-42.4,12.4s-30.4-4.6-42.4-12.4
										c0,0.3,0.1,0.5,0.1,0.8c12,7.7,26.6,12.2,42.3,12.2S174.4,183.2,186.5,175.5z"/>
								</g>
							</g>
							<g>
								<g>
									<path class="st24" d="M186.7,174c0-0.3,0.1-0.5,0.1-0.8c-12,8.1-26.8,12.8-42.7,12.8s-30.7-4.8-42.7-12.8
										c0.1,0.3,0.1,0.5,0.1,0.8c12,7.9,26.7,12.6,42.5,12.6C160,186.6,174.7,181.9,186.7,174z"/>
								</g>
							</g>
							<g>
								<g>
									<path class="st24" d="M187,172.4c0.1-0.3,0.1-0.5,0.2-0.8c-12,8.4-26.9,13.3-43,13.3s-31-5-43-13.3
										c0.1,0.3,0.1,0.5,0.2,0.8c12,8.2,26.8,13.1,42.8,13.1S175,180.6,187,172.4z"/>
								</g>
							</g>
							<g>
								<g>
									<path class="st24" d="M187.4,170.7c0.1-0.3,0.1-0.6,0.2-0.8c-12,8.7-27,13.9-43.4,13.9s-31.4-5.2-43.4-13.9
										c0.1,0.3,0.1,0.6,0.2,0.8c12,8.5,27,13.6,43.2,13.6S175.4,179.3,187.4,170.7z"/>
								</g>
							</g>
							<g>
								<g>
									<path class="st24" d="M187.8,169c0.1-0.3,0.1-0.6,0.2-0.9c-12,9.1-27.2,14.5-43.8,14.5s-31.9-5.5-43.8-14.5
										c0.1,0.3,0.1,0.6,0.2,0.9c12,8.9,27.1,14.2,43.6,14.2C160.7,183.2,175.8,177.9,187.8,169z"/>
								</g>
							</g>
							<g>
								<g>
									<path class="st24" d="M188.2,167.2c0.1-0.3,0.2-0.6,0.2-0.9c-11.9,9.5-27.4,15.2-44.3,15.2s-32.4-5.7-44.3-15.2
										c0.1,0.3,0.2,0.6,0.2,0.9c11.9,9.3,27.3,14.9,44.1,14.9C160.9,182.1,176.3,176.5,188.2,167.2z"/>
								</g>
							</g>
							<g>
								<g>
									<path class="st24" d="M188.7,165.4c0-0.1,0.1-0.2,0.1-0.3c0-0.2,0.1-0.4,0.1-0.6c-11.9,9.9-27.5,15.9-44.7,15.9
										s-32.9-6-44.7-15.9c0,0.2,0.1,0.4,0.1,0.6c0,0.1,0.1,0.2,0.1,0.3c11.9,9.7,27.5,15.6,44.5,15.6S176.8,175.1,188.7,165.4z"
										/>
								</g>
							</g>
							<g>
								<g>
									<path class="st24" d="M188.9,163.7c0-0.2-0.1-0.5-0.1-0.7c-11.7,10.1-27.4,16.3-44.6,16.3s-32.9-6.2-44.6-16.3
										c-0.1,0.2-0.1,0.4-0.1,0.7c11.8,10,27.5,16.2,44.7,16.2S177.1,173.8,188.9,163.7z"/>
								</g>
							</g>
							<g>
								<g>
									<path class="st24" d="M188.6,162.5c-0.1-0.2-0.2-0.4-0.3-0.5c-11.6,10.1-27.1,16.3-44.2,16.3s-32.6-6.2-44.2-16.3
										c-0.1,0.2-0.2,0.4-0.3,0.5c11.7,10.1,27.3,16.3,44.5,16.3S177,172.6,188.6,162.5z"/>
								</g>
							</g>
							<g>
								<g>
									<path class="st24" d="M188.1,161.5c-0.1-0.2-0.2-0.3-0.4-0.4c-11.4,10-26.7,16.1-43.5,16.1s-32.1-6.1-43.5-16.1
										c-0.1,0.1-0.3,0.3-0.4,0.4c11.5,10,26.9,16.2,43.9,16.2S176.6,171.5,188.1,161.5z"/>
								</g>
							</g>
							<g>
								<g>
									<path class="st24" d="M187.3,160.6c-0.1-0.1-0.2-0.1-0.2-0.2c-0.1-0.1-0.2-0.1-0.2-0.2c-11.1,9.7-26.1,15.7-42.6,15.7
										s-31.5-6-42.6-15.7c-0.1,0.1-0.2,0.1-0.2,0.2c-0.1,0.1-0.2,0.1-0.2,0.2c11.2,9.9,26.4,15.9,43.1,15.9
										C160.8,176.6,176,170.5,187.3,160.6z"/>
								</g>
							</g>
							<g>
								<g>
									<path class="st24" d="M186.3,160c-0.2-0.1-0.3-0.2-0.5-0.3c-10.9,9.5-25.5,15.3-41.6,15.3s-30.7-5.8-41.6-15.3
										c-0.2,0.1-0.3,0.2-0.5,0.3c11,9.6,25.8,15.5,42.1,15.5C160.5,175.4,175.3,169.6,186.3,160z"/>
								</g>
							</g>
							<g>
								<g>
									<path class="st24" d="M185.3,159.3c-0.2-0.1-0.3-0.2-0.5-0.3c-10.7,9.2-24.9,14.8-40.6,14.8s-29.9-5.6-40.6-14.8
										c-0.2,0.1-0.3,0.2-0.5,0.3c10.8,9.3,25.2,15,41.1,15S174.5,168.6,185.3,159.3z"/>
								</g>
							</g>
							<g>
								<g>
									<path class="st24" d="M184.3,158.6c-0.2-0.1-0.3-0.2-0.5-0.3c-10.4,8.9-24.3,14.4-39.6,14.4s-29.2-5.4-39.6-14.4
										c-0.2,0.1-0.3,0.2-0.5,0.3c10.6,9,24.6,14.6,40.1,14.6S173.7,167.7,184.3,158.6z"/>
								</g>
							</g>
							<g>
								<g>
									<path class="st24" d="M183.3,158c-0.2-0.1-0.3-0.2-0.5-0.3c-10.2,8.6-23.7,13.9-38.6,13.9c-14.8,0-28.4-5.3-38.6-13.9
										c-0.2,0.1-0.3,0.2-0.5,0.3c10.3,8.8,24,14.1,39.1,14.1C159.2,172.1,173,166.8,183.3,158z"/>
								</g>
							</g>
							<g>
								<g>
									<path class="st24" d="M182.3,157.4c-0.2-0.1-0.3-0.2-0.5-0.3c-10,8.3-23.1,13.4-37.6,13.4c-14.4,0-27.6-5.1-37.6-13.4
										c-0.2,0.1-0.3,0.2-0.5,0.3c10.1,8.5,23.4,13.6,38.1,13.6C158.8,171,172.2,165.8,182.3,157.4z"/>
								</g>
							</g>
							<g>
								<g>
									<path class="st24" d="M181.2,156.7c-0.2-0.1-0.3-0.2-0.5-0.3c-9.7,8-22.5,12.9-36.5,12.9s-26.8-4.9-36.5-12.9
										c-0.2,0.1-0.3,0.2-0.5,0.3c9.8,8.2,22.8,13.2,37.1,13.2C158.4,169.9,171.4,164.9,181.2,156.7z"/>
								</g>
							</g>
							<g>
								<g>
									<path class="st24" d="M180.2,156.1c-0.2-0.1-0.3-0.2-0.5-0.3c-9.5,7.7-21.9,12.4-35.5,12.4s-26-4.7-35.5-12.4
										c-0.2,0.1-0.4,0.2-0.5,0.3c9.6,7.9,22.2,12.7,36,12.7S170.6,164,180.2,156.1z"/>
								</g>
							</g>
							<g>
								<g>
									<path class="st24" d="M179.2,155.5c-0.2-0.1-0.4-0.2-0.5-0.3c-9.2,7.4-21.3,12-34.4,12c-13.2,0-25.2-4.5-34.4-12
										c-0.2,0.1-0.4,0.2-0.5,0.3c9.4,7.6,21.6,12.2,35,12.2C157.6,167.7,169.8,163.1,179.2,155.5z"/>
								</g>
							</g>
							<g>
								<g>
									<path class="st24" d="M178.1,154.9c-0.2-0.1-0.4-0.2-0.5-0.3c-9,7.1-20.6,11.5-33.4,11.5c-12.7,0-24.4-4.3-33.4-11.5
										c-0.2,0.1-0.4,0.2-0.5,0.3c9.1,7.3,21,11.7,33.9,11.7C157.1,166.6,169,162.1,178.1,154.9z"/>
								</g>
							</g>
							<g>
								<g>
									<path class="st24" d="M177,154.2c-0.2-0.1-0.4-0.2-0.5-0.3c-8.7,6.8-20,11-32.3,11s-23.6-4.1-32.3-11
										c-0.2,0.1-0.4,0.2-0.5,0.3c8.9,7,20.3,11.2,32.8,11.2S168.2,161.2,177,154.2z"/>
								</g>
							</g>
							<g>
								<g>
									<path class="st24" d="M176,153.6c-0.2-0.1-0.4-0.2-0.5-0.3c-8.5,6.5-19.4,10.5-31.2,10.5c-11.9,0-22.7-3.9-31.2-10.5
										c-0.2,0.1-0.4,0.2-0.5,0.3c8.6,6.7,19.7,10.7,31.8,10.7C156.3,164.3,167.3,160.3,176,153.6z"/>
								</g>
							</g>
							<g>
								<g>
									<path class="st24" d="M174.9,153c-0.2-0.1-0.4-0.2-0.5-0.3c-8.2,6.2-18.7,9.9-30.1,9.9c-11.4,0-21.9-3.7-30.1-9.9
										c-0.2,0.1-0.4,0.2-0.5,0.3c8.4,6.4,19,10.2,30.7,10.2C155.8,163.2,166.5,159.4,174.9,153z"/>
								</g>
							</g>
							<g>
								<g>
									<path class="st24" d="M173.8,152.4c-0.2-0.1-0.4-0.2-0.6-0.3c-8,5.9-18.1,9.4-29,9.4c-11,0-21.1-3.5-29-9.4
										c-0.2,0.1-0.4,0.2-0.6,0.3c8.1,6.1,18.4,9.7,29.6,9.7C155.4,162.1,165.7,158.5,173.8,152.4z"/>
								</g>
							</g>
							<g>
								<g>
									<path class="st24" d="M172.7,151.8c-0.2-0.1-0.4-0.2-0.6-0.3c-7.7,5.6-17.4,8.9-27.9,8.9s-20.2-3.3-27.9-8.9
										c-0.2,0.1-0.4,0.2-0.6,0.3c7.8,5.7,17.7,9.2,28.5,9.2C154.9,161,164.8,157.6,172.7,151.8z"/>
								</g>
							</g>
							<g>
								<g>
									<path class="st24" d="M171.5,151.2c-0.2-0.1-0.3-0.2-0.5-0.2h-0.1c-7.4,5.3-16.7,8.4-26.8,8.4s-19.3-3.1-26.8-8.4h-0.1
										c-0.2,0.1-0.3,0.2-0.5,0.2c7.6,5.4,17.1,8.7,27.3,8.7C154.5,159.9,164,156.7,171.5,151.2z"/>
								</g>
							</g>
							<g>
								<g>
									<path class="st24" d="M170.4,150.6c-0.2-0.1-0.4-0.2-0.6-0.3c-7.2,5-16,7.9-25.6,7.9s-18.5-2.9-25.6-7.9
										c-0.2,0.1-0.4,0.2-0.6,0.3c7.3,5.1,16.4,8.1,26.2,8.1C154,158.8,163.1,155.7,170.4,150.6z"/>
								</g>
							</g>
							<g>
								<g>
									<path class="st24" d="M169.2,150c-0.2-0.1-0.4-0.2-0.6-0.3c-6.9,4.6-15.3,7.4-24.5,7.4c-9.1,0-17.6-2.7-24.5-7.4
										c-0.2,0.1-0.4,0.2-0.6,0.3c7,4.8,15.7,7.6,25.1,7.6C153.5,157.7,162.2,154.8,169.2,150z"/>
								</g>
							</g>
							<g>
								<g>
									<path class="st24" d="M168.1,149.5c-0.2-0.1-0.4-0.2-0.6-0.3c-6.6,4.3-14.6,6.8-23.3,6.8s-16.7-2.5-23.3-6.8
										c-0.2,0.1-0.4,0.2-0.6,0.3c6.7,4.5,15,7.1,23.9,7.1S161.3,153.9,168.1,149.5z"/>
								</g>
							</g>
							<g>
								<g>
									<path class="st24" d="M166.9,148.9c-0.2-0.1-0.4-0.2-0.6-0.3c-6.3,4-13.9,6.3-22.1,6.3c-8.2,0-15.8-2.3-22.1-6.3
										c-0.2,0.1-0.4,0.2-0.6,0.3c6.5,4.1,14.3,6.6,22.7,6.6C152.6,155.4,160.4,153,166.9,148.9z"/>
								</g>
							</g>
							<g>
								<g>
									<path class="st24" d="M165.7,148.3c-0.2-0.1-0.4-0.2-0.6-0.3c-6,3.6-13.2,5.8-20.9,5.8s-14.9-2.1-20.9-5.8
										c-0.2,0.1-0.4,0.2-0.6,0.3c6.2,3.8,13.5,6,21.5,6C152.1,154.3,159.5,152.1,165.7,148.3z"/>
								</g>
							</g>
							<g>
								<g>
									<path class="st24" d="M164.4,147.7c-0.2-0.1-0.4-0.2-0.6-0.3c-5.7,3.3-12.4,5.2-19.6,5.2c-7.2,0-13.9-1.9-19.6-5.2
										c-0.2,0.1-0.4,0.2-0.6,0.3c5.9,3.5,12.8,5.5,20.3,5.5C151.6,153.2,158.6,151.2,164.4,147.7z"/>
								</g>
							</g>
							<g>
								<g>
									<path class="st24" d="M163.2,147.1c-0.2-0.1-0.4-0.2-0.6-0.3c-5.4,3-11.6,4.7-18.3,4.7s-13-1.7-18.3-4.7
										c-0.2,0.1-0.4,0.2-0.6,0.3c5.5,3.1,12,5,19,5C151.1,152.1,157.6,150.3,163.2,147.1z"/>
								</g>
							</g>
							<g>
								<g>
									<path class="st24" d="M161.9,146.6c-0.2-0.1-0.4-0.2-0.7-0.3c-5,2.6-10.8,4.2-17,4.2s-12-1.5-17-4.2
										c-0.2,0.1-0.4,0.2-0.7,0.3c5.2,2.8,11.2,4.4,17.7,4.4C150.6,151,156.7,149.4,161.9,146.6z"/>
								</g>
							</g>
							<g>
								<g>
									<path class="st24" d="M160.5,146c-0.2-0.1-0.5-0.2-0.7-0.3c-4.7,2.3-10,3.6-15.7,3.6s-11-1.3-15.7-3.6
										c-0.2,0.1-0.5,0.2-0.7,0.3c4.9,2.5,10.4,3.9,16.4,3.9S155.7,148.5,160.5,146z"/>
								</g>
							</g>
							<g>
								<g>
									<path class="st24" d="M159.1,145.4c-0.2-0.1-0.5-0.2-0.7-0.3c-4.3,2-9.1,3.1-14.2,3.1c-5.1,0-9.9-1.1-14.2-3.1
										c-0.2,0.1-0.5,0.2-0.7,0.3c4.5,2.1,9.6,3.4,15,3.4C149.6,148.8,154.7,147.6,159.1,145.4z"/>
								</g>
							</g>
							<g>
								<g>
									<path class="st24" d="M157.7,144.9c-0.3-0.1-0.5-0.2-0.8-0.3c-3.9,1.6-8.2,2.5-12.8,2.5c-4.5,0-8.9-0.9-12.8-2.5
										c-0.2,0.1-0.5,0.2-0.8,0.3c4.1,1.8,8.7,2.8,13.5,2.8C149,147.7,153.6,146.7,157.7,144.9z"/>
								</g>
							</g>
							<g>
								<g>
									<path class="st24" d="M156.2,144.3c-0.3-0.1-0.5-0.2-0.8-0.3c-3.5,1.3-7.2,2-11.2,2s-7.7-0.7-11.2-2
										c-0.3,0.1-0.5,0.2-0.8,0.3c3.7,1.5,7.7,2.3,12,2.3C148.4,146.6,152.5,145.7,156.2,144.3z"/>
								</g>
							</g>
							<g>
								<g>
									<path class="st24" d="M154.5,143.7c-0.3-0.1-0.6-0.2-0.9-0.3c-3,1-6.1,1.5-9.4,1.5s-6.5-0.5-9.4-1.5
										c-0.3,0.1-0.6,0.2-0.9,0.3c3.2,1.1,6.7,1.7,10.3,1.7S151.3,144.8,154.5,143.7z"/>
								</g>
							</g>
							<g>
								<g>
									<path class="st24" d="M152.7,143.1c-0.3-0.1-0.7-0.2-1-0.3c-2.4,0.6-4.9,1-7.5,1s-5.1-0.3-7.5-1c-0.3,0.1-0.7,0.2-1,0.3
										c2.7,0.8,5.5,1.2,8.5,1.2S150,143.9,152.7,143.1z"/>
								</g>
							</g>
							<g>
								<g>
									<path class="st24" d="M150.6,142.5c-0.4-0.1-0.9-0.2-1.3-0.3c-1.7,0.3-3.4,0.5-5.1,0.5s-3.5-0.2-5.1-0.5
										c-0.4,0.1-0.8,0.2-1.3,0.3c2.1,0.5,4.2,0.7,6.4,0.7C146.4,143.2,148.5,143,150.6,142.5z"/>
								</g>
							</g>
							<g>
								<g>
									<path class="st24" d="M147.8,141.9c-1-0.2-1.9-0.3-2.7-0.3c-0.3,0-0.6,0-0.9,0c-0.3,0-0.6,0-0.9,0c-0.8,0-1.7,0.2-2.7,0.3
										c1.2,0.2,2.4,0.2,3.6,0.2C145.4,142.1,146.6,142,147.8,141.9z"/>
								</g>
							</g>
						</g>
					</g>
				</g>
			</g>
		</g>
	</g>
	<path class="st7" d="M93.7,255.1c0,0-25.3,3.4-33.7,68.5l29.5,12.2c0,0,8.4-34.6,12.5-37.6S97.2,253.9,93.7,255.1z"/>
	<path class="st7" d="M207.6,258.5c0,0,26.1,3.1,34.6,68.2l-30.4,12.5c0,0-8.4-34.6-12.5-37.6C195.1,298.6,204,257.3,207.6,258.5z"
		/>
	<g>
		<path class="st25" d="M136.7,673.6c-2.3,0-4.5,0-6.6,0c-21.9-0.3-38.9-3.4-39.1-9.1c-0.6-16.4,3.2-120.1,3.2-120.1
			s-2.7-94.7,0.4-99.9c1.7-2.9,0.6-27.4-0.6-50.6c0-0.1,0-0.1,0-0.2c-1-19.2-2.1-37.4-1.8-41.5c0.1-1.1,0.2-2.5,0.3-4l0,0
			c0.3-4.4,0.6-10.2,0.9-15.3c0.4-6.8,0.7-12.5,0.7-12.5s-9.7-55.2,3.8-67.1c0.9-0.8,1.9-1.4,3.1-1.8c6.5-2.1,11.2-3.4,14.5-4.3
			c1.7-0.5,3-0.8,4.1-1.1l10,23.9l39.2,0.5l8.7-23c0,0,1.8,0.1,4.6,0.4c9.1,1,18.8,6.2,22.6,8.4c5.3,10.9,6.6,78.9,6.6,78.9
			l8.1,108.8c0,0-1.2,161.3,7.5,196.6c0.2,0.7,0.3,1.4,0.3,2C228.5,663.6,176.8,673.1,136.7,673.6z"/>
		<path class="st26" d="M90.5,664.6c-0.6-16.4,3.2-120.1,3.2-120.1s-2.7-94.7,0.4-99.9c3.1-5.3-2.3-82.1-1.7-91.1
			c0.6-9-8.8-92.2,5.2-100.1c-5.2,21.7,0.5,94.5,1.7,103.4c1.9,14.8,1.7,34.2,1.9,49.1c0.4,30.4,6.3,54.5,5,84.8
			c-1.5,35-1.3,71.3,13.1,103.2s46.8,58.2,81.7,54.8c8.6-0.8,17-3.4,25.3-5.9C229.2,676.5,91.1,680.7,90.5,664.6z"/>
	</g>
	<path class="st0" d="M80.4,478.1l16.8-3.8c0,0-16.8-83.6-14.2-108.9c2.9-28-24.2-36.3-24.9,2.5C57.6,397.7,80.4,478.1,80.4,478.1z"
		/>
	<g>
		<path class="st0" d="M236.1,492.4c1.6-5.7-4.1-27.2-11.2-26.3c-4,0.5-10.4,16.1-10.2,23.7c1.6,0.9,2.7,3.9,3.3,5.4
			C218.7,496.7,234.5,498,236.1,492.4z"/>
		<path class="st0" d="M223.7,511.8c-0.3-4.1-0.7-10.6-0.6-16.3c1.3-0.1,2.6-0.4,3.9-0.8c0.8,5.3,1.2,12,1.4,16c0.3,5.8-0.5,8.8-2,9
			C225,519.8,224.1,517.1,223.7,511.8z"/>
		<path class="st0" d="M229.4,509.5c-0.6-3.9-1.4-9.9-1.6-15.3c1.3-0.1,2.9-0.6,4.1-1.1c1.1,4.9,1.5,11.4,2,15.2
			c0.7,5.5,0.1,8.3-1.4,8.5C231.1,517.1,230.1,514.5,229.4,509.5z"/>
		<path class="st0" d="M234,505.8c-0.5-3.3-1.2-8.5-1.3-13c1.1-0.1,2.5-0.5,3.5-0.9c1,4.2,1.3,9.7,1.7,13c0.6,4.7,0.1,7.1-1.2,7.3
			C235.5,512.3,234.6,510.1,234,505.8z"/>
		<path class="st0" d="M217.5,509.9c0.1-3.9,0.1-11.4,0.8-16.7c1.3,0.1,3.2,1.3,4.4,1c0.3,5-0.4,11.5-0.6,15.3
			c-0.2,5.5-1.3,8.2-2.8,8.2C218,517.6,217.4,515,217.5,509.9z"/>
		<path class="st0" d="M208.6,488.3c3.1-2.4,4.8-11.8,9.4-14.5c0.7,1.1,5.2,7.3,6.1,8.1c-3.8,3.3-8.3,7.2-11.4,9.4
			c-4.5,3.1-8.2,1.9-9.1,0.7C202.8,490.9,207,489.5,208.6,488.3z"/>
	</g>
	<g>
		<path class="st0" d="M79.5,493.3c-2-5.5,1.7-26.7,9-27.1c4-0.2,11.7,15.3,12.1,22.8c-1.5,1-2.4,4.1-2.9,5.7S81.5,498.9,79.5,493.3
			z"/>
		<path class="st0" d="M93.4,511.7c0-4.1-0.1-10.7-0.7-16.3c-1.3,0-2.6-0.1-3.9-0.5c-0.4,5.3-0.2,12-0.1,16.1
			c0.1,5.9,1.2,8.8,2.8,8.8C92.8,519.8,93.4,517,93.4,511.7z"/>
		<path class="st0" d="M87.6,509.9c0.3-3.9,0.5-10,0.3-15.3c-1.3,0-3-0.4-4.2-0.8c-0.7,5-0.6,11.5-0.7,15.3
			c-0.2,5.5,0.6,8.3,2.1,8.4C86.4,517.6,87.2,515,87.6,509.9z"/>
		<path class="st0" d="M82.7,506.6c0.2-3.3,0.5-8.5,0.3-13.1c-1.1,0-2.5-0.3-3.6-0.7c-0.6,4.3-0.5,9.8-0.6,13
			c-0.2,4.7,0.5,7.1,1.8,7.1C81.7,513.1,82.4,510.9,82.7,506.6z"/>
		<path class="st0" d="M99.4,509.3c-0.4-3.9-1-11.4-2.1-16.6c-1.3,0.2-3.1,1.5-4.3,1.4c0.1,5,1.3,11.4,1.8,15.2
			c0.7,5.5,2,8.1,3.5,7.9C99.6,517.1,99.9,514.4,99.4,509.3z"/>
		<path class="st0" d="M106.6,487.1c-3.2-2.2-5.1-11.1-9.9-13.4c-0.6,1.2-5.2,7.4-6.1,8.3c4.1,3,8.8,6.5,12.1,8.4
			c4.8,2.8,8.3,1.3,9.1,0C112.6,489.2,108.2,488.2,106.6,487.1z"/>
	</g>
	<path class="st0" d="M233.9,477.2l-17-2.4c0,0,10-84.7,5.4-109.7c-5.1-27.7,21.2-38.1,25,0.4C250.1,395.3,233.9,477.2,233.9,477.2z
		"/>
	<path class="st26" d="M181.8,248.1l-9.6,26.9h-44.7l-12.2-27.7c1.7-0.5,3-0.8,4.1-1.1l10,23.9l39.2,0.5l9-23.7
		C177.4,247,179,247.8,181.8,248.1z"/>
	<g>
		<g>
			<path class="st27" d="M167.8,214.5h-54c-16.8,0-30.5-13.7-30.5-30.5V87.9h115V184C198.3,200.9,184.7,214.5,167.8,214.5z"/>
			<path class="st28" d="M190.5,190.6V87.9h-11.2v102.8c0,8.6-3.6,16.3-9.5,22.2c-3.1,1-6.4,1.5-9.9,1.7c0,0,0,0-0.1,0.1h2.5
				c9.1,0,17.4-3,23.7-8.1C188.8,201.8,190.5,196.4,190.5,190.6z"/>
			<path class="st29" d="M214.6,103.1L69,103.4l-0.7-6.1l-0.4-9.4l146-0.7c0,0,0.9,7.5,0.9,9.8C214.8,98.6,214.6,103.1,214.6,103.1z
				"/>
			<g>
				<ellipse class="st1" cx="90.9" cy="95.6" rx="2.9" ry="2.6"/>
				<ellipse class="st1" cx="190.5" cy="95.6" rx="2.9" ry="2.6"/>
			</g>
		</g>
		<g>
			<path class="st1" d="M107.5,91.6h4.9v1.5h-3.1V95h2.9v1.5h-2.9v3.3h-1.8V91.6z"/>
			<path class="st1" d="M114.9,97.6l-0.6,2.1h-1.9l2.5-8.1h2.4l2.5,8.1h-2l-0.6-2.1H114.9z M116.9,96.3l-0.5-1.7
				c-0.1-0.5-0.3-1.1-0.4-1.6l0,0c-0.1,0.5-0.2,1.1-0.4,1.6l-0.5,1.7H116.9z"/>
			<path class="st1" d="M126.5,99.5c-0.3,0.2-1.1,0.3-2.1,0.3c-2.8,0-4.2-1.7-4.2-4c0-2.8,2-4.3,4.4-4.3c0.9,0,1.7,0.2,2,0.4
				l-0.4,1.5c-0.4-0.2-0.9-0.3-1.5-0.3c-1.5,0-2.6,0.9-2.6,2.7c0,1.6,1,2.6,2.6,2.6c0.6,0,1.2-0.1,1.5-0.3L126.5,99.5z"/>
			<path class="st1" d="M132.5,96.3h-3v1.9h3.3v1.5h-5.2v-8.1h5v1.5h-3.2v1.7h3L132.5,96.3L132.5,96.3z"/>
			<path class="st1" d="M136.6,97.8c0.5,0.3,1.2,0.5,2,0.5s1.3-0.3,1.3-0.9c0-0.5-0.4-0.8-1.4-1.1c-1.3-0.5-2.2-1.2-2.2-2.4
				c0-1.4,1.2-2.4,3.1-2.4c0.9,0,1.6,0.2,2.1,0.4l-0.4,1.5c-0.3-0.2-0.9-0.4-1.7-0.4s-1.2,0.4-1.2,0.8c0,0.5,0.5,0.7,1.5,1.1
				c1.4,0.5,2.1,1.3,2.1,2.4c0,1.4-1,2.5-3.3,2.5c-0.9,0-1.8-0.2-2.3-0.5L136.6,97.8z"/>
			<path class="st1" d="M144.8,91.6v3.1h3v-3.1h1.8v8.1h-1.8v-3.4h-3v3.4H143v-8.1H144.8z"/>
			<path class="st1" d="M153.1,91.6v8.1h-1.8v-8.1H153.1z"/>
			<path class="st1" d="M159.5,96.3h-3v1.9h3.3v1.5h-5.2v-8.1h5v1.5h-3.2v1.7h3L159.5,96.3L159.5,96.3z"/>
			<path class="st1" d="M161.1,91.6h1.8v6.5h3.2v1.5h-5V91.6z"/>
			<path class="st1" d="M167.2,91.7c0.7-0.1,1.5-0.2,2.5-0.2c1.5,0,2.5,0.3,3.3,0.9s1.4,1.6,1.4,3c0,1.5-0.6,2.6-1.3,3.3
				c-0.9,0.7-2.1,1-3.7,1c-0.9,0-1.6-0.1-2.1-0.1L167.2,91.7L167.2,91.7z M169.1,98.3c0.2,0,0.4,0,0.6,0c1.7,0,2.7-0.9,2.7-2.8
				c0-1.7-1-2.6-2.5-2.6c-0.4,0-0.7,0-0.8,0.1V98.3z"/>
		</g>
	</g>
</g>
</svg>
