<?xml version="1.0" encoding="utf-8"?>
<!-- Generator: Adobe Illustrator 22.1.0, SVG Export Plug-In . SVG Version: 6.00 Build 0)  -->
<svg version="1.1" id="Layer_1" xmlns="http://www.w3.org/2000/svg" xmlns:xlink="http://www.w3.org/1999/xlink" x="0px" y="0px"
	 viewBox="0 0 300.5 821.3" style="enable-background:new 0 0 300.5 821.3;" xml:space="preserve">
<style type="text/css">
	.st0{fill:#FFFFFF;}
	.st1{fill:#22366B;}
	.st2{fill:#18294C;}
	.st3{fill:#22AA66;}
	.st4{fill:#229958;}
	.st5{fill:#209E5F;}
	.st6{fill:#24BF77;}
	.st7{fill:#25AF66;}
	.st8{fill:#E3AC81;}
	.st9{fill:#F4A876;}
	.st10{fill:#F8BA8C;}
	.st11{fill:#EBE0DA;}
	.st12{fill:#793B16;}
	.st13{fill:#EADBD5;}
	.st14{fill:#EADBD8;}
	.st15{fill:#5B2C0B;}
	.st16{fill:#803E19;}
	.st17{opacity:0.1;}
	.st18{fill:#60D2A5;}
	.st19{fill:#57C193;}
	.st20{fill:#45BF87;}
	.st21{fill:#028251;}
	.st22{fill:#07AF72;}
	.st23{opacity:0.25;}
	.st24{fill:#8DD9B8;}
	.st25{opacity:0.39;fill:#FFFFFF;enable-background:new    ;}
	.st26{opacity:0.42;fill:#F9F9F9;enable-background:new    ;}
	.st27{fill:#2B96F4;}
</style>
<g id="BACKGROUND">
</g>
<g id="OBJECT">
	<g>
		<g>
			<g>
				<g>
					<path class="st0" d="M74.8,816.7c24.4-6.5,45.1-11.1,50-14.3c3.3-2.2-0.1-10.7-0.1-10.7L98.4,778L44,800.8c0,0-1.3,5.4,1,8.6
						C48.9,814.7,62.5,819.9,74.8,816.7z"/>
					<path class="st0" d="M229.8,816.7c-24.4-6.5-45.1-11.1-50-14.3c-3.3-2.2,0.1-10.7,0.1-10.7l26.3-13.7l54.4,22.9
						c0,0,1.3,5.4-1,8.6C255.7,814.7,242.1,819.9,229.8,816.7z"/>
					<path class="st1" d="M230.3,810.8c-24.4-6.5-45.2-11-50-14.3s0-24.9,0-24.9l26.4,0.5c0,0,36.7,21.5,47.3,23.7
						C273.1,799.5,250,815.9,230.3,810.8z"/>
					<path class="st2" d="M259.9,798.2c-5.4,4-13.4,6.2-19.8,5.9c-5.9-0.3-11.4-2.1-16.8-4.4c-5.6-2.3-12.3-4.5-17.3-8
						c-7.2-5.1-10.4-12.9-15.2-19.9l-10.5-0.2c0,0-4.8,21.5,0,24.9c4.8,3.3,25.6,7.9,50,14.3C247,815.2,266.2,804,259.9,798.2z"/>
					<path class="st3" d="M151.2,501.4c6.7,10.5,18.8,58.9,20.7,119.6c2.1,65.5-1.9,157.2,4.8,161.1c11.3,6.4,37.8-3.3,40.1-10.5
						c-0.5-13.9-11.7-207.7-5.3-288.7C174.1,461.1,136,477.4,151.2,501.4z"/>
					<path class="st4" d="M192.4,772.2c-7.8-9.2-7.9-25-9.3-36.4c-2.2-18.1,0.5-35.9-2-54.1c-1.6-11.8-5.7-28.6-0.4-39.9
						c1.9-4,7.4-5.7,10.2-8.7c1.9-2-4.3-3.6-5.5-4.4c-1.7-1-2.9-3.2-3.7-5c-2.3-5.4-1.7-12.5-2.3-18.3c-1.1-9.8-1.9-19.7-2.4-29.5
						c-1.2-22.8,3.6-63-24.2-71.6c6.9,14.8,17.4,60.5,19.2,116.7c2.1,65.5-1.9,157.2,4.8,161.1c8,4.6,23.7,1,32.9-4.1
						C203.3,778.8,197.2,777.9,192.4,772.2z"/>
					<path class="st1" d="M74.8,810.8c24.4-6.5,45.2-11,50-14.3s0-24.9,0-24.9L98.4,772c0,0-36.7,21.5-47.3,23.7
						C32,799.5,55.2,815.9,74.8,810.8z"/>
					<path class="st2" d="M124.8,771.6l-14,0.3c2.4,7.1,0.2,15.5-7.9,19.7c-8.2,4.3-17.6,9-26.6,10.8c-10.1,2.1-20.8-1-31-1.2
						c-0.5,0-0.9-0.1-1.3-0.3c0.2,5.9,16.4,13.7,30.8,9.9c24.4-6.5,45.2-11,50-14.3C129.6,793.1,124.8,771.6,124.8,771.6z"/>
					<path class="st3" d="M148.1,499.5c-6.7,10.5-15.8,60.8-17.7,121.5c-2.1,65.5,3.5,157.2-3.2,161.1c-11.3,6.4-37.8-3.3-40.1-10.5
						c0.5-14.3,9.7-207.4,3.2-288.8C127.8,461,163.3,475.6,148.1,499.5z"/>
					<path class="st4" d="M148.1,499.5c0.5-0.8,0.9-1.5,1.3-2.3c-19.2,13-24.8,40.2-27.1,62.3c-1.6,15.6-0.2,31-1.4,46.5
						c-0.5,6.1-0.9,13.2-5,18.1c-2.6,3.1-5.9,5.3-9.3,7.4c3.5,2.3,7.8,4.3,9.5,8c3.3,7-1.2,11-1,18c0.3,10.1,2.6,20.1,2.6,30.3
						c0,10.3-1.1,20.5-0.9,30.8c0.3,15.1,5.4,33.8-3.4,47.5c-6,9.2-12.5,10.9-21,10.7c8.9,5.6,26.2,10,34.7,5.1
						c6.7-3.8,1.1-95.6,3.2-161.1C132.3,560.3,141.4,510.1,148.1,499.5z"/>
					<path class="st3" d="M211.6,482.9c-3.2,26.1-117,27.9-120.2,4.9c-1.5-10.9-1.5-26-0.5-34.8c0.3-2.4,0.6-4.3,1.1-5.6
						c2-6,112.9-18.2,116.1-1.7c0.4,0,1,1.7,1.7,4.5C211.4,457,213.2,470.4,211.6,482.9z"/>
					<path class="st5" d="M209.8,450.3c-1.7,1.2-3.6,2-5.6,2.8c-29.4,11.8-62.5,11.2-93.6,5.4c-6.3-1.2-13.5-2.5-19.7-5.4
						c0.3-2.4,0.6-4.3,1.1-5.6c2-6,112.9-18.2,116.1-1.7C208.5,445.7,209.1,447.4,209.8,450.3z"/>
					<path class="st6" d="M208.1,445.7c-5,3.8-14.5,6.6-26.1,8.4c-7,1.1-14.7,1.8-22.6,2.1c-1.6,0.1-3.2,0.1-4.8,0.2
						c-0.8,0-1.6,0-2.4,0c-24.8,0.4-50-2.6-60.2-9.1c-6.7-14.6-2.9-126.5-2.9-126.5s-0.1-0.2-0.2-0.6c0-0.1-0.1-0.2-0.1-0.3
						c-0.1-0.2-0.1-0.4-0.2-0.6c0,0,0,0,0-0.1l0,0c0-0.1-0.1-0.2-0.1-0.3c-0.2-0.8-0.5-1.7-0.9-2.8c-0.1-0.2-0.1-0.4-0.2-0.7
						c-0.1-0.4-0.3-0.9-0.4-1.4c-0.1-0.2-0.1-0.4-0.2-0.6c0-0.1,0-0.1,0-0.2c-0.1-0.4-0.2-0.7-0.3-1.1c0,0,0,0,0-0.1l0,0
						c0-0.2-0.1-0.3-0.1-0.5c-0.1-0.3-0.2-0.5-0.2-0.8c-0.6-2-1.2-4.2-1.9-6.5c-0.2-0.8-0.4-1.6-0.7-2.5c-0.3-0.9-0.5-1.9-0.8-2.9
						s-0.5-2-0.8-2.9c-0.1-0.4-0.2-0.8-0.3-1.2c0-0.1,0-0.2-0.1-0.3c-0.2-0.9-0.5-1.9-0.7-2.8c0-0.1,0-0.1,0-0.2
						c-0.2-0.6-0.3-1.3-0.5-1.9c-2.7-11.2-4.5-21.6-2.5-23.8c0.3-0.4,0.8-0.8,1.3-1.2l0,0c5.5-4.6,18.7-9.2,31.5-12.9
						c2-0.6,3.9-1.1,5.8-1.6l0,0c5.6-1.5,10.9-2.8,15.1-3.8c5.9-1.4,9.8-2.2,9.8-2.2s11.4,2.5,24.6,6.1c0.2,0.1,0.3,0.1,0.3,0.1l0,0
						c1.1,0.3,2.3,0.6,3.4,0.9c13.9,3.9,28.9,8.8,34.2,13.1l0,0c0.6,0.5,1.1,1,1.5,1.5c1.2,1.8,0.7,9.3-0.3,20.4
						c-0.2,2.1-0.4,4.3-0.6,6.6c-0.1,0.9-0.2,1.8-0.2,2.7c-0.1,1.6-0.3,3.3-0.4,5c-0.1,1.1-0.2,2.3-0.3,3.5
						c-0.3,3.9-0.6,8.1-0.8,12.4c-0.1,1.1-0.1,2.3-0.2,3.5c-0.1,1-0.1,2.1-0.1,3.1c0,0.1,0,0.2,0,0.3v0.1c-0.1,2.4-0.2,4.9-0.2,7.4
						c0,1.2-0.1,2.4-0.1,3.6c-0.1,6.6,0,13.4,0.4,20.3c0.1,1.7,0.2,3.4,0.3,5.1c0,0.8,0.1,1.7,0.2,2.5c0.2,3.2,0.4,6.3,0.7,9.4
						c0.1,0.8,0.1,1.5,0.2,2.2c0.2,2.1,0.4,4.2,0.5,6.3c0.1,0.7,0.1,1.4,0.2,2.1c0.3,3,0.6,5.9,0.8,8.7c0.1,1.1,0.2,2.2,0.4,3.3
						c0.3,2.7,0.6,5.3,0.8,7.9c0.2,1.5,0.3,2.9,0.5,4.3c0.2,1.5,0.3,3,0.5,4.4C209.2,426.3,210.1,437.6,208.1,445.7z"/>
					<path class="st5" d="M169.9,251.4c-2.7,6-12.9,27.2-23.6,29.5c0,0-24.9-1.5-35.6-29c2-0.6,3.9-1.1,5.8-1.6l0,0
						c0.2-0.1,0.4-0.2,0.6-0.3c0.1-0.1,0.3-0.2,0.4-0.3c1.3-0.9,3.3-2.5,5.4-5.4c0.1-0.2,0.2-0.3,0.3-0.5c0.2-0.3,0.4-0.6,0.6-1
						c0.1-0.2,0.2-0.4,0.3-0.6c0.5-1,0.9-2,1.2-3.2c2.1-0.1,4.6-0.2,7.2-0.3l0,0c7.4-0.2,16.2,0,23.4,1.1c0.7,2.3,1.5,3.9,2.6,5.5
						c2.3,3.3,6.3,4.7,7.4,5c0.2,0.1,0.3,0.1,0.3,0.1l0,0C167.6,250.7,168.7,251,169.9,251.4z"/>
					<path class="st5" d="M191.3,327.7c0.5,17.3,3.3,34.2,7.6,51c2.1,8.1,3.8,16.3,5.9,24.4c0.7,2.7,1.7,5.3,2.8,7.9
						c-1.5-14.8-3.8-33.3-5-56.2c-1.4-26.4,1-51.6,2.5-68.5C198,299.3,190.9,313.4,191.3,327.7z"/>
					<path class="st7" d="M151.9,447.5c-25,0.9-44.8-11.7-48.8-24.9c-4-13.1-2.8-69.5-4.6-94.1c-1.2-17-7.5-30.5-18.7-41.2
						c3.5,15.5,9.3,33.7,9.3,33.7S85.3,432.8,92,447.4c14.5,9.2,59.5,11.4,90.1,6.7C171.6,453.7,161.9,447.1,151.9,447.5z"/>
					<path class="st8" d="M166.4,250.4L166.4,250.4c-0.2,0.6-8.9,23.9-22,27c-0.8-0.2-1.7-0.4-2.5-0.6c-0.2-0.1-0.4-0.1-0.6-0.2
						c-0.3-0.1-0.6-0.2-0.8-0.3c-0.4-0.1-0.7-0.3-1.1-0.4c-0.3-0.1-0.7-0.3-1-0.5c-12-5.9-20.6-21-22.3-24.2
						c-0.1-0.1-0.1-0.2-0.2-0.3c0-0.1-0.1-0.1-0.1-0.2c0-0.1,0-0.1,0-0.1s0,0,0.1-0.1s0.3-0.1,0.5-0.2l0,0c0.2-0.1,0.4-0.2,0.6-0.3
						c0.1-0.1,0.3-0.2,0.4-0.3c1.3-0.9,3.3-2.5,5.4-5.4c0.1-0.2,0.2-0.3,0.3-0.5c0.2-0.3,0.4-0.6,0.6-1c0.1-0.2,0.2-0.4,0.3-0.6
						c0.5-1,0.9-2,1.2-3.2c0.1-0.5,0.3-1.1,0.4-1.8c0-0.3,0.1-0.5,0.1-0.8c0,0,0-0.1,0-0.2c0.1-0.5,0.1-0.9,0.2-1.5
						c0.2-2.3,0.2-5.2,0-8.7c0-0.4,0-0.8-0.1-1.3c0-0.2,0-0.4,0-0.7c0-0.1,0-0.2,0-0.4l0,0c0-0.1,0-0.2,0-0.3s0-0.3,0-0.5
						c0-0.1,0-0.1,0-0.2c0-0.1,0-0.3,0-0.5l0,0c0-0.3,0-0.6-0.1-1c0-0.3,0-0.5-0.1-0.8c0-0.2,0-0.4,0-0.6c0-0.3,0-0.6-0.1-0.9
						c0-0.5-0.1-1.1-0.1-1.6c0-0.1,0-0.2,0-0.4c0-0.1,0-0.2,0-0.3l0,0c0-0.1,0-0.1,0-0.2c0-0.2,0-0.4,0-0.6c0-0.2,0-0.4-0.1-0.6
						c0-0.2,0-0.4-0.1-0.6c0-0.2,0-0.4-0.1-0.6c0-0.2,0-0.4-0.1-0.6c0-0.2,0-0.3-0.1-0.5l0,0l0,0c0-0.1,0-0.3,0-0.4v-0.1
						c0-0.2,0-0.4-0.1-0.6c0-0.2,0-0.4-0.1-0.6c0-0.2,0-0.4-0.1-0.6c0-0.2,0-0.4-0.1-0.6c0-0.2,0-0.4-0.1-0.6c0-0.1,0-0.3,0-0.5
						v-0.1c0-0.2,0-0.4-0.1-0.6c0-0.2,0-0.4-0.1-0.6c0-0.2,0-0.4-0.1-0.6c0-0.2,0-0.4-0.1-0.6c0-0.2,0-0.3-0.1-0.5v-0.1
						c0-0.2,0-0.4-0.1-0.6c0-0.2,0-0.4-0.1-0.6c0-0.2,0-0.4,0-0.6s0-0.4,0-0.6c0-0.2,0-0.4,0-0.5l0,0c0-0.2,0-0.4,0-0.6
						c0-0.2,0-0.4,0-0.6l0,0c0-0.2,0-0.4,0-0.6v-0.1c0-0.2,0-0.3,0-0.5s0-0.4,0-0.6c0-0.2,0-0.4,0-0.6l0,0c0-0.2,0-0.4,0-0.6
						c0-0.2,0-0.4,0-0.5c0-0.2,0-0.4,0.1-0.6c0-0.2,0-0.4,0-0.6c0-0.2,0-0.4,0.1-0.6c0-0.2,0-0.4,0.1-0.6c0-0.2,0.1-0.4,0.1-0.5V195
						c0-0.1,0-0.3,0.1-0.4c0-0.2,0.1-0.4,0.1-0.5c0-0.2,0.1-0.4,0.1-0.6c0-0.2,0.1-0.4,0.1-0.5c0-0.2,0.1-0.3,0.1-0.5l0,0
						c0.1-0.2,0.1-0.4,0.2-0.5c0-0.2,0.1-0.4,0.2-0.5c0.1-0.2,0.1-0.4,0.2-0.5c0.1-0.2,0.1-0.4,0.2-0.5c0.1-0.2,0.1-0.4,0.2-0.5
						c0.1-0.2,0.2-0.4,0.2-0.5c0.1-0.2,0.2-0.4,0.2-0.5c0.1-0.2,0.2-0.3,0.3-0.5c0.1-0.2,0.2-0.3,0.3-0.5c0.1-0.2,0.2-0.4,0.3-0.5
						c0.1-0.2,0.2-0.3,0.3-0.5c0.1-0.2,0.2-0.3,0.3-0.5c0.1-0.2,0.2-0.3,0.4-0.5c0.1-0.2,0.3-0.3,0.4-0.5c0.1-0.2,0.3-0.4,0.4-0.5
						c0.2-0.2,0.3-0.3,0.5-0.5s0.3-0.3,0.5-0.5s0.3-0.3,0.5-0.5l0,0c0.2-0.2,0.4-0.3,0.6-0.5c0.2-0.2,0.4-0.3,0.7-0.5
						s0.5-0.3,0.8-0.5s0.6-0.3,0.9-0.5c0.4-0.2,0.7-0.4,1.1-0.5l0,0c0.5-0.2,1-0.4,1.5-0.5c0.2-0.1,0.4-0.1,0.6-0.1
						c0.2,0,0.4-0.1,0.6-0.1c1.2-0.2,2.5-0.2,3.7,0c0.2,0,0.4,0.1,0.6,0.1c0.1,0,0.2,0,0.4,0.1l0,0c0.5,0.1,1,0.3,1.5,0.5
						c0.4,0.1,0.7,0.3,1.1,0.5l0,0c0.3,0.1,0.6,0.3,0.9,0.5c0.3,0.1,0.5,0.3,0.8,0.5c0.2,0.1,0.5,0.3,0.7,0.5
						c0.2,0.1,0.4,0.3,0.6,0.5c0.2,0.1,0.4,0.3,0.6,0.5c0.2,0.2,0.3,0.3,0.5,0.5s0.3,0.3,0.5,0.5c0.1,0.2,0.3,0.3,0.4,0.5
						c0.1,0.2,0.3,0.3,0.4,0.5c0.1,0.2,0.3,0.3,0.4,0.5c0.1,0.2,0.2,0.3,0.4,0.5c0.1,0.2,0.2,0.3,0.3,0.5s0.2,0.3,0.3,0.5
						s0.2,0.3,0.3,0.5s0.2,0.4,0.3,0.5c0.1,0.2,0.2,0.3,0.2,0.5c0.1,0.2,0.2,0.3,0.2,0.5l0,0c0,0.1,0.1,0.1,0.1,0.2
						c0,0.1,0.1,0.2,0.1,0.4c0.1,0.2,0.1,0.3,0.2,0.5c0.1,0.2,0.1,0.4,0.2,0.5c0,0,0,0,0,0.1s0.1,0.3,0.1,0.5
						c0.1,0.2,0.1,0.4,0.2,0.5c0.1,0.2,0.1,0.4,0.1,0.5c0,0.2,0.1,0.4,0.1,0.6c0,0.2,0.1,0.4,0.1,0.5l0,0c0,0.2,0.1,0.4,0.1,0.5
						c0,0.2,0.1,0.4,0.1,0.5c0,0.2,0.1,0.4,0.1,0.6c0,0.2,0,0.4,0.1,0.5c0,0.2,0,0.4,0.1,0.6c0,0.2,0,0.4,0.1,0.6c0,0.2,0,0.4,0,0.5
						c0,0.2,0,0.4,0,0.6c0,0.2,0,0.4,0,0.6v0.1c0,0.1,0,0.3,0,0.4c0,0.2,0,0.4,0,0.6c0,0.2,0,0.4,0,0.6l0,0c0,0.2,0,0.4,0,0.6
						c0,0.2,0,0.4,0,0.6c0,0.2,0,0.4,0,0.6v0.1c0,0.2,0,0.3,0,0.5s0,0.4,0,0.6s0,0.4,0,0.6c0,0.2,0,0.4,0,0.6c0,0.2,0,0.4,0,0.6
						c0,0.2,0,0.4,0,0.6l0,0c0,0.2,0,0.4,0,0.6c0,0.2,0,0.4,0,0.6v0.6c0,0.2,0,0.4,0,0.6c0,0.2,0,0.4,0,0.6c0,0.2,0,0.4,0,0.6
						s0,0.4,0,0.6v0.6c0,0.2,0,0.4,0,0.5v0.6c0,0.2,0,0.4,0,0.6s0,0.4,0,0.6c0,0.2,0,0.4,0,0.5v0.6c0,0.2,0,0.4,0,0.6
						c0,0.2,0,0.4,0,0.6v0.4c0,2.3,0,4.3,0.1,6.2c0,0.2,0,0.4,0,0.6c0.2,8.3,0.8,13.4,1.8,17c0.7,2.3,1.5,3.9,2.6,5.5
						c2.3,3.3,6.3,4.7,7.4,5C166.3,250.4,166.4,250.4,166.4,250.4z"/>
					<path class="st9" d="M144.5,277.4c-0.8-0.2-1.7-0.4-2.5-0.6c-0.2-0.1-0.4-0.1-0.6-0.2c-0.3-0.1-0.6-0.2-0.8-0.3
						c-0.4-0.1-0.7-0.3-1.1-0.4c-0.3-0.1-0.7-0.3-1-0.5c-12.3-6-20.6-21-22.3-24.2c-0.1-0.1-0.1-0.2-0.2-0.3c0-0.1-0.1-0.1-0.1-0.2
						c0-0.1,0-0.1,0-0.1s0,0,0.1-0.1s0.3-0.1,0.5-0.2l0,0c0.2-0.1,0.4-0.2,0.6-0.3c0.1-0.1,0.3-0.2,0.4-0.3c1.3-0.9,3.3-2.5,5.4-5.4
						c0.1-0.2,0.2-0.3,0.3-0.5c0.2-0.3,0.4-0.6,0.6-1c0.1-0.2,0.2-0.4,0.3-0.6c0.5-1,0.9-2,1.2-3.2c0.1-0.5,0.3-1.1,0.4-1.8
						c0-0.3,0.1-0.5,0.1-0.8c0,0,0-0.1,0-0.2c0.1-0.5,0.1-0.9,0.2-1.5c0.2-2.3,0.2-5.2,0-8.7c0-0.4,0-0.8-0.1-1.3c0-0.2,0-0.4,0-0.7
						v-0.4l0,0c0-0.1,0-0.2,0-0.3s0-0.3,0-0.5c0-0.1,0-0.1,0-0.2c0-0.1,0-0.3,0-0.5c0-0.3,0-0.6-0.1-1c0-0.3,0-0.5-0.1-0.8
						c0-0.2,0-0.4,0-0.6c0-0.3,0-0.6-0.1-0.9c0-0.5-0.1-1.1-0.1-1.6c0-0.1,0-0.3,0-0.4c0-0.1,0-0.2,0-0.3l0,0c0-0.1,0-0.2,0-0.2
						c0-0.2,0-0.4-0.1-0.6c0-0.2,0-0.4,0-0.6c0-0.2,0-0.4,0-0.6c0-0.2,0-0.4-0.1-0.6c0-0.2,0-0.4-0.1-0.6c0-0.2,0-0.3-0.1-0.5l0,0
						c0-0.1,0-0.3,0-0.4v-0.1c0-0.2,0-0.4-0.1-0.6c0-0.2,0-0.4-0.1-0.6c0-0.2,0-0.4-0.1-0.6c0-0.2,0-0.4-0.1-0.6
						c0-0.2,0-0.4-0.1-0.6c0-0.2,0-0.3,0-0.5l0,0c0.9,0.2,1.8,0.5,2.6,0.8c0.6,0.2,1.2,0.5,1.8,0.8c0.5,0.2,0.9,0.4,1.4,0.7
						c0.4,0.2,0.8,0.4,1.1,0.6c0.3,0.2,0.6,0.4,0.9,0.6c0.3,0.2,0.5,0.4,0.8,0.6c0.2,0.2,0.5,0.4,0.7,0.6l0,0
						c0.2,0.2,0.4,0.4,0.6,0.6c0.2,0.2,0.4,0.4,0.5,0.6c0.2,0.2,0.3,0.4,0.4,0.6c0.1,0.2,0.3,0.4,0.4,0.6c0.1,0.2,0.2,0.4,0.3,0.6
						l0,0c0.1,0.2,0.2,0.4,0.3,0.6l0,0c0.1,0.2,0.2,0.4,0.2,0.6c0.1,0.2,0.1,0.4,0.2,0.5c0.1,0.2,0.1,0.4,0.2,0.6
						c0,0.2,0.1,0.4,0.1,0.5s0,0.3,0.1,0.4c0,0,0,0.1,0,0.2v0.1c0.1,0.8,0.1,1.7,0.1,2.6c0,0.2,0,0.4,0,0.6
						c-0.1,0.8-0.2,1.7-0.4,2.6c-0.9,4.3-3,8.8-4.3,12.8l0,0c-0.5,1.5-0.9,3-1.1,4.4c-0.1,0.9-0.1,2,0.1,3.3
						C132.9,255.7,141.1,273.2,144.5,277.4z"/>
					<path class="st10" d="M209.9,114.7c-2.4-0.4-5.7,0.6-8.8,2.5c0.2-8.6,0.4-17.8,0.5-27.4c0.5-34.4-35.7-51.5-65.7-47.9
						C98.5,46.3,73.2,61.6,74.1,92c0.2,8,0.7,19.3,1.5,31.8c-4.1-2.4-8.5-3.5-11.4-2.5c-7.4,2.4-8.1,11.5-4.1,23.5
						c4.1,12.1,12.7,20.2,19.4,18.2c1.8,12.6,3.9,19.8,7.3,28.1c5.8,14.1,31,34.9,51.8,34.9c25.3,0,50.7-26.9,54.1-38.4
						c2.9-9.8,5-16.6,6.3-29.7c0.2,0.1,0.5,0.2,0.7,0.2c7,1.3,14.7-8,17.2-20.7C219.5,124.9,217.6,116,209.9,114.7z"/>
					<path class="st9" d="M104.1,204.8c-4.8-5.8-10.9-15.3-12.6-22.6c-2.1-8.4-8.5-22.6-8.5-22.6s-16.3-2.8-18.7-16.9
						c-0.3-1.6-4.3-16.9-4.5-18.5c-3.1,4.1-2.8,11.5,0.3,20.5c4.1,12.1,12.7,20.2,19.4,18.2c1.8,12.6,3.9,19.8,7.3,28.1
						c5.2,12.5,25.7,30.4,44.8,34.1C121.1,220.1,111.5,213.9,104.1,204.8z"/>
					<path class="st11" d="M201.5,99c-3.7-10.2-2.4-20-11.2-22.4c-5.7-1.5-31.8,21.1-37.5,19.4c-12.7-3.6-23.3-8.2-33.4-16.8
						c-3.1-2.6-8.8-7.3-12.7-3.4c-2.5,2.5-8.6-2.8-10,0.4c-3.3,7.6-8-2.1-13.3,4.4c-1.6,2-4,13.1-5.9,14.8
						c-2.9,2.6,4.7,23.9,5.1,27.4c0.5,5.6,0.4,11.2,0.3,16.8c0.3-0.3,2.6,2.8,2.9,2.4c4.7-5.8,3.6-17.3,2.3-24.4
						C85.4,102.7,97,91.1,97,91.1s5.1,6.2,13.4,9.9c11.2,5.1,25.6,8.4,39,9.1c17.5,0.9,34.5-11.6,38.1-7.5
						c3.6,4.2,0.8,28.8,0.8,28.8S204.2,106.2,201.5,99z"/>
					<path class="st12" d="M98.8,86c0,0-0.1-25.2-8.2-37.2C84.7,41.5,68,68.9,68,68.9S57.6,85.3,65.3,122
						c17-2.2,17.2,12.3,18.2,21.8c1.7-1.8,4.8-4.8,4.8-4.8s-5.4-12.3-4.9-28.4C85.8,87.4,98.8,86,98.8,86z"/>
					<path class="st12" d="M191.3,86.9c0,0,5.1,19.4,1.5,30.7c-1.6,9.1-4.1,16.6-4.1,16.6l5.3,5.1c0.4-7.7,0.1-21.7,14.3-24.7
						c3.6-9.6-4.3-40.3-4.3-40.3L191.3,86.9z"/>
					<path class="st12" d="M116.2,118.6c-0.5,0.8-4.7-1.8-9.3-1.3c-8.4,0.9-11.6,6.1-11.6,6.1s1.4-9.6,11.6-11.3
						c5.7-1,8.9,0.2,9.9,1.2C117.8,114.3,116.7,117.7,116.2,118.6z"/>
					<path class="st11" d="M118.2,181c2.2,27.6,37.4,27.1,37.4,0H118.2z"/>
					<path class="st13" d="M78.6,338.2c-2.2,8.2-5.1,17.6-9.9,24.7c-1.4,2-2.9,4.9-5.2,6c-4.9,2.5-3.1,5.5,0,8.6
						c13,12.9,6.9,31.4,10.3,47.8c2,9.6,4.4,19.2,6.7,28.6c2,7.7,5.6,14.2,10.1,20.4c-3.4-17.8-15.5-82.6-13.3-104.3
						c2.9-28,13.3-56.6,13.3-56.6s0-4.4-0.3-10.6c-1.2,2.9-2.5,5.8-3.6,8.7C83.3,320.3,81,329.2,78.6,338.2z"/>
					<path class="st14" d="M136.9,160.5c-4.7,0-8.7-2-9.7-4.8c-0.2,0.5-0.3,0.9-0.3,1.4c0,3.4,4.5,6.2,10,6.2s10-2.8,10-6.2
						c0-0.5-0.1-0.9-0.3-1.4C145.6,158.5,141.6,160.5,136.9,160.5z"/>
					<path class="st14" d="M113.9,129.9c0,3.3-2.7,6-6,6s-6-2.7-6-6s2.7-6,6-6C111.2,123.9,113.9,126.6,113.9,129.9z"/>
					<path class="st15" d="M116.2,131.4c0,3.3-2.7,6-6,6s-6-2.7-6-6s2.7-6,6-6C113.5,125.4,116.2,128.1,116.2,131.4z"/>
					<path class="st12" d="M156.1,118.6c0.5,0.8,4.7-1.8,9.3-1.3c8.4,0.9,11.6,6.1,11.6,6.1s-1.4-9.6-11.6-11.3
						c-5.7-1-8.9,0.2-9.9,1.2C154.4,114.3,155.5,117.7,156.1,118.6z"/>
					<path class="st14" d="M158.3,129.9c0,3.3,2.7,6,6,6s6-2.7,6-6s-2.7-6-6-6C161,123.9,158.3,126.6,158.3,129.9z"/>
					<path class="st15" d="M156.1,131.4c0,3.3,2.7,6,6,6s6-2.7,6-6s-2.7-6-6-6C158.8,125.4,156.1,128.1,156.1,131.4z"/>
					<path class="st16" d="M205.5,63.3c0,27.5-15.2,41.5-58.6,41.5c-29.7,0-48.1-18.8-48.1-18.8l-8.2-37.2c0,0-1-7.3,11.3-10.9
						c6.7-1.9,32.7-6.9,53.2-0.8C177,14.7,205.6,38.9,205.5,63.3z"/>
					<polygon class="st12" points="193.2,142.8 187.4,137.4 188.2,135 193.2,140.3 					"/>
					<polygon class="st12" points="83.6,147.7 90,142.3 89.2,139.9 83.6,145.2 					"/>
					<path class="st0" d="M118.2,180.9c2.2,22.3,37.3,21.9,37.3,0H118.2z"/>
				</g>
			</g>
			<g>
				<path class="st10" d="M230.4,497c1.6-5.7-4.1-27.2-11.2-26.3c-4,0.5-10.4,16.1-10.2,23.7c1.6,0.9,2.7,3.9,3.3,5.4
					C213,501.4,228.8,502.7,230.4,497z"/>
				<path class="st10" d="M218,516.4c-0.3-4.1-0.7-10.6-0.6-16.3c1.3-0.1,2.6-0.4,3.9-0.8c0.8,5.3,1.2,12,1.4,16
					c0.3,5.8-0.5,8.8-2,9C219.2,524.5,218.4,521.8,218,516.4z"/>
				<path class="st10" d="M223.6,514.2c-0.6-3.9-1.4-9.9-1.6-15.3c1.3-0.1,2.9-0.6,4.1-1.1c1.1,4.9,1.5,11.4,2,15.2
					c0.7,5.5,0.1,8.3-1.4,8.5C225.4,521.7,224.4,519.2,223.6,514.2z"/>
				<path class="st10" d="M228.3,510.5c-0.5-3.3-1.2-8.5-1.3-13c1.1-0.1,2.5-0.5,3.5-0.9c1,4.2,1.3,9.7,1.7,13
					c0.6,4.7,0.1,7.1-1.2,7.3C229.7,516.9,228.9,514.8,228.3,510.5z"/>
				<path class="st10" d="M211.8,514.6c0.1-3.9,0.1-11.4,0.8-16.7c1.3,0.1,3.2,1.3,4.4,1c0.3,5-0.4,11.5-0.6,15.3
					c-0.2,5.5-1.3,8.2-2.8,8.2C212.3,522.3,211.7,519.6,211.8,514.6z"/>
				<path class="st10" d="M202.8,493c3.1-2.4,4.8-11.8,9.4-14.5c0.7,1.1,5.2,7.3,6.1,8.1c-3.8,3.3-8.3,7.2-11.4,9.4
					c-4.5,3.1-8.2,1.9-9.1,0.7C197.1,495.6,201.3,494.2,202.8,493z"/>
			</g>
			<path class="st10" d="M228.2,481.9l-17-2.4c0,0,10-84.7,5.4-109.7c-5.1-27.7-17.9-55.3-17.9-55.3s-6.9-55.1,6.3-49.7
				s32.8,66.9,36.6,105.5C244.4,400,228.2,481.9,228.2,481.9z"/>
			<g>
				<path class="st10" d="M73.8,498c-2-5.5,1.7-26.7,9-27.1c4-0.2,11.7,15.3,12.1,22.8c-1.5,1-2.4,4.1-2.9,5.7
					C91.4,500.9,75.8,503.5,73.8,498z"/>
				<path class="st10" d="M87.7,516.3c0-4.1-0.1-10.7-0.7-16.3c-1.3,0-2.6-0.1-3.9-0.5c-0.4,5.3-0.2,12-0.1,16.1
					c0.1,5.9,1.2,8.8,2.8,8.8C87.1,524.5,87.7,521.7,87.7,516.3z"/>
				<path class="st10" d="M81.9,514.6c0.3-3.9,0.5-10,0.3-15.3c-1.3,0-3-0.4-4.2-0.8c-0.7,5-0.6,11.5-0.7,15.3
					c-0.2,5.5,0.6,8.3,2.1,8.4C80.7,522.2,81.5,519.6,81.9,514.6z"/>
				<path class="st10" d="M76.9,511.3c0.2-3.3,0.5-8.5,0.3-13.1c-1.1,0-2.5-0.3-3.6-0.7c-0.6,4.3-0.5,9.8-0.6,13
					c-0.2,4.7,0.5,7.1,1.8,7.1C76,517.8,76.7,515.6,76.9,511.3z"/>
				<path class="st10" d="M93.7,514c-0.4-3.9-1-11.4-2.1-16.6c-1.3,0.2-3.1,1.5-4.3,1.4c0.1,5,1.3,11.4,1.8,15.2
					c0.7,5.5,2,8.1,3.5,7.9C93.8,521.7,94.2,519,93.7,514z"/>
				<path class="st10" d="M100.8,491.7c-3.2-2.2-5.1-11.1-9.9-13.4c-0.6,1.2-5.2,7.4-6.1,8.3c4.1,3,8.8,6.5,12.1,8.4
					c4.8,2.8,8.3,1.3,9.1,0C106.8,493.9,102.5,492.8,100.8,491.7z"/>
			</g>
			<path class="st10" d="M74.7,482.7l16.8-3.8c0,0-16.8-83.6-14.2-108.9c2.9-28,13.3-56.6,13.3-56.6s1.3-55.2-11.3-48.7
				c-12.7,6.5-26.2,69.1-26.9,107.8C51.9,402.4,74.7,482.7,74.7,482.7z"/>
		</g>
		<path class="st0" d="M199.1,119.9c0,0-13.8,16.4-15.5,38.8c-1.6,22.4,0.2,4,0.2,4l1.2-2.1C185.1,160.6,182.2,153.9,199.1,119.9z"
			/>
		<path class="st0" d="M97.3,160.6c5.1,7-11.1-28.9-18.3-35.9c-0.8-0.8-1.4,0-1.4,0l0.5,0.6C78.1,125.4,95,157.3,97.3,160.6z"/>
		<path class="st0" d="M199,157.9c0,0-8.3,33.8-10.3,37.3c-1.9,3.5,1,1.1,1,1.1S200.7,163.5,199,157.9z"/>
		<path class="st0" d="M79.5,162.9c0,0,7.4,30.8,10,31.9C92,195.9,87,197,87,197S79.1,171.4,79.5,162.9z"/>
		<g>
			<g>
				<g>
					<g>
						<g>
							<g>
								<path class="st6" d="M190.3,165.2c0-2.6-35.2-24.8-51.9-24.8s-51.9,22.2-51.9,24.8s3.7,13.2,3.7,18s-3.7,15.4-3.7,18
									s35.2,24.8,51.9,24.8s51.9-22.2,51.9-24.8s-3.7-13.2-3.7-18S190.3,167.7,190.3,165.2z"/>
							</g>
						</g>
						<g class="st17">
							<g>
								<g>
									<path class="st0" d="M90.9,201.7c-0.1,0-0.1,0-0.2-0.1c-0.5-0.4-0.9-0.7-1.2-1c-0.1-0.1-0.1-0.2-0.1-0.2
										c0.1-0.4,0.2-0.8,0.3-1.4c0-0.2,0.2-0.3,0.4-0.2c0.2,0,0.3,0.2,0.2,0.3c-0.1,0.5-0.2,0.9-0.3,1.2c0.3,0.2,0.6,0.5,1,0.8
										c0.1,0.1,0.1,0.3,0,0.4C91.1,201.7,91,201.7,90.9,201.7z"/>
								</g>
							</g>
							<g>
								<g>
									<path class="st0" d="M91.6,193.1c-0.2,0-0.3,0.1-0.4,0.2c-0.2,0.7-0.3,1.3-0.5,1.9l-0.2,0.9c0,0.1,0.1,0.3,0.2,0.3
										c0,0,0,0,0.1,0s0.3-0.1,0.3-0.2l0.2-0.9c0.2-0.6,0.3-1.3,0.5-1.9C91.8,193.3,91.7,193.1,91.6,193.1z M92.9,187.3
										c-0.2,0-0.3,0.1-0.4,0.2c-0.2,0.9-0.4,1.8-0.6,2.9c0,0.2,0.1,0.3,0.2,0.4h0.1c0.1,0,0.3-0.1,0.3-0.2c0.3-1.1,0.4-2,0.6-2.9
										C93.2,187.5,93,187.3,92.9,187.3z M93.6,181.7c0-0.2-0.2-0.3-0.3-0.3c-0.2,0-0.3,0.2-0.3,0.3c0,0.5,0.1,1,0.1,1.4
										s0,0.9-0.1,1.5c0,0.2,0.1,0.3,0.3,0.3l0,0c0.2,0,0.3-0.1,0.3-0.3c0-0.5,0.1-1,0.1-1.5C93.7,182.8,93.6,182.2,93.6,181.7z
										 M92.5,175.9c0-0.1-0.2-0.3-0.4-0.2c-0.2,0-0.3,0.2-0.2,0.3c0.3,1.1,0.5,2,0.6,2.9c0,0.1,0.2,0.2,0.3,0.2l0,0
										c0.2,0,0.3-0.2,0.3-0.3C93,177.9,92.8,176.9,92.5,175.9z M91.3,171l-0.2-0.9c0-0.1-0.2-0.2-0.4-0.2c-0.2,0-0.3,0.2-0.2,0.4
										l0.2,0.9c0.2,0.6,0.3,1.3,0.5,2c0,0.1,0.2,0.2,0.3,0.2h0.1c0.2,0,0.3-0.2,0.2-0.4C91.6,172.3,91.5,171.6,91.3,171z"/>
								</g>
							</g>
							<g>
								<g>
									<path class="st0" d="M90.1,167.6c-0.1,0-0.3-0.1-0.3-0.2c-0.1-0.6-0.2-1.1-0.3-1.4c0-0.1,0-0.2,0.1-0.2
										c0.3-0.3,0.7-0.6,1.2-1c0.1-0.1,0.3-0.1,0.4,0s0.1,0.3,0,0.4c-0.4,0.3-0.8,0.6-1,0.8c0.1,0.3,0.2,0.7,0.3,1.2
										C90.4,167.4,90.3,167.6,90.1,167.6L90.1,167.6z"/>
								</g>
							</g>
							<g>
								<g>
									<path class="st0" d="M96,161.3c-0.1-0.1-0.3-0.2-0.4-0.1c-0.9,0.6-1.7,1.2-2.5,1.7c-0.1,0.1-0.2,0.3-0.1,0.4
										c0.1,0.1,0.2,0.1,0.3,0.1c0.1,0,0.1,0,0.2-0.1c0.8-0.5,1.6-1.1,2.5-1.7C96.1,161.6,96.1,161.5,96,161.3z M183.8,163
										C183.8,163,183.8,162.9,183.8,163c-0.2-0.1-0.3-0.3-0.5-0.4c-0.6-0.4-1.3-0.9-2-1.4c-0.1-0.1-0.3-0.1-0.4,0.1
										c-0.1,0.1-0.1,0.3,0.1,0.4c0.8,0.5,1.6,1.1,2.3,1.6l0.1,0.1c0,0,0.1,0.1,0.2,0.1c0.1,0,0.1,0,0.2-0.1c0,0,0,0,0.1,0
										C183.9,163.2,183.9,163.1,183.8,163z M101.1,158.2c-0.1-0.1-0.3-0.2-0.4-0.1c-0.9,0.5-1.7,1.1-2.6,1.6
										c-0.1,0.1-0.1,0.2-0.1,0.3c0,0,0,0,0,0.1l0,0c0.1,0.1,0.2,0.1,0.3,0.1c0.1,0,0.1,0,0.2,0c0.8-0.5,1.7-1.1,2.5-1.6
										C101.2,158.5,101.2,158.3,101.1,158.2z M178.8,159.6c-0.8-0.5-1.7-1.1-2.6-1.6c-0.1-0.1-0.3,0-0.4,0.1
										c-0.1,0.1,0,0.3,0.1,0.4c0.9,0.5,1.7,1.1,2.5,1.6c0.1,0,0.1,0,0.2,0c0.1,0,0.2,0,0.3-0.1
										C179,159.9,178.9,159.7,178.8,159.6z M106.3,155.2c-0.1-0.1-0.3-0.2-0.4-0.1c-0.9,0.5-1.8,1-2.6,1.5
										c-0.1,0.1-0.2,0.3-0.1,0.4c0.1,0.1,0.2,0.1,0.3,0.1c0,0,0.1,0,0.2,0c0.9-0.5,1.7-1,2.6-1.5
										C106.3,155.5,106.4,155.3,106.3,155.2z M173.6,156.5c-0.9-0.5-1.8-1-2.6-1.5c-0.1-0.1-0.3,0-0.4,0.1
										c-0.1,0.1,0,0.3,0.1,0.4c0.9,0.5,1.8,1,2.6,1.5c0,0,0.1,0.1,0.2,0.1c0.1,0,0.2-0.1,0.3-0.1
										C173.8,156.8,173.8,156.6,173.6,156.5z M111.6,152.3c-0.1-0.1-0.3-0.2-0.4-0.1c-0.7,0.3-1.3,0.7-2,1
										c-0.2,0.1-0.5,0.3-0.7,0.4c-0.1,0.1-0.2,0.3-0.1,0.4c0,0.1,0.2,0.1,0.3,0.1c0.1,0,0.1,0,0.2,0c0.2-0.1,0.5-0.3,0.7-0.4
										c0.7-0.3,1.3-0.7,2-1C111.7,152.7,111.7,152.5,111.6,152.3z M168.4,153.6c-0.2-0.1-0.5-0.3-0.7-0.4c-0.7-0.3-1.3-0.7-2-1
										c-0.2-0.1-0.3,0-0.4,0.1c-0.1,0.1,0,0.3,0.1,0.4c0.7,0.3,1.3,0.7,2,1c0.2,0.1,0.5,0.2,0.7,0.4c0,0,0.1,0,0.2,0
										c0.1,0,0.2-0.1,0.3-0.1C168.6,153.9,168.5,153.7,168.4,153.6z M117,149.7c-0.1-0.1-0.3-0.2-0.4-0.1
										c-0.9,0.4-1.8,0.8-2.7,1.3c-0.1,0.1-0.2,0.3-0.1,0.4c0.1,0.1,0.2,0.2,0.3,0.2h0.1c0.9-0.4,1.8-0.9,2.7-1.3
										C117.1,150,117.1,149.9,117,149.7z M163,150.9c-0.9-0.5-1.8-0.9-2.7-1.3c-0.2-0.1-0.3,0-0.4,0.1c-0.1,0.1,0,0.3,0.1,0.4
										c0.9,0.4,1.8,0.8,2.7,1.3h0.1c0.1,0,0.2-0.1,0.3-0.2C163.2,151.1,163.2,151,163,150.9z M122.6,147.3
										c-0.1-0.1-0.3-0.2-0.4-0.1c-0.9,0.4-1.9,0.8-2.8,1.2c-0.2,0.1-0.2,0.2-0.2,0.4c0.1,0.1,0.2,0.2,0.3,0.2c0.1,0,0.1,0,0.1,0
										c0.9-0.4,1.9-0.8,2.8-1.2C122.6,147.6,122.7,147.5,122.6,147.3z M157.5,148.4c-1-0.4-1.9-0.8-2.8-1.2
										c-0.2-0.1-0.3,0-0.4,0.1c-0.1,0.1,0,0.3,0.2,0.4c0.9,0.4,1.8,0.8,2.8,1.2h0.1c0.1,0,0.2-0.1,0.3-0.2
										C157.7,148.6,157.7,148.4,157.5,148.4z M127.9,145.1c-0.9,0.3-1.9,0.6-2.9,1c-0.2,0.1-0.2,0.2-0.2,0.4
										c0,0.1,0.2,0.2,0.3,0.2h0.1c1-0.4,1.9-0.7,2.8-1c0.2-0.1,0.3-0.2,0.2-0.4C128.3,145.1,128.1,145,127.9,145.1z M151.9,146.1
										c-1-0.4-2-0.7-2.9-1c-0.2-0.1-0.3,0-0.4,0.2c-0.1,0.2,0,0.3,0.2,0.4c0.9,0.3,1.9,0.6,2.9,1h0.1c0.1,0,0.2-0.1,0.3-0.2
										C152.1,146.3,152,146.2,151.9,146.1z M133.8,143.5c-0.9,0.2-1.9,0.4-3,0.7c-0.2,0-0.3,0.2-0.2,0.4c0,0.1,0.2,0.2,0.3,0.2
										c0,0,0,0,0.1,0c1-0.3,2-0.5,2.9-0.7c0.2,0,0.3-0.2,0.2-0.3C134.2,143.6,134,143.5,133.8,143.5z M146.1,144.2
										c-1-0.3-2-0.5-3-0.7c-0.2,0-0.3,0.1-0.4,0.2c0,0.2,0.1,0.3,0.2,0.3c0.9,0.2,1.9,0.4,3,0.7h0.1c0.1,0,0.3-0.1,0.3-0.2
										C146.3,144.4,146.2,144.3,146.1,144.2z M140,143.1c-0.5,0-1.1-0.1-1.5-0.1c-0.5,0-1,0-1.6,0.1c-0.2,0-0.3,0.2-0.3,0.3
										s0.2,0.3,0.3,0.3l0,0c0.5,0,1-0.1,1.5-0.1s1,0,1.5,0.1c0.2,0,0.3-0.1,0.3-0.3C140.3,143.2,140.2,143.1,140,143.1z"/>
								</g>
							</g>
							<g>
								<g>
									<path class="st0" d="M186.9,167.6C186.8,167.6,186.8,167.6,186.9,167.6c-0.2,0-0.3-0.2-0.3-0.3c0.1-0.5,0.2-0.9,0.3-1.2
										c-0.3-0.2-0.6-0.5-1-0.8c-0.1-0.1-0.1-0.3,0-0.4c0.1-0.1,0.3-0.1,0.4,0c0.5,0.4,0.9,0.7,1.2,1c0.1,0.1,0.1,0.2,0.1,0.2
										c-0.1,0.4-0.2,0.8-0.3,1.4C187.1,167.5,187,167.6,186.9,167.6z"/>
								</g>
							</g>
							<g>
								<g>
									<path class="st0" d="M186.1,195c-0.2-0.6-0.3-1.1-0.4-1.7c0-0.2-0.2-0.3-0.4-0.2c-0.2,0-0.3,0.2-0.2,0.4
										c0.1,0.6,0.3,1.1,0.4,1.7l0.3,1.1c0,0.1,0.2,0.2,0.3,0.2c0,0,0,0,0.1,0c0.2,0,0.3-0.2,0.2-0.3L186.1,195z M184.4,187.5
										c0-0.2-0.2-0.3-0.4-0.2c-0.2,0-0.3,0.2-0.3,0.3c0.2,0.9,0.4,1.8,0.6,2.9c0,0.1,0.2,0.2,0.3,0.2c0,0,0,0,0.1,0
										c0.2,0,0.3-0.2,0.2-0.3C184.7,189.4,184.5,188.4,184.4,187.5z M184,181.8c0-0.2-0.1-0.3-0.3-0.3s-0.3,0.1-0.3,0.3
										c0,0.5-0.1,1-0.1,1.5s0,1,0.1,1.5c0,0.2,0.2,0.3,0.3,0.3l0,0c0.2,0,0.3-0.1,0.3-0.3c-0.1-0.5-0.1-1-0.1-1.5
										S183.9,182.3,184,181.8z M184.8,175.6c-0.2,0-0.3,0.1-0.4,0.2c-0.3,1.1-0.5,2-0.6,2.9c0,0.1,0.1,0.3,0.3,0.3h0.1
										c0.1,0,0.3-0.1,0.3-0.2c0.2-0.9,0.4-1.8,0.6-2.9C185,175.8,184.9,175.7,184.8,175.6z M186.2,169.9c-0.2,0-0.3,0.1-0.4,0.2
										l-0.3,1c-0.2,0.6-0.3,1.3-0.5,1.9c0,0.2,0.1,0.3,0.2,0.4c0,0,0,0,0.1,0s0.3-0.1,0.3-0.2c0.2-0.6,0.3-1.3,0.5-1.9l0.3-1
										C186.5,170.1,186.4,169.9,186.2,169.9z"/>
								</g>
							</g>
							<g>
								<g>
									<path class="st0" d="M186,201.7c-0.1,0-0.2,0-0.2-0.1c-0.1-0.1-0.1-0.3,0-0.4c0.4-0.3,0.8-0.6,1-0.8
										c-0.1-0.3-0.2-0.7-0.3-1.2c0-0.2,0.1-0.3,0.2-0.3c0.2,0,0.3,0.1,0.4,0.2c0.1,0.6,0.2,1.1,0.3,1.4c0,0.1,0,0.2-0.1,0.2
										C187,201,186.6,201.3,186,201.7C186.2,201.7,186.1,201.7,186,201.7z"/>
								</g>
							</g>
							<g>
								<g>
									<path class="st0" d="M140,222.7c-0.5,0-1,0.1-1.5,0.1c-0.3,0-0.7,0-1,0c-0.2,0-0.3,0-0.5,0s-0.3,0.1-0.3,0.3
										s0.1,0.3,0.3,0.3s0.3,0,0.5,0c0.4,0,0.7,0,1.1,0c0.5,0,1,0,1.6-0.1c0.2,0,0.3-0.2,0.3-0.3
										C140.3,222.8,140.1,222.7,140,222.7z M134,222.3c-0.9-0.2-1.9-0.4-2.9-0.7c-0.2,0-0.3,0-0.4,0.2c0,0.2,0,0.3,0.2,0.4
										c1,0.3,2,0.5,3,0.7h0.1c0.1,0,0.3-0.1,0.3-0.2C134.2,222.5,134.1,222.3,134,222.3z M145.9,221.6c-1,0.3-2,0.5-2.9,0.7
										c-0.2,0-0.3,0.2-0.2,0.3c0,0.1,0.2,0.2,0.3,0.2h0.1c0.9-0.2,2-0.4,3-0.7c0.2-0.1,0.3-0.2,0.2-0.4
										C146.2,221.7,146,221.6,145.9,221.6z M128.1,220.8c-0.8-0.2-1.6-0.5-2.4-0.8l0,0c-0.2,0-0.3-0.1-0.5-0.2
										c-0.2-0.1-0.3,0-0.4,0.2s0,0.3,0.2,0.4c0.3,0.1,0.5,0.2,0.8,0.3l0,0c0.7,0.3,1.4,0.5,2.1,0.7h0.1c0.1,0,0.2-0.1,0.3-0.2
										C128.4,221,128.3,220.8,128.1,220.8z M151.6,219.8c-1,0.4-1.9,0.7-2.9,1c-0.2,0.1-0.3,0.2-0.2,0.4c0,0.1,0.2,0.2,0.3,0.2
										h0.1c0.9-0.3,1.9-0.6,2.9-1c0.2-0.1,0.2-0.2,0.2-0.4S151.8,219.7,151.6,219.8z M122.4,218.7c-0.9-0.4-1.8-0.8-2.8-1.2
										c-0.2-0.1-0.3,0-0.4,0.1s0,0.3,0.1,0.4c1,0.4,1.9,0.8,2.8,1.2h0.1c0.1,0,0.2-0.1,0.3-0.2
										C122.7,218.9,122.6,218.8,122.4,218.7z M157.7,217.7c-0.1-0.1-0.3-0.2-0.4-0.1c-0.9,0.4-1.9,0.8-2.8,1.2
										c-0.2,0.1-0.2,0.2-0.2,0.4c0,0.1,0.2,0.2,0.3,0.2h0.1c0.9-0.4,1.8-0.8,2.8-1.2C157.7,218,157.7,217.8,157.7,217.7z
										 M116.9,216.3c-0.5-0.2-1-0.5-1.5-0.7l0,0c-0.4-0.2-0.8-0.4-1.2-0.6c-0.2-0.1-0.3,0-0.4,0.1s0,0.3,0.1,0.4
										c0.9,0.5,1.9,0.9,2.7,1.3h0.1c0.1,0,0.2,0,0.2-0.1c0,0,0,0,0.1-0.1C117.1,216.5,117.1,216.4,116.9,216.3z M163.1,215.1
										c-0.1-0.1-0.3-0.2-0.4-0.1c-0.9,0.5-1.8,0.9-2.7,1.3c-0.2,0.1-0.2,0.2-0.1,0.4c0,0.1,0.2,0.2,0.3,0.2h0.1
										c0.9-0.4,1.8-0.8,2.7-1.3C163.2,215.4,163.2,215.3,163.1,215.1z M111.5,213.7c-0.7-0.3-1.3-0.7-2-1
										c-0.2-0.1-0.5-0.2-0.7-0.4c-0.1-0.1-0.3,0-0.4,0.1s0,0.3,0.1,0.4c0.2,0.1,0.5,0.3,0.7,0.4c0.7,0.4,1.3,0.7,2,1h0.1
										c0.1,0,0.2-0.1,0.3-0.1C111.7,213.9,111.7,213.7,111.5,213.7z M168.5,212.4c-0.1-0.1-0.3-0.2-0.4-0.1
										c-0.2,0.1-0.5,0.3-0.7,0.4c-0.7,0.4-1.3,0.7-2,1c-0.1,0.1-0.2,0.3-0.1,0.4c0.1,0.1,0.2,0.1,0.3,0.1c0,0,0.1,0,0.2,0
										c0.6-0.3,1.3-0.7,2-1c0.2-0.1,0.5-0.3,0.7-0.4C168.5,212.7,168.6,212.5,168.5,212.4z M106.2,210.8c-0.9-0.5-1.8-1-2.6-1.5
										c-0.1-0.1-0.3,0-0.4,0.1s0,0.3,0.1,0.4c0.9,0.5,1.7,1,2.6,1.5h0.1c0.1,0,0.2,0,0.3-0.1
										C106.4,211.1,106.3,210.9,106.2,210.8z M173.7,209.5c-0.1-0.1-0.3-0.2-0.4-0.1c-0.9,0.5-1.7,1-2.6,1.5
										c-0.1,0.1-0.2,0.3-0.1,0.4c0.1,0.1,0.2,0.1,0.3,0.1s0.1,0,0.2,0c0.9-0.5,1.8-1,2.6-1.5
										C173.8,209.8,173.8,209.6,173.7,209.5z M101,207.9c-0.9-0.5-1.7-1-2.5-1.6c-0.1-0.1-0.2-0.1-0.3,0l0,0c0,0-0.1,0-0.1,0.1
										c-0.1,0.1-0.1,0.3,0.1,0.4c0.5,0.3,0.9,0.6,1.4,0.9l0,0l0,0l0,0c0.4,0.2,0.7,0.4,1.1,0.7c0,0,0.1,0,0.2,0s0.2,0,0.3-0.1
										C101.2,208.1,101.2,207.9,101,207.9z M178.9,206.4c-0.1-0.1-0.3-0.2-0.4-0.1c-0.8,0.5-1.7,1-2.5,1.6
										c-0.1,0.1-0.2,0.3-0.1,0.4c0.1,0.1,0.2,0.1,0.3,0.1s0.1,0,0.2,0c0.8-0.5,1.6-1,2.4-1.5l0.1-0.1c0.1,0,0.1-0.1,0.1-0.2
										C178.9,206.5,178.9,206.4,178.9,206.4z M95.9,204.7c-0.9-0.6-1.7-1.1-2.5-1.7c-0.1-0.1-0.3-0.1-0.4,0.1
										c-0.1,0.1-0.1,0.3,0.1,0.4c0.8,0.5,1.6,1.1,2.5,1.7c0.1,0,0.1,0,0.2,0s0.2,0,0.3-0.1C96.1,204.9,96.1,204.8,95.9,204.7z
										 M183.9,203.1c-0.1-0.1-0.3-0.1-0.4-0.1c-0.8,0.5-1.6,1.1-2.5,1.7c-0.1,0.1-0.2,0.3-0.1,0.4c0.1,0.1,0.2,0.1,0.3,0.1
										s0.1,0,0.2,0c0.9-0.6,1.7-1.1,2.5-1.7C183.9,203.4,184,203.2,183.9,203.1z"/>
								</g>
							</g>
						</g>
						<g>
							<g>
								<path class="st18" d="M138.5,220.2c-5.5,0-15.3-3.5-26.9-9.5c-6.7-3.5-12.4-7-16-9.5c-1.5-1.1-2.2-2.9-1.8-4.6
									c0.1-0.2,0.1-0.4,0.2-0.7c1.1-4.4,2.4-9.4,2.4-12.8s-1.3-8.4-2.4-12.8c-0.1-0.2-0.1-0.4-0.2-0.7c-0.4-1.7,0.3-3.6,1.8-4.6
									c3.6-2.5,9.2-6,16-9.5c11.6-6,21.4-9.5,26.9-9.5s15.3,3.5,26.9,9.5c6.7,3.5,12.4,7,16,9.5c1.5,1.1,2.2,2.9,1.8,4.6
									c-0.1,0.2-0.1,0.4-0.2,0.7c-1.1,4.4-2.4,9.4-2.4,12.8s1.3,8.4,2.4,12.8c0.1,0.2,0.1,0.4,0.2,0.7c0.4,1.7-0.3,3.6-1.8,4.6
									c-3.6,2.5-9.2,6-16,9.5C153.8,216.8,144,220.2,138.5,220.2z"/>
							</g>
						</g>
						<g>
							<g>
								<g>
									<path class="st19" d="M94.3,170.3c0.1,0.2,0.1,0.5,0.2,0.7c9.6-3.2,24.7-7,43.5-7.1c19.3-0.1,34.7,3.8,44.5,7.1
										c0,0,0.1-0.3,0.1-0.4c0-0.1,0.1-0.2,0.1-0.4l0.2-0.7c0.4-1.6-0.2-3.3-1.7-4.3c-2.1-1.4-7.8-5.2-15.9-9.5
										c-11.5-6-21.3-9.4-26.7-9.4c-5.5,0-15.2,3.4-26.7,9.4c-8.2,4.2-13.9,8-15.9,9.5c-1.4,1-2.1,2.7-1.7,4.3L94.3,170.3z"/>
								</g>
							</g>
							<g>
								<g>
									<path class="st20" d="M94.3,170.3c0.1,0.2,0.1,0.5,0.2,0.7c9.6-3.2,24.7-9.2,43.5-9.3c19.3-0.1,34.7,6,44.5,9.3
										c0,0,0.1-0.3,0.1-0.4c0-0.1,0.1-0.2,0.1-0.4l0.2-0.7c0.4-1.6-0.2-3.3-1.7-4.3c-2.1-1.4-7.8-5.2-15.9-9.5
										c-11.5-6-21.3-9.4-26.7-9.4c-5.5,0-15.2,3.4-26.7,9.4c-8.2,4.2-13.9,8-15.9,9.5c-1.4,1-2.1,2.7-1.7,4.3L94.3,170.3z"/>
								</g>
							</g>
						</g>
						<g>
							<g>
								<g>
									<path class="st21" d="M182.6,196.1c-0.1-0.2-0.1-0.5-0.2-0.7c-9.6,3.2-24.7,7-43.5,7.1c-19.3,0.1-34.7-3.8-44.5-7.1
										c0,0-0.1,0.3-0.1,0.4c0,0.1-0.1,0.2-0.1,0.4l-0.2,0.7c-0.4,1.6,0.2,3.3,1.7,4.3c2.1,1.4,7.8,5.2,15.9,9.5
										c11.5,6,21.3,9.4,26.7,9.4c5.5,0,15.2-3.4,26.7-9.4c8.2-4.2,13.9-8,15.9-9.5c1.4-1,2.1-2.7,1.7-4.3V196.1z"/>
								</g>
							</g>
							<g>
								<g>
									<path class="st22" d="M182.6,196.1c-0.1-0.2-0.1-0.5-0.2-0.7c-9.6,3.2-24.7,9.2-43.5,9.3c-19.3,0.1-34.7-6-44.5-9.3
										c0,0-0.1,0.3-0.1,0.4c0,0.1-0.1,0.2-0.1,0.4l-0.2,0.7c-0.4,1.6,0.2,3.3,1.7,4.3c2.1,1.4,7.8,5.2,15.9,9.5
										c11.5,6,21.3,9.4,26.7,9.4c5.5,0,15.2-3.4,26.7-9.4c8.2-4.2,13.9-8,15.9-9.5c1.4-1,2.1-2.7,1.7-4.3V196.1z"/>
								</g>
							</g>
						</g>
						<g class="st23">
							<g>
								<g>
									<path class="st24" d="M140.4,220.1c1.1-0.1,2.3-0.4,3.6-0.7c-1.9,0.1-3.7,0.1-5.6,0.1c-1.9,0-3.7,0-5.6-0.1
										c1.3,0.3,2.5,0.5,3.6,0.7c0.7,0,1.3,0,2,0C139.1,220.1,139.8,220.1,140.4,220.1z"/>
								</g>
							</g>
							<g>
								<g>
									<path class="st24" d="M146.7,218.7c0.8-0.2,1.5-0.5,2.3-0.8c-3.5,0.3-7,0.5-10.6,0.5s-7.1-0.2-10.6-0.5
										c0.8,0.3,1.6,0.5,2.3,0.8c2.7,0.2,5.5,0.3,8.2,0.3C141.2,219,144,218.9,146.7,218.7z"/>
								</g>
							</g>
							<g>
								<g>
									<path class="st24" d="M151.2,217.2c0.7-0.3,1.4-0.5,2.1-0.8c-4.9,0.7-9.8,1-14.9,1c-5.1,0-10-0.4-14.9-1
										c0.7,0.3,1.4,0.6,2.1,0.8c4.2,0.5,8.4,0.7,12.8,0.7C142.8,217.9,147,217.6,151.2,217.2z"/>
								</g>
							</g>
							<g>
								<g>
									<path class="st24" d="M155.5,215.5c0.7-0.3,1.4-0.6,2.1-0.9c-6.2,1.1-12.6,1.7-19.1,1.7s-12.9-0.6-19.1-1.7
										c0.7,0.3,1.4,0.6,2.1,0.9c5.5,0.9,11.2,1.3,17,1.3C144.2,216.8,149.9,216.3,155.5,215.5z"/>
								</g>
							</g>
							<g>
								<g>
									<path class="st24" d="M159.6,213.6c0.7-0.3,1.4-0.7,2.1-1c-7.5,1.7-15.3,2.6-23.3,2.6s-15.8-0.9-23.3-2.6
										c0.7,0.4,1.4,0.7,2.1,1c6.8,1.4,13.9,2.1,21.2,2.1C145.7,215.7,152.8,214.9,159.6,213.6z"/>
								</g>
							</g>
							<g>
								<g>
									<path class="st24" d="M163.9,211.5c0.5-0.2,0.9-0.5,1.4-0.7c0.3-0.2,0.6-0.3,0.9-0.5c-8.8,2.4-18.1,3.7-27.7,3.7
										c-9.6,0-18.9-1.3-27.7-3.7c0.3,0.2,0.6,0.3,0.9,0.5c0.5,0.2,0.9,0.5,1.4,0.7c8.1,2,16.7,3.1,25.5,3.1
										C147.3,214.6,155.8,213.5,163.9,211.5z"/>
								</g>
							</g>
							<g>
								<g>
									<path class="st24" d="M168.5,209c0.8-0.5,1.6-0.9,2.4-1.4c-10.2,3.4-21.1,5.2-32.5,5.2s-22.3-1.8-32.5-5.2
										c0.8,0.4,1.6,0.9,2.4,1.4c9.5,2.9,19.6,4.4,30.1,4.4C148.9,213.5,159.1,211.9,168.5,209z"/>
								</g>
							</g>
							<g>
								<g>
									<path class="st24" d="M173.5,206.2c0.9-0.6,1.9-1.1,2.7-1.6c-11.6,4.6-24.4,7.2-37.8,7.2s-26.2-2.6-37.8-7.2
										c0.9,0.5,1.8,1.1,2.7,1.6c10.9,4,22.7,6.1,35,6.1C150.8,212.3,162.6,210.2,173.5,206.2z"/>
								</g>
							</g>
							<g>
								<g>
									<path class="st24" d="M179.1,202.8c0.8-0.5,1.6-1,2.2-1.5c0.2-0.1,0.3-0.2,0.5-0.4c-13,6.2-27.7,9.8-43.3,9.8
										s-30.3-3.5-43.3-9.8c0.1,0.1,0.3,0.2,0.5,0.4c0.7,0.5,1.4,1,2.2,1.5c12.3,5.4,26.1,8.5,40.6,8.5
										C153,211.2,166.7,208.2,179.1,202.8z"/>
								</g>
							</g>
							<g>
								<g>
									<path class="st24" d="M182.6,199.9c0.2-0.3,0.3-0.5,0.4-0.8c-13.2,6.7-28.4,10.5-44.5,10.5s-31.3-3.8-44.5-10.5
										c0.1,0.3,0.2,0.6,0.4,0.8c13.2,6.5,28.2,10.3,44.2,10.3S169.4,206.4,182.6,199.9z"/>
								</g>
							</g>
							<g>
								<g>
									<path class="st24" d="M183.2,198.3c0-0.2,0-0.4,0-0.7c-13.3,6.9-28.5,10.8-44.8,10.8c-16.2,0-31.5-3.9-44.8-10.8
										c0,0.2,0,0.4,0,0.7c13.3,6.8,28.5,10.7,44.7,10.7C154.7,209,169.9,205.1,183.2,198.3z"/>
								</g>
							</g>
							<g>
								<g>
									<path class="st24" d="M183.2,197c0-0.1,0-0.3-0.1-0.4c0-0.1,0-0.1,0-0.2c-13.2,6.9-28.4,10.9-44.6,10.9s-31.4-4-44.6-10.9
										c0,0.1,0,0.1,0,0.2c0,0.1-0.1,0.3-0.1,0.4c13.2,6.9,28.5,10.9,44.7,10.9S169.9,203.9,183.2,197z"/>
								</g>
							</g>
							<g>
								<g>
									<path class="st24" d="M182.9,195.9c0-0.2-0.1-0.4-0.1-0.6c-13.1,6.9-28.2,10.9-44.3,10.9s-31.2-4-44.3-10.9
										c0,0.2-0.1,0.4-0.1,0.6c13.1,6.9,28.3,10.9,44.4,10.9C154.6,206.8,169.8,202.8,182.9,195.9z"/>
								</g>
							</g>
							<g>
								<g>
									<path class="st24" d="M182.6,194.8c0-0.2-0.1-0.4-0.1-0.6c-13,6.9-28,10.9-44,10.9s-31-4-44-10.9c0,0.2-0.1,0.4-0.1,0.6
										c13,6.9,28.1,10.9,44.1,10.9S169.6,201.7,182.6,194.8z"/>
								</g>
							</g>
							<g>
								<g>
									<path class="st24" d="M182.3,193.7c0-0.2-0.1-0.4-0.1-0.6c-12.9,6.9-27.8,10.9-43.7,10.9s-30.8-4-43.7-10.9
										c0,0.2-0.1,0.4-0.1,0.6c12.9,6.9,27.9,10.9,43.9,10.9C154.4,204.6,169.4,200.6,182.3,193.7z"/>
								</g>
							</g>
							<g>
								<g>
									<path class="st24" d="M182,192.5c0-0.2-0.1-0.4-0.1-0.6c-12.8,6.9-27.6,10.9-43.4,10.9s-30.7-4-43.4-10.9
										c0,0.2-0.1,0.4-0.1,0.6c12.8,6.9,27.7,10.9,43.6,10.9C154.3,203.5,169.2,199.5,182,192.5z"/>
								</g>
							</g>
							<g>
								<g>
									<path class="st24" d="M181.7,191.4c0-0.2-0.1-0.4-0.1-0.6c-12.7,7-27.4,11-43.2,11c-15.7,0-30.5-4-43.2-11
										c0,0.2-0.1,0.4-0.1,0.6c12.7,7,27.5,11,43.3,11C154.2,202.3,169,198.3,181.7,191.4z"/>
								</g>
							</g>
							<g>
								<g>
									<path class="st24" d="M181.5,190.2c0-0.2-0.1-0.4-0.1-0.6c-12.6,7-27.2,11-42.9,11s-30.3-4-42.9-11c0,0.2-0.1,0.4-0.1,0.6
										c12.6,7,27.3,11,43,11S168.9,197.2,181.5,190.2z"/>
								</g>
							</g>
							<g>
								<g>
									<path class="st24" d="M181.2,189.1c0-0.2-0.1-0.4-0.1-0.6c-12.5,7-27.1,11.1-42.7,11.1s-30.2-4-42.7-11.1
										c0,0.2-0.1,0.4-0.1,0.6c12.5,7,27.1,11,42.8,11S168.7,196.1,181.2,189.1z"/>
								</g>
							</g>
							<g>
								<g>
									<path class="st24" d="M181,187.9c0-0.2-0.1-0.4-0.1-0.6c-12.4,7.1-26.9,11.1-42.4,11.1s-30.1-4.1-42.4-11.1
										c0,0.2-0.1,0.4-0.1,0.6c12.4,7,27,11.1,42.6,11.1C154,199,168.6,194.9,181,187.9z"/>
								</g>
							</g>
							<g>
								<g>
									<path class="st24" d="M180.8,186.7c0-0.2-0.1-0.4-0.1-0.6c-12.3,7.1-26.8,11.2-42.3,11.2s-30-4.1-42.3-11.2
										c0,0.2-0.1,0.4-0.1,0.6c12.3,7.1,26.8,11.2,42.3,11.2C154,197.9,168.5,193.8,180.8,186.7z"/>
								</g>
							</g>
							<g>
								<g>
									<path class="st24" d="M180.6,185.5c0-0.2,0-0.4-0.1-0.6c-12.2,7.2-26.6,11.3-42.1,11.3s-29.9-4.2-42.1-11.3
										c0,0.2,0,0.4-0.1,0.6c12.2,7.1,26.7,11.3,42.2,11.3S168.4,192.6,180.6,185.5z"/>
								</g>
							</g>
							<g>
								<g>
									<path class="st24" d="M180.5,184.3c0-0.2,0-0.4,0-0.6c-12.1,7.3-26.6,11.5-42,11.5c-15.5,0-29.9-4.2-42-11.5
										c0,0.2,0,0.4,0,0.6c12.2,7.2,26.6,11.4,42.1,11.4C153.9,195.7,168.4,191.5,180.5,184.3z"/>
								</g>
							</g>
							<g>
								<g>
									<path class="st24" d="M138.5,194c-15.5,0-30-4.3-42.1-11.7c0,0.2,0,0.5,0,0.7c12.1,7.3,26.5,11.6,42,11.6s29.9-4.3,42-11.6
										c0-0.2,0-0.4,0-0.7C168.4,189.7,154,194,138.5,194z"/>
								</g>
							</g>
							<g>
								<g>
									<path class="st24" d="M180.6,181.6c0-0.2,0-0.5,0.1-0.7c-12,7.6-26.6,12-42.2,12s-30.1-4.4-42.2-12c0,0.2,0.1,0.5,0.1,0.7
										c12.1,7.5,26.5,11.9,42.1,11.9C154,193.4,168.5,189.1,180.6,181.6z"/>
								</g>
							</g>
							<g>
								<g>
									<path class="st24" d="M180.7,180.1c0-0.2,0.1-0.5,0.1-0.8c-12,7.8-26.6,12.4-42.4,12.4S108,187.1,96,179.3
										c0,0.3,0.1,0.5,0.1,0.8c12,7.7,26.6,12.2,42.3,12.2S168.7,187.8,180.7,180.1z"/>
								</g>
							</g>
							<g>
								<g>
									<path class="st24" d="M181,178.6c0-0.3,0.1-0.5,0.1-0.8c-12,8.1-26.8,12.8-42.7,12.8s-30.7-4.8-42.7-12.8
										c0.1,0.3,0.1,0.5,0.1,0.8c12,7.9,26.7,12.6,42.5,12.6C154.3,191.2,169,186.6,181,178.6z"/>
								</g>
							</g>
							<g>
								<g>
									<path class="st24" d="M181.3,177c0.1-0.3,0.1-0.5,0.2-0.8c-12,8.4-26.9,13.3-43,13.3s-31-5-43-13.3
										c0.1,0.3,0.1,0.5,0.2,0.8c12,8.2,26.8,13.1,42.8,13.1S169.3,185.3,181.3,177z"/>
								</g>
							</g>
							<g>
								<g>
									<path class="st24" d="M181.7,175.4c0.1-0.3,0.1-0.6,0.2-0.8c-12,8.7-27,13.9-43.4,13.9s-31.4-5.2-43.4-13.9
										c0.1,0.3,0.1,0.6,0.2,0.8c12,8.5,27,13.6,43.2,13.6S169.7,183.9,181.7,175.4z"/>
								</g>
							</g>
							<g>
								<g>
									<path class="st24" d="M182.1,173.7c0.1-0.3,0.1-0.6,0.2-0.9c-12,9.1-27.2,14.5-43.8,14.5s-31.9-5.5-43.8-14.5
										c0.1,0.3,0.1,0.6,0.2,0.9c12,8.9,27.1,14.2,43.6,14.2C154.9,187.9,170.1,182.6,182.1,173.7z"/>
								</g>
							</g>
							<g>
								<g>
									<path class="st24" d="M182.5,171.9c0.1-0.3,0.2-0.6,0.2-0.9c-11.9,9.5-27.4,15.2-44.3,15.2S106,180.5,94.1,171
										c0.1,0.3,0.2,0.6,0.2,0.9c11.9,9.3,27.3,14.9,44.1,14.9C155.2,186.8,170.6,181.2,182.5,171.9z"/>
								</g>
							</g>
							<g>
								<g>
									<path class="st24" d="M183,170.1c0-0.1,0.1-0.2,0.1-0.3c0-0.2,0.1-0.4,0.1-0.6c-11.9,9.9-27.5,15.9-44.7,15.9
										s-32.9-6-44.7-15.9c0,0.2,0.1,0.4,0.1,0.6c0,0.1,0.1,0.2,0.1,0.3c11.9,9.7,27.5,15.6,44.5,15.6
										C155.5,185.7,171.1,179.8,183,170.1z"/>
								</g>
							</g>
							<g>
								<g>
									<path class="st24" d="M183.2,168.4c0-0.2-0.1-0.5-0.1-0.7c-11.7,10.1-27.4,16.3-44.6,16.3s-32.9-6.2-44.6-16.3
										c-0.1,0.2-0.1,0.4-0.1,0.7c11.8,10,27.5,16.2,44.7,16.2S171.4,178.4,183.2,168.4z"/>
								</g>
							</g>
							<g>
								<g>
									<path class="st24" d="M182.9,167.1c-0.1-0.2-0.2-0.4-0.3-0.5c-11.6,10.1-27.1,16.3-44.2,16.3s-32.6-6.2-44.2-16.3
										c-0.1,0.2-0.2,0.4-0.3,0.5c11.7,10.1,27.3,16.3,44.5,16.3S171.3,177.3,182.9,167.1z"/>
								</g>
							</g>
							<g>
								<g>
									<path class="st24" d="M182.3,166.1c-0.1-0.2-0.2-0.3-0.4-0.4c-11.4,10-26.7,16.1-43.5,16.1s-32.1-6.1-43.5-16.1
										c-0.1,0.1-0.3,0.3-0.4,0.4c11.5,10,26.9,16.2,43.9,16.2S170.9,176.2,182.3,166.1z"/>
								</g>
							</g>
							<g>
								<g>
									<path class="st24" d="M181.5,165.3c-0.1-0.1-0.2-0.1-0.2-0.2c-0.1-0.1-0.2-0.1-0.2-0.2c-11.1,9.7-26.1,15.7-42.6,15.7
										s-31.5-6-42.6-15.7c-0.1,0.1-0.2,0.1-0.2,0.2c-0.1,0.1-0.2,0.1-0.2,0.2c11.2,9.9,26.4,15.9,43.1,15.9
										C155.1,181.2,170.3,175.2,181.5,165.3z"/>
								</g>
							</g>
							<g>
								<g>
									<path class="st24" d="M180.6,164.6c-0.2-0.1-0.3-0.2-0.5-0.3c-10.9,9.5-25.5,15.3-41.6,15.3s-30.7-5.8-41.6-15.3
										c-0.2,0.1-0.3,0.2-0.5,0.3c11,9.6,25.8,15.5,42.1,15.5C154.7,180.1,169.5,174.2,180.6,164.6z"/>
								</g>
							</g>
							<g>
								<g>
									<path class="st24" d="M179.6,164c-0.2-0.1-0.3-0.2-0.5-0.3c-10.7,9.2-24.9,14.8-40.6,14.8s-29.9-5.6-40.6-14.8
										c-0.2,0.1-0.3,0.2-0.5,0.3c10.8,9.3,25.2,15,41.1,15C154.3,179,168.8,173.3,179.6,164z"/>
								</g>
							</g>
							<g>
								<g>
									<path class="st24" d="M178.6,163.3c-0.2-0.1-0.3-0.2-0.5-0.3c-10.4,8.9-24.3,14.4-39.6,14.4S109.3,172,98.9,163
										c-0.2,0.1-0.3,0.2-0.5,0.3c10.6,9,24.6,14.6,40.1,14.6S168,172.4,178.6,163.3z"/>
								</g>
							</g>
							<g>
								<g>
									<path class="st24" d="M177.6,162.7c-0.2-0.1-0.3-0.2-0.5-0.3c-10.2,8.6-23.7,13.9-38.6,13.9c-14.8,0-28.4-5.3-38.6-13.9
										c-0.2,0.1-0.3,0.2-0.5,0.3c10.3,8.8,24,14.1,39.1,14.1C153.5,176.8,167.2,171.4,177.6,162.7z"/>
								</g>
							</g>
							<g>
								<g>
									<path class="st24" d="M176.5,162c-0.2-0.1-0.3-0.2-0.5-0.3c-10,8.3-23.1,13.4-37.6,13.4c-14.4,0-27.6-5.1-37.6-13.4
										c-0.2,0.1-0.3,0.2-0.5,0.3c10.1,8.5,23.4,13.6,38.1,13.6C153.1,175.7,166.5,170.5,176.5,162z"/>
								</g>
							</g>
							<g>
								<g>
									<path class="st24" d="M175.5,161.4c-0.2-0.1-0.3-0.2-0.5-0.3c-9.7,8-22.5,12.9-36.5,12.9s-26.8-4.9-36.5-12.9
										c-0.2,0.1-0.3,0.2-0.5,0.3c9.8,8.2,22.8,13.2,37.1,13.2C152.7,174.6,165.7,169.6,175.5,161.4z"/>
								</g>
							</g>
							<g>
								<g>
									<path class="st24" d="M174.5,160.8c-0.2-0.1-0.3-0.2-0.5-0.3c-9.5,7.7-21.9,12.4-35.5,12.4s-26-4.7-35.5-12.4
										c-0.2,0.1-0.4,0.2-0.5,0.3c9.6,7.9,22.2,12.7,36,12.7C152.3,173.4,164.9,168.6,174.5,160.8z"/>
								</g>
							</g>
							<g>
								<g>
									<path class="st24" d="M173.4,160.1c-0.2-0.1-0.4-0.2-0.5-0.3c-9.2,7.4-21.3,12-34.4,12c-13.2,0-25.2-4.5-34.4-12
										c-0.2,0.1-0.4,0.2-0.5,0.3c9.4,7.6,21.6,12.2,35,12.2C151.8,172.3,164.1,167.7,173.4,160.1z"/>
								</g>
							</g>
							<g>
								<g>
									<path class="st24" d="M172.4,159.5c-0.2-0.1-0.4-0.2-0.5-0.3c-9,7.1-20.6,11.5-33.4,11.5c-12.7,0-24.4-4.3-33.4-11.5
										c-0.2,0.1-0.4,0.2-0.5,0.3c9.1,7.3,21,11.7,33.9,11.7S163.3,166.8,172.4,159.5z"/>
								</g>
							</g>
							<g>
								<g>
									<path class="st24" d="M171.3,158.9c-0.2-0.1-0.4-0.2-0.5-0.3c-8.7,6.8-20,11-32.3,11s-23.6-4.1-32.3-11
										c-0.2,0.1-0.4,0.2-0.5,0.3c8.9,7,20.3,11.2,32.8,11.2C151,170.1,162.4,165.9,171.3,158.9z"/>
								</g>
							</g>
							<g>
								<g>
									<path class="st24" d="M170.2,158.3c-0.2-0.1-0.4-0.2-0.5-0.3c-8.5,6.5-19.4,10.5-31.2,10.5c-11.9,0-22.7-3.9-31.2-10.5
										c-0.2,0.1-0.4,0.2-0.5,0.3c8.6,6.7,19.7,10.7,31.8,10.7C150.5,169,161.6,165,170.2,158.3z"/>
								</g>
							</g>
							<g>
								<g>
									<path class="st24" d="M169.1,157.7c-0.2-0.1-0.4-0.2-0.5-0.3c-8.2,6.2-18.7,9.9-30.1,9.9s-21.9-3.7-30.1-9.9
										c-0.2,0.1-0.4,0.2-0.5,0.3c8.4,6.4,19,10.2,30.7,10.2C150.1,167.9,160.8,164.1,169.1,157.7z"/>
								</g>
							</g>
							<g>
								<g>
									<path class="st24" d="M168,157.1c-0.2-0.1-0.4-0.2-0.6-0.3c-8,5.9-18.1,9.4-29,9.4c-11,0-21.1-3.5-29-9.4
										c-0.2,0.1-0.4,0.2-0.6,0.3c8.1,6.1,18.4,9.7,29.6,9.7C149.6,166.8,159.9,163.1,168,157.1z"/>
								</g>
							</g>
							<g>
								<g>
									<path class="st24" d="M166.9,156.5c-0.2-0.1-0.4-0.2-0.6-0.3c-7.7,5.6-17.4,8.9-27.9,8.9s-20.2-3.3-27.9-8.9
										c-0.2,0.1-0.4,0.2-0.6,0.3c7.8,5.7,17.7,9.2,28.5,9.2S159.1,162.2,166.9,156.5z"/>
								</g>
							</g>
							<g>
								<g>
									<path class="st24" d="M165.8,155.9c-0.2-0.1-0.3-0.2-0.5-0.2h-0.1c-7.4,5.3-16.7,8.4-26.8,8.4s-19.3-3.1-26.8-8.4h-0.1
										c-0.2,0.1-0.3,0.2-0.5,0.2c7.6,5.4,17.1,8.7,27.3,8.7C148.7,164.6,158.2,161.3,165.8,155.9z"/>
								</g>
							</g>
							<g>
								<g>
									<path class="st24" d="M164.7,155.3c-0.2-0.1-0.4-0.2-0.6-0.3c-7.2,5-16,7.9-25.6,7.9S120,160,112.9,155
										c-0.2,0.1-0.4,0.2-0.6,0.3c7.3,5.1,16.4,8.1,26.2,8.1C148.3,163.4,157.4,160.4,164.7,155.3z"/>
								</g>
							</g>
							<g>
								<g>
									<path class="st24" d="M163.5,154.7c-0.2-0.1-0.4-0.2-0.6-0.3c-6.9,4.6-15.3,7.4-24.5,7.4c-9.1,0-17.6-2.7-24.5-7.4
										c-0.2,0.1-0.4,0.2-0.6,0.3c7,4.8,15.7,7.6,25.1,7.6C147.8,162.3,156.5,159.5,163.5,154.7z"/>
								</g>
							</g>
							<g>
								<g>
									<path class="st24" d="M162.3,154.1c-0.2-0.1-0.4-0.2-0.6-0.3c-6.6,4.3-14.6,6.8-23.3,6.8s-16.7-2.5-23.3-6.8
										c-0.2,0.1-0.4,0.2-0.6,0.3c6.7,4.5,15,7.1,23.9,7.1C147.4,161.2,155.6,158.6,162.3,154.1z"/>
								</g>
							</g>
							<g>
								<g>
									<path class="st24" d="M161.2,153.5c-0.2-0.1-0.4-0.2-0.6-0.3c-6.3,4-13.9,6.3-22.1,6.3c-8.2,0-15.8-2.3-22.1-6.3
										c-0.2,0.1-0.4,0.2-0.6,0.3c6.5,4.1,14.3,6.6,22.7,6.6C146.9,160.1,154.7,157.7,161.2,153.5z"/>
								</g>
							</g>
							<g>
								<g>
									<path class="st24" d="M159.9,153c-0.2-0.1-0.4-0.2-0.6-0.3c-6,3.6-13.2,5.8-20.9,5.8s-14.9-2.1-20.9-5.8
										c-0.2,0.1-0.4,0.2-0.6,0.3c6.2,3.8,13.5,6,21.5,6S153.8,156.8,159.9,153z"/>
								</g>
							</g>
							<g>
								<g>
									<path class="st24" d="M158.7,152.4c-0.2-0.1-0.4-0.2-0.6-0.3c-5.7,3.3-12.4,5.2-19.6,5.2c-7.2,0-13.9-1.9-19.6-5.2
										c-0.2,0.1-0.4,0.2-0.6,0.3c5.9,3.5,12.8,5.5,20.3,5.5C145.9,157.9,152.9,155.9,158.7,152.4z"/>
								</g>
							</g>
							<g>
								<g>
									<path class="st24" d="M157.4,151.8c-0.2-0.1-0.4-0.2-0.6-0.3c-5.4,3-11.6,4.7-18.3,4.7s-13-1.7-18.3-4.7
										c-0.2,0.1-0.4,0.2-0.6,0.3c5.5,3.1,12,5,19,5C145.4,156.8,151.9,155,157.4,151.8z"/>
								</g>
							</g>
							<g>
								<g>
									<path class="st24" d="M156.1,151.2c-0.2-0.1-0.4-0.2-0.7-0.3c-5,2.6-10.8,4.2-17,4.2s-12-1.5-17-4.2
										c-0.2,0.1-0.4,0.2-0.7,0.3c5.2,2.8,11.2,4.4,17.7,4.4C144.9,155.7,150.9,154.1,156.1,151.2z"/>
								</g>
							</g>
							<g>
								<g>
									<path class="st24" d="M154.8,150.7c-0.2-0.1-0.5-0.2-0.7-0.3c-4.7,2.3-10,3.6-15.7,3.6s-11-1.3-15.7-3.6
										c-0.2,0.1-0.5,0.2-0.7,0.3c4.9,2.5,10.4,3.9,16.4,3.9C144.4,154.6,150,153.1,154.8,150.7z"/>
								</g>
							</g>
							<g>
								<g>
									<path class="st24" d="M153.4,150.1c-0.2-0.1-0.5-0.2-0.7-0.3c-4.3,2-9.1,3.1-14.2,3.1c-5.1,0-9.9-1.1-14.2-3.1
										c-0.2,0.1-0.5,0.2-0.7,0.3c4.5,2.1,9.6,3.4,15,3.4C143.8,153.4,148.9,152.2,153.4,150.1z"/>
								</g>
							</g>
							<g>
								<g>
									<path class="st24" d="M152,149.5c-0.3-0.1-0.5-0.2-0.8-0.3c-3.9,1.6-8.2,2.5-12.8,2.5c-4.5,0-8.9-0.9-12.8-2.5
										c-0.2,0.1-0.5,0.2-0.8,0.3c4.1,1.8,8.7,2.8,13.5,2.8C143.3,152.3,147.9,151.3,152,149.5z"/>
								</g>
							</g>
							<g>
								<g>
									<path class="st24" d="M150.4,148.9c-0.3-0.1-0.5-0.2-0.8-0.3c-3.5,1.3-7.2,2-11.2,2c-3.9,0-7.7-0.7-11.2-2
										c-0.3,0.1-0.5,0.2-0.8,0.3c3.7,1.5,7.7,2.3,12,2.3S146.8,150.4,150.4,148.9z"/>
								</g>
							</g>
							<g>
								<g>
									<path class="st24" d="M148.8,148.4c-0.3-0.1-0.6-0.2-0.9-0.3c-3,1-6.1,1.5-9.4,1.5c-3.3,0-6.5-0.5-9.4-1.5
										c-0.3,0.1-0.6,0.2-0.9,0.3c3.2,1.1,6.7,1.7,10.3,1.7C142.1,150.1,145.6,149.5,148.8,148.4z"/>
								</g>
							</g>
							<g>
								<g>
									<path class="st24" d="M147,147.8c-0.3-0.1-0.7-0.2-1-0.3c-2.4,0.6-4.9,1-7.5,1s-5.1-0.3-7.5-1c-0.3,0.1-0.7,0.2-1,0.3
										c2.7,0.8,5.5,1.2,8.5,1.2C141.4,149,144.3,148.6,147,147.8z"/>
								</g>
							</g>
							<g>
								<g>
									<path class="st24" d="M144.9,147.2c-0.4-0.1-0.9-0.2-1.3-0.3c-1.7,0.3-3.4,0.5-5.1,0.5c-1.8,0-3.5-0.2-5.1-0.5
										c-0.4,0.1-0.8,0.2-1.3,0.3c2.1,0.5,4.2,0.7,6.4,0.7C140.7,147.9,142.8,147.6,144.9,147.2z"/>
								</g>
							</g>
							<g>
								<g>
									<path class="st24" d="M142,146.5c-1-0.2-1.9-0.3-2.7-0.3c-0.3,0-0.6,0-0.9,0c-0.3,0-0.6,0-0.9,0c-0.8,0-1.7,0.2-2.7,0.3
										c1.2,0.2,2.4,0.2,3.6,0.2C139.7,146.8,140.9,146.7,142,146.5z"/>
								</g>
							</g>
						</g>
						<g class="st23">
							<g>
								<g>
									<path class="st24" d="M140.4,220.1c1.1-0.1,2.3-0.4,3.6-0.7c-1.9,0.1-3.7,0.1-5.6,0.1c-1.9,0-3.7,0-5.6-0.1
										c1.3,0.3,2.5,0.5,3.6,0.7c0.7,0,1.3,0,2,0C139.1,220.1,139.8,220.1,140.4,220.1z"/>
								</g>
							</g>
							<g>
								<g>
									<path class="st24" d="M146.7,218.7c0.8-0.2,1.5-0.5,2.3-0.8c-3.5,0.3-7,0.5-10.6,0.5s-7.1-0.2-10.6-0.5
										c0.8,0.3,1.6,0.5,2.3,0.8c2.7,0.2,5.5,0.3,8.2,0.3C141.2,219,144,218.9,146.7,218.7z"/>
								</g>
							</g>
							<g>
								<g>
									<path class="st24" d="M151.2,217.2c0.7-0.3,1.4-0.5,2.1-0.8c-4.9,0.7-9.8,1-14.9,1c-5.1,0-10-0.4-14.9-1
										c0.7,0.3,1.4,0.6,2.1,0.8c4.2,0.5,8.4,0.7,12.8,0.7C142.8,217.9,147,217.6,151.2,217.2z"/>
								</g>
							</g>
							<g>
								<g>
									<path class="st24" d="M155.5,215.5c0.7-0.3,1.4-0.6,2.1-0.9c-6.2,1.1-12.6,1.7-19.1,1.7s-12.9-0.6-19.1-1.7
										c0.7,0.3,1.4,0.6,2.1,0.9c5.5,0.9,11.2,1.3,17,1.3C144.2,216.8,149.9,216.3,155.5,215.5z"/>
								</g>
							</g>
							<g>
								<g>
									<path class="st24" d="M159.6,213.6c0.7-0.3,1.4-0.7,2.1-1c-7.5,1.7-15.3,2.6-23.3,2.6s-15.8-0.9-23.3-2.6
										c0.7,0.4,1.4,0.7,2.1,1c6.8,1.4,13.9,2.1,21.2,2.1C145.7,215.7,152.8,214.9,159.6,213.6z"/>
								</g>
							</g>
							<g>
								<g>
									<path class="st24" d="M163.9,211.5c0.5-0.2,0.9-0.5,1.4-0.7c0.3-0.2,0.6-0.3,0.9-0.5c-8.8,2.4-18.1,3.7-27.7,3.7
										c-9.6,0-18.9-1.3-27.7-3.7c0.3,0.2,0.6,0.3,0.9,0.5c0.5,0.2,0.9,0.5,1.4,0.7c8.1,2,16.7,3.1,25.5,3.1
										C147.3,214.6,155.8,213.5,163.9,211.5z"/>
								</g>
							</g>
							<g>
								<g>
									<path class="st24" d="M168.5,209c0.8-0.5,1.6-0.9,2.4-1.4c-10.2,3.4-21.1,5.2-32.5,5.2s-22.3-1.8-32.5-5.2
										c0.8,0.4,1.6,0.9,2.4,1.4c9.5,2.9,19.6,4.4,30.1,4.4C148.9,213.5,159.1,211.9,168.5,209z"/>
								</g>
							</g>
							<g>
								<g>
									<path class="st24" d="M173.5,206.2c0.9-0.6,1.9-1.1,2.7-1.6c-11.6,4.6-24.4,7.2-37.8,7.2s-26.2-2.6-37.8-7.2
										c0.9,0.5,1.8,1.1,2.7,1.6c10.9,4,22.7,6.1,35,6.1C150.8,212.3,162.6,210.2,173.5,206.2z"/>
								</g>
							</g>
							<g>
								<g>
									<path class="st24" d="M179.1,202.8c0.8-0.5,1.6-1,2.2-1.5c0.2-0.1,0.3-0.2,0.5-0.4c-13,6.2-27.7,9.8-43.3,9.8
										s-30.3-3.5-43.3-9.8c0.1,0.1,0.3,0.2,0.5,0.4c0.7,0.5,1.4,1,2.2,1.5c12.3,5.4,26.1,8.5,40.6,8.5
										C153,211.2,166.7,208.2,179.1,202.8z"/>
								</g>
							</g>
							<g>
								<g>
									<path class="st24" d="M182.6,199.9c0.2-0.3,0.3-0.5,0.4-0.8c-13.2,6.7-28.4,10.5-44.5,10.5s-31.3-3.8-44.5-10.5
										c0.1,0.3,0.2,0.6,0.4,0.8c13.2,6.5,28.2,10.3,44.2,10.3S169.4,206.4,182.6,199.9z"/>
								</g>
							</g>
							<g>
								<g>
									<path class="st24" d="M183.2,198.3c0-0.2,0-0.4,0-0.7c-13.3,6.9-28.5,10.8-44.8,10.8c-16.2,0-31.5-3.9-44.8-10.8
										c0,0.2,0,0.4,0,0.7c13.3,6.8,28.5,10.7,44.7,10.7C154.7,209,169.9,205.1,183.2,198.3z"/>
								</g>
							</g>
							<g>
								<g>
									<path class="st24" d="M183.2,197c0-0.1,0-0.3-0.1-0.4c0-0.1,0-0.1,0-0.2c-13.2,6.9-28.4,10.9-44.6,10.9s-31.4-4-44.6-10.9
										c0,0.1,0,0.1,0,0.2c0,0.1-0.1,0.3-0.1,0.4c13.2,6.9,28.5,10.9,44.7,10.9S169.9,203.9,183.2,197z"/>
								</g>
							</g>
							<g>
								<g>
									<path class="st24" d="M182.9,195.9c0-0.2-0.1-0.4-0.1-0.6c-13.1,6.9-28.2,10.9-44.3,10.9s-31.2-4-44.3-10.9
										c0,0.2-0.1,0.4-0.1,0.6c13.1,6.9,28.3,10.9,44.4,10.9C154.6,206.8,169.8,202.8,182.9,195.9z"/>
								</g>
							</g>
							<g>
								<g>
									<path class="st24" d="M182.6,194.8c0-0.2-0.1-0.4-0.1-0.6c-13,6.9-28,10.9-44,10.9s-31-4-44-10.9c0,0.2-0.1,0.4-0.1,0.6
										c13,6.9,28.1,10.9,44.1,10.9S169.6,201.7,182.6,194.8z"/>
								</g>
							</g>
							<g>
								<g>
									<path class="st24" d="M182.3,193.7c0-0.2-0.1-0.4-0.1-0.6c-12.9,6.9-27.8,10.9-43.7,10.9s-30.8-4-43.7-10.9
										c0,0.2-0.1,0.4-0.1,0.6c12.9,6.9,27.9,10.9,43.9,10.9C154.4,204.6,169.4,200.6,182.3,193.7z"/>
								</g>
							</g>
							<g>
								<g>
									<path class="st24" d="M182,192.5c0-0.2-0.1-0.4-0.1-0.6c-12.8,6.9-27.6,10.9-43.4,10.9s-30.7-4-43.4-10.9
										c0,0.2-0.1,0.4-0.1,0.6c12.8,6.9,27.7,10.9,43.6,10.9C154.3,203.5,169.2,199.5,182,192.5z"/>
								</g>
							</g>
							<g>
								<g>
									<path class="st24" d="M181.7,191.4c0-0.2-0.1-0.4-0.1-0.6c-12.7,7-27.4,11-43.2,11c-15.7,0-30.5-4-43.2-11
										c0,0.2-0.1,0.4-0.1,0.6c12.7,7,27.5,11,43.3,11C154.2,202.3,169,198.3,181.7,191.4z"/>
								</g>
							</g>
							<g>
								<g>
									<path class="st24" d="M181.5,190.2c0-0.2-0.1-0.4-0.1-0.6c-12.6,7-27.2,11-42.9,11s-30.3-4-42.9-11c0,0.2-0.1,0.4-0.1,0.6
										c12.6,7,27.3,11,43,11S168.9,197.2,181.5,190.2z"/>
								</g>
							</g>
							<g>
								<g>
									<path class="st24" d="M181.2,189.1c0-0.2-0.1-0.4-0.1-0.6c-12.5,7-27.1,11.1-42.7,11.1s-30.2-4-42.7-11.1
										c0,0.2-0.1,0.4-0.1,0.6c12.5,7,27.1,11,42.8,11S168.7,196.1,181.2,189.1z"/>
								</g>
							</g>
							<g>
								<g>
									<path class="st24" d="M181,187.9c0-0.2-0.1-0.4-0.1-0.6c-12.4,7.1-26.9,11.1-42.4,11.1s-30.1-4.1-42.4-11.1
										c0,0.2-0.1,0.4-0.1,0.6c12.4,7,27,11.1,42.6,11.1C154,199,168.6,194.9,181,187.9z"/>
								</g>
							</g>
							<g>
								<g>
									<path class="st24" d="M180.8,186.7c0-0.2-0.1-0.4-0.1-0.6c-12.3,7.1-26.8,11.2-42.3,11.2s-30-4.1-42.3-11.2
										c0,0.2-0.1,0.4-0.1,0.6c12.3,7.1,26.8,11.2,42.3,11.2C154,197.9,168.5,193.8,180.8,186.7z"/>
								</g>
							</g>
							<g>
								<g>
									<path class="st24" d="M180.6,185.5c0-0.2,0-0.4-0.1-0.6c-12.2,7.2-26.6,11.3-42.1,11.3s-29.9-4.2-42.1-11.3
										c0,0.2,0,0.4-0.1,0.6c12.2,7.1,26.7,11.3,42.2,11.3S168.4,192.6,180.6,185.5z"/>
								</g>
							</g>
							<g>
								<g>
									<path class="st24" d="M180.5,184.3c0-0.2,0-0.4,0-0.6c-12.1,7.3-26.6,11.5-42,11.5c-15.5,0-29.9-4.2-42-11.5
										c0,0.2,0,0.4,0,0.6c12.2,7.2,26.6,11.4,42.1,11.4C153.9,195.7,168.4,191.5,180.5,184.3z"/>
								</g>
							</g>
							<g>
								<g>
									<path class="st24" d="M138.5,194c-15.5,0-30-4.3-42.1-11.7c0,0.2,0,0.5,0,0.7c12.1,7.3,26.5,11.6,42,11.6s29.9-4.3,42-11.6
										c0-0.2,0-0.4,0-0.7C168.4,189.7,154,194,138.5,194z"/>
								</g>
							</g>
							<g>
								<g>
									<path class="st24" d="M180.6,181.6c0-0.2,0-0.5,0.1-0.7c-12,7.6-26.6,12-42.2,12s-30.1-4.4-42.2-12c0,0.2,0.1,0.5,0.1,0.7
										c12.1,7.5,26.5,11.9,42.1,11.9C154,193.4,168.5,189.1,180.6,181.6z"/>
								</g>
							</g>
							<g>
								<g>
									<path class="st24" d="M180.7,180.1c0-0.2,0.1-0.5,0.1-0.8c-12,7.8-26.6,12.4-42.4,12.4S108,187.1,96,179.3
										c0,0.3,0.1,0.5,0.1,0.8c12,7.7,26.6,12.2,42.3,12.2S168.7,187.8,180.7,180.1z"/>
								</g>
							</g>
							<g>
								<g>
									<path class="st24" d="M181,178.6c0-0.3,0.1-0.5,0.1-0.8c-12,8.1-26.8,12.8-42.7,12.8s-30.7-4.8-42.7-12.8
										c0.1,0.3,0.1,0.5,0.1,0.8c12,7.9,26.7,12.6,42.5,12.6C154.3,191.2,169,186.6,181,178.6z"/>
								</g>
							</g>
							<g>
								<g>
									<path class="st24" d="M181.3,177c0.1-0.3,0.1-0.5,0.2-0.8c-12,8.4-26.9,13.3-43,13.3s-31-5-43-13.3
										c0.1,0.3,0.1,0.5,0.2,0.8c12,8.2,26.8,13.1,42.8,13.1S169.3,185.3,181.3,177z"/>
								</g>
							</g>
							<g>
								<g>
									<path class="st24" d="M181.7,175.4c0.1-0.3,0.1-0.6,0.2-0.8c-12,8.7-27,13.9-43.4,13.9s-31.4-5.2-43.4-13.9
										c0.1,0.3,0.1,0.6,0.2,0.8c12,8.5,27,13.6,43.2,13.6S169.7,183.9,181.7,175.4z"/>
								</g>
							</g>
							<g>
								<g>
									<path class="st24" d="M182.1,173.7c0.1-0.3,0.1-0.6,0.2-0.9c-12,9.1-27.2,14.5-43.8,14.5s-31.9-5.5-43.8-14.5
										c0.1,0.3,0.1,0.6,0.2,0.9c12,8.9,27.1,14.2,43.6,14.2C154.9,187.9,170.1,182.6,182.1,173.7z"/>
								</g>
							</g>
							<g>
								<g>
									<path class="st24" d="M182.5,171.9c0.1-0.3,0.2-0.6,0.2-0.9c-11.9,9.5-27.4,15.2-44.3,15.2S106,180.5,94.1,171
										c0.1,0.3,0.2,0.6,0.2,0.9c11.9,9.3,27.3,14.9,44.1,14.9C155.2,186.8,170.6,181.2,182.5,171.9z"/>
								</g>
							</g>
							<g>
								<g>
									<path class="st24" d="M183,170.1c0-0.1,0.1-0.2,0.1-0.3c0-0.2,0.1-0.4,0.1-0.6c-11.9,9.9-27.5,15.9-44.7,15.9
										s-32.9-6-44.7-15.9c0,0.2,0.1,0.4,0.1,0.6c0,0.1,0.1,0.2,0.1,0.3c11.9,9.7,27.5,15.6,44.5,15.6
										C155.5,185.7,171.1,179.8,183,170.1z"/>
								</g>
							</g>
							<g>
								<g>
									<path class="st24" d="M183.2,168.4c0-0.2-0.1-0.5-0.1-0.7c-11.7,10.1-27.4,16.3-44.6,16.3s-32.9-6.2-44.6-16.3
										c-0.1,0.2-0.1,0.4-0.1,0.7c11.8,10,27.5,16.2,44.7,16.2S171.4,178.4,183.2,168.4z"/>
								</g>
							</g>
							<g>
								<g>
									<path class="st24" d="M182.9,167.1c-0.1-0.2-0.2-0.4-0.3-0.5c-11.6,10.1-27.1,16.3-44.2,16.3s-32.6-6.2-44.2-16.3
										c-0.1,0.2-0.2,0.4-0.3,0.5c11.7,10.1,27.3,16.3,44.5,16.3S171.3,177.3,182.9,167.1z"/>
								</g>
							</g>
							<g>
								<g>
									<path class="st24" d="M182.3,166.1c-0.1-0.2-0.2-0.3-0.4-0.4c-11.4,10-26.7,16.1-43.5,16.1s-32.1-6.1-43.5-16.1
										c-0.1,0.1-0.3,0.3-0.4,0.4c11.5,10,26.9,16.2,43.9,16.2S170.9,176.2,182.3,166.1z"/>
								</g>
							</g>
							<g>
								<g>
									<path class="st24" d="M181.5,165.3c-0.1-0.1-0.2-0.1-0.2-0.2c-0.1-0.1-0.2-0.1-0.2-0.2c-11.1,9.7-26.1,15.7-42.6,15.7
										s-31.5-6-42.6-15.7c-0.1,0.1-0.2,0.1-0.2,0.2c-0.1,0.1-0.2,0.1-0.2,0.2c11.2,9.9,26.4,15.9,43.1,15.9
										C155.1,181.2,170.3,175.2,181.5,165.3z"/>
								</g>
							</g>
							<g>
								<g>
									<path class="st24" d="M180.6,164.6c-0.2-0.1-0.3-0.2-0.5-0.3c-10.9,9.5-25.5,15.3-41.6,15.3s-30.7-5.8-41.6-15.3
										c-0.2,0.1-0.3,0.2-0.5,0.3c11,9.6,25.8,15.5,42.1,15.5C154.7,180.1,169.5,174.2,180.6,164.6z"/>
								</g>
							</g>
							<g>
								<g>
									<path class="st24" d="M179.6,164c-0.2-0.1-0.3-0.2-0.5-0.3c-10.7,9.2-24.9,14.8-40.6,14.8s-29.9-5.6-40.6-14.8
										c-0.2,0.1-0.3,0.2-0.5,0.3c10.8,9.3,25.2,15,41.1,15C154.3,179,168.8,173.3,179.6,164z"/>
								</g>
							</g>
							<g>
								<g>
									<path class="st24" d="M178.6,163.3c-0.2-0.1-0.3-0.2-0.5-0.3c-10.4,8.9-24.3,14.4-39.6,14.4S109.3,172,98.9,163
										c-0.2,0.1-0.3,0.2-0.5,0.3c10.6,9,24.6,14.6,40.1,14.6S168,172.4,178.6,163.3z"/>
								</g>
							</g>
							<g>
								<g>
									<path class="st24" d="M177.6,162.7c-0.2-0.1-0.3-0.2-0.5-0.3c-10.2,8.6-23.7,13.9-38.6,13.9c-14.8,0-28.4-5.3-38.6-13.9
										c-0.2,0.1-0.3,0.2-0.5,0.3c10.3,8.8,24,14.1,39.1,14.1C153.5,176.8,167.2,171.4,177.6,162.7z"/>
								</g>
							</g>
							<g>
								<g>
									<path class="st24" d="M176.5,162c-0.2-0.1-0.3-0.2-0.5-0.3c-10,8.3-23.1,13.4-37.6,13.4c-14.4,0-27.6-5.1-37.6-13.4
										c-0.2,0.1-0.3,0.2-0.5,0.3c10.1,8.5,23.4,13.6,38.1,13.6C153.1,175.7,166.5,170.5,176.5,162z"/>
								</g>
							</g>
							<g>
								<g>
									<path class="st24" d="M175.5,161.4c-0.2-0.1-0.3-0.2-0.5-0.3c-9.7,8-22.5,12.9-36.5,12.9s-26.8-4.9-36.5-12.9
										c-0.2,0.1-0.3,0.2-0.5,0.3c9.8,8.2,22.8,13.2,37.1,13.2C152.7,174.6,165.7,169.6,175.5,161.4z"/>
								</g>
							</g>
							<g>
								<g>
									<path class="st24" d="M174.5,160.8c-0.2-0.1-0.3-0.2-0.5-0.3c-9.5,7.7-21.9,12.4-35.5,12.4s-26-4.7-35.5-12.4
										c-0.2,0.1-0.4,0.2-0.5,0.3c9.6,7.9,22.2,12.7,36,12.7C152.3,173.4,164.9,168.6,174.5,160.8z"/>
								</g>
							</g>
							<g>
								<g>
									<path class="st24" d="M173.4,160.1c-0.2-0.1-0.4-0.2-0.5-0.3c-9.2,7.4-21.3,12-34.4,12c-13.2,0-25.2-4.5-34.4-12
										c-0.2,0.1-0.4,0.2-0.5,0.3c9.4,7.6,21.6,12.2,35,12.2C151.8,172.3,164.1,167.7,173.4,160.1z"/>
								</g>
							</g>
							<g>
								<g>
									<path class="st24" d="M172.4,159.5c-0.2-0.1-0.4-0.2-0.5-0.3c-9,7.1-20.6,11.5-33.4,11.5c-12.7,0-24.4-4.3-33.4-11.5
										c-0.2,0.1-0.4,0.2-0.5,0.3c9.1,7.3,21,11.7,33.9,11.7S163.3,166.8,172.4,159.5z"/>
								</g>
							</g>
							<g>
								<g>
									<path class="st24" d="M171.3,158.9c-0.2-0.1-0.4-0.2-0.5-0.3c-8.7,6.8-20,11-32.3,11s-23.6-4.1-32.3-11
										c-0.2,0.1-0.4,0.2-0.5,0.3c8.9,7,20.3,11.2,32.8,11.2C151,170.1,162.4,165.9,171.3,158.9z"/>
								</g>
							</g>
							<g>
								<g>
									<path class="st24" d="M170.2,158.3c-0.2-0.1-0.4-0.2-0.5-0.3c-8.5,6.5-19.4,10.5-31.2,10.5c-11.9,0-22.7-3.9-31.2-10.5
										c-0.2,0.1-0.4,0.2-0.5,0.3c8.6,6.7,19.7,10.7,31.8,10.7C150.5,169,161.6,165,170.2,158.3z"/>
								</g>
							</g>
							<g>
								<g>
									<path class="st24" d="M169.1,157.7c-0.2-0.1-0.4-0.2-0.5-0.3c-8.2,6.2-18.7,9.9-30.1,9.9s-21.9-3.7-30.1-9.9
										c-0.2,0.1-0.4,0.2-0.5,0.3c8.4,6.4,19,10.2,30.7,10.2C150.1,167.9,160.8,164.1,169.1,157.7z"/>
								</g>
							</g>
							<g>
								<g>
									<path class="st24" d="M168,157.1c-0.2-0.1-0.4-0.2-0.6-0.3c-8,5.9-18.1,9.4-29,9.4c-11,0-21.1-3.5-29-9.4
										c-0.2,0.1-0.4,0.2-0.6,0.3c8.1,6.1,18.4,9.7,29.6,9.7C149.6,166.8,159.9,163.1,168,157.1z"/>
								</g>
							</g>
							<g>
								<g>
									<path class="st24" d="M166.9,156.5c-0.2-0.1-0.4-0.2-0.6-0.3c-7.7,5.6-17.4,8.9-27.9,8.9s-20.2-3.3-27.9-8.9
										c-0.2,0.1-0.4,0.2-0.6,0.3c7.8,5.7,17.7,9.2,28.5,9.2S159.1,162.2,166.9,156.5z"/>
								</g>
							</g>
							<g>
								<g>
									<path class="st24" d="M165.8,155.9c-0.2-0.1-0.3-0.2-0.5-0.2h-0.1c-7.4,5.3-16.7,8.4-26.8,8.4s-19.3-3.1-26.8-8.4h-0.1
										c-0.2,0.1-0.3,0.2-0.5,0.2c7.6,5.4,17.1,8.7,27.3,8.7C148.7,164.6,158.2,161.3,165.8,155.9z"/>
								</g>
							</g>
							<g>
								<g>
									<path class="st24" d="M164.7,155.3c-0.2-0.1-0.4-0.2-0.6-0.3c-7.2,5-16,7.9-25.6,7.9S120,160,112.9,155
										c-0.2,0.1-0.4,0.2-0.6,0.3c7.3,5.1,16.4,8.1,26.2,8.1C148.3,163.4,157.4,160.4,164.7,155.3z"/>
								</g>
							</g>
							<g>
								<g>
									<path class="st24" d="M163.5,154.7c-0.2-0.1-0.4-0.2-0.6-0.3c-6.9,4.6-15.3,7.4-24.5,7.4c-9.1,0-17.6-2.7-24.5-7.4
										c-0.2,0.1-0.4,0.2-0.6,0.3c7,4.8,15.7,7.6,25.1,7.6C147.8,162.3,156.5,159.5,163.5,154.7z"/>
								</g>
							</g>
							<g>
								<g>
									<path class="st24" d="M162.3,154.1c-0.2-0.1-0.4-0.2-0.6-0.3c-6.6,4.3-14.6,6.8-23.3,6.8s-16.7-2.5-23.3-6.8
										c-0.2,0.1-0.4,0.2-0.6,0.3c6.7,4.5,15,7.1,23.9,7.1C147.4,161.2,155.6,158.6,162.3,154.1z"/>
								</g>
							</g>
							<g>
								<g>
									<path class="st24" d="M161.2,153.5c-0.2-0.1-0.4-0.2-0.6-0.3c-6.3,4-13.9,6.3-22.1,6.3c-8.2,0-15.8-2.3-22.1-6.3
										c-0.2,0.1-0.4,0.2-0.6,0.3c6.5,4.1,14.3,6.6,22.7,6.6C146.9,160.1,154.7,157.7,161.2,153.5z"/>
								</g>
							</g>
							<g>
								<g>
									<path class="st24" d="M159.9,153c-0.2-0.1-0.4-0.2-0.6-0.3c-6,3.6-13.2,5.8-20.9,5.8s-14.9-2.1-20.9-5.8
										c-0.2,0.1-0.4,0.2-0.6,0.3c6.2,3.8,13.5,6,21.5,6S153.8,156.8,159.9,153z"/>
								</g>
							</g>
							<g>
								<g>
									<path class="st24" d="M158.7,152.4c-0.2-0.1-0.4-0.2-0.6-0.3c-5.7,3.3-12.4,5.2-19.6,5.2c-7.2,0-13.9-1.9-19.6-5.2
										c-0.2,0.1-0.4,0.2-0.6,0.3c5.9,3.5,12.8,5.5,20.3,5.5C145.9,157.9,152.9,155.9,158.7,152.4z"/>
								</g>
							</g>
							<g>
								<g>
									<path class="st24" d="M157.4,151.8c-0.2-0.1-0.4-0.2-0.6-0.3c-5.4,3-11.6,4.7-18.3,4.7s-13-1.7-18.3-4.7
										c-0.2,0.1-0.4,0.2-0.6,0.3c5.5,3.1,12,5,19,5C145.4,156.8,151.9,155,157.4,151.8z"/>
								</g>
							</g>
							<g>
								<g>
									<path class="st24" d="M156.1,151.2c-0.2-0.1-0.4-0.2-0.7-0.3c-5,2.6-10.8,4.2-17,4.2s-12-1.5-17-4.2
										c-0.2,0.1-0.4,0.2-0.7,0.3c5.2,2.8,11.2,4.4,17.7,4.4C144.9,155.7,150.9,154.1,156.1,151.2z"/>
								</g>
							</g>
							<g>
								<g>
									<path class="st24" d="M154.8,150.7c-0.2-0.1-0.5-0.2-0.7-0.3c-4.7,2.3-10,3.6-15.7,3.6s-11-1.3-15.7-3.6
										c-0.2,0.1-0.5,0.2-0.7,0.3c4.9,2.5,10.4,3.9,16.4,3.9C144.4,154.6,150,153.1,154.8,150.7z"/>
								</g>
							</g>
							<g>
								<g>
									<path class="st24" d="M153.4,150.1c-0.2-0.1-0.5-0.2-0.7-0.3c-4.3,2-9.1,3.1-14.2,3.1c-5.1,0-9.9-1.1-14.2-3.1
										c-0.2,0.1-0.5,0.2-0.7,0.3c4.5,2.1,9.6,3.4,15,3.4C143.8,153.4,148.9,152.2,153.4,150.1z"/>
								</g>
							</g>
							<g>
								<g>
									<path class="st24" d="M152,149.5c-0.3-0.1-0.5-0.2-0.8-0.3c-3.9,1.6-8.2,2.5-12.8,2.5c-4.5,0-8.9-0.9-12.8-2.5
										c-0.2,0.1-0.5,0.2-0.8,0.3c4.1,1.8,8.7,2.8,13.5,2.8C143.3,152.3,147.9,151.3,152,149.5z"/>
								</g>
							</g>
							<g>
								<g>
									<path class="st24" d="M150.4,148.9c-0.3-0.1-0.5-0.2-0.8-0.3c-3.5,1.3-7.2,2-11.2,2c-3.9,0-7.7-0.7-11.2-2
										c-0.3,0.1-0.5,0.2-0.8,0.3c3.7,1.5,7.7,2.3,12,2.3S146.8,150.4,150.4,148.9z"/>
								</g>
							</g>
							<g>
								<g>
									<path class="st24" d="M148.8,148.4c-0.3-0.1-0.6-0.2-0.9-0.3c-3,1-6.1,1.5-9.4,1.5c-3.3,0-6.5-0.5-9.4-1.5
										c-0.3,0.1-0.6,0.2-0.9,0.3c3.2,1.1,6.7,1.7,10.3,1.7C142.1,150.1,145.6,149.5,148.8,148.4z"/>
								</g>
							</g>
							<g>
								<g>
									<path class="st24" d="M147,147.8c-0.3-0.1-0.7-0.2-1-0.3c-2.4,0.6-4.9,1-7.5,1s-5.1-0.3-7.5-1c-0.3,0.1-0.7,0.2-1,0.3
										c2.7,0.8,5.5,1.2,8.5,1.2C141.4,149,144.3,148.6,147,147.8z"/>
								</g>
							</g>
							<g>
								<g>
									<path class="st24" d="M144.9,147.2c-0.4-0.1-0.9-0.2-1.3-0.3c-1.7,0.3-3.4,0.5-5.1,0.5c-1.8,0-3.5-0.2-5.1-0.5
										c-0.4,0.1-0.8,0.2-1.3,0.3c2.1,0.5,4.2,0.7,6.4,0.7C140.7,147.9,142.8,147.6,144.9,147.2z"/>
								</g>
							</g>
							<g>
								<g>
									<path class="st24" d="M142,146.5c-1-0.2-1.9-0.3-2.7-0.3c-0.3,0-0.6,0-0.9,0c-0.3,0-0.6,0-0.9,0c-0.8,0-1.7,0.2-2.7,0.3
										c1.2,0.2,2.4,0.2,3.6,0.2C139.7,146.8,140.9,146.7,142,146.5z"/>
								</g>
							</g>
						</g>
					</g>
				</g>
			</g>
		</g>
	</g>
	<path class="st6" d="M87.9,259.8c0,0-25.3,3.4-33.7,68.5l29.5,12.2c0,0,8.4-34.6,12.5-37.6C100.4,299.9,91.5,258.6,87.9,259.8z"/>
	<path class="st6" d="M201.4,263.2c0,0,26.1,3.1,34.6,68.2l-30.4,12.5c0,0-8.4-34.6-12.5-37.6C189,303.3,197.9,262,201.4,263.2z"/>
	<g>
		<g>
			<path class="st25" d="M163.1,222.6h-54c-16.8,0-30.5-13.7-30.5-30.5V95.9h115v96.2C193.6,208.9,180,222.6,163.1,222.6z"/>
			<path class="st26" d="M185.8,198.7V95.9h-11.2v102.8c0,8.6-3.6,16.3-9.5,22.2c-3.1,1-6.4,1.5-9.9,1.7c0,0,0,0-0.1,0.1h2.5
				c9.1,0,17.4-3,23.7-8.1C184.1,209.8,185.8,204.4,185.8,198.7z"/>
			<path class="st27" d="M209.8,111.2l-145.6,0.3l-0.7-6.1L63.1,96l146-0.7c0,0,0.9,7.5,0.9,9.8
				C210.1,106.6,209.8,111.2,209.8,111.2z"/>
			<g>
				<ellipse class="st0" cx="86.1" cy="103.7" rx="2.9" ry="2.6"/>
				<ellipse class="st0" cx="185.8" cy="103.7" rx="2.9" ry="2.6"/>
			</g>
		</g>
		<g>
			<path class="st0" d="M102.7,99.7h4.9v1.5h-3.1v1.8h2.9v1.5h-2.9v3.3h-1.8V99.7z"/>
			<path class="st0" d="M110.1,105.7l-0.6,2.1h-1.9l2.5-8.1h2.4l2.5,8.1h-2l-0.6-2.1H110.1z M112.2,104.3l-0.5-1.7
				c-0.1-0.5-0.3-1.1-0.4-1.6l0,0c-0.1,0.5-0.2,1.1-0.4,1.6l-0.5,1.7H112.2z"/>
			<path class="st0" d="M121.8,107.6c-0.3,0.2-1.1,0.3-2.1,0.3c-2.8,0-4.2-1.7-4.2-4c0-2.8,2-4.3,4.4-4.3c0.9,0,1.7,0.2,2,0.4
				l-0.4,1.5c-0.4-0.2-0.9-0.3-1.5-0.3c-1.5,0-2.6,0.9-2.6,2.7c0,1.6,1,2.6,2.6,2.6c0.6,0,1.2-0.1,1.5-0.3L121.8,107.6z"/>
			<path class="st0" d="M127.8,104.4h-3v1.9h3.3v1.5H123v-8.1h5v1.5h-3.2v1.7h3V104.4z"/>
			<path class="st0" d="M131.9,105.9c0.5,0.3,1.2,0.5,2,0.5s1.3-0.3,1.3-0.9c0-0.5-0.4-0.8-1.4-1.1c-1.3-0.5-2.2-1.2-2.2-2.4
				c0-1.4,1.2-2.4,3.1-2.4c0.9,0,1.6,0.2,2.1,0.4l-0.4,1.5c-0.3-0.2-0.9-0.4-1.7-0.4s-1.2,0.4-1.2,0.8c0,0.5,0.5,0.7,1.5,1.1
				c1.4,0.5,2.1,1.3,2.1,2.4c0,1.4-1,2.5-3.3,2.5c-0.9,0-1.8-0.2-2.3-0.5L131.9,105.9z"/>
			<path class="st0" d="M140.1,99.7v3.1h3v-3.1h1.8v8.1h-1.8v-3.4h-3v3.4h-1.8v-8.1H140.1z"/>
			<path class="st0" d="M148.4,99.7v8.1h-1.8v-8.1H148.4z"/>
			<path class="st0" d="M154.8,104.4h-3v1.9h3.3v1.5H150v-8.1h5v1.5h-3.2v1.7h3V104.4z"/>
			<path class="st0" d="M156.4,99.7h1.8v6.5h3.2v1.5h-5V99.7z"/>
			<path class="st0" d="M162.5,99.8c0.7-0.1,1.5-0.2,2.5-0.2c1.5,0,2.5,0.3,3.3,0.9s1.4,1.6,1.4,3c0,1.5-0.6,2.6-1.3,3.3
				c-0.9,0.7-2.1,1-3.7,1c-0.9,0-1.6-0.1-2.1-0.1L162.5,99.8L162.5,99.8z M164.3,106.4c0.2,0,0.4,0,0.6,0c1.7,0,2.7-0.9,2.7-2.8
				c0-1.7-1-2.6-2.5-2.6c-0.4,0-0.7,0-0.8,0.1V106.4z"/>
		</g>
	</g>
</g>
</svg>
