<?xml version="1.0" encoding="utf-8"?>
<!-- Generator: Adobe Illustrator 22.1.0, SVG Export Plug-In . SVG Version: 6.00 Build 0)  -->
<svg version="1.1" id="Layer_1" xmlns="http://www.w3.org/2000/svg" xmlns:xlink="http://www.w3.org/1999/xlink" x="0px" y="0px"
	 viewBox="0 0 300.5 821.3" style="enable-background:new 0 0 300.5 821.3;" xml:space="preserve">
<style type="text/css">
	.st0{fill:#FFFFFF;}
	.st1{fill:#22366B;}
	.st2{fill:#18294C;}
	.st3{fill:#22AA66;}
	.st4{fill:#229958;}
	.st5{fill:#24BF77;}
	.st6{fill:#24AA63;}
	.st7{fill:#E3AC81;}
	.st8{fill:#F4A876;}
	.st9{fill:#F8BA8C;}
	.st10{fill:#EBE0DA;}
	.st11{fill:#793B16;}
	.st12{fill:#EADBD8;}
	.st13{fill:#5B2C0B;}
	.st14{fill:#803E19;}
	.st15{fill:#2B96F4;}
	.st16{fill:none;stroke:#FFFFFF;stroke-width:2.27;stroke-linecap:round;stroke-linejoin:round;}
	.st17{fill:none;stroke:#FFFFFF;stroke-width:1.89;stroke-linecap:round;stroke-linejoin:round;}
	.st18{fill:none;stroke:#FFFFFF;stroke-width:0.91;stroke-linecap:round;stroke-linejoin:round;}
	.st19{fill:#209E5F;}
	.st20{opacity:0.39;fill:#FFFFFF;enable-background:new    ;}
	.st21{opacity:0.42;fill:#F9F9F9;enable-background:new    ;}
	.st22{opacity:0.1;}
	.st23{fill:#60D2A5;}
	.st24{fill:#57C193;}
	.st25{fill:#45BF87;}
	.st26{fill:#028251;}
	.st27{fill:#07AF72;}
	.st28{opacity:0.25;}
	.st29{fill:#8DD9B8;}
</style>
<g id="BACKGROUND">
</g>
<g id="OBJECT">
	<g>
		<g>
			<g>
				<g>
					<path class="st0" d="M74.8,816.7c24.4-6.5,45.1-11.1,50-14.3c3.3-2.2-0.1-10.7-0.1-10.7L98.4,778L44,800.8c0,0-1.3,5.4,1,8.6
						C48.9,814.7,62.5,819.9,74.8,816.7z"/>
					<path class="st0" d="M229.8,816.7c-24.4-6.5-45.1-11.1-50-14.3c-3.3-2.2,0.1-10.7,0.1-10.7l26.3-13.7l54.4,22.9
						c0,0,1.3,5.4-1,8.6C255.7,814.7,242.1,819.9,229.8,816.7z"/>
					<path class="st1" d="M230.3,810.8c-24.4-6.5-45.2-11-50-14.3s0-24.9,0-24.9l26.4,0.5c0,0,36.7,21.5,47.3,23.7
						C273.1,799.5,250,815.9,230.3,810.8z"/>
					<path class="st2" d="M259.9,798.2c-5.4,4-13.4,6.2-19.8,5.9c-5.9-0.3-11.4-2.1-16.8-4.4c-5.6-2.3-12.3-4.5-17.3-8
						c-7.2-5.1-10.4-12.9-15.2-19.9l-10.5-0.2c0,0-4.8,21.5,0,24.9c4.8,3.3,25.6,7.9,50,14.3C247,815.2,266.2,804,259.9,798.2z"/>
					<path class="st3" d="M151.2,501.4c6.7,10.5,18.8,58.9,20.7,119.6c2.1,65.5-1.9,157.2,4.8,161.1c11.3,6.4,37.8-3.3,40.1-10.5
						c-0.5-13.9-11.7-207.7-5.3-288.7C174.1,461.1,136,477.4,151.2,501.4z"/>
					<path class="st4" d="M192.4,772.2c-7.8-9.2-7.9-25-9.3-36.4c-2.2-18.1,0.5-35.9-2-54.1c-1.6-11.8-5.7-28.6-0.4-39.9
						c1.9-4,7.4-5.7,10.2-8.7c1.9-2-4.3-3.6-5.5-4.4c-1.7-1-2.9-3.2-3.7-5c-2.3-5.4-1.7-12.5-2.3-18.3c-1.1-9.8-1.9-19.7-2.4-29.5
						c-1.2-22.8,3.6-63-24.2-71.6c6.9,14.8,17.4,60.5,19.2,116.7c2.1,65.5-1.9,157.2,4.8,161.1c8,4.6,23.7,1,32.9-4.1
						C203.3,778.8,197.2,777.9,192.4,772.2z"/>
					<path class="st1" d="M74.8,810.8c24.4-6.5,45.2-11,50-14.3s0-24.9,0-24.9L98.4,772c0,0-36.7,21.5-47.3,23.7
						C32,799.5,55.2,815.9,74.8,810.8z"/>
					<path class="st2" d="M124.8,771.6l-14,0.3c2.4,7.1,0.2,15.5-7.9,19.7c-8.2,4.3-17.6,9-26.6,10.8c-10.1,2.1-20.8-1-31-1.2
						c-0.5,0-0.9-0.1-1.3-0.3c0.2,5.9,16.4,13.7,30.8,9.9c24.4-6.5,45.2-11,50-14.3C129.6,793.1,124.8,771.6,124.8,771.6z"/>
					<path class="st3" d="M148.1,499.5c-6.7,10.5-15.8,60.8-17.7,121.5c-2.1,65.5,3.5,157.2-3.2,161.1c-11.3,6.4-37.8-3.3-40.1-10.5
						c0.5-14.3,9.7-207.4,3.2-288.8C127.8,461,163.3,475.6,148.1,499.5z"/>
					<path class="st4" d="M148.1,499.5c0.5-0.8,0.9-1.5,1.3-2.3c-19.2,13-24.8,40.2-27.1,62.3c-1.6,15.6-0.2,31-1.4,46.5
						c-0.5,6.1-0.9,13.2-5,18.1c-2.6,3.1-5.9,5.3-9.3,7.4c3.5,2.3,7.8,4.3,9.5,8c3.3,7-1.2,11-1,18c0.3,10.1,2.6,20.1,2.6,30.3
						c0,10.3-1.1,20.5-0.9,30.8c0.3,15.1,5.4,33.8-3.4,47.5c-6,9.2-12.5,10.9-21,10.7c8.9,5.6,26.2,10,34.7,5.1
						c6.7-3.8,1.1-95.6,3.2-161.1C132.3,560.3,141.4,510.1,148.1,499.5z"/>
					<path class="st3" d="M91.5,487.8c-1.9-13.9-1.5-34.4,0.6-40.4c2-6,112.9-18.2,116.1-1.7c1.2,0.1,5.7,19.4,3.5,37.1
						C208.4,508.9,94.6,510.7,91.5,487.8z"/>
					<path class="st5" d="M208.1,445.7C189.9,459.6,112,460,92,447.4c-6.7-14.6-2.9-126.5-2.9-126.5S73.4,271.1,77.9,266
						c9.3-10.5,63.5-21.8,63.5-21.8s57.7,12.7,64,21.8c3.1,4.4-5.1,45-2.8,88.9C205.1,401.3,211.9,429.7,208.1,445.7z"/>
					<path class="st6" d="M191.3,327.7c0.5,17.3,3.3,34.2,7.6,51c2.1,8.1,3.8,16.3,5.9,24.4c0.7,2.7,1.7,5.3,2.8,7.9
						c-1.5-14.8-3.8-33.3-5-56.2c-1.4-26.4,1-51.6,2.5-68.5C198,299.3,190.9,313.4,191.3,327.7z"/>
					<path class="st6" d="M151.9,447.5c-25,0.9-44.8-11.7-48.8-24.9c-4-13.1-2.8-69.5-4.6-94.1c-1.2-17-7.5-30.5-18.7-41.2
						c3.5,15.5,9.3,33.7,9.3,33.7S85.3,432.8,92,447.4c14.5,9.2,59.5,11.4,90.1,6.7C171.6,453.7,161.9,447.1,151.9,447.5z"/>
					<path class="st7" d="M166.4,250.4c0,0-7.2,12.7-24.3,12.7s-26.2-12.6-26.2-12.6s3.2-1.2,7.1-6.3c3.9-5.3,4.3-12.4,1.4-37.8
						c-3.7-31.6,28.7-34.2,30.1-6.5c-0.8,32.2,0.3,39.7,4.3,45.4C161.5,249.2,166.4,250.4,166.4,250.4z"/>
					<path class="st8" d="M131.6,243.1c1.1-8.5,10.9-21.6,2.5-29.1c-2.7-2.4-5.9-3.8-9.4-4.7c2.6,23.1,2.1,29.9-1.7,34.9
						c-3.8,5.1-7.1,6.3-7.1,6.3s7.6,8.8,20.4,11.5C132.4,257.2,130.6,250.7,131.6,243.1z"/>
					<path class="st9" d="M209.9,114.7c-2.4-0.4-5.7,0.6-8.8,2.5c0.2-8.6,0.4-17.8,0.5-27.4c0.5-34.4-35.7-51.5-65.7-47.9
						C98.5,46.3,73.2,61.6,74.1,92c0.2,8,0.7,19.3,1.5,31.8c-4.1-2.4-8.5-3.5-11.4-2.5c-7.4,2.4-8.1,11.5-4.1,23.5
						c4.1,12.1,12.7,20.2,19.4,18.2c1.8,12.6,3.9,19.8,7.3,28.1c5.8,14.1,31,34.9,51.8,34.9c25.3,0,50.7-26.9,54.1-38.4
						c2.9-9.8,5-16.6,6.3-29.7c0.2,0.1,0.5,0.2,0.7,0.2c7,1.3,14.7-8,17.2-20.7C219.5,124.9,217.6,116,209.9,114.7z"/>
					<path class="st8" d="M104.1,204.8c-4.8-5.8-10.9-15.3-12.6-22.6c-2.1-8.4-8.5-22.6-8.5-22.6s-16.3-2.8-18.7-16.9
						c-0.3-1.6-4.3-16.9-4.5-18.5c-3.1,4.1-2.8,11.5,0.3,20.5c4.1,12.1,12.7,20.2,19.4,18.2c1.8,12.6,3.9,19.8,7.3,28.1
						c5.2,12.5,25.7,30.4,44.8,34.1C121.1,220.1,111.5,213.9,104.1,204.8z"/>
					<path class="st10" d="M201.5,99c-3.7-10.2-2.4-20-11.2-22.4c-5.7-1.5-31.8,21.1-37.5,19.4c-12.7-3.6-23.3-8.2-33.4-16.8
						c-3.1-2.6-8.8-7.3-12.7-3.4c-2.5,2.5-8.6-2.8-10,0.4c-3.3,7.6-8-2.1-13.3,4.4c-1.6,2-4,13.1-5.9,14.8
						c-2.9,2.6,4.7,23.9,5.1,27.4c0.5,5.6,0.4,11.2,0.3,16.8c0.3-0.3,2.6,2.8,2.9,2.4c4.7-5.8,3.6-17.3,2.3-24.4
						C85.4,102.7,97,91.1,97,91.1s5.1,6.2,13.4,9.9c11.2,5.1,25.6,8.4,39,9.1c17.5,0.9,34.5-11.6,38.1-7.5
						c3.6,4.2,0.8,28.8,0.8,28.8S204.2,106.2,201.5,99z"/>
					<path class="st11" d="M98.8,86c0,0-0.1-25.2-8.2-37.2C84.7,41.5,68,68.9,68,68.9S57.6,85.3,65.3,122
						c17-2.2,17.2,12.3,18.2,21.8c1.7-1.8,4.8-4.8,4.8-4.8s-5.4-12.3-4.9-28.4C85.8,87.4,98.8,86,98.8,86z"/>
					<path class="st11" d="M191.3,86.9c0,0,5.1,19.4,1.5,30.7c-1.6,9.1-4.1,16.6-4.1,16.6l5.3,5.1c0.4-7.7,0.1-21.7,14.3-24.7
						c3.6-9.6-4.3-40.3-4.3-40.3L191.3,86.9z"/>
					<path class="st11" d="M116.2,118.6c-0.5,0.8-4.7-1.8-9.3-1.3c-8.4,0.9-11.6,6.1-11.6,6.1s1.4-9.6,11.6-11.3
						c5.7-1,8.9,0.2,9.9,1.2C117.8,114.3,116.7,117.7,116.2,118.6z"/>
					<path class="st10" d="M118.2,181c2.2,27.6,37.4,27.1,37.4,0H118.2z"/>
					<path class="st12" d="M136.9,160.5c-4.7,0-8.7-2-9.7-4.8c-0.2,0.5-0.3,0.9-0.3,1.4c0,3.4,4.5,6.2,10,6.2s10-2.8,10-6.2
						c0-0.5-0.1-0.9-0.3-1.4C145.6,158.5,141.6,160.5,136.9,160.5z"/>
					<path class="st12" d="M113.9,129.9c0,3.3-2.7,6-6,6s-6-2.7-6-6s2.7-6,6-6C111.2,123.9,113.9,126.6,113.9,129.9z"/>
					<path class="st13" d="M116.2,131.4c0,3.3-2.7,6-6,6s-6-2.7-6-6s2.7-6,6-6C113.5,125.4,116.2,128.1,116.2,131.4z"/>
					<path class="st11" d="M156.1,118.6c0.5,0.8,4.7-1.8,9.3-1.3c8.4,0.9,11.6,6.1,11.6,6.1s-1.4-9.6-11.6-11.3
						c-5.7-1-8.9,0.2-9.9,1.2C154.4,114.3,155.5,117.7,156.1,118.6z"/>
					<path class="st12" d="M158.3,129.9c0,3.3,2.7,6,6,6s6-2.7,6-6s-2.7-6-6-6C161,123.9,158.3,126.6,158.3,129.9z"/>
					<path class="st13" d="M156.1,131.4c0,3.3,2.7,6,6,6s6-2.7,6-6s-2.7-6-6-6C158.8,125.4,156.1,128.1,156.1,131.4z"/>
					<path class="st14" d="M205.5,63.3c0,27.5-15.2,41.5-58.6,41.5c-29.7,0-48.1-18.8-48.1-18.8l-8.2-37.2c0,0-1-7.3,11.3-10.9
						c6.7-1.9,32.7-6.9,53.2-0.8C177,14.7,205.6,38.9,205.5,63.3z"/>
					<polygon class="st11" points="193.2,142.8 187.4,137.4 188.2,135 193.2,140.3 					"/>
					<polygon class="st11" points="83.6,147.7 90,142.3 89.2,139.9 83.6,145.2 					"/>
					<path class="st0" d="M118.2,180.9c2.2,22.3,37.3,21.9,37.3,0H118.2z"/>
				</g>
			</g>
			<path class="st15" d="M112.5,250l-0.1-0.1C112.4,249.9,119.8,247.8,112.5,250z"/>
		</g>
	</g>
	<path class="st9" d="M201.3,295.9c15.6,3.9,21.3,7.6,30.3,75.6v0.3c0.6,8.6-2.8,17-9.4,22.7c-11.3,9.7-30.5,24.2-50.8,30.9
		c-5.4,4.1-11.6,12.1-15.1,14.1s-14.4,3.7-17.1,4.1s-5.8-2-3.5-4.4c-4.1,1-5.5-0.2-5-2.8c-3.1,1.4-7.2-1.1-4.5-4.5
		c-1.6-0.6-4.4-1.7,0.4-5.7c4.8-3.9,10.4-8.7,10.4-8.7s-6.1,0.5-4.4-2.4s12.6-10.5,17.3-10s34.3,7.3,71.8-29
		c-2.9-9.6-10-35.8-10-35.8"/>
	<path class="st10" d="M143.4,406c0,0,3.6-3,7.5-1.9s14.3,5.7,17,8.5s2.7,4.1,1.5,4.9s-2.2,1.2-2.2,1.2l5.5,4.9l-2.3,1.9
		c0,0-24.4,16.3-25.8,15.7c-4.6-1.9-12.8-10.3-12.8-10.3s-5-5.6-5.2-6S143.4,406,143.4,406z"/>
	<path class="st9" d="M89.9,285.2c-16.7,3.6-21.5,15.2-30,83.4v0.3c-0.5,8.6,3.1,16.9,9.7,22.3c12.2,9.9,33.4,25.3,55.7,32.5
		c5.8,4.2,12.6,12.3,16.4,14.5s15.5,4,18.4,4.4s6.2-1.9,3.7-4.4c4.4,1,5.9-0.1,5.3-2.8c3.4,1.4,7.7-1,4.8-4.5
		c1.7-0.5,4.8-1.7-0.5-5.7s-11.3-8.9-11.3-8.9s6.5,0.6,4.7-2.3s-13.6-10.7-18.7-10.4s-31.7,8-72.6-29c2.9-9.5,8.3-51.1,8.3-51.1"/>
	<path class="st9" d="M180.7,422.6l-8-18.9c0,0,44.2-14,44.2-33.1c0-28.2-17.9-55.4-17.9-55.4s-6.9-55.1,6.3-49.7
		s36.4,66.7,36.6,105.5C242.1,408.6,180.7,422.6,180.7,422.6z"/>
	<path class="st9" d="M122.6,425l7.2-21c0,0-46.7-13.8-50.9-34.2c0.4-28.2,12.1-55.6,12.1-55.6s2.4-57-10.3-50.6
		s-38.4,80.7-29.2,118.3C61.8,424.5,122.6,425,122.6,425z"/>
	<line class="st16" x1="188.9" y1="433.9" x2="188.9" y2="442.3"/>
	<line class="st16" x1="193.1" y1="438.1" x2="184.7" y2="438.1"/>
	<line class="st17" x1="142.4" y1="385.3" x2="142.4" y2="392.3"/>
	<line class="st17" x1="145.9" y1="388.8" x2="138.9" y2="388.8"/>
	<circle class="st18" cx="115.7" cy="440" r="2.2"/>
	<path class="st5" d="M87,260.9c0,0-26.2,3.4-35,69.3l30.6,12.3c0,0,8.7-35,13-38S90.7,259.7,87,260.9z"/>
	<path class="st5" d="M201.6,263.5c0,0,26.2,2.4,36.5,67.2l-30,13.3c0,0-9.4-34.3-13.6-37.2C190.3,304,198,262.4,201.6,263.5z"/>
	<path class="st19" d="M207.7,452.5c-36.6,11.8-77.8,11.2-116.6,5.4"/>
	<g>
		<g>
			<path class="st20" d="M161.4,220.9h-54c-16.8,0-30.5-13.7-30.5-30.5V94.2h115v96.2C191.9,207.2,178.3,220.9,161.4,220.9z"/>
			<path class="st21" d="M184.1,197V94.2h-11.2V197c0,8.6-3.6,16.3-9.5,22.2c-3.1,1-6.4,1.5-9.9,1.7c0,0,0,0-0.1,0.1h2.5
				c9.1,0,17.4-3,23.7-8.1C182.4,208.1,184.1,202.7,184.1,197z"/>
			<path class="st15" d="M208.1,109.4l-145.6,0.3l-0.7-6.1l-0.4-9.4l146-0.7c0,0,0.9,7.5,0.9,9.8
				C208.4,104.9,208.1,109.4,208.1,109.4z"/>
			<g>
				<ellipse class="st0" cx="84.4" cy="102" rx="2.9" ry="2.6"/>
				<ellipse class="st0" cx="184.1" cy="102" rx="2.9" ry="2.6"/>
			</g>
		</g>
		<g>
			<path class="st0" d="M101,98h4.9v1.5h-3.1v1.8h2.9v1.5h-2.9v3.3H101V98z"/>
			<path class="st0" d="M108.4,104l-0.6,2.1H106l2.5-8.1h2.4l2.5,8.1h-2l-0.6-2.1H108.4z M110.5,102.6l-0.5-1.7
				c-0.1-0.5-0.3-1.1-0.4-1.6l0,0c-0.1,0.5-0.2,1.1-0.4,1.6l-0.5,1.7H110.5z"/>
			<path class="st0" d="M120.1,105.9c-0.3,0.2-1.1,0.3-2.1,0.3c-2.8,0-4.2-1.7-4.2-4c0-2.8,2-4.3,4.4-4.3c0.9,0,1.7,0.2,2,0.4
				l-0.4,1.5c-0.4-0.2-0.9-0.3-1.5-0.3c-1.5,0-2.6,0.9-2.6,2.7c0,1.6,1,2.6,2.6,2.6c0.6,0,1.2-0.1,1.5-0.3L120.1,105.9z"/>
			<path class="st0" d="M126.1,102.7h-3v1.9h3.3v1.5h-5.2V98h5v1.5H123v1.7h3L126.1,102.7L126.1,102.7z"/>
			<path class="st0" d="M130.2,104.2c0.5,0.3,1.2,0.5,2,0.5s1.3-0.3,1.3-0.9c0-0.5-0.4-0.8-1.4-1.1c-1.3-0.5-2.2-1.2-2.2-2.4
				c0-1.4,1.2-2.4,3.1-2.4c0.9,0,1.6,0.2,2.1,0.4l-0.4,1.5c-0.3-0.2-0.9-0.4-1.7-0.4s-1.2,0.4-1.2,0.8c0,0.5,0.5,0.7,1.5,1.1
				c1.4,0.5,2.1,1.3,2.1,2.4c0,1.4-1,2.5-3.3,2.5c-0.9,0-1.8-0.2-2.3-0.5L130.2,104.2z"/>
			<path class="st0" d="M138.4,98v3.1h3V98h1.8v8.1h-1.8v-3.4h-3v3.4h-1.8V98H138.4z"/>
			<path class="st0" d="M146.7,98v8.1h-1.8V98H146.7z"/>
			<path class="st0" d="M153.1,102.7h-3v1.9h3.3v1.5h-5.2V98h5v1.5H150v1.7h3L153.1,102.7L153.1,102.7z"/>
			<path class="st0" d="M154.7,98h1.8v6.5h3.2v1.5h-5V98z"/>
			<path class="st0" d="M160.8,98.1c0.7-0.1,1.5-0.2,2.5-0.2c1.5,0,2.5,0.3,3.3,0.9s1.4,1.6,1.4,3c0,1.5-0.6,2.6-1.3,3.3
				c-0.9,0.7-2.1,1-3.7,1c-0.9,0-1.6-0.1-2.1-0.1L160.8,98.1L160.8,98.1z M162.6,104.7c0.2,0,0.4,0,0.6,0c1.7,0,2.7-0.9,2.7-2.8
				c0-1.7-1-2.6-2.5-2.6c-0.4,0-0.7,0-0.8,0.1V104.7z"/>
		</g>
	</g>
	<g>
		<path class="st0" d="M199,119.4c0,0-13.8,16.4-15.5,38.8s0.2,4,0.2,4l1.2-2.1C185,160.2,182.1,153.5,199,119.4z"/>
		<path class="st0" d="M97.3,160.2c5.1,7-11.1-28.9-18.3-35.9c-0.8-0.8-1.4,0-1.4,0l0.5,0.6C78,124.9,94.9,156.9,97.3,160.2z"/>
		<path class="st0" d="M198.9,157.5c0,0-8.3,33.8-10.3,37.3s1,1.1,1,1.1S200.6,163.1,198.9,157.5z"/>
		<path class="st0" d="M79.4,162.5c0,0,7.4,30.8,10,31.9c2.5,1.1-2.5,2.2-2.5,2.2S79,170.9,79.4,162.5z"/>
		<g>
			<g>
				<g>
					<g>
						<g>
							<g>
								<path class="st5" d="M190.2,164.7c0-2.6-35.2-24.8-51.9-24.8s-51.9,22.2-51.9,24.8s3.7,13.2,3.7,18s-3.7,15.4-3.7,18
									s35.2,24.8,51.9,24.8s51.9-22.2,51.9-24.8s-3.7-13.2-3.7-18C186.6,178,190.2,167.3,190.2,164.7z"/>
							</g>
						</g>
						<g class="st22">
							<g>
								<g>
									<path class="st0" d="M90.8,201.3c-0.1,0-0.1,0-0.2-0.1c-0.5-0.4-0.9-0.7-1.2-1c-0.1-0.1-0.1-0.2-0.1-0.2
										c0.1-0.4,0.2-0.8,0.3-1.4c0-0.2,0.2-0.3,0.4-0.2c0.2,0,0.3,0.2,0.2,0.3c-0.1,0.5-0.2,0.9-0.3,1.2c0.3,0.2,0.6,0.5,1,0.8
										c0.1,0.1,0.1,0.3,0,0.4C91,201.3,90.9,201.3,90.8,201.3z"/>
								</g>
							</g>
							<g>
								<g>
									<path class="st0" d="M91.5,192.6c-0.2,0-0.3,0.1-0.4,0.2c-0.2,0.7-0.3,1.3-0.5,1.9l-0.2,0.9c0,0.1,0.1,0.3,0.2,0.3
										c0,0,0,0,0.1,0s0.3-0.1,0.3-0.2l0.2-0.9c0.2-0.6,0.3-1.3,0.5-1.9C91.8,192.8,91.7,192.7,91.5,192.6z M92.8,186.9
										c-0.2,0-0.3,0.1-0.4,0.2c-0.2,0.9-0.4,1.8-0.6,2.9c0,0.2,0.1,0.3,0.2,0.4h0.1c0.1,0,0.3-0.1,0.3-0.2c0.3-1.1,0.4-2,0.6-2.9
										C93.1,187,93,186.9,92.8,186.9z M93.5,181.3c0-0.2-0.2-0.3-0.3-0.3c-0.2,0-0.3,0.2-0.3,0.3c0,0.5,0.1,1,0.1,1.4
										s0,0.9-0.1,1.5c0,0.2,0.1,0.3,0.3,0.3l0,0c0.2,0,0.3-0.1,0.3-0.3c0-0.5,0.1-1,0.1-1.5C93.6,182.3,93.5,181.8,93.5,181.3z
										 M92.4,175.4c0-0.1-0.2-0.3-0.4-0.2c-0.2,0-0.3,0.2-0.2,0.3c0.3,1.1,0.5,2,0.6,2.9c0,0.1,0.2,0.2,0.3,0.2l0,0
										c0.2,0,0.3-0.2,0.3-0.3C92.9,177.4,92.7,176.5,92.4,175.4z M91.2,170.5l-0.2-0.9c0-0.1-0.2-0.2-0.4-0.2
										c-0.2,0-0.3,0.2-0.2,0.4l0.2,0.9c0.2,0.6,0.3,1.3,0.5,2c0,0.1,0.2,0.2,0.3,0.2h0.1c0.2,0,0.3-0.2,0.2-0.4
										C91.5,171.9,91.4,171.2,91.2,170.5z"/>
								</g>
							</g>
							<g>
								<g>
									<path class="st0" d="M90,167.1c-0.1,0-0.3-0.1-0.3-0.2c-0.1-0.6-0.2-1.1-0.3-1.4c0-0.1,0-0.2,0.1-0.2
										c0.3-0.3,0.7-0.6,1.2-1c0.1-0.1,0.3-0.1,0.4,0s0.1,0.3,0,0.4c-0.4,0.3-0.8,0.6-1,0.8c0.1,0.3,0.2,0.7,0.3,1.2
										C90.3,167,90.2,167.1,90,167.1L90,167.1z"/>
								</g>
							</g>
							<g>
								<g>
									<path class="st0" d="M95.9,160.9c-0.1-0.1-0.3-0.2-0.4-0.1c-0.9,0.6-1.7,1.2-2.5,1.7c-0.1,0.1-0.2,0.3-0.1,0.4
										c0.1,0.1,0.2,0.1,0.3,0.1c0.1,0,0.1,0,0.2-0.1c0.8-0.5,1.6-1.1,2.5-1.7C96,161.2,96,161,95.9,160.9z M183.7,162.5
										L183.7,162.5c-0.2-0.1-0.3-0.3-0.5-0.4c-0.6-0.4-1.3-0.9-2-1.4c-0.1-0.1-0.3-0.1-0.4,0.1c-0.1,0.1-0.1,0.3,0.1,0.4
										c0.8,0.5,1.6,1.1,2.3,1.6l0.1,0.1c0,0,0.1,0.1,0.2,0.1c0.1,0,0.1,0,0.2-0.1c0,0,0,0,0.1,0
										C183.9,162.8,183.8,162.6,183.7,162.5z M101,157.7c-0.1-0.1-0.3-0.2-0.4-0.1c-0.9,0.5-1.7,1.1-2.6,1.6
										c-0.1,0.1-0.1,0.2-0.1,0.3c0,0,0,0,0,0.1l0,0c0.1,0.1,0.2,0.1,0.3,0.1c0.1,0,0.1,0,0.2,0c0.8-0.5,1.7-1.1,2.5-1.6
										C101.1,158,101.1,157.8,101,157.7z M178.7,159.2c-0.8-0.5-1.7-1.1-2.6-1.6c-0.1-0.1-0.3,0-0.4,0.1c-0.1,0.1,0,0.3,0.1,0.4
										c0.9,0.5,1.7,1.1,2.5,1.6c0.1,0,0.1,0,0.2,0c0.1,0,0.2,0,0.3-0.1C178.9,159.5,178.8,159.3,178.7,159.2z M106.2,154.7
										c-0.1-0.1-0.3-0.2-0.4-0.1c-0.9,0.5-1.8,1-2.6,1.5c-0.1,0.1-0.2,0.3-0.1,0.4c0.1,0.1,0.2,0.1,0.3,0.1c0,0,0.1,0,0.2,0
										c0.9-0.5,1.7-1,2.6-1.5C106.3,155,106.3,154.8,106.2,154.7z M173.6,156.1c-0.9-0.5-1.8-1-2.6-1.5c-0.1-0.1-0.3,0-0.4,0.1
										c-0.1,0.1,0,0.3,0.1,0.4c0.9,0.5,1.8,1,2.6,1.5c0,0,0.1,0.1,0.2,0.1c0.1,0,0.2-0.1,0.3-0.1
										C173.7,156.4,173.7,156.2,173.6,156.1z M111.5,151.9c-0.1-0.1-0.3-0.2-0.4-0.1c-0.7,0.3-1.3,0.7-2,1
										c-0.2,0.1-0.5,0.3-0.7,0.4c-0.1,0.1-0.2,0.3-0.1,0.4c0,0.1,0.2,0.1,0.3,0.1c0.1,0,0.1,0,0.2,0c0.2-0.1,0.5-0.3,0.7-0.4
										c0.7-0.3,1.3-0.7,2-1C111.6,152.2,111.6,152,111.5,151.9z M168.3,153.2c-0.2-0.1-0.5-0.3-0.7-0.4c-0.7-0.3-1.3-0.7-2-1
										c-0.2-0.1-0.3,0-0.4,0.1c-0.1,0.1,0,0.3,0.1,0.4c0.7,0.3,1.3,0.7,2,1c0.2,0.1,0.5,0.2,0.7,0.4c0,0,0.1,0,0.2,0
										c0.1,0,0.2-0.1,0.3-0.1C168.5,153.4,168.4,153.3,168.3,153.2z M117,149.3c-0.1-0.1-0.3-0.2-0.4-0.1
										c-0.9,0.4-1.8,0.8-2.7,1.3c-0.1,0.1-0.2,0.3-0.1,0.4c0.1,0.1,0.2,0.2,0.3,0.2h0.1c0.9-0.4,1.8-0.9,2.7-1.3
										C117,149.6,117,149.4,117,149.3z M162.9,150.4c-0.9-0.5-1.8-0.9-2.7-1.3c-0.2-0.1-0.3,0-0.4,0.1c-0.1,0.1,0,0.3,0.1,0.4
										c0.9,0.4,1.8,0.8,2.7,1.3h0.1c0.1,0,0.2-0.1,0.3-0.2C163.1,150.7,163.1,150.5,162.9,150.4z M122.5,146.9
										c-0.1-0.1-0.3-0.2-0.4-0.1c-0.9,0.4-1.9,0.8-2.8,1.2c-0.2,0.1-0.2,0.2-0.2,0.4c0.1,0.1,0.2,0.2,0.3,0.2c0.1,0,0.1,0,0.1,0
										c0.9-0.4,1.9-0.8,2.8-1.2C122.5,147.2,122.6,147,122.5,146.9z M157.4,147.9c-1-0.4-1.9-0.8-2.8-1.2c-0.2-0.1-0.3,0-0.4,0.1
										c-0.1,0.1,0,0.3,0.2,0.4c0.9,0.4,1.8,0.8,2.8,1.2h0.1c0.1,0,0.2-0.1,0.3-0.2C157.6,148.1,157.6,148,157.4,147.9z
										 M127.8,144.6c-0.9,0.3-1.9,0.6-2.9,1c-0.2,0.1-0.2,0.2-0.2,0.4c0,0.1,0.2,0.2,0.3,0.2h0.1c1-0.4,1.9-0.7,2.8-1
										c0.2-0.1,0.3-0.2,0.2-0.4C128.2,144.7,128,144.6,127.8,144.6z M151.8,145.6c-1-0.4-2-0.7-2.9-1c-0.2-0.1-0.3,0-0.4,0.2
										c-0.1,0.2,0,0.3,0.2,0.4c0.9,0.3,1.9,0.6,2.9,1h0.1c0.1,0,0.2-0.1,0.3-0.2C152,145.9,151.9,145.7,151.8,145.6z
										 M133.7,143.1c-0.9,0.2-1.9,0.4-3,0.7c-0.2,0-0.3,0.2-0.2,0.4c0,0.1,0.2,0.2,0.3,0.2c0,0,0,0,0.1,0c1-0.3,2-0.5,2.9-0.7
										c0.2,0,0.3-0.2,0.2-0.3C134.1,143.1,133.9,143,133.7,143.1z M146,143.8c-1-0.3-2-0.5-3-0.7c-0.2,0-0.3,0.1-0.4,0.2
										c0,0.2,0.1,0.3,0.2,0.3c0.9,0.2,1.9,0.4,3,0.7h0.1c0.1,0,0.3-0.1,0.3-0.2C146.2,144,146.1,143.8,146,143.8z M139.9,142.6
										c-0.5,0-1.1-0.1-1.5-0.1c-0.5,0-1,0-1.6,0.1c-0.2,0-0.3,0.2-0.3,0.3s0.2,0.3,0.3,0.3l0,0c0.5,0,1-0.1,1.5-0.1s1,0,1.5,0.1
										c0.2,0,0.3-0.1,0.3-0.3C140.2,142.8,140.1,142.7,139.9,142.6z"/>
								</g>
							</g>
							<g>
								<g>
									<path class="st0" d="M186.8,167.1C186.7,167.1,186.7,167.1,186.8,167.1c-0.2,0-0.3-0.2-0.3-0.3c0.1-0.5,0.2-0.9,0.3-1.2
										c-0.3-0.2-0.6-0.5-1-0.8c-0.1-0.1-0.1-0.3,0-0.4c0.1-0.1,0.3-0.1,0.4,0c0.5,0.4,0.9,0.7,1.2,1c0.1,0.1,0.1,0.2,0.1,0.2
										c-0.1,0.4-0.2,0.8-0.3,1.4C187,167.1,186.9,167.1,186.8,167.1z"/>
								</g>
							</g>
							<g>
								<g>
									<path class="st0" d="M186.1,194.6c-0.2-0.6-0.3-1.1-0.4-1.7c0-0.2-0.2-0.3-0.4-0.2c-0.2,0-0.3,0.2-0.2,0.4
										c0.1,0.6,0.3,1.1,0.4,1.7l0.3,1.1c0,0.1,0.2,0.2,0.3,0.2c0,0,0,0,0.1,0c0.2,0,0.3-0.2,0.2-0.3L186.1,194.6z M184.3,187.1
										c0-0.2-0.2-0.3-0.4-0.2c-0.2,0-0.3,0.2-0.3,0.3c0.2,0.9,0.4,1.8,0.6,2.9c0,0.1,0.2,0.2,0.3,0.2c0,0,0,0,0.1,0
										c0.2,0,0.3-0.2,0.2-0.3C184.7,188.9,184.5,188,184.3,187.1z M183.9,181.3c0-0.2-0.1-0.3-0.3-0.3s-0.3,0.1-0.3,0.3
										c0,0.5-0.1,1-0.1,1.5s0,1,0.1,1.5c0,0.2,0.2,0.3,0.3,0.3l0,0c0.2,0,0.3-0.1,0.3-0.3c-0.1-0.5-0.1-1-0.1-1.5
										C183.8,182.3,183.8,181.8,183.9,181.3z M184.7,175.2c-0.2,0-0.3,0.1-0.4,0.2c-0.3,1.1-0.5,2-0.6,2.9c0,0.1,0.1,0.3,0.3,0.3
										h0.1c0.1,0,0.3-0.1,0.3-0.2c0.2-0.9,0.4-1.8,0.6-2.9C184.9,175.4,184.8,175.2,184.7,175.2z M186.1,169.4
										c-0.2,0-0.3,0.1-0.4,0.2l-0.3,1c-0.2,0.6-0.3,1.3-0.5,1.9c0,0.2,0.1,0.3,0.2,0.4c0,0,0,0,0.1,0s0.3-0.1,0.3-0.2
										c0.2-0.6,0.3-1.3,0.5-1.9l0.3-1C186.4,169.6,186.3,169.5,186.1,169.4z"/>
								</g>
							</g>
							<g>
								<g>
									<path class="st0" d="M185.9,201.3c-0.1,0-0.2,0-0.2-0.1c-0.1-0.1-0.1-0.3,0-0.4c0.4-0.3,0.8-0.6,1-0.8
										c-0.1-0.3-0.2-0.7-0.3-1.2c0-0.2,0.1-0.3,0.2-0.3c0.2,0,0.3,0.1,0.4,0.2c0.1,0.6,0.2,1.1,0.3,1.4c0,0.1,0,0.2-0.1,0.2
										C186.9,200.6,186.5,200.9,185.9,201.3C186.1,201.3,186,201.3,185.9,201.3z"/>
								</g>
							</g>
							<g>
								<g>
									<path class="st0" d="M139.9,222.3c-0.5,0-1,0.1-1.5,0.1c-0.3,0-0.7,0-1,0c-0.2,0-0.3,0-0.5,0s-0.3,0.1-0.3,0.3
										s0.1,0.3,0.3,0.3s0.3,0,0.5,0c0.4,0,0.7,0,1.1,0c0.5,0,1,0,1.6-0.1c0.2,0,0.3-0.2,0.3-0.3
										C140.2,222.4,140,222.3,139.9,222.3z M133.9,221.9c-0.9-0.2-1.9-0.4-2.9-0.7c-0.2,0-0.3,0-0.4,0.2c0,0.2,0,0.3,0.2,0.4
										c1,0.3,2,0.5,3,0.7h0.1c0.1,0,0.3-0.1,0.3-0.2C134.2,222,134,221.9,133.9,221.9z M145.8,221.2c-1,0.3-2,0.5-2.9,0.7
										c-0.2,0-0.3,0.2-0.2,0.3c0,0.1,0.2,0.2,0.3,0.2h0.1c0.9-0.2,2-0.4,3-0.7c0.2-0.1,0.3-0.2,0.2-0.4
										C146.1,221.2,146,221.1,145.8,221.2z M128,220.3c-0.8-0.2-1.6-0.5-2.4-0.8l0,0c-0.2,0-0.3-0.1-0.5-0.2
										c-0.2-0.1-0.3,0-0.4,0.2s0,0.3,0.2,0.4c0.3,0.1,0.5,0.2,0.8,0.3l0,0c0.7,0.3,1.4,0.5,2.1,0.7h0.1c0.1,0,0.2-0.1,0.3-0.2
										C128.3,220.5,128.2,220.4,128,220.3z M151.6,219.3c-1,0.4-1.9,0.7-2.9,1c-0.2,0.1-0.3,0.2-0.2,0.4c0,0.1,0.2,0.2,0.3,0.2
										h0.1c0.9-0.3,1.9-0.6,2.9-1c0.2-0.1,0.2-0.2,0.2-0.4S151.7,219.3,151.6,219.3z M122.4,218.2c-0.9-0.4-1.8-0.8-2.8-1.2
										c-0.2-0.1-0.3,0-0.4,0.1s0,0.3,0.1,0.4c1,0.4,1.9,0.8,2.8,1.2h0.1c0.1,0,0.2-0.1,0.3-0.2
										C122.6,218.5,122.5,218.3,122.4,218.2z M157.6,217.2c-0.1-0.1-0.3-0.2-0.4-0.1c-0.9,0.4-1.9,0.8-2.8,1.2
										c-0.2,0.1-0.2,0.2-0.2,0.4c0,0.1,0.2,0.2,0.3,0.2h0.1c0.9-0.4,1.8-0.8,2.8-1.2C157.6,217.5,157.6,217.4,157.6,217.2z
										 M116.8,215.8c-0.5-0.2-1-0.5-1.5-0.7l0,0c-0.4-0.2-0.8-0.4-1.2-0.6c-0.2-0.1-0.3,0-0.4,0.1s0,0.3,0.1,0.4
										c0.9,0.5,1.9,0.9,2.7,1.3h0.1c0.1,0,0.2,0,0.2-0.1c0,0,0,0,0.1-0.1C117,216.1,117,215.9,116.8,215.8z M163,214.7
										c-0.1-0.1-0.3-0.2-0.4-0.1c-0.9,0.5-1.8,0.9-2.7,1.3c-0.2,0.1-0.2,0.2-0.1,0.4c0,0.1,0.2,0.2,0.3,0.2h0.1
										c0.9-0.4,1.8-0.8,2.7-1.3C163.1,215,163.1,214.8,163,214.7z M111.4,213.2c-0.7-0.3-1.3-0.7-2-1c-0.2-0.1-0.5-0.2-0.7-0.4
										c-0.1-0.1-0.3,0-0.4,0.1s0,0.3,0.1,0.4c0.2,0.1,0.5,0.3,0.7,0.4c0.7,0.4,1.3,0.7,2,1h0.1c0.1,0,0.2-0.1,0.3-0.1
										C111.6,213.5,111.6,213.3,111.4,213.2z M168.4,211.9c-0.1-0.1-0.3-0.2-0.4-0.1c-0.2,0.1-0.5,0.3-0.7,0.4
										c-0.7,0.4-1.3,0.7-2,1c-0.1,0.1-0.2,0.3-0.1,0.4c0.1,0.1,0.2,0.1,0.3,0.1c0,0,0.1,0,0.2,0c0.6-0.3,1.3-0.7,2-1
										c0.2-0.1,0.5-0.3,0.7-0.4C168.4,212.2,168.5,212.1,168.4,211.9z M106.1,210.4c-0.9-0.5-1.8-1-2.6-1.5
										c-0.1-0.1-0.3,0-0.4,0.1s0,0.3,0.1,0.4c0.9,0.5,1.7,1,2.6,1.5h0.1c0.1,0,0.2,0,0.3-0.1
										C106.3,210.7,106.3,210.5,106.1,210.4z M173.7,209c-0.1-0.1-0.3-0.2-0.4-0.1c-0.9,0.5-1.7,1-2.6,1.5
										c-0.1,0.1-0.2,0.3-0.1,0.4c0.1,0.1,0.2,0.1,0.3,0.1s0.1,0,0.2,0c0.9-0.5,1.8-1,2.6-1.5C173.7,209.3,173.7,209.1,173.7,209z
										 M100.9,207.4c-0.9-0.5-1.7-1-2.5-1.6c-0.1-0.1-0.2-0.1-0.3,0l0,0c0,0-0.1,0-0.1,0.1c-0.1,0.1-0.1,0.3,0.1,0.4
										c0.5,0.3,0.9,0.6,1.4,0.9l0,0l0,0l0,0c0.4,0.2,0.7,0.4,1.1,0.7c0,0,0.1,0,0.2,0s0.2,0,0.3-0.1
										C101.1,207.7,101.1,207.5,100.9,207.4z M178.8,205.9c-0.1-0.1-0.3-0.2-0.4-0.1c-0.8,0.5-1.7,1-2.5,1.6
										c-0.1,0.1-0.2,0.3-0.1,0.4c0.1,0.1,0.2,0.1,0.3,0.1s0.1,0,0.2,0c0.8-0.5,1.6-1,2.4-1.5l0.1-0.1c0.1,0,0.1-0.1,0.1-0.2
										C178.9,206.1,178.8,206,178.8,205.9z M95.9,204.2c-0.9-0.6-1.7-1.1-2.5-1.7c-0.1-0.1-0.3-0.1-0.4,0.1
										c-0.1,0.1-0.1,0.3,0.1,0.4c0.8,0.5,1.6,1.1,2.5,1.7c0.1,0,0.1,0,0.2,0s0.2,0,0.3-0.1C96,204.5,96,204.3,95.9,204.2z
										 M183.8,202.6c-0.1-0.1-0.3-0.1-0.4-0.1c-0.8,0.5-1.6,1.1-2.5,1.7c-0.1,0.1-0.2,0.3-0.1,0.4c0.1,0.1,0.2,0.1,0.3,0.1
										s0.1,0,0.2,0c0.9-0.6,1.7-1.1,2.5-1.7C183.8,202.9,183.9,202.7,183.8,202.6z"/>
								</g>
							</g>
						</g>
						<g>
							<g>
								<path class="st23" d="M138.4,219.8c-5.5,0-15.3-3.5-26.9-9.5c-6.7-3.5-12.4-7-16-9.5c-1.5-1.1-2.2-2.9-1.8-4.6
									c0.1-0.2,0.1-0.4,0.2-0.7c1.1-4.4,2.4-9.4,2.4-12.8c0-3.4-1.3-8.4-2.4-12.8c-0.1-0.2-0.1-0.4-0.2-0.7
									c-0.4-1.7,0.3-3.6,1.8-4.6c3.6-2.5,9.2-6,16-9.5c11.6-6,21.4-9.5,26.9-9.5s15.3,3.5,26.9,9.5c6.7,3.5,12.4,7,16,9.5
									c1.5,1.1,2.2,2.9,1.8,4.6c-0.1,0.2-0.1,0.4-0.2,0.7c-1.1,4.4-2.4,9.4-2.4,12.8c0,3.4,1.3,8.4,2.4,12.8
									c0.1,0.2,0.1,0.4,0.2,0.7c0.4,1.7-0.3,3.6-1.8,4.6c-3.6,2.5-9.2,6-16,9.5C153.7,216.3,143.9,219.8,138.4,219.8z"/>
							</g>
						</g>
						<g>
							<g>
								<g>
									<path class="st24" d="M94.2,169.9c0.1,0.2,0.1,0.5,0.2,0.7c9.6-3.2,24.7-7,43.5-7.1c19.3-0.1,34.7,3.8,44.5,7.1
										c0,0,0.1-0.3,0.1-0.4c0-0.1,0.1-0.2,0.1-0.4l0.2-0.7c0.4-1.6-0.2-3.3-1.7-4.3c-2.1-1.4-7.8-5.2-15.9-9.5
										c-11.5-6-21.3-9.4-26.7-9.4c-5.5,0-15.2,3.4-26.7,9.4c-8.2,4.2-13.9,8-15.9,9.5c-1.4,1-2.1,2.7-1.7,4.3L94.2,169.9z"/>
								</g>
							</g>
							<g>
								<g>
									<path class="st25" d="M94.2,169.9c0.1,0.2,0.1,0.5,0.2,0.7c9.6-3.2,24.7-9.2,43.5-9.3c19.3-0.1,34.7,6,44.5,9.3
										c0,0,0.1-0.3,0.1-0.4c0-0.1,0.1-0.2,0.1-0.4l0.2-0.7c0.4-1.6-0.2-3.3-1.7-4.3c-2.1-1.4-7.8-5.2-15.9-9.5
										c-11.5-6-21.3-9.4-26.7-9.4c-5.5,0-15.2,3.4-26.7,9.4c-8.2,4.2-13.9,8-15.9,9.5c-1.4,1-2.1,2.7-1.7,4.3L94.2,169.9z"/>
								</g>
							</g>
						</g>
						<g>
							<g>
								<g>
									<path class="st26" d="M182.5,195.7c-0.1-0.2-0.1-0.5-0.2-0.7c-9.6,3.2-24.7,7-43.5,7.1c-19.3,0.1-34.7-3.8-44.5-7.1
										c0,0-0.1,0.3-0.1,0.4c0,0.1-0.1,0.2-0.1,0.4l-0.2,0.7c-0.4,1.6,0.2,3.3,1.7,4.3c2.1,1.4,7.8,5.2,15.9,9.5
										c11.5,6,21.3,9.4,26.7,9.4c5.5,0,15.2-3.4,26.7-9.4c8.2-4.2,13.9-8,15.9-9.5c1.4-1,2.1-2.7,1.7-4.3V195.7z"/>
								</g>
							</g>
							<g>
								<g>
									<path class="st27" d="M182.5,195.7c-0.1-0.2-0.1-0.5-0.2-0.7c-9.6,3.2-24.7,9.2-43.5,9.3c-19.3,0.1-34.7-6-44.5-9.3
										c0,0-0.1,0.3-0.1,0.4c0,0.1-0.1,0.2-0.1,0.4l-0.2,0.7c-0.4,1.6,0.2,3.3,1.7,4.3c2.1,1.4,7.8,5.2,15.9,9.5
										c11.5,6,21.3,9.4,26.7,9.4c5.5,0,15.2-3.4,26.7-9.4c8.2-4.2,13.9-8,15.9-9.5c1.4-1,2.1-2.7,1.7-4.3V195.7z"/>
								</g>
							</g>
						</g>
						<g class="st28">
							<g>
								<g>
									<path class="st29" d="M140.3,219.6c1.1-0.1,2.3-0.4,3.6-0.7c-1.9,0.1-3.7,0.1-5.6,0.1c-1.9,0-3.7,0-5.6-0.1
										c1.3,0.3,2.5,0.5,3.6,0.7c0.7,0,1.3,0,2,0S139.7,219.7,140.3,219.6z"/>
								</g>
							</g>
							<g>
								<g>
									<path class="st29" d="M146.6,218.3c0.8-0.2,1.5-0.5,2.3-0.8c-3.5,0.3-7,0.5-10.6,0.5s-7.1-0.2-10.6-0.5
										c0.8,0.3,1.6,0.5,2.3,0.8c2.7,0.2,5.5,0.3,8.2,0.3C141.1,218.6,143.9,218.5,146.6,218.3z"/>
								</g>
							</g>
							<g>
								<g>
									<path class="st29" d="M151.1,216.7c0.7-0.3,1.4-0.5,2.1-0.8c-4.9,0.7-9.8,1-14.9,1c-5.1,0-10-0.4-14.9-1
										c0.7,0.3,1.4,0.6,2.1,0.8c4.2,0.5,8.4,0.7,12.8,0.7C142.7,217.4,146.9,217.2,151.1,216.7z"/>
								</g>
							</g>
							<g>
								<g>
									<path class="st29" d="M155.4,215c0.7-0.3,1.4-0.6,2.1-0.9c-6.2,1.1-12.6,1.7-19.1,1.7s-12.9-0.6-19.1-1.7
										c0.7,0.3,1.4,0.6,2.1,0.9c5.5,0.9,11.2,1.3,17,1.3S149.8,215.9,155.4,215z"/>
								</g>
							</g>
							<g>
								<g>
									<path class="st29" d="M159.6,213.1c0.7-0.3,1.4-0.7,2.1-1c-7.5,1.7-15.3,2.6-23.3,2.6s-15.8-0.9-23.3-2.6
										c0.7,0.4,1.4,0.7,2.1,1c6.8,1.4,13.9,2.1,21.2,2.1C145.6,215.2,152.7,214.5,159.6,213.1z"/>
								</g>
							</g>
							<g>
								<g>
									<path class="st29" d="M163.9,211c0.5-0.2,0.9-0.5,1.4-0.7c0.3-0.2,0.6-0.3,0.9-0.5c-8.8,2.4-18.1,3.7-27.7,3.7
										c-9.6,0-18.9-1.3-27.7-3.7c0.3,0.2,0.6,0.3,0.9,0.5c0.5,0.2,0.9,0.5,1.4,0.7c8.1,2,16.7,3.1,25.5,3.1
										C147.2,214.1,155.7,213,163.9,211z"/>
								</g>
							</g>
							<g>
								<g>
									<path class="st29" d="M168.4,208.6c0.8-0.5,1.6-0.9,2.4-1.4c-10.2,3.4-21.1,5.2-32.5,5.2s-22.3-1.8-32.5-5.2
										c0.8,0.4,1.6,0.9,2.4,1.4c9.5,2.9,19.6,4.4,30.1,4.4C148.9,213,159,211.5,168.4,208.6z"/>
								</g>
							</g>
							<g>
								<g>
									<path class="st29" d="M173.4,205.8c0.9-0.6,1.9-1.1,2.7-1.6c-11.6,4.6-24.4,7.2-37.8,7.2s-26.2-2.6-37.8-7.2
										c0.9,0.5,1.8,1.1,2.7,1.6c10.9,4,22.7,6.1,35,6.1C150.7,211.9,162.5,209.7,173.4,205.8z"/>
								</g>
							</g>
							<g>
								<g>
									<path class="st29" d="M179,202.3c0.8-0.5,1.6-1,2.2-1.5c0.2-0.1,0.3-0.2,0.5-0.4c-13,6.2-27.7,9.8-43.3,9.8
										s-30.3-3.5-43.3-9.8c0.1,0.1,0.3,0.2,0.5,0.4c0.7,0.5,1.4,1,2.2,1.5c12.3,5.4,26.1,8.5,40.6,8.5S166.6,207.7,179,202.3z"/>
								</g>
							</g>
							<g>
								<g>
									<path class="st29" d="M182.5,199.4c0.2-0.3,0.3-0.5,0.4-0.8c-13.2,6.7-28.4,10.5-44.5,10.5s-31.3-3.8-44.5-10.5
										c0.1,0.3,0.2,0.6,0.4,0.8c13.2,6.5,28.2,10.3,44.2,10.3S169.3,206,182.5,199.4z"/>
								</g>
							</g>
							<g>
								<g>
									<path class="st29" d="M183.1,197.9c0-0.2,0-0.4,0-0.7c-13.3,6.9-28.5,10.8-44.8,10.8c-16.2,0-31.5-3.9-44.8-10.8
										c0,0.2,0,0.4,0,0.7c13.3,6.8,28.5,10.7,44.7,10.7C154.6,208.6,169.8,204.7,183.1,197.9z"/>
								</g>
							</g>
							<g>
								<g>
									<path class="st29" d="M183.1,196.6c0-0.1,0-0.3-0.1-0.4c0-0.1,0-0.1,0-0.2c-13.2,6.9-28.4,10.9-44.6,10.9
										s-31.4-4-44.6-10.9c0,0.1,0,0.1,0,0.2c0,0.1-0.1,0.3-0.1,0.4c13.2,6.9,28.5,10.9,44.7,10.9
										C154.6,207.4,169.8,203.5,183.1,196.6z"/>
								</g>
							</g>
							<g>
								<g>
									<path class="st29" d="M182.8,195.5c0-0.2-0.1-0.4-0.1-0.6c-13.1,6.9-28.2,10.9-44.3,10.9s-31.2-4-44.3-10.9
										c0,0.2-0.1,0.4-0.1,0.6c13.1,6.9,28.3,10.9,44.4,10.9C154.5,206.3,169.7,202.4,182.8,195.5z"/>
								</g>
							</g>
							<g>
								<g>
									<path class="st29" d="M182.5,194.3c0-0.2-0.1-0.4-0.1-0.6c-13,6.9-28,10.9-44,10.9s-31-4-44-10.9c0,0.2-0.1,0.4-0.1,0.6
										c13,6.9,28.1,10.9,44.1,10.9S169.5,201.3,182.5,194.3z"/>
								</g>
							</g>
							<g>
								<g>
									<path class="st29" d="M182.2,193.2c0-0.2-0.1-0.4-0.1-0.6c-12.9,6.9-27.8,10.9-43.7,10.9s-30.8-4-43.7-10.9
										c0,0.2-0.1,0.4-0.1,0.6c12.9,6.9,27.9,10.9,43.9,10.9C154.3,204.1,169.3,200.1,182.2,193.2z"/>
								</g>
							</g>
							<g>
								<g>
									<path class="st29" d="M181.9,192.1c0-0.2-0.1-0.4-0.1-0.6c-12.8,6.9-27.6,10.9-43.4,10.9s-30.7-4-43.4-10.9
										c0,0.2-0.1,0.4-0.1,0.6c12.8,6.9,27.7,10.9,43.6,10.9C154.2,203,169.1,199,181.9,192.1z"/>
								</g>
							</g>
							<g>
								<g>
									<path class="st29" d="M181.7,190.9c0-0.2-0.1-0.4-0.1-0.6c-12.7,7-27.4,11-43.2,11c-15.7,0-30.5-4-43.2-11
										c0,0.2-0.1,0.4-0.1,0.6c12.7,7,27.5,11,43.3,11S169,197.9,181.7,190.9z"/>
								</g>
							</g>
							<g>
								<g>
									<path class="st29" d="M181.4,189.8c0-0.2-0.1-0.4-0.1-0.6c-12.6,7-27.2,11-42.9,11s-30.3-4-42.9-11c0,0.2-0.1,0.4-0.1,0.6
										c12.6,7,27.3,11,43,11S168.8,196.8,181.4,189.8z"/>
								</g>
							</g>
							<g>
								<g>
									<path class="st29" d="M181.1,188.6c0-0.2-0.1-0.4-0.1-0.6c-12.5,7-27.1,11.1-42.7,11.1s-30.2-4-42.7-11.1
										c0,0.2-0.1,0.4-0.1,0.6c12.5,7,27.1,11,42.8,11C154,199.7,168.6,195.6,181.1,188.6z"/>
								</g>
							</g>
							<g>
								<g>
									<path class="st29" d="M180.9,187.5c0-0.2-0.1-0.4-0.1-0.6c-12.4,7.1-26.9,11.1-42.4,11.1s-30.1-4.1-42.4-11.1
										c0,0.2-0.1,0.4-0.1,0.6c12.4,7,27,11.1,42.6,11.1C153.9,198.6,168.5,194.5,180.9,187.5z"/>
								</g>
							</g>
							<g>
								<g>
									<path class="st29" d="M180.7,186.3c0-0.2-0.1-0.4-0.1-0.6c-12.3,7.1-26.8,11.2-42.3,11.2s-30-4.1-42.3-11.2
										c0,0.2-0.1,0.4-0.1,0.6c12.3,7.1,26.8,11.2,42.3,11.2C153.9,197.4,168.4,193.4,180.7,186.3z"/>
								</g>
							</g>
							<g>
								<g>
									<path class="st29" d="M180.5,185.1c0-0.2,0-0.4-0.1-0.6c-12.2,7.2-26.6,11.3-42.1,11.3s-29.9-4.2-42.1-11.3
										c0,0.2,0,0.4-0.1,0.6c12.2,7.1,26.7,11.3,42.2,11.3C153.8,196.3,168.3,192.2,180.5,185.1z"/>
								</g>
							</g>
							<g>
								<g>
									<path class="st29" d="M180.4,183.8c0-0.2,0-0.4,0-0.6c-12.1,7.3-26.6,11.5-42,11.5c-15.5,0-29.9-4.2-42-11.5
										c0,0.2,0,0.4,0,0.6c12.2,7.2,26.6,11.4,42.1,11.4C153.8,195.2,168.3,191,180.4,183.8z"/>
								</g>
							</g>
							<g>
								<g>
									<path class="st29" d="M138.4,193.6c-15.5,0-30-4.3-42.1-11.7c0,0.2,0,0.5,0,0.7c12.1,7.3,26.5,11.6,42,11.6
										s29.9-4.3,42-11.6c0-0.2,0-0.4,0-0.7C168.3,189.2,153.9,193.6,138.4,193.6z"/>
								</g>
							</g>
							<g>
								<g>
									<path class="st29" d="M180.5,181.1c0-0.2,0-0.5,0.1-0.7c-12,7.6-26.6,12-42.2,12s-30.1-4.4-42.2-12c0,0.2,0.1,0.5,0.1,0.7
										c12.1,7.5,26.5,11.9,42.1,11.9C153.9,193,168.4,188.6,180.5,181.1z"/>
								</g>
							</g>
							<g>
								<g>
									<path class="st29" d="M180.6,179.7c0-0.2,0.1-0.5,0.1-0.8c-12,7.8-26.6,12.4-42.4,12.4s-30.4-4.6-42.4-12.4
										c0,0.3,0.1,0.5,0.1,0.8c12,7.7,26.6,12.2,42.3,12.2C154,191.9,168.6,187.4,180.6,179.7z"/>
								</g>
							</g>
							<g>
								<g>
									<path class="st29" d="M180.9,178.2c0-0.3,0.1-0.5,0.1-0.8c-12,8.1-26.8,12.8-42.7,12.8s-30.7-4.8-42.7-12.8
										c0.1,0.3,0.1,0.5,0.1,0.8c12,7.9,26.7,12.6,42.5,12.6C154.2,190.8,168.9,186.1,180.9,178.2z"/>
								</g>
							</g>
							<g>
								<g>
									<path class="st29" d="M181.2,176.6c0.1-0.3,0.1-0.5,0.2-0.8c-12,8.4-26.9,13.3-43,13.3s-31-5-43-13.3
										c0.1,0.3,0.1,0.5,0.2,0.8c12,8.2,26.8,13.1,42.8,13.1C154.4,189.7,169.2,184.8,181.2,176.6z"/>
								</g>
							</g>
							<g>
								<g>
									<path class="st29" d="M181.6,174.9c0.1-0.3,0.1-0.6,0.2-0.8c-12,8.7-27,13.9-43.4,13.9S107,182.8,95,174.1
										c0.1,0.3,0.1,0.6,0.2,0.8c12,8.5,27,13.6,43.2,13.6C154.6,188.6,169.6,183.5,181.6,174.9z"/>
								</g>
							</g>
							<g>
								<g>
									<path class="st29" d="M182,173.2c0.1-0.3,0.1-0.6,0.2-0.9c-12,9.1-27.2,14.5-43.8,14.5s-31.9-5.5-43.8-14.5
										c0.1,0.3,0.1,0.6,0.2,0.9c12,8.9,27.1,14.2,43.6,14.2C154.8,187.4,170,182.1,182,173.2z"/>
								</g>
							</g>
							<g>
								<g>
									<path class="st29" d="M182.4,171.5c0.1-0.3,0.2-0.6,0.2-0.9c-11.9,9.5-27.4,15.2-44.3,15.2s-32.4-5.7-44.3-15.2
										c0.1,0.3,0.2,0.6,0.2,0.9c11.9,9.3,27.3,14.9,44.1,14.9C155.1,186.3,170.5,180.7,182.4,171.5z"/>
								</g>
							</g>
							<g>
								<g>
									<path class="st29" d="M182.9,169.6c0-0.1,0.1-0.2,0.1-0.3c0-0.2,0.1-0.4,0.1-0.6c-11.9,9.9-27.5,15.9-44.7,15.9
										s-32.9-6-44.7-15.9c0,0.2,0.1,0.4,0.1,0.6c0,0.1,0.1,0.2,0.1,0.3c11.9,9.7,27.5,15.6,44.5,15.6
										C155.4,185.2,171,179.3,182.9,169.6z"/>
								</g>
							</g>
							<g>
								<g>
									<path class="st29" d="M183.1,168c0-0.2-0.1-0.5-0.1-0.7c-11.7,10.1-27.4,16.3-44.6,16.3s-32.9-6.2-44.6-16.3
										c-0.1,0.2-0.1,0.4-0.1,0.7c11.8,10,27.5,16.2,44.7,16.2S171.3,178,183.1,168z"/>
								</g>
							</g>
							<g>
								<g>
									<path class="st29" d="M182.8,166.7c-0.1-0.2-0.2-0.4-0.3-0.5c-11.6,10.1-27.1,16.3-44.2,16.3s-32.6-6.2-44.2-16.3
										c-0.1,0.2-0.2,0.4-0.3,0.5c11.7,10.1,27.3,16.3,44.5,16.3S171.2,176.8,182.8,166.7z"/>
								</g>
							</g>
							<g>
								<g>
									<path class="st29" d="M182.2,165.7c-0.1-0.2-0.2-0.3-0.4-0.4c-11.4,10-26.7,16.1-43.5,16.1s-32.1-6.1-43.5-16.1
										c-0.1,0.1-0.3,0.3-0.4,0.4c11.5,10,26.9,16.2,43.9,16.2S170.8,175.7,182.2,165.7z"/>
								</g>
							</g>
							<g>
								<g>
									<path class="st29" d="M181.4,164.9c-0.1-0.1-0.2-0.1-0.2-0.2c-0.1-0.1-0.2-0.1-0.2-0.2c-11.1,9.7-26.1,15.7-42.6,15.7
										s-31.5-6-42.6-15.7c-0.1,0.1-0.2,0.1-0.2,0.2c-0.1,0.1-0.2,0.1-0.2,0.2c11.2,9.9,26.4,15.9,43.1,15.9
										C155,180.8,170.2,174.7,181.4,164.9z"/>
								</g>
							</g>
							<g>
								<g>
									<path class="st29" d="M180.5,164.2c-0.2-0.1-0.3-0.2-0.5-0.3c-10.9,9.5-25.5,15.3-41.6,15.3s-30.7-5.8-41.6-15.3
										c-0.2,0.1-0.3,0.2-0.5,0.3c11,9.6,25.8,15.5,42.1,15.5C154.6,179.7,169.4,173.8,180.5,164.2z"/>
								</g>
							</g>
							<g>
								<g>
									<path class="st29" d="M179.5,163.5c-0.2-0.1-0.3-0.2-0.5-0.3c-10.7,9.2-24.9,14.8-40.6,14.8s-29.9-5.6-40.6-14.8
										c-0.2,0.1-0.3,0.2-0.5,0.3c10.8,9.3,25.2,15,41.1,15C154.2,178.6,168.7,172.8,179.5,163.5z"/>
								</g>
							</g>
							<g>
								<g>
									<path class="st29" d="M178.5,162.9c-0.2-0.1-0.3-0.2-0.5-0.3c-10.4,8.9-24.3,14.4-39.6,14.4s-29.2-5.4-39.6-14.4
										c-0.2,0.1-0.3,0.2-0.5,0.3c10.6,9,24.6,14.6,40.1,14.6S167.9,171.9,178.5,162.9z"/>
								</g>
							</g>
							<g>
								<g>
									<path class="st29" d="M177.5,162.2c-0.2-0.1-0.3-0.2-0.5-0.3c-10.2,8.6-23.7,13.9-38.6,13.9c-14.8,0-28.4-5.3-38.6-13.9
										c-0.2,0.1-0.3,0.2-0.5,0.3c10.3,8.8,24,14.1,39.1,14.1C153.4,176.3,167.1,171,177.5,162.2z"/>
								</g>
							</g>
							<g>
								<g>
									<path class="st29" d="M176.4,161.6c-0.2-0.1-0.3-0.2-0.5-0.3c-10,8.3-23.1,13.4-37.6,13.4c-14.4,0-27.6-5.1-37.6-13.4
										c-0.2,0.1-0.3,0.2-0.5,0.3c10.1,8.5,23.4,13.6,38.1,13.6C153,175.2,166.4,170.1,176.4,161.6z"/>
								</g>
							</g>
							<g>
								<g>
									<path class="st29" d="M175.4,160.9c-0.2-0.1-0.3-0.2-0.5-0.3c-9.7,8-22.5,12.9-36.5,12.9s-26.8-4.9-36.5-12.9
										c-0.2,0.1-0.3,0.2-0.5,0.3c9.8,8.2,22.8,13.2,37.1,13.2C152.6,174.1,165.6,169.1,175.4,160.9z"/>
								</g>
							</g>
							<g>
								<g>
									<path class="st29" d="M174.4,160.3c-0.2-0.1-0.3-0.2-0.5-0.3c-9.5,7.7-21.9,12.4-35.5,12.4s-26-4.7-35.5-12.4
										c-0.2,0.1-0.4,0.2-0.5,0.3c9.6,7.9,22.2,12.7,36,12.7S164.8,168.2,174.4,160.3z"/>
								</g>
							</g>
							<g>
								<g>
									<path class="st29" d="M173.3,159.7c-0.2-0.1-0.4-0.2-0.5-0.3c-9.2,7.4-21.3,12-34.4,12c-13.2,0-25.2-4.5-34.4-12
										c-0.2,0.1-0.4,0.2-0.5,0.3c9.4,7.6,21.6,12.2,35,12.2S164,167.3,173.3,159.7z"/>
								</g>
							</g>
							<g>
								<g>
									<path class="st29" d="M172.3,159.1c-0.2-0.1-0.4-0.2-0.5-0.3c-9,7.1-20.6,11.5-33.4,11.5c-12.7,0-24.4-4.3-33.4-11.5
										c-0.2,0.1-0.4,0.2-0.5,0.3c9.1,7.3,21,11.7,33.9,11.7S163.2,166.4,172.3,159.1z"/>
								</g>
							</g>
							<g>
								<g>
									<path class="st29" d="M171.2,158.5c-0.2-0.1-0.4-0.2-0.5-0.3c-8.7,6.8-20,11-32.3,11s-23.6-4.1-32.3-11
										c-0.2,0.1-0.4,0.2-0.5,0.3c8.9,7,20.3,11.2,32.8,11.2S162.3,165.4,171.2,158.5z"/>
								</g>
							</g>
							<g>
								<g>
									<path class="st29" d="M170.1,157.8c-0.2-0.1-0.4-0.2-0.5-0.3c-8.5,6.5-19.4,10.5-31.2,10.5c-11.9,0-22.7-3.9-31.2-10.5
										c-0.2,0.1-0.4,0.2-0.5,0.3c8.6,6.7,19.7,10.7,31.8,10.7C150.4,168.6,161.5,164.5,170.1,157.8z"/>
								</g>
							</g>
							<g>
								<g>
									<path class="st29" d="M169,157.2c-0.2-0.1-0.4-0.2-0.5-0.3c-8.2,6.2-18.7,9.9-30.1,9.9s-21.9-3.7-30.1-9.9
										c-0.2,0.1-0.4,0.2-0.5,0.3c8.4,6.4,19,10.2,30.7,10.2C150,167.4,160.7,163.6,169,157.2z"/>
								</g>
							</g>
							<g>
								<g>
									<path class="st29" d="M167.9,156.6c-0.2-0.1-0.4-0.2-0.6-0.3c-8,5.9-18.1,9.4-29,9.4c-11,0-21.1-3.5-29-9.4
										c-0.2,0.1-0.4,0.2-0.6,0.3c8.1,6.1,18.4,9.7,29.6,9.7C149.6,166.3,159.8,162.7,167.9,156.6z"/>
								</g>
							</g>
							<g>
								<g>
									<path class="st29" d="M166.8,156c-0.2-0.1-0.4-0.2-0.6-0.3c-7.7,5.6-17.4,8.9-27.9,8.9s-20.2-3.3-27.9-8.9
										c-0.2,0.1-0.4,0.2-0.6,0.3c7.8,5.7,17.7,9.2,28.5,9.2S159,161.8,166.8,156z"/>
								</g>
							</g>
							<g>
								<g>
									<path class="st29" d="M165.7,155.4c-0.2-0.1-0.3-0.2-0.5-0.2h-0.1c-7.4,5.3-16.7,8.4-26.8,8.4s-19.3-3.1-26.8-8.4h-0.1
										c-0.2,0.1-0.3,0.2-0.5,0.2c7.6,5.4,17.1,8.7,27.3,8.7C148.7,164.1,158.1,160.9,165.7,155.4z"/>
								</g>
							</g>
							<g>
								<g>
									<path class="st29" d="M164.6,154.9c-0.2-0.1-0.4-0.2-0.6-0.3c-7.2,4.9-16,7.9-25.6,7.9s-18.5-2.9-25.6-7.9
										c-0.2,0.1-0.4,0.2-0.6,0.3c7.3,5.1,16.4,8.1,26.2,8.1S157.3,160,164.6,154.9z"/>
								</g>
							</g>
							<g>
								<g>
									<path class="st29" d="M163.4,154.3c-0.2-0.1-0.4-0.2-0.6-0.3c-6.9,4.6-15.3,7.4-24.5,7.4c-9.1,0-17.6-2.7-24.5-7.4
										c-0.2,0.1-0.4,0.2-0.6,0.3c7,4.8,15.7,7.6,25.1,7.6C147.7,161.9,156.4,159.1,163.4,154.3z"/>
								</g>
							</g>
							<g>
								<g>
									<path class="st29" d="M162.3,153.7c-0.2-0.1-0.4-0.2-0.6-0.3c-6.6,4.3-14.6,6.8-23.3,6.8s-16.7-2.5-23.3-6.8
										c-0.2,0.1-0.4,0.2-0.6,0.3c6.7,4.5,15,7.1,23.9,7.1C147.3,160.8,155.5,158.1,162.3,153.7z"/>
								</g>
							</g>
							<g>
								<g>
									<path class="st29" d="M161.1,153.1c-0.2-0.1-0.4-0.2-0.6-0.3c-6.3,4-13.9,6.3-22.1,6.3c-8.2,0-15.8-2.3-22.1-6.3
										c-0.2,0.1-0.4,0.2-0.6,0.3c6.5,4.1,14.3,6.6,22.7,6.6C146.8,159.7,154.6,157.2,161.1,153.1z"/>
								</g>
							</g>
							<g>
								<g>
									<path class="st29" d="M159.9,152.5c-0.2-0.1-0.4-0.2-0.6-0.3c-6,3.6-13.2,5.8-20.9,5.8s-14.9-2.1-20.9-5.8
										c-0.2,0.1-0.4,0.2-0.6,0.3c6.2,3.8,13.5,6,21.5,6C146.3,158.6,153.7,156.3,159.9,152.5z"/>
								</g>
							</g>
							<g>
								<g>
									<path class="st29" d="M158.6,151.9c-0.2-0.1-0.4-0.2-0.6-0.3c-5.7,3.3-12.4,5.2-19.6,5.2c-7.2,0-13.9-1.9-19.6-5.2
										c-0.2,0.1-0.4,0.2-0.6,0.3c5.9,3.5,12.8,5.5,20.3,5.5C145.8,157.4,152.8,155.4,158.6,151.9z"/>
								</g>
							</g>
							<g>
								<g>
									<path class="st29" d="M157.4,151.4c-0.2-0.1-0.4-0.2-0.6-0.3c-5.4,3-11.6,4.7-18.3,4.7s-13-1.7-18.3-4.7
										c-0.2,0.1-0.4,0.2-0.6,0.3c5.5,3.1,12,5,19,5C145.3,156.3,151.8,154.5,157.4,151.4z"/>
								</g>
							</g>
							<g>
								<g>
									<path class="st29" d="M156.1,150.8c-0.2-0.1-0.4-0.2-0.7-0.3c-5,2.6-10.8,4.2-17,4.2s-12-1.5-17-4.2
										c-0.2,0.1-0.4,0.2-0.7,0.3c5.2,2.8,11.2,4.4,17.7,4.4C144.8,155.2,150.9,153.6,156.1,150.8z"/>
								</g>
							</g>
							<g>
								<g>
									<path class="st29" d="M154.7,150.2c-0.2-0.1-0.5-0.2-0.7-0.3c-4.7,2.3-10,3.6-15.7,3.6s-11-1.3-15.7-3.6
										c-0.2,0.1-0.5,0.2-0.7,0.3c4.9,2.5,10.4,3.9,16.4,3.9C144.3,154.1,149.9,152.7,154.7,150.2z"/>
								</g>
							</g>
							<g>
								<g>
									<path class="st29" d="M153.3,149.6c-0.2-0.1-0.5-0.2-0.7-0.3c-4.3,2-9.1,3.1-14.2,3.1c-5.1,0-9.9-1.1-14.2-3.1
										c-0.2,0.1-0.5,0.2-0.7,0.3c4.5,2.1,9.6,3.4,15,3.4C143.8,153,148.8,151.8,153.3,149.6z"/>
								</g>
							</g>
							<g>
								<g>
									<path class="st29" d="M151.9,149.1c-0.3-0.1-0.5-0.2-0.8-0.3c-3.9,1.6-8.2,2.5-12.8,2.5c-4.5,0-8.9-0.9-12.8-2.5
										c-0.2,0.1-0.5,0.2-0.8,0.3c4.1,1.8,8.7,2.8,13.5,2.8C143.2,151.9,147.8,150.9,151.9,149.1z"/>
								</g>
							</g>
							<g>
								<g>
									<path class="st29" d="M150.3,148.5c-0.3-0.1-0.5-0.2-0.8-0.3c-3.5,1.3-7.2,2-11.2,2c-3.9,0-7.7-0.7-11.2-2
										c-0.3,0.1-0.5,0.2-0.8,0.3c3.7,1.5,7.7,2.3,12,2.3S146.7,150,150.3,148.5z"/>
								</g>
							</g>
							<g>
								<g>
									<path class="st29" d="M148.7,147.9c-0.3-0.1-0.6-0.2-0.9-0.3c-3,1-6.1,1.5-9.4,1.5s-6.5-0.5-9.4-1.5
										c-0.3,0.1-0.6,0.2-0.9,0.3c3.2,1.1,6.7,1.7,10.3,1.7C142,149.7,145.5,149,148.7,147.9z"/>
								</g>
							</g>
							<g>
								<g>
									<path class="st29" d="M146.9,147.3c-0.3-0.1-0.7-0.2-1-0.3c-2.4,0.6-4.9,1-7.5,1s-5.1-0.3-7.5-1c-0.3,0.1-0.7,0.2-1,0.3
										c2.7,0.8,5.5,1.2,8.5,1.2C141.3,148.6,144.2,148.1,146.9,147.3z"/>
								</g>
							</g>
							<g>
								<g>
									<path class="st29" d="M144.8,146.7c-0.4-0.1-0.9-0.2-1.3-0.3c-1.7,0.3-3.4,0.5-5.1,0.5s-3.5-0.2-5.1-0.5
										c-0.4,0.1-0.8,0.2-1.3,0.3c2.1,0.5,4.2,0.7,6.4,0.7C140.6,147.4,142.7,147.2,144.8,146.7z"/>
								</g>
							</g>
							<g>
								<g>
									<path class="st29" d="M142,146.1c-1-0.2-1.9-0.3-2.7-0.3c-0.3,0-0.6,0-0.9,0c-0.3,0-0.6,0-0.9,0c-0.8,0-1.7,0.2-2.7,0.3
										c1.2,0.2,2.4,0.2,3.6,0.2C139.6,146.3,140.8,146.2,142,146.1z"/>
								</g>
							</g>
						</g>
						<g class="st28">
							<g>
								<g>
									<path class="st29" d="M140.3,219.6c1.1-0.1,2.3-0.4,3.6-0.7c-1.9,0.1-3.7,0.1-5.6,0.1c-1.9,0-3.7,0-5.6-0.1
										c1.3,0.3,2.5,0.5,3.6,0.7c0.7,0,1.3,0,2,0S139.7,219.7,140.3,219.6z"/>
								</g>
							</g>
							<g>
								<g>
									<path class="st29" d="M146.6,218.3c0.8-0.2,1.5-0.5,2.3-0.8c-3.5,0.3-7,0.5-10.6,0.5s-7.1-0.2-10.6-0.5
										c0.8,0.3,1.6,0.5,2.3,0.8c2.7,0.2,5.5,0.3,8.2,0.3C141.1,218.6,143.9,218.5,146.6,218.3z"/>
								</g>
							</g>
							<g>
								<g>
									<path class="st29" d="M151.1,216.7c0.7-0.3,1.4-0.5,2.1-0.8c-4.9,0.7-9.8,1-14.9,1c-5.1,0-10-0.4-14.9-1
										c0.7,0.3,1.4,0.6,2.1,0.8c4.2,0.5,8.4,0.7,12.8,0.7C142.7,217.4,146.9,217.2,151.1,216.7z"/>
								</g>
							</g>
							<g>
								<g>
									<path class="st29" d="M155.4,215c0.7-0.3,1.4-0.6,2.1-0.9c-6.2,1.1-12.6,1.7-19.1,1.7s-12.9-0.6-19.1-1.7
										c0.7,0.3,1.4,0.6,2.1,0.9c5.5,0.9,11.2,1.3,17,1.3S149.8,215.9,155.4,215z"/>
								</g>
							</g>
							<g>
								<g>
									<path class="st29" d="M159.6,213.1c0.7-0.3,1.4-0.7,2.1-1c-7.5,1.7-15.3,2.6-23.3,2.6s-15.8-0.9-23.3-2.6
										c0.7,0.4,1.4,0.7,2.1,1c6.8,1.4,13.9,2.1,21.2,2.1C145.6,215.2,152.7,214.5,159.6,213.1z"/>
								</g>
							</g>
							<g>
								<g>
									<path class="st29" d="M163.9,211c0.5-0.2,0.9-0.5,1.4-0.7c0.3-0.2,0.6-0.3,0.9-0.5c-8.8,2.4-18.1,3.7-27.7,3.7
										c-9.6,0-18.9-1.3-27.7-3.7c0.3,0.2,0.6,0.3,0.9,0.5c0.5,0.2,0.9,0.5,1.4,0.7c8.1,2,16.7,3.1,25.5,3.1
										C147.2,214.1,155.7,213,163.9,211z"/>
								</g>
							</g>
							<g>
								<g>
									<path class="st29" d="M168.4,208.6c0.8-0.5,1.6-0.9,2.4-1.4c-10.2,3.4-21.1,5.2-32.5,5.2s-22.3-1.8-32.5-5.2
										c0.8,0.4,1.6,0.9,2.4,1.4c9.5,2.9,19.6,4.4,30.1,4.4C148.9,213,159,211.5,168.4,208.6z"/>
								</g>
							</g>
							<g>
								<g>
									<path class="st29" d="M173.4,205.8c0.9-0.6,1.9-1.1,2.7-1.6c-11.6,4.6-24.4,7.2-37.8,7.2s-26.2-2.6-37.8-7.2
										c0.9,0.5,1.8,1.1,2.7,1.6c10.9,4,22.7,6.1,35,6.1C150.7,211.9,162.5,209.7,173.4,205.8z"/>
								</g>
							</g>
							<g>
								<g>
									<path class="st29" d="M179,202.3c0.8-0.5,1.6-1,2.2-1.5c0.2-0.1,0.3-0.2,0.5-0.4c-13,6.2-27.7,9.8-43.3,9.8
										s-30.3-3.5-43.3-9.8c0.1,0.1,0.3,0.2,0.5,0.4c0.7,0.5,1.4,1,2.2,1.5c12.3,5.4,26.1,8.5,40.6,8.5S166.6,207.7,179,202.3z"/>
								</g>
							</g>
							<g>
								<g>
									<path class="st29" d="M182.5,199.4c0.2-0.3,0.3-0.5,0.4-0.8c-13.2,6.7-28.4,10.5-44.5,10.5s-31.3-3.8-44.5-10.5
										c0.1,0.3,0.2,0.6,0.4,0.8c13.2,6.5,28.2,10.3,44.2,10.3S169.3,206,182.5,199.4z"/>
								</g>
							</g>
							<g>
								<g>
									<path class="st29" d="M183.1,197.9c0-0.2,0-0.4,0-0.7c-13.3,6.9-28.5,10.8-44.8,10.8c-16.2,0-31.5-3.9-44.8-10.8
										c0,0.2,0,0.4,0,0.7c13.3,6.8,28.5,10.7,44.7,10.7C154.6,208.6,169.8,204.7,183.1,197.9z"/>
								</g>
							</g>
							<g>
								<g>
									<path class="st29" d="M183.1,196.6c0-0.1,0-0.3-0.1-0.4c0-0.1,0-0.1,0-0.2c-13.2,6.9-28.4,10.9-44.6,10.9
										s-31.4-4-44.6-10.9c0,0.1,0,0.1,0,0.2c0,0.1-0.1,0.3-0.1,0.4c13.2,6.9,28.5,10.9,44.7,10.9
										C154.6,207.4,169.8,203.5,183.1,196.6z"/>
								</g>
							</g>
							<g>
								<g>
									<path class="st29" d="M182.8,195.5c0-0.2-0.1-0.4-0.1-0.6c-13.1,6.9-28.2,10.9-44.3,10.9s-31.2-4-44.3-10.9
										c0,0.2-0.1,0.4-0.1,0.6c13.1,6.9,28.3,10.9,44.4,10.9C154.5,206.3,169.7,202.4,182.8,195.5z"/>
								</g>
							</g>
							<g>
								<g>
									<path class="st29" d="M182.5,194.3c0-0.2-0.1-0.4-0.1-0.6c-13,6.9-28,10.9-44,10.9s-31-4-44-10.9c0,0.2-0.1,0.4-0.1,0.6
										c13,6.9,28.1,10.9,44.1,10.9S169.5,201.3,182.5,194.3z"/>
								</g>
							</g>
							<g>
								<g>
									<path class="st29" d="M182.2,193.2c0-0.2-0.1-0.4-0.1-0.6c-12.9,6.9-27.8,10.9-43.7,10.9s-30.8-4-43.7-10.9
										c0,0.2-0.1,0.4-0.1,0.6c12.9,6.9,27.9,10.9,43.9,10.9C154.3,204.1,169.3,200.1,182.2,193.2z"/>
								</g>
							</g>
							<g>
								<g>
									<path class="st29" d="M181.9,192.1c0-0.2-0.1-0.4-0.1-0.6c-12.8,6.9-27.6,10.9-43.4,10.9s-30.7-4-43.4-10.9
										c0,0.2-0.1,0.4-0.1,0.6c12.8,6.9,27.7,10.9,43.6,10.9C154.2,203,169.1,199,181.9,192.1z"/>
								</g>
							</g>
							<g>
								<g>
									<path class="st29" d="M181.7,190.9c0-0.2-0.1-0.4-0.1-0.6c-12.7,7-27.4,11-43.2,11c-15.7,0-30.5-4-43.2-11
										c0,0.2-0.1,0.4-0.1,0.6c12.7,7,27.5,11,43.3,11S169,197.9,181.7,190.9z"/>
								</g>
							</g>
							<g>
								<g>
									<path class="st29" d="M181.4,189.8c0-0.2-0.1-0.4-0.1-0.6c-12.6,7-27.2,11-42.9,11s-30.3-4-42.9-11c0,0.2-0.1,0.4-0.1,0.6
										c12.6,7,27.3,11,43,11S168.8,196.8,181.4,189.8z"/>
								</g>
							</g>
							<g>
								<g>
									<path class="st29" d="M181.1,188.6c0-0.2-0.1-0.4-0.1-0.6c-12.5,7-27.1,11.1-42.7,11.1s-30.2-4-42.7-11.1
										c0,0.2-0.1,0.4-0.1,0.6c12.5,7,27.1,11,42.8,11C154,199.7,168.6,195.6,181.1,188.6z"/>
								</g>
							</g>
							<g>
								<g>
									<path class="st29" d="M180.9,187.5c0-0.2-0.1-0.4-0.1-0.6c-12.4,7.1-26.9,11.1-42.4,11.1s-30.1-4.1-42.4-11.1
										c0,0.2-0.1,0.4-0.1,0.6c12.4,7,27,11.1,42.6,11.1C153.9,198.6,168.5,194.5,180.9,187.5z"/>
								</g>
							</g>
							<g>
								<g>
									<path class="st29" d="M180.7,186.3c0-0.2-0.1-0.4-0.1-0.6c-12.3,7.1-26.8,11.2-42.3,11.2s-30-4.1-42.3-11.2
										c0,0.2-0.1,0.4-0.1,0.6c12.3,7.1,26.8,11.2,42.3,11.2C153.9,197.4,168.4,193.4,180.7,186.3z"/>
								</g>
							</g>
							<g>
								<g>
									<path class="st29" d="M180.5,185.1c0-0.2,0-0.4-0.1-0.6c-12.2,7.2-26.6,11.3-42.1,11.3s-29.9-4.2-42.1-11.3
										c0,0.2,0,0.4-0.1,0.6c12.2,7.1,26.7,11.3,42.2,11.3C153.8,196.3,168.3,192.2,180.5,185.1z"/>
								</g>
							</g>
							<g>
								<g>
									<path class="st29" d="M180.4,183.8c0-0.2,0-0.4,0-0.6c-12.1,7.3-26.6,11.5-42,11.5c-15.5,0-29.9-4.2-42-11.5
										c0,0.2,0,0.4,0,0.6c12.2,7.2,26.6,11.4,42.1,11.4C153.8,195.2,168.3,191,180.4,183.8z"/>
								</g>
							</g>
							<g>
								<g>
									<path class="st29" d="M138.4,193.6c-15.5,0-30-4.3-42.1-11.7c0,0.2,0,0.5,0,0.7c12.1,7.3,26.5,11.6,42,11.6
										s29.9-4.3,42-11.6c0-0.2,0-0.4,0-0.7C168.3,189.2,153.9,193.6,138.4,193.6z"/>
								</g>
							</g>
							<g>
								<g>
									<path class="st29" d="M180.5,181.1c0-0.2,0-0.5,0.1-0.7c-12,7.6-26.6,12-42.2,12s-30.1-4.4-42.2-12c0,0.2,0.1,0.5,0.1,0.7
										c12.1,7.5,26.5,11.9,42.1,11.9C153.9,193,168.4,188.6,180.5,181.1z"/>
								</g>
							</g>
							<g>
								<g>
									<path class="st29" d="M180.6,179.7c0-0.2,0.1-0.5,0.1-0.8c-12,7.8-26.6,12.4-42.4,12.4s-30.4-4.6-42.4-12.4
										c0,0.3,0.1,0.5,0.1,0.8c12,7.7,26.6,12.2,42.3,12.2C154,191.9,168.6,187.4,180.6,179.7z"/>
								</g>
							</g>
							<g>
								<g>
									<path class="st29" d="M180.9,178.2c0-0.3,0.1-0.5,0.1-0.8c-12,8.1-26.8,12.8-42.7,12.8s-30.7-4.8-42.7-12.8
										c0.1,0.3,0.1,0.5,0.1,0.8c12,7.9,26.7,12.6,42.5,12.6C154.2,190.8,168.9,186.1,180.9,178.2z"/>
								</g>
							</g>
							<g>
								<g>
									<path class="st29" d="M181.2,176.6c0.1-0.3,0.1-0.5,0.2-0.8c-12,8.4-26.9,13.3-43,13.3s-31-5-43-13.3
										c0.1,0.3,0.1,0.5,0.2,0.8c12,8.2,26.8,13.1,42.8,13.1C154.4,189.7,169.2,184.8,181.2,176.6z"/>
								</g>
							</g>
							<g>
								<g>
									<path class="st29" d="M181.6,174.9c0.1-0.3,0.1-0.6,0.2-0.8c-12,8.7-27,13.9-43.4,13.9S107,182.8,95,174.1
										c0.1,0.3,0.1,0.6,0.2,0.8c12,8.5,27,13.6,43.2,13.6C154.6,188.6,169.6,183.5,181.6,174.9z"/>
								</g>
							</g>
							<g>
								<g>
									<path class="st29" d="M182,173.2c0.1-0.3,0.1-0.6,0.2-0.9c-12,9.1-27.2,14.5-43.8,14.5s-31.9-5.5-43.8-14.5
										c0.1,0.3,0.1,0.6,0.2,0.9c12,8.9,27.1,14.2,43.6,14.2C154.8,187.4,170,182.1,182,173.2z"/>
								</g>
							</g>
							<g>
								<g>
									<path class="st29" d="M182.4,171.5c0.1-0.3,0.2-0.6,0.2-0.9c-11.9,9.5-27.4,15.2-44.3,15.2s-32.4-5.7-44.3-15.2
										c0.1,0.3,0.2,0.6,0.2,0.9c11.9,9.3,27.3,14.9,44.1,14.9C155.1,186.3,170.5,180.7,182.4,171.5z"/>
								</g>
							</g>
							<g>
								<g>
									<path class="st29" d="M182.9,169.6c0-0.1,0.1-0.2,0.1-0.3c0-0.2,0.1-0.4,0.1-0.6c-11.9,9.9-27.5,15.9-44.7,15.9
										s-32.9-6-44.7-15.9c0,0.2,0.1,0.4,0.1,0.6c0,0.1,0.1,0.2,0.1,0.3c11.9,9.7,27.5,15.6,44.5,15.6
										C155.4,185.2,171,179.3,182.9,169.6z"/>
								</g>
							</g>
							<g>
								<g>
									<path class="st29" d="M183.1,168c0-0.2-0.1-0.5-0.1-0.7c-11.7,10.1-27.4,16.3-44.6,16.3s-32.9-6.2-44.6-16.3
										c-0.1,0.2-0.1,0.4-0.1,0.7c11.8,10,27.5,16.2,44.7,16.2S171.3,178,183.1,168z"/>
								</g>
							</g>
							<g>
								<g>
									<path class="st29" d="M182.8,166.7c-0.1-0.2-0.2-0.4-0.3-0.5c-11.6,10.1-27.1,16.3-44.2,16.3s-32.6-6.2-44.2-16.3
										c-0.1,0.2-0.2,0.4-0.3,0.5c11.7,10.1,27.3,16.3,44.5,16.3S171.2,176.8,182.8,166.7z"/>
								</g>
							</g>
							<g>
								<g>
									<path class="st29" d="M182.2,165.7c-0.1-0.2-0.2-0.3-0.4-0.4c-11.4,10-26.7,16.1-43.5,16.1s-32.1-6.1-43.5-16.1
										c-0.1,0.1-0.3,0.3-0.4,0.4c11.5,10,26.9,16.2,43.9,16.2S170.8,175.7,182.2,165.7z"/>
								</g>
							</g>
							<g>
								<g>
									<path class="st29" d="M181.4,164.9c-0.1-0.1-0.2-0.1-0.2-0.2c-0.1-0.1-0.2-0.1-0.2-0.2c-11.1,9.7-26.1,15.7-42.6,15.7
										s-31.5-6-42.6-15.7c-0.1,0.1-0.2,0.1-0.2,0.2c-0.1,0.1-0.2,0.1-0.2,0.2c11.2,9.9,26.4,15.9,43.1,15.9
										C155,180.8,170.2,174.7,181.4,164.9z"/>
								</g>
							</g>
							<g>
								<g>
									<path class="st29" d="M180.5,164.2c-0.2-0.1-0.3-0.2-0.5-0.3c-10.9,9.5-25.5,15.3-41.6,15.3s-30.7-5.8-41.6-15.3
										c-0.2,0.1-0.3,0.2-0.5,0.3c11,9.6,25.8,15.5,42.1,15.5C154.6,179.7,169.4,173.8,180.5,164.2z"/>
								</g>
							</g>
							<g>
								<g>
									<path class="st29" d="M179.5,163.5c-0.2-0.1-0.3-0.2-0.5-0.3c-10.7,9.2-24.9,14.8-40.6,14.8s-29.9-5.6-40.6-14.8
										c-0.2,0.1-0.3,0.2-0.5,0.3c10.8,9.3,25.2,15,41.1,15C154.2,178.6,168.7,172.8,179.5,163.5z"/>
								</g>
							</g>
							<g>
								<g>
									<path class="st29" d="M178.5,162.9c-0.2-0.1-0.3-0.2-0.5-0.3c-10.4,8.9-24.3,14.4-39.6,14.4s-29.2-5.4-39.6-14.4
										c-0.2,0.1-0.3,0.2-0.5,0.3c10.6,9,24.6,14.6,40.1,14.6S167.9,171.9,178.5,162.9z"/>
								</g>
							</g>
							<g>
								<g>
									<path class="st29" d="M177.5,162.2c-0.2-0.1-0.3-0.2-0.5-0.3c-10.2,8.6-23.7,13.9-38.6,13.9c-14.8,0-28.4-5.3-38.6-13.9
										c-0.2,0.1-0.3,0.2-0.5,0.3c10.3,8.8,24,14.1,39.1,14.1C153.4,176.3,167.1,171,177.5,162.2z"/>
								</g>
							</g>
							<g>
								<g>
									<path class="st29" d="M176.4,161.6c-0.2-0.1-0.3-0.2-0.5-0.3c-10,8.3-23.1,13.4-37.6,13.4c-14.4,0-27.6-5.1-37.6-13.4
										c-0.2,0.1-0.3,0.2-0.5,0.3c10.1,8.5,23.4,13.6,38.1,13.6C153,175.2,166.4,170.1,176.4,161.6z"/>
								</g>
							</g>
							<g>
								<g>
									<path class="st29" d="M175.4,160.9c-0.2-0.1-0.3-0.2-0.5-0.3c-9.7,8-22.5,12.9-36.5,12.9s-26.8-4.9-36.5-12.9
										c-0.2,0.1-0.3,0.2-0.5,0.3c9.8,8.2,22.8,13.2,37.1,13.2C152.6,174.1,165.6,169.1,175.4,160.9z"/>
								</g>
							</g>
							<g>
								<g>
									<path class="st29" d="M174.4,160.3c-0.2-0.1-0.3-0.2-0.5-0.3c-9.5,7.7-21.9,12.4-35.5,12.4s-26-4.7-35.5-12.4
										c-0.2,0.1-0.4,0.2-0.5,0.3c9.6,7.9,22.2,12.7,36,12.7S164.8,168.2,174.4,160.3z"/>
								</g>
							</g>
							<g>
								<g>
									<path class="st29" d="M173.3,159.7c-0.2-0.1-0.4-0.2-0.5-0.3c-9.2,7.4-21.3,12-34.4,12c-13.2,0-25.2-4.5-34.4-12
										c-0.2,0.1-0.4,0.2-0.5,0.3c9.4,7.6,21.6,12.2,35,12.2S164,167.3,173.3,159.7z"/>
								</g>
							</g>
							<g>
								<g>
									<path class="st29" d="M172.3,159.1c-0.2-0.1-0.4-0.2-0.5-0.3c-9,7.1-20.6,11.5-33.4,11.5c-12.7,0-24.4-4.3-33.4-11.5
										c-0.2,0.1-0.4,0.2-0.5,0.3c9.1,7.3,21,11.7,33.9,11.7S163.2,166.4,172.3,159.1z"/>
								</g>
							</g>
							<g>
								<g>
									<path class="st29" d="M171.2,158.5c-0.2-0.1-0.4-0.2-0.5-0.3c-8.7,6.8-20,11-32.3,11s-23.6-4.1-32.3-11
										c-0.2,0.1-0.4,0.2-0.5,0.3c8.9,7,20.3,11.2,32.8,11.2S162.3,165.4,171.2,158.5z"/>
								</g>
							</g>
							<g>
								<g>
									<path class="st29" d="M170.1,157.8c-0.2-0.1-0.4-0.2-0.5-0.3c-8.5,6.5-19.4,10.5-31.2,10.5c-11.9,0-22.7-3.9-31.2-10.5
										c-0.2,0.1-0.4,0.2-0.5,0.3c8.6,6.7,19.7,10.7,31.8,10.7C150.4,168.6,161.5,164.5,170.1,157.8z"/>
								</g>
							</g>
							<g>
								<g>
									<path class="st29" d="M169,157.2c-0.2-0.1-0.4-0.2-0.5-0.3c-8.2,6.2-18.7,9.9-30.1,9.9s-21.9-3.7-30.1-9.9
										c-0.2,0.1-0.4,0.2-0.5,0.3c8.4,6.4,19,10.2,30.7,10.2C150,167.4,160.7,163.6,169,157.2z"/>
								</g>
							</g>
							<g>
								<g>
									<path class="st29" d="M167.9,156.6c-0.2-0.1-0.4-0.2-0.6-0.3c-8,5.9-18.1,9.4-29,9.4c-11,0-21.1-3.5-29-9.4
										c-0.2,0.1-0.4,0.2-0.6,0.3c8.1,6.1,18.4,9.7,29.6,9.7C149.6,166.3,159.8,162.7,167.9,156.6z"/>
								</g>
							</g>
							<g>
								<g>
									<path class="st29" d="M166.8,156c-0.2-0.1-0.4-0.2-0.6-0.3c-7.7,5.6-17.4,8.9-27.9,8.9s-20.2-3.3-27.9-8.9
										c-0.2,0.1-0.4,0.2-0.6,0.3c7.8,5.7,17.7,9.2,28.5,9.2S159,161.8,166.8,156z"/>
								</g>
							</g>
							<g>
								<g>
									<path class="st29" d="M165.7,155.4c-0.2-0.1-0.3-0.2-0.5-0.2h-0.1c-7.4,5.3-16.7,8.4-26.8,8.4s-19.3-3.1-26.8-8.4h-0.1
										c-0.2,0.1-0.3,0.2-0.5,0.2c7.6,5.4,17.1,8.7,27.3,8.7C148.7,164.1,158.1,160.9,165.7,155.4z"/>
								</g>
							</g>
							<g>
								<g>
									<path class="st29" d="M164.6,154.9c-0.2-0.1-0.4-0.2-0.6-0.3c-7.2,4.9-16,7.9-25.6,7.9s-18.5-2.9-25.6-7.9
										c-0.2,0.1-0.4,0.2-0.6,0.3c7.3,5.1,16.4,8.1,26.2,8.1S157.3,160,164.6,154.9z"/>
								</g>
							</g>
							<g>
								<g>
									<path class="st29" d="M163.4,154.3c-0.2-0.1-0.4-0.2-0.6-0.3c-6.9,4.6-15.3,7.4-24.5,7.4c-9.1,0-17.6-2.7-24.5-7.4
										c-0.2,0.1-0.4,0.2-0.6,0.3c7,4.8,15.7,7.6,25.1,7.6C147.7,161.9,156.4,159.1,163.4,154.3z"/>
								</g>
							</g>
							<g>
								<g>
									<path class="st29" d="M162.3,153.7c-0.2-0.1-0.4-0.2-0.6-0.3c-6.6,4.3-14.6,6.8-23.3,6.8s-16.7-2.5-23.3-6.8
										c-0.2,0.1-0.4,0.2-0.6,0.3c6.7,4.5,15,7.1,23.9,7.1C147.3,160.8,155.5,158.1,162.3,153.7z"/>
								</g>
							</g>
							<g>
								<g>
									<path class="st29" d="M161.1,153.1c-0.2-0.1-0.4-0.2-0.6-0.3c-6.3,4-13.9,6.3-22.1,6.3c-8.2,0-15.8-2.3-22.1-6.3
										c-0.2,0.1-0.4,0.2-0.6,0.3c6.5,4.1,14.3,6.6,22.7,6.6C146.8,159.7,154.6,157.2,161.1,153.1z"/>
								</g>
							</g>
							<g>
								<g>
									<path class="st29" d="M159.9,152.5c-0.2-0.1-0.4-0.2-0.6-0.3c-6,3.6-13.2,5.8-20.9,5.8s-14.9-2.1-20.9-5.8
										c-0.2,0.1-0.4,0.2-0.6,0.3c6.2,3.8,13.5,6,21.5,6C146.3,158.6,153.7,156.3,159.9,152.5z"/>
								</g>
							</g>
							<g>
								<g>
									<path class="st29" d="M158.6,151.9c-0.2-0.1-0.4-0.2-0.6-0.3c-5.7,3.3-12.4,5.2-19.6,5.2c-7.2,0-13.9-1.9-19.6-5.2
										c-0.2,0.1-0.4,0.2-0.6,0.3c5.9,3.5,12.8,5.5,20.3,5.5C145.8,157.4,152.8,155.4,158.6,151.9z"/>
								</g>
							</g>
							<g>
								<g>
									<path class="st29" d="M157.4,151.4c-0.2-0.1-0.4-0.2-0.6-0.3c-5.4,3-11.6,4.7-18.3,4.7s-13-1.7-18.3-4.7
										c-0.2,0.1-0.4,0.2-0.6,0.3c5.5,3.1,12,5,19,5C145.3,156.3,151.8,154.5,157.4,151.4z"/>
								</g>
							</g>
							<g>
								<g>
									<path class="st29" d="M156.1,150.8c-0.2-0.1-0.4-0.2-0.7-0.3c-5,2.6-10.8,4.2-17,4.2s-12-1.5-17-4.2
										c-0.2,0.1-0.4,0.2-0.7,0.3c5.2,2.8,11.2,4.4,17.7,4.4C144.8,155.2,150.9,153.6,156.1,150.8z"/>
								</g>
							</g>
							<g>
								<g>
									<path class="st29" d="M154.7,150.2c-0.2-0.1-0.5-0.2-0.7-0.3c-4.7,2.3-10,3.6-15.7,3.6s-11-1.3-15.7-3.6
										c-0.2,0.1-0.5,0.2-0.7,0.3c4.9,2.5,10.4,3.9,16.4,3.9C144.3,154.1,149.9,152.7,154.7,150.2z"/>
								</g>
							</g>
							<g>
								<g>
									<path class="st29" d="M153.3,149.6c-0.2-0.1-0.5-0.2-0.7-0.3c-4.3,2-9.1,3.1-14.2,3.1c-5.1,0-9.9-1.1-14.2-3.1
										c-0.2,0.1-0.5,0.2-0.7,0.3c4.5,2.1,9.6,3.4,15,3.4C143.8,153,148.8,151.8,153.3,149.6z"/>
								</g>
							</g>
							<g>
								<g>
									<path class="st29" d="M151.9,149.1c-0.3-0.1-0.5-0.2-0.8-0.3c-3.9,1.6-8.2,2.5-12.8,2.5c-4.5,0-8.9-0.9-12.8-2.5
										c-0.2,0.1-0.5,0.2-0.8,0.3c4.1,1.8,8.7,2.8,13.5,2.8C143.2,151.9,147.8,150.9,151.9,149.1z"/>
								</g>
							</g>
							<g>
								<g>
									<path class="st29" d="M150.3,148.5c-0.3-0.1-0.5-0.2-0.8-0.3c-3.5,1.3-7.2,2-11.2,2c-3.9,0-7.7-0.7-11.2-2
										c-0.3,0.1-0.5,0.2-0.8,0.3c3.7,1.5,7.7,2.3,12,2.3S146.7,150,150.3,148.5z"/>
								</g>
							</g>
							<g>
								<g>
									<path class="st29" d="M148.7,147.9c-0.3-0.1-0.6-0.2-0.9-0.3c-3,1-6.1,1.5-9.4,1.5s-6.5-0.5-9.4-1.5
										c-0.3,0.1-0.6,0.2-0.9,0.3c3.2,1.1,6.7,1.7,10.3,1.7C142,149.7,145.5,149,148.7,147.9z"/>
								</g>
							</g>
							<g>
								<g>
									<path class="st29" d="M146.9,147.3c-0.3-0.1-0.7-0.2-1-0.3c-2.4,0.6-4.9,1-7.5,1s-5.1-0.3-7.5-1c-0.3,0.1-0.7,0.2-1,0.3
										c2.7,0.8,5.5,1.2,8.5,1.2C141.3,148.6,144.2,148.1,146.9,147.3z"/>
								</g>
							</g>
							<g>
								<g>
									<path class="st29" d="M144.8,146.7c-0.4-0.1-0.9-0.2-1.3-0.3c-1.7,0.3-3.4,0.5-5.1,0.5s-3.5-0.2-5.1-0.5
										c-0.4,0.1-0.8,0.2-1.3,0.3c2.1,0.5,4.2,0.7,6.4,0.7C140.6,147.4,142.7,147.2,144.8,146.7z"/>
								</g>
							</g>
							<g>
								<g>
									<path class="st29" d="M142,146.1c-1-0.2-1.9-0.3-2.7-0.3c-0.3,0-0.6,0-0.9,0c-0.3,0-0.6,0-0.9,0c-0.8,0-1.7,0.2-2.7,0.3
										c1.2,0.2,2.4,0.2,3.6,0.2C139.6,146.3,140.8,146.2,142,146.1z"/>
								</g>
							</g>
						</g>
					</g>
				</g>
			</g>
		</g>
	</g>
</g>
</svg>
