<?xml version="1.0" encoding="utf-8"?>
<!-- Generator: Adobe Illustrator 22.1.0, SVG Export Plug-In . SVG Version: 6.00 Build 0)  -->
<svg version="1.1" id="Layer_1" xmlns="http://www.w3.org/2000/svg" xmlns:xlink="http://www.w3.org/1999/xlink" x="0px" y="0px"
	 viewBox="0 0 300.5 821.3" style="enable-background:new 0 0 300.5 821.3;" xml:space="preserve">
<style type="text/css">
	.st0{fill:#FFFFFF;}
	.st1{fill:#22366B;}
	.st2{fill:#18294C;}
	.st3{fill:#22AA66;}
	.st4{fill:#229958;}
	.st5{fill:#24BF77;}
	.st6{fill:#24AA63;}
	.st7{fill:#E3AC81;}
	.st8{fill:#EF9D65;}
	.st9{fill:#F8BA8C;}
	.st10{fill:#793B16;}
	.st11{fill:#5B2C0B;}
	.st12{fill:#803E19;}
	.st13{fill:#209E5F;}
</style>
<g id="BACKGROUND">
</g>
<g id="OBJECT">
	<g>
		<g>
			<g>
				<g>
					<path class="st0" d="M74.8,816.7c24.4-6.5,45.1-11.1,50-14.3c3.3-2.2-0.1-10.7-0.1-10.7L98.4,778L44,800.8c0,0-1.3,5.4,1,8.6
						C48.9,814.7,62.5,819.9,74.8,816.7z"/>
					<path class="st0" d="M229.8,816.7c-24.4-6.5-45.1-11.1-50-14.3c-3.3-2.2,0.1-10.7,0.1-10.7l26.3-13.7l54.4,22.9
						c0,0,1.3,5.4-1,8.6C255.7,814.7,242.1,819.9,229.8,816.7z"/>
					<path class="st1" d="M230.3,810.8c-24.4-6.5-45.2-11-50-14.3s0-24.9,0-24.9l26.4,0.5c0,0,36.7,21.5,47.3,23.7
						C273.1,799.5,250,815.9,230.3,810.8z"/>
					<path class="st2" d="M259.9,798.2c-5.4,4-13.4,6.2-19.8,5.9c-5.9-0.3-11.4-2.1-16.8-4.4c-5.6-2.3-12.3-4.5-17.3-8
						c-7.2-5.1-10.4-12.9-15.2-19.9l-10.5-0.2c0,0-4.8,21.5,0,24.9c4.8,3.3,25.6,7.9,50,14.3C247,815.2,266.2,804,259.9,798.2z"/>
					<path class="st3" d="M151.2,501.4c6.7,10.5,18.8,58.9,20.7,119.6c2.1,65.5-1.9,157.2,4.8,161.1c11.3,6.4,37.8-3.3,40.1-10.5
						c-0.5-13.9-11.7-207.7-5.3-288.7C174.1,461.1,136,477.4,151.2,501.4z"/>
					<path class="st4" d="M192.4,772.2c-7.8-9.2-7.9-25-9.3-36.4c-2.2-18.1,0.5-35.9-2-54.1c-1.6-11.8-5.7-28.6-0.4-39.9
						c1.9-4,7.4-5.7,10.2-8.7c1.9-2-4.3-3.6-5.5-4.4c-1.7-1-2.9-3.2-3.7-5c-2.3-5.4-1.7-12.5-2.3-18.3c-1.1-9.8-1.9-19.7-2.4-29.5
						c-1.2-22.8,3.6-63-24.2-71.6c6.9,14.8,17.4,60.5,19.2,116.7c2.1,65.5-1.9,157.2,4.8,161.1c8,4.6,23.7,1,32.9-4.1
						C203.3,778.8,197.2,777.9,192.4,772.2z"/>
					<path class="st1" d="M74.8,810.8c24.4-6.5,45.2-11,50-14.3s0-24.9,0-24.9L98.4,772c0,0-36.7,21.5-47.3,23.7
						C32,799.5,55.2,815.9,74.8,810.8z"/>
					<path class="st2" d="M124.8,771.6l-14,0.3c2.4,7.1,0.2,15.5-7.9,19.7c-8.2,4.3-17.6,9-26.6,10.8c-10.1,2.1-20.8-1-31-1.2
						c-0.5,0-0.9-0.1-1.3-0.3c0.2,5.9,16.4,13.7,30.8,9.9c24.4-6.5,45.2-11,50-14.3C129.6,793.1,124.8,771.6,124.8,771.6z"/>
					<path class="st3" d="M148.1,499.5c-6.7,10.5-15.8,60.8-17.7,121.5c-2.1,65.5,3.5,157.2-3.2,161.1c-11.3,6.4-37.8-3.3-40.1-10.5
						c0.5-14.3,9.7-207.4,3.2-288.8C127.8,461,163.3,475.6,148.1,499.5z"/>
					<path class="st4" d="M148.1,499.5c0.5-0.8,0.9-1.5,1.3-2.3c-19.2,13-24.8,40.2-27.1,62.3c-1.6,15.6-0.2,31-1.4,46.5
						c-0.5,6.1-0.9,13.2-5,18.1c-2.6,3.1-5.9,5.3-9.3,7.4c3.5,2.3,7.8,4.3,9.5,8c3.3,7-1.2,11-1,18c0.3,10.1,2.6,20.1,2.6,30.3
						c0,10.3-1.1,20.5-0.9,30.8c0.3,15.1,5.4,33.8-3.4,47.5c-6,9.2-12.5,10.9-21,10.7c8.9,5.6,26.2,10,34.7,5.1
						c6.7-3.8,1.1-95.6,3.2-161.1C132.3,560.3,141.4,510.1,148.1,499.5z"/>
					<path class="st3" d="M91.5,487.8c-1.9-13.9-1.5-34.4,0.6-40.4c2-6,112.9-18.2,116.1-1.7c1.2,0.1,5.7,19.4,3.5,37.1
						C208.4,508.9,94.6,510.7,91.5,487.8z"/>
					<path class="st5" d="M208.1,445.7C189.9,459.6,112,460,92,447.4c-6.7-14.6-2.9-126.5-2.9-126.5S73.4,271.1,77.9,266
						c9.3-10.5,63.5-21.8,63.5-21.8s57.7,12.7,64,21.8c3.1,4.4-5.1,45-2.8,88.9C205.1,401.3,211.9,429.7,208.1,445.7z"/>
					<path class="st6" d="M191.3,327.7c0.5,17.3,3.3,34.2,7.6,51c2.1,8.1,3.8,16.3,5.9,24.4c0.7,2.7,1.7,5.3,2.8,7.9
						c-1.5-14.8-3.8-33.3-5-56.2c-1.4-26.4,1-51.6,2.5-68.5C198,299.3,190.9,313.4,191.3,327.7z"/>
					<path class="st6" d="M151.9,447.5c-25,0.9-44.8-11.7-48.8-24.9c-4-13.1-2.8-69.5-4.6-94.1c-1.2-17-7.5-30.5-18.7-41.2
						c3.5,15.5,9.3,33.7,9.3,33.7S85.3,432.8,92,447.4c14.5,9.2,59.5,11.4,90.1,6.7C171.6,453.7,161.9,447.1,151.9,447.5z"/>
					<path class="st7" d="M166.4,250.4c0,0-16.1,16.4-25.3,16.4c-11,0-25.3-16.3-25.3-16.3s3.2-1.2,7.1-6.3
						c3.9-5.3,4.3-12.4,1.4-37.8c-3.7-31.6,28.7-34.2,30.1-6.5c-0.8,32.2,0.3,39.7,4.3,45.4C161.5,249.2,166.4,250.4,166.4,250.4z"
						/>
					<path class="st8" d="M131.6,243.1c1.1-8.5,10.9-21.6,2.5-29.1c-2.7-2.4-5.9-3.8-9.4-4.7c2.6,23.1,2.1,29.9-1.7,34.9
						c-3.8,5.1-7.1,6.3-7.1,6.3s7.9,12.8,20.7,15.5C132.7,261.2,130.6,250.7,131.6,243.1z"/>
					<path class="st9" d="M209.9,114.7c-2.4-0.4-5.7,0.6-8.8,2.5c0.2-8.6,0.4-17.8,0.5-27.4c0.5-34.4-35.7-51.5-65.7-47.9
						C98.5,46.3,73.2,61.6,74.1,92c0.2,8,0.7,19.3,1.5,31.8c-4.1-2.4-8.5-3.5-11.4-2.5c-7.4,2.4-8.1,11.5-4.1,23.5
						c4.1,12.1,12.7,20.2,19.4,18.2c1.8,12.6,3.9,19.8,7.3,28.1c5.8,14.1,31,34.9,51.8,34.9c25.3,0,50.7-26.9,54.1-38.4
						c2.9-9.8,5-16.6,6.3-29.7c0.2,0.1,0.5,0.2,0.7,0.2c7,1.3,14.7-8,17.2-20.7C219.5,124.9,217.6,116,209.9,114.7z"/>
					<path class="st8" d="M104.1,204.8c-4.8-5.8-10.9-15.3-12.6-22.6c-2.1-8.4-8.5-22.6-8.5-22.6s-16.3-2.8-18.7-16.9
						c-0.3-1.6-4.3-16.9-4.5-18.5c-3.1,4.1-2.8,11.5,0.3,20.5c4.1,12.1,12.7,20.2,19.4,18.2c1.8,12.6,3.9,19.8,7.3,28.1
						c5.2,12.5,25.7,30.4,44.8,34.1C121.1,220.1,111.5,213.9,104.1,204.8z"/>
					<path class="st8" d="M201.5,99c-3.7-10.2-2.4-20-11.2-22.4c-5.7-1.5-31.8,21.1-37.5,19.4c-12.7-3.6-23.3-8.2-33.4-16.8
						c-3.1-2.6-8.8-7.3-12.7-3.4c-2.5,2.5-8.6-2.8-10,0.4c-3.3,7.6-8-2.1-13.3,4.4c-1.6,2-4,13.1-5.9,14.8
						c-2.9,2.6,4.7,23.9,5.1,27.4c0.5,5.6,0.4,11.2,0.3,16.8c0.3-0.3,2.6,2.8,2.9,2.4c4.7-5.8,3.6-17.3,2.3-24.4
						C85.4,102.7,97,91.1,97,91.1s5.1,6.2,13.4,9.9c11.2,5.1,25.6,8.4,39,9.1c17.5,0.9,34.5-11.6,38.1-7.5
						c3.6,4.2,0.8,28.8,0.8,28.8S204.2,106.2,201.5,99z"/>
					<path class="st10" d="M98.8,86c0,0-0.1-25.2-8.2-37.2C84.7,41.5,68,68.9,68,68.9S57.6,85.3,65.3,122
						c17-2.2,17.2,12.3,18.2,21.8c1.7-1.8,4.8-4.8,4.8-4.8s-5.4-12.3-4.9-28.4C85.8,87.4,98.8,86,98.8,86z"/>
					<path class="st10" d="M191.3,86.9c0,0,5.1,19.4,1.5,30.7c-1.6,9.1-4.1,16.6-4.1,16.6l5.3,5.1c0.4-7.7,0.1-21.7,14.3-24.7
						c3.6-9.6-4.3-40.3-4.3-40.3L191.3,86.9z"/>
					<path class="st10" d="M116.2,118.6c-0.5,0.8-4.7-1.8-9.3-1.3c-8.4,0.9-11.6,6.1-11.6,6.1s1.4-9.6,11.6-11.3
						c5.7-1,8.9,0.2,9.9,1.2C117.8,114.3,116.7,117.7,116.2,118.6z"/>
					<path class="st8" d="M118.2,181c2.2,27.6,37.4,27.1,37.4,0H118.2z"/>
					<path class="st8" d="M136.9,160.5c-4.7,0-8.7-2-9.7-4.8c-0.2,0.5-0.3,0.9-0.3,1.4c0,3.4,4.5,6.2,10,6.2s10-2.8,10-6.2
						c0-0.5-0.1-0.9-0.3-1.4C145.6,158.5,141.6,160.5,136.9,160.5z"/>
					<path class="st8" d="M113.9,129.9c0,3.3-2.7,6-6,6s-6-2.7-6-6s2.7-6,6-6C111.2,123.9,113.9,126.6,113.9,129.9z"/>
					<path class="st11" d="M116.2,131.4c0,3.3-2.7,6-6,6s-6-2.7-6-6s2.7-6,6-6C113.5,125.4,116.2,128.1,116.2,131.4z"/>
					<path class="st10" d="M156.1,118.6c0.5,0.8,4.7-1.8,9.3-1.3c8.4,0.9,11.6,6.1,11.6,6.1s-1.4-9.6-11.6-11.3
						c-5.7-1-8.9,0.2-9.9,1.2C154.4,114.3,155.5,117.7,156.1,118.6z"/>
					<path class="st8" d="M158.3,129.9c0,3.3,2.7,6,6,6s6-2.7,6-6s-2.7-6-6-6C161,123.9,158.3,126.6,158.3,129.9z"/>
					<path class="st11" d="M156.1,131.4c0,3.3,2.7,6,6,6s6-2.7,6-6s-2.7-6-6-6C158.8,125.4,156.1,128.1,156.1,131.4z"/>
					<path class="st12" d="M205.5,63.3c0,27.5-15.2,41.5-58.6,41.5c-29.7,0-48.1-18.8-48.1-18.8l-8.2-37.2c0,0-1-7.3,11.3-10.9
						c6.7-1.9,32.7-6.9,53.2-0.8C177,14.7,205.6,38.9,205.5,63.3z"/>
					<polygon class="st10" points="193.2,142.8 187.4,137.4 188.2,135 193.2,140.3 					"/>
					<polygon class="st10" points="83.6,147.7 90,142.3 89.2,139.9 83.6,145.2 					"/>
					<path class="st0" d="M118.2,180.9c2.2,22.3,37.3,21.9,37.3,0H118.2z"/>
				</g>
			</g>
		</g>
	</g>
	<g>
		<path class="st9" d="M230.4,497c1.6-5.7-6.4-26.4-11.2-26.3c-4,0.1-10.4,16.1-10.2,23.7c1.6,0.9,2.7,3.9,3.3,5.4
			C213,501.4,228.8,502.7,230.4,497z"/>
		<path class="st9" d="M218,516.4c-0.3-4.1-0.7-10.6-0.6-16.3c1.3-0.1,2.6-0.4,3.9-0.8c0.8,5.3,1.2,12,1.4,16c0.3,5.8-0.5,8.8-2,9
			C219.2,524.5,218.4,521.8,218,516.4z"/>
		<path class="st9" d="M223.6,514.2c-0.6-3.9-1.4-9.9-1.6-15.3c1.3-0.1,2.9-0.6,4.1-1.1c1.1,4.9,1.5,11.4,2,15.2
			c0.7,5.5,0.1,8.3-1.4,8.5C225.4,521.7,224.4,519.2,223.6,514.2z"/>
		<path class="st9" d="M228.3,510.5c-0.5-3.3-1.2-8.5-1.3-13c1.1-0.1,2.5-0.5,3.5-0.9c1,4.2,1.3,9.7,1.7,13c0.6,4.7,0.1,7.1-1.2,7.3
			C229.7,516.9,228.9,514.8,228.3,510.5z"/>
		<path class="st9" d="M211.8,514.6c0.1-3.9,0.1-11.4,0.8-16.7c1.3,0.1,3.2,1.3,4.4,1c0.3,5-0.4,11.5-0.6,15.3
			c-0.2,5.5-1.3,8.2-2.8,8.2C212.3,522.3,211.7,519.6,211.8,514.6z"/>
		<path class="st9" d="M202.8,493c3.1-2.4,5.7-11,10.3-13.7c0.7,1.1,4.2,6.5,5.2,7.3c-3.8,3.3-8.3,7.2-11.4,9.4
			c-4.5,3.1-8.2,1.9-9.1,0.7C197.1,495.6,201.3,494.2,202.8,493z"/>
	</g>
	<path class="st9" d="M228.2,481.9l-17-2.4c0,0,10-84.7,5.4-109.7c-5.1-27.7-17.9-55.3-17.9-55.3s-6.9-55.1,6.3-49.7
		s34.7,66.8,38.5,105.3C246.3,399.8,228.2,481.9,228.2,481.9z"/>
	<g>
		<path class="st9" d="M73.8,498c-2-5.5,4.2-26.8,9-27.1c4-0.2,11.7,15.3,12.1,22.8c-1.5,1-2.4,4.1-2.9,5.7
			C91.4,500.9,75.8,503.5,73.8,498z"/>
		<path class="st9" d="M87.7,516.3c0-4.1-0.1-10.7-0.7-16.3c-1.3,0-2.6-0.1-3.9-0.5c-0.4,5.3-0.2,12-0.1,16.1
			c0.1,5.9,1.2,8.8,2.8,8.8C87.1,524.5,87.7,521.7,87.7,516.3z"/>
		<path class="st9" d="M81.9,514.6c0.3-3.9,0.5-10,0.3-15.3c-1.3,0-3-0.4-4.2-0.8c-0.7,5-0.6,11.5-0.7,15.3
			c-0.2,5.5,0.6,8.3,2.1,8.4C80.7,522.2,81.5,519.6,81.9,514.6z"/>
		<path class="st9" d="M76.9,511.3c0.2-3.3,0.5-8.5,0.3-13.1c-1.1,0-2.5-0.3-3.6-0.7c-0.6,4.3-0.5,9.8-0.6,13
			c-0.2,4.7,0.5,7.1,1.8,7.1C76,517.8,76.7,515.6,76.9,511.3z"/>
		<path class="st9" d="M93.7,514c-0.4-3.9-1-11.4-2.1-16.6c-1.3,0.2-3.1,1.5-4.3,1.4c0.1,5,1.3,11.4,1.8,15.2c0.7,5.5,2,8.1,3.5,7.9
			C93.8,521.7,94.2,519,93.7,514z"/>
		<path class="st9" d="M100.8,491.7c-3.2-2.2-6.6-10.5-11.4-12.8c-0.6,1.2-3.7,6.8-4.6,7.7c4.1,3,8.8,6.5,12.1,8.4
			c4.8,2.8,8.3,1.3,9.1,0C106.8,493.9,102.5,492.8,100.8,491.7z"/>
	</g>
	<path class="st9" d="M74.7,482.7l16.8-3.8c0,0-12.9-83.3-10.3-108.6c2.9-28,9.4-56.9,9.4-56.9s1.3-55.2-11.3-48.7
		c-12.7,6.5-26.2,69.1-26.9,107.8C51.9,402.4,74.7,482.7,74.7,482.7z"/>
	<path class="st5" d="M88.9,259.2c0,0-26.2,3.4-35,69.3l30.6,12.3c0,0,8.7-35,13-38S92.6,258,88.9,259.2z"/>
	<path class="st5" d="M201.7,263.6c0,0,26.1,3.1,34.6,68.2l-30.4,12.5c0,0-8.4-34.6-12.5-37.6C189.2,303.7,198.2,262.5,201.7,263.6z
		"/>
	<path class="st13" d="M210,449.2c-36.6,11.8-77.8,11.2-116.6,5.4"/>
</g>
<path class="st6" d="M111.3,251.7c0,0,17.7,17.6,24.4,19.3c6.7,1.7,25.5-7.1,34.3-19.3l-3.6-1.3c0,0-15.1,15.8-24.2,15.6
	c-9.2-0.2-20-8.2-27.2-15.6L111.3,251.7z"/>
</svg>
