<?xml version="1.0" encoding="utf-8"?>
<!-- Generator: Adobe Illustrator 22.1.0, SVG Export Plug-In . SVG Version: 6.00 Build 0)  -->
<svg version="1.1" id="Layer_1" xmlns="http://www.w3.org/2000/svg" xmlns:xlink="http://www.w3.org/1999/xlink" x="0px" y="0px"
	 viewBox="0 0 300.5 821.3" style="enable-background:new 0 0 300.5 821.3;" xml:space="preserve">
<style type="text/css">
	.st0{fill:#FFFFFF;}
	.st1{fill:#22366B;}
	.st2{fill:#18294C;}
	.st3{fill:#22AA66;}
	.st4{fill:#229958;}
	.st5{fill:#24BF77;}
	.st6{fill:#24AA63;}
	.st7{fill:#E3AC81;}
	.st8{fill:#F4A876;}
	.st9{fill:#F8BA8C;}
	.st10{fill:#793B16;}
	.st11{fill:#5B2C0B;}
	.st12{fill:#803E19;}
	.st13{fill:#EBE0DA;}
	.st14{fill:none;stroke:#FFFFFF;stroke-width:2.27;stroke-linecap:round;stroke-linejoin:round;}
	.st15{fill:none;stroke:#FFFFFF;stroke-width:1.89;stroke-linecap:round;stroke-linejoin:round;}
	.st16{fill:none;stroke:#FFFFFF;stroke-width:0.91;stroke-linecap:round;stroke-linejoin:round;}
	.st17{fill:#209E5F;}
</style>
<g id="BACKGROUND">
</g>
<g id="OBJECT">
	<g>
		<g>
			<g>
				<g>
					<path class="st0" d="M74.8,816.7c24.4-6.5,45.1-11.1,50-14.3c3.3-2.2-0.1-10.7-0.1-10.7L98.4,778L44,800.8c0,0-1.3,5.4,1,8.6
						C48.9,814.7,62.5,819.9,74.8,816.7z"/>
					<path class="st0" d="M229.8,816.7c-24.4-6.5-45.1-11.1-50-14.3c-3.3-2.2,0.1-10.7,0.1-10.7l26.3-13.7l54.4,22.9
						c0,0,1.3,5.4-1,8.6C255.7,814.7,242.1,819.9,229.8,816.7z"/>
					<path class="st1" d="M230.3,810.8c-24.4-6.5-45.2-11-50-14.3s0-24.9,0-24.9l26.4,0.5c0,0,36.7,21.5,47.3,23.7
						C273.1,799.5,250,815.9,230.3,810.8z"/>
					<path class="st2" d="M259.9,798.2c-5.4,4-13.4,6.2-19.8,5.9c-5.9-0.3-11.4-2.1-16.8-4.4c-5.6-2.3-12.3-4.5-17.3-8
						c-7.2-5.1-10.4-12.9-15.2-19.9l-10.5-0.2c0,0-4.8,21.5,0,24.9c4.8,3.3,25.6,7.9,50,14.3C247,815.2,266.2,804,259.9,798.2z"/>
					<path class="st3" d="M151.2,501.4c6.7,10.5,18.8,58.9,20.7,119.6c2.1,65.5-1.9,157.2,4.8,161.1c11.3,6.4,37.8-3.3,40.1-10.5
						c-0.5-13.9-11.7-207.7-5.3-288.7C174.1,461.1,136,477.4,151.2,501.4z"/>
					<path class="st4" d="M192.4,772.2c-7.8-9.2-7.9-25-9.3-36.4c-2.2-18.1,0.5-35.9-2-54.1c-1.6-11.8-5.7-28.6-0.4-39.9
						c1.9-4,7.4-5.7,10.2-8.7c1.9-2-4.3-3.6-5.5-4.4c-1.7-1-2.9-3.2-3.7-5c-2.3-5.4-1.7-12.5-2.3-18.3c-1.1-9.8-1.9-19.7-2.4-29.5
						c-1.2-22.8,3.6-63-24.2-71.6c6.9,14.8,17.4,60.5,19.2,116.7c2.1,65.5-1.9,157.2,4.8,161.1c8,4.6,23.7,1,32.9-4.1
						C203.3,778.8,197.2,777.9,192.4,772.2z"/>
					<path class="st1" d="M74.8,810.8c24.4-6.5,45.2-11,50-14.3s0-24.9,0-24.9L98.4,772c0,0-36.7,21.5-47.3,23.7
						C32,799.5,55.2,815.9,74.8,810.8z"/>
					<path class="st2" d="M124.8,771.6l-14,0.3c2.4,7.1,0.2,15.5-7.9,19.7c-8.2,4.3-17.6,9-26.6,10.8c-10.1,2.1-20.8-1-31-1.2
						c-0.5,0-0.9-0.1-1.3-0.3c0.2,5.9,16.4,13.7,30.8,9.9c24.4-6.5,45.2-11,50-14.3C129.6,793.1,124.8,771.6,124.8,771.6z"/>
					<path class="st3" d="M148.1,499.5c-6.7,10.5-15.8,60.8-17.7,121.5c-2.1,65.5,3.5,157.2-3.2,161.1c-11.3,6.4-37.8-3.3-40.1-10.5
						c0.5-14.3,9.7-207.4,3.2-288.8C127.8,461,163.3,475.6,148.1,499.5z"/>
					<path class="st4" d="M148.1,499.5c0.5-0.8,0.9-1.5,1.3-2.3c-19.2,13-24.8,40.2-27.1,62.3c-1.6,15.6-0.2,31-1.4,46.5
						c-0.5,6.1-0.9,13.2-5,18.1c-2.6,3.1-5.9,5.3-9.3,7.4c3.5,2.3,7.8,4.3,9.5,8c3.3,7-1.2,11-1,18c0.3,10.1,2.6,20.1,2.6,30.3
						c0,10.3-1.1,20.5-0.9,30.8c0.3,15.1,5.4,33.8-3.4,47.5c-6,9.2-12.5,10.9-21,10.7c8.9,5.6,26.2,10,34.7,5.1
						c6.7-3.8,1.1-95.6,3.2-161.1C132.3,560.3,141.4,510.1,148.1,499.5z"/>
					<path class="st3" d="M91.5,487.8c-1.9-13.9-1.5-34.4,0.6-40.4c2-6,112.9-18.2,116.1-1.7c1.2,0.1,5.7,19.4,3.5,37.1
						C208.4,508.9,94.6,510.7,91.5,487.8z"/>
					<path class="st5" d="M208.1,445.7C189.9,459.6,112,460,92,447.4c-6.7-14.6-2.9-126.5-2.9-126.5S73.4,271.1,77.9,266
						c9.3-10.5,63.5-21.8,63.5-21.8s57.7,12.7,64,21.8c3.1,4.4-5.1,45-2.8,88.9C205.1,401.3,211.9,429.7,208.1,445.7z"/>
					<path class="st6" d="M191.3,327.7c0.5,17.3,3.3,34.2,7.6,51c2.1,8.1,3.8,16.3,5.9,24.4c0.7,2.7,1.7,5.3,2.8,7.9
						c-1.5-14.8-3.8-33.3-5-56.2c-1.4-26.4,1-51.6,2.5-68.5C198,299.3,190.9,313.4,191.3,327.7z"/>
					<path class="st6" d="M151.9,447.5c-25,0.9-44.8-11.7-48.8-24.9c-4-13.1-2.8-69.5-4.6-94.1c-1.2-17-7.5-30.5-18.7-41.2
						c3.5,15.5,9.3,33.7,9.3,33.7S85.3,432.8,92,447.4c14.5,9.2,59.5,11.4,90.1,6.7C171.6,453.7,161.9,447.1,151.9,447.5z"/>
					<path class="st7" d="M166.4,250.4c0,0-16.1,16.1-24.6,16.1c-12,0-25.9-16-25.9-16s3.2-1.2,7.1-6.3c3.9-5.3,4.3-12.4,1.4-37.8
						c-3.7-31.6,28.7-34.2,30.1-6.5c-0.8,32.2,0.3,39.7,4.3,45.4C161.5,249.2,166.4,250.4,166.4,250.4z"/>
					<path class="st8" d="M131.6,243.1c1.1-8.5,10.9-21.6,2.5-29.1c-2.7-2.4-5.9-3.8-9.4-4.7c2.6,23.1,2.1,29.9-1.7,34.9
						c-3.8,5.1-7.1,6.3-7.1,6.3s8,11.9,20.8,14.6C132.8,260.3,130.6,250.7,131.6,243.1z"/>
					<path class="st9" d="M209.9,114.7c-2.4-0.4-5.7,0.6-8.8,2.5c0.2-8.6,0.4-17.8,0.5-27.4c0.5-34.4-35.7-51.5-65.7-47.9
						C98.5,46.3,73.2,61.6,74.1,92c0.2,8,0.7,19.3,1.5,31.8c-4.1-2.4-8.5-3.5-11.4-2.5c-7.4,2.4-8.1,11.5-4.1,23.5
						c4.1,12.1,12.7,20.2,19.4,18.2c1.8,12.6,3.9,19.8,7.3,28.1c5.8,14.1,31,34.9,51.8,34.9c25.3,0,50.7-26.9,54.1-38.4
						c2.9-9.8,5-16.6,6.3-29.7c0.2,0.1,0.5,0.2,0.7,0.2c7,1.3,14.7-8,17.2-20.7C219.5,124.9,217.6,116,209.9,114.7z"/>
					<path class="st8" d="M104.1,204.8c-4.8-5.8-10.9-15.3-12.6-22.6c-2.1-8.4-8.5-22.6-8.5-22.6s-16.3-2.8-18.7-16.9
						c-0.3-1.6-4.3-16.9-4.5-18.5c-3.1,4.1-2.8,11.5,0.3,20.5c4.1,12.1,12.7,20.2,19.4,18.2c1.8,12.6,3.9,19.8,7.3,28.1
						c5.2,12.5,25.7,30.4,44.8,34.1C121.1,220.1,111.5,213.9,104.1,204.8z"/>
					<path class="st8" d="M201.5,99c-3.7-10.2-2.4-20-11.2-22.4c-5.7-1.5-31.8,21.1-37.5,19.4c-12.7-3.6-23.3-8.2-33.4-16.8
						c-3.1-2.6-8.8-7.3-12.7-3.4c-2.5,2.5-8.6-2.8-10,0.4c-3.3,7.6-8-2.1-13.3,4.4c-1.6,2-4,13.1-5.9,14.8
						c-2.9,2.6,4.7,23.9,5.1,27.4c0.5,5.6,0.4,11.2,0.3,16.8c0.3-0.3,2.6,2.8,2.9,2.4c4.7-5.8,3.6-17.3,2.3-24.4
						C85.4,102.7,97,91.1,97,91.1s5.1,6.2,13.4,9.9c11.2,5.1,25.6,8.4,39,9.1c17.5,0.9,34.5-11.6,38.1-7.5
						c3.6,4.2,0.8,28.8,0.8,28.8S204.2,106.2,201.5,99z"/>
					<path class="st10" d="M98.8,86c0,0-0.1-25.2-8.2-37.2C84.7,41.5,68,68.9,68,68.9S57.6,85.3,65.3,122
						c17-2.2,17.2,12.3,18.2,21.8c1.7-1.8,4.8-4.8,4.8-4.8s-5.4-12.3-4.9-28.4C85.8,87.4,98.8,86,98.8,86z"/>
					<path class="st10" d="M191.3,86.9c0,0,5.1,19.4,1.5,30.7c-1.6,9.1-4.1,16.6-4.1,16.6l5.3,5.1c0.4-7.7,0.1-21.7,14.3-24.7
						c3.6-9.6-4.3-40.3-4.3-40.3L191.3,86.9z"/>
					<path class="st10" d="M116.2,118.6c-0.5,0.8-4.7-1.8-9.3-1.3c-8.4,0.9-11.6,6.1-11.6,6.1s1.4-9.6,11.6-11.3
						c5.7-1,8.9,0.2,9.9,1.2C117.8,114.3,116.7,117.7,116.2,118.6z"/>
					<path class="st8" d="M118.2,181c2.2,27.6,37.4,27.1,37.4,0H118.2z"/>
					<path class="st8" d="M136.9,160.5c-4.7,0-8.7-2-9.7-4.8c-0.2,0.5-0.3,0.9-0.3,1.4c0,3.4,4.5,6.2,10,6.2s10-2.8,10-6.2
						c0-0.5-0.1-0.9-0.3-1.4C145.6,158.5,141.6,160.5,136.9,160.5z"/>
					<path class="st8" d="M113.9,129.9c0,3.3-2.7,6-6,6s-6-2.7-6-6s2.7-6,6-6C111.2,123.9,113.9,126.6,113.9,129.9z"/>
					<path class="st11" d="M116.2,131.4c0,3.3-2.7,6-6,6s-6-2.7-6-6s2.7-6,6-6C113.5,125.4,116.2,128.1,116.2,131.4z"/>
					<path class="st10" d="M156.1,118.6c0.5,0.8,4.7-1.8,9.3-1.3c8.4,0.9,11.6,6.1,11.6,6.1s-1.4-9.6-11.6-11.3
						c-5.7-1-8.9,0.2-9.9,1.2C154.4,114.3,155.5,117.7,156.1,118.6z"/>
					<path class="st8" d="M158.3,129.9c0,3.3,2.7,6,6,6s6-2.7,6-6s-2.7-6-6-6C161,123.9,158.3,126.6,158.3,129.9z"/>
					<path class="st11" d="M156.1,131.4c0,3.3,2.7,6,6,6s6-2.7,6-6s-2.7-6-6-6C158.8,125.4,156.1,128.1,156.1,131.4z"/>
					<path class="st12" d="M205.5,63.3c0,27.5-15.2,41.5-58.6,41.5c-29.7,0-48.1-18.8-48.1-18.8l-8.2-37.2c0,0-1-7.3,11.3-10.9
						c6.7-1.9,32.7-6.9,53.2-0.8C177,14.7,205.6,38.9,205.5,63.3z"/>
					<polygon class="st10" points="193.2,142.8 187.4,137.4 188.2,135 193.2,140.3 					"/>
					<polygon class="st10" points="83.6,147.7 90,142.3 89.2,139.9 83.6,145.2 					"/>
					<path class="st0" d="M118.2,180.9c2.2,22.3,37.3,21.9,37.3,0H118.2z"/>
				</g>
			</g>
		</g>
	</g>
	<path class="st9" d="M201.3,295.9c15.6,3.9,21.3,7.6,30.3,75.6v0.3c0.6,8.6-2.8,17-9.4,22.7c-11.3,9.7-30.5,24.2-50.8,30.9
		c-5.4,4.1-11.6,12.1-15.1,14.1s-14.4,3.7-17.1,4.1s-5.8-2-3.5-4.4c-4.1,1-5.5-0.2-5-2.8c-3.1,1.4-7.2-1.1-4.5-4.5
		c-1.6-0.6-4.4-1.7,0.4-5.7c4.8-3.9,10.4-8.7,10.4-8.7s-6.1,0.5-4.4-2.4s12.6-10.5,17.3-10s34.3,7.3,71.8-29
		c-2.9-9.6-10-35.8-10-35.8"/>
	<path class="st13" d="M143.4,406c0,0,3.6-3,7.5-1.9s14.3,5.7,17,8.5s2.7,4.1,1.5,4.9s-2.2,1.2-2.2,1.2l5.5,4.9l-2.3,1.9
		c0,0-24.4,16.3-25.8,15.7c-4.6-1.9-12.8-10.3-12.8-10.3s-5-5.6-5.2-6S143.4,406,143.4,406z"/>
	<path class="st9" d="M89.9,285.2c-16.7,3.6-21.5,15.2-30,83.4v0.3c-0.5,8.6,3.1,16.9,9.7,22.3c12.2,9.9,33.4,25.3,55.7,32.5
		c5.8,4.2,12.6,12.3,16.4,14.5s15.5,4,18.4,4.4s6.2-1.9,3.7-4.4c4.4,1,5.9-0.1,5.3-2.8c3.4,1.4,7.7-1,4.8-4.5
		c1.7-0.5,4.8-1.7-0.5-5.7s-11.3-8.9-11.3-8.9s6.5,0.6,4.7-2.3s-13.6-10.7-18.7-10.4s-31.7,8-72.6-29c2.9-9.5,8.3-51.1,8.3-51.1"/>
	<path class="st9" d="M180.7,422.6l-8-18.9c0,0,44.2-14,44.2-33.1c0-28.2-17.9-55.4-17.9-55.4s-6.9-55.1,6.3-49.7
		s36.4,66.7,36.6,105.5C242.1,408.6,180.7,422.6,180.7,422.6z"/>
	<path class="st9" d="M122.6,425l7.2-21c0,0-46.7-13.8-50.9-34.2c0.4-28.2,12.1-55.6,12.1-55.6s2.4-57-10.3-50.6
		s-38.4,80.7-29.2,118.3C61.8,424.5,122.6,425,122.6,425z"/>
	<line class="st14" x1="188.9" y1="433.9" x2="188.9" y2="442.3"/>
	<line class="st14" x1="193.1" y1="438.1" x2="184.7" y2="438.1"/>
	<line class="st15" x1="142.4" y1="385.3" x2="142.4" y2="392.3"/>
	<line class="st15" x1="145.9" y1="388.8" x2="138.9" y2="388.8"/>
	<circle class="st16" cx="115.7" cy="440" r="2.2"/>
	<path class="st5" d="M87,260.9c0,0-26.2,3.4-35,69.3l30.6,12.3c0,0,8.7-35,13-38S90.7,259.7,87,260.9z"/>
	<path class="st5" d="M201.6,263.5c0,0,26.2,2.4,36.5,67.2l-30,13.3c0,0-9.4-34.3-13.6-37.2C190.3,304,198,262.4,201.6,263.5z"/>
	<path class="st17" d="M207.7,452.5c-36.6,11.8-77.8,11.2-116.6,5.4"/>
</g>
<path class="st6" d="M115.9,250.5c0,0,13.1,16.2,24.6,16s25.9-16.1,25.9-16.1l4.6,1.3c0,0-13.9,18.5-29.8,17.5s-28.7-17.8-28.7-17.8
	L115.9,250.5z"/>
</svg>
