<?xml version="1.0" encoding="UTF-8"?>
<svg width="66px" height="55px" viewBox="0 0 66 55" version="1.1" xmlns="http://www.w3.org/2000/svg" xmlns:xlink="http://www.w3.org/1999/xlink">
    <!-- Generator: Sketch 61.1 (89650) - https://sketch.com -->
    <title>Group 14</title>
    <desc>Created with Sketch.</desc>
    <defs>
        <polygon id="path-1" points="-0.000193069307 0.0767069767 51.9999356 0.0767069767 51.9999356 27.9331647 -0.000193069307 27.9331647"></polygon>
        <polygon id="path-3" points="0 0.0768 44.0002058 0.0768 44.0002058 23.9999739 0 23.9999739"></polygon>
        <polygon id="path-5" points="0 0.0758451613 6.89495882 0.0758451613 6.89495882 3.9468129 0 3.9468129"></polygon>
    </defs>
    <g id="Page-1" stroke="none" stroke-width="1" fill="none" fill-rule="evenodd">
        <g id="Home" transform="translate(-965.000000, -3387.000000)">
            <g id="Group-14" transform="translate(965.000000, 3387.000000)">
                <g id="Group-3" transform="translate(14.000000, 0.000000)">
                    <mask id="mask-2" fill="white">
                        <use xlink:href="#path-1"></use>
                    </mask>
                    <g id="Clip-2"></g>
                    <path d="M38.2343515,0.0766809302 C35.1117772,0.0766809302 32.0513713,1.16594605 29.6166386,3.14378791 C28.7851535,3.81930419 28.6523218,5.04869953 29.3195693,5.89000186 C29.9873317,6.73117395 31.2023812,6.86583442 32.0338663,6.19031814 C33.7856485,4.76726698 35.987797,3.98365767 38.2343515,3.98365767 C43.6956386,3.98365767 48.1385495,8.47915535 48.1385495,14.0049228 C48.1385495,19.5306902 43.6955099,24.0261879 38.2343515,24.0261879 L1.9305,24.0261879 C0.864242574,24.0261879 -0.000193069307,24.9008298 -0.000193069307,25.9796763 C-0.000193069307,27.0585228 0.864242574,27.9331647 1.9305,27.9331647 L38.2343515,27.9331647 C45.8248069,27.9331647 51.9999356,21.6849972 51.9999356,14.0049228 C51.9999356,6.32484837 45.8246782,0.0766809302 38.2343515,0.0766809302" id="Fill-1" fill="#FFFFFF" mask="url(#mask-2)"></path>
                </g>
                <path d="M11.9712357,20 L33.0287643,20 C34.1175435,20 35,19.1045333 35,18 C35,16.8954667 34.1175435,16 33.0287643,16 L11.9712357,16 C10.8825879,16 10,16.8954667 10,18 C10,19.1045333 10.8825879,20 11.9712357,20" id="Fill-4" fill="#FFFFFF"></path>
                <g id="Group-8" transform="translate(0.000000, 31.000000)">
                    <mask id="mask-4" fill="white">
                        <use xlink:href="#path-3"></use>
                    </mask>
                    <g id="Clip-7"></g>
                    <path d="M32.2016444,0.0768 L1.9297731,0.0768 C0.863995322,0.0768 -5.14619883e-05,0.9528 -5.14619883e-05,2.03332174 C-5.14619883e-05,3.11384348 0.863995322,3.98984348 1.9297731,3.98984348 L32.2016444,3.98984348 C36.5791298,3.98984348 40.1405567,7.60053913 40.1405567,12.0384522 C40.1405567,16.4764957 36.5791298,20.0870609 32.2016444,20.0870609 C30.4008608,20.0870609 28.6359719,19.4575826 27.2317029,18.314713 C26.4007205,17.6384087 25.1862175,17.772887 24.5187556,18.6154957 C23.8515509,19.4581043 23.9843228,20.6895391 24.8155626,21.3659739 C26.9024749,23.0644957 29.5254924,23.9999739 32.2016444,23.9999739 C38.7073404,23.9999739 44.0002058,18.6340174 44.0002058,12.0383217 C44.0002058,5.44275652 38.7073404,0.0768 32.2016444,0.0768" id="Fill-6" fill="#FFFFFF" mask="url(#mask-4)"></path>
                </g>
                <g id="Group-11" transform="translate(0.000000, 16.000000)">
                    <mask id="mask-6" fill="white">
                        <use xlink:href="#path-5"></use>
                    </mask>
                    <g id="Clip-10"></g>
                    <path d="M2.05878235,3.9468129 L4.83613529,3.9468129 C5.97329216,3.9468129 6.89495882,3.08023226 6.89495882,2.01132903 C6.89495882,0.942425806 5.97329216,0.0758451613 4.83613529,0.0758451613 L2.05878235,0.0758451613 C0.921762745,0.0758451613 -4.11764706e-05,0.942425806 -4.11764706e-05,2.01132903 C-4.11764706e-05,3.08023226 0.921762745,3.9468129 2.05878235,3.9468129" id="Fill-9" fill="#FFFFFF" mask="url(#mask-6)"></path>
                </g>
                <path d="M25,41 C25,39.8954667 24.1605,39 23.125,39 L11.875,39 C10.8395,39 10,39.8954667 10,41 C10,42.1045333 10.8395,43 11.875,43 L23.125,43 C24.160625,43 25,42.1045333 25,41" id="Fill-12" fill="#FFFFFF"></path>
            </g>
        </g>
    </g>
</svg>