<?xml version="1.0" encoding="utf-8"?>
<!-- Generator: Adobe Illustrator 25.0.0, SVG Export Plug-In . SVG Version: 6.00 Build 0)  -->
<svg version="1.1" id="Layer_1" xmlns="http://www.w3.org/2000/svg" xmlns:xlink="http://www.w3.org/1999/xlink" x="0px" y="0px"
	 viewBox="0 0 589.75 476.15" style="enable-background:new 0 0 589.75 476.15;" xml:space="preserve">
<style type="text/css">
	.st0{fill-rule:evenodd;clip-rule:evenodd;fill:#C7EAFF;}
	.st1{fill-rule:evenodd;clip-rule:evenodd;fill:#A9E5FD;}
	.st2{clip-path:url(#SVGID_2_);}
	.st3{fill-rule:evenodd;clip-rule:evenodd;fill:#6E2C00;}
	.st4{fill-rule:evenodd;clip-rule:evenodd;fill:#7FB3D5;}
	.st5{fill-rule:evenodd;clip-rule:evenodd;fill:#DBA683;}
	.st6{fill-rule:evenodd;clip-rule:evenodd;fill:#572504;}
	.st7{fill-rule:evenodd;clip-rule:evenodd;fill:#F5CBA7;}
	.st8{fill-rule:evenodd;clip-rule:evenodd;fill:#1B2631;}
	.st9{fill:#6E2C00;}
	.st10{fill-rule:evenodd;clip-rule:evenodd;fill:#3CB0FE;}
	.st11{fill-rule:evenodd;clip-rule:evenodd;fill:#21618C;}
	.st12{fill-rule:evenodd;clip-rule:evenodd;fill:#DDEDFD;}
	.st13{fill-rule:evenodd;clip-rule:evenodd;fill:#C6DFFE;}
	.st14{fill:#C6DFFE;}
	.st15{fill:#2C3B4A;}
	.st16{fill-rule:evenodd;clip-rule:evenodd;fill:#B2BABB;}
	.st17{fill-rule:evenodd;clip-rule:evenodd;fill:#F2F3F4;}
	.st18{fill:#F2F3F4;}
	.st19{fill-rule:evenodd;clip-rule:evenodd;fill:#FFFFFF;}
	.st20{fill:#E5E7E9;}
	.st21{fill:#1B2631;}
	.st22{fill-rule:evenodd;clip-rule:evenodd;fill:#2468CF;}
	.st23{fill:#572504;}
	.st24{fill:#DBA683;}
	.st25{fill:#E6E6E6;}
	.st26{fill-rule:evenodd;clip-rule:evenodd;fill:#EDBB99;}
	.st27{fill-rule:evenodd;clip-rule:evenodd;fill:#E5E7E9;}
	.st28{fill:#B2BABB;}
	.st29{fill-rule:evenodd;clip-rule:evenodd;fill:#F8F9F9;}
</style>
<g>
	<path class="st0" d="M29.17,342c0-5.29-45.29-260.39,140.2-190.12s206.86,145.91,206.86,145.91L29.17,342z"/>
	<path class="st1" d="M77.45,454.67c0,0-70.36-17.38-49.18-108.44s156.85-36.91,333.6-211.16
		c151.9-149.74,196.71,23.09,206.32,74.67c1.61,8.67,3.41,17.3,5.44,25.89c10.72,45.22,36.35,201.32-113.53,224.88
		C284.51,488.12,119.94,474.69,77.45,454.67z"/>
	<g>
		<defs>
			<path id="SVGID_1_" d="M153.71,472.25c0,0-141.13-15.94-151.51-80.84S20,297.88,46.7,279.09s26.44-110.33-7.42-139.8
				C0.33,105.37,32.93,23.58,154.82,33.72s243.44,0.62,288.63-27.56s137.14,46.21,106,102.68c-23.74,43.04-18.16,106.12,0.56,145.58
				c18.72,39.46,49.87,48.87,36.52,101.26c-13.35,52.39-119.41,115.43-178.35,116.57S153.71,472.25,153.71,472.25z"/>
		</defs>
		<clipPath id="SVGID_2_">
			<use xlink:href="#SVGID_1_"  style="overflow:visible;"/>
		</clipPath>
		<g class="st2">
			<g>
				<path class="st3" d="M118.94,169.04c-4.06,3.86-13.35,13.67-18.92,27.24c-7.28,17.74,0.35,36.25,0.35,36.25l26.49-11.74
					c0,0,7.15-15.14,0.64-45.23l-0.11-0.5C125.12,173.4,121.62,170.88,118.94,169.04L118.94,169.04z"/>
				<path class="st4" d="M122.64,157.42l-4.42,12.3l9.34,6.16c0,0,4.3-8.07,3.73-7.94C130.72,168.08,131.26,159.57,122.64,157.42
					L122.64,157.42z"/>
				<path class="st5" d="M187.14,162.99c0,0,6.49,0.08,8.5-7.92c2.01-8.01-2.82-17.17-4.45-17.04
					C189.56,138.17,187.14,162.99,187.14,162.99L187.14,162.99z"/>
				<path class="st6" d="M189.73,109.31c0,0,8.49,10.06,5.68,22.22c-2.81,12.16-5.32,15.61-5.32,15.61s-0.89-23.44-4.19-32.05
					C182.61,106.48,189.73,109.31,189.73,109.31L189.73,109.31z"/>
				<path class="st3" d="M167.02,90.03c2.45,0.11,14.76-7.53,22.54,1.75c7.78,9.28,7.99,17.85-2.88,24.02
					c-10.86,6.17-31.95,2.91-36,4.63c-4.05,1.72-9.98,4.04-11.57,13.9c-1.59,9.86-1.87,12.43-1.87,12.43l-7.08,18.73
					c0,0-7.42-2.1-12.59-18.92c-5.17-16.82-0.35-36.25,9.19-46.5C136.3,89.82,158.64,87.39,167.02,90.03L167.02,90.03z"/>
				<path class="st7" d="M138.1,180.95c0,0,2.05,25.5-4.29,34.53c-6.34,9.03-19.68,11.93-17.49,11.91
					c2.18-0.02,49.48,39.31,49.48,39.31l22.29-36.62c0,0-15.09-3.14-16.75-14.72c-1.65-11.58-1.64-23.84-1.64-23.84
					S150.76,200.37,138.1,180.95L138.1,180.95z"/>
				<path class="st5" d="M138.1,180.95c0,0,0.45,5.63,0.27,12.54c6.19,7.02,16.49,12.12,26.52,9.41c1.75-0.47,3.45-1.15,5.09-2.01
					c-0.29-5.47-0.29-9.36-0.29-9.36S150.76,200.37,138.1,180.95L138.1,180.95z"/>
				<path class="st7" d="M185.25,113.57c0.65,0.92,5,12.34,4.85,37c-0.15,24.65-11.04,41.9-25.27,45.74
					c-14.23,3.84-29-8.01-31.8-18.79c-2.8-10.78-3.35-14.6-3.35-14.6c-8.79,1.85-9.08-24.51,1.4-22.48
					c3.38,0.66,6.53,3.88,6.16,6.32c0,0,1.4-14.78,4.06-19.02c2.66-4.24,5.58-11.26,19.99-9.69
					C175.7,119.6,185.25,113.57,185.25,113.57L185.25,113.57z"/>
				<path class="st8" d="M177.99,141.72c-1.85,0.02-3.32,2.19-3.3,4.84c0.02,2.66,1.54,4.8,3.39,4.78c1.84-0.02,3.32-2.19,3.29-4.85
					C181.35,143.84,179.83,141.7,177.99,141.72L177.99,141.72z"/>
				<path class="st8" d="M153.76,141.97c-1.85,0.02-3.32,2.19-3.3,4.84c0.03,2.66,1.54,4.8,3.39,4.78c1.85-0.02,3.32-2.19,3.3-4.85
					C157.12,144.09,155.6,141.95,153.76,141.97L153.76,141.97z"/>
				<path class="st9" d="M172.53,176.68c0.31-0.28,0.41-0.89,0.22-1.36c-0.19-0.47-0.59-0.62-0.9-0.34l-0.07,0.06h0
					c-0.7,0.64-5.16,4.74-13.78,0.39c-0.34-0.17-0.72,0.11-0.83,0.63c-0.11,0.52,0.07,1.09,0.42,1.26
					c9.19,4.64,14.1,0.13,14.87-0.58l0,0L172.53,176.68L172.53,176.68z"/>
				<path class="st3" d="M172.4,132.52c-0.28,0.47-0.13,1.08,0.32,1.37c0.46,0.28,1.05,0.14,1.33-0.33
					c0.01-0.01,2.85-4.64,8.68-0.15c0.43,0.33,1.04,0.24,1.36-0.2c0.32-0.44,0.23-1.06-0.19-1.39
					C176.37,126.02,172.41,132.5,172.4,132.52L172.4,132.52z"/>
				<path class="st3" d="M147.8,132.77c-0.28,0.47-0.13,1.08,0.33,1.37c0.46,0.29,1.05,0.14,1.33-0.33
					c0.01-0.01,2.85-4.64,8.68-0.15c0.43,0.33,1.04,0.24,1.36-0.2c0.32-0.44,0.23-1.06-0.2-1.39
					C151.78,126.27,147.81,132.75,147.8,132.77L147.8,132.77z"/>
				<path class="st10" d="M182.58,226.49l24.3,9.47l26.29,54.84l-19.73,81.4l10.78,101.16H66.27l7.85-50.09
					c3.39-21.62,6.78-43.24,10.17-64.86L84.23,357l-8.2,4.31l-3.22-98.99c9.37-9.38,18.44-19.93,27.55-29.79l26.8-12.48l38.53,36.77
					L182.58,226.49L182.58,226.49z"/>
				<polygon class="st4" points="241.38,233.8 237.22,232.42 227.08,263.56 232.22,262.64 241.38,233.8 				"/>
				<polygon class="st11" points="242.48,230.35 238.32,228.96 233.85,243.06 238,244.45 242.48,230.35 				"/>
				<path class="st7" d="M248.93,259.65c3.24-0.58-2.68-5.3-5.25-8.83c-2.86-3.92-4.9-1.4-9.17-4.12
					c-4.27-2.73-13.6,2.77-14.82,8.98c-1.23,6.21,0.1,9.19,0.1,9.19C223.4,264.78,245.04,260.35,248.93,259.65L248.93,259.65z"/>
				<path class="st12" d="M127.16,220.04c0,0-3.06,0.89-6.93,3.1c4.86,4.33,38.84,38.38,40.27,39.17c1.45-2.1,4.06-6.59,4.06-6.59
					L127.16,220.04L127.16,220.04z"/>
				<path class="st13" d="M159.28,261.26c0.66,0.61,1.08,0.98,1.22,1.05c1.45-2.1,4.06-6.58,4.06-6.58l-1.17-1.12L159.28,261.26
					L159.28,261.26z"/>
				<path class="st14" d="M201.44,431.35c-0.18-0.01-60.99-3.24-104.68-40.44l-1.86,2.3c44.43,37.83,106.21,41.12,106.38,41.13
					L201.44,431.35L201.44,431.35z"/>
				<path class="st14" d="M177.49,450.64l-0.83-0.04c-6.57-0.28-46.02-2-79.59-34.59l-1.99,2.17c34.36,33.35,74.74,35.11,81.47,35.4
					c0.29,0.01,0.51,0.02,0.74,0.04L177.49,450.64L177.49,450.64z"/>
				<path class="st15" d="M136.12,210.46c-10.63,3.45-27.35,12.09-21.47,31.59c2.31,7.65,5.55,14.23,8.99,19.73l3.37-1.96
					c-3.3-5.26-6.43-11.58-8.65-18.95c-4.31-14.27,6.38-21.72,15.42-25.36l0.02-0.03C134.76,214.13,135.52,212.4,136.12,210.46
					L136.12,210.46z"/>
				<polygon class="st12" points="182.58,226.49 160.5,262.31 165.79,266.7 190.35,228.25 182.58,226.49 				"/>
				<path class="st15" d="M171.72,217.67c9.31,5.88,23.88,22.83,9.96,68.96l3.7,1.18c16-53.01-4.42-70.06-14.39-75.04
					c0.11,0.87,0.22,1.74,0.34,2.6C171.45,216.15,171.58,216.92,171.72,217.67L171.72,217.67z"/>
				<path class="st16" d="M183.45,278.39c-4.75,0.05-8.57,4.04-8.52,8.91c0.05,4.87,3.94,8.78,8.69,8.74
					c4.75-0.05,8.56-4.04,8.52-8.91C192.09,282.25,188.2,278.34,183.45,278.39L183.45,278.39z"/>
				<path class="st17" d="M183.46,279.17c-4.33,0.04-7.81,3.68-7.77,8.12c0.04,4.44,3.59,8.01,7.92,7.97
					c4.33-0.04,7.81-3.68,7.76-8.12C191.33,282.69,187.79,279.12,183.46,279.17L183.46,279.17z"/>
				<path class="st17" d="M183.5,283.45c-2.02,0.02-3.65,1.72-3.63,3.8c0.02,2.08,1.68,3.74,3.7,3.72c2.02-0.02,3.65-1.72,3.63-3.8
					C187.18,285.1,185.52,283.43,183.5,283.45L183.5,283.45z"/>
				<path class="st16" d="M183.49,282.61c-2.48,0.03-4.47,2.11-4.45,4.65c0.02,2.54,2.06,4.59,4.53,4.56
					c2.48-0.03,4.47-2.11,4.45-4.65C188,284.62,185.97,282.58,183.49,282.61L183.49,282.61z"/>
				<path class="st18" d="M147.19,275.69c0.05,0.1,17.35,36.87,11.13,49.82c-6.02,12.55-17.42,7.76-17.45,7.75l-0.73,1.84
					c0.04,0.02,13.09,5.5,19.92-8.71c6.63-13.81-11.08-51.46-11.13-51.56L147.19,275.69L147.19,275.69z"/>
				<path class="st19" d="M142.98,332.03c0.09,0.38-1.24,5.23-1.24,5.23C133.17,337.17,134.14,328.1,142.98,332.03L142.98,332.03z"
					/>
				<path class="st20" d="M116.31,287.55c0.05,0.11,16.62,38.29,31.18,42.02c14.98,3.84,19.34-9.92,19.35-9.96l-1.84-0.64
					c-0.01,0.03-3.81,12.06-17.05,8.67c-13.65-3.49-29.84-40.8-29.89-40.9L116.31,287.55L116.31,287.55z"/>
				<path class="st19" d="M162.79,319.79c0.16,0.34,4.12,3.25,4.12,3.25C173.46,317.51,167.23,311.14,162.79,319.79L162.79,319.79z"
					/>
				<path class="st21" d="M143.28,267.24c2.41,5.46,3.38,8.09,3.76,9.35l2.62-0.86c-0.51-1.83-1.57-4.84-3.73-9.72
					c-7.73-17.48-36.87-8.2-32.97,10.91c1.06,5.21,2.5,9.44,3.14,11.24l2.62-0.87c-0.42-1.25-1.71-5.12-2.91-10.98
					C112.86,261.81,137.39,253.9,143.28,267.24L143.28,267.24z"/>
				<path class="st17" d="M252.87,256.74l-64.05,11.46l-17.83,116.72c0.09,0.18,0.95,1.86,1.03,2.02
					c21.59-5.34,43.14-10.78,64.72-16.12c5.7-37.38,11.45-74.67,17.16-112.05C253.84,258.66,252.93,256.85,252.87,256.74
					L252.87,256.74z"/>
				<polygon class="st22" points="253.91,258.76 189.86,270.22 172.03,386.93 236.79,370.9 253.91,258.76 				"/>
				<path class="st7" d="M118.97,337.09l5.6,13.01c0,0,82.73-24.44,86.06-26.31c3.32-1.88,3.05-15.33,13.21-22.35
					c10.16-7.02,11.96-6.51,12.23-5.33c0.27,1.18-4.28,9.27-3.24,10.71c1.04,1.44,8.64-3.84,10.3-5.51
					c1.66-1.67,5.35-6.04,5.35-6.04s6,8.77-4.36,26.83c-10.37,18.06-30.43,16.16-30.43,16.16s-89.59,47.84-102.41,43.22
					c-12.82-4.61-18.54-28.25-18.54-28.25L118.97,337.09L118.97,337.09z"/>
				<path class="st5" d="M118.97,337.09l3.06,7.11L95.34,361.3c-1.77-4.57-2.62-8.07-2.62-8.07L118.97,337.09L118.97,337.09z"/>
				<polygon class="st14" points="103.61,267.72 130.25,329 83.79,357.57 84.79,359.27 131.99,330.25 132.72,329.8 132.37,329 
					105.38,266.92 103.61,267.72 				"/>
				<path class="st23" d="M164.58,153.27c0-0.45,0.35-0.81,0.79-0.81c0.44,0,0.79,0.36,0.79,0.81c0,0.4,0.72,3.14,2.28,5.22
					c0.81,1.09,1.85,1.95,3.12,2.1c0.75,0.09,1.28,0.31,1.62,0.64v0c0.53,0.51,0.61,1.15,0.36,1.85c-0.18,0.5-0.55,1.04-1.03,1.58
					c-1.44,1.6-4.11,3.4-5.61,4.02c-0.4,0.17-0.86-0.03-1.02-0.45c-0.16-0.41,0.03-0.88,0.44-1.05c1.34-0.55,3.73-2.17,5.03-3.62
					c0.35-0.39,0.61-0.75,0.71-1.04l0.05-0.13c-0.1-0.09-0.33-0.17-0.72-0.21h0c-1.76-0.2-3.14-1.33-4.18-2.72
					C165.4,157.09,164.58,153.77,164.58,153.27L164.58,153.27z"/>
				<path class="st24" d="M125.81,152.62c-0.25,0.15-0.57,0.08-0.72-0.18c-0.15-0.25-0.07-0.59,0.17-0.74
					c0.02-0.01,5.67-3.55,7.02,0.06c0.29-0.83,0.51-1.78,0.62-2.86c0.54-5.2-5.68-2.94-5.69-2.93c-0.27,0.1-0.58-0.04-0.67-0.32
					c-0.1-0.28,0.04-0.59,0.31-0.69c0.02-0.01,7.81-2.84,7.1,4.05c-0.21,1.98-0.75,3.56-1.41,4.8l-0.01,0.02l-0.04,0.07
					c-1.45,2.65-3.39,3.69-3.39,3.69c-0.25,0.14-0.57,0.04-0.71-0.22c-0.14-0.26-0.04-0.59,0.21-0.73c0.01,0,1.66-0.88,2.94-3.18
					C131.39,149.13,125.83,152.61,125.81,152.62L125.81,152.62z"/>
				<path class="st25" d="M141.73,157.64l-2.1,0.61c-1.68-5.39-3.35-10.78-5.03-16.17C136.69,141.26,140.92,154.97,141.73,157.64
					L141.73,157.64z"/>
				<path class="st25" d="M129.68,162.91l7.95,17.32l-2.03,0.83c-2.62-6.08-5.27-12.16-7.9-18.23
					C128.13,162.95,128.79,163.08,129.68,162.91L129.68,162.91z"/>
				<path class="st19" d="M139.25,157.05c0,0,23.24-3.01,27.21-2.5c3.97,0.51,24.35,1.85,24.35,1.85s-2.26,15.72-7.68,24.97
					c-5.42,9.25-8.13,9.43-8.13,9.43c-21.46,11.26-32.22-0.05-40.83-10.14L139.25,157.05L139.25,157.05z"/>
				<polygon class="st12" points="143.63,163.56 166.39,161.77 183.87,167.64 183.19,169.77 166.11,164.04 143.79,165.8 
					143.63,163.56 				"/>
				<polygon class="st12" points="143.86,173.16 165.75,171.43 180.69,176.45 180.01,178.58 165.48,173.71 144.02,175.4 
					143.86,173.16 				"/>
				<polygon class="st12" points="146.52,181.31 163.7,179.95 177.69,184.65 177.01,186.78 163.43,182.22 146.68,183.55 
					146.52,181.31 				"/>
			</g>
			<g>
				<polygon class="st10" points="414.75,171.14 367.98,273.46 348.99,176.3 359.85,169.48 377.99,182.99 404.81,163.63 
					414.75,171.14 				"/>
				<polygon class="st22" points="373.11,202.13 362.11,241.24 368.6,272.09 385.49,235.15 379.6,202.13 373.11,202.13 				"/>
				<path class="st26" d="M363.08,136.62c-0.62,1.27,2.98,27.26-3.23,32.86c-6.21,5.6-10.29,5.35-7.88,6.88
					c19.49,12.35,42.01,19.36,60.64-5.86c0,0-9.75,2.04-11.78-11.97c-2.02-14.01,0.13-21.91,0.13-21.91S381.33,148.98,363.08,136.62
					L363.08,136.62z"/>
				<path class="st5" d="M363.08,136.62c-0.28,0.57,0.29,6.06,0.45,12.45c10.45,7.43,26.16,7.72,36.46-0.63
					c-0.16-7.65,0.98-11.82,0.98-11.82S381.33,148.98,363.08,136.62L363.08,136.62z"/>
				<path class="st5" d="M350.71,96.05c0,0-6.71-5.09-10.8,3.31c-4.1,8.41,4.33,18.42,10.6,17.65
					C356.79,116.25,351.03,96.2,350.71,96.05L350.71,96.05z"/>
				<path class="st5" d="M412.63,95.64c0,0,6.71-5.09,10.8,3.31c4.46,9.15-9.38,24.7-12.81,15.37
					C409.49,111.22,410.88,105.38,412.63,95.64L412.63,95.64z"/>
				<path class="st26" d="M354.18,129.04c-7.95-22.77-5.28-28.02-7.8-49.17c-3.98-33.41,73.88-33.4,69.9,0
					c-2.51,21.14-0.78,29.55-8.05,49.17C398.92,154.19,362.05,151.58,354.18,129.04L354.18,129.04z"/>
				<path class="st9" d="M377.06,92.72c0.22-0.76,0.99-1.2,1.74-0.98c0.74,0.22,1.17,1.02,0.96,1.78
					c-0.02,0.05-4.98,17.72-3.27,19.29c1.88,1.72,5.93,1.17,5.94,1.17c0.77-0.11,1.48,0.44,1.59,1.22c0.11,0.79-0.43,1.52-1.19,1.63
					c-0.01,0-5.37,0.72-8.21-1.88C371.61,112.2,377.05,92.77,377.06,92.72L377.06,92.72z"/>
				<path class="st9" d="M364.81,122.47c-0.58-0.53-0.63-1.44-0.11-2.03c0.52-0.59,1.4-0.64,1.98-0.11
					c0.03,0.03,11.88,11.25,30-0.16c0.66-0.41,1.53-0.2,1.93,0.48c0.4,0.68,0.19,1.57-0.47,1.98
					C378.23,135.17,364.84,122.51,364.81,122.47L364.81,122.47z"/>
				<path class="st8" d="M364.44,86.37c1.61,0,2.92,2.17,2.92,4.84c0,2.67-1.31,4.84-2.92,4.84c-1.61,0-2.92-2.17-2.92-4.84
					C361.52,88.54,362.83,86.37,364.44,86.37L364.44,86.37z"/>
				<path class="st8" d="M397.41,86.37c1.61,0,2.92,2.17,2.92,4.84c0,2.67-1.31,4.84-2.92,4.84c-1.61,0-2.92-2.17-2.92-4.84
					C394.49,88.54,395.8,86.37,397.41,86.37L397.41,86.37z"/>
				<path class="st9" d="M358.69,79.7c-0.9,0.74-2.22,0.59-2.94-0.34c-0.72-0.92-0.57-2.27,0.33-3.01
					c0.03-0.02,10.56-8.79,16.51,0.5c0.63,0.99,0.37,2.32-0.6,2.97c-0.96,0.65-2.26,0.37-2.9-0.62
					C365.69,73.89,358.71,79.68,358.69,79.7L358.69,79.7z"/>
				<path class="st9" d="M404.84,76.35c0.9,0.74,1.05,2.09,0.33,3.01c-0.72,0.92-2.04,1.08-2.94,0.34c-0.02-0.02-6.99-5.81-10.4-0.5
					c-0.63,0.99-1.93,1.27-2.9,0.62c-0.96-0.65-1.23-1.98-0.6-2.97C394.29,67.56,404.82,76.33,404.84,76.35L404.84,76.35z"/>
				<path class="st9" d="M351.98,34.59c0,0-3.3,10.83,7.01,9.68c10.31-1.15,42.43-11.46,53.63,3.31
					c11.2,14.77,2.33,46.79,2.25,47.87c-0.08,1.08-3.88-16.2-6.28-23.31c-2.4-7.12-4.14-7.09-4.14-7.09s-13.82-7.66-23.11-4.73
					c-9.28,2.93-18.45,6.11-23.72,6.5c-5.26,0.38-5.64-0.38-5.64-0.38s2.05,11.79-0.5,19.94c-2.55,8.15-3.84,8.31-3.84,8.31
					s-7.52-12.33-7.15-20.98c0.37-8.65,1.37-8.65,1.37-8.65S331.29,43.13,351.98,34.59L351.98,34.59z"/>
				<path class="st27" d="M404.81,163.63c-2.18,1.13-26.83,19.36-26.83,19.36s16.39,27.26,16.39,25.6
					c0-1.66,20.37-37.45,20.37-37.45L404.81,163.63L404.81,163.63z"/>
				<polygon class="st27" points="359.48,167.06 377.99,182.99 362.46,208.66 347.32,177.21 359.48,167.06 				"/>
				<path class="st22" d="M367.29,200.67l8.95,7.29l11.8-8.56l-10.07-16.42C377.99,182.99,367.8,199.83,367.29,200.67L367.29,200.67
					z"/>
				<path class="st17" d="M348.99,176.3l-58.99,32.36l-42.47,135.9c0,0,38.52,71.32,41.74,75.88c1.05-1.11,7.28-5.62,7.28-5.62
					l-2.16,58.54h75.47l-1.87-199.91C367.98,273.46,347.32,177.21,348.99,176.3L348.99,176.3z M294.72,349.04l0.87-27.75
					l-6.33,18.41L294.72,349.04L294.72,349.04z"/>
				<polygon class="st27" points="414.75,171.14 367.98,273.46 369.79,473.37 460.05,473.37 460.27,418.86 517.65,308.52 
					467.98,201.52 414.75,171.14 				"/>
				<path class="st28" d="M297.06,215.62c0.04,0.08,13.61,27.97,13.12,57.25l-1.87-0.03c0.48-28.8-12.9-56.29-12.94-56.37
					L297.06,215.62L297.06,215.62z"/>
				<path class="st28" d="M464.43,205.94c-0.04,0.02-15.18,7.72-24.25,38.78l-1.8-0.55c9.31-31.86,25.13-39.91,25.18-39.94
					L464.43,205.94L464.43,205.94z"/>
				<path class="st29" d="M333.63,181.59l-2.15,48.47h14.75l-7.83,14.39c0,0,29.84,57.71,29.82,55.92
					c-0.02-1.79-0.24-26.91-0.24-26.91l-18.99-99.91L333.63,181.59L333.63,181.59z"/>
				<polygon class="st17" points="414.75,167.06 367.98,273.46 368.22,300.37 410.14,240.29 402.44,223.58 418.14,226.71 
					428.42,176.3 414.75,167.06 				"/>
				<polygon class="st17" points="392.84,272.85 436.31,272.85 436.31,303.94 392.84,303.94 392.84,272.85 				"/>
				<polygon class="st10" points="411.03,264.91 418.11,264.91 418.11,278.84 411.03,278.84 411.03,264.91 				"/>
				<polygon class="st22" points="395.2,284.19 431.94,284.19 431.94,286.74 395.2,286.74 395.2,284.19 				"/>
				<polygon class="st22" points="395.2,292.09 411.03,292.09 411.03,294.64 395.2,294.64 395.2,292.09 				"/>
				<polygon class="st22" points="413.86,292.09 419.75,292.09 419.75,294.64 413.86,294.64 413.86,292.09 				"/>
				<polygon class="st22" points="422.81,292.09 428.7,292.09 428.7,294.64 422.81,294.64 422.81,292.09 				"/>
				<polygon class="st28" points="404.82,421.68 404.15,469.39 451.28,469.39 452.17,425.53 454.97,425.73 454.06,470.86 
					454.03,472.28 452.66,472.28 402.73,472.28 401.31,472.28 401.33,470.82 402.02,421.64 404.82,421.68 				"/>
				<polygon class="st28" points="343.01,423.19 343.53,464.13 343.56,465.61 342.12,465.59 300.25,465.19 298.89,465.18 
					298.86,463.78 297.94,420.44 300.74,420.39 301.64,462.33 340.7,462.7 340.21,423.25 343.01,423.19 				"/>
				<path class="st26" d="M321.86,397.52c6.75,5.18,17.89,11.05,26.09,18.39c9.36,8.38,2.19,15.69-1.23,12.47
					c-3.5-3.3-4.29-4.95-6.5-4.19l-42.32-2.83l-2.8-5.55L321.86,397.52L321.86,397.52z"/>
				<path class="st28" d="M293.33,415.98l28.08-19.2l-32.88-57.18l-0.2-0.35l0.14-0.38l19.99-56.37l1.59,0.59l-19.85,55.98
					l33.08,57.54l0.41,0.71l-0.67,0.46l-28.75,19.65L293.33,415.98L293.33,415.98z M437.96,251.12l26.83,66.75l0.15,0.38l-0.19,0.36
					l-37.98,71.41l26.76,35.36l5.31-8.03l1.39,0.97l-5.96,9.02l-0.65,0.99l-0.71-0.94l-27.81-36.75l-0.34-0.45l0.26-0.5l38.05-71.54
					l-26.67-66.36L437.96,251.12L437.96,251.12z"/>
				<path class="st26" d="M428.64,395.32c-7.55,3.85-24.32,12.97-33.72,18.58c-7.07,4.22-7.92,13.57-0.47,11.03
					c7.45-2.54,9.99-2.97,9.99-2.97l45.53,1.55L428.64,395.32L428.64,395.32z"/>
				<path class="st25" d="M347.63,94.68l4.68,12.39l-2.07,0.72c-1.46-4.42-2.93-8.84-4.39-13.26
					C346.77,94.46,347.27,94.59,347.63,94.68L347.63,94.68z"/>
				<path class="st25" d="M409.92,104.53c1.72-3.36,3.43-6.73,5.15-10.1c1.11-0.42,2.02-0.38,2.25-0.32l-5.38,11.25L409.92,104.53
					L409.92,104.53z"/>
				<path class="st19" d="M347.51,105.4c0,0,28.33-8.08,31.19-7.49c2.87,0.59,35.66,3.83,35.66,3.83s-1.88,18.96-9.6,33.89
					c-7.72,14.93-37.78,14.91-46.26,1.07C353.43,131.77,352.28,126.84,347.51,105.4L347.51,105.4z"/>
				<polygon class="st12" points="406.44,109.95 377.23,106.86 354.31,112.81 355.04,115.29 377.43,109.48 406.08,112.51 
					406.44,109.95 				"/>
				<polygon class="st12" points="405.5,120.95 377.4,117.98 357.81,123.06 358.55,125.54 377.6,120.6 405.14,123.51 405.5,120.95 
									"/>
				<polygon class="st12" points="401.53,130.17 379.47,127.84 361.14,132.59 361.87,135.07 379.67,130.46 401.17,132.73 
					401.53,130.17 				"/>
			</g>
		</g>
	</g>
</g>
</svg>
