<?xml version="1.0" encoding="UTF-8"?>
<svg width="1440px" height="704px" viewBox="0 0 1440 704" version="1.1" xmlns="http://www.w3.org/2000/svg" xmlns:xlink="http://www.w3.org/1999/xlink">
    <!-- Generator: Sketch 61.1 (89650) - https://sketch.com -->
    <title>Group 10</title>
    <desc>Created with Sketch.</desc>
    <defs>
        <path d="M671.311829,124.787901 C494.053023,51.0088276 300.088343,-22.7688276 0.817482185,314.134424 L0.817482185,314.134424 L12.5148575,554.265419 C12.5148575,554.265419 790.747963,619.015764 947.288705,519.187586 L947.288705,519.187586 C1051.07346,453.005754 1094.75767,457.578286 1132.86142,462.152236 L1132.86142,462.152236 C1152.23121,464.477517 1170.16188,466.802798 1193.8121,459.829793 L1193.8121,459.829793 L1193.8121,0.25982266 C986.577524,262.020611 836.170736,193.404256 671.311829,124.787901" id="path-1"></path>
        <path d="M788.720996,262.230036 C684.327945,283.849149 665.429215,255.927303 473.738854,137.935765 L473.738854,137.935765 C282.93721,20.8464434 134.441918,56.8711946 134.441918,56.8711946 L134.441918,56.8711946 L0.346400996,91.997991 L72.3466999,193.780878 C72.3466999,193.780878 359.430785,296.457457 484.535492,309.96514 L484.535492,309.96514 C609.628842,323.474244 836.420697,264.034471 905.719352,255.027928 L905.719352,255.027928 C975.913823,246.014281 1139.70329,268.539873 1139.70329,268.539873 L1139.70329,268.539873 L1139.70329,0.129547511 C966.01868,75.7893394 960.612553,227.106081 788.720996,262.230036" id="path-3"></path>
        <path d="M0,468.64439 C149.242169,516.719178 273.249093,533.485822 384.285596,533.580902 L384.285596,533.580902 L386.203617,533.580902 C511.919864,533.471631 621.048285,512.040411 731.396232,490.609191 L731.396232,490.609191 C929.330004,452.167241 1131.22475,413.723873 1439.97923,498.331923 L1439.97923,498.331923 L1439.97923,350.796804 C1439.97923,350.796804 1263.57954,326.510358 1117.78157,366.087586 L1117.78157,366.087586 C780.285173,457.84931 769.488321,265.334456 538.191495,259.039337 L538.191495,259.039337 L475.19353,259.039337 L522.89276,214.059602 L317.69436,203.260265 L190.798338,298.620822 C190.798338,298.620822 190.798338,194.266021 127.794695,180.773236 L127.794695,180.773236 C65.6968227,167.277613 69.2986128,134.892374 54.9013901,69.2236074 L54.9013901,69.2236074 C47.7006493,36.8355305 23.4024079,15.2439523 0,0.851458886 L0,0.851458886 L0,468.64439 Z M1439.97923,350.796804 L1439.97923,349.898515 L1439.97923,350.796804 Z" id="path-5"></path>
    </defs>
    <g id="Page-1" stroke="none" stroke-width="1" fill="none" fill-rule="evenodd" opacity="0.73546782">
        <g id="Home" transform="translate(0.000000, -2958.000000)">
            <g id="Group-10" transform="translate(0.000000, 2958.000000)">
                <g id="Group-3" transform="translate(246.000000, 0.000000)">
                    <mask id="mask-2" fill="white">
                        <use xlink:href="#path-1"></use>
                    </mask>
                    <g id="Clip-2"></g>
                    <path d="M671.311829,124.787901 C494.053023,51.0088276 300.088343,-22.7688276 0.817482185,314.134424 L0.817482185,314.134424 L12.5148575,554.265419 C12.5148575,554.265419 790.747963,619.015764 947.288705,519.187586 L947.288705,519.187586 C1051.07346,453.005754 1094.75767,457.578286 1132.86142,462.152236 L1132.86142,462.152236 C1152.23121,464.477517 1170.16188,466.802798 1193.8121,459.829793 L1193.8121,459.829793 L1193.8121,0.25982266 C986.577524,262.020611 836.170736,193.404256 671.311829,124.787901" id="Fill-1" fill="#AFD9FF" mask="url(#mask-2)"></path>
                </g>
                <g id="Group-6" transform="translate(301.000000, 268.000000)">
                    <mask id="mask-4" fill="white">
                        <use xlink:href="#path-3"></use>
                    </mask>
                    <g id="Clip-5"></g>
                    <path d="M788.720996,262.230036 C684.327945,283.849149 665.429215,255.927303 473.738854,137.935765 L473.738854,137.935765 C282.93721,20.8464434 134.441918,56.8711946 134.441918,56.8711946 L134.441918,56.8711946 L0.346400996,91.997991 L72.3466999,193.780878 C72.3466999,193.780878 359.430785,296.457457 484.535492,309.96514 L484.535492,309.96514 C609.628842,323.474244 836.420697,264.034471 905.719352,255.027928 L905.719352,255.027928 C975.913823,246.014281 1139.70329,268.539873 1139.70329,268.539873 L1139.70329,268.539873 L1139.70329,0.129547511 C966.01868,75.7893394 960.612553,227.106081 788.720996,262.230036" id="Fill-4" fill="#C5DEFF" mask="url(#mask-4)"></path>
                </g>
                <g id="Group-9" transform="translate(0.000000, 170.000000)">
                    <mask id="mask-6" fill="white">
                        <use xlink:href="#path-5"></use>
                    </mask>
                    <g id="Clip-8"></g>
                    <path d="M0,468.64439 C149.242169,516.719178 273.249093,533.485822 384.285596,533.580902 L384.285596,533.580902 L386.203617,533.580902 C511.919864,533.471631 621.048285,512.040411 731.396232,490.609191 L731.396232,490.609191 C929.330004,452.167241 1131.22475,413.723873 1439.97923,498.331923 L1439.97923,498.331923 L1439.97923,350.796804 C1439.97923,350.796804 1263.57954,326.510358 1117.78157,366.087586 L1117.78157,366.087586 C780.285173,457.84931 769.488321,265.334456 538.191495,259.039337 L538.191495,259.039337 L475.19353,259.039337 L522.89276,214.059602 L317.69436,203.260265 L190.798338,298.620822 C190.798338,298.620822 190.798338,194.266021 127.794695,180.773236 L127.794695,180.773236 C65.6968227,167.277613 69.2986128,134.892374 54.9013901,69.2236074 L54.9013901,69.2236074 C47.7006493,36.8355305 23.4024079,15.2439523 0,0.851458886 L0,0.851458886 L0,468.64439 Z M1439.97923,350.796804 L1439.97923,349.898515 L1439.97923,350.796804 Z" id="Fill-7" fill="#AFD9FF" mask="url(#mask-6)"></path>
                </g>
            </g>
        </g>
    </g>
</svg>