<?xml version="1.0" encoding="utf-8"?>
<!-- Generator: Adobe Illustrator 25.0.0, SVG Export Plug-In . SVG Version: 6.00 Build 0)  -->
<svg version="1.1" id="Layer_1" xmlns="http://www.w3.org/2000/svg" xmlns:xlink="http://www.w3.org/1999/xlink" x="0px" y="0px"
	 viewBox="0 0 286 283" style="enable-background:new 0 0 286 283;" xml:space="preserve">
<style type="text/css">
	.st0{opacity:0.2656;}
	.st1{fill-rule:evenodd;clip-rule:evenodd;fill:#90CCFF;}
	.st2{fill-rule:evenodd;clip-rule:evenodd;fill:#4DBCFF;}
	.st3{fill:none;stroke:#FFF0DE;stroke-width:1.33;}
	.st4{opacity:0.3;}
	.st5{fill-rule:evenodd;clip-rule:evenodd;fill:#2BA0FF;}
	.st6{fill-rule:evenodd;clip-rule:evenodd;fill:#2B9DFF;}
	.st7{fill-rule:evenodd;clip-rule:evenodd;fill:#6EBDFF;}
	.st8{fill:#4DBCFF;}
	.st9{opacity:0.38;fill:#FFFFFF;enable-background:new    ;}
	.st10{fill:#AD3851;}
	.st11{fill:#2E4661;}
	.st12{opacity:0.66;}
	.st13{fill:#FFFFFF;}
	.st14{fill:#5065FF;}
	.st15{fill:#E5E5E5;}
	.st16{fill:#8C8C8C;}
	.st17{fill:#ADADAD;}
	.st18{fill:#707070;}
	.st19{fill:#026C84;}
	.st20{fill:#88D9F2;}
	.st21{fill:#CECECE;}
	.st22{fill:#72CCE8;}
	.st23{fill:#DBDBDB;}
	.st24{fill:#F2F2F2;}
	.st25{fill:#727272;}
	.st26{opacity:0.38;fill:#4DBCFF;enable-background:new    ;}
</style>
<desc>Created with Sketch.</desc>
<g id="Page-1_1_">
	<g id="Home_1_" transform="translate(-830.000000, -2462.000000)">
		<g id="Group-28" transform="translate(830.000000, 2444.000000)">
			<g id="Group-27">
				<g id="Group-25">
					<g id="Group-13">
						<g id="Group-12-Copy-3" transform="translate(0.000000, 78.000000)" class="st0">
							<path id="Fill-1_5_" class="st1" d="M19.8,34.7c0.4-6.9,1.4-14.1,5.2-19.9c5.6-8.6,16.5-12.6,26.8-13
								C68.1,1.2,83.9,7.9,98,16.1s27.4,18,42.4,24.4c27.5,11.8,58.5,11.4,88.3,13.7c9.9,0.8,20.3,2.1,27.9,8.4
								c6.4,5.2,9.8,13.3,11.1,21.4c3.3,21.3-7.6,43.1-24.1,57.2c-16.5,14-37.8,21.3-59.1,25.5c-23.7,4.7-48.4,5.8-71.9,0.1
								C68.8,156,37.3,121.5,25,79C20.9,64.7,19,49.6,19.8,34.7"/>
							<g id="Group-5_1_">
								<g id="Clip-4_1_">
								</g>
								<path id="Fill-3_5_" class="st2" d="M158.1,36c22.4-14.1,44.7-31,71-33.7c8.6-0.9,17.7-0.1,25.5,3.7
									c11,5.3,18.5,16.1,23.1,27.4c10.1,24.9,8.1,53,4.2,79.7c-2.7,19-6.4,38.2-16.1,54.8c-13.1,22.4-36.2,37.8-61.1,45.1
									s-51.5,7.1-77.2,3.4c-25.2-3.6-50.3-10.5-72.1-23.6s-40.3-32.7-48.9-56.6c-3.2-8.8-5-18.4-2.3-27.4
									c7.4-25.1,48-26,68.2-32.7C102.4,66.3,131.3,52.8,158.1,36"/>
							</g>
							<path id="Stroke-6_1_" class="st3" d="M159.3,193.3c-9.2,0-19.1-0.8-29.6-2.2c-25.5-3.6-46-10.3-62.9-20.4
								c-10.9-6.5-20.7-15-28.3-25.2c-5.6-7.6-18.3-25.8-8.4-34.1c3-2.5,6.9-3.6,10.8-4.3c5.9-1.1,11.7-2.2,17.6-3.4
								c7.2-1.5,14-2.9,20.3-5c32.1-10.6,62.8-25,91.2-42.9c3.4-2.1,6.8-4.3,10.1-6.5c17.4-11.2,33.8-21.9,50.3-23.6
								c1.3-0.1,2.6-0.2,3.8-0.2c3.4,0,6.2,0.5,8.3,1.5c9.7,4.7,13.5,20,15,29.6c5,30.8,1,78.6-18.7,104.3
								C220.3,185,188.4,193.3,159.3,193.3z"/>
							<path id="Stroke-8_1_" class="st3" d="M160.6,169.6c-18.9,0-38.9-3.5-56.5-8.8c-8.9-2.7-17.7-6.2-25.6-11.3
								c-1.8-1.2-21.3-18-19.3-19.2c3.7-2.2,8-2.9,12.1-3.7c30-6,58.5-18.2,85.3-32.9c11.4-6.2,22.3-13.3,33.5-20
								c4.8-2.8,37.4-25.9,42-22.2c1,0.8,1.4,2.3,1.7,3.6c3.3,16.2,2,35.9,0,52.4c-2,16-7.4,32.2-18.8,43.6
								c-11.7,11.7-28.5,17.1-44.9,18.2C167,169.5,163.8,169.6,160.6,169.6z"/>
							<path id="Stroke-10_1_" class="st3" d="M160.4,143.9c-13.2,0-27.9-2-42.1-5.6c16.1-5.9,32.7-13.5,50.1-22.9
								c7.9-4.3,15.4-8.8,22.7-13.2c4-2.4,7.7-4.6,11.5-6.8c1.3-0.8,2.9-1.8,6-3.8c0.5-0.3,1-0.6,1.5-1c-0.3,4.3-0.8,8.9-1.4,13.8
								c-1.1,8.9-4,21-11.7,28.6c-6.2,6.1-16.5,10-28.9,10.7c-2.4,0.2-5,0.2-7.6,0.2L160.4,143.9z"/>
						</g>
					</g>
				</g>
			</g>
		</g>
	</g>
</g>
<g id="Group-102-Copy-9" transform="translate(452.851955, 299.473282)" class="st4">
	<path id="Fill-1_4_" class="st5" d="M-413.1-197h3.9c-0.3-3.6-0.3-7.1,0-10.7h-3.9C-412.7-204.1-412.7-200.6-413.1-197"/>
	<path id="Fill-3_4_" class="st5" d="M-425.1-193.1l3.6-1.9c-2.3-2.6-4.2-5.5-5.5-8.8l-3.6,1.9
		C-428.3-199.3-426.4-196.3-425.1-193.1"/>
	<path id="Fill-5_2_" class="st5" d="M-433.8-182.7l1.9-3.6c-3.2-1.3-6.2-3.2-8.8-5.5l-1.9,3.6
		C-439.7-186.6-436.7-184.7-433.8-182.7"/>
	<path id="Fill-7_2_" class="st5" d="M-437.4-170.4v-3.9c-3.6,0.3-7.1,0.3-10.7,0v3.9C-444.5-170.7-441-170.7-437.4-170.4"/>
	<path id="Fill-9_2_" class="st5" d="M-431.9-157.7l-1.9-3.6c-2.6,2.3-5.5,4.2-8.8,5.5l1.9,3.6C-438-154.5-435.1-156.4-431.9-157.7"
		/>
	<path id="Fill-11_1_" class="st5" d="M-421.5-149.6l-3.6-1.9c-1.3,3.2-3.2,6.2-5.5,8.8l3.6,1.9C-425.4-144.1-423.8-147-421.5-149.6
		"/>
	<path id="Fill-13_2_" class="st5" d="M-409.2-147h-3.9c0.3,3.6,0.3,7.1,0,10.7h3.9C-409.8-139.9-409.8-143.4-409.2-147"/>
	<path id="Fill-15_2_" class="st5" d="M-396.5-151.6l-3.6,1.9c2.3,2.6,4.2,5.5,5.5,8.8l3.6-1.9
		C-393.3-145.4-395.2-148.3-396.5-151.6"/>
	<path id="Fill-17_2_" class="st5" d="M-387.7-161.3l-1.9,3.6c3.2,1.3,6.2,3.2,8.8,5.5l1.9-3.6C-382.2-157.4-384.8-159-387.7-161.3"
		/>
	<path id="Fill-19_2_" class="st5" d="M-384.2-174.3v3.9c3.6-0.3,7.1-0.3,10.7,0v-3.9C-377-174-380.6-174-384.2-174.3"/>
	<path id="Fill-21_2_" class="st5" d="M-389.7-186.3l1.9,3.6c2.6-2.3,5.5-4.2,8.8-5.5l-1.9-3.6
		C-383.5-189.5-386.4-187.6-389.7-186.3"/>
	<path id="Fill-23_2_" class="st5" d="M-400.1-195.1l3.6,1.9c1.3-3.2,3.2-6.2,5.5-8.8l-3.6-1.9
		C-396.2-200.6-397.8-197.6-400.1-195.1"/>
	<path id="Fill-25_2_" class="st5" d="M-381.9-172.7c0,15.6-13,27.9-28.9,27.9s-28.9-12.7-28.9-27.9s13-27.9,28.9-27.9
		C-394.9-200.9-381.9-188.2-381.9-172.7"/>
	<path id="Fill-27_2_" class="st5" d="M-381.9-172.7c0,3.2-0.6,6.5-1.6,9.7c-0.6,1.9-1.6,3.6-2.6,5.5c-3.6,5.5-9.1,9.7-15.3,11.7
		c-2.9,1-5.8,1.3-9.1,1.3c-15.9,0-28.9-12.7-28.9-27.9c0-2.9,0.6-5.8,1.3-8.8c1.9-6.2,6.5-11.4,12-14.9c1.6-1,3.6-1.9,5.5-2.6
		c2.9-1,6.5-1.6,9.7-1.6C-394.9-200.9-381.9-188.2-381.9-172.7"/>
	<path id="Fill-29_1_" class="st6" d="M-400.1-153.5c0,3.2-0.6,6.2-1.3,9.1c-2.9,1-5.8,1.3-9.1,1.3c-15.9,0-28.9-13-28.9-28.9
		c0-3.2,0.6-6.2,1.3-9.1c2.9-1,5.8-1.3,9.1-1.3C-413.1-182.7-400.1-169.7-400.1-153.5"/>
	<path id="Fill-31_1_" class="st7" d="M-381.9-172c0,3.6-0.6,6.8-1.6,9.7c-0.6,1.9-1.6,3.9-2.6,5.5c-4.5,2.9-9.7,4.5-15.3,4.5
		c-15.9,0-28.9-13-28.9-28.9c0-5.5,1.6-11,4.5-15.3c1.6-1,3.6-1.9,5.5-2.6c2.9-1,6.5-1.6,9.7-1.6
		C-394.9-200.9-381.9-187.9-381.9-172"/>
	<path id="Fill-33_1_" class="st7" d="M-404-188.2c0,1-1,1.9-1.9,1.9c-1,0-1.9-1-1.9-1.9c0-1,1-1.9,1.9-1.9
		C-404.9-190.2-404-189.2-404-188.2"/>
	<path id="Fill-35_2_" class="st6" d="M-388.7-167.8c0,1-1,1.9-1.9,1.9c-1,0-1.9-1-1.9-1.9c0-1,1-1.9,1.9-1.9
		S-388.7-168.8-388.7-167.8"/>
	<path id="Fill-37_2_" class="st6" d="M-426.7-173.3c0,1.9-1.6,3.9-3.9,3.9c-1.9,0-3.9-1.6-3.9-3.9c0-1.9,1.6-3.9,3.9-3.9
		S-426.7-175.6-426.7-173.3"/>
	<path id="Fill-39_1_" class="st6" d="M-401.7-179.1c0,1.9-1.6,3.6-3.6,3.6s-3.6-1.6-3.6-3.6c0-1.9,1.6-3.6,3.6-3.6
		S-401.7-181.1-401.7-179.1"/>
	<path id="Fill-41_2_" class="st6" d="M-397.8-154.8c0,0.6-0.6,1.3-1.3,1.3c-0.6,0-1.3-0.6-1.3-1.3c0-0.6,0.6-1.3,1.3-1.3
		C-398.5-156.1-397.8-155.5-397.8-154.8"/>
	<path id="Fill-43_2_" class="st7" d="M-417.6-187.9c0,1.9-1.6,3.9-3.9,3.9c-1.9,0-3.9-1.6-3.9-3.9c0-1.9,1.6-3.9,3.9-3.9
		S-417.6-189.9-417.6-187.9"/>
	<path id="Fill-45_1_" class="st6" d="M-410.8-192.8c0,0.6-0.6,1.3-1.3,1.3c-0.6,0-1.3-0.6-1.3-1.3c0-0.6,0.6-1.3,1.3-1.3
		S-410.8-193.4-410.8-192.8"/>
	<path id="Fill-47_1_" class="st6" d="M-391-185.3c0,0.6-0.6,1.3-1.3,1.3c-0.6,0-1.3-0.6-1.3-1.3c0-0.6,0.6-1.3,1.3-1.3
		C-391.6-186.3-391-186-391-185.3"/>
	<path id="Fill-49_1_" class="st7" d="M-413.7-156.1c0,1.9-1.6,3.9-3.9,3.9c-1.9,0-3.9-1.6-3.9-3.9s1.6-3.9,3.9-3.9
		C-415.7-159.7-413.7-158.1-413.7-156.1"/>
	<path id="Fill-51_1_" class="st7" d="M-385.8-179.8c0,0.6-1,1.3-1.9,1.3s-1.9-0.6-1.9-1.3c0-0.6,1-1.3,1.9-1.3
		S-385.8-180.4-385.8-179.8"/>
	<path id="Fill-53_1_" class="st6" d="M-405.6-208.7c0,1.6-2.6,2.6-6.2,2.6s-6.2-1.3-6.2-2.6s2.6-2.6,6.2-2.6
		S-405.6-210.3-405.6-208.7"/>
	<path id="Fill-55_1_" class="st6" d="M-407.9-208.7c0,0.6-1.6,1.3-3.6,1.3c-1.9,0-3.6-0.6-3.6-1.3s1.6-1.3,3.6-1.3
		C-409.2-210-407.9-209.3-407.9-208.7"/>
	<path id="Fill-57_2_" class="st6" d="M-405.6-136.6c0,1.6-2.6,2.6-6.2,2.6s-6.2-1.3-6.2-2.6s2.6-2.6,6.2-2.6
		C-408.2-139.2-405.6-138.3-405.6-136.6"/>
	<path id="Fill-59_2_" class="st6" d="M-407.9-136.6c0,0.6-1.6,1.3-3.6,1.3c-1.9,0-3.6-0.6-3.6-1.3c0-0.6,1.6-1.3,3.6-1.3
		C-409.2-137.9-407.9-137.3-407.9-136.6"/>
	<path id="Fill-61_2_" class="st6" d="M-387.4-200.9c-0.6,1.3-3.6,1-6.5-0.6s-4.5-3.9-3.9-5.2s3.6-1,6.5,0.6
		C-388.4-204.5-386.8-201.9-387.4-200.9"/>
	<path id="Fill-63_1_" class="st6" d="M-389.7-202.5c-0.3,0.6-2.3,0.3-4.2-0.6c-1.9-1-2.9-1.9-2.6-2.6c0.3-0.6,2.3-0.3,4.2,0.6
		C-390.3-204.5-389.4-203.2-389.7-202.5"/>
	<path id="Fill-65_2_" class="st6" d="M-423.8-137.9c-0.6,1.3-3.6,1-6.5-0.6s-4.5-3.9-3.9-5.2s3.6-1,6.5,0.6
		C-424.7-141.5-423.1-139.2-423.8-137.9"/>
	<path id="Fill-67_2_" class="st6" d="M-426.7-139.6c-0.3,0.6-2.3,0.3-4.2-0.6c-1.9-1-2.9-1.9-2.6-2.6c0.3-0.6,2.3-0.3,4.2,0.6
		C-427.7-141.5-426.4-140.2-426.7-139.6"/>
	<path id="Fill-69_1_" class="st6" d="M-376.1-185c-1.3,0.6-3.6-1-5.2-3.9s-1.9-5.8-0.6-6.5c1.3-0.6,3.6,1,5.2,3.9
		S-374.8-185.6-376.1-185"/>
	<path id="Fill-71_2_" class="st6" d="M-377-186.3c-0.6,0.3-1.9-0.6-2.6-2.6c-1-1.9-1-3.6-0.3-4.2c0.6-0.3,1.9,0.6,2.6,2.6
		C-376.7-188.6-376.4-186.9-377-186.3"/>
	<path id="Fill-73_2_" class="st6" d="M-439.7-150.3c-1.3,0.6-3.6-1-5.2-3.9s-1.9-5.8-0.6-6.5c1.3-0.6,3.6,1,5.2,3.9
		C-438.7-153.8-438.4-150.9-439.7-150.3"/>
	<path id="Fill-75_1_" class="st6" d="M-441.6-150.9c-0.6,0.3-1.9-0.6-2.6-2.6c-1-1.9-1-3.6-0.3-4.2c0.6-0.3,1.9,0.6,2.6,2.6
		C-441-153.2-441-151.2-441.6-150.9"/>
	<path id="Fill-77_1_" class="st6" d="M-374.1-166.5c-1.6,0-2.6-2.9-2.6-6.2s1.3-6.2,2.9-6.2s2.6,2.9,2.6,6.2
		C-371.5-169.4-372.8-166.5-374.1-166.5"/>
	<path id="Fill-79_1_" class="st6" d="M-374.1-168.8c-0.6,0-1-1.6-1-3.6c0-1.9,0.6-3.2,1.3-3.2c0.6,0,1,1.6,1,3.6
		C-372.8-170.4-373.5-168.8-374.1-168.8"/>
	<g id="Group-83_1_" transform="translate(0.000000, 42.000000)">
		<g id="Clip-82_1_">
		</g>
		<path id="Fill-81_1_" class="st6" d="M-447.8-208.8c-1.6,0-2.6-2.9-2.6-6.2s1.3-6.2,2.9-6.2s2.6,2.9,2.6,6.2
			C-444.9-211.4-446.2-208.5-447.8-208.8"/>
	</g>
	<path id="Fill-84_1_" class="st6" d="M-447.8-168.8c-0.6,0-1-1.6-1-3.6c0-1.9,0.6-3.2,1.3-3.2c0.6,0,1,1.6,1,3.6
		C-446.5-170.4-447.1-168.8-447.8-168.8"/>
	<path id="Fill-86_1_" class="st6" d="M-381.9-150.3c-1.3-0.6-1-3.6,0.6-6.5s3.9-4.5,5.2-3.9c1.3,0.6,1,3.6-0.6,6.5
		S-380.6-149.3-381.9-150.3"/>
	<path id="Fill-88_1_" class="st6" d="M-380.3-150.9c-0.6-0.3-0.3-2.3,0.3-4.2c1-1.9,1.9-2.9,2.6-2.6c0.6,0.3,0.3,2.3-0.3,4.2
		C-378.3-151.6-379.6-150.3-380.3-150.9"/>
	<path id="Fill-90_1_" class="st6" d="M-445.5-185c-1.3-0.6-1-3.6,0.6-6.5s3.9-4.5,5.2-3.9c1.3,0.6,1,3.6-0.6,6.5
		S-444.5-184.3-445.5-185"/>
	<path id="Fill-92_1_" class="st6" d="M-444.5-187.9c-0.6-0.3-0.3-2.3,0.3-4.2c0.6-1.9,1.9-2.9,2.6-2.6c0.6,0.3,0.3,2.3-0.3,4.2
		C-442.9-188.6-443.9-187.6-444.5-187.9"/>
	<path id="Fill-94_1_" class="st6" d="M-397.8-137.9c-0.6-1.3,1-3.6,3.9-5.2c2.9-1.6,5.8-1.9,6.5-0.6c0.6,1.3-1,3.6-3.9,5.2
		C-394.2-137-397.2-136.6-397.8-137.9"/>
	<path id="Fill-96_1_" class="st6" d="M-396.2-139.6c-0.3-0.6,0.6-1.6,2.6-2.6c1.9-1,3.6-1,4.2-0.6c0.3,0.6-0.6,1.6-2.6,2.6
		C-393.9-139.2-395.9-139.2-396.2-139.6"/>
	<path id="Fill-98_1_" class="st6" d="M-434.1-200.9c-0.6-1.3,1-3.6,3.9-5.2c2.9-1.6,5.8-1.9,6.5-0.6c0.6,1.3-1,3.6-3.9,5.2
		C-430.6-199.9-433.5-199.6-434.1-200.9"/>
	<path id="Fill-100_1_" class="st6" d="M-433.5-202.5c-0.3-0.6,0.6-1.6,2.6-2.6c1.9-1,3.6-1,4.2-0.6c0.3,0.6-0.6,1.6-2.6,2.6
		C-431.2-202.2-433.2-201.9-433.5-202.5"/>
</g>
<g id="Group-102-Copy-9_1_" transform="translate(452.851955, 299.473282)" class="st4">
	<path id="Fill-1_3_" class="st5" d="M-232.1-249.2h2.2c0-2.2,0-4.5,0-6.7h-2.2C-232.1-253.7-232.1-251.4-232.1-249.2"/>
	<path id="Fill-3_3_" class="st5" d="M-239.9-247l2.2-1.1c-1.7-1.7-2.8-3.3-3.3-5.6l-2.2,1.1C-241.6-250.3-240.5-248.6-239.9-247"/>
	<path id="Fill-5_1_" class="st5" d="M-245.5-240.3l1.1-2.2c-2.2-1.1-3.9-2.2-5.6-3.3l-1.1,2.2
		C-248.9-242.5-247.2-241.4-245.5-240.3"/>
	<path id="Fill-7_1_" class="st5" d="M-247.2-232.5v-2.2c-2.2,0-4.5,0-6.7,0v2.2C-251.6-232.5-249.4-232.5-247.2-232.5"/>
	<path id="Fill-9_1_" class="st5" d="M-243.8-224.7l-1.1-2.2c-1.7,1.7-3.3,2.8-5.6,3.3l1.1,2.2
		C-247.7-222.4-246.1-223.5-243.8-224.7"/>
	<path id="Fill-11_2_" class="st5" d="M-237.7-219.6l-2.2-1.1c-1.1,2.2-2.2,3.9-3.3,5.6l2.2,1.1C-239.9-215.7-238.8-218-237.7-219.6
		"/>
	<path id="Fill-13_1_" class="st5" d="M-229.9-218h-2.2c0,2.2,0,4.5,0,6.7h2.2C-229.9-213.5-229.9-215.7-229.9-218"/>
	<path id="Fill-15_1_" class="st5" d="M-222.1-220.7l-2.2,1.1c1.7,1.7,2.8,3.3,3.3,5.6l2.2-1.1C-219.8-216.8-221-218.5-222.1-220.7"
		/>
	<path id="Fill-17_1_" class="st5" d="M-216.5-226.9l-1.1,2.2c2.2,1.1,3.9,2.2,5.6,3.3l1.1-2.2
		C-212.6-224.1-214.8-225.2-216.5-226.9"/>
	<path id="Fill-19_1_" class="st5" d="M-214.3-234.7v2.2c2.2,0,4.5,0,6.7,0v-2.2C-209.8-234.7-212-234.7-214.3-234.7"/>
	<path id="Fill-21_1_" class="st5" d="M-217.6-242.5l1.1,2.2c1.7-1.7,3.3-2.8,5.6-3.3l-1.1-2.2
		C-213.7-244.2-215.4-243.1-217.6-242.5"/>
	<path id="Fill-23_1_" class="st5" d="M-224.3-248.1l2.2,1.1c1.1-2.2,2.2-3.9,3.3-5.6l-2.2-1.1
		C-221.5-251.4-222.6-249.8-224.3-248.1"/>
	<path id="Fill-25_1_" class="st5" d="M-212.6-234.1c0,9.5-8.4,17.9-17.9,17.9c-10,0-17.9-7.8-17.9-17.9c0-10,8.4-17.9,17.9-17.9
		C-221-251.4-212.6-243.6-212.6-234.1"/>
	<path id="Fill-27_1_" class="st5" d="M-212.6-234.1c0,2.2-0.6,3.9-1.1,6.1c-0.6,1.1-1.1,2.2-1.7,3.3c-2.2,3.3-5.6,6.1-9.5,7.3
		c-1.7,0.6-3.9,1.1-5.6,1.1c-10,0-17.9-7.8-17.9-17.9c0-1.7,0.6-3.9,1.1-5.6c1.1-3.9,3.9-7.3,7.8-9.5c1.1-0.6,2.2-1.1,3.3-1.7
		c1.7-0.6,3.9-1.1,6.1-1.1C-221-251.4-212.6-243.6-212.6-234.1"/>
	<path id="Fill-29_2_" class="st6" d="M-224.3-221.9c0,2.2-0.6,3.9-1.1,5.6c-1.7,0.6-3.9,1.1-5.6,1.1c-10,0-18.4-8.4-18.4-18.4
		c0-2.2,0.6-3.9,1.1-5.6c1.7-0.6,3.9-1.1,5.6-1.1C-232.1-240.3-224.3-231.9-224.3-221.9"/>
	<path id="Fill-31_2_" class="st7" d="M-212.6-233.6c0,2.2-0.6,4.5-1.1,6.1c-0.6,1.1-1.1,2.2-1.7,3.3c-2.8,1.7-6.1,2.8-9.5,2.8
		c-10,0-17.9-7.8-17.9-17.9c0-3.3,1.1-6.7,2.8-9.5c1.1-0.6,2.2-1.1,3.3-1.7c1.7-0.6,3.9-1.1,6.1-1.1
		C-221-251.4-212.6-243.6-212.6-233.6"/>
	<path id="Fill-33_2_" class="st7" d="M-226.5-243.6c0,0.6-0.6,1.1-1.1,1.1s-1.1-0.6-1.1-1.1c0-0.6,0.6-1.1,1.1-1.1
		S-226.5-244.2-226.5-243.6"/>
	<path id="Fill-35_1_" class="st6" d="M-217-230.8c0,0.6-0.6,1.1-1.1,1.1c-0.6,0-1.1-0.6-1.1-1.1c0-0.6,0.6-1.1,1.1-1.1
		C-217.6-231.9-217-231.4-217-230.8"/>
	<path id="Fill-37_1_" class="st6" d="M-241-234.1c0,1.1-1.1,2.2-2.2,2.2c-1.1,0-2.2-1.1-2.2-2.2s1.1-2.2,2.2-2.2
		C-242.2-236.4-241-235.8-241-234.1"/>
	<path id="Fill-39_2_" class="st6" d="M-224.9-238c0,1.1-1.1,2.2-2.2,2.2c-1.1,0-2.2-1.1-2.2-2.2c0-1.1,1.1-2.2,2.2-2.2
		C-226-240.3-224.9-239.2-224.9-238"/>
	<path id="Fill-41_1_" class="st6" d="M-222.6-223c0,0.6-0.6,0.6-0.6,0.6c-0.6,0-0.6-0.6-0.6-0.6l0.6-0.6L-222.6-223"/>
	<path id="Fill-43_1_" class="st7" d="M-234.9-243.6c0,1.1-1.1,2.2-2.2,2.2c-1.1,0-2.2-1.1-2.2-2.2c0-1.1,1.1-2.2,2.2-2.2
		C-236-245.9-234.9-244.7-234.9-243.6"/>
	<path id="Fill-45_2_" class="st6" d="M-231-246.4c0,0.6-0.6,0.6-0.6,0.6c-0.6,0-0.6-0.6-0.6-0.6c0-0.6,0.6-0.6,0.6-0.6
		C-231-247-231-247-231-246.4"/>
	<path id="Fill-47_2_" class="st6" d="M-218.2-242c0,0.6-0.6,0.6-0.6,0.6c-0.6,0-0.6-0.6-0.6-0.6c0-0.6,0.6-0.6,0.6-0.6
		C-218.7-242.5-218.2-242-218.2-242"/>
	<path id="Fill-49_2_" class="st7" d="M-232.7-223.5c0,1.1-1.1,2.2-2.2,2.2c-1.1,0-2.2-1.1-2.2-2.2c0-1.1,1.1-2.2,2.2-2.2
		C-233.8-225.8-232.7-224.7-232.7-223.5"/>
	<path id="Fill-51_2_" class="st7" d="M-214.8-238.6c0,0.6-0.6,0.6-1.1,0.6c-0.6,0-1.1-0.6-1.1-0.6c0-0.6,0.6-0.6,1.1-0.6
		C-215.4-239.2-214.8-238.6-214.8-238.6"/>
	<path id="Fill-53_2_" class="st6" d="M-227.6-256.5c0,1.1-1.7,1.7-3.9,1.7s-3.9-0.6-3.9-1.7c0-1.1,1.7-1.7,3.9-1.7
		C-229.3-258.1-227.6-257.6-227.6-256.5"/>
	<path id="Fill-55_2_" class="st6" d="M-228.8-256.5c0,0.6-1.1,0.6-2.2,0.6c-1.1,0-2.2-0.6-2.2-0.6s1.1-0.6,2.2-0.6
		S-228.8-257-228.8-256.5"/>
	<path id="Fill-57_1_" class="st6" d="M-227.6-211.3c0,1.1-1.7,1.7-3.9,1.7s-3.9-0.6-3.9-1.7c0-1.1,1.7-1.7,3.9-1.7
		C-229.3-212.9-227.6-212.4-227.6-211.3"/>
	<path id="Fill-59_1_" class="st6" d="M-228.8-211.3c0,0.6-1.1,0.6-2.2,0.6c-1.1,0-2.2-0.6-2.2-0.6c0-0.6,1.1-0.6,2.2-0.6
		C-229.9-211.8-228.8-211.8-228.8-211.3"/>
	<path id="Fill-61_1_" class="st6" d="M-215.9-251.4c-0.6,0.6-2.2,0.6-3.9-0.6c-1.7-1.1-2.8-2.8-2.2-3.3c0.6-0.6,2.2-0.6,3.9,0.6
		C-216.5-253.7-215.9-252.6-215.9-251.4"/>
	<path id="Fill-63_2_" class="st6" d="M-217.6-252.6c0,0.6-1.7,0-2.8-0.6s-1.7-1.1-1.7-1.7c0-0.6,1.7,0,2.8,0.6
		S-217-253.1-217.6-252.6"/>
	<path id="Fill-65_1_" class="st6" d="M-238.8-211.8c-0.6,0.6-2.2,0.6-3.9-0.6c-1.7-1.1-2.8-2.8-2.2-3.3c0.6-0.6,2.2-0.6,3.9,0.6
		C-239.4-214.1-238.2-212.9-238.8-211.8"/>
	<path id="Fill-67_1_" class="st6" d="M-241-212.9c0,0.6-1.7,0-2.8-0.6s-1.7-1.1-1.7-1.7c0-0.6,1.7,0,2.8,0.6
		C-241-214.1-240.5-213.5-241-212.9"/>
	<path id="Fill-69_2_" class="st6" d="M-208.7-241.4c-0.6,0.6-2.2-0.6-3.3-2.2c-1.1-1.7-1.1-3.3-0.6-3.9c0.6-0.6,2.2,0.6,3.3,2.2
		C-208.1-243.6-208.1-242-208.7-241.4"/>
	<path id="Fill-71_1_" class="st6" d="M-209.8-242.5c-0.6,0-1.1-0.6-1.7-1.7c-0.6-1.1-0.6-2.2-0.6-2.8c0.6,0,1.1,0.6,1.7,1.7
		C-209.2-244.2-209.2-242.5-209.8-242.5"/>
	<path id="Fill-73_1_" class="st6" d="M-248.9-219.6c-0.6,0.6-2.2-0.6-3.3-2.2c-1.1-1.7-1.1-3.3-0.6-3.9c0.6-0.6,2.2,0.6,3.3,2.2
		C-248.3-221.9-248.3-220.2-248.9-219.6"/>
	<path id="Fill-75_2_" class="st6" d="M-250-220.2c-0.6,0-1.1-0.6-1.7-1.7c-0.6-1.1-0.6-2.2-0.6-2.8c0.6,0,1.1,0.6,1.7,1.7
		C-250-221.3-249.4-220.2-250-220.2"/>
	<path id="Fill-77_2_" class="st6" d="M-207.6-230.2c-1.1,0-1.7-1.7-1.7-3.9s0.6-3.9,1.7-3.9c1.1,0,1.7,1.7,1.7,3.9
		C-205.9-231.9-207-230.2-207.6-230.2"/>
	<path id="Fill-79_2_" class="st6" d="M-207.6-231.4c-0.6,0-0.6-1.1-0.6-2.2c0-1.1,0.6-2.2,0.6-2.2c0.6,0,0.6,1.1,0.6,2.2
		S-207.6-231.4-207.6-231.4"/>
	<g id="Group-83_2_" transform="translate(0.000000, 42.000000)">
		<g id="Clip-82_2_">
		</g>
		<path id="Fill-81_2_" class="st6" d="M-253.9-272.2c-1.1,0-1.7-1.7-1.7-3.9c0-2.2,0.6-3.9,1.7-3.9s1.7,1.7,1.7,3.9
			S-252.8-272.2-253.9-272.2"/>
	</g>
	<path id="Fill-84_2_" class="st6" d="M-253.9-231.4c-0.6,0-0.6-1.1-0.6-2.2c0-1.1,0.6-2.2,0.6-2.2c0.6,0,0.6,1.1,0.6,2.2
		C-253.3-232.5-253.3-231.4-253.9-231.4"/>
	<path id="Fill-86_2_" class="st6" d="M-212.6-219.6c-0.6-0.6-0.6-2.2,0.6-3.9c1.1-1.7,2.8-2.8,3.3-2.2c0.6,0.6,0.6,2.2-0.6,3.9
		C-210.4-220.2-212-219.1-212.6-219.6"/>
	<path id="Fill-88_2_" class="st6" d="M-211.5-220.2c-0.6,0,0-1.7,0.6-2.8s1.1-1.7,1.7-1.7c0.6,0,0,1.7-0.6,2.8
		C-210.4-220.7-210.9-219.6-211.5-220.2"/>
	<path id="Fill-90_2_" class="st6" d="M-252.8-241.4c-0.6-0.6-0.6-2.2,0.6-3.9c1.1-1.7,2.8-2.8,3.3-2.2c0.6,0.6,0.6,2.2-0.6,3.9
		C-250.5-242.5-251.6-241.4-252.8-241.4"/>
	<path id="Fill-92_2_" class="st6" d="M-252.2-243.6c-0.6,0,0-1.7,0.6-2.8s1.1-1.7,1.7-1.7c0.6,0,0,1.7-0.6,2.8
		S-251.6-243.1-252.2-243.6"/>
	<path id="Fill-94_2_" class="st6" d="M-222.6-211.8c-0.6-0.6,0.6-2.2,2.2-3.3c1.7-1.1,3.3-1.1,3.9-0.6c0.6,0.6-0.6,2.2-2.2,3.3
		C-220.4-211.3-222.1-211.3-222.6-211.8"/>
	<path id="Fill-96_2_" class="st6" d="M-221.5-212.9c0-0.6,0.6-1.1,1.7-1.7c1.1-0.6,2.2-0.6,2.8-0.6c0,0.6-0.6,1.1-1.7,1.7
		C-220.4-212.9-221.5-212.9-221.5-212.9"/>
	<path id="Fill-98_2_" class="st6" d="M-245.5-251.4c-0.6-0.6,0.6-2.2,2.2-3.3c1.7-1.1,3.3-1.1,3.9-0.6c0.6,0.6-0.6,2.2-2.2,3.3
		C-243.3-250.9-244.9-250.9-245.5-251.4"/>
	<path id="Fill-100_2_" class="st6" d="M-244.9-252.6c0-0.6,0.6-1.1,1.7-1.7c1.1-0.6,2.2-0.6,2.8-0.6c0,0.6-0.6,1.1-1.7,1.7
		C-243.8-252.6-244.9-252.6-244.9-252.6"/>
</g>
<g id="Group-102-Copy-9_2_" transform="translate(452.851955, 299.473282)" class="st4">
	<path id="Fill-1_2_" class="st5" d="M-215-50l1.3,0.8c0.5-1.3,1.3-2.6,2.1-3.7l-1.3-0.8C-213.5-52.4-214.3-51.1-215-50"/>
	<path id="Fill-3_2_" class="st5" d="M-220-51.1h1.6c-0.3-1.3-0.3-2.9-0.3-4.2h-1.6C-220-53.7-220-52.4-220-51.1"/>
	<path id="Fill-5_3_" class="st5" d="M-225.2-49.2l1.3-0.8c-0.8-1-1.3-2.3-1.8-3.7l-1.3,0.8C-226.3-51.6-225.7-50.5-225.2-49.2"/>
	<path id="Fill-7_3_" class="st5" d="M-228.9-45.6l0.8-1.3c-1.3-0.5-2.6-1.3-3.7-2.1l-0.8,1.3C-231.2-47.2-229.9-46.6-228.9-45.6"/>
	<path id="Fill-9_3_" class="st5" d="M-229.7-40.1v-1.6c-1.3,0.3-2.9,0.3-4.2,0.3v1.6C-232.3-40.4-231-40.4-229.7-40.1"/>
	<path id="Fill-11_3_" class="st5" d="M-227.6-35.2l-0.8-1.3c-1,0.8-2.3,1.3-3.7,1.8l0.8,1.3C-230.2-34.1-228.9-34.9-227.6-35.2"/>
	<path id="Fill-13_3_" class="st5" d="M-223.9-32l-1.3-0.8c-0.5,1.3-1.3,2.6-2.1,3.7l1.3,0.8C-225.5-29.7-224.7-30.7-223.9-32"/>
	<path id="Fill-15_3_" class="st5" d="M-218.7-31h-1.6c0.3,1.3,0.3,2.9,0.3,4.2h1.6C-218.7-28.1-218.7-29.7-218.7-31"/>
	<path id="Fill-17_3_" class="st5" d="M-213.5-32.5l-1.3,0.8c0.8,1,1.3,2.3,1.8,3.7l1.3-0.8C-212.4-29.9-213-31.2-213.5-32.5"/>
	<path id="Fill-19_3_" class="st5" d="M-209.8-36.5l-0.8,1.3c1.3,0.5,2.6,1.3,3.7,2.1l0.8-1.3C-207.5-34.9-208.5-35.4-209.8-36.5"/>
	<path id="Fill-21_3_" class="st5" d="M-209.3-41.4v1.6c1.3-0.3,2.9-0.3,4.2-0.3v-1.6C-206.4-41.4-207.7-41.4-209.3-41.4"/>
	<path id="Fill-23_3_" class="st5" d="M-211.1-46.6l0.8,1.3c1-0.8,2.3-1.3,3.7-1.8l-0.8-1.3C-208.5-47.9-209.8-47.2-211.1-46.6"/>
	<path id="Fill-25_3_" class="st5" d="M-209.3-35.4c-3.1,5.5-10.2,7-15.7,3.9s-7.3-10.2-4.4-15.4c3.1-5.5,10.2-7,15.7-3.9
		C-208-47.7-206.2-40.6-209.3-35.4"/>
	<path id="Fill-27_3_" class="st5" d="M-209.3-35.4c-0.8,1-1.6,2.1-2.6,2.9c-0.5,0.5-1.3,1-2.1,1.3c-2.3,1.3-5,1.6-7.6,1
		c-1-0.3-2.3-0.8-3.4-1.3c-5.5-3.1-7.3-10.2-4.4-15.4c0.5-1,1.3-2.1,2.3-2.6c2.1-1.8,4.4-2.6,7-2.9c0.8,0,1.6,0,2.3,0.3
		c1.3,0.3,2.6,0.8,3.7,1.3C-208-47.7-206.2-40.6-209.3-35.4"/>
	<path id="Fill-29_3_" class="st6" d="M-219.5-32.5c-0.5,1-1.3,2.1-2.3,2.9c-1-0.3-2.3-0.8-3.4-1.3c-5.5-3.1-7.3-10.2-4.2-15.9
		c0.5-1,1.3-2.1,2.3-2.9c1,0.3,2.3,0.8,3.4,1.3C-218.2-45.1-216.1-38-219.5-32.5"/>
	<path id="Fill-31_3_" class="st7" d="M-209.3-35.2c-0.8,1.3-1.6,2.1-2.6,3.1c-0.5,0.5-1.3,1-2.1,1.3c-2.1,0-4.2-0.5-6.3-1.6
		c-5.5-3.1-7.3-10.2-4.2-15.7c1-1.8,2.9-3.4,4.7-4.4c0.8,0,1.6,0,2.3,0.3c1.3,0.3,2.6,0.8,3.7,1.3C-208-47.7-206.2-40.6-209.3-35.2"
		/>
	<path id="Fill-33_3_" class="st7" d="M-213.7-45.1c-0.3,0.3-0.8,0.5-1,0.3c-0.3-0.3-0.5-0.8-0.3-1s0.8-0.5,1-0.3
		C-213.7-45.9-213.5-45.6-213.7-45.1"/>
	<path id="Fill-35_3_" class="st6" d="M-212.7-35.2c-0.3,0.3-0.8,0.5-1,0.3c-0.3-0.3-0.5-0.8-0.3-1c0.3-0.3,0.8-0.5,1-0.3
		C-212.4-35.9-212.4-35.4-212.7-35.2"/>
	<path id="Fill-37_3_" class="st6" d="M-224.7-44.5c-0.5,0.8-1.3,1-2.1,0.5s-1-1.3-0.5-2.1s1.3-1,2.1-0.5S-224.2-45.3-224.7-44.5"/>
	<path id="Fill-39_3_" class="st6" d="M-214.8-41.4c-0.3,0.5-1.3,0.8-1.8,0.5s-0.8-1.3-0.5-1.8s1.3-0.8,1.8-0.5
		C-214.5-43-214.5-42.2-214.8-41.4"/>
	<path id="Fill-41_3_" class="st6" d="M-218.4-32.3c0,0.3-0.5,0.3-0.5,0.3c-0.3,0-0.3-0.5-0.3-0.5l0.5-0.3
		C-218.2-32.8-218.2-32.5-218.4-32.3"/>
	<path id="Fill-43_3_" class="st7" d="M-218.4-47.7c-0.5,0.8-1.3,1-2.1,0.5s-1-1.3-0.5-2.1s1.3-1,2.1-0.5
		C-218.4-49.5-218.2-48.5-218.4-47.7"/>
	<path id="Fill-45_3_" class="st6" d="M-215.3-48.2c0,0.3-0.5,0.3-0.5,0.3c-0.3,0-0.3-0.5-0.3-0.5c0-0.3,0.5-0.3,0.5-0.3
		C-215-48.5-215-48.2-215.3-48.2"/>
	<path id="Fill-47_3_" class="st6" d="M-209.8-41.4c0,0.3-0.5,0.3-0.5,0.3c-0.3,0-0.3-0.5-0.3-0.5c0-0.3,0.5-0.3,0.5-0.3
		C-209.8-41.9-209.8-41.7-209.8-41.4"/>
	<path id="Fill-49_3_" class="st7" d="M-223.7-35.9c-0.5,0.8-1.3,1-2.1,0.5s-1-1.3-0.5-2.1s1.3-1,2.1-0.5S-223.1-36.7-223.7-35.9"/>
	<path id="Fill-51_3_" class="st7" d="M-209-38.5c0,0.3-0.5,0.3-0.8,0s-0.5-0.5-0.5-0.8s0.5-0.3,0.8,0
		C-209.3-39.1-209-38.8-209-38.5"/>
	<path id="Fill-53_3_" class="st6" d="M-210.1-52.6c-0.3,0.5-1.6,0.3-2.6-0.3c-1-0.8-1.8-1.6-1.6-2.1c0.3-0.5,1.6-0.3,2.6,0.3
		C-210.6-53.9-209.8-52.9-210.1-52.6"/>
	<path id="Fill-55_3_" class="st6" d="M-210.9-52.9c0,0.3-0.8,0-1.3-0.3s-1-0.8-1-1s0.8,0,1.3,0.3
		C-211.4-53.7-210.9-53.2-210.9-52.9"/>
	<path id="Fill-57_3_" class="st6" d="M-224.7-27.6c-0.3,0.5-1.6,0.3-2.6-0.3c-1-0.8-1.8-1.6-1.6-2.1c0.3-0.5,1.6-0.3,2.6,0.3
		C-225-29.1-224.4-28.1-224.7-27.6"/>
	<path id="Fill-59_3_" class="st6" d="M-225.5-28.1c0,0.3-0.8,0-1.3-0.3s-1-0.8-1-1s0.8,0,1.3,0.3
		C-225.7-28.9-225.2-28.4-225.5-28.1"/>
	<path id="Fill-61_3_" class="st6" d="M-205.7-46.1c-0.5,0.3-1.3-0.5-2.1-1.6c-0.5-1-0.8-2.3-0.3-2.6s1.3,0.5,2.1,1.6
		C-205.1-47.7-205.1-46.4-205.7-46.1"/>
	<path id="Fill-63_3_" class="st6" d="M-205.9-47.2c-0.3,0-0.8-0.3-1.3-1c-0.5-0.8-0.5-1.3-0.3-1.3s0.8,0.3,1.3,1
		C-205.9-47.9-205.7-47.4-205.9-47.2"/>
	<path id="Fill-65_3_" class="st6" d="M-230.7-31.8c-0.5,0.3-1.3-0.5-2.1-1.6c-0.5-1-0.8-2.3-0.3-2.6s1.3,0.5,2.1,1.6
		C-230.4-33.1-230.2-32-230.7-31.8"/>
	<path id="Fill-67_3_" class="st6" d="M-231.5-32.8c-0.3,0-0.8-0.3-1.3-1c-0.5-0.8-0.5-1.3-0.3-1.3c0.3,0,0.8,0.3,1.3,1
		C-231.2-33.6-231.2-33.1-231.5-32.8"/>
	<path id="Fill-69_3_" class="st6" d="M-204.9-38.3c-0.5,0-1-1-1-2.3s0.5-2.3,1-2.3s1,1,1,2.3S-204.1-38.3-204.9-38.3"/>
	<path id="Fill-71_3_" class="st6" d="M-204.9-39.1c-0.3,0-0.5-0.5-0.5-1.3s0.3-1.6,0.8-1.6c0.3,0,0.5,0.5,0.5,1.3
		C-204.3-39.8-204.6-39.1-204.9-39.1"/>
	<path id="Fill-73_3_" class="st6" d="M-233.8-39.1c-0.5,0-1-1-1-2.3s0.5-2.3,1-2.3s1,1,1,2.3S-233.1-39.1-233.8-39.1"/>
	<path id="Fill-75_3_" class="st6" d="M-234.1-39.6c-0.3,0-0.5-0.5-0.5-1.3s0.3-1.6,0.8-1.6c0.3,0,0.5,0.5,0.5,1.3
		C-233.6-40.4-233.8-39.8-234.1-39.6"/>
	<path id="Fill-77_3_" class="st6" d="M-207.7-31.8c-0.5-0.3-0.3-1.6,0.3-2.6c0.8-1,1.6-1.8,2.1-1.6c0.5,0.3,0.3,1.6-0.3,2.6
		C-206.4-32-207.2-31.5-207.7-31.8"/>
	<path id="Fill-79_3_" class="st6" d="M-207.2-32.5c-0.3-0.3,0-0.8,0.3-1.3s0.8-1,1-1s0,0.8-0.3,1.3
		C-206.7-32.8-207.2-32.3-207.2-32.5"/>
	<g id="Group-83_3_" transform="translate(0.000000, 42.000000)">
		<g id="Clip-82_3_">
		</g>
		<path id="Fill-81_3_" class="st6" d="M-233.3-88.4c-0.5-0.3-0.3-1.6,0.3-2.6c0.8-1,1.6-1.8,2.1-1.6c0.5,0.3,0.3,1.6-0.3,2.6
			C-231.7-88.9-232.8-88.1-233.3-88.4"/>
	</g>
	<path id="Fill-84_3_" class="st6" d="M-232.8-47.2c-0.3-0.3,0-0.8,0.3-1.3s0.8-1,1-1c0.3,0.3,0,0.8-0.3,1.3
		C-232-47.4-232.5-47.2-232.8-47.2"/>
	<path id="Fill-86_3_" class="st6" d="M-213.7-27.6c-0.3-0.5,0.5-1.3,1.6-2.1c1-0.5,2.3-0.8,2.6-0.3s-0.5,1.3-1.6,2.1
		C-212.4-27.1-213.5-27.1-213.7-27.6"/>
	<path id="Fill-88_3_" class="st6" d="M-213-27.3c0-0.3,0.3-0.8,1-1.3s1.3-0.5,1.3-0.3s-0.3,0.8-1,1.3
		C-212.2-27.3-213-27.1-213-27.3"/>
	<path id="Fill-90_3_" class="st6" d="M-228.9-52.4c-0.3-0.5,0.5-1.3,1.6-2.1c1-0.5,2.3-0.8,2.6-0.3s-0.5,1.3-1.6,2.1
		C-227.3-51.9-228.6-51.9-228.9-52.4"/>
	<path id="Fill-92_3_" class="st6" d="M-227.8-53.2c0-0.3,0.3-0.8,1-1.3c0.8-0.5,1.3-0.5,1.3-0.3c0,0.3-0.3,0.8-1,1.3
		C-227-53.2-227.8-52.9-227.8-53.2"/>
	<path id="Fill-94_3_" class="st6" d="M-221.8-26.5c0-0.5,1-1,2.3-1s2.3,0.5,2.3,1s-1,1-2.3,1C-220.5-25.5-221.8-26-221.8-26.5"/>
	<path id="Fill-96_3_" class="st6" d="M-220.8-26.8c0-0.3,0.5-0.5,1.3-0.5s1.6,0.3,1.6,0.5s-0.5,0.5-1.3,0.5S-220.8-26.5-220.8-26.8
		"/>
	<path id="Fill-98_3_" class="st6" d="M-221.6-55.5c0-0.5,1-1,2.3-1s2.3,0.5,2.3,1s-1,1-2.3,1C-220.5-54.5-221.6-55-221.6-55.5"/>
	<path id="Fill-100_3_" class="st6" d="M-221-56c0-0.3,0.5-0.5,1.3-0.5s1.6,0.3,1.6,0.5s-0.5,0.5-1.3,0.5
		C-220.3-55.5-221-55.8-221-56"/>
</g>
<g id="Group-102-Copy-9_3_" transform="translate(452.851955, 299.473282)" class="st4">
	<path id="Fill-1_1_" class="st5" d="M-345.5-131.9l0.7,0.4c0.3-0.7,0.7-1.3,1.1-1.9l-0.7-0.4C-344.7-133.1-345.1-132.4-345.5-131.9
		"/>
	<path id="Fill-3_1_" class="st5" d="M-348.1-132.4h0.8c-0.1-0.7-0.1-1.5-0.1-2.1h-0.8C-348.1-133.8-348.1-133.1-348.1-132.4"/>
	<path id="Fill-5_4_" class="st5" d="M-350.8-131.5l0.7-0.4c-0.4-0.5-0.7-1.2-0.9-1.9l-0.7,0.4C-351.3-132.7-351-132.2-350.8-131.5"
		/>
	<path id="Fill-7_4_" class="st5" d="M-352.6-129.6l0.4-0.7c-0.7-0.3-1.3-0.7-1.9-1.1l-0.4,0.7
		C-353.8-130.4-353.2-130.2-352.6-129.6"/>
	<path id="Fill-9_4_" class="st5" d="M-353-126.8v-0.8c-0.7,0.1-1.5,0.1-2.1,0.1v0.8C-354.4-127-353.7-127-353-126.8"/>
	<path id="Fill-11_4_" class="st5" d="M-352-124.3l-0.4-0.7c-0.5,0.4-1.2,0.7-1.9,0.9l0.4,0.7C-353.3-123.7-352.6-124.1-352-124.3"
		/>
	<path id="Fill-13_4_" class="st5" d="M-350.1-122.7l-0.7-0.4c-0.3,0.7-0.7,1.3-1.1,1.9l0.7,0.4C-350.9-121.5-350.5-122-350.1-122.7
		"/>
	<path id="Fill-15_4_" class="st5" d="M-347.4-122.1h-0.8c0.1,0.7,0.1,1.5,0.1,2.1h0.8C-347.4-120.7-347.4-121.5-347.4-122.1"/>
	<path id="Fill-17_4_" class="st5" d="M-344.7-122.9l-0.7,0.4c0.4,0.5,0.7,1.2,0.9,1.9l0.7-0.4
		C-344.2-121.6-344.5-122.3-344.7-122.9"/>
	<path id="Fill-19_4_" class="st5" d="M-342.9-125l-0.4,0.7c0.7,0.3,1.3,0.7,1.9,1.1l0.4-0.7C-341.7-124.1-342.2-124.4-342.9-125"/>
	<path id="Fill-21_4_" class="st5" d="M-342.6-127.5v0.8c0.7-0.1,1.5-0.1,2.1-0.1v-0.8C-341.1-127.5-341.8-127.5-342.6-127.5"/>
	<path id="Fill-23_4_" class="st5" d="M-343.5-130.2l0.4,0.7c0.5-0.4,1.2-0.7,1.9-0.9l-0.4-0.7
		C-342.2-130.8-342.9-130.4-343.5-130.2"/>
	<path id="Fill-25_4_" class="st5" d="M-342.6-124.4c-1.6,2.8-5.2,3.6-8,2s-3.7-5.2-2.3-7.9c1.6-2.8,5.2-3.6,8-2
		C-341.9-130.7-341-127.1-342.6-124.4"/>
	<path id="Fill-27_4_" class="st5" d="M-342.6-124.4c-0.4,0.5-0.8,1.1-1.3,1.5c-0.3,0.3-0.7,0.5-1.1,0.7c-1.2,0.7-2.5,0.8-3.9,0.5
		c-0.5-0.1-1.2-0.4-1.7-0.7c-2.8-1.6-3.7-5.2-2.3-7.9c0.3-0.5,0.7-1.1,1.2-1.3c1.1-0.9,2.3-1.3,3.6-1.5c0.4,0,0.8,0,1.2,0.1
		c0.7,0.1,1.3,0.4,1.9,0.7C-341.9-130.7-341-127.1-342.6-124.4"/>
	<path id="Fill-29_4_" class="st6" d="M-347.8-122.9c-0.3,0.5-0.7,1.1-1.2,1.5c-0.5-0.1-1.2-0.4-1.7-0.7c-2.8-1.6-3.7-5.2-2.1-8.2
		c0.3-0.5,0.7-1.1,1.2-1.5c0.5,0.1,1.2,0.4,1.7,0.7C-347.2-129.4-346.1-125.8-347.8-122.9"/>
	<path id="Fill-31_4_" class="st7" d="M-342.6-124.3c-0.4,0.7-0.8,1.1-1.3,1.6c-0.3,0.3-0.7,0.5-1.1,0.7c-1.1,0-2.1-0.3-3.2-0.8
		c-2.8-1.6-3.7-5.2-2.1-8c0.5-0.9,1.5-1.7,2.4-2.3c0.4,0,0.8,0,1.2,0.1c0.7,0.1,1.3,0.4,1.9,0.7C-341.9-130.7-341-127.1-342.6-124.3
		"/>
	<path id="Fill-33_4_" class="st7" d="M-344.9-129.4c-0.1,0.1-0.4,0.3-0.5,0.1c-0.1-0.1-0.3-0.4-0.1-0.5c0.1-0.1,0.4-0.3,0.5-0.1
		C-344.9-129.8-344.7-129.6-344.9-129.4"/>
	<path id="Fill-35_4_" class="st6" d="M-344.3-124.3c-0.1,0.1-0.4,0.3-0.5,0.1c-0.1-0.1-0.3-0.4-0.1-0.5c0.1-0.1,0.4-0.3,0.5-0.1
		C-344.2-124.7-344.2-124.4-344.3-124.3"/>
	<path id="Fill-37_4_" class="st6" d="M-350.5-129.1c-0.3,0.4-0.7,0.5-1.1,0.3c-0.4-0.3-0.5-0.7-0.3-1.1c0.3-0.4,0.7-0.5,1.1-0.3
		C-350.4-129.9-350.2-129.5-350.5-129.1"/>
	<path id="Fill-39_4_" class="st6" d="M-345.4-127.5c-0.1,0.3-0.7,0.4-0.9,0.3c-0.3-0.1-0.4-0.7-0.3-0.9c0.1-0.3,0.7-0.4,0.9-0.3
		C-345.3-128.3-345.3-127.9-345.4-127.5"/>
	<path id="Fill-41_4_" class="st6" d="M-347.3-122.8c0,0.1-0.3,0.1-0.3,0.1c-0.1,0-0.1-0.3-0.1-0.3l0.3-0.1
		C-347.2-123.1-347.2-122.9-347.3-122.8"/>
	<path id="Fill-43_4_" class="st7" d="M-347.3-130.7c-0.3,0.4-0.7,0.5-1.1,0.3c-0.4-0.3-0.5-0.7-0.3-1.1c0.3-0.4,0.7-0.5,1.1-0.3
		C-347.3-131.6-347.2-131.1-347.3-130.7"/>
	<path id="Fill-45_4_" class="st6" d="M-345.7-131c0,0.1-0.3,0.1-0.3,0.1c-0.1,0-0.1-0.3-0.1-0.3c0-0.1,0.3-0.1,0.3-0.1
		C-345.5-131.1-345.5-131-345.7-131"/>
	<path id="Fill-47_4_" class="st6" d="M-342.9-127.5c0,0.1-0.3,0.1-0.3,0.1c-0.1,0-0.1-0.3-0.1-0.3c0-0.1,0.3-0.1,0.3-0.1
		C-342.9-127.8-342.9-127.6-342.9-127.5"/>
	<path id="Fill-49_4_" class="st7" d="M-350-124.7c-0.3,0.4-0.7,0.5-1.1,0.3c-0.4-0.3-0.5-0.7-0.3-1.1c0.3-0.4,0.7-0.5,1.1-0.3
		C-349.8-125.5-349.7-125.1-350-124.7"/>
	<path id="Fill-51_4_" class="st7" d="M-342.5-126c0,0.1-0.3,0.1-0.4,0s-0.3-0.3-0.3-0.4s0.3-0.1,0.4,0S-342.5-126.2-342.5-126"/>
	<path id="Fill-53_4_" class="st6" d="M-343-133.2c-0.1,0.3-0.8,0.1-1.3-0.1c-0.5-0.4-0.9-0.8-0.8-1.1s0.8-0.1,1.3,0.1
		C-343.3-133.9-342.9-133.4-343-133.2"/>
	<path id="Fill-55_4_" class="st6" d="M-343.4-133.4c0,0.1-0.4,0-0.7-0.1c-0.3-0.1-0.5-0.4-0.5-0.5c0-0.1,0.4,0,0.7,0.1
		C-343.7-133.8-343.4-133.5-343.4-133.4"/>
	<path id="Fill-57_4_" class="st6" d="M-350.5-120.4c-0.1,0.3-0.8,0.1-1.3-0.1c-0.5-0.4-0.9-0.8-0.8-1.1c0.1-0.3,0.8-0.1,1.3,0.1
		C-350.6-121.2-350.4-120.7-350.5-120.4"/>
	<path id="Fill-59_4_" class="st6" d="M-350.9-120.7c0,0.1-0.4,0-0.7-0.1c-0.3-0.1-0.5-0.4-0.5-0.5s0.4,0,0.7,0.1
		C-351-121.1-350.8-120.8-350.9-120.7"/>
	<path id="Fill-61_4_" class="st6" d="M-340.7-129.9c-0.3,0.1-0.7-0.3-1.1-0.8c-0.3-0.5-0.4-1.2-0.1-1.3s0.7,0.3,1.1,0.8
		C-340.5-130.7-340.5-130-340.7-129.9"/>
	<path id="Fill-63_4_" class="st6" d="M-340.9-130.4c-0.1,0-0.4-0.1-0.7-0.5c-0.3-0.4-0.3-0.7-0.1-0.7c0.1,0,0.4,0.1,0.7,0.5
		C-340.9-130.8-340.7-130.6-340.9-130.4"/>
	<path id="Fill-65_4_" class="st6" d="M-353.6-122.5c-0.3,0.1-0.7-0.3-1.1-0.8c-0.3-0.5-0.4-1.2-0.1-1.3c0.3-0.1,0.7,0.3,1.1,0.8
		C-353.4-123.2-353.3-122.7-353.6-122.5"/>
	<path id="Fill-67_4_" class="st6" d="M-354-123.1c-0.1,0-0.4-0.1-0.7-0.5s-0.3-0.7-0.1-0.7c0.1,0,0.4,0.1,0.7,0.5
		C-353.8-123.5-353.8-123.2-354-123.1"/>
	<path id="Fill-69_4_" class="st6" d="M-340.3-125.9c-0.3,0-0.5-0.5-0.5-1.2s0.3-1.2,0.5-1.2c0.3,0,0.5,0.5,0.5,1.2
		S-339.9-125.9-340.3-125.9"/>
	<path id="Fill-71_4_" class="st6" d="M-340.3-126.3c-0.1,0-0.3-0.3-0.3-0.7c0-0.4,0.1-0.8,0.4-0.8c0.1,0,0.3,0.3,0.3,0.7
		C-340.1-126.7-340.2-126.3-340.3-126.3"/>
	<path id="Fill-73_4_" class="st6" d="M-355.2-126.3c-0.3,0-0.5-0.5-0.5-1.2c0-0.7,0.3-1.2,0.5-1.2c0.3,0,0.5,0.5,0.5,1.2
		C-354.7-126.8-354.8-126.3-355.2-126.3"/>
	<path id="Fill-75_4_" class="st6" d="M-355.3-126.6c-0.1,0-0.3-0.3-0.3-0.7s0.1-0.8,0.4-0.8c0.1,0,0.3,0.3,0.3,0.7
		C-355-127-355.2-126.7-355.3-126.6"/>
	<path id="Fill-77_4_" class="st6" d="M-341.8-122.5c-0.3-0.1-0.1-0.8,0.1-1.3c0.4-0.5,0.8-0.9,1.1-0.8c0.3,0.1,0.1,0.8-0.1,1.3
		C-341.1-122.7-341.5-122.4-341.8-122.5"/>
	<path id="Fill-79_4_" class="st6" d="M-341.5-122.9c-0.1-0.1,0-0.4,0.1-0.7c0.1-0.3,0.4-0.5,0.5-0.5s0,0.4-0.1,0.7
		C-341.3-123.1-341.5-122.8-341.5-122.9"/>
	<g id="Group-83_4_" transform="translate(0.000000, 42.000000)">
		<g id="Clip-82_4_">
		</g>
		<path id="Fill-81_4_" class="st6" d="M-354.9-172c-0.3-0.1-0.1-0.8,0.1-1.3c0.4-0.5,0.8-0.9,1.1-0.8c0.3,0.1,0.1,0.8-0.1,1.3
			C-354.1-172.3-354.6-171.9-354.9-172"/>
	</g>
	<path id="Fill-84_4_" class="st6" d="M-354.6-130.4c-0.1-0.1,0-0.4,0.1-0.7c0.1-0.3,0.4-0.5,0.5-0.5c0.1,0.1,0,0.4-0.1,0.7
		C-354.2-130.6-354.5-130.4-354.6-130.4"/>
	<path id="Fill-86_4_" class="st6" d="M-344.9-120.4c-0.1-0.3,0.3-0.7,0.8-1.1c0.5-0.3,1.2-0.4,1.3-0.1c0.1,0.3-0.3,0.7-0.8,1.1
		C-344.2-120.1-344.7-120.1-344.9-120.4"/>
	<path id="Fill-88_4_" class="st6" d="M-344.5-120.3c0-0.1,0.1-0.4,0.5-0.7c0.4-0.3,0.7-0.3,0.7-0.1s-0.1,0.4-0.5,0.7
		C-344.1-120.3-344.5-120.1-344.5-120.3"/>
	<path id="Fill-90_4_" class="st6" d="M-352.6-133.1c-0.1-0.3,0.3-0.7,0.8-1.1c0.5-0.3,1.2-0.4,1.3-0.1c0.1,0.3-0.3,0.7-0.8,1.1
		C-351.8-132.8-352.5-132.8-352.6-133.1"/>
	<path id="Fill-92_4_" class="st6" d="M-352.1-133.5c0-0.1,0.1-0.4,0.5-0.7c0.4-0.3,0.7-0.3,0.7-0.1c0,0.2-0.1,0.4-0.5,0.7
		C-351.7-133.5-352.1-133.4-352.1-133.5"/>
	<path id="Fill-94_4_" class="st6" d="M-349-119.9c0-0.3,0.5-0.5,1.2-0.5s1.2,0.3,1.2,0.5c0,0.3-0.5,0.5-1.2,0.5
		C-348.4-119.3-349-119.6-349-119.9"/>
	<path id="Fill-96_4_" class="st6" d="M-348.5-120c0-0.1,0.3-0.3,0.7-0.3c0.4,0,0.8,0.1,0.8,0.3c0,0.1-0.3,0.3-0.7,0.3
		C-348.1-119.7-348.5-119.9-348.5-120"/>
	<path id="Fill-98_4_" class="st6" d="M-348.9-134.7c0-0.3,0.5-0.5,1.2-0.5s1.2,0.3,1.2,0.5c0,0.3-0.5,0.5-1.2,0.5
		S-348.9-134.4-348.9-134.7"/>
	<path id="Fill-100_4_" class="st6" d="M-348.6-135c0-0.1,0.3-0.3,0.7-0.3s0.8,0.1,0.8,0.3c0,0.2-0.3,0.3-0.7,0.3
		S-348.6-134.8-348.6-135"/>
</g>
<g>
	<g>
		<path class="st8" d="M279.8,115.9c3.6-6.2,1.6-14.1-4.6-17.8l0,0c-6.2-3.6-14.1-1.6-17.8,4.6l-45.2,76.8
			c-2.2,3.8-3.3,8.2-3.2,12.6l0,0c0.2,4.3-0.9,8.6-3.1,12.3l-5.4,9.2c-1.6,2.7-0.7,6.2,2,7.8l0,0c2.7,1.6,6.2,0.7,7.8-2l5.1-8.9
			c2.1-3.7,5.3-6.6,9-8.6l0.7-0.4c3.8-2,7-5,9.2-8.7L279.8,115.9z"/>
		<path class="st9" d="M205.9,220.9l-4.4-2.6c-0.6-0.3-0.8-1.1-0.4-1.6l64.1-109c0.3-0.6,1.1-0.8,1.6-0.4l4.4,2.6
			c0.6,0.3,0.8,1.1,0.4,1.6l-64.1,109C207.2,221.1,206.5,221.3,205.9,220.9z"/>
		<path class="st10" d="M205.5,216.6L205.5,216.6c-0.8-0.4-1-1.4-0.6-2.2l32.5-55.3c0.4-0.8,1.4-1,2.2-0.6l0,0
			c0.8,0.4,1,1.4,0.6,2.2L207.7,216C207.2,216.8,206.2,217.1,205.5,216.6z"/>
		<path class="st11" d="M253.7,121.5l-4.1-2.4c-0.5-0.3-0.7-1-0.4-1.5l0,0c0.3-0.5,1-0.7,1.5-0.4l4.1,2.4c0.5,0.3,0.7,1,0.4,1.5l0,0
			C254.8,121.6,254.2,121.8,253.7,121.5z"/>
		<path class="st11" d="M240.6,143.7l-4.1-2.4c-0.5-0.3-0.7-1-0.4-1.5l0,0c0.3-0.5,1-0.7,1.5-0.4l4.1,2.4c0.5,0.3,0.7,1,0.4,1.5l0,0
			C241.7,143.9,241.1,144,240.6,143.7z"/>
		<path class="st11" d="M227.5,166l-4.1-2.4c-0.5-0.3-0.7-1-0.4-1.5l0,0c0.3-0.5,1-0.7,1.5-0.4l4.1,2.4c0.5,0.3,0.7,1,0.4,1.5l0,0
			C228.7,166.1,228,166.3,227.5,166z"/>
	</g>
	<g class="st12">
		<g>
			<path class="st13" d="M276.4,116.6c1.7-3,2.8-6.7,1.7-10.2c-1-3.3-3.7-5.7-6.8-7.1c-1.5-0.7-2.9,1.6-1.4,2.3
				c2.4,1.1,4.7,2.8,5.6,5.5c0.9,2.8-0.1,5.7-1.5,8.1C273.3,116.7,275.6,118.1,276.4,116.6L276.4,116.6z"/>
		</g>
		<path class="st13" d="M274.2,120.4c-0.4,0.7-1.3,0.9-2,0.5s-0.9-1.3-0.5-2s1.3-0.9,2-0.5S274.6,119.7,274.2,120.4z"/>
	</g>
</g>
<g>
	<g>
		<path class="st8" d="M98.5,201.7c0,0,0.4,26.2,0.2,27.7c-0.2,1.6-8.1,30.4-13,41.6s-14.5,10.2-18.3,10.2c-3.7,0-43.9-2.5-43.9-2.5
			s-11.5-1.3-10.1-15.5L98.5,201.7z"/>
	</g>
	<g>
		<path class="st14" d="M14.1,259.9c0,0,14.1-53,15.9-58.9c1.7-6,7.1-10.8,14.5-11.5c0,0,39.3,0.4,42.3,0.4s13.3,3.1,11.8,11.9
			C97,210.5,85.1,265,85.1,265c0.4-1.8-2.3,14.6-16.5,13.7c0,0-34-1.5-44.6-3.3C13.5,273.6,12.3,266.9,14.1,259.9z"/>
	</g>
	<g>
		<path class="st8" d="M18.3,255.7l15.6-56.3c0,0,2-6.6,9.4-7.1c0,0,38.2,0.1,41,0.5c2.8,0.3,9.1,2.1,7.8,8.9l-12.5,57.9
			c0,0-2.4,12.1-11.2,11.7l-44.2-3.4C24.2,267.9,15.2,266.9,18.3,255.7z"/>
	</g>
	<g>
		<path class="st15" d="M25.3,246.1l13.1-45.2c0,0,1.6-5.3,7.9-5.7c0,0,32,0.1,34.4,0.4c2.3,0.3,7.6,1.7,6.5,7.2l-10.5,46.5
			c0,0-1.4,9.2-8.9,8.8l-37.7-2.4C30.1,255.6,22.7,255,25.3,246.1z"/>
	</g>
	<g>
		<path class="st16" d="M23.7,255.8c0,0-2,10.5,8.6,11.5l30.3,2.4c0,0,9.8-0.1,12.5-10.5L23.7,255.8z"/>
	</g>
	<g>
		<path class="st16" d="M45.5,268.4l2.3-10.9l27.4,1.8c0,0-2,10.1-12.5,10.5L45.5,268.4z"/>
	</g>
	<g>
		<path class="st17" d="M47.1,257.7l-22.9-1.6c0,0-0.7,4.6,1.4,7.2s4.2,3.4,7.2,3.7C35.8,267.3,46.1,263.4,47.1,257.7z"/>
	</g>
	<g>
		<path class="st18" d="M47.8,257.5l-2.3,10.9l-14-1.2c0,0,7.6,0.2,10.6-0.5C45.1,265.9,47.1,260.6,47.8,257.5z"/>
	</g>
	<g>
		<path class="st15" d="M44.5,257.8l-19.8-1.3c0,0-0.8,3.1,0.9,6.3C27.4,266,44.5,257.8,44.5,257.8z"/>
	</g>
	<g>
		<path class="st17" d="M73.9,259.5L48,257.8l-2,9.9C46,267.7,68.8,268.1,73.9,259.5z"/>
	</g>
	<g>
		<path class="st18" d="M75.2,259.3c0,0-0.7,4-3.9,6.9c-3.2,2.9-6,3.6-8.7,3.5c-2.7,0-17.1-1.4-17.1-1.4s15.2,0.7,18.3,0.2
			c3-0.5,8.7-3.3,10.7-9.3L75.2,259.3L75.2,259.3z"/>
	</g>
	<g>
		<path class="st15" d="M70.6,259.6l-22.4-1.5l-1.2,6.3C47.1,264.5,66.7,264.3,70.6,259.6z"/>
	</g>
	<g>
		<path class="st19" d="M70,189.7l16.8,0.2c0,0,13.6,1.2,11.8,11.9L85.1,265c0,0-1,6-5.7,10.1c-4.7,4-7,3.5-11,3.6
			c-4.1,0.1-23.9-1.3-28.7-1.7c-4.8-0.4-15.3-1.2-18.9-2.5c-3.6-1.2-7.9-4-7.3-11.3c0,0-0.7,6.9,7.6,9.1s47.7,4,51.2,3.3
			s8.8-3.7,10.9-11.5s11.9-55.6,12.9-60.6c0.9-5-0.7-12.1-9.4-13.2L70,189.7z"/>
	</g>
	<g>
		<path class="st19" d="M69.1,189.7l-24.7-0.3c0,0-4.4,0.1-9.2,3.7c-4.9,3.6-6.1,10.7-6.1,10.7l-15.8,59.5c0,0,15.2-53.9,17.2-60.2
			s4.5-9.3,8.1-11.1C42.2,190.1,69.1,189.7,69.1,189.7z"/>
	</g>
	<g>
		<path class="st20" d="M87.3,201.7c0,0,0.9-5.4-6.7-6.2l-34.4-0.4c0,0-6.1-0.5-7.9,5.7C36.6,207,25,247.1,25,247.1s-3.1,8,6.5,8.6
			c0,0-7.9,0-5.7-8.6s13.5-46.4,13.5-46.4s2-4.8,6.8-5l34.6,0.3C80.6,196,87.3,196.5,87.3,201.7z"/>
	</g>
	<g>
		<path class="st8" d="M98.5,201.7l0.2,27.7c0,0-3.6,13.9-8.1,28c-4.5,14-7,17.3-7,17.3s6.1-14.5,9.6-28.9s1.5-25.4,1.5-25.4
			L98.5,201.7z"/>
	</g>
	<g>
		<path class="st8" d="M98.7,200.3l0.1,28.7c0,0-0.2,1.6-1.3,5.3c-1,3.7-3.3,11.7-3.3,11.7s3.1-12.2,3.1-18.1c0-5.9-0.6-17-0.6-17
			S99,201,98.7,200.3z"/>
	</g>
	<g>
		<path d="M54,213.8l1.1-4.9l1.2-1l0.8,1.1l-1.5,6.9L54,213.8z M56.5,207.2l-0.8-1.1l1.1-4.9l2.5-1.9l-1.5,6.9L56.5,207.2z"/>
		<path d="M58.2,216l1.5-6.9l1.2-1l0.8,1.1l-1.1,4.9L58.2,216z M65.5,216.7l-7-0.3l2.4-1.9l5,0.2l0.8,1.1L65.5,216.7z M67.1,209
			l-4.9-0.2l-0.8-1.1l1.2-1l5,0.2l0.8,1.1L67.1,209z M68.7,201.3l-4.9-0.2L63,200l1.2-1l5,0.2l0.8,1.1L68.7,201.3z M68.8,207.7
			l-0.8-1.1l1.1-4.9l1.2-1l0.8,1.1l-1.1,4.9L68.8,207.7z"/>
		<path d="M71.7,215.6l-0.8-1.1l1.1-4.9l1.2-1l0.8,1.1l-1.1,4.9L71.7,215.6z M77.8,217.2l-5-0.2l-0.8-1.1l1.2-1l5,0.2l0.8,1.1
			L77.8,217.2z M73.4,207.9l-0.8-1.1l1.1-4.9l1.2-1l0.8,1.1l-1.1,4.9L73.4,207.9z M81.1,201.8l-4.9-0.2l-0.8-1.1l1.2-1l5,0.2
			l0.8,1.1L81.1,201.8z M79.4,215.9l-0.8-1.1l1.1-4.9l1.2-1l0.8,1.1l-1.1,4.9L79.4,215.9z M81.1,208.2l-0.8-1.1l1.1-4.9l1.2-1
			l0.8,1.1l-1.1,4.9L81.1,208.2z"/>
	</g>
	<g>
		<path d="M54.7,237.6l-0.8-1.1l1.1-4.9l1.2-1l0.8,1.1l-1.1,4.9L54.7,237.6z M60.8,239.3l-5-0.2L55,238l1.2-1l5,0.2l0.8,1.1
			L60.8,239.3z M56.4,229.9l-0.8-1.1l1.1-4.9l1.2-1l0.8,1.1l-1.1,4.9L56.4,229.9z M62.4,231.6l-4.9-0.2l-0.8-1.1l1.2-1l5,0.2
			l0.8,1.1L62.4,231.6z M64.1,223.9l-4.9-0.2l-0.8-1.1l1.2-1l5,0.2l0.8,1.1L64.1,223.9z M62.4,237.9l-0.8-1.1l1.1-4.9l1.2-1l0.8,1.1
			l-1.1,4.9L62.4,237.9z M64.1,230.2l-0.8-1.1l1.1-4.9l1.2-1l0.8,1.1l-1.1,4.9L64.1,230.2z"/>
		<path d="M67,238.1l-0.8-1.1l1.1-4.9l1.2-1l0.8,1.1l-1.1,4.9L67,238.1z M73.1,239.7l-5-0.2l-0.8-1.1l1.2-1l5,0.2l0.8,1.1
			L73.1,239.7z M68.7,230.4l-0.8-1.1l1.1-4.9l1.2-1l0.8,1.1l-1.1,4.9L68.7,230.4z M76.4,224.4l-4.9-0.2l-0.8-1.1l1.2-1l5,0.2
			l0.8,1.1L76.4,224.4z M74.7,238.4l-0.8-1.1l1.1-4.9l1.2-1l0.8,1.1l-1.1,4.9L74.7,238.4z M76.4,230.7l-0.8-1.1l1.1-4.9l1.2-1
			l0.8,1.1l-1.1,4.9L76.4,230.7z"/>
	</g>
	<g>
		<path d="M62.9,247l-0.4-0.5l0.6-0.4l3.2,0.1l-1.2,0.9L62.9,247z M64,253.1l0.5-2.3l0.6-0.4l0.4,0.5l-0.7,3.2L64,253.1z M65.2,250
			l-0.4-0.5l0.5-2.3l1.1-0.9l-0.7,3.2L65.2,250z"/>
		<path d="M66.5,253.6l-0.4-0.5l0.5-2.3l0.6-0.4l0.4,0.5l-0.5,2.3L66.5,253.6z M69.3,254.4l-2.3-0.1l-0.4-0.5l0.6-0.4l2.3,0.1
			l0.4,0.5L69.3,254.4z M67.3,250.1l-0.4-0.5l0.5-2.3l0.6-0.4l0.4,0.5l-0.5,2.3L67.3,250.1z M70.8,247.3l-2.3-0.1l-0.4-0.5l0.6-0.4
			l2.3,0.1l0.4,0.5L70.8,247.3z M70.1,253.8l-0.4-0.5l0.5-2.3l0.6-0.4l0.4,0.5l-0.5,2.3L70.1,253.8z M70.8,250.2l-0.4-0.5l0.5-2.3
			l0.6-0.4l0.4,0.5l-0.5,2.3L70.8,250.2z"/>
	</g>
	<path d="M57.3,248.6c-1.1-0.2-1.4,0.9-1.4,0.9s-0.1-1.1-1.2-1.2c-1.2-0.1-2.4,2.3,0.9,4.2C59.3,251.3,58.5,248.8,57.3,248.6z"/>
	<path class="st21" d="M87.1,202.7c0,0,0.9-2.8-1.5-4.7c-2.3-1.9-5-2-5-2L46,195.7c0,0-4.8,0.1-6.8,5c-1.9,4.9-13.7,47.7-13.7,47.7
		s-1.4,6.1,4.6,7.2l11.2,0.8c0,0-8.9-0.8-7.4-13c1.5-12.2,9-38.3,9.2-40s1.5-5.4,8.4-5.7s26.7-0.4,30.4,0.3S87.3,202,87.1,202.7z"/>
	<path class="st22" d="M92.1,201.7c0,0,2.1-7.5-7.8-8.9l-41-0.5c0,0-6.5-0.2-9.4,7.1s-15.6,56.3-15.6,56.3s-3.5,10.6,5.8,12.2
		c0,0-5.9-1.5-3.5-13.2s15-55.2,15-55.2s0.8-5.4,8.4-6.3l40.2,0.7C84.2,194,92.5,193.9,92.1,201.7z"/>
	<g>
		<path class="st17" d="M132.5,282.8c-3.9,0-7.5-0.1-10.8-0.5c-8.5-1-14-3.5-17.4-8.1c-4.2-5.6-4.6-14.6-1-21.8
			c2.7-5.4,9.9-14.5,28.3-14.8c20.3-0.4,27.3,0,27.6,0L159,242c-0.1,0-7.2-0.4-27.3,0c-11.9,0.2-20.6,4.6-24.4,12.4
			c-3.2,6.5-2.1,13.6,0.6,17.3c5.7,7.7,20.9,7.1,40.2,6.4c1.1,0,2.2-0.1,3.4-0.1c9.6-0.4,17.6-3,23.1-7.7c4.7-4,7.1-9.1,7-14.4
			c-0.3-11.4-9-24.7-32.4-24.9c-25.1-0.2-53.6,0-53.8,0v-4.4c0.3,0,28.8-0.2,53.9,0c6.3,0,11.9,1,16.8,2.8c4.4,1.7,8.3,4,11.4,7.1
			c5.2,5.1,8.3,12.1,8.5,19.2c0.2,6.6-2.9,13.1-8.5,17.9c-6.2,5.3-15.1,8.3-25.7,8.7c-1.1,0-2.2,0.1-3.3,0.1
			C142.6,282.5,137.3,282.8,132.5,282.8z"/>
	</g>
	<g>
		<path class="st23" d="M134.3,281.6c-4.2,0-8.2-0.1-11.7-0.5c-9.1-1-14.9-3.4-18.1-7.8c-1.8-2.4-2.8-5.7-3-9.3
			c-0.2-3.9,0.6-7.8,2.4-11.3c2.6-5.3,9.6-14.1,27.1-14.4c20.3-0.4,27.9,0.4,28,0.4l-0.1,1.2c-0.1,0-7.7-0.8-27.9-0.4
			c-16.9,0.3-23.6,8.8-26.1,13.8c-3.6,7.4-2.5,15.4,0.5,19.4s8.5,6.4,17.3,7.3c8,0.9,18.2,0.5,28.9,0l0,0
			c12.7-0.5,20.4-4.8,24.6-8.3c5.3-4.4,8.3-10.2,8.1-15.9c-0.2-6.3-3.4-13.1-8.5-18.1c-4.6-4.4-13-9.8-27.1-9.9
			c-25.1-0.2-53.2-0.7-53.5-0.7v-1.2c0.3,0,28.3,0.5,53.4,0.7c14.5,0.1,23.2,5.6,27.9,10.2c5.4,5.2,8.7,12.3,8.9,18.9
			c0.2,6.1-2.9,12.2-8.5,16.8c-4.4,3.6-12.3,8-25.3,8.5l0,0C145.6,281.4,139.8,281.6,134.3,281.6z"/>
	</g>
	<g>
		<path class="st18" d="M130.9,279.4c-10.8,0-18.8-1.4-23.2-7.3c-3.6-4.9-4.1-12.3-1.1-18.4c2.3-4.6,8.5-12.5,24.7-12.8
			c20.3-0.5,27.7,0.1,27.8,0.1l-0.1,1.2c-0.1,0-7.5-0.5-27.7-0.1c-15.6,0.4-21.5,7.8-23.7,12.2c-2.8,5.7-2.4,12.6,1,17.2
			c5.8,7.8,18.7,7.2,36.5,6.4c2.4-0.1,4.8-0.2,7.4-0.3c9.6-0.4,17.3-3.1,22.4-8c4-3.8,6.2-8.8,6.2-13.8c0-11.6-8.5-24.1-32.3-24.6
			c-25.1-0.5-53.3-0.3-53.6-0.3v-1.2c0.3,0,28.5-0.2,53.6,0.3c11.4,0.2,20.1,3.1,26,8.7c4.8,4.5,7.5,10.6,7.5,17.1
			c0,5.3-2.4,10.6-6.6,14.7c-5.3,5.1-13.3,8-23.2,8.3c-2.5,0.1-5,0.2-7.4,0.3C140,279.2,135.2,279.4,130.9,279.4z"/>
	</g>
	<path class="st18" d="M95.3,226.1c0,0-1.1,2.4,0,4.7h9.8l-7.7-1.5C97.4,229.3,95.2,228.8,95.3,226.1z"/>
	<path class="st21" d="M119.5,264.4c-0.4-2.3-0.5-41.6,3.4-43.3c3.8-1.7,54.1-1.4,55.5-0.9c1.5,0.5,1.7,45.5,0.9,46.7
		C178.5,268.1,120.5,271,119.5,264.4z"/>
	<path class="st17" d="M121.3,224.6c0,0-1.7,12.4-1.8,23c0,0,0.3,3.5,5.1,3.7c4.9,0.2,44.7,0.7,49.4,0s5.8-2,5.7-4.3
		c0-2.3,0-25.1-1.3-26.9c0,0,1.8,22.2-0.2,25.7c-2,3.4-20,2.9-34.9,2.9s-19.9,0.8-21.8-2.8C119.6,242.3,121.3,224.6,121.3,224.6z"/>
	<path class="st17" d="M119.3,250.7l0.2,13.7c0,0-2.2,3.8,17,3.9c19.2,0.2,41.1,0.2,42.8-1.5s0.4-24.3,0.4-24.3s1.7,13-2.3,17.2
		c-4,4.1-40.4,3.7-49.8,1C118.2,258.1,119.3,250.7,119.3,250.7z"/>
	<path class="st15" d="M123.1,221.3c-1.2,0.4-1.2,4-1.6,10.8c-0.3,6.8,0.4,7.3,5.5,7.5c5.1,0.2,48.3,2.1,50-0.9s1.6-18.4,0.8-18.5
		C177,220,131.5,218.8,123.1,221.3z"/>
	<path class="st24" d="M178.2,222c-0.1-1-54.1-0.7-56,0.9c0,0-0.7,5-0.5,6.5c0.2,1.4,56.4,0.4,56.5-0.6
		C178.3,227.8,178.2,222,178.2,222z"/>
	<path class="st25" d="M119.4,247.5c0,0,0,3.3,5.1,3.7c0,0,41.4,0.6,47.5,0.1s7.6-1,7.6-4.4s0-3.9,0-3.9s0.5,6.9,0.1,9.5
		c-0.4,2.7-11.4,3.3-26.8,2.9c-15.4-0.4-28.4,0.8-30.4-0.4C120.8,253.9,119.3,251.4,119.4,247.5z"/>
	<path class="st25" d="M119.4,253v11.4c0,0-0.5,2.4,5.3,3.1c5.7,0.7,23,1.1,32.9,0.9s17.7-0.4,20.1-1c2.4-0.6,2.4-0.6,2.3-4.4
		c-0.1-3.8-0.2-10.9-0.2-10.9s0.1,12.3-0.7,13s-2.2,1.6-20.3,2.4s-31-0.3-34.3-1s-4.3-0.3-4.7-3.7S119.4,253,119.4,253z"/>
</g>
<g>
	
		<ellipse transform="matrix(0.7071 -0.7071 0.7071 0.7071 -92.7656 154.2698)" class="st8" cx="139.8" cy="189.1" rx="11.5" ry="11.5"/>
	<g>
		<path class="st26" d="M131.9,125.2c-5.9,0.6-21.4,2.2-26.3-13.8c-4.1-13.5-6.1-19.4-15-30.7c-4.9-6.2-6.7-12.9-5-19
			c1.3-4.9,4.8-8.7,9.4-10.5l1.4,3.8c-3.4,1.3-6,4.2-7,7.8c-1.3,4.8,0.2,10.3,4.3,15.4c9.3,11.8,11.5,18.3,15.7,32
			c3.4,11.3,13.1,11.9,22,11L131.9,125.2z"/>
	</g>
	<path class="st8" d="M105.1,49.4c0.8,2.2-0.2,4.6-2.4,5.4l-4.2,1.6c-2.2,0.8-4.6-0.2-5.4-2.4l0,0c-0.8-2.2,0.2-4.6,2.4-5.4l4.2-1.6
		C101.8,46.2,104.3,47.2,105.1,49.4L105.1,49.4z"/>
	<g>
		<path class="st26" d="M142.6,121.1l-2.4-3.2c7.3-5.3,14-12.2,9-22.9c-6.1-12.9-8.8-19.3-9.8-34.2c-0.4-6.5-3-11.6-7.2-14.3
			c-3.2-2-7-2.4-10.4-1.1l-1.4-3.8c4.6-1.8,9.7-1.2,14,1.5c5.3,3.4,8.5,9.6,9,17.4c0.9,14.3,3.4,20,9.4,32.8
			C159.9,108.4,147.3,117.7,142.6,121.1z"/>
	</g>
	<path class="st8" d="M111.6,46.9c0.8,2.2,3.3,3.2,5.4,2.4l4.2-1.6c2.2-0.8,3.2-3.3,2.4-5.4l0,0c-0.8-2.2-3.3-3.2-5.4-2.4l-4.2,1.6
		C111.9,42.3,110.8,44.7,111.6,46.9L111.6,46.9z"/>
	<path class="st8" d="M167.2,152.3c-15.6-7.9-24.3-19.7-27.2-26.1c3.9-1.9,7.9-5.2,11.8-10.6l2.4-3.2l-6.5-4.8l-2.4,3.2
		c-9.1,12.4-17.4,10.2-24.7,8.2l-3.9-1l-2.1,7.8l3.9,1c4.2,1.1,10,2.7,16.4,1.2c3.4,7.9,13.2,20.7,29.8,29.1
		c14.6,7.4,22.7,17.2,22.3,27c-0.3,6.8-4.8,12.7-11.8,15.4c0,0-0.1,0-0.1,0c-9.8,3.8-21.5,0.4-31.2-9.2l-3.8,3.8
		c11.3,11.1,25,14.9,36.9,10.4c0.1,0,0.1,0,0.2-0.1c8.9-3.5,14.7-11.2,15.2-20.1C193,172.3,183.8,160.6,167.2,152.3z"/>
	<path class="st10" d="M145.9,186.8c1.3,3.4-0.4,7.1-3.7,8.4c-3.4,1.3-7.1-0.4-8.4-3.7c-1.3-3.4,0.4-7.1,3.7-8.4
		C140.9,181.7,144.6,183.4,145.9,186.8z"/>
</g>
</svg>
