<?xml version="1.0" encoding="UTF-8"?>
<svg width="1440px" height="634px" viewBox="0 0 1440 634" version="1.1" xmlns="http://www.w3.org/2000/svg" xmlns:xlink="http://www.w3.org/1999/xlink">
    <!-- Generator: Sketch 61.1 (89650) - https://sketch.com -->
    <title>Group 41</title>
    <desc>Created with Sketch.</desc>
    <defs>
        <polygon id="path-1" points="0 0.0501033289 14.9728125 0.0501033289 14.9728125 34.9287373 0 34.9287373"></polygon>
        <polygon id="path-3" points="0 0.090185992 26.9510625 0.090185992 26.9510625 62.8717272 0 62.8717272"></polygon>
    </defs>
    <g id="Page-1" stroke="none" stroke-width="1" fill="none" fill-rule="evenodd">
        <g id="Home-Copy-3" transform="translate(0.000000, -5494.000000)">
            <g id="Group-41" transform="translate(-7.000000, 5494.000000)">
                <rect id="Rectangle-Copy-2" fill="#BEE4FF" opacity="0.65297154" x="0" y="0" width="1453" height="634"></rect>
                <g id="Group-102-Copy-3" opacity="0.0906343006" transform="translate(1091.000000, 325.000000)">
                    <path d="M101,40 L113,40 C111.675553,30.3304094 111.675553,20.6666667 113,11 L101,11 C102.324447,20.6666667 102.324447,30.3304094 101,40" id="Fill-1" fill="#2BA0FF"></path>
                    <path d="M67.1060071,50 L77,44.4447099 C70.8710857,36.5784192 65.8387961,28.0928988 61.8939929,19 L52,24.5552901 C58.1258682,32.4245436 63.1612039,40.910064 67.1060071,50" id="Fill-3" fill="#2BA0FF"></path>
                    <path d="M44.4417471,79 L50,69.1048014 C40.9071012,65.162564 32.4215808,60.1266147 24.5523272,54 L19,63.8951986 C28.089936,67.8404826 36.5754564,72.8733853 44.4417471,79" id="Fill-5" fill="#2BA0FF"></path>
                    <path d="M38.9968741,113 L39,101 C28.6687506,102.324447 18.3343753,102.324447 8,101 L8.00312595,113 C18.3343753,111.678752 28.6687506,111.675553 38.9968741,113" id="Fill-7" fill="#2BA0FF"></path>
                    <path d="M50,145.895199 L44.447142,136 C36.5771363,142.126615 28.0937679,147.159517 19,151.104801 L24.5587842,161 C32.4228637,154.873385 40.9091952,149.837436 50,145.895199" id="Fill-9" fill="#2BA0FF"></path>
                    <path d="M77,168.555821 L67.1048014,163 C63.162564,172.090805 58.1266147,180.577136 52,188.447142 L61.8951986,194 C65.837436,184.909195 70.8733853,176.422864 77,168.555821" id="Fill-11" fill="#2BA0FF"></path>
                    <path d="M113,176.002924 L101,176 C102.327646,185.667641 102.324447,195.335283 101.003199,205 L113,204.997076 C111.675553,195.335283 111.675553,185.667641 113,176.002924" id="Fill-13" fill="#2BA0FF"></path>
                    <path d="M147.901292,163 L138,168.555821 C144.129661,176.422864 149.162564,184.909195 153.110894,194 L163,188.444179 C156.876432,180.577136 151.840483,172.090805 147.901292,163" id="Fill-15" fill="#2BA0FF"></path>
                    <path d="M170.563647,136 L165,145.898245 C174.094992,149.837436 182.576739,154.876432 190.445241,161 L196,151.104801 C186.90797,147.162564 178.423261,142.129661 170.563647,136" id="Fill-17" fill="#2BA0FF"></path>
                    <path d="M176.006252,101 L176,113 C186.337501,111.675906 196.671877,111.675906 207,112.996802 L207,101.003198 C196.665625,102.327292 186.334375,102.327292 176.006252,101" id="Fill-19" fill="#2BA0FF"></path>
                    <path d="M165,69.0999147 L170.55529,79 C178.421581,72.8710857 186.910064,67.83575 196,63.8909468 L190.44471,54 C182.575456,60.1258682 174.089936,65.1612039 165,69.0999147" id="Fill-21" fill="#2BA0FF"></path>
                    <path d="M138,44.4363532 L147.898245,50 C151.837436,40.9079702 156.879478,32.4202982 163,24.5547592 L153.110894,19 C149.165611,28.0920298 144.129661,36.5767393 138,44.4363532" id="Fill-23" fill="#2BA0FF"></path>
                    <path d="M186,107.501449 C186,149.74973 150.856607,184 107.497025,184 C64.1463678,184 29,149.74973 29,107.501449 C29,65.2531689 64.1463678,31 107.497025,31 C150.856607,31 186,65.2531689 186,107.501449" id="Fill-25" fill="#2BA0FF"></path>
                    <path d="M186,107.498551 C186,116.678956 184.340009,125.491218 181.296694,133.64546 C179.363013,138.816866 176.887901,143.736079 173.898134,148.319035 C164.250554,163.210019 149.468309,174.613781 131.972961,180.208408 C124.279886,182.669464 116.048356,184 107.507437,184 C64.1483657,184 29,149.748129 29,107.498551 C29,99.1761808 30.368451,91.1581819 32.9090099,83.6445691 C38.62973,66.614293 50.3329607,52.2276956 65.6001137,42.8095906 C70.3034202,39.8934276 75.3518143,37.4700555 80.6590242,35.5800572 C89.0273993,32.6175139 98.0681004,31 107.507437,31 C150.854609,31 186,65.2489722 186,107.498551" id="Fill-27" fill="#2BA0FF"></path>
                    <path d="M137,155.59632 C137,164.146909 135.62001,172.387759 133.06748,180.104434 C125.292634,182.632978 116.976616,184 108.344914,184 C64.5249708,184 29,148.811841 29,105.400701 C29,96.8501127 30.3829965,88.6152198 32.9535661,80.8925877 C40.7284116,78.367022 49.0414231,77 57.6731251,77 C101.481042,77 137,112.188159 137,155.59632" id="Fill-29" fill="#2B9DFF"></path>
                    <path d="M186,106.0165 C186,115.259064 184.346295,124.130991 181.314504,132.340442 C179.388145,137.546863 176.922407,142.499383 173.94396,147.113369 C161.870139,154.642833 147.555815,159 132.213112,159 C89.0152672,159 54,124.522056 54,81.9834998 C54,66.8720395 58.4276605,52.7790998 66.0560395,40.8895499 C70.7415357,37.9536424 75.7708128,35.5138624 81.0579255,33.6110675 C89.3946116,30.6284656 98.4010777,29 107.80467,29 C150.987696,29 186,63.480862 186,106.0165" id="Fill-31" fill="#6EBDFF"></path>
                    <path d="M125,63 C125,66.3156342 122.312684,69 119,69 C115.684366,69 113,66.3156342 113,63 C113,59.6873156 115.684366,57 119,57 C122.312684,57 125,59.6873156 125,63" id="Fill-33" fill="#6EBDFF"></path>
                    <path d="M169,119.001376 C169,122.313145 166.310392,125 162.998624,125 C159.684102,125 157,122.313145 157,119.001376 C157,115.686855 159.684102,113 162.998624,113 C166.310392,113 169,115.686855 169,119.001376" id="Fill-35" fill="#2B9DFF"></path>
                    <path d="M67,101.5 C67,107.852409 61.8524089,113 55.5,113 C49.1475911,113 44,107.852409 44,101.5 C44,95.1475911 49.1475911,90 55.5,90 C61.8524089,90 67,95.1475911 67,101.5" id="Fill-37" fill="#2B9DFF"></path>
                    <path d="M132,87.5013928 C132,92.1977716 128.194986,96 123.498607,96 C118.807799,96 115,92.1977716 115,87.5013928 C115,82.8050139 118.807799,79 123.498607,79 C128.194986,79 132,82.8050139 132,87.5013928" id="Fill-39" fill="#2B9DFF"></path>
                    <path d="M146,153.998436 C146,156.7604 143.762829,159 141,159 C138.2403,159 136,156.7604 136,153.998436 C136,151.236472 138.2403,149 141,149 C143.762829,149 146,151.236472 146,153.998436" id="Fill-41" fill="#2B9DFF"></path>
                    <path d="M88,66.5015058 C88,72.3018787 83.2995412,77 77.5030112,77 C71.7004588,77 67,72.3018787 67,66.5015058 C67,60.6981213 71.7004588,56 77.5030112,56 C83.2995412,56 88,60.6981213 88,66.5015058" id="Fill-43" fill="#6EBDFF"></path>
                    <path d="M108,49 C108,51.7589852 105.758985,54 103,54 C100.237491,54 98,51.7589852 98,49 C98,46.2374912 100.237491,44 103,44 C105.758985,44 108,46.2374912 108,49" id="Fill-45" fill="#2B9DFF"></path>
                    <path d="M163,72 C163,74.7605541 160.763114,77 158.00165,77 C155.236886,77 153,74.7605541 153,72 C153,69.2361478 155.236886,67 158.00165,67 C160.763114,67 163,69.2361478 163,72" id="Fill-47" fill="#2B9DFF"></path>
                    <path d="M100,148.498494 C100,154.298867 95.2995412,159 89.5030112,159 C83.7004588,159 79,154.298867 79,148.498494 C79,142.698121 83.7004588,138 89.5030112,138 C95.2995412,138 100,142.698121 100,148.498494" id="Fill-49" fill="#6EBDFF"></path>
                    <path d="M177,85 C177,87.7633172 174.316793,90 171.001815,90 C167.686838,90 165,87.7633172 165,85 C165,82.2366828 167.686838,80 171.001815,80 C174.316793,80 177,82.2366828 177,85" id="Fill-51" fill="#6EBDFF"></path>
                    <path d="M125,7.5 C125,11.6425993 117.164773,15 107.5,15 C97.8352273,15 90,11.6425993 90,7.5 C90,3.35740072 97.8352273,0 107.5,0 C117.164773,0 125,3.35740072 125,7.5" id="Fill-53" fill="#2B9DFF"></path>
                    <path d="M117,8 C117,10.2066914 112.300029,12 106.50309,12 C100.703061,12 96,10.2066914 96,8 C96,5.79330855 100.703061,4 106.50309,4 C112.300029,4 117,5.79330855 117,8" id="Fill-55" fill="#2B9DFF"></path>
                    <path d="M125,203.501504 C125,207.643273 117.164773,211 107.5,211 C97.8352273,211 90,207.643273 90,203.501504 C90,199.359735 97.8352273,196 107.5,196 C117.164773,196 125,199.359735 125,203.501504" id="Fill-57" fill="#2B9DFF"></path>
                    <path d="M117,203 C117,205.206691 112.300029,207 106.50309,207 C100.703061,207 96,205.206691 96,203 C96,200.790335 100.703061,199 106.50309,199 C112.300029,199 117,200.790335 117,203" id="Fill-59" fill="#2B9DFF"></path>
                    <path d="M172.513168,30.9252441 C170.395523,34.3850797 161.955367,33.4181896 153.664299,28.7672153 C145.370188,24.1104163 140.368164,17.5343988 142.485809,14.0745632 C144.603454,10.6147275 153.046653,11.5816176 161.337721,16.2355043 C169.628789,20.8893909 174.633856,27.4683208 172.513168,30.9252441" id="Fill-61" fill="#2B9DFF"></path>
                    <path d="M164.777962,25.9720894 C163.716043,27.826517 159.152048,27.1032613 154.57958,24.3548897 C150.007112,21.6094111 147.160263,17.8803047 148.222183,16.0258771 C149.281279,14.1743426 153.848098,14.8975983 158.420566,17.6430769 C162.990209,20.3885555 165.839882,24.1176618 164.777962,25.9720894" id="Fill-63" fill="#2B9DFF"></path>
                    <path d="M72.5141637,198.927602 C70.3964493,202.384424 61.9529758,201.417562 53.6646796,196.766724 C45.370298,192.110062 40.3681105,185.534237 42.4858249,182.074502 C44.6035393,178.614768 53.0470129,179.58163 61.3383517,184.23538 C69.6296906,188.892043 74.6318782,195.467868 72.5141637,198.927602" id="Fill-65" fill="#2B9DFF"></path>
                    <path d="M64.7788644,194.972089 C63.7170009,196.826517 59.1504227,196.103261 54.5810205,193.35489 C50.0087942,190.609411 47.1620961,186.880305 48.2211356,185.025877 C49.2829991,183.174343 53.8495773,183.897598 58.4189795,186.643077 C62.9912058,189.388555 65.8379039,193.117662 64.7788644,194.972089" id="Fill-67" fill="#2B9DFF"></path>
                    <path d="M202.782301,72.5545927 C199.221519,74.584368 192.621769,69.4842937 188.04701,61.1721679 C183.472251,52.8570261 182.653953,44.472516 186.217699,42.4457567 C189.778481,40.4159815 196.378231,45.5100237 200.95299,53.8251655 C205.527749,62.1403074 206.346047,70.5248174 202.782301,72.5545927" id="Fill-69" fill="#2B9DFF"></path>
                    <path d="M198.900126,66.7977479 C196.98698,67.8106579 193.243357,64.9202268 190.53602,60.3369487 C187.831635,55.7564688 187.188015,51.2179603 189.101161,50.2022521 C191.014306,49.1893421 194.75793,52.0797732 197.465267,56.6630513 C200.169651,61.2463293 200.810319,65.7820397 198.900126,66.7977479" id="Fill-71" fill="#2B9DFF"></path>
                    <path d="M28.784627,168.554416 C25.2207882,170.58418 18.623832,165.487149 14.0489541,157.175069 C9.47407623,148.859973 8.65279225,140.472493 12.216631,138.445744 C15.7804698,136.41598 22.377426,141.509995 26.9523039,149.828107 C31.5271818,158.140187 32.3455008,166.524651 28.784627,168.554416" id="Fill-73" fill="#2B9DFF"></path>
                    <path d="M23.898214,162.797748 C21.9883561,163.810658 18.2424369,160.920227 15.5355748,156.336949 C12.8316647,151.756469 12.1881577,147.220758 14.1009675,146.202252 C16.0137773,145.189342 19.7596965,148.079773 22.4636067,152.663051 C25.1704687,157.246329 25.8110239,161.784838 23.898214,162.797748" id="Fill-75" fill="#2B9DFF"></path>
                    <path d="M207.157165,124.999298 C203.018977,124.916682 199.821423,117.013082 200.007746,107.347007 C200.20008,97.6809325 203.710177,89.9150263 207.84536,90.0007021 C211.980543,90.086378 215.184107,97.9899777 214.991773,107.652993 C214.802444,117.319067 211.295353,125.084974 207.157165,124.999298" id="Fill-77" fill="#2B9DFF"></path>
                    <path d="M206.795044,118.999657 C204.589577,118.953301 202.892378,114.215708 203.005326,108.415014 C203.115302,102.617411 204.996786,97.9539865 207.202253,98.0003426 C209.40772,98.0466987 211.104919,102.784292 210.994943,108.584986 C210.881995,114.382589 209.003484,119.046013 206.795044,118.999657" id="Fill-79" fill="#2B9DFF"></path>
                    <g id="Group-83" transform="translate(0.000000, 86.000000)">
                        <mask id="mask-2" fill="white">
                            <use xlink:href="#path-1"></use>
                        </mask>
                        <g id="Clip-82"></g>
                        <path d="M7.1436,34.9280379 C3.0126,34.8457083 -0.1794,26.9695152 0.0066,17.3369583 C0.1986,7.70440152 3.7026,-0.0345757576 7.8306,0.0508030303 C11.9586,0.136181818 15.1566,8.012375 14.9646,17.6418826 C14.7756,27.2713902 11.2746,35.0134167 7.1436,34.9280379" id="Fill-81" fill="#2B9DFF" mask="url(#mask-2)"></path>
                    </g>
                    <path d="M7.79504403,112.999657 C5.58957674,112.950211 3.89237752,108.215708 4.00532598,102.415014 C4.11530211,96.6174105 5.99678566,91.9539865 8.20225295,92.0003426 C10.4077202,92.0466987 12.1049195,96.7842925 11.9949433,102.581896 C11.8819949,108.382589 10.0034836,113.046013 7.79504403,112.999657" id="Fill-84" fill="#2B9DFF"></path>
                    <path d="M184.146754,168.535538 C180.634209,166.461069 181.524837,158.05114 186.139646,149.747206 C190.751516,141.4463 197.338641,136.394891 200.854126,138.463304 C204.366671,140.537773 203.473103,148.947702 198.861234,157.248608 C194.246425,165.555571 187.65636,170.606979 184.146754,168.535538" id="Fill-86" fill="#2B9DFF"></path>
                    <path d="M189.065429,162.788934 C187.179884,161.751871 187.863942,157.201724 190.588481,152.623473 C193.315942,148.045221 197.051951,145.172923 198.934571,146.212796 C200.820116,147.249859 200.136058,151.800006 197.411519,156.378257 C194.686981,160.956509 190.950973,163.823186 189.065429,162.788934" id="Fill-88" fill="#2B9DFF"></path>
                    <path d="M12.1451626,72.5355383 C8.63576907,70.461069 9.52340461,62.05114 14.140873,53.7472057 C18.752463,45.4462999 25.339189,40.3948914 28.8544609,42.4633039 C32.3667936,44.5377732 31.4732797,52.9477022 26.8587505,61.248608 C22.2471605,69.5555707 15.6574953,74.6069792 12.1451626,72.5355383" id="Fill-90" fill="#2B9DFF"></path>
                    <path d="M16.0654431,64.7889336 C14.1798734,63.7518711 14.8639405,59.2017242 17.5885157,54.6234727 C20.3130909,50.0452211 24.04915,47.1729233 25.9347197,48.2127963 C27.8202894,49.2498588 27.1362223,53.8000057 24.4087237,58.3782573 C21.6870719,62.9565088 17.9510128,65.8231857 16.0654431,64.7889336" id="Fill-92" fill="#2B9DFF"></path>
                    <path d="M142.489417,198.936824 C140.364114,195.485118 145.357662,188.913209 153.648778,184.251806 C161.939893,179.593311 170.383252,178.610432 172.508554,182.062139 C174.639946,185.513845 169.640309,192.088662 161.349193,196.750065 C153.061122,201.40856 144.614719,202.388531 142.489417,198.936824" id="Fill-94" fill="#2B9DFF"></path>
                    <path d="M148.223729,194.978674 C147.158112,193.129878 150.001642,189.40051 154.572206,186.653316 C159.14277,183.903232 163.710508,183.17238 164.776125,185.021176 C165.841742,186.867083 163.001038,190.59645 158.427648,193.349423 C153.857083,196.096618 149.286519,196.82747 148.223729,194.978674" id="Fill-96" fill="#2B9DFF"></path>
                    <path d="M42.4894167,30.9371589 C40.3641141,27.4856932 45.3576617,20.9113345 53.6487775,16.2502565 C61.9398934,11.5920864 70.3832515,10.6121842 72.5085541,14.0607421 C74.6399463,17.5151155 69.6403091,24.0894743 61.3491932,28.7476445 C53.0611222,33.4087224 44.6147192,34.3886246 42.4894167,30.9371589" id="Fill-98" fill="#2B9DFF"></path>
                    <path d="M48.2226772,25.978997 C47.1599431,24.1305137 50.0033222,20.4017763 54.5736442,17.6521573 C59.1439662,14.9025384 63.7114619,14.1718099 64.7770224,16.0231814 C65.8397565,17.8687765 63.0020303,21.5975139 58.4288818,24.3471328 C53.8557334,27.0967517 49.2882378,27.8274803 48.2226772,25.978997" id="Fill-100" fill="#2B9DFF"></path>
                </g>
                <g id="Group-102-Copy-8" opacity="0.0683361235" transform="translate(164.000000, 220.000000)">
                    <path d="M181,72 L203,72 C200.571848,54.6614237 200.571848,37.3333333 203,20 L181,20 C183.428152,37.3333333 183.428152,54.6614237 181,72" id="Fill-1" fill="#2BA0FF"></path>
                    <path d="M120.190813,90 L138,79.9646373 C126.967954,65.7545637 117.909833,50.4258817 110.809187,34 L93,44.0353627 C104.026563,58.2507885 113.090167,73.5794705 120.190813,90" id="Fill-3" fill="#2BA0FF"></path>
                    <path d="M79.9592851,142 L90,124.188642 C73.5741183,117.092615 58.2454363,108.027906 44.0300105,97 L34,114.811358 C50.4205295,121.912869 65.7492115,130.972094 79.9592851,142" id="Fill-5" fill="#2BA0FF"></path>
                    <path d="M69.9943531,203 L70,181 C51.3370979,183.428152 32.668549,183.428152 14,181 L14.0056469,203 C32.668549,200.577713 51.3370979,200.571848 69.9943531,203" id="Fill-7" fill="#2BA0FF"></path>
                    <path d="M90,261.811358 L79.9690308,244 C65.7522462,255.027906 50.4274517,264.087131 34,271.188642 L44.0416746,289 C58.2477538,277.972094 73.577901,268.907385 90,261.811358" id="Fill-9" fill="#2BA0FF"></path>
                    <path d="M138,303.036322 L120.188642,293 C113.092615,309.422099 104.027906,324.752246 93,338.969031 L110.811358,349 C117.907385,332.577901 126.972094,317.247754 138,303.036322" id="Fill-11" fill="#2BA0FF"></path>
                    <path d="M203,316.005244 L181,316 C183.434018,333.335081 183.428152,350.670162 181.005865,368 L203,367.994756 C200.571848,350.670162 200.571848,333.335081 203,316.005244" id="Fill-13" fill="#2BA0FF"></path>
                    <path d="M265.822325,293 L248,303.036322 C259.03339,317.247754 268.092615,332.577901 275.19961,349 L293,338.963678 C281.977577,324.752246 272.912869,309.422099 265.822325,293" id="Fill-15" fill="#2BA0FF"></path>
                    <path d="M306.050459,244 L296,261.816841 C312.429664,268.907385 327.751529,277.977577 341.965596,289 L352,271.188642 C335.575688,264.092615 320.248471,255.03339 306.050459,244" id="Fill-17" fill="#2BA0FF"></path>
                    <path d="M316.011294,181 L316,203 C334.674196,200.572495 353.342745,200.572495 372,202.994136 L372,181.005864 C353.331451,183.433369 334.668549,183.433369 316.011294,181" id="Fill-19" fill="#2BA0FF"></path>
                    <path d="M296,124.179846 L306.035363,142 C320.245436,130.967954 335.579471,121.90435 352,114.803704 L341.964637,97 C327.749212,108.026563 312.420529,117.090167 296,124.179846" id="Fill-21" fill="#2BA0FF"></path>
                    <path d="M248,79.9495413 L265.816841,90 C272.907385,73.5756881 281.983061,58.2431193 293,44.0344037 L275.19961,34 C268.098099,50.4243119 259.03339,65.7515291 248,79.9495413" id="Fill-23" fill="#2BA0FF"></path>
                    <path d="M334,193.502605 C334,269.439057 270.876198,331 192.994657,331 C115.129145,331 52,269.439057 52,193.502605 C52,117.566153 115.129145,56 192.994657,56 C270.876198,56 334,117.566153 334,193.502605" id="Fill-25" fill="#2BA0FF"></path>
                    <path d="M334,193.497395 C334,209.998124 331.018361,225.837157 325.552023,240.493473 C322.078787,249.788484 317.633046,258.630208 312.26289,266.867547 C294.934117,293.632387 268.382568,314.129346 236.957802,324.185048 C223.139668,328.608514 208.354372,331 193.013359,331 C115.132733,331 52,269.43618 52,193.497395 C52,178.538887 54.457982,164.127451 59.021279,150.622591 C69.2967125,120.012618 90.317802,94.1543548 117.740332,77.2263883 C126.188309,71.9849188 135.256125,67.6291847 144.78882,64.232129 C159.819915,58.9072962 176.058626,56 193.013359,56 C270.87261,56 334,117.55861 334,193.497395" id="Fill-27" fill="#2BA0FF"></path>
                    <path d="M246,279.03265 C246,294.375762 243.521129,309.163081 238.936028,323.009825 C224.970102,327.547026 210.032069,330 194.526975,330 C115.813373,330 52,266.85863 52,188.962006 C52,173.618894 54.4842715,158.842263 59.1017761,144.98483 C73.0677022,140.452974 88.0003341,138 103.505428,138 C182.197428,138 246,201.14137 246,279.03265" id="Fill-29" fill="#2B9DFF"></path>
                    <path d="M334,190.6297 C334,207.266315 331.030849,223.235784 325.587405,238.012796 C322.128716,247.384353 317.701594,256.298889 312.353929,264.604063 C290.675932,278.1571 264.975213,286 237.428087,286 C159.868321,286 97,223.939701 97,147.3703 C97,120.169671 104.949663,94.8023796 118.646071,73.4011898 C127.058666,68.1165563 136.088505,63.7249523 145.581275,60.2999214 C160.549416,54.9312381 176.720117,52 193.603839,52 C271.137,52 334,114.065552 334,190.6297" id="Fill-31" fill="#6EBDFF"></path>
                    <path d="M225,113 C225,119.078663 220.073255,124 214,124 C207.921337,124 203,119.078663 203,113 C203,106.926745 207.921337,102 214,102 C220.073255,102 225,106.926745 225,113" id="Fill-33" fill="#6EBDFF"></path>
                    <path d="M304,214.002524 C304,220.0741 299.069053,225 292.997476,225 C286.920853,225 282,220.0741 282,214.002524 C282,207.9259 286.920853,203 292.997476,203 C299.069053,203 304,207.9259 304,214.002524" id="Fill-35" fill="#2B9DFF"></path>
                    <path d="M120,182.5 C120,193.823859 110.823859,203 99.5,203 C88.1761407,203 79,193.823859 79,182.5 C79,171.176141 88.1761407,162 99.5,162 C110.823859,162 120,171.176141 120,182.5" id="Fill-37" fill="#2B9DFF"></path>
                    <path d="M237,157.50254 C237,166.066525 230.061445,173 221.49746,173 C212.943634,173 206,166.066525 206,157.50254 C206,148.938555 212.943634,142 221.49746,142 C230.061445,142 237,148.938555 237,157.50254" id="Fill-39" fill="#2B9DFF"></path>
                    <path d="M262,276.997185 C262,281.968721 257.973091,286 253,286 C248.032541,286 244,281.968721 244,276.997185 C244,272.025649 248.032541,268 253,268 C257.973091,268 262,272.025649 262,276.997185" id="Fill-41" fill="#2B9DFF"></path>
                    <path d="M158,119.002725 C158,129.498638 149.494408,138 139.005449,138 C128.505592,138 120,129.498638 120,119.002725 C120,108.501362 128.505592,100 139.005449,100 C149.494408,100 158,108.501362 158,119.002725" id="Fill-43" fill="#6EBDFF"></path>
                    <path d="M194,88 C194,92.9661734 189.966173,97 185,97 C180.027484,97 176,92.9661734 176,88 C176,83.0274841 180.027484,79 185,79 C189.966173,79 194,83.0274841 194,88" id="Fill-45" fill="#2B9DFF"></path>
                    <path d="M293,129 C293,133.968997 288.973606,138 284.002969,138 C279.026394,138 275,133.968997 275,129 C275,124.025066 279.026394,120 284.002969,120 C288.973606,120 293,124.025066 293,129" id="Fill-47" fill="#2B9DFF"></path>
                    <path d="M180,266.997275 C180,277.493188 171.494408,286 161.005449,286 C150.505592,286 142,277.493188 142,266.997275 C142,256.501362 150.505592,248 161.005449,248 C171.494408,248 180,256.501362 180,266.997275" id="Fill-49" fill="#6EBDFF"></path>
                    <path d="M318,153 C318,157.973971 313.080787,162 307.003328,162 C300.92587,162 296,157.973971 296,153 C296,148.026029 300.92587,144 307.003328,144 C313.080787,144 318,148.026029 318,153" id="Fill-51" fill="#6EBDFF"></path>
                    <path d="M224,13.5 C224,20.9566787 209.896591,27 192.5,27 C175.103409,27 161,20.9566787 161,13.5 C161,6.0433213 175.103409,0 192.5,0 C209.896591,0 224,6.0433213 224,13.5" id="Fill-53" fill="#2B9DFF"></path>
                    <path d="M210,14 C210,17.86171 201.495291,21 191.005592,21 C180.5103,21 172,17.86171 172,14 C172,10.13829 180.5103,7 191.005592,7 C201.495291,7 210,10.13829 210,14" id="Fill-55" fill="#2B9DFF"></path>
                    <path d="M224,365.502707 C224,372.957891 209.896591,379 192.5,379 C175.103409,379 161,372.957891 161,365.502707 C161,358.047524 175.103409,352 192.5,352 C209.896591,352 224,358.047524 224,365.502707" id="Fill-57" fill="#2B9DFF"></path>
                    <path d="M210,365 C210,368.86171 201.495291,372 191.005592,372 C180.5103,372 172,368.86171 172,365 C172,361.133086 180.5103,358 191.005592,358 C201.495291,358 210,361.133086 210,365" id="Fill-59" fill="#2B9DFF"></path>
                    <path d="M310.120562,55.2456798 C306.295138,61.5063347 291.048406,59.7567241 276.070992,51.3406753 C261.088082,42.9140867 252.052167,31.0146264 255.877591,24.7539715 C259.703014,18.4933165 274.955243,20.2429272 289.932657,28.6642458 C304.910071,37.0855645 313.951482,48.9902948 310.120562,55.2456798" id="Fill-61" fill="#2B9DFF"></path>
                    <path d="M295.595108,47.1154972 C293.658666,50.5152811 285.336087,49.1893124 276.998057,44.1506311 C268.660028,39.1172536 263.468716,32.2805587 265.405157,28.8807747 C267.336449,25.4862947 275.664178,26.8122635 284.002208,31.8456409 C292.335087,36.8790183 297.531549,43.7157133 295.595108,47.1154972" id="Fill-63" fill="#2B9DFF"></path>
                    <path d="M130.12236,357.249946 C126.296812,363.505148 111.044085,361.755589 96.0716792,353.339787 C81.0882803,344.913445 72.0520705,333.014333 75.8776192,326.753861 C79.7031679,320.49339 94.9558942,322.242949 109.933797,330.664021 C124.911699,339.090363 133.947909,350.989475 130.12236,357.249946" id="Fill-65" fill="#2B9DFF"></path>
                    <path d="M116.596753,350.115497 C114.660413,353.515281 106.333124,352.189312 98.0006845,347.150631 C89.6630953,342.117254 84.4720577,335.280559 86.4032473,331.880775 C88.3395867,328.486295 96.6668762,329.812263 104.999316,334.845641 C113.336905,339.879018 118.527942,346.715713 116.596753,350.115497" id="Fill-67" fill="#2B9DFF"></path>
                    <path d="M363.98702,130.195393 C357.543701,133.862084 345.601297,124.649047 337.323161,109.633594 C329.045025,94.6126923 327.564296,79.4664805 334.01298,75.805238 C340.456299,72.1385471 352.398703,81.340688 360.676839,96.3615894 C368.954975,111.382491 370.435704,126.528702 363.98702,130.195393" id="Fill-69" fill="#2B9DFF"></path>
                    <path d="M356.983564,120.631187 C353.476131,122.478259 346.61282,117.207472 341.649369,108.84973 C336.691331,100.49709 335.511361,92.2209864 339.018794,90.3688127 C342.526228,88.5217415 349.389538,93.7925277 354.352989,102.15027 C359.311027,110.508012 360.485584,118.779014 356.983564,120.631187" id="Fill-71" fill="#2B9DFF"></path>
                    <path d="M51.9912298,303.195073 C45.5423787,306.861744 33.6050294,297.654205 25.3266789,282.638834 C17.0483284,267.618015 15.5621955,252.466438 22.0110466,248.805216 C28.4598978,245.138545 40.397247,254.340635 48.6755975,269.366903 C56.953948,284.382274 58.4347158,299.528403 51.9912298,303.195073" id="Fill-73" fill="#2B9DFF"></path>
                    <path d="M42.9800591,292.631187 C39.4786528,294.478259 32.6111343,289.207472 27.6485539,280.84973 C22.6913853,272.49709 21.5116224,264.226089 25.0184404,262.368813 C28.5252584,260.521741 35.3927769,265.792528 40.3499456,274.15027 C45.312526,282.508012 46.4868771,290.784116 42.9800591,292.631187" id="Fill-75" fill="#2B9DFF"></path>
                    <path d="M371.882896,224.998736 C364.434158,224.850027 358.678561,210.623548 359.013943,193.224613 C359.360145,175.825679 365.678319,161.847047 373.121648,162.001264 C380.564977,162.15548 386.331393,176.38196 385.985192,193.775387 C385.6444,211.174321 379.331635,225.152953 371.882896,224.998736" id="Fill-77" fill="#2B9DFF"></path>
                    <path d="M371.641327,213.99938 C367.781759,213.915498 364.811661,205.342709 365.00932,194.846215 C365.201779,184.355314 368.494375,175.916738 372.353943,176.00062 C376.21351,176.084502 379.183609,184.657291 378.991151,195.153785 C378.793491,205.644686 375.506096,214.083262 371.641327,213.99938" id="Fill-79" fill="#2B9DFF"></path>
                    <g id="Group-83" transform="translate(0.000000, 154.000000)">
                        <mask id="mask-4" fill="white">
                            <use xlink:href="#path-3"></use>
                        </mask>
                        <g id="Clip-82"></g>
                        <path d="M12.85848,62.8704682 C5.42268,62.722275 -0.32292,48.5451273 0.01188,31.206525 C0.35748,13.8679227 6.66468,-0.0622363636 14.09508,0.0914454545 C21.52548,0.245127273 27.28188,14.422275 26.93628,31.7553886 C26.59608,49.0885023 20.29428,63.02415 12.85848,62.8704682" id="Fill-81" fill="#2B9DFF" mask="url(#mask-4)"></path>
                    </g>
                    <path d="M13.6413271,202.99938 C9.7817593,202.909905 6.81166066,194.342709 7.00932047,183.846215 C7.2017787,173.355314 10.4943749,164.916738 14.3539427,165.00062 C18.2135104,165.084502 21.183609,173.657291 20.9911508,184.148192 C20.793491,194.644686 17.5060964,203.083262 13.6413271,202.99938" id="Fill-84" fill="#2B9DFF"></path>
                    <path d="M330.884603,303.160972 C324.528568,299.413544 326.140182,284.221414 334.490788,269.220759 C342.836076,254.225574 354.755636,245.100449 361.116989,248.836936 C367.473024,252.584365 365.856091,267.776494 357.510804,282.771679 C349.160197,297.777805 337.235319,306.90293 330.884603,303.160972" id="Fill-86" fill="#2B9DFF"></path>
                    <path d="M338.953286,292.615114 C335.496455,290.724 336.750561,282.426674 341.745548,274.078097 C346.745894,265.729521 353.595243,260.491801 357.046714,262.38804 C360.503545,264.279154 359.249439,272.576481 354.254452,280.925057 C349.259466,289.273634 342.410117,294.501103 338.953286,292.615114" id="Fill-88" fill="#2B9DFF"></path>
                    <path d="M21.8817228,130.160972 C15.5313916,126.413544 17.1375893,111.221414 25.4930082,96.2207588 C33.8377901,81.2255741 45.7566277,72.100449 52.1175959,75.8369361 C58.4732456,79.5843645 56.8564108,94.7764944 48.5063104,109.771679 C40.1615286,124.777805 28.2373724,133.90293 21.8817228,130.160972" id="Fill-90" fill="#2B9DFF"></path>
                    <path d="M28.9533123,116.615114 C25.4964345,114.724 26.7505576,106.426674 31.7456121,98.0780972 C36.7406666,89.7295209 43.5901083,84.4918014 47.0469861,86.3880403 C50.5038639,88.2791543 49.2497408,96.576481 44.2493268,104.925057 C39.2596318,113.273634 32.4101902,118.501103 28.9533123,116.615114" id="Fill-92" fill="#2B9DFF"></path>
                    <path d="M255.884108,357.266635 C252.044851,351.02069 261.065453,339.128663 276.042953,330.693744 C291.020453,322.264086 306.272971,320.485544 310.112227,326.731489 C313.962484,332.977434 304.930881,344.874722 289.953381,353.309642 C274.981382,361.739299 259.723364,363.512579 255.884108,357.266635" id="Fill-94" fill="#2B9DFF"></path>
                    <path d="M265.407976,350.127569 C263.464792,346.73811 268.650052,339.900936 276.98461,334.864412 C285.319169,329.822592 293.648573,328.482696 295.591757,331.872155 C297.53494,335.256318 292.354835,342.093492 284.015122,347.140608 C275.680564,352.177132 267.346006,353.517028 265.407976,350.127569" id="Fill-96" fill="#2B9DFF"></path>
                    <path d="M75.8841075,55.2672399 C72.0448513,49.0217306 81.0654533,37.1252719 96.0429529,28.6909404 C111.020453,20.2618706 126.272971,18.4887142 130.112227,24.7289619 C133.962484,30.9797328 124.930881,42.8761916 109.953381,51.3052614 C94.9813821,59.7395928 79.7233637,61.5127492 75.8841075,55.2672399" id="Fill-98" fill="#2B9DFF"></path>
                    <path d="M86.4060584,47.1281611 C84.4681315,43.7392751 89.6531169,36.9032565 97.9872335,31.8622885 C106.32135,26.8213204 114.650313,25.4816514 116.593394,28.8758326 C118.531321,32.2594235 113.356643,39.0954421 105.017373,44.1364102 C96.678102,49.1773782 88.3491394,50.5170472 86.4060584,47.1281611" id="Fill-100" fill="#2B9DFF"></path>
                </g>
            </g>
        </g>
    </g>
</svg>