<?xml version="1.0" encoding="UTF-8"?>
<svg width="29px" height="29px" viewBox="0 0 29 29" version="1.1" xmlns="http://www.w3.org/2000/svg" xmlns:xlink="http://www.w3.org/1999/xlink">
    <!-- Generator: Sketch 61.1 (89650) - https://sketch.com -->
    <title>chain</title>
    <desc>Created with Sketch.</desc>
    <g id="Page-1" stroke="none" stroke-width="1" fill="none" fill-rule="evenodd">
        <g id="Home-Copy" transform="translate(-201.000000, -5567.000000)" fill="#187DD7" fill-rule="nonzero">
            <g id="chain" transform="translate(201.000000, 5567.000000)">
                <path d="M18.8851588,10.9745993 C18.7188388,10.7606793 18.5525189,10.5232394 18.3503589,10.3210794 C18.1487589,10.1194794 17.9230789,9.94139939 17.7091589,9.7750794 L15.2737191,12.2099592 C15.523479,12.3409992 15.760919,12.4832392 15.974839,12.6971592 C16.960439,13.6833192 16.960439,15.2748391 15.974839,16.260999 L7.65883953,24.5764385 C6.67323959,25.5625984 5.08115969,25.5625984 4.09499975,24.5764385 C3.10939981,23.5908385 3.10939981,21.9987586 4.09499975,21.0125987 L7.37379954,17.7343589 C6.76843958,16.463159 6.5304396,15.0373991 6.68499959,13.6715592 L1.71947989,18.6370788 C-0.573159965,20.9297187 -0.573159965,24.6598785 1.71947989,26.9525183 C4.01211975,29.2451582 7.74227952,29.2451582 10.0349194,26.9525183 L18.3503589,18.6370788 C20.4559587,16.531479 20.5897987,13.2196392 18.8969188,10.9628393 L18.8851588,10.9745993 Z" id="Path"></path>
                <path d="M26.9525183,1.71947989 C24.6593185,-0.573159965 20.9291587,-0.573159965 18.6365188,1.71947989 L10.0349194,10.3210794 C7.92875951,12.4272392 7.79603952,15.739079 9.48835941,17.9953189 L9.50011941,17.9835589 C9.6664394,18.1974789 9.83275939,18.4349189 10.0349194,18.6370788 C10.2370794,18.8386788 10.4627594,19.0173188 10.6766793,19.1830788 L13.1115592,16.748199 C12.8623592,16.617159 12.6243592,16.474919 12.4109992,16.260999 C11.4248393,15.2748391 11.4248393,13.6833192 12.4109992,12.6971592 L21.0125987,4.09555975 C21.9987586,3.10939981 23.5902785,3.10939981 24.5764385,4.09555975 C25.5625984,5.08171969 25.5625984,6.67323959 24.5764385,7.65939953 L21.0114787,11.2243593 C21.6173987,12.4955592 21.8548387,13.9207591 21.7002787,15.2871591 L26.9525183,10.0349194 C29.2451582,7.74227952 29.2451582,4.01211975 26.9525183,1.71947989 Z" id="Path"></path>
            </g>
        </g>
    </g>
</svg>