<?xml version="1.0" encoding="UTF-8"?>
<svg width="499px" height="428px" viewBox="0 0 499 428" version="1.1" xmlns="http://www.w3.org/2000/svg" xmlns:xlink="http://www.w3.org/1999/xlink">
    <!-- Generator: Sketch 61.1 (89650) - https://sketch.com -->
    <title>Group 4</title>
    <desc>Created with Sketch.</desc>
    <defs>
        <polygon id="path-1" points="0.000108079124 0.384445532 483.890308 0.384445532 483.890308 371.886479 0.000108079124 371.886479"></polygon>
        <path d="M440.851955,431.473282 C388.185289,458.139949 324.518622,463.806616 249.851955,448.473282 C137.851955,425.473282 139.851955,367.473282 139.851955,365.473282 C139.851955,364.139949 135.185289,344.473282 125.851955,306.473282 L144.851955,216.473282 L78.8519553,190.473282 L68.8519553,97.4732824 C-35.8147114,22.1399491 -21.1480447,-9.52671756 112.851955,2.47328244 C246.851955,14.4732824 351.185289,24.4732824 425.851955,32.4732824 L464.851955,36.4732824 L500.851955,51.4732824 L511.851955,85.4732824 C520.518622,104.139949 524.851955,117.806616 524.851955,126.473282 C524.851955,135.139949 525.851955,156.473282 527.851955,190.473282 C557.185289,245.806616 571.851955,275.139949 571.851955,278.473282 C571.851955,283.473282 632.851955,379.473282 565.851955,408.473282 C498.851955,437.473282 500.851955,437.473282 495.851955,437.473282 C492.518622,437.473282 474.185289,435.473282 440.851955,431.473282 Z" id="path-3"></path>
        <polygon id="path-5" points="0.932103993 0.545680791 143.028788 0.545680791 143.028788 186.67724 0.932103993 186.67724"></polygon>
        <polygon id="path-7" points="0.000627272727 0.776702128 45.6880364 0.776702128 45.6880364 148.681816 0.000627272727 148.681816"></polygon>
        <polygon id="path-9" points="0 443 349 443 349 1 0 1"></polygon>
        <polygon id="path-11" points="0 0.448475444 3.99275 0.448475444 3.99275 9.98052448 0 9.98052448"></polygon>
        <polygon id="path-13" points="0 0.762408255 6.9873125 0.762408255 6.9873125 16.9668916 0 16.9668916"></polygon>
    </defs>
    <g id="Page-1" stroke="none" stroke-width="1" fill="none" fill-rule="evenodd">
        <g id="Home" transform="translate(-235.000000, -1744.000000)">
            <g id="Group-4" transform="translate(177.148045, 1714.526718)">
                <g id="Group-2">
                    <g id="Group-12-Copy" opacity="0.439429874" transform="translate(57.851955, 84.473282)">
                        <path d="M28.2995746,56.8092347 C28.9204354,44.8473644 30.62752,32.4608858 37.182182,22.4289504 C46.8750749,7.59363386 65.5116436,0.780138968 83.2367116,0.074340624 C111.272141,-1.04251468 138.272802,10.5771846 162.522563,24.6711306 C186.771759,38.7650766 209.557013,55.6184117 235.327826,66.6988811 C282.562444,87.0083696 335.687889,86.368634 386.959233,90.3724868 C403.881931,91.694306 421.838833,93.9901268 434.921015,104.789971 C445.825096,113.791441 451.78208,127.666307 453.96414,141.624739 C459.712475,178.387799 440.931152,215.980313 412.633355,240.187502 C384.335558,264.39582 347.789021,276.930799 311.236263,284.155351 C270.573836,292.191853 228.125728,294.239798 187.876643,284.342246 C112.408124,265.784267 58.3095448,206.330073 37.2234596,133.105471 C30.1056124,108.389542 26.9668159,82.5042469 28.2995746,56.8092347" id="Fill-1" fill="#90CCFF"></path>
                        <g id="Group-5">
                            <mask id="mask-2" fill="white">
                                <use xlink:href="#path-1"></use>
                            </mask>
                            <g id="Clip-4"></g>
                            <path d="M266.080018,58.5485252 C304.498649,34.4514025 342.733518,5.576101 387.890831,0.953438273 C402.71842,-0.564535078 418.169102,0.765241132 431.578616,7.25240787 C450.455181,16.3850404 463.343378,34.7646888 471.23156,54.1422328 C488.623896,96.8686186 485.045915,144.972146 478.457635,190.610516 C473.769167,223.086919 467.432499,256.111574 450.879812,284.474686 C428.497074,322.826333 388.791546,349.250564 346.076284,361.758349 C303.362153,374.266134 257.745153,373.889176 213.668924,367.635284 C170.44535,361.501409 127.489784,349.585262 90.058943,327.188675 C52.6281019,304.792089 20.9605925,271.214112 6.17201776,230.27729 C0.7502,215.27054 -2.34491215,198.70074 2.18410654,183.402679 C14.924728,140.370895 84.4884196,138.819114 119.180364,127.424171 C170.70205,110.502206 220.166172,87.3460686 266.080018,58.5485252" id="Fill-3" fill="#4DBCFF" mask="url(#mask-2)"></path>
                        </g>
                        <path d="M269.323514,329 C253.631271,329 236.601004,327.709365 218.70642,325.166471 C175.055301,318.961606 139.842156,307.556391 111.055142,290.301843 C92.4392575,279.143243 75.5378747,264.691747 62.66413,247.162932 C53.0701547,234.100829 31.2547707,203.021197 48.3370439,188.874442 C53.4862026,184.61089 60.1898883,182.754791 66.7545145,181.470365 C76.8058035,179.504785 86.8327852,177.729951 96.8264153,175.641911 C109.194797,173.058384 120.878057,170.616506 131.573203,167.097876 C186.505665,149.022784 239.066766,124.334248 287.795817,93.7162416 C293.629533,90.0503202 299.44403,86.2890261 305.065764,82.6518858 C334.792843,63.420471 362.870992,45.2550854 391.234044,42.3470661 C393.482738,42.1162531 395.672642,42 397.745533,42 C403.511981,42 408.419198,42.898986 411.938082,44.6015853 C428.484468,52.60668 435.03157,78.7337065 437.681049,95.151346 C446.179507,147.802127 439.339023,229.642017 405.68097,273.485218 C373.923396,314.852681 319.265097,329 269.323514,329 Z" id="Stroke-6" stroke="#FFF0DE" stroke-width="1.33"></path>
                        <path d="M270.538678,288 C238.311248,287.941225 204.000499,282.056835 173.95268,272.977495 C158.690871,268.36565 143.674892,262.348232 130.202992,253.734209 C127.059322,251.724063 93.8785954,223.006314 97.2386403,221.043719 C103.516917,217.376094 110.862909,216.115436 117.993092,214.685521 C169.347629,204.39081 217.945932,183.617413 263.7121,158.54125 C283.151308,147.887079 301.881915,135.78318 320.958044,124.498963 C329.097033,119.683896 384.864603,80.331789 392.676764,86.6939498 C394.454778,88.1408474 395.062554,90.5523435 395.523059,92.7979785 C401.199791,120.454895 398.987327,154.069792 395.525891,182.077112 C392.149986,209.392117 382.878709,237.032051 363.417411,256.505165 C343.472384,276.462843 314.791353,285.741442 286.622939,287.520062 C281.341007,287.854049 275.96958,288.00972 270.538678,288 Z" id="Stroke-8" stroke="#FFF0DE" stroke-width="1.33"></path>
                        <path d="M269.954078,244.998873 C247.436581,244.957726 222.310022,241.55892 198,235.332847 C225.602276,225.073299 253.993852,211.963375 283.607115,195.837926 C297.077439,188.49921 310.00189,180.653772 322.500199,173.06705 C329.277634,168.954099 335.678294,165.069427 342.179956,161.246192 C344.45707,159.906961 347.130253,158.161339 352.480024,154.649802 C353.331176,154.091789 354.171546,153.541667 355,153 C354.475691,160.454828 353.689794,168.39665 352.644013,176.808555 C350.739136,192.125731 345.726988,213.110965 332.665217,226.102523 C322.004261,236.705334 304.471675,243.275796 283.297296,244.606573 C279.147649,244.866979 274.784079,245 270.328017,245 L269.954078,244.998873 Z" id="Stroke-10" stroke="#FFF0DE" stroke-width="1.33"></path>
                    </g>
                    <g id="Group-74">
                        <mask id="mask-4" fill="white">
                            <use xlink:href="#path-3"></use>
                        </mask>
                        <g id="Mask"></g>
                        <g mask="url(#mask-4)">
                            <g transform="translate(93.851955, 29.473282)">
                                <path d="M134.82238,198 C134.82238,198 113.163033,209.163408 100.965054,230.138427 C91.4020984,246.573006 92.0252458,269.77923 86.1687077,275.04091 C80.3069331,280.295209 75.765812,308.108303 75.765812,308.108303 C75.765812,308.108303 57.7856536,360.94232 85.3277205,371.235812 C103.988628,378.206747 130.964102,335.671493 139.996074,317.389527 C149.024903,299.099125 134.82238,198 134.82238,198" id="Fill-1" stroke="none" fill="#0066CF" fill-rule="evenodd"></path>
                                <path d="M113.277029,228.398851 C109.207829,251.162146 151.03133,361.620342 168.82908,387.761954 C168.82908,387.761954 161.131703,392.819409 168.82908,402.945922 C168.82908,402.945922 157.599309,431.60835 160.328599,434.989831 C160.328599,434.989831 267.401394,462.812691 312.846757,414.750518 C312.846757,414.750518 337.252483,397.03624 319.574725,384.387856 C313.76459,380.231145 309.483825,374.27611 309.483825,374.27611 C309.483825,374.27611 304.435744,362.471514 306.118789,344.758291 C307.796571,327.055616 302.748489,262.121899 299.385558,252.850777 C296.015258,243.5786 276.543937,179.581488 228.979769,164.275171 C181.411391,148.964635 143.483417,192.302649 143.483417,192.302649 C143.483417,192.302649 117.351491,205.632392 113.277029,228.398851 Z" id="Fill-3" stroke="none" fill="#00ADFF" fill-rule="evenodd"></path>
                                <path d="M177.386894,349 L153,357.284514 C156.793657,365.692927 160.429857,373.12369 163.650371,379 C164.974057,378.52419 166.144485,378.090026 166.982155,377.800583 C170.317088,376.601166 169.949689,368.91636 173.868261,366.643507 C177.783684,364.370653 201.83677,366.147914 209.14696,364.476852 C216.444553,362.809953 223,352.380648 223,352.380648 L203.381945,355.914347 L177.386894,349 Z" id="Fill-5" stroke="none" fill="#0066CF" fill-rule="evenodd"></path>
                                <path d="M242.74584,194.858656 C248.455705,188.640105 252.417394,183.510384 255,179.091325 C247.385436,172.57215 238.661473,167.226788 228.708603,164.021907 C227.533634,163.641613 226.36924,163.308059 225.203789,163 L188.908758,217.560511 L147.50774,187.500285 C144.456626,190.362051 142.804689,192.249711 142.804689,192.249711 C142.804689,192.249711 137.329606,195.057301 131,200.269879 C138.579664,209.314079 157.179294,227.009437 189.867982,232 C189.867982,232 225.214364,213.964714 242.74584,194.858656" id="Fill-7" stroke="none" fill="#0066CF" fill-rule="evenodd"></path>
                                <path d="M319.578615,384.546658 C313.771998,380.401179 309.493825,374.462236 309.493825,374.462236 C309.493825,374.462236 304.4488,362.689538 306.130825,345.02418 C306.425364,341.919015 306.509518,337.346471 306.433779,331.871409 L184.827215,299 L166.124015,302.377603 C166.124015,302.377603 168.046931,315.16537 180.884605,322.968254 C193.712813,330.76167 205.415462,347.192115 220.370658,356.006912 C235.339529,364.823813 246.690836,355.984823 261.829067,362.294029 C276.966246,368.611651 287.053141,379.957284 287.053141,392.568334 C287.053141,405.188851 261.708096,430.418315 242.214901,430.418315 C227.559503,430.418315 187.004696,418.285873 163.697227,417.640015 C161.21048,425.240937 159.054037,433.309947 160.428901,435.011897 C160.428901,435.011897 276.583203,465.931248 322,418 C322,418 349.667055,411.614206 332,399" id="Fill-9" stroke="none" fill="#0066CF" fill-rule="evenodd"></path>
                                <path d="M191.07923,230 C191.07923,230 175.150962,251.133736 191.07923,285.334114 C206.995039,319.536604 218.831708,348.671942 215.406643,368.935272 C211.981577,389.198602 201.779056,429.656603 208.124615,443" id="Stroke-11" stroke="#004C9C" stroke-width="2.398" fill="none"></path>
                                <path d="M214.449376,153 C214.449376,153 242,153.952214 242,172.298701 C242,190.648355 202.94652,224.402344 189.942787,232 C189.942787,232 125.777082,201.132213 142.907173,184.38401 C160.027752,167.638974 214.449376,153 214.449376,153" id="Fill-13" stroke="none" fill="#FFFFFF" fill-rule="evenodd"></path>
                                <path d="M227.910589,84 C227.910589,84 230.791919,137.034787 203.841337,155.656299 C176.88655,174.273577 194.885141,109.076052 194.885141,109.076052 L227.910589,84 Z" id="Fill-15" stroke="none" fill="#23244C" fill-rule="evenodd"></path>
                                <path d="M208.341276,135 C208.341276,135 219.129441,165.419792 219.973796,171.904091 C220.814993,178.393632 201.230583,206.971103 186.079565,212 C186.079565,212 164.056843,205.615314 160.203551,194.541466 C156.355523,183.476006 208.341276,135 208.341276,135" id="Fill-17" stroke="none" fill="#EA806A" fill-rule="evenodd"></path>
                                <path d="M208,136.335508 C208,168.73602 181.807793,195 149.499474,195 C117.19326,195 91,168.73602 91,136.335508 L91,96.6655481 C91,64.2639798 117.19326,38 149.499474,38 C181.807793,38 208,64.2639798 208,96.6655481 L208,136.335508 Z" id="Fill-19" stroke="none" fill="#F5AF90" fill-rule="evenodd"></path>
                                <path d="M187.603903,53 C173.092704,56.4122501 123.350991,68.1125986 121.557862,68.5955437 C120.439917,68.9013387 108.820862,69.0774344 97.7339617,69.8777737 C93.7333385,77.4372364 91.3365403,85.9741885 91,95.0531359 C103.551903,96.2467908 145.582635,97.8200532 178.099794,70.2447277 C178.099794,70.2447277 165.903362,84.3682377 188.535699,108.403723 L199,122 C199,122 193.23254,68.6018705 193.23254,65.399459 C193.23254,63.8188153 192.826588,60.5584082 192.413275,57.6681185 C190.905153,56.0189345 189.292915,54.4678159 187.603903,53" id="Fill-21" stroke="none" fill="#EA806A" fill-rule="evenodd"></path>
                                <path d="M183.433171,75.7726264 C183.433171,75.7726264 178.390535,89.2076269 193.537389,104.321215 L201.950203,127 C201.950203,127 202.790116,116.920073 208.681086,106.006105 C214.57416,95.086884 227.192855,100.127898 228.027506,88.3662325 C228.872681,76.6129704 233.921633,29.5789136 208.681086,25.3855968 C208.681086,25.3855968 183.433171,-20.7997126 101.81635,19.5084405 C101.81635,19.5084405 81.6268594,3.55240775 75.7316797,11.1071008 C69.8470252,18.667046 64.7959688,36.3006156 70.6837808,53.0980429 C70.6837808,53.0980429 58.9102618,37.1388588 58.065086,44.6956527 C57.2262254,52.2587492 64.5254704,70.4879127 78.2608918,80.8083881 C78.2608918,80.8083881 74.0486959,89.2076269 77.413611,96.7675722 C80.7806311,104.321215 91.7194997,127 91.7194997,127 C91.7194997,127 91.7194997,87.5279893 95.0844148,81.6529339 C95.0844148,81.6529339 123.691982,88.3662325 153.984638,77.452264 C184.278347,66.5351443 186.799139,61.500433 186.799139,61.500433 C186.799139,61.500433 184.220458,68.9511335 183.433171,75.7726264" id="Fill-23" stroke="none" fill="#23244C" fill-rule="evenodd"></path>
                                <path d="M204,116.334857 C204,116.334857 206.278557,96.0363009 214.48778,94.151764 C227.640295,91.1260353 240.139196,134.32695 205.93089,136 L204,116.334857 Z" id="Fill-25" stroke="none" fill="#F4A27F" fill-rule="evenodd"></path>
                                <path d="M194.808354,12 C181.588433,13.595923 156.746627,17.8761842 132.464924,28.9899738 C106.005041,41.0978073 82.0450553,29.8026152 71.1573171,19.8223295 C68.5751448,26.6663435 67.1363853,35.6829937 68.5624871,44.9984864 C77.9840408,56.0378275 95.365183,72.0589229 115.599583,69.7814297 C143.240853,66.6724207 176.138235,27.9655212 203,18.3763519 C200.905149,16.3421269 198.193236,14.1107707 194.808354,12" id="Fill-27" stroke="none" fill="#363768" fill-rule="evenodd"></path>
                                <path d="M145,105 C145,105 161.276341,111.843102 168,109.518083" id="Stroke-29" stroke="#23244C" stroke-width="3.198" fill="none" stroke-linecap="round"></path>
                                <path d="M116,105 C116,105 110.878074,109.394072 101,108.971344" id="Stroke-31" stroke="#23244C" stroke-width="3.198" fill="none" stroke-linecap="round"></path>
                                <path d="M135,156.969527 C135,156.969527 124.38245,161.040313 120,153" id="Stroke-33" stroke="#DB7851" stroke-width="3.198" fill="none" stroke-linecap="round"></path>
                                <path d="M152.193948,149.136993 C153.562458,154.166377 161.740711,156.384794 170.470389,154.101924 C179.204301,151.819054 185.168382,145.886293 183.806222,140.860028 C182.440887,135.838961 174.259459,133.613266 165.529781,135.898216 C156.799044,138.184205 150.830729,144.108648 152.193948,149.136993" id="Fill-35" stroke="none" fill="#CE756A" fill-rule="evenodd"></path>
                                <path d="M96.7787409,135.875555 C94.7994084,135.345641 92.8469634,135.06663 91,135 L91,136.251388 C91,142.651998 92.0527484,148.802746 93.9576233,154.55684 C101.695014,156.019569 108.582347,153.77186 109.810898,149.133812 C111.141828,144.098069 105.305176,138.164908 96.7787409,135.875555" id="Fill-37" stroke="none" fill="#CE756A" fill-rule="evenodd"></path>
                                <path d="M125,173 C125,173 133.599192,166.25 150,173" id="Stroke-39" stroke="#DB7851" stroke-width="3.198" fill="none" stroke-linecap="round"></path>
                                <path d="M324.874659,357 C305.870293,357 279.675485,348.062666 270.348371,343.058517 C265.034109,340.203667 259.275849,340.06045 253.178,339.906703 C243.168542,339.656075 231.822872,339.370695 218.631607,327.735417 C208.502976,318.802295 205.483581,307.136478 210.123937,294.887265 C214.72738,282.745464 225.670183,273.332146 232.014814,273.332146 C232.412409,273.332146 232.793129,273.369003 233.149592,273.439558 C239.020697,274.605298 243.029331,276.74196 246.904028,278.808067 C252.017911,281.532337 256.84599,284.109179 265.844062,284.639922 C273.589237,285.099057 280.464346,286.051025 284.534149,286.70287 C276.262715,278.089879 251.488489,251.239966 241.024487,228.249524 C228.143281,199.947439 252.802553,177.689928 253.0525,177.467732 C253.15058,177.381381 253.261316,177.310826 253.379434,177.258173 C258.277118,175.09729 263.172693,174 267.933276,174 C310.769032,174 331.900579,260.217316 332.776973,263.886183 C345.774188,303.31597 350.591721,331.718096 346.678002,345.926004 C344.651011,353.274268 337.31503,357 324.876768,357 L324.874659,357 Z" id="Fill-41" stroke="none" fill="#00ADFF" fill-rule="evenodd"></path>
                                <g id="Group-45" stroke="none" stroke-width="1" fill="none" fill-rule="evenodd" transform="translate(206.000000, 172.000000)">
                                    <mask id="mask-6" fill="white">
                                        <use xlink:href="#path-5"></use>
                                    </mask>
                                    <g id="Clip-44"></g>
                                    <path d="M61.9338745,0.545680791 C57.0136993,0.545680791 51.9621372,1.68247175 46.9231883,3.92118927 C46.6856409,4.02895198 46.4638599,4.1705226 46.2715095,4.34273164 C46.0129401,4.57199153 20.7519766,27.5275621 33.9694949,56.7618955 C43.6858161,78.251048 65.0209401,102.407856 75.010546,113.072138 C71.0216409,112.507969 65.7514511,111.895201 59.9304876,111.546556 C51.2358307,111.029929 46.5416409,108.512297 41.5720642,105.843585 C37.6273051,103.727421 33.5490569,101.540472 27.5147212,100.331839 C27.080619,100.246263 26.6149839,100.20189 26.1398891,100.20189 L26.1377869,100.20189 C19.2730861,100.199777 7.98327591,109.794884 3.14508613,122.63872 C-1.6836438,135.455088 1.44861898,147.659743 11.9658745,156.999178 C25.4556263,168.978799 37.0071591,169.26828 47.1985752,169.525008 C53.3769109,169.682427 58.7143708,169.815545 63.7449109,172.538138 C73.1406482,177.612494 99.5367942,186.67724 118.686692,186.67724 C134.922955,186.67724 140.125874,180.129071 141.632093,174.636342 C145.65148,159.944692 140.988823,132.008794 127.76605,91.5935508 C126.56675,86.5931497 105.267364,0.545680791 61.9338745,0.545680791 M61.9338745,3.07916102 C104.126926,3.07916102 125.339072,92.2855565 125.339072,92.2855565 C132.058721,112.813297 144.555188,154.394912 139.201962,173.962297 C137.14602,181.458144 128.992677,184.142703 118.686692,184.142703 C99.9677431,184.142703 74.1549547,175.280805 64.9400058,170.30576 C50.6577285,162.584879 34.6012029,173.718246 13.6350131,155.099596 C-11.1329869,133.105438 15.8065752,102.731144 26.1377869,102.73537 C26.4478599,102.73537 26.7453197,102.762839 27.0238599,102.818833 C40.1856701,105.450568 43.5449693,113.112285 59.780181,114.074754 C72.1273927,114.812189 82.1012321,116.797347 82.1012321,116.797347 C82.1012321,116.797347 48.8645606,83.5853023 36.2650861,55.7127938 C23.6635095,27.8445113 47.9406482,6.24020056 47.9406482,6.24020056 C52.8398015,4.06381638 57.5003562,3.07916102 61.9338745,3.07916102" id="Fill-43" fill="#004C9C" mask="url(#mask-6)"></path>
                                </g>
                                <path d="M306,228 C306,228 330.230777,257.058145 339,285" id="Stroke-46" stroke="#004C9C" stroke-width="2.398" fill="none" stroke-linecap="round"></path>
                                <path d="M275,285 C275,285 311.888289,292.182879 328,317" id="Stroke-48" stroke="#004C9C" stroke-width="2.398" fill="none" stroke-linecap="round"></path>
                                <path d="M235.340524,281.732998 C235.340524,281.732998 243.052919,313.267068 225.224891,323 L203.379702,315.433804 C203.379702,315.433804 199.844899,294.087713 214.345613,275 L235.340524,281.732998 Z" id="Fill-50" stroke="none" fill="#FFFFFF" fill-rule="evenodd"></path>
                                <path d="M217.18058,278.200835 C217.18058,278.200835 221.129592,303.600286 211.689201,313 C211.689201,313 165.628682,312.98736 149.214842,298.767713 C149.214842,298.767713 146.222141,295.583565 151.721983,295.583565 C151.721983,295.583565 169.281491,300.454057 174.767581,301.770691 C174.767581,301.770691 146.908695,288.152482 143.993218,282.537301 C143.993218,282.537301 143.728752,278.200835 148.128414,279.451111 C153.872623,281.09427 169.477196,289.132058 169.477196,289.132058 C169.477196,289.132058 146.833587,274.400503 143.991102,271.02992 C143.991102,271.02992 141.761122,268.250242 143.991102,266.481739 C146.222141,264.710076 149.214842,266.481739 149.214842,266.481739 L174.767581,280.923635 C174.767581,280.923635 152.988248,266.481739 151.935672,262.82255 C151.344325,260.795986 150.237798,259.242358 152.988248,258.824195 C155.736582,258.399712 179.115408,271.41859 183.222042,273.137587 C185.766208,274.198268 192.766104,274.575352 192.766104,274.575352 C192.766104,274.575352 181.798155,266.191026 180.505443,261.347919 C180.505443,261.347919 179.209558,256.087703 182.804185,257.138904 C186.397754,258.187998 190.585843,264.049652 195.697449,266.481739 C200.804823,268.913825 215.410771,276.318575 217.18058,278.200835" id="Fill-52" stroke="none" fill="#F5AF90" fill-rule="evenodd"></path>
                                <g id="Group-56" stroke="none" stroke-width="1" fill="none" fill-rule="evenodd">
                                    <mask id="mask-8" fill="white">
                                        <use xlink:href="#path-7"></use>
                                    </mask>
                                    <g id="Clip-55"></g>
                                    <path d="M31.6172636,104.266079 L31.6172636,9.64790851 C31.6172636,4.74781631 27.6884455,0.776596454 22.8427636,0.776596454 C17.9981273,0.776596454 14.0640818,4.74781631 14.0640818,9.64790851 L14.0640818,104.266079 C5.80603636,107.745916 0.000627272727,115.982128 0.000627272727,125.5921 C0.000627272727,138.345866 10.2262182,148.681816 22.8427636,148.681816 C35.4655818,148.681816 45.6880364,138.345866 45.6880364,125.5921 C45.6880364,115.982128 39.8784455,107.745916 31.6172636,104.266079" id="Fill-54" fill="#FFFFFB" mask="url(#mask-8)"></path>
                                </g>
                                <path d="M9,125.502616 C9,133.509977 15.4895544,140 23.4973841,140 C31.5052138,140 38,133.509977 38,125.502616 C38,117.48793 31.5052138,111 23.4973841,111 C15.4895544,111 9,117.48793 9,125.502616" id="Fill-57" stroke="none" fill="#34A853" fill-rule="evenodd"></path>
                                <mask id="mask-10" fill="white">
                                    <use xlink:href="#path-9"></use>
                                </mask>
                                <g id="Clip-60" stroke="none" fill="none"></g>
                                <polygon id="Fill-59" stroke="none" fill="#34A853" fill-rule="evenodd" mask="url(#mask-10)" points="19 122 27 122 27 39 19 39"></polygon>
                                <path d="M150,127 C150,129.761118 152.23961,132 155.00254,132 C157.763439,132 160,129.761118 160,127 C160,124.233782 157.763439,122 155.00254,122 C152.23961,122 150,124.233782 150,127" id="Fill-61" stroke="none" fill="#23244C" fill-rule="evenodd" mask="url(#mask-10)"></path>
                                <path d="M105,127 C105,129.761118 106.560706,132 108.498455,132 C110.434143,132 112,129.761118 112,127 C112,124.233782 110.434143,122 108.498455,122 C106.560706,122 105,124.233782 105,127" id="Fill-62" stroke="none" fill="#23244C" fill-rule="evenodd" mask="url(#mask-10)"></path>
                                <path d="M289,164 C289,164 303.923433,166.096999 310.68251,178.449029 C317.43736,190.800008 317.520831,197.522587 322.97078,201.719736 C328.415445,205.911635 331.798681,210.956194 332.642905,221.866471 C333.486073,232.778848 336.622065,235.295877 339.70417,240.335186 C342.779936,245.371345 346.826717,257.147933 347,263" id="Stroke-63" stroke="#E73D3D" stroke-width="3.198" fill="none" stroke-linecap="round" mask="url(#mask-10)"></path>
                                <path d="M294,153 C294,153 318.003142,153 322.647932,171.599788 C322.647932,171.599788 322.647932,184.92569 330.751964,191.532909 C340.819689,199.73673 342,207.692144 342,213" id="Stroke-64" stroke="#E73D3D" stroke-width="3.198" fill="none" stroke-linecap="round" mask="url(#mask-10)"></path>
                                <path d="M161.885235,81.142385 C161.086294,76.1351033 156.998896,68 156.998896,68 C156.998896,68 152.910395,76.1351033 152.121386,81.142385 C152.04083,81.4754943 152,81.8256315 152,82.1842828 C152,84.8395788 154.237917,87 156.998896,87 C159.762083,87 162,84.8395788 162,82.1842828 C162,81.8256315 161.95917,81.4754943 161.885235,81.142385" id="Fill-65" stroke="none" fill="#88D1F5" fill-rule="evenodd" mask="url(#mask-10)"></path>
                                <path d="M195.878574,88.1435294 C195.083784,83.137535 191.001656,75 191.001656,75 C191.001656,75 186.907385,83.137535 186.113699,88.1435294 C186.045259,88.4788235 186,88.8247619 186,89.1834734 C186,91.8445378 188.238658,94 191.001656,94 C193.760238,94 196,91.8445378 196,89.1834734 C196,88.8247619 195.955845,88.4788235 195.878574,88.1435294" id="Fill-66" stroke="none" fill="#88D1F5" fill-rule="evenodd" mask="url(#mask-10)"></path>
                                <path d="M177.883002,59.1415691 C177.083885,54.131153 173.005519,46 173.005519,46 C173.005519,46 168.909492,54.131153 168.119205,59.1415691 C168.043046,59.4756678 168,59.8235986 168,60.1779134 C168,62.8411267 170.232892,65 173.005519,65 C175.757174,65 178,62.8411267 178,60.1779134 C178,59.8235986 177.960265,59.4756678 177.883002,59.1415691" id="Fill-67" stroke="none" fill="#88D1F5" fill-rule="evenodd" mask="url(#mask-10)"></path>
                                <path d="M113,201 C113,201 98.3918127,205.83585 91.6270185,213.162158 C82.3747785,223.176932 87.9657099,237.680247 84.0175512,243.320837 C80.0693925,248.96778 74.9875935,253.482793 73.8603043,263.077197 C72.7340735,272.667364 72.902373,281.53856 70,285" id="Stroke-68" stroke="#E73D3D" stroke-width="3.198" fill="none" stroke-linecap="round" mask="url(#mask-10)"></path>
                                <path d="M101,195 C101,195 82.3245225,197.635838 77.3318927,213.159643 C72.7132935,227.504788 77.8861663,240.983674 74,243" id="Stroke-69" stroke="#E73D3D" stroke-width="3.198" fill="none" stroke-linecap="round" mask="url(#mask-10)"></path>
                                <path d="M92.0706509,377 C88.8943664,377 86.2685116,376.838744 84.2636004,376.518339 C79.2665829,375.720489 75.4272569,373.226813 72.8519195,369.102656 C64.5123309,355.75 72.2614969,329.770868 72.59407,328.671585 C72.6856329,328.376476 72.8824405,328.12247 73.1466046,327.962268 C80.3695472,323.560919 101.447952,322 117.305168,322 C131.567928,322 143.88366,323.173061 150.253068,325.139755 C165.513547,329.847808 166.579676,338.36172 167.610021,346.590008 C167.697375,347.283516 167.783675,347.980185 167.8805,348.677909 C169.148699,357.90957 159.913478,363.701096 159.51881,363.9414 C148.35235,371.143128 110.712641,377 92.0717034,377 L92.0706509,377 Z" id="Fill-70" stroke="none" fill="#00ADFF" fill-rule="evenodd" mask="url(#mask-10)"></path>
                                <path d="M116.789622,320 C100.69258,320 79.2400797,321.621501 71.7578792,326.193793 C71.2248715,326.521068 70.8325187,327.031108 70.6495617,327.63253 C70.3069139,328.760992 62.3625619,355.489191 71.0450872,369.438773 C73.8359744,373.921809 77.9889923,376.631394 83.3899249,377.495273 C85.4680202,377.827862 88.1753606,378 91.4326295,378 C110.309983,378 148.501462,372.002785 159.918824,364.616774 C160.297428,364.384069 170.25325,358.119083 168.867853,347.996922 C168.771615,347.297743 168.683838,346.599626 168.597119,345.907885 C167.56283,337.613367 166.388944,328.211637 150.271808,323.219625 C143.757271,321.203906 131.241109,320 116.789622,320 M116.789622,322.548073 C130.10318,322.548073 142.845658,323.587278 149.525175,325.655064 C165.307066,330.544006 165.11036,339.257182 166.354045,348.344387 C167.530046,356.934303 158.54506,362.473545 158.54506,362.473545 C147.959994,369.322952 110.842991,375.450865 91.4326295,375.450865 C88.3942744,375.450865 85.7884593,375.299978 83.7875655,374.978016 C60.1110277,371.195222 73.0755925,328.372087 73.0755925,328.372087 C79.4452453,324.479848 98.6472687,322.548073 116.789622,322.548073" id="Fill-71" stroke="none" fill="#004C9C" fill-rule="evenodd" mask="url(#mask-10)"></path>
                                <path d="M139.966183,325.104677 C139.966183,325.104677 128.371653,355.257256 144.830782,367 L167.410165,362.19011 C167.410165,362.19011 173.581672,341.567328 161.60596,321 L139.966183,325.104677 Z" id="Fill-72" stroke="none" fill="#FFFFFF" fill-rule="evenodd" mask="url(#mask-10)"></path>
                                <path d="M158.801449,323.653584 C158.801449,323.653584 151.800723,348.259453 159.932932,358.689951 C159.932932,358.689951 205.253086,364.308309 223.144993,352.274812 C223.144993,352.274812 226.474427,349.500755 221.074976,348.830829 C221.074976,348.830829 203.195653,351.49795 197.636808,352.120698 C197.636808,352.120698 226.708274,342.078106 230.269458,336.882253 C230.269458,336.882253 231.066425,332.626811 226.583486,333.334478 C220.73312,334.24239 204.389006,340.282203 204.389006,340.282203 C204.389006,340.282203 228.471039,328.498225 231.689318,325.518681 C231.689318,325.518681 234.222833,323.042369 232.245097,321.024205 C230.265263,319.010235 227.106758,320.387828 227.106758,320.387828 L200.199686,331.529139 C200.199686,331.529139 223.39457,319.924437 224.881542,316.438518 C225.705774,314.516807 226.987213,313.109859 224.333103,312.358158 C221.678993,311.608555 197.086272,321.611307 192.835082,322.804382 C190.195654,323.542454 183.272528,323.054949 183.272528,323.054949 C183.272528,323.054949 195.092806,316.115612 196.959386,311.491134 C196.959386,311.491134 198.885739,306.45254 195.219691,307.049078 C191.549449,307.652954 186.708923,312.928486 181.38078,314.701325 C176.053685,316.485696 160.78338,322.003407 158.801449,323.653584" id="Fill-73" stroke="none" fill="#F5AF90" fill-rule="evenodd" mask="url(#mask-10)"></path>
                            </g>
                        </g>
                    </g>
                </g>
                <g id="Group-102-Copy-8" opacity="0.361955915" transform="translate(400.851955, 65.473282)">
                    <path d="M28,11 L31,11 C30.6688883,8.33252672 30.6688883,5.66666667 31,3 L28,3 C28.3311117,5.66666667 28.3311117,8.33252672 28,11" id="Fill-1" fill="#2BA0FF"></path>
                    <path d="M19.229682,14 L22,12.5663768 C20.283904,10.5363662 18.8748629,8.34655453 17.770318,6 L15,7.43362324 C16.7152431,9.46439836 18.1251371,11.6542101 19.229682,14" id="Fill-3" fill="#2BA0FF"></path>
                    <path d="M12.5656122,22 L14,19.2293444 C11.6534455,18.1255179 9.46363376,16.7154521 7.43285864,15 L6,17.7706556 C8.34578993,18.8753351 10.5356016,20.2845479 12.5656122,22" id="Fill-5" fill="#2BA0FF"></path>
                    <path d="M9.9991933,31 L10,28 C7.33387113,28.3311117 4.66693557,28.3311117 2,28 L2.0008067,31 C4.66693557,30.6696881 7.33387113,30.6688883 9.9991933,31" id="Fill-7" fill="#2BA0FF"></path>
                    <path d="M14,40.7706556 L12.5670044,38 C10.5360352,39.7154521 8.34677882,41.1246649 6,42.2293444 L7.43452495,45 C9.46396483,43.2845479 11.6539859,41.8744821 14,40.7706556" id="Fill-9" fill="#2BA0FF"></path>
                    <path d="M22,47.4337603 L19.2293444,46 C18.1255179,48.3460141 16.7154521,50.5360352 15,52.5670044 L17.7706556,54 C18.8744821,51.6539859 20.2845479,49.4639648 22,47.4337603" id="Fill-11" fill="#2BA0FF"></path>
                    <path d="M31,49.0008067 L28,49 C28.3319115,51.6669356 28.3311117,54.3338711 28.0007998,57 L31,56.9991933 C30.6688883,54.3338711 30.6688883,51.6669356 31,49.0008067" id="Fill-13" fill="#2BA0FF"></path>
                    <path d="M40.7723617,46 L38,47.4337603 C39.7163051,49.4639648 41.1255179,51.6539859 42.2310505,54 L45,52.5662397 C43.2854009,50.5360352 41.8753351,48.3460141 40.7723617,46" id="Fill-15" fill="#2BA0FF"></path>
                    <path d="M47.4357798,38 L46,40.7715087 C48.3470948,41.8744821 50.5359327,43.2854009 52.5665138,45 L54,42.2293444 C51.6536697,41.1255179 49.4640673,39.7163051 47.4357798,38" id="Fill-17" fill="#2BA0FF"></path>
                    <path d="M50.0016134,28 L50,31 C52.6677423,30.6689765 55.3346778,30.6689765 58,30.9992004 L58,28.0007996 C55.3330644,28.331823 52.6669356,28.331823 50.0016134,28" id="Fill-19" fill="#2BA0FF"></path>
                    <path d="M46,19.2279761 L47.4336232,22 C49.4636338,20.283904 51.6542101,18.87401 54,17.7694651 L52.5663768,15 C50.5356016,16.7152431 48.3457899,18.1251371 46,19.2279761" id="Fill-21" fill="#2BA0FF"></path>
                    <path d="M38,12.5642202 L40.7715087,14 C41.8744821,11.6536697 43.286254,9.46330275 45,7.43348624 L42.2310505,6 C41.1263709,8.34633028 39.7163051,10.5359327 38,12.5642202" id="Fill-23" fill="#2BA0FF"></path>
                    <path d="M52,29.5004074 C52,41.3741071 42.1508962,51 29.9991663,51 C17.8499375,51 8,41.3741071 8,29.5004074 C8,17.6267076 17.8499375,8 29.9991663,8 C42.1508962,8 52,17.6267076 52,29.5004074" id="Fill-25" fill="#2BA0FF"></path>
                    <path d="M52,29.4995927 C52,32.0797067 51.5347797,34.5563555 50.6818759,36.8480703 C50.1399526,38.3014721 49.4462909,39.6839961 48.6083941,40.9720164 C45.9046139,45.1570641 41.761819,48.3620432 36.8586641,49.9343893 C34.7026433,50.6260586 32.3957177,51 30.0020843,51 C17.8504974,51 8,41.3736572 8,29.4995927 C8,27.160626 8.38351492,24.9072015 9.09551871,22.7955325 C10.6987778,18.0092458 13.9786641,13.9659537 18.2573567,11.3190353 C19.5754808,10.49946 20.9903174,9.81838161 22.4776883,9.28720562 C24.8229654,8.4545954 27.3566651,8 30.0020843,8 C42.1503363,8 52,17.6255281 52,29.4995927" id="Fill-27" fill="#2BA0FF"></path>
                    <path d="M38,44.0363515 C38,46.4337128 37.6166695,48.7442314 36.9076332,50.9077852 C34.7479539,51.6167228 32.4379489,52 30.0402539,52 C17.8680474,52 8,42.1341609 8,29.9628135 C8,27.5654522 8.38416569,25.2566037 9.09821279,23.0913797 C11.2578921,22.3832772 13.567062,22 15.964757,22 C28.1336228,22 38,31.8658391 38,44.0363515" id="Fill-29" fill="#2B9DFF"></path>
                    <path d="M52,29.9200808 C52,32.5506566 51.5364616,35.0757436 50.6866412,37.4122797 C50.1466771,38.8941071 49.4555231,40.3036704 48.6206556,41.6168818 C45.2363269,43.7598833 41.2239784,45 36.9233722,45 C24.8148855,45 15,35.1870468 15,23.0799192 C15,18.7789651 16.2410867,14.7678976 18.3793444,11.3839488 C19.6927032,10.5483444 21.1024248,9.85394545 22.5844185,9.31238074 C24.9212169,8.46348636 27.4457566,8 30.081612,8 C42.1859452,8 52,17.8137838 52,29.9200808" id="Fill-31" fill="#6EBDFF"></path>
                    <path d="M35,17.5 C35,18.3289086 34.3281711,19 33.5,19 C32.6710914,19 32,18.3289086 32,17.5 C32,16.6718289 32.6710914,16 33.5,16 C34.3281711,16 35,16.6718289 35,17.5" id="Fill-33" fill="#6EBDFF"></path>
                    <path d="M47,33.5003441 C47,34.3282863 46.3275981,35 45.4996559,35 C44.6710255,35 44,34.3282863 44,33.5003441 C44,32.6717137 44.6710255,32 45.4996559,32 C46.3275981,32 47,32.6717137 47,33.5003441" id="Fill-35" fill="#2B9DFF"></path>
                    <path d="M18,29 C18,30.6571501 16.6571501,32 15,32 C13.3428499,32 12,30.6571501 12,29 C12,27.3428499 13.3428499,26 15,26 C16.6571501,26 18,27.3428499 18,29" id="Fill-37" fill="#2B9DFF"></path>
                    <path d="M37,24.5004096 C37,25.8816975 35.8808783,27 34.4995904,27 C33.119941,27 32,25.8816975 32,24.5004096 C32,23.1191217 33.119941,22 34.4995904,22 C35.8808783,22 37,23.1191217 37,24.5004096" id="Fill-39" fill="#2B9DFF"></path>
                    <path d="M40,42.9996872 C40,43.5520801 39.5525657,44 39,44 C38.4480601,44 38,43.5520801 38,42.9996872 C38,42.4472943 38.4480601,42 39,42 C39.5525657,42 40,42.4472943 40,42.9996872" id="Fill-41" fill="#2B9DFF"></path>
                    <path d="M25,18.0004302 C25,19.6576796 23.6570118,21 22.0008603,21 C20.3429882,21 19,19.6576796 19,18.0004302 C19,16.3423204 20.3429882,15 22.0008603,15 C23.6570118,15 25,16.3423204 25,18.0004302" id="Fill-43" fill="#6EBDFF"></path>
                    <path d="M30,14 C30,14.551797 29.551797,15 29,15 C28.4474982,15 28,14.551797 28,14 C28,13.4474982 28.4474982,13 29,13 C29.551797,13 30,13.4474982 30,14" id="Fill-45" fill="#2B9DFF"></path>
                    <path d="M45,20 C45,20.5521108 44.5526229,21 44.0003299,21 C43.4473771,21 43,20.5521108 43,20 C43,19.4472296 43.4473771,19 44.0003299,19 C44.5526229,19 45,19.4472296 45,20" id="Fill-47" fill="#2B9DFF"></path>
                    <path d="M28,41.9995698 C28,43.6568192 26.6570118,45 25.0008603,45 C23.3429882,45 22,43.6568192 22,41.9995698 C22,40.3423204 23.3429882,39 25.0008603,39 C26.6570118,39 28,40.3423204 28,41.9995698" id="Fill-49" fill="#6EBDFF"></path>
                    <path d="M49,24 C49,24.5526634 48.3291982,25 47.5004539,25 C46.6717095,25 46,24.5526634 46,24 C46,23.4473366 46.6717095,23 47.5004539,23 C48.3291982,23 49,23.4473366 49,24" id="Fill-51" fill="#6EBDFF"></path>
                    <path d="M34,2 C34,3.10469314 31.9852273,4 29.5,4 C27.0147727,4 25,3.10469314 25,2 C25,0.895306859 27.0147727,0 29.5,0 C31.9852273,0 34,0.895306859 34,2" id="Fill-53" fill="#2B9DFF"></path>
                    <path d="M32,2 C32,2.55167286 30.8809594,3 29.5007357,3 C28.1197763,3 27,2.55167286 27,2 C27,1.44832714 28.1197763,1 29.5007357,1 C30.8809594,1 32,1.44832714 32,2" id="Fill-55" fill="#2B9DFF"></path>
                    <path d="M34,57.000401 C34,58.1048727 31.9852273,59 29.5,59 C27.0147727,59 25,58.1048727 25,57.000401 C25,55.8959294 27.0147727,55 29.5,55 C31.9852273,55 34,55.8959294 34,57.000401" id="Fill-57" fill="#2B9DFF"></path>
                    <path d="M32,57 C32,57.5516729 30.8809594,58 29.5007357,58 C28.1197763,58 27,57.5516729 27,57 C27,56.4475836 28.1197763,56 29.5007357,56 C30.8809594,56 32,56.4475836 32,57" id="Fill-59" fill="#2B9DFF"></path>
                    <path d="M47.874366,8.4072126 C47.3278769,9.39573706 45.1497723,9.11948275 43.0101417,7.79063295 C40.869726,6.46011896 39.578881,4.5812568 40.1253701,3.59273234 C40.6718592,2.60420787 42.850749,2.88046218 44.9903796,4.21014408 C47.1300101,5.53982598 48.4216403,7.41952023 47.874366,8.4072126" id="Fill-61" fill="#2B9DFF"></path>
                    <path d="M45.9346948,6.74302235 C45.6223655,7.20662925 44.280014,7.02581532 42.9351705,6.33872242 C41.590327,5.65235277 40.7530187,4.72007618 41.065348,4.25646928 C41.3768466,3.79358564 42.7200288,3.97439956 44.0648723,4.66076921 C45.4088851,5.34713887 46.2470241,6.27941545 45.9346948,6.74302235" id="Fill-63" fill="#2B9DFF"></path>
                    <path d="M19.8746229,56.4078863 C19.3281159,57.3955497 17.149155,57.1193035 15.0102399,55.7904926 C12.8697543,54.4600176 11.5788672,52.5812105 12.1253742,51.592715 C12.6718811,50.6042195 14.850842,50.8804657 16.9905424,52.2101086 C19.1302427,53.5405836 20.4211298,55.4193908 19.8746229,56.4078863" id="Fill-65" fill="#2B9DFF"></path>
                    <path d="M17.9349601,54.7430223 C17.6226473,55.2066292 16.2795361,55.0258153 14.9355943,54.3387224 C13.5908218,53.6523528 12.7535577,52.7200762 13.0650399,52.2564693 C13.3773527,51.7935856 14.7204639,51.9743996 16.0644057,52.6607692 C17.4091782,53.3471389 18.2464423,54.2794155 17.9349601,54.7430223" id="Fill-67" fill="#2B9DFF"></path>
                    <path d="M56.3663716,19.8850562 C55.3490055,20.4088692 53.4633627,19.092721 52.1562886,16.9476562 C50.8492145,14.8018132 50.6154151,12.6380686 51.6336284,12.115034 C52.6509945,11.591221 54.5366373,12.9058126 55.8437114,15.0516556 C57.1507855,17.1974987 57.3845849,19.3612432 56.3663716,19.8850562" id="Fill-69" fill="#2B9DFF"></path>
                    <path d="M55.7250314,18.9405141 C55.2467451,19.2384288 54.3108391,18.388302 53.6340049,17.040279 C52.9579088,15.6930791 52.7970038,14.3582236 53.2752902,14.0594859 C53.7535765,13.7615712 54.6894825,14.611698 55.3663167,15.959721 C56.0424128,17.3077439 56.2025797,18.6417764 55.7250314,18.9405141" id="Fill-71" fill="#2B9DFF"></path>
                    <path d="M8.36703628,46.8850105 C7.34879663,47.4088206 5.46395201,46.0934579 4.15684404,43.9484049 C2.84973607,41.8025736 2.6150835,39.6380626 3.63332315,39.1150308 C4.65156281,38.5912207 6.53640742,39.9058051 7.8435154,42.0524147 C9.15062337,44.1974677 9.38442881,46.3612004 8.36703628,46.8850105" id="Fill-73" fill="#2B9DFF"></path>
                    <path d="M6.72455351,45.9405141 C6.24708902,46.2384288 5.31060922,45.388302 4.63389371,44.040279 C3.95791617,42.6930791 3.79703942,41.3590466 4.27524187,41.0594859 C4.75344433,40.7615712 5.68992413,41.611698 6.36590167,42.959721 C7.04261718,44.3077439 7.20275596,45.6425994 6.72455351,45.9405141" id="Fill-75" fill="#2B9DFF"></path>
                    <path d="M57.9085772,33.9998195 C56.8050605,33.9785753 55.9523794,31.9462211 56.0020657,29.460659 C56.0533548,26.9750969 56.9893806,24.9781496 58.092096,25.0001805 C59.1948114,25.0222115 60.0490953,27.0545657 59.9978062,29.539341 C59.9473185,32.0249031 59.012094,34.0218504 57.9085772,33.9998195" id="Fill-77" fill="#2B9DFF"></path>
                    <path d="M57.948761,31.9999184 C57.3973942,31.9888813 56.9730944,30.8608827 57.0013315,29.4797652 C57.0288255,28.0993835 57.4991964,26.9890444 58.0505632,27.0000816 C58.6019301,27.0111187 59.0262299,28.1391173 58.9987358,29.5202348 C58.9704987,30.9006165 58.5008709,32.0109556 57.948761,31.9999184" id="Fill-79" fill="#2B9DFF"></path>
                    <g id="Group-83" transform="translate(0.000000, 24.000000)">
                        <mask id="mask-12" fill="white">
                            <use xlink:href="#path-11"></use>
                        </mask>
                        <g id="Clip-82"></g>
                        <path d="M1.90496,9.98033333 C0.80336,9.95783333 -0.04784,7.80533333 0.00176,5.17283333 C0.05296,2.54033333 0.98736,0.425333333 2.08816,0.448666667 C3.18896,0.472 4.04176,2.6245 3.99056,5.25616667 C3.94016,7.88783333 3.00656,10.0036667 1.90496,9.98033333" id="Fill-81" fill="#2B9DFF" mask="url(#mask-12)"></path>
                    </g>
                    <path d="M1.94876101,31.9999184 C1.39739419,31.9881454 0.97309438,30.8608827 1.0013315,29.4797652 C1.02882553,28.0993835 1.49919642,26.9890444 2.05056324,27.0000816 C2.60193006,27.0111187 3.02622986,28.1391173 2.99873583,29.519499 C2.97049872,30.9006165 2.50087091,32.0109556 1.94876101,31.9999184" id="Fill-84" fill="#2B9DFF"></path>
                    <path d="M51.6133583,46.8801389 C50.6097739,46.344792 50.8642393,44.1744877 52.182756,42.031537 C53.500433,39.8893677 55.3824688,38.5857784 56.386893,39.1195623 C57.3904775,39.6549092 57.1351723,41.8252135 55.8174953,43.9673827 C54.4989785,46.111115 52.616103,47.4147043 51.6133583,46.8801389" id="Fill-86" fill="#2B9DFF"></path>
                    <path d="M53.2663572,45.9379217 C52.7949711,45.6329033 52.9659856,44.2946248 53.6471201,42.9480802 C54.3289855,41.6015356 55.2629876,40.7567422 55.7336428,41.0625872 C56.2050289,41.3676055 56.0340144,42.705884 55.3528799,44.0524286 C54.6717453,45.3989732 53.7377432,46.2421134 53.2663572,45.9379217" id="Fill-88" fill="#2B9DFF"></path>
                    <path d="M3.6129036,19.8801389 C2.61021973,19.344792 2.86382989,17.1744877 4.18310656,15.031537 C5.5007037,12.8893677 7.38262542,11.5857784 8.38698883,12.1195623 C9.39051246,12.6549092 9.13522276,14.8252135 7.81678586,16.9673827 C6.49918872,19.111115 4.61642723,20.4147043 3.6129036,19.8801389" id="Fill-90" fill="#2B9DFF"></path>
                    <path d="M4.26636077,17.9379217 C3.79496834,17.6329033 3.96598513,16.2946248 4.64712893,14.9480802 C5.32827272,13.6015356 6.26228749,12.7567422 6.73367992,13.0625872 C7.20507235,13.3676055 7.03405556,14.705884 6.35218093,16.0524286 C5.67176798,17.3989732 4.73775321,18.2421134 4.26636077,17.9379217" id="Fill-92" fill="#2B9DFF"></path>
                    <path d="M40.1263011,56.4105213 C39.5778359,55.4243194 40.8664933,53.5466311 43.0061361,52.2148017 C45.1457789,50.8838031 47.3247101,50.6029807 47.8731753,51.5891825 C48.423212,52.5753843 47.132983,54.4539035 44.9933402,55.7857329 C42.8544832,57.1167315 40.6747662,57.3967231 40.1263011,56.4105213" id="Fill-94" fill="#2B9DFF"></path>
                    <path d="M41.0658026,54.7446685 C40.7523858,54.2824695 41.5887181,53.3501276 42.9330017,52.6633289 C44.2772853,51.975808 45.6207375,51.793095 45.9341543,52.2552939 C46.247571,52.7167706 45.4120701,53.6491126 44.0669552,54.3373557 C42.7226716,55.0241544 41.378388,55.2068674 41.0658026,54.7446685" id="Fill-96" fill="#2B9DFF"></path>
                    <path d="M12.1263011,8.41061683 C11.5778359,7.42448378 12.8664933,5.54609556 15.0061361,4.21435901 C17.1457789,2.88345325 19.3247101,2.60348119 19.8731753,3.58878346 C20.423212,4.57574728 19.132983,6.45413551 16.9933402,7.78504127 C14.8544832,9.11677782 12.6747662,9.39674988 12.1263011,8.41061683" id="Fill-98" fill="#2B9DFF"></path>
                    <path d="M13.0654933,6.74474925 C12.7529244,6.28262842 13.5892124,5.35044407 14.9334248,4.66303934 C16.2776371,3.97563461 17.6210182,3.79295247 17.9344184,4.25579536 C18.2469872,4.71719412 17.4123619,5.64937847 16.0673182,6.3367832 C14.7222745,7.02418793 13.3788935,7.20687007 13.0654933,6.74474925" id="Fill-100" fill="#2B9DFF"></path>
                </g>
                <g id="Group-102-Copy-9" opacity="0.381487165" transform="translate(452.851955, 299.473282)">
                    <path d="M49,19 L54,19 C53.4481472,14.3319218 53.4481472,9.66666667 54,5 L49,5 C49.5518528,9.66666667 49.5518528,14.3319218 49,19" id="Fill-1" fill="#2BA0FF"></path>
                    <path d="M33.2508834,24 L38,21.4911593 C35.0581211,17.9386409 32.6426222,14.1064704 30.7491166,10 L26,12.5088407 C28.9404167,16.0626971 31.3573778,19.8948676 33.2508834,24" id="Fill-3" fill="#2BA0FF"></path>
                    <path d="M21.4898213,38 L24,33.2503047 C19.8935296,31.3580307 16.0613591,28.940775 12.5075026,26 L10,30.7496953 C14.1051324,32.6434316 17.9373029,35.059225 21.4898213,38" id="Fill-5" fill="#2BA0FF"></path>
                    <path d="M16.9985883,54 L17,49 C12.3342745,49.5518528 7.66713724,49.5518528 3,49 L3.00141172,54 C7.66713724,53.4494801 12.3342745,53.4481472 16.9985883,54" id="Fill-7" fill="#2BA0FF"></path>
                    <path d="M24,70.7496953 L21.4922577,66 C17.9380616,68.940775 14.1068629,71.3565684 10,73.2503047 L12.5104187,78 C16.0619384,75.059225 19.8944752,72.6419693 24,70.7496953" id="Fill-9" fill="#2BA0FF"></path>
                    <path d="M38,81.5090805 L33.2503047,79 C31.3580307,83.1055248 28.940775,86.9380616 26,90.4922577 L30.7496953,93 C32.6419693,88.8944752 35.059225,85.0619384 38,81.5090805" id="Fill-11" fill="#2BA0FF"></path>
                    <path d="M54,85.0014117 L49,85 C49.5531858,89.6671372 49.5518528,94.3342745 49.001333,99 L54,98.9985883 C53.4481472,94.3342745 53.4481472,89.6671372 54,85.0014117" id="Fill-13" fill="#2BA0FF"></path>
                    <path d="M70.75262,79 L66,81.5090805 C68.9422374,85.0619384 71.3580307,88.8944752 73.2532293,93 L78,90.4909195 C75.0606873,86.9380616 72.6434316,83.1055248 70.75262,79" id="Fill-15" fill="#2BA0FF"></path>
                    <path d="M82.5126147,66 L80,70.7511577 C84.1074159,72.6419693 87.9378823,75.0606873 91.4913991,78 L94,73.2503047 C89.893922,71.3580307 86.0621177,68.9422374 82.5126147,66" id="Fill-17" fill="#2BA0FF"></path>
                    <path d="M87.0028234,49 L87,54 C91.668549,53.4482942 96.3356862,53.4482942 101,53.9986674 L101,49.0013326 C96.3328628,49.5530384 91.6671372,49.5530384 87.0028234,49" id="Fill-19" fill="#2BA0FF"></path>
                    <path d="M80,33.2479591 L82.5088407,38 C86.0613591,35.0581211 89.8948676,32.64116 94,30.7476544 L91.4911593,26 C87.9373029,28.9404167 84.1051324,31.3573778 80,33.2479591" id="Fill-21" fill="#2BA0FF"></path>
                    <path d="M66,21.4873853 L70.7511577,24 C72.6419693,19.893922 75.0621496,16.0607798 78,12.5086009 L73.2532293,10 C71.3594931,14.106078 68.9422374,17.9378823 66,21.4873853" id="Fill-23" fill="#2BA0FF"></path>
                    <path d="M90,51.000701 C90,71.4345099 72.9879116,88 51.99856,88 C31.0135284,88 14,71.4345099 14,51.000701 C14,30.5668921 31.0135284,14 51.99856,14 C72.9879116,14 90,30.5668921 90,51.000701" id="Fill-25" fill="#2BA0FF"></path>
                    <path d="M90,50.999299 C90,55.4394953 89.1964377,59.7016351 87.7232402,63.6455164 C86.7871909,66.1467195 85.5890478,68.5259468 84.1417717,70.7425399 C79.4716059,77.944715 72.3158693,83.4602603 63.8467835,86.1661583 C60.1227475,87.356473 56.1380578,88 52.0036002,88 C31.0144955,88 14,71.4337356 14,50.999299 C14,46.9741005 14.6624349,43.0961141 15.8922596,39.4620792 C18.6615253,31.2252136 24.3267835,24.26699 31.7172525,19.7118281 C33.9940123,18.3013963 36.4378209,17.1293079 39.0069162,16.2151911 C43.0578494,14.782327 47.4342397,14 52.0036002,14 C72.9869446,14 90,30.5648624 90,50.999299" id="Fill-27" fill="#2BA0FF"></path>
                    <path d="M66,76.1963426 C66,80.3517689 65.3355604,84.3566677 64.1065642,88.1068277 C60.3631201,89.3356529 56.3591114,90 52.2031067,90 C31.1046156,90 14,72.8992123 14,51.80221 C14,47.6467838 14.6658872,43.6447797 15.9035688,39.8917249 C19.647013,38.6643471 23.6495741,38 27.8055788,38 C48.8982796,38 66,55.1007877 66,76.1963426" id="Fill-29" fill="#2B9DFF"></path>
                    <path d="M90,51.9158155 C90,56.4660007 89.1982039,60.8337187 87.7282443,64.8752946 C86.7942524,67.4384555 85.5987427,69.8766191 84.1546475,72.1481199 C78.3006736,75.8549332 71.3603952,78 63.9215088,78 C42.9770992,78 26,61.0262431 26,40.0841845 C26,32.6446964 28.1467445,25.7066337 31.8453525,19.8533169 C34.1171082,18.407947 36.5555456,17.2068246 39.1189942,16.270064 C43.1610238,14.8017061 47.5277952,14 52.0871127,14 C73.0243377,14 90,30.9751936 90,51.9158155" id="Fill-31" fill="#6EBDFF"></path>
                    <path d="M61,30.5 C61,31.8815143 59.8802852,33 58.5,33 C57.1184857,33 56,31.8815143 56,30.5 C56,29.1197148 57.1184857,28 58.5,28 C59.8802852,28 61,29.1197148 61,30.5" id="Fill-33" fill="#6EBDFF"></path>
                    <path d="M81,57.5005735 C81,58.8804772 79.8793301,60 78.4994265,60 C77.1183758,60 76,58.8804772 76,57.5005735 C76,56.1195228 77.1183758,55 78.4994265,55 C79.8793301,55 81,56.1195228 81,57.5005735" id="Fill-35" fill="#2B9DFF"></path>
                    <path d="M31,50 C31,52.7619169 28.7619169,55 26,55 C23.2380831,55 21,52.7619169 21,50 C21,47.2380831 23.2380831,45 26,45 C28.7619169,45 31,47.2380831 31,50" id="Fill-37" fill="#2B9DFF"></path>
                    <path d="M64,42.5007373 C64,44.9870555 61.9855809,47 59.4992627,47 C57.0158938,47 55,44.9870555 55,42.5007373 C55,40.0144191 57.0158938,38 59.4992627,38 C61.9855809,38 64,40.0144191 64,42.5007373" id="Fill-39" fill="#2B9DFF"></path>
                    <path d="M69,74.4995308 C69,75.3281201 68.3288486,76 67.5,76 C66.6720901,76 66,75.3281201 66,74.4995308 C66,73.6709415 66.6720901,73 67.5,73 C68.3288486,73 69,73.6709415 69,74.4995308" id="Fill-41" fill="#2B9DFF"></path>
                    <path d="M43,31.0007171 C43,33.7627994 40.7616863,36 38.0014339,36 C35.2383137,36 33,33.7627994 33,31.0007171 C33,28.2372006 35.2383137,26 38.0014339,26 C40.7616863,26 43,28.2372006 43,31.0007171" id="Fill-43" fill="#6EBDFF"></path>
                    <path d="M52,24.5 C52,25.3276956 51.3276956,26 50.5,26 C49.6712474,26 49,25.3276956 49,24.5 C49,23.6712474 49.6712474,23 50.5,23 C51.3276956,23 52,23.6712474 52,24.5" id="Fill-45" fill="#2B9DFF"></path>
                    <path d="M78,34.5 C78,35.3281662 77.3289343,36 76.5004949,36 C75.6710657,36 75,35.3281662 75,34.5 C75,33.6708443 75.6710657,33 76.5004949,33 C77.3289343,33 78,33.6708443 78,34.5" id="Fill-47" fill="#2B9DFF"></path>
                    <path d="M48,72.9992829 C48,75.7613653 45.7616863,78 43.0014339,78 C40.2383137,78 38,75.7613653 38,72.9992829 C38,70.2372006 40.2383137,68 43.0014339,68 C45.7616863,68 48,70.2372006 48,72.9992829" id="Fill-49" fill="#6EBDFF"></path>
                    <path d="M85,41.5 C85,42.3289952 83.881997,43 82.5007564,43 C81.1195159,43 80,42.3289952 80,41.5 C80,40.6710048 81.1195159,40 82.5007564,40 C83.881997,40 85,40.6710048 85,41.5" id="Fill-51" fill="#6EBDFF"></path>
                    <path d="M59,3.5 C59,5.433213 55.4181818,7 51,7 C46.5818182,7 43,5.433213 43,3.5 C43,1.566787 46.5818182,0 51,0 C55.4181818,0 59,1.566787 59,3.5" id="Fill-53" fill="#2B9DFF"></path>
                    <path d="M56,3.5 C56,4.32750929 53.9857269,5 51.5013243,5 C49.0155974,5 47,4.32750929 47,3.5 C47,2.67249071 49.0155974,2 51.5013243,2 C53.9857269,2 56,2.67249071 56,3.5" id="Fill-55" fill="#2B9DFF"></path>
                    <path d="M59,98.5007018 C59,100.433527 55.4181818,102 51,102 C46.5818182,102 43,100.433527 43,98.5007018 C43,96.5678765 46.5818182,95 51,95 C55.4181818,95 59,96.5678765 59,98.5007018" id="Fill-57" fill="#2B9DFF"></path>
                    <path d="M56,98.5 C56,99.3275093 53.9857269,100 51.5013243,100 C49.0155974,100 47,99.3275093 47,98.5 C47,97.6713755 49.0155974,97 51.5013243,97 C53.9857269,97 56,97.6713755 56,98.5" id="Fill-59" fill="#2B9DFF"></path>
                    <path d="M82.7801405,14.012021 C81.8237846,15.6595618 78.0121014,15.1991379 74.267748,12.9843882 C70.5220204,10.7668649 68.2630417,7.635428 69.2193976,5.98788723 C70.1757536,4.34034645 73.9888108,4.8007703 77.7331643,7.0169068 C81.4775178,9.2330433 83.7378706,12.365867 82.7801405,14.012021" id="Fill-61" fill="#2B9DFF"></path>
                    <path d="M79.8824506,11.5717039 C79.3202579,12.3443821 76.9040252,12.0430255 74.4833069,10.8978707 C72.0625887,9.75392128 70.5554336,8.20012697 71.1176264,7.4274488 C71.6783239,6.65597607 74.0960518,6.95733261 76.5167701,8.10128202 C78.9359931,9.24523144 80.4446434,10.7990258 79.8824506,11.5717039" id="Fill-63" fill="#2B9DFF"></path>
                    <path d="M34.7805901,97.0131438 C33.8242029,98.6592495 30.0110213,98.1988392 26.2679198,95.9841544 C22.5220701,93.766696 20.2630176,90.6353508 21.2194048,88.9878583 C22.175792,87.3403658 25.9889736,87.8007761 29.7334492,90.0168477 C33.4779248,92.2343061 35.7369772,95.3656513 34.7805901,97.0131438" id="Fill-65" fill="#2B9DFF"></path>
                    <path d="M30.8829282,94.5717039 C30.3207652,95.3443821 27.903165,95.0430255 25.4840697,93.8978707 C23.0634793,92.7539213 21.5564038,91.200127 22.1170718,90.4274488 C22.6792348,89.6559761 25.096835,89.9573326 27.5159303,91.101282 C29.9365207,92.2452314 31.4435962,93.7990258 30.8829282,94.5717039" id="Fill-67" fill="#2B9DFF"></path>
                    <path d="M97.9439527,34.7988483 C96.2483425,35.715521 93.1056044,33.4122617 90.9271476,29.6583984 C88.7486908,25.9031731 88.3590252,22.1166201 90.0560473,21.2013095 C91.7516575,20.2846368 94.8943956,22.585172 97.0728524,26.3403973 C99.2513092,30.0956227 99.6409748,33.8821756 97.9439527,34.7988483" id="Fill-69" fill="#2B9DFF"></path>
                    <path d="M96.5417191,32.8929253 C95.7445752,33.4291718 94.1847319,31.8989436 93.0566748,29.4725023 C91.929848,27.0475423 91.661673,24.6448025 92.4588169,24.1070747 C93.2559608,23.5708282 94.8158041,25.1010564 95.9438612,27.5274977 C97.070688,29.953939 97.3376328,32.3551975 96.5417191,32.8929253" id="Fill-71" fill="#2B9DFF"></path>
                    <path d="M13.9450605,80.7987683 C12.2479944,81.715436 9.10658669,79.4135513 6.9280734,75.6597086 C4.74956011,71.9045038 4.3584725,68.1166096 6.05553859,67.2013039 C7.75260468,66.2846362 10.8940124,68.5851589 13.0725257,72.3417257 C15.2510389,76.0955684 15.6407147,79.8821006 13.9450605,80.7987683" id="Fill-73" fill="#2B9DFF"></path>
                    <path d="M11.5409225,79.8929253 C10.7451484,80.4291718 9.1843487,78.8989436 8.05648952,76.4725023 C6.92986028,74.0475423 6.66173237,71.6462838 7.45873645,71.1070747 C8.25574054,70.5708282 9.81654022,72.1010564 10.9431695,74.5274977 C12.0710286,76.953939 12.3379266,79.3566788 11.5409225,79.8929253" id="Fill-75" fill="#2B9DFF"></path>
                    <path d="M100.34001,58.999679 C98.4088558,58.9619117 96.9166639,55.3488376 97.0036149,50.9300605 C97.0933708,46.5112834 98.7314161,42.9611549 100.661168,43.000321 C102.59092,43.0394871 104.085917,46.6525612 103.996161,51.0699395 C103.907807,55.4887166 102.271165,59.0388451 100.34001,58.999679" id="Fill-77" fill="#2B9DFF"></path>
                    <path d="M100.423142,55.9998532 C99.5960913,55.9799863 98.9596416,53.9495889 99.0019972,51.4635773 C99.0432383,48.9788902 99.7487946,46.9802799 100.575845,47.0001468 C101.402895,47.0200137 102.039345,49.0504111 101.998104,51.5364227 C101.955748,54.0211098 101.251306,56.0197201 100.423142,55.9998532" id="Fill-79" fill="#2B9DFF"></path>
                    <g id="Group-83" transform="translate(0.000000, 42.000000)">
                        <mask id="mask-14" fill="white">
                            <use xlink:href="#path-13"></use>
                        </mask>
                        <g id="Clip-82"></g>
                        <path d="M3.33368,16.9665667 C1.40588,16.9283167 -0.08372,13.2690667 0.00308,8.79381667 C0.09268,4.31856667 1.72788,0.723066667 3.65428,0.762733333 C5.58068,0.8024 7.07308,4.46165 6.98348,8.93548333 C6.89528,13.4093167 5.26148,17.0062333 3.33368,16.9665667" id="Fill-81" fill="#2B9DFF" mask="url(#mask-14)"></path>
                    </g>
                    <path d="M3.42314151,55.9998532 C2.59609128,55.9786618 1.95964157,53.9495889 2.00199724,51.4635773 C2.04323829,48.9788902 2.74879462,46.9802799 3.57584486,47.0001468 C4.40289509,47.0200137 5.0393448,49.0504111 4.99810375,51.5350982 C4.95574807,54.0211098 4.25130637,56.0197201 3.42314151,55.9998532" id="Fill-84" fill="#2B9DFF"></path>
                    <path d="M90.0222639,80.7902431 C88.3496232,79.853386 88.7737321,76.0553535 90.9712601,72.3051897 C93.1673884,68.5563935 96.3041146,66.2751122 97.9781551,67.209234 C99.6507958,68.1460911 99.2252872,71.9441236 97.0291589,75.6929198 C94.8316309,79.4444513 91.6935049,81.7257326 90.0222639,80.7902431" id="Fill-86" fill="#2B9DFF"></path>
                    <path d="M92.4439286,79.888259 C91.6582852,79.3392259 91.9433093,76.9303246 93.0785336,74.5065444 C94.2149759,72.0827641 95.7716461,70.5621359 96.5560714,71.1126569 C97.3417148,71.66169 97.0566907,74.0705913 95.9214664,76.4943715 C94.7862422,78.9181517 93.229572,80.4358042 92.4439286,79.888259" id="Fill-88" fill="#2B9DFF"></path>
                    <path d="M6.02150599,34.7902431 C4.35036622,33.853386 4.77304982,30.0553535 6.97184427,26.3051897 C9.1678395,22.5563935 12.3043757,20.2751122 13.9783147,21.209234 C15.6508541,22.1460911 15.2253713,25.9441236 13.0279764,29.6929198 C10.8319812,33.4444513 7.69404538,35.7257326 6.02150599,34.7902431" id="Fill-90" fill="#2B9DFF"></path>
                    <path d="M7.44393462,30.888259 C6.65828057,30.3392259 6.94330855,27.9303246 8.07854821,25.5065444 C9.21378786,23.0827641 10.7704791,21.5621359 11.5561332,22.1126569 C12.3417873,22.66169 12.0567593,25.0705913 10.9203016,27.4943715 C9.78627996,29.9181517 8.22958868,31.4358042 7.44393462,30.888259" id="Fill-92" fill="#2B9DFF"></path>
                    <path d="M69.2210269,97.0175354 C68.2612128,95.3738657 70.5163633,92.2443851 74.2607382,90.0246694 C78.0051131,87.8063385 81.8182426,87.3383011 82.7780567,88.9819708 C83.7406209,90.6256405 81.4827202,93.7565059 77.7383453,95.9762215 C73.9953455,98.1945525 70.1808409,98.6612051 69.2210269,97.0175354" id="Fill-94" fill="#2B9DFF"></path>
                    <path d="M71.1184447,94.5744474 C70.5542945,93.8041159 72.0596926,92.2502127 74.479403,91.1055482 C76.8991135,89.95968 79.3173275,89.6551583 79.8814777,90.4254898 C80.4456279,91.1946177 78.9417262,92.7485209 76.5205193,93.8955928 C74.1008089,95.0402573 71.6810984,95.344779 71.1184447,94.5744474" id="Fill-96" fill="#2B9DFF"></path>
                    <path d="M21.2210269,14.0176947 C20.2612128,12.3741396 22.5163633,9.2434926 26.2607382,7.02393169 C30.0051131,4.80575541 33.8182426,4.33913531 34.7780567,5.98130576 C35.7406209,7.62624547 33.4827202,10.7568925 29.7383453,12.9750688 C25.9953455,15.1946297 22.1808409,15.6612498 21.2210269,14.0176947" id="Fill-98" fill="#2B9DFF"></path>
                    <path d="M22.1178879,11.5745821 C21.555264,10.8043807 23.0605823,9.25074011 25.4801646,8.10506556 C27.8997468,6.95939101 30.3178327,6.65492078 30.881953,7.4263256 C31.444577,8.19532353 29.9422513,9.74896412 27.5211727,10.8946387 C25.1000941,12.0403132 22.6820082,12.3447835 22.1178879,11.5745821" id="Fill-100" fill="#2B9DFF"></path>
                </g>
                <path d="" id="Path-2" stroke="#979797"></path>
            </g>
        </g>
    </g>
</svg>