<?xml version="1.0" encoding="UTF-8"?>
<svg width="31px" height="31px" viewBox="0 0 31 31" version="1.1" xmlns="http://www.w3.org/2000/svg" xmlns:xlink="http://www.w3.org/1999/xlink">
    <!-- Generator: Sketch 61.1 (89650) - https://sketch.com -->
    <title>contact (1)</title>
    <desc>Created with Sketch.</desc>
    <g id="Page-1" stroke="none" stroke-width="1" fill="none" fill-rule="evenodd">
        <g id="Home-Copy" transform="translate(-784.000000, -5561.000000)" fill="#187DD7" fill-rule="nonzero">
            <g id="contact-(1)" transform="translate(784.000000, 5561.000000)">
                <path d="M29.8199987,28.9199987 L22.589999,28.9199987 C19.0995591,28.9199987 16.2599993,26.0803788 16.2599993,22.589999 C16.2599993,19.0996191 19.0995591,16.2599993 22.589999,16.2599993 C26.0803188,16.2599993 28.9199987,19.0996191 28.9199987,22.589999 C28.9199987,23.422619 28.2425987,24.0999589 27.4100388,24.0999589 C26.5774188,24.0999589 25.9000788,23.422619 25.9000788,22.589999 C25.9000788,20.7648591 24.4151989,19.2799791 22.589999,19.2799791 C20.7648591,19.2799791 19.2800391,20.7648591 19.2800391,22.589999 C19.2800391,24.4150789 20.7648591,25.8999588 22.589999,25.8999588 C23.5392589,25.8999588 24.3958789,25.4976589 25.0000789,24.8553589 C25.6041589,25.4976589 26.4607188,25.8999588 27.4100388,25.8999588 C29.2351187,25.8999588 30.7199986,24.4150789 30.7199986,22.589999 C30.7199986,18.1070992 27.0728988,14.4599994 22.589999,14.4599994 C18.1070992,14.4599994 14.4599994,18.1070992 14.4599994,22.589999 C14.4599994,27.0728988 18.1070992,30.7199986 22.589999,30.7199986 L29.8199987,30.7199986 C30.3169786,30.7199986 30.7199986,30.3170386 30.7199986,29.8199987 C30.7199986,29.3229587 30.3169786,28.9199987 29.8199987,28.9199987 Z M22.589999,24.0999589 C21.757379,24.0999589 21.0800391,23.422619 21.0800391,22.589999 C21.0800391,21.757379 21.757379,21.0799791 22.589999,21.0799791 C23.422619,21.0799791 24.1000789,21.757379 24.1000789,22.589999 C24.1000789,23.422619 23.422619,24.0999589 22.589999,24.0999589 Z" id="Shape"></path>
                <path d="M21.512819,12.7186194 C21.856079,11.7336595 22.043999,10.6765195 22.043999,9.57599957 C22.043999,4.29575981 17.7482992,0 12.4680594,0 C7.18781968,0 2.89205987,4.29575981 2.89205987,9.57599957 C2.89205987,13.3043994 5.03405977,16.5415793 8.15195964,18.1225192 C3.39785985,19.8822591 0,24.4616389 0,29.8199987 C0,30.3170386 0.402959982,30.7199986 0.89999996,30.7199986 L16.8951592,30.7199986 C14.3360394,28.9219787 12.6599994,25.9482588 12.6599994,22.589999 C12.6599994,17.4785992 16.5421793,13.2572994 21.512819,12.7186194 Z" id="Path"></path>
            </g>
        </g>
    </g>
</svg>