<?xml version="1.0" encoding="UTF-8"?>
<svg width="50px" height="57px" viewBox="0 0 60 67" version="1.1" xmlns="http://www.w3.org/2000/svg" xmlns:xlink="http://www.w3.org/1999/xlink">
    <!-- Generator: Sketch 61.1 (89650) - https://sketch.com -->
    <title>Group 17</title>
    <desc>Created with Sketch.</desc>
    <defs>
        <polygon id="path-1" points="0.104012514 0.0029342285 42.9992523 0.0029342285 42.9992523 66.4508197 0.104012514 66.4508197"></polygon>
        <polygon id="path-3" points="0 1.25e-05 12.9717964 1.25e-05 12.9717964 17.9950831 0 17.9950831"></polygon>
    </defs>
    <g id="Page-1" stroke="none" stroke-width="1" fill="none" fill-rule="evenodd">
        <g id="Home" transform="translate(-599.000000, -3379.000000)">
            <g id="Group-17" transform="translate(599.000000, 3379.000000)">
                <path d="M42,28.9774974 C40.67775,28.9774974 40.676125,31 42,31 C45.3055,31 47,28.3409147 47,24.9324921 C47,18.5355691 40,18.5349371 40,23.9212408 C40,25.2579886 42,25.260264 42,23.9212408 C42,21.1552157 45,21.3095579 45,24.9324921 C45,26.1486482 44.707625,28.9774974 42,28.9774974" id="Fill-1" fill="#187DD7"></path>
                <path d="M44.5,49 C40.3598661,49.0046507 37.0046875,52.3333489 37,56.4411042 L37,64.9452233 C37,66.350529 39.1428571,66.352655 39.1428571,64.9452233 L39.1428571,56.4411042 C39.1428571,53.5055886 41.54125,51.1260298 44.5,51.1260298 C47.45875,51.1260298 49.8571429,53.5055886 49.8571429,56.4411042 L49.8571429,64.9452233 C49.8571429,66.350529 52,66.352655 52,64.9452233 L52,56.4411042 C51.9954464,52.3333489 48.6402679,49.0046507 44.5,49" id="Fill-3" fill="#187DD7"></path>
                <g id="Group-7" transform="translate(17.000000, 0.000000)">
                    <mask id="mask-2" fill="white">
                        <use xlink:href="#path-1"></use>
                    </mask>
                    <g id="Clip-6"></g>
                    <path d="M42.1988407,21.4832515 C43.4217921,16.3207237 43.2384213,11.6445068 41.6824486,8.3161254 C40.4872055,5.75932629 38.5605702,4.21213835 36.212169,3.90013099 C33.9079441,-0.401391504 28.762321,-0.416446768 23.9417465,0.459613843 C22.5823453,0.706208682 22.9564061,2.75073947 24.3181599,2.50219783 C34.9935307,0.561885808 33.6526888,5.85510891 35.4916249,5.92155973 C37.8170231,6.00527219 39.1101599,7.74532324 39.7856128,9.19023921 C41.1255398,12.0567095 41.2632967,16.3640724 40.1633331,21.0077128 C38.9095368,26.2995083 36.1605429,31.8046731 32.1961781,36.972652 C30.3948833,36.1854953 28.9858164,35.0919121 27.9034973,33.6447898 C27.080093,32.5426406 25.3994334,33.7785999 26.2246675,34.8825661 C27.5376705,36.6385809 29.3077283,37.9966695 31.4906644,38.9295767 L31.4906644,42.9828172 C29.6217982,43.9386966 23.1801629,47.0276215 16.8987647,47.6505979 C19.9822176,43.2657523 18.5731508,47.1108148 18.943552,39.4552131 C18.943552,38.8818152 18.4753878,38.4169191 17.8979593,38.4169191 C17.8124821,38.4169191 17.727397,38.427302 17.644403,38.4479381 L12.9638073,39.6099189 C11.7613757,39.9101157 10.4986918,39.4258813 9.81147599,38.4010851 C10.4894122,37.8770061 14.3192875,37.1864108 13.8483787,33.674511 C13.5382298,31.3596344 11.58271,30.049437 7.78550942,32.1329039 C7.41811429,31.1091459 7.48058845,30.592335 6.94446079,30.2644937 L4.53946687,28.7951778 C7.15527842,25.3420714 7.44111733,25.3558288 7.44111733,24.7328523 L7.44111733,19.0306711 C10.2495793,20.0949225 14.1012815,19.7315196 21.0338225,19.727626 C22.4163574,19.727626 22.4179258,17.6510379 21.0338225,17.6510379 L11.3462754,17.6510379 C11.1617283,17.5220299 2.99983161,18.5228156 2.25942128,6.29742218 C5.11153678,7.76972315 9.32723587,6.57295947 15.7001234,4.71285566 C15.8062511,4.64796228 17.4479623,4.49325647 17.0749471,3.23017175 C16.7003635,1.96163598 15.2392784,2.71777363 15.1102784,2.72075873 C10.002166,4.21161921 3.72037568,6.27782438 2.12885289,3.49779204 C1.69009605,2.55956357 0.232409119,2.79343931 0.15333617,3.89364165 C-0.188311246,8.61126049 1.21317508,15.0074115 5.35084681,17.9220327 L5.35084681,24.3772366 C0.838983587,30.4068698 0.669466869,28.663574 5.5093848,31.8258284 L6.17072219,34.0118267 C6.33671003,34.5612141 6.91962796,34.8727023 7.4727465,34.7078731 C7.56802614,34.6794498 7.65886201,34.6376585 7.74211733,34.5836672 C10.0903878,33.0672387 11.0403088,33.1011131 11.3398711,33.1856042 C11.8213666,33.3221399 12.1325611,34.7915856 11.117552,35.432213 L7.9743696,36.9908222 C6.11831185,37.9115294 9.2084304,42.6821013 13.4706584,41.6243392 L16.8519745,40.7848784 L16.8519745,44.2638125 C12.2934517,49.6983734 8.48723283,57.8062819 8.48723283,65.4124348 C8.48723283,66.7850595 10.5784182,66.7870063 10.5784182,65.4124348 C10.5784182,59.1826704 13.2093909,53.5331827 15.4728377,49.8258239 C22.4592267,49.6012929 29.8054304,46.1732352 32.2284608,44.9436355 C42.1568863,58.5467153 36.7835854,66.4508586 39.8554061,66.4508586 C40.4328347,66.4508586 40.9009988,65.9859624 40.9009988,65.4125646 C40.9009988,57.8070606 39.669552,51.4298585 33.5818498,43.2639353 L33.5818498,38.5884972 C37.871786,33.0876152 40.8493726,27.1801114 42.1988407,21.4832515" id="Fill-5" fill="#187DD7" mask="url(#mask-2)"></path>
                </g>
                <path d="M36.5004957,4 C38.4983234,4 38.5013455,1 36.5004957,1 C34.4998348,1 34.4998348,4 36.5004957,4" id="Fill-8" fill="#187DD7"></path>
                <path d="M21.0062983,33 L10.9935609,33 C9.66962669,33 9.66799962,36 10.9935609,36 L21.0062983,36 C22.3303576,36 22.3321099,33 21.0062983,33" id="Fill-10" fill="#187DD7"></path>
                <path d="M20.9403215,37 L7.05952838,37 C5.64769156,37 5.64595646,40 7.05952838,40 L20.9403215,40 C22.3522917,40 22.3541603,37 20.9403215,37" id="Fill-12" fill="#187DD7"></path>
                <g id="Group-16" transform="translate(0.000000, 27.000000)">
                    <mask id="mask-4" fill="white">
                        <use xlink:href="#path-3"></use>
                    </mask>
                    <g id="Clip-15"></g>
                    <path d="M11.017006,14.4992625 C9.390056,17.2035125 5.086926,15.9807625 5.195736,12.9358875 C5.191446,12.9233875 5.245916,12.1108875 4.415736,11.9061375 C1.304446,11.1387625 1.303276,6.8615125 4.415736,6.0936375 C4.887766,5.9771375 5.212376,5.5611375 5.196776,5.0928875 L5.195736,5.0640125 C5.086926,2.0213875 9.385246,0.7921375 11.015836,3.5006375 C11.303526,3.9786375 11.939876,4.1418875 12.436996,3.8652625 C14.162226,2.9052625 11.245286,1.25e-05 8.313786,1.25e-05 C5.684406,0.0030125 3.469986,1.8903875 3.151096,4.4000125 C-1.051934,6.1215125 -1.048814,11.8793875 3.151096,13.6000125 C3.742726,18.3375125 10.314876,19.6608875 12.817636,15.5010125 C13.505986,14.3561375 11.706266,13.3531375 11.017006,14.4992625" id="Fill-14" fill="#187DD7" mask="url(#mask-4)"></path>
                </g>
            </g>
        </g>
    </g>
</svg>