<?xml version="1.0" encoding="UTF-8"?>
<svg width="484px" height="503px" viewBox="0 0 484 503" version="1.1" xmlns="http://www.w3.org/2000/svg" xmlns:xlink="http://www.w3.org/1999/xlink">
    <!-- Generator: Sketch 61.1 (89650) - https://sketch.com -->
    <title>Group 24</title>
    <desc>Created with Sketch.</desc>
    <defs>
        <polygon id="path-1" points="0.000108079124 0.384445532 483.890308 0.384445532 483.890308 371.886479 0.000108079124 371.886479"></polygon>
        <polygon id="path-3" points="0 0.627865621 5.989125 0.627865621 5.989125 13.9727343 0 13.9727343"></polygon>
        <polygon id="path-5" points="0 0.493322988 4.9909375 0.493322988 4.9909375 10.9785769 0 10.9785769"></polygon>
        <polygon id="path-7" points="0.000123741007 0.4955 171.179597 0.4955 171.179597 15 0.000123741007 15"></polygon>
        <polygon id="path-9" points="0.000123741007 0.31375 171.179597 0.31375 171.179597 14.818625 0.000123741007 14.818625"></polygon>
        <polygon id="path-11" points="0.04662 0.045 6.98082 0.045 6.98082 3.961875 0.04662 3.961875"></polygon>
        <polygon id="path-13" points="0 0.275007988 62.4139624 0.275007988 62.4139624 149.723321 0 149.723321"></polygon>
        <polygon id="path-15" points="0 502.633578 216.57823 502.633578 216.57823 -0.00127999994 0 -0.00127999994"></polygon>
    </defs>
    <g id="Page-1" stroke="none" stroke-width="1" fill="none" fill-rule="evenodd">
        <g id="Home" transform="translate(-807.000000, -3890.000000)">
            <g id="Group-24" transform="translate(807.000000, 3890.000000)">
                <g id="Group-23" transform="translate(0.000000, 52.000000)">
                    <g id="Group-12" opacity="0.271042597" transform="translate(0.000000, 41.000000)">
                        <path d="M28.2995746,56.8092347 C28.9204354,44.8473644 30.62752,32.4608858 37.182182,22.4289504 C46.8750749,7.59363386 65.5116436,0.780138968 83.2367116,0.074340624 C111.272141,-1.04251468 138.272802,10.5771846 162.522563,24.6711306 C186.771759,38.7650766 209.557013,55.6184117 235.327826,66.6988811 C282.562444,87.0083696 335.687889,86.368634 386.959233,90.3724868 C403.881931,91.694306 421.838833,93.9901268 434.921015,104.789971 C445.825096,113.791441 451.78208,127.666307 453.96414,141.624739 C459.712475,178.387799 440.931152,215.980313 412.633355,240.187502 C384.335558,264.39582 347.789021,276.930799 311.236263,284.155351 C270.573836,292.191853 228.125728,294.239798 187.876643,284.342246 C112.408124,265.784267 58.3095448,206.330073 37.2234596,133.105471 C30.1056124,108.389542 26.9668159,82.5042469 28.2995746,56.8092347" id="Fill-1" fill="#90CCFF"></path>
                        <g id="Group-5">
                            <mask id="mask-2" fill="white">
                                <use xlink:href="#path-1"></use>
                            </mask>
                            <g id="Clip-4"></g>
                            <path d="M266.080018,58.5485252 C304.498649,34.4514025 342.733518,5.576101 387.890831,0.953438273 C402.71842,-0.564535078 418.169102,0.765241132 431.578616,7.25240787 C450.455181,16.3850404 463.343378,34.7646888 471.23156,54.1422328 C488.623896,96.8686186 485.045915,144.972146 478.457635,190.610516 C473.769167,223.086919 467.432499,256.111574 450.879812,284.474686 C428.497074,322.826333 388.791546,349.250564 346.076284,361.758349 C303.362153,374.266134 257.745153,373.889176 213.668924,367.635284 C170.44535,361.501409 127.489784,349.585262 90.058943,327.188675 C52.6281019,304.792089 20.9605925,271.214112 6.17201776,230.27729 C0.7502,215.27054 -2.34491215,198.70074 2.18410654,183.402679 C14.924728,140.370895 84.4884196,138.819114 119.180364,127.424171 C170.70205,110.502206 220.166172,87.3460686 266.080018,58.5485252" id="Fill-3" fill="#4DBCFF" mask="url(#mask-2)"></path>
                        </g>
                        <path d="M269.323514,329 C253.631271,329 236.601004,327.709365 218.70642,325.166471 C175.055301,318.961606 139.842156,307.556391 111.055142,290.301843 C92.4392575,279.143243 75.5378747,264.691747 62.66413,247.162932 C53.0701547,234.100829 31.2547707,203.021197 48.3370439,188.874442 C53.4862026,184.61089 60.1898883,182.754791 66.7545145,181.470365 C76.8058035,179.504785 86.8327852,177.729951 96.8264153,175.641911 C109.194797,173.058384 120.878057,170.616506 131.573203,167.097876 C186.505665,149.022784 239.066766,124.334248 287.795817,93.7162416 C293.629533,90.0503202 299.44403,86.2890261 305.065764,82.6518858 C334.792843,63.420471 362.870992,45.2550854 391.234044,42.3470661 C393.482738,42.1162531 395.672642,42 397.745533,42 C403.511981,42 408.419198,42.898986 411.938082,44.6015853 C428.484468,52.60668 435.03157,78.7337065 437.681049,95.151346 C446.179507,147.802127 439.339023,229.642017 405.68097,273.485218 C373.923396,314.852681 319.265097,329 269.323514,329 Z" id="Stroke-6" stroke="#FFF0DE" stroke-width="1.33"></path>
                        <path d="M270.538678,288 C238.311248,287.941225 204.000499,282.056835 173.95268,272.977495 C158.690871,268.36565 143.674892,262.348232 130.202992,253.734209 C127.059322,251.724063 93.8785954,223.006314 97.2386403,221.043719 C103.516917,217.376094 110.862909,216.115436 117.993092,214.685521 C169.347629,204.39081 217.945932,183.617413 263.7121,158.54125 C283.151308,147.887079 301.881915,135.78318 320.958044,124.498963 C329.097033,119.683896 384.864603,80.331789 392.676764,86.6939498 C394.454778,88.1408474 395.062554,90.5523435 395.523059,92.7979785 C401.199791,120.454895 398.987327,154.069792 395.525891,182.077112 C392.149986,209.392117 382.878709,237.032051 363.417411,256.505165 C343.472384,276.462843 314.791353,285.741442 286.622939,287.520062 C281.341007,287.854049 275.96958,288.00972 270.538678,288 Z" id="Stroke-8" stroke="#FFF0DE" stroke-width="1.33"></path>
                        <path d="M269.954078,244.998873 C247.436581,244.957726 222.310022,241.55892 198,235.332847 C225.602276,225.073299 253.993852,211.963375 283.607115,195.837926 C297.077439,188.49921 310.00189,180.653772 322.500199,173.06705 C329.277634,168.954099 335.678294,165.069427 342.179956,161.246192 C344.45707,159.906961 347.130253,158.161339 352.480024,154.649802 C353.331176,154.091789 354.171546,153.541667 355,153 C354.475691,160.454828 353.689794,168.39665 352.644013,176.808555 C350.739136,192.125731 345.726988,213.110965 332.665217,226.102523 C322.004261,236.705334 304.471675,243.275796 283.297296,244.606573 C279.147649,244.866979 274.784079,245 270.328017,245 L269.954078,244.998873 Z" id="Stroke-10" stroke="#FFF0DE" stroke-width="1.33"></path>
                    </g>
                    <g id="Group-102-Copy-5" opacity="0.365652902" transform="translate(363.000000, 0.000000)">
                        <path d="M39,15 L44,15 C43.4481472,10.9987901 43.4481472,7 44,3 L39,3 C39.5518528,7 39.5518528,10.9987901 39,15" id="Fill-1" fill="#2BA0FF"></path>
                        <path d="M26.4381625,20 L30,17.8495651 C27.7935908,14.8045494 25.9819666,11.5198318 24.5618375,8 L21,10.1504349 C23.2053125,13.1965975 25.0180334,16.4813151 26.4381625,20" id="Fill-3" fill="#2BA0FF"></path>
                        <path d="M17.8484182,30 L20,26.4377285 C16.4801682,25.018523 13.1954506,23.2055813 10.149288,21 L8,24.5622715 C11.5186849,25.9825737 14.8034025,27.7944187 17.8484182,30" id="Fill-5" fill="#2BA0FF"></path>
                        <path d="M14.99879,45 L15,40 C11.0008067,40.5518528 7.00040335,40.5518528 3,40 L3.00121004,45 C7.00040335,44.4494801 11.0008067,44.4481472 14.99879,45" id="Fill-7" fill="#2BA0FF"></path>
                        <path d="M20,57.5622715 L17.8505066,54 C14.8040528,56.2055813 11.5201682,58.0174263 8,59.4377285 L10.1517874,63 C13.1959472,60.7944187 16.4809788,58.981477 20,57.5622715" id="Fill-9" fill="#2BA0FF"></path>
                        <path d="M30,66.1506404 L26.4377285,64 C25.018523,67.5190212 23.2055813,70.8040528 21,73.8505066 L24.5622715,76 C25.981477,72.4809788 27.7944187,69.1959472 30,66.1506404" id="Fill-11" fill="#2BA0FF"></path>
                        <path d="M44,69.00121 L39,69 C39.5531858,73.0004033 39.5518528,77.0008067 39.001333,81 L44,80.99879 C43.4481472,77.0008067 43.4481472,73.0004033 44,69.00121" id="Fill-13" fill="#2BA0FF"></path>
                        <path d="M57.564465,64 L54,66.1506404 C56.206678,69.1959472 58.018523,72.4809788 59.439922,76 L63,73.8493596 C60.7955155,70.8040528 58.9825737,67.5190212 57.564465,64" id="Fill-15" fill="#2BA0FF"></path>
                        <path d="M66.1536697,54 L64,57.5633683 C67.5206422,58.981477 70.8038991,60.7955155 73.8497706,63 L76,59.4377285 C72.4805046,58.018523 69.1961009,56.206678 66.1536697,54" id="Fill-17" fill="#2BA0FF"></path>
                        <path d="M69.0024201,40 L69,45 C73.0016134,44.4482942 77.0020167,44.4482942 81,44.9986674 L81,40.0013326 C76.9995967,40.5530384 73.0004033,40.5530384 69.0024201,40" id="Fill-19" fill="#2BA0FF"></path>
                        <path d="M64,26.4359693 L66.1504349,30 C69.1954506,27.7935908 72.4813151,25.98087 76,24.5607408 L73.8495651,21 C70.8034025,23.2053125 67.5186849,25.0180334 64,26.4359693" id="Fill-21" fill="#2BA0FF"></path>
                        <path d="M54,17.8463303 L57.5633683,20 C58.981477,16.4805046 60.7966122,13.1949541 63,10.1502294 L59.439922,8 C58.0196198,11.5194954 56.206678,14.8038991 54,17.8463303" id="Fill-23" fill="#2BA0FF"></path>
                        <path d="M72,42.5005779 C72,59.3446636 58.3455607,73 41.4988442,73 C24.6555951,73 11,59.3446636 11,42.5005779 C11,25.6564922 24.6555951,12 41.4988442,12 C58.3455607,12 72,25.6564922 72,42.5005779" id="Fill-25" fill="#2BA0FF"></path>
                        <path d="M72,42.4994221 C72,46.1595839 71.3550355,49.6729694 70.1726007,52.9240067 C69.421298,54.9858093 68.4596305,56.9470643 67.2980009,58.7742559 C63.5495784,64.7111839 57.8061582,69.2577822 51.0086026,71.4883197 C48.0195737,72.469525 44.8213359,73 41.5028896,73 C24.6563714,73 11,59.3440253 11,42.4994221 C11,39.1813531 11.5316911,35.9846346 12.5187873,32.9890112 C14.7414874,26.1991626 19.2886026,20.4633296 25.2204263,16.7083989 C27.0478257,15.5457456 29.0093036,14.5795646 31.0713406,13.8260359 C34.3227475,12.6448912 37.8353766,12 41.5028896,12 C58.3447845,12 72,25.654819 72,42.4994221" id="Fill-27" fill="#2BA0FF"></path>
                        <path d="M54,60.8508921 C54,64.2071979 53.4633372,67.4419239 52.4706865,70.4708993 C49.4471355,71.4634119 46.2131284,72 42.8563554,72 C25.8152664,72 12,58.1878253 12,41.1479389 C12,37.791633 12.537832,34.5592451 13.5374979,31.5279316 C16.5610489,30.5365881 19.7938868,30 23.1506598,30 C40.187072,30 54,43.8121747 54,60.8508921" id="Fill-29" fill="#2B9DFF"></path>
                        <path d="M72,42.2141655 C72,45.8400943 71.3610687,49.3206196 70.1896947,52.5412504 C69.4454198,54.5837692 68.4927481,56.5266809 67.3419847,58.336783 C62.6770992,61.2906499 57.1465649,63 51.2187023,63 C34.528626,63 21,49.4740375 21,32.7858345 C21,26.8574924 22.710687,21.3287238 25.6580153,16.6643619 C27.4683206,15.5125828 29.4114504,14.5554383 31.4541985,13.8089572 C34.6751908,12.6388596 38.1549618,12 41.7881679,12 C58.4725191,12 72,25.5271074 72,42.2141655" id="Fill-31" fill="#6EBDFF"></path>
                        <path d="M49,24.5 C49,25.8815143 47.8802852,27 46.5,27 C45.1184857,27 44,25.8815143 44,24.5 C44,23.1197148 45.1184857,22 46.5,22 C47.8802852,22 49,23.1197148 49,24.5" id="Fill-33" fill="#6EBDFF"></path>
                        <path d="M67,46.5005735 C67,47.8804772 65.8793301,49 64.4994265,49 C63.1183758,49 62,47.8804772 62,46.5005735 C62,45.1195228 63.1183758,44 64.4994265,44 C65.8793301,44 67,45.1195228 67,46.5005735" id="Fill-35" fill="#2B9DFF"></path>
                        <path d="M25,39.5 C25,41.9857252 22.9857252,44 20.5,44 C18.0142748,44 16,41.9857252 16,39.5 C16,37.0142748 18.0142748,35 20.5,35 C22.9857252,35 25,37.0142748 25,39.5" id="Fill-37" fill="#2B9DFF"></path>
                        <path d="M51,33.5005735 C51,35.4343765 49.4332296,37 47.4994265,37 C45.5679174,37 44,35.4343765 44,33.5005735 C44,31.5667704 45.5679174,30 47.4994265,30 C49.4332296,30 51,31.5667704 51,33.5005735" id="Fill-39" fill="#2B9DFF"></path>
                        <path d="M57,59.9993744 C57,61.1041602 56.1051314,62 55,62 C53.8961202,62 53,61.1041602 53,59.9993744 C53,58.8945887 53.8961202,58 55,58 C56.1051314,58 57,58.8945887 57,59.9993744" id="Fill-41" fill="#2B9DFF"></path>
                        <path d="M34,26.0005736 C34,28.2102395 32.209349,30 30.0011471,30 C27.790651,30 26,28.2102395 26,26.0005736 C26,23.7897605 27.790651,22 30.0011471,22 C32.209349,22 34,23.7897605 34,26.0005736" id="Fill-43" fill="#6EBDFF"></path>
                        <path d="M42,19 C42,20.1035941 41.1035941,21 40,21 C38.8949965,21 38,20.1035941 38,19 C38,17.8949965 38.8949965,17 40,17 C41.1035941,17 42,17.8949965 42,19" id="Fill-45" fill="#2B9DFF"></path>
                        <path d="M63,27 C63,28.1042216 62.1052458,29 61.0006598,29 C59.8947542,29 59,28.1042216 59,27 C59,25.8944591 59.8947542,25 61.0006598,25 C62.1052458,25 63,25.8944591 63,27" id="Fill-47" fill="#2B9DFF"></path>
                        <path d="M38,58.9994264 C38,61.2090922 36.209349,63 34.0011471,63 C31.790651,63 30,61.2090922 30,58.9994264 C30,56.7897605 31.790651,55 34.0011471,55 C36.209349,55 38,56.7897605 38,58.9994264" id="Fill-49" fill="#6EBDFF"></path>
                        <path d="M69,33 C69,34.1053269 67.881997,35 66.5007564,35 C65.1195159,35 64,34.1053269 64,33 C64,31.8946731 65.1195159,31 66.5007564,31 C67.881997,31 69,31.8946731 69,33" id="Fill-51" fill="#6EBDFF"></path>
                        <path d="M48,3 C48,4.65703971 45.0897727,6 41.5,6 C37.9102273,6 35,4.65703971 35,3 C35,1.34296029 37.9102273,0 41.5,0 C45.0897727,0 48,1.34296029 48,3" id="Fill-53" fill="#2B9DFF"></path>
                        <path d="M45,2 C45,2.55167286 43.209535,3 41.0011772,3 C38.7916421,3 37,2.55167286 37,2 C37,1.44832714 38.7916421,1 41.0011772,1 C43.209535,1 45,1.44832714 45,2" id="Fill-55" fill="#2B9DFF"></path>
                        <path d="M48,80.0006016 C48,81.657309 45.0897727,83 41.5,83 C37.9102273,83 35,81.657309 35,80.0006016 C35,78.3438941 37.9102273,77 41.5,77 C45.0897727,77 48,78.3438941 48,80.0006016" id="Fill-57" fill="#2B9DFF"></path>
                        <path d="M45,81 C45,81.5516729 43.209535,82 41.0011772,82 C38.7916421,82 37,81.5516729 37,81 C37,80.4475836 38.7916421,80 41.0011772,80 C43.209535,80 45,80.4475836 45,81" id="Fill-59" fill="#2B9DFF"></path>
                        <path d="M67.811549,12.2096168 C66.9918153,13.5276494 63.7246584,13.1593103 60.5152125,11.3875106 C57.3045889,9.61349194 55.3683214,7.1083424 56.1880551,5.79030978 C57.0077888,4.47227716 60.2761236,4.84061624 63.4855694,6.61352544 C66.6950152,8.38643464 68.6324605,10.8926936 67.811549,12.2096168" id="Fill-61" fill="#2B9DFF"></path>
                        <path d="M64.9085727,10.5717039 C64.4713117,11.3443821 62.5920196,11.0430255 60.7092387,9.8978707 C58.8264578,8.75392128 57.6542261,7.20012697 58.0914872,6.4274488 C58.5275853,5.65597607 60.4080403,5.95733261 62.2908212,7.10128202 C64.1724391,8.24523144 65.3458337,9.79902575 64.9085727,10.5717039" id="Fill-63" fill="#2B9DFF"></path>
                        <path d="M27.8119343,78.210515 C26.9921739,79.5273996 23.7237326,79.1590713 20.5153598,77.3873235 C17.3046315,75.6133568 15.3683008,73.1082806 16.1880613,71.7902866 C17.0078217,70.4722926 20.276263,70.8406209 23.4858136,72.6134782 C26.6953641,74.3874449 28.6316948,76.892521 27.8119343,78.210515" id="Fill-65" fill="#2B9DFF"></path>
                        <path d="M25.9089442,76.5717039 C25.4717062,77.3443821 23.5913505,77.0430255 21.709832,75.8978707 C19.8271505,74.7539213 18.6549808,73.200127 19.0910558,72.4274488 C19.5282938,71.6559761 21.4086495,71.9573326 23.290168,73.101282 C25.1728495,74.2452314 26.3450192,75.7990258 25.9089442,76.5717039" id="Fill-67" fill="#2B9DFF"></path>
                        <path d="M79.1551622,27.8275843 C77.798674,28.6133037 75.2844835,26.6390814 73.5417181,23.4214843 C71.7989527,20.2027198 71.4872202,16.957103 72.8448378,16.172551 C74.201326,15.3868315 76.7155165,17.3587189 78.4582819,20.5774834 C80.2010473,23.796248 80.5127798,27.0418648 79.1551622,27.8275843" id="Fill-69" fill="#2B9DFF"></path>
                        <path d="M77.5417191,26.9167197 C76.7445752,27.3338003 75.1847319,26.1436228 74.0566748,24.2563907 C72.929848,22.3703107 72.661673,20.5015131 73.4588169,20.0832803 C74.2559608,19.6661997 75.8158041,20.8563772 76.9438612,22.7436093 C78.070688,24.6308415 78.3376328,26.4984869 77.5417191,26.9167197" id="Fill-71" fill="#2B9DFF"></path>
                        <path d="M11.1560484,66.8275157 C9.79839551,67.6132309 7.28526935,65.6401868 5.54245872,62.4226074 C3.79964809,59.2038604 3.486778,55.9570939 4.84443087,55.1725462 C6.20208374,54.3868311 8.7152099,56.3587076 10.4580205,59.578622 C12.2008312,62.7962015 12.5125718,66.0418005 11.1560484,66.8275157" id="Fill-73" fill="#2B9DFF"></path>
                        <path d="M10.5409225,63.9167197 C9.74514837,64.3338003 8.1843487,63.1436228 7.05648952,61.2563907 C5.92986028,59.3703107 5.66173237,57.5026652 6.45873645,57.0832803 C7.25574054,56.6661997 8.81654022,57.8563772 9.94316945,59.7436093 C11.0710286,61.6308415 11.3379266,63.4996391 10.5409225,63.9167197" id="Fill-75" fill="#2B9DFF"></path>
                        <path d="M80.8628659,48.9997392 C79.2075907,48.9690533 77.9285691,46.0334305 78.0030985,42.4431742 C78.0800322,38.8529178 79.4840709,35.9684383 81.138144,36.0002608 C82.7922171,36.0320833 84.0736429,38.967706 83.9967093,42.5568258 C83.9209777,46.1470822 82.518141,49.0315617 80.8628659,48.9997392" id="Fill-77" fill="#2B9DFF"></path>
                        <path d="M79.948761,46.9998695 C79.3973942,46.98221 78.9730944,45.1774124 79.0013315,42.9676243 C79.0288255,40.7590135 79.4991964,38.9824711 80.0505632,39.0001305 C80.6019301,39.01779 81.0262299,40.8225876 80.9987358,43.0323757 C80.9704987,45.2409865 80.5008709,47.0175289 79.948761,46.9998695" id="Fill-79" fill="#2B9DFF"></path>
                        <g id="Group-83" transform="translate(0.000000, 34.000000)">
                            <mask id="mask-4" fill="white">
                                <use xlink:href="#path-3"></use>
                            </mask>
                            <g id="Clip-82"></g>
                            <path d="M2.85744,13.9724667 C1.20504,13.9409667 -0.07176,10.9274667 0.00264,7.24196667 C0.07944,3.55646667 1.48104,0.595466667 3.13224,0.628133333 C4.78344,0.6608 6.06264,3.6743 5.98584,7.35863333 C5.91024,11.0429667 4.50984,14.0051333 2.85744,13.9724667" id="Fill-81" fill="#2B9DFF" mask="url(#mask-4)"></path>
                        </g>
                        <path d="M2.94876101,43.9998695 C2.39739419,43.9810327 1.97309438,42.1774124 2.0013315,39.9676243 C2.02882553,37.7590135 2.49919642,35.9824711 3.05056324,36.0001305 C3.60193006,36.01779 4.02622986,37.8225876 3.99873583,40.0311984 C3.97049872,42.2409865 3.50087091,44.0175289 2.94876101,43.9998695" id="Fill-84" fill="#2B9DFF"></path>
                        <path d="M71.8178111,66.8202084 C70.4796985,66.017188 70.8189857,62.7617316 72.5770081,59.5473054 C74.3339107,56.3340516 76.8432917,54.3786676 78.182524,55.1793434 C79.5206366,55.9823638 79.1802297,59.2378202 77.4233271,62.4510741 C75.6653047,65.6666725 73.154804,67.6220565 71.8178111,66.8202084" id="Fill-86" fill="#2B9DFF"></path>
                        <path d="M73.4439286,63.9130903 C72.6582852,63.4860646 72.9433093,61.6124747 74.0785336,59.7273123 C75.2149759,57.8421499 76.7716461,56.659439 77.5560714,57.087622 C78.3417148,57.5146477 78.0566907,59.3882376 76.9214664,61.2734001 C75.7862422,63.1585625 74.229572,64.3389588 73.4439286,63.9130903" id="Fill-88" fill="#2B9DFF"></path>
                        <path d="M4.8172048,27.8202084 C3.48029298,27.017188 3.81843985,23.7617316 5.57747542,20.5473054 C7.3342716,17.3340516 9.84350057,15.3786676 11.1826518,16.1793434 C12.5206833,16.9823638 12.180297,20.2378202 10.4223811,23.4510741 C8.66558496,26.6666725 6.1552363,28.6220565 4.8172048,27.8202084" id="Fill-90" fill="#2B9DFF"></path>
                        <path d="M6.44393462,25.9130903 C5.65828057,25.4860646 5.94330855,23.6124747 7.07854821,21.7273123 C8.21378786,19.8421499 9.77047915,18.659439 10.5561332,19.087622 C11.3417873,19.5146477 11.0567593,21.3882376 9.92030155,23.2734001 C8.78627996,25.1585625 7.22958868,26.3389588 6.44393462,25.9130903" id="Fill-92" fill="#2B9DFF"></path>
                        <path d="M56.1894516,78.2140283 C55.3667538,76.8990926 57.29974,74.3955081 60.5092042,72.6197356 C63.7186684,70.8450708 66.9870651,70.4706409 67.8097629,71.7855767 C68.6348179,73.1005124 66.6994745,75.6052047 63.4900103,77.3809772 C60.2817247,79.155642 57.0121494,79.5289641 56.1894516,78.2140283" id="Fill-94" fill="#2B9DFF"></path>
                        <path d="M58.0921236,76.5744474 C57.6533402,75.8041159 58.8242053,74.2502127 60.7062024,73.1055482 C62.5881994,71.95968 64.4690325,71.6551583 64.907816,72.4254898 C65.3465995,73.1946177 64.1768982,74.7485209 62.2937373,75.8955928 C60.4117402,77.0402573 58.5297432,77.344779 58.0921236,76.5744474" id="Fill-96" fill="#2B9DFF"></path>
                        <path d="M16.1894516,12.2141558 C15.3667538,10.8993117 17.29974,8.39479408 20.5092042,6.61914535 C23.7186684,4.84460433 26.9870651,4.47130825 27.8097629,5.78504461 C28.6348179,7.10099638 26.6994745,9.60551401 23.4900103,11.380055 C20.2817247,13.1557038 17.0121494,13.5289998 16.1894516,12.2141558" id="Fill-98" fill="#2B9DFF"></path>
                        <path d="M19.0916906,10.5745821 C18.6540942,9.8043807 19.8248974,8.25074011 21.7067947,7.10506556 C23.588692,5.95939101 25.4694255,5.65492078 25.9081857,6.4263256 C26.3457821,7.19532353 25.1773066,8.74896412 23.2942455,9.89463867 C21.4111843,11.0403132 19.5304508,11.3447835 19.0916906,10.5745821" id="Fill-100" fill="#2B9DFF"></path>
                    </g>
                    <g id="Group-102-Copy-6" opacity="0.365652902" transform="translate(44.000000, 254.000000)">
                        <path d="M31,12 L35,12 C34.5585177,8.99909256 34.5585177,6 35,3 L31,3 C31.4414823,6 31.4414823,8.99909256 31,12" id="Fill-1" fill="#2BA0FF"></path>
                        <path d="M21.229682,15 L24,13.3871739 C22.283904,11.103412 20.8748629,8.63987384 19.770318,6 L17,7.61282615 C18.7152431,9.89744815 20.1251371,12.3609863 21.229682,15" id="Fill-3" fill="#2BA0FF"></path>
                        <path d="M13.3863137,23 L15,20.2293444 C12.3601262,19.1255179 9.89658798,17.7154521 7.61196598,16 L6,18.7706556 C8.63901367,19.8753351 11.1025518,21.2845479 13.3863137,23" id="Fill-5" fill="#2BA0FF"></path>
                        <path d="M11.9990925,35 L12,31 C9.00060502,31.4414823 6.00030251,31.4414823 3,31 L3.00090753,35 C6.00030251,34.5595841 9.00060502,34.5585177 11.9990925,35" id="Fill-7" fill="#2BA0FF"></path>
                        <path d="M15,44.7706556 L13.3878799,42 C11.1030396,43.7154521 8.64012617,45.1246649 6,46.2293444 L7.61384057,49 C9.89696043,47.2845479 12.3607341,45.8744821 15,44.7706556" id="Fill-9" fill="#2BA0FF"></path>
                        <path d="M24,51.6129803 L21.2293444,50 C20.1255179,52.6392659 18.7154521,55.1030396 17,57.3878799 L19.7706556,59 C20.8744821,56.3607341 22.2845479,53.8969604 24,51.6129803" id="Fill-11" fill="#2BA0FF"></path>
                        <path d="M35,54.0009075 L31,54 C31.4425487,57.0003025 31.4414823,60.000605 31.0010664,63 L35,62.9990925 C34.5585177,60.000605 34.5585177,57.0003025 35,54.0009075" id="Fill-13" fill="#2BA0FF"></path>
                        <path d="M44.7723617,50 L42,51.6129803 C43.7163051,53.8969604 45.1255179,56.3607341 46.2310505,59 L49,57.3870197 C47.2854009,55.1030396 45.8753351,52.6392659 44.7723617,50" id="Fill-15" fill="#2BA0FF"></path>
                        <path d="M51.6152523,42 L50,44.7715087 C52.6404817,45.8744821 55.1029243,47.2854009 57.387328,49 L59,46.2293444 C56.3603784,45.1255179 53.8970757,43.7163051 51.6152523,42" id="Fill-17" fill="#2BA0FF"></path>
                        <path d="M54.0018151,31 L54,35 C57.00121,34.5586354 60.0015126,34.5586354 63,34.9989339 L63,31.0010661 C59.9996975,31.4424307 57.0003025,31.4424307 54.0018151,31" id="Fill-19" fill="#2BA0FF"></path>
                        <path d="M50,20.2279761 L51.6128261,23 C53.896588,21.283904 56.3609863,19.87401 59,18.7694651 L57.3871739,16 C55.1025518,17.7152431 52.6390137,19.1251371 50,20.2279761" id="Fill-21" fill="#2BA0FF"></path>
                        <path d="M42,13.3847477 L44.7715087,15 C45.8744821,12.3603784 47.286254,9.8962156 49,7.61267202 L46.2310505,6 C45.1263709,8.63962156 43.7163051,11.1029243 42,13.3847477" id="Fill-23" fill="#2BA0FF"></path>
                        <path d="M57,33.0004547 C57,46.2548173 46.2555231,57 32.9990905,57 C19.7453863,57 9,46.2548173 9,33.0004547 C9,19.7460922 19.7453863,9 32.9990905,9 C46.2555231,9 57,19.7460922 57,33.0004547" id="Fill-25" fill="#2BA0FF"></path>
                        <path d="M57,32.9995453 C57,35.8796726 56.492487,38.6443038 55.5620464,41.2024971 C54.9708574,42.8248991 54.2141355,44.3681817 53.3000663,45.8059718 C50.3504879,50.4776529 45.8310753,54.055304 40.4821791,55.810481 C38.1301563,56.5825771 35.6135102,57 33.0022738,57 C19.7459972,57 9,46.254315 9,32.9995453 C9,30.3886057 9.41837991,27.8731551 10.1951113,25.5159432 C11.9441213,20.1731115 15.5221791,15.6596692 20.1898437,12.7049696 C21.6277973,11.7900949 23.1712553,11.0298213 24.7938418,10.4368807 C27.3523259,9.50745533 30.1163619,9 33.0022738,9 C46.2549124,9 57,19.7447756 57,32.9995453" id="Fill-27" fill="#2BA0FF"></path>
                        <path d="M42,47.2399866 C42,49.8770841 41.5783364,52.4186545 40.7983965,54.7985638 C38.4227493,55.5783951 35.8817438,56 33.2442793,56 C19.8548522,56 9,45.147577 9,31.7590948 C9,29.1219974 9.42258226,26.582264 10.2080341,24.2005177 C12.5836813,23.4216049 15.1237682,23 17.7612327,23 C31.1469851,23 42,33.852423 42,47.2399866" id="Fill-29" fill="#2B9DFF"></path>
                        <path d="M57,32.6973847 C57,35.5412504 56.4988774,38.2710742 55.5801527,40.7970592 C54.9964077,42.3990347 54.2492142,43.922887 53.3466547,45.3425749 C49.687921,47.6593333 45.350247,49 40.700943,49 C27.610687,49 17,38.391402 17,25.3026153 C17,20.6529352 18.3417153,16.3166461 20.6533453,12.658323 C22.0731926,11.7549669 23.597216,11.0042653 25.1993714,10.41879 C27.7256399,9.50106634 30.454872,9 33.3044454,9 C46.390211,9 57,19.609496 57,32.6973847" id="Fill-31" fill="#6EBDFF"></path>
                        <path d="M39,19 C39,20.1052114 38.1042281,21 37,21 C35.8947886,21 35,20.1052114 35,19 C35,17.8957719 35.8947886,17 37,17 C38.1042281,17 39,17.8957719 39,19" id="Fill-33" fill="#6EBDFF"></path>
                        <path d="M53,36.0004588 C53,37.1043817 52.1034641,38 50.9995412,38 C49.8947006,38 49,37.1043817 49,36.0004588 C49,34.8956183 49.8947006,34 50.9995412,34 C52.1034641,34 53,34.8956183 53,36.0004588" id="Fill-35" fill="#2B9DFF"></path>
                        <path d="M20,30.5 C20,32.4333418 18.4333418,34 16.5,34 C14.5666582,34 13,32.4333418 13,30.5 C13,28.5666582 14.5666582,27 16.5,27 C18.4333418,27 20,28.5666582 20,30.5" id="Fill-37" fill="#2B9DFF"></path>
                        <path d="M40,26.5004096 C40,27.8816975 38.6570539,29 36.9995084,29 C35.3439292,29 34,27.8816975 34,26.5004096 C34,25.1191217 35.3439292,24 36.9995084,24 C38.6570539,24 40,25.1191217 40,26.5004096" id="Fill-39" fill="#2B9DFF"></path>
                        <path d="M45,46.4995308 C45,47.3281201 44.3288486,48 43.5,48 C42.6720901,48 42,47.3281201 42,46.4995308 C42,45.6709415 42.6720901,45 43.5,45 C44.3288486,45 45,45.6709415 45,46.4995308" id="Fill-41" fill="#2B9DFF"></path>
                        <path d="M27,20.0004302 C27,21.6576796 25.6570118,23 24.0008603,23 C22.3429882,23 21,21.6576796 21,20.0004302 C21,18.3423204 22.3429882,17 24.0008603,17 C25.6570118,17 27,18.3423204 27,20.0004302" id="Fill-43" fill="#6EBDFF"></path>
                        <path d="M33,14.5 C33,15.3276956 32.3276956,16 31.5,16 C30.6712474,16 30,15.3276956 30,14.5 C30,13.6712474 30.6712474,13 31.5,13 C32.3276956,13 33,13.6712474 33,14.5" id="Fill-45" fill="#2B9DFF"></path>
                        <path d="M49,21.5 C49,22.3281662 48.3289343,23 47.5004949,23 C46.6710657,23 46,22.3281662 46,21.5 C46,20.6708443 46.6710657,20 47.5004949,20 C48.3289343,20 49,20.6708443 49,21.5" id="Fill-47" fill="#2B9DFF"></path>
                        <path d="M30,45.9995698 C30,47.6568192 28.6570118,49 27.0008603,49 C25.3429882,49 24,47.6568192 24,45.9995698 C24,44.3423204 25.3429882,43 27.0008603,43 C28.6570118,43 30,44.3423204 30,45.9995698" id="Fill-49" fill="#6EBDFF"></path>
                        <path d="M54,25.5 C54,26.3289952 53.1055976,27 52.0006051,27 C50.8956127,27 50,26.3289952 50,25.5 C50,24.6710048 50.8956127,24 52.0006051,24 C53.1055976,24 54,24.6710048 54,25.5" id="Fill-51" fill="#6EBDFF"></path>
                        <path d="M38,2.5 C38,3.88086643 35.7613636,5 33,5 C30.2386364,5 28,3.88086643 28,2.5 C28,1.11913357 30.2386364,0 33,0 C35.7613636,0 38,1.11913357 38,2.5" id="Fill-53" fill="#2B9DFF"></path>
                        <path d="M35,2 C35,2.55167286 33.6571513,3 32.0008829,3 C30.3437316,3 29,2.55167286 29,2 C29,1.44832714 30.3437316,1 32.0008829,1 C33.6571513,1 35,1.44832714 35,2" id="Fill-55" fill="#2B9DFF"></path>
                        <path d="M38,62.5005013 C38,63.8810908 35.7613636,65 33,65 C30.2386364,65 28,63.8810908 28,62.5005013 C28,61.1199118 30.2386364,60 33,60 C35.7613636,60 38,61.1199118 38,62.5005013" id="Fill-57" fill="#2B9DFF"></path>
                        <path d="M35,63 C35,63.5516729 33.6571513,64 32.0008829,64 C30.3437316,64 29,63.5516729 29,63 C29,62.4475836 30.3437316,62 32.0008829,62 C33.6571513,62 35,62.4475836 35,63" id="Fill-59" fill="#2B9DFF"></path>
                        <path d="M52.8586618,9.4072126 C52.2438615,10.3957371 49.7934938,10.1194828 47.3864094,8.79063295 C44.9784417,7.46011896 43.5262411,5.5812568 44.1410413,4.59273234 C44.7558416,3.60420787 47.2070927,3.88046218 49.614177,5.21014408 C52.0212614,6.53982598 53.4743454,8.41952023 52.8586618,9.4072126" id="Fill-61" fill="#2B9DFF"></path>
                        <path d="M50.9216337,8.65736313 C50.5468386,9.27550566 48.9360168,9.03442043 47.3222046,8.11829656 C45.7083924,7.20313702 44.7036224,5.96010157 45.0784176,5.34195904 C45.452216,4.72478085 47.0640345,4.96586608 48.6778467,5.88102562 C50.2906621,6.79618515 51.2964289,8.0392206 50.9216337,8.65736313" id="Fill-63" fill="#2B9DFF"></path>
                        <path d="M21.8589508,61.4078863 C21.2441304,62.3955497 18.7927994,62.1193035 16.3865199,60.7904926 C13.9784736,59.4600176 12.5262256,57.5812105 13.1410459,56.592715 C13.7558663,55.6042195 16.2071973,55.8804657 18.6143602,57.2101086 C21.0215231,58.5405836 22.4737711,60.4193908 21.8589508,61.4078863" id="Fill-65" fill="#2B9DFF"></path>
                        <path d="M19.9349601,59.6573631 C19.6226473,60.2755057 18.2795361,60.0344204 16.9355943,59.1182966 C15.5908218,58.203137 14.7535577,56.9601016 15.0650399,56.341959 C15.3773527,55.7247809 16.7204639,55.9658661 18.0644057,56.8810256 C19.4091782,57.7961852 20.2464423,59.0392206 19.9349601,59.6573631" id="Fill-67" fill="#2B9DFF"></path>
                        <path d="M62.3663716,21.8706882 C61.3490055,22.4599778 59.4633627,20.9793111 58.1562886,18.5661133 C56.8492145,16.1520398 56.6154151,13.7178272 57.6336284,13.1294132 C58.6509945,12.5401236 60.5366373,14.0190391 61.8437114,16.4331126 C63.1507855,18.847186 63.3845849,21.2813986 62.3663716,21.8706882" id="Fill-69" fill="#2B9DFF"></path>
                        <path d="M60.6333753,20.9405141 C59.9956601,21.2384288 58.7477855,20.388302 57.8453399,19.040279 C56.9438784,17.6930791 56.7293384,16.3582236 57.3670535,16.0594859 C58.0047687,15.7615712 59.2526433,16.611698 60.1550889,17.959721 C61.0565504,19.3077439 61.2701063,20.6417764 60.6333753,20.9405141" id="Fill-71" fill="#2B9DFF"></path>
                        <path d="M8.36703628,51.8706368 C7.34879663,52.4599231 5.46395201,50.9801401 4.15684404,48.5669555 C2.84973607,46.1528953 2.6150835,43.7178204 3.63332315,43.1294097 C4.65156281,42.5401233 6.53640742,44.0190307 7.8435154,46.4339665 C9.15062337,48.8471511 9.38442881,51.2813504 8.36703628,51.8706368" id="Fill-73" fill="#2B9DFF"></path>
                        <path d="M8.63273801,49.9405141 C7.9961187,50.2384288 6.74747896,49.388302 5.84519162,48.040279 C4.94388823,46.6930791 4.72938589,45.3590466 5.36698916,45.0594859 C6.00459243,44.7615712 7.25323217,45.611698 8.15453556,46.959721 C9.0568229,48.3077439 9.27034128,49.6425994 8.63273801,49.9405141" id="Fill-75" fill="#2B9DFF"></path>
                        <path d="M63.3857216,37.9997994 C62.0063256,37.9761948 60.9404742,35.7180235 61.0025821,32.9562878 C61.0666935,30.1945522 62.2367258,27.9757218 63.61512,28.0002006 C64.9935143,28.0246794 66.0613691,30.2828508 65.9972577,33.0437122 C65.9341481,35.8054478 64.7651175,38.0242782 63.3857216,37.9997994" id="Fill-77" fill="#2B9DFF"></path>
                        <path d="M62.948761,36.9999021 C62.3973942,36.9866575 61.9730944,35.6330593 62.0013315,33.9757182 C62.0288255,32.3192601 62.4991964,30.9868533 63.0505632,31.0000979 C63.6019301,31.0133425 64.0262299,32.3669407 63.9987358,34.0242818 C63.9704987,35.6807399 63.5008709,37.0131467 62.948761,36.9999021" id="Fill-79" fill="#2B9DFF"></path>
                        <g id="Group-83" transform="translate(0.000000, 27.000000)">
                            <mask id="mask-6" fill="white">
                                <use xlink:href="#path-5"></use>
                            </mask>
                            <g id="Clip-82"></g>
                            <path d="M2.3812,10.9783667 C1.0042,10.9536167 -0.0598,8.58586667 0.0022,5.69011667 C0.0662,2.79436667 1.2342,0.467866667 2.6102,0.493533333 C3.9862,0.5192 5.0522,2.88695 4.9882,5.78178333 C4.9252,8.67661667 3.7582,11.0040333 2.3812,10.9783667" id="Fill-81" fill="#2B9DFF" mask="url(#mask-6)"></path>
                        </g>
                        <path d="M1.94876101,33.9999021 C1.39739419,33.9857745 0.97309438,32.6330593 1.0013315,30.9757182 C1.02882553,29.3192601 1.49919642,27.9868533 2.05056324,28.0000979 C2.60193006,28.0133425 3.02622986,29.3669407 2.99873583,31.0233988 C2.97049872,32.6807399 2.50087091,34.0131467 1.94876101,33.9999021" id="Fill-84" fill="#2B9DFF"></path>
                        <path d="M56.6133583,51.8651563 C55.6097739,51.262891 55.8642393,48.8212987 57.182756,46.4104791 C58.500433,44.0005387 60.3824688,42.5340007 61.386893,43.1345076 C62.3904775,43.7367729 62.1351723,46.1783652 60.8174953,48.5883056 C59.4989785,51 57.616103,52.4665424 56.6133583,51.8651563" id="Fill-86" fill="#2B9DFF"></path>
                        <path d="M57.3551429,49.9379217 C56.7266282,49.6329033 56.9546475,48.2946248 57.8628269,46.9480802 C58.7719807,45.6015356 60.0173168,44.7567422 60.6448571,45.0625872 C61.2733718,45.3676055 61.0453525,46.705884 60.1371731,48.0524286 C59.2289937,49.3989732 57.9836576,50.2421134 57.3551429,49.9379217" id="Fill-88" fill="#2B9DFF"></path>
                        <path d="M3.6129036,21.8651563 C2.61021973,21.262891 2.86382989,18.8212987 4.18310656,16.4104791 C5.5007037,14.0005387 7.38262542,12.5340007 8.38698883,13.1345076 C9.39051246,13.7367729 9.13522276,16.1783652 7.81678586,18.5883056 C6.49918872,21 4.61642723,22.4665424 3.6129036,21.8651563" id="Fill-90" fill="#2B9DFF"></path>
                        <path d="M5.3551477,19.9379217 C4.72662446,19.6329033 4.95464684,18.2946248 5.86283857,16.9480802 C6.77103029,15.6015356 8.01638332,14.7567422 8.64490656,15.0625872 C9.2734298,15.3676055 9.04540742,16.705884 8.13624124,18.0524286 C7.22902397,19.3989732 5.98367094,20.2421134 5.3551477,19.9379217" id="Fill-92" fill="#2B9DFF"></path>
                        <path d="M44.1420887,61.4105213 C43.5250654,60.4243194 44.974805,58.5466311 47.3819031,57.2148017 C49.7890013,55.8838031 52.2402988,55.6029807 52.8573222,56.5891825 C53.4761135,57.5753843 52.0246059,59.4539035 49.6175077,60.7857329 C47.2112935,62.1167315 44.759112,62.3967231 44.1420887,61.4105213" id="Fill-94" fill="#2B9DFF"></path>
                        <path d="M45.0789631,59.659558 C44.702863,59.0432927 45.7064617,57.8001702 47.319602,56.8844385 C48.9327423,55.967744 50.544885,55.7241266 50.9209851,56.3403919 C51.2970853,56.9556942 50.2944841,58.1988167 48.6803462,59.1164742 C47.0672059,60.0322058 45.4540656,60.2758232 45.0789631,59.659558" id="Fill-96" fill="#2B9DFF"></path>
                        <path d="M13.1420887,9.41061683 C12.5250654,8.42448378 13.974805,6.54609556 16.3819031,5.21435901 C18.7890013,3.88345325 21.2402988,3.60348119 21.8573222,4.58878346 C22.4761135,5.57574728 21.0246059,7.45413551 18.6175077,8.78504127 C16.2112935,10.1167778 13.759112,10.3967499 13.1420887,9.41061683" id="Fill-98" fill="#2B9DFF"></path>
                        <path d="M15.0654933,8.65966566 C14.7529244,8.04350456 15.5892124,6.80059209 16.9334248,5.88405245 C18.2776371,4.96751281 19.6210182,4.72393662 19.9344184,5.34106048 C20.2469872,5.95625883 19.4123619,7.1991713 18.0673182,8.11571094 C16.7222745,9.03225058 15.3788935,9.27582676 15.0654933,8.65966566" id="Fill-100" fill="#2B9DFF"></path>
                    </g>
                    <g id="Group-22" transform="translate(213.000000, 162.000000)">
                        <g id="Group-5" transform="translate(6.000000, 7.000000)" fill="#007CFF">
                            <polygon id="Fill-1" opacity="0.254975818" points="157.825089 247.005768 79.2089797 101.041648 0.590401563 247.005768"></polygon>
                            <polygon id="Fill-3" opacity="0.208263579" points="157.825089 0.065348 79.2089797 146.030708 0.590401563 0.065348"></polygon>
                        </g>
                        <path d="M100.459286,93.7733674 L88.9099513,115.255547 C87.6582261,117.581484 84.3417739,117.581484 83.091288,115.255547 L71.5407145,93.7733674 C66.983691,85.2977277 73.0824434,75 82.6587611,75 L89.3412389,75 C98.9175566,75 105.016309,85.2977277 100.459286,93.7733674" id="Fill-6" fill="#007CFF"></path>
                        <path d="M87.2536509,218.244923 L122.954877,232.740455 C126.292721,234.096669 125.311002,239 121.701487,239 L50.2990356,239 C46.6895208,239 45.7065671,234.097888 49.0456461,232.741673 L84.745637,218.244923 C85.5483003,217.918359 86.4509877,217.918359 87.2536509,218.244923" id="Fill-8" fill="#007CFF"></path>
                        <path d="M90,184.500607 C90,186.986379 87.9851652,189 85.4993931,189 C83.013621,189 81,186.986379 81,184.500607 C81,182.014835 83.013621,180 85.4993931,180 C87.9851652,180 90,182.014835 90,184.500607" id="Fill-10" fill="#007CFF"></path>
                        <path d="M88,136.5 C88,137.881476 86.8814757,139 85.5,139 C84.1185243,139 83,137.881476 83,136.5 C83,135.118524 84.1185243,134 85.5,134 C86.8814757,134 88,135.118524 88,136.5" id="Fill-12" fill="#007CFF"></path>
                        <path d="M88,159.5 C88,160.88058 86.8805798,162 85.5,162 C84.1194202,162 83,160.88058 83,159.5 C83,158.11942 84.1194202,157 85.5,157 C86.8805798,157 88,158.11942 88,159.5" id="Fill-14" fill="#007CFF"></path>
                        <g id="Group-18" transform="translate(0.000000, 247.000000)">
                            <mask id="mask-8" fill="white">
                                <use xlink:href="#path-7"></use>
                            </mask>
                            <g id="Clip-17"></g>
                            <path d="M164.000268,0.4955 L7.17957698,0.4955 C3.22976403,0.4955 0.000123741007,3.75925 0.000123741007,7.748 C0.000123741007,11.73675 3.22976403,15.0005 7.17957698,15.0005 L164.000268,15.0005 C167.948843,15.0005 171.179721,11.73675 171.179721,7.748 C171.179721,3.75925 167.948843,0.4955 164.000268,0.4955" id="Fill-16" fill="#007CFF" mask="url(#mask-8)"></path>
                        </g>
                        <g id="Group-21">
                            <mask id="mask-10" fill="white">
                                <use xlink:href="#path-9"></use>
                            </mask>
                            <g id="Clip-20"></g>
                            <path d="M164.000268,0.313625 L7.17957698,0.313625 C3.22976403,0.313625 0.000123741007,3.577375 0.000123741007,7.566125 C0.000123741007,11.554875 3.22976403,14.818625 7.17957698,14.818625 L164.000268,14.818625 C167.948843,14.818625 171.179721,11.554875 171.179721,7.566125 C171.179721,3.577375 167.948843,0.313625 164.000268,0.313625" id="Fill-19" fill="#007CFF" mask="url(#mask-10)"></path>
                        </g>
                    </g>
                    <g id="Group-14" transform="translate(44.000000, 65.000000)">
                        <g id="Group-3" transform="translate(19.000000, 0.000000)">
                            <mask id="mask-12" fill="white">
                                <use xlink:href="#path-11"></use>
                            </mask>
                            <g id="Clip-2"></g>
                            <path d="M0.76062,3.961875 L0.04662,2.886875 C2.09482,1.801875 4.24942,0.846875 6.45302,0.044375 L6.98082,1.201875 C4.84162,1.980625 2.74862,2.909375 0.76062,3.961875" id="Fill-1" fill="#007CFF" mask="url(#mask-12)"></path>
                        </g>
                        <path d="M1.24509651,28 L0,27.5506158 C3.13060399,18.9012917 8.73949253,11.4494443 16.2193337,6 L17,7.06794833 C9.73318804,12.3614299 4.28440224,19.5991589 1.24509651,28" id="Fill-4" fill="#007CFF"></path>
                        <path d="M83,42.5006579 C83,64.8682642 64.8685587,83 42.5013159,83 C20.134073,83 2,64.8682642 2,42.5006579 C2,20.1330517 20.134073,2 42.5013159,2 C64.8685587,2 83,20.1330517 83,42.5006579" id="Fill-6" fill="#007CFF"></path>
                        <path d="M77,43 C77,61.7856115 61.7856115,77 43.0013222,77 C34.104336,77 26.0006611,73.5821505 19.9424072,67.9813727 C13.212483,61.7697453 9,52.8740813 9,43 C9,24.2302547 24.2302547,9 43.0013222,9 C52.950768,9 61.8927085,13.2733035 68.11888,20.0785923 C68.1347463,20.0785923 68.1651565,20.0944585 68.1810227,20.1394128 C73.6588373,26.1831227 77,34.1942446 77,43" id="Fill-8" fill="#FFFFFF"></path>
                        <path d="M77,43.0473723 C77,61.8068098 61.8065058,77 43.0480134,77 C34.1632457,77 26.0706998,73.5869126 20.0207658,67.9939384 C14.4276798,61.9441255 11,53.8358973 11,44.9513073 C11,26.207714 26.2080182,11 44.9533069,11 C53.9278598,11 62.0520946,14.4592994 68.1310767,20.1579011 C68.1469211,20.1579011 68.1772896,20.1737452 68.1931341,20.2186368 C73.6634258,26.253926 77,34.253886 77,43.0473723" id="Fill-10" fill="#FFFFFF"></path>
                        <path d="M43.130811,44 C42.6349432,44 42.1390754,43.8121039 41.760718,43.4350246 L25.5675362,27.2965477 C24.8108213,26.5436762 24.8108213,25.3197774 25.5675362,24.5656189 C26.324251,23.8114604 27.5510072,23.8114604 28.3077221,24.5656189 L43.130811,39.3399183 L51.6935692,30.8060873 C52.4502841,30.0519288 53.675749,30.0519288 54.4324638,30.8060873 C55.1891787,31.5589588 55.1891787,32.7815707 54.4324638,33.5357292 L44.5009039,43.4350246 C44.1225465,43.8121039 43.6266787,44 43.130811,44" id="Fill-12" fill="#1A2E35"></path>
                    </g>
                </g>
                <g id="Group-113" transform="translate(100.000000, 0.000000)">
                    <g id="Group-3" transform="translate(0.000000, 114.153595)">
                        <mask id="mask-14" fill="white">
                            <use xlink:href="#path-13"></use>
                        </mask>
                        <g id="Clip-2"></g>
                        <path d="M56.0718375,0.275007988 C56.0718375,0.275007988 -0.000799999964,57.3031654 -0.000159999993,76.4695646 C0.000479999979,99.5924435 44.592478,149.723321 44.592478,149.723321 L57.1371174,123.503482 L38.8782383,89.627964 L61.7867172,65.1377251 C61.7867172,65.1377251 65.2075171,19.4964471 56.0718375,0.275007988" id="Fill-1" fill="#2B96F4" mask="url(#mask-14)"></path>
                    </g>
                    <path d="M161.071833,114.428603 C161.071833,114.428603 216.57871,171.45676 216.57807,190.623159 C216.57743,213.746038 163.174873,266.139316 163.174873,266.139316 L162.854233,234.153718 L177.700632,203.781559 L156.683673,176.55372 C156.683673,176.55372 151.936793,133.650042 161.071833,114.428603" id="Fill-4" fill="#2B96F4"></path>
                    <path d="M165.663097,239.646101 C165.663097,239.646101 169.200696,225.050902 166.393657,224.893462 C162.602937,224.682262 161.276217,229.415382 161.276217,229.415382 L160.640057,238.582421 L165.663097,239.646101 Z" id="Fill-6" fill="#D6F1EF"></path>
                    <path d="M49.3549738,239.025461 C49.3549738,239.025461 49.5575338,224.008822 52.3156137,224.554742 C56.0394535,225.292662 56.1482535,230.206902 56.1482535,230.206902 L54.4848936,239.244341 L49.3549738,239.025461 Z" id="Fill-8" fill="#D6F1EF"></path>
                    <polygon id="Fill-10" fill="#0E131A" points="149.812473 490.257642 150.749433 467.687403 138.599994 467.687403 137.661114 490.257642"></polygon>
                    <path d="M185.47372,501.406058 L130.309242,501.406058 C130.309242,501.406058 129.031802,496.785258 129.664442,493.845098 C129.906362,492.701738 130.438842,491.814698 131.448762,491.549418 C131.448762,487.947818 133.153722,480.554859 138.459962,479.607979 C138.459962,479.607979 138.459962,479.609899 138.456122,479.613419 C138.420602,479.869419 137.487482,487.267818 148.887481,479.607979 C151.720441,477.703659 167.79052,493.995178 179.59436,493.818538 C182.35564,493.777258 183.92684,496.563498 184.73676,498.769898 C185.27052,500.211498 185.47372,501.406058 185.47372,501.406058" id="Fill-12" fill="#633131"></path>
                    <path d="M138.456218,479.613579 C138.297498,479.834059 132.206938,488.400778 134.826138,494.860938 C133.079258,494.850378 131.331098,494.456138 129.664218,493.845258 C129.906138,492.701578 130.438618,491.814858 131.448858,491.549578 C131.448858,487.947978 133.153818,480.554699 138.460058,479.607819 C138.460058,479.607819 138.460058,479.609739 138.456218,479.613579" id="Fill-14" fill="#461F1F"></path>
                    <mask id="mask-16" fill="white">
                        <use xlink:href="#path-15"></use>
                    </mask>
                    <g id="Clip-17"></g>
                    <polygon id="Fill-16" fill="#474849" mask="url(#mask-16)" points="130.308474 502.633578 185.473592 502.633578 185.473592 501.406058 130.308474 501.406058"></polygon>
                    <path d="M185.47372,501.406058 L130.309242,501.406058 C130.309242,501.406058 127.844922,492.497258 131.448762,491.549418 C131.448762,491.549418 165.147961,505.020137 184.73676,498.769898 C185.27052,500.211498 185.47372,501.406058 185.47372,501.406058" id="Fill-18" fill="#461F1F" mask="url(#mask-16)"></path>
                    <path d="M156.341209,486.453258 C156.341209,487.135178 155.791129,487.686858 155.110489,487.686858 C154.427609,487.686858 153.878169,487.135178 153.878169,486.453258 C153.878169,485.775498 154.427609,485.221258 155.110489,485.221258 C155.791129,485.221258 156.341209,485.775498 156.341209,486.453258" id="Fill-19" fill="#905454" mask="url(#mask-16)"></path>
                    <path d="M160.355577,488.633578 C160.355577,489.314858 159.802297,489.866538 159.122297,489.866538 C158.442937,489.866538 157.889977,489.314858 157.889977,488.633578 C157.889977,487.954858 158.442937,487.400938 159.122297,487.400938 C159.802297,487.400938 160.355577,487.954858 160.355577,488.633578" id="Fill-20" fill="#905454" mask="url(#mask-16)"></path>
                    <path d="M164.369337,490.813258 C164.369337,491.493898 163.815737,492.046538 163.136697,492.046538 C162.456697,492.046538 161.905017,491.493898 161.905017,490.813258 C161.905017,490.133578 162.456697,489.582218 163.136697,489.582218 C163.815737,489.582218 164.369337,490.133578 164.369337,490.813258" id="Fill-21" fill="#905454" mask="url(#mask-16)"></path>
                    <path d="M180.888728,495.341706 C180.888728,495.807626 179.955608,496.187786 178.805528,496.187786 C177.653848,496.187786 176.720728,495.807626 176.720728,495.341706 C176.720728,494.874506 177.653848,494.494346 178.805528,494.494346 C179.955608,494.494346 180.888728,494.874506 180.888728,495.341706" id="Fill-22" fill="#461F1F" mask="url(#mask-16)"></path>
                    <polygon id="Fill-23" fill="#0E131A" mask="url(#mask-16)" points="71.9818528 490.257642 71.0442528 467.687403 83.1936923 467.687403 84.1332122 490.257642"></polygon>
                    <path d="M36.3206064,501.406058 L91.4844439,501.406058 C91.4844439,501.406058 92.7625239,496.785258 92.1298839,493.845098 C91.8873239,492.701738 91.3548439,491.814698 90.345564,491.549418 C90.345564,487.947818 88.640604,480.554859 83.3343643,479.607979 C83.3343643,479.607979 83.3343643,479.609899 83.3382043,479.613419 C83.3730843,479.869419 84.3062042,487.267818 72.9068447,479.607979 C70.0732449,477.703659 54.0031656,493.995178 42.1993261,493.818538 C39.4380462,493.777258 37.8668463,496.563498 37.0575663,498.769898 C36.5231664,500.211498 36.3206064,501.406058 36.3206064,501.406058" id="Fill-24" fill="#633131" mask="url(#mask-16)"></path>
                    <path d="M83.3380763,479.613579 C83.4967963,479.834059 89.587356,488.400778 86.9681561,494.860938 C88.714396,494.850378 90.463196,494.456138 92.1300759,493.845258 C91.8875159,492.701578 91.3550359,491.814858 90.345436,491.549578 C90.345436,487.947978 88.640476,480.554699 83.3342363,479.607819 C83.3342363,479.607819 83.3342363,479.609739 83.3380763,479.613579" id="Fill-25" fill="#461F1F" mask="url(#mask-16)"></path>
                    <polygon id="Fill-26" fill="#474849" mask="url(#mask-16)" points="36.3206384 502.633578 91.4857559 502.633578 91.4857559 501.406058 36.3206384 501.406058"></polygon>
                    <path d="M36.3206064,501.406058 L91.4844439,501.406058 C91.4844439,501.406058 93.9487638,492.497258 90.345564,491.549418 C90.345564,491.549418 56.6463655,505.020137 37.0575663,498.769898 C36.5231664,500.211498 36.3206064,501.406058 36.3206064,501.406058" id="Fill-27" fill="#461F1F" mask="url(#mask-16)"></path>
                    <path d="M65.4524771,486.453258 C65.4524771,487.135178 66.003197,487.686858 66.683837,487.686858 C67.366077,487.686858 67.916157,487.135178 67.916157,486.453258 C67.916157,485.775498 67.366077,485.221258 66.683837,485.221258 C66.003197,485.221258 65.4524771,485.775498 65.4524771,486.453258" id="Fill-28" fill="#905454" mask="url(#mask-16)"></path>
                    <path d="M61.4387173,488.633578 C61.4387173,489.314858 61.9913572,489.866538 62.6713572,489.866538 C63.3507172,489.866538 63.9036771,489.314858 63.9036771,488.633578 C63.9036771,487.954858 63.3507172,487.400938 62.6713572,487.400938 C61.9913572,487.400938 61.4387173,487.954858 61.4387173,488.633578" id="Fill-29" fill="#905454" mask="url(#mask-16)"></path>
                    <path d="M57.4249574,490.813258 C57.4249574,491.493898 57.9785574,492.046538 58.6569574,492.046538 C59.3375973,492.046538 59.8886373,491.493898 59.8886373,490.813258 C59.8886373,490.133578 59.3375973,489.582218 58.6569574,489.582218 C57.9785574,489.582218 57.4249574,490.133578 57.4249574,490.813258" id="Fill-30" fill="#905454" mask="url(#mask-16)"></path>
                    <path d="M40.9055982,495.341706 C40.9055982,495.807626 41.8380781,496.187786 42.9887981,496.187786 C44.139838,496.187786 45.072958,495.807626 45.072958,495.341706 C45.072958,494.874506 44.139838,494.494346 42.9887981,494.494346 C41.8380781,494.494346 40.9055982,494.874506 40.9055982,495.341706" id="Fill-31" fill="#461F1F" mask="url(#mask-16)"></path>
                    <polygon id="Fill-32" fill="#2B96F4" mask="url(#mask-16)" points="126.489338 479.472651 156.546297 479.472651 156.545017 251.327381 136.583098 251.260501 136.583098 251.168021 79.9875804 251.168021 79.9875804 251.267541 62.2074212 251.327381 62.2055012 479.472651 92.2624599 479.472651 107.114299 296.629779 111.637499 296.629779"></polygon>
                    <path d="M156.544953,251.327349 L156.544953,407.746542 C144.469434,411.055982 132.443194,412.647662 121.098555,413.135662 L111.637435,296.631347 L107.115515,296.631347 L97.6860756,412.710382 C82.4454363,411.533742 69.8675169,408.860462 62.2051172,406.899822 L62.2086372,251.327349 L79.9862364,251.267509 L79.9862364,251.169589 L136.581754,251.169589 L136.581754,251.260469 L156.544953,251.327349 Z" id="Fill-33" fill="#0071D6" mask="url(#mask-16)"></path>
                    <path d="M161.071833,114.428603 L119.825435,95.3860437 L97.3182356,95.3860437 L56.0718375,114.428603 L51.2980777,385.833711 C123.627994,396.39371 165.845593,385.833711 165.845593,385.833711 L161.071833,114.428603 Z" id="Fill-34" fill="#2B96F4" mask="url(#mask-16)"></path>
                    <path d="M165.845593,385.833583 C165.845593,385.833583 123.627994,396.393582 51.2980777,385.833583 L51.3367977,383.635183 C125.720474,314.902386 159.403673,187.673592 159.403673,187.673592 C159.403673,187.673592 160.565593,186.147192 162.293593,183.948792 L165.845593,385.833583 Z" id="Fill-35" fill="#0071D6" opacity="0.523158482" mask="url(#mask-16)"></path>
                    <path d="M87.3137241,168.72892 L79.7092444,164.596121 C73.1719647,158.347801 68.5457249,135.168922 68.3537249,134.186202 L69.3380449,133.798042 C69.3863649,134.033882 74.0311647,157.330521 80.2356444,163.356441 L87.6801241,167.382361 L87.3137241,168.72892 Z" id="Fill-36" fill="#5E5F60" mask="url(#mask-16)"></path>
                    <path d="M89.084956,170.035768 C88.970716,170.035768 88.857436,170.007608 88.754396,169.951608 L86.3262361,168.682488 C86.0875162,168.556408 85.8929562,168.309048 85.7886362,167.980408 C85.6830362,167.654649 85.6743962,167.287609 85.7630362,166.949369 C85.9412762,166.274489 86.5118361,165.905849 86.9886361,166.155769 L89.416156,167.428409 C89.656796,167.554169 89.846236,167.803128 89.953116,168.131448 C90.058716,168.456248 90.066716,168.823608 89.979996,169.159288 C89.839196,169.683128 89.479196,170.035768 89.084956,170.035768" id="Fill-37" fill="#BCBEC0" mask="url(#mask-16)"></path>
                    <path d="M74.3756127,168.72892 L74.0098527,167.382361 L81.4549724,163.356441 C87.6607321,157.325721 92.3055319,134.033882 92.3506519,133.798042 L93.3375318,134.186202 C93.1423318,135.168922 88.518012,158.347801 81.9813723,164.596121 L81.8760923,164.673241 L74.3756127,168.72892 Z" id="Fill-38" fill="#5E5F60" mask="url(#mask-16)"></path>
                    <path d="M72.6068448,170.035768 C72.2074848,170.035768 71.8494048,169.683128 71.7111648,169.157688 C71.6244448,168.823608 71.6318048,168.456248 71.7380448,168.131448 C71.8455648,167.803128 72.0350048,167.554169 72.2737248,167.428409 L74.6999647,166.155769 C75.1767646,165.905849 75.7479646,166.274489 75.9268446,166.949369 C76.0161246,167.287609 76.0055646,167.654649 75.9006046,167.980408 C75.7937246,168.309048 75.6042846,168.556408 75.3655646,168.682488 L72.9374047,169.951608 C72.8324447,170.007608 72.7204447,170.035768 72.6068448,170.035768" id="Fill-39" fill="#BCBEC0" mask="url(#mask-16)"></path>
                    <path d="M92.9674518,134.393274 C92.4023319,134.393274 91.9463319,133.754874 91.9424919,132.959674 C91.9216919,127.832314 90.220572,123.654074 87.1536921,121.189755 C83.3930523,118.171515 78.1805725,118.197435 74.4724127,121.252475 C72.3581728,122.996155 69.8429729,126.439034 69.8679329,132.936954 C69.8730529,133.734394 69.4167329,134.383674 68.8538529,134.388474 L68.8455329,134.388474 C68.2823329,134.388474 67.825693,133.747514 67.8222845,132.953594 C67.798813,126.810554 69.7930529,121.769915 73.4388127,118.763195 C77.7469725,115.210235 83.8029723,115.177275 88.1687321,118.682235 C91.8954519,121.677115 93.9655318,126.743354 93.9911318,132.941754 C93.9911318,133.737594 93.5348118,134.388474 92.9732118,134.393274 L92.9674518,134.393274 Z" id="Fill-40" fill="#231F20" mask="url(#mask-16)"></path>
                    <path d="M81.9018523,117.347355 L79.6381724,117.321755 C79.6407324,117.079195 79.9463324,92.3582359 97.3181716,92.3582359 L97.3181716,95.3105557 C82.1600923,95.3105557 81.9056923,117.127195 81.9018523,117.347355" id="Fill-41" fill="#231F20" mask="url(#mask-16)"></path>
                    <polygon id="Fill-42" fill="#FFFFFF" mask="url(#mask-16)" points="120.378875 169.778872 147.055673 169.778872 147.055673 155.358073 120.378875 155.358073"></polygon>
                    <polygon id="Fill-43" fill="#D1D3D4" mask="url(#mask-16)" points="122.228155 165.785913 129.735674 165.785913 129.735674 159.351353 122.228155 159.351353"></polygon>
                    <polygon id="Fill-44" fill="#D1D3D4" mask="url(#mask-16)" points="131.746234 160.758713 145.207994 160.758713 145.207994 159.819833 131.746234 159.819833"></polygon>
                    <polygon id="Fill-45" fill="#D1D3D4" mask="url(#mask-16)" points="131.746234 163.037113 145.207994 163.037113 145.207994 162.099193 131.746234 162.099193"></polygon>
                    <polygon id="Fill-46" fill="#D1D3D4" mask="url(#mask-16)" points="131.746234 165.316793 145.207994 165.316793 145.207994 164.378233 131.746234 164.378233"></polygon>
                    <polygon id="Fill-47" fill="#F1F2F2" mask="url(#mask-16)" points="132.310394 156.670073 135.125434 156.670073 135.125434 152.801913 132.310394 152.801913"></polygon>
                    <polygon id="Fill-48" fill="#FCAE88" mask="url(#mask-16)" points="97.3180756 95.3861077 119.825595 95.3861077 108.571835 122.037307"></polygon>
                    <path d="M140.178714,162.452953 C140.026714,119.836955 132.314394,103.922075 125.872474,98.0759956 C122.419355,94.9419158 119.941275,95.0449558 119.825435,95.0523158 L119.825435,92.2180759 C119.825435,92.2180759 123.026075,92.5291159 127.225114,96.2468757 C134.080474,102.316955 142.286234,118.728795 142.444954,162.446873 L140.178714,162.452953 Z" id="Fill-49" fill="#231F20" mask="url(#mask-16)"></path>
                    <path d="M146.517465,164.713913 C146.517465,167.730873 144.072986,170.173752 141.055706,170.173752 C138.040666,170.173752 135.594906,167.730873 135.594906,164.713913 C135.594906,161.698553 138.040666,159.254393 141.055706,159.254393 C144.072986,159.254393 146.517465,161.698553 146.517465,164.713913" id="Fill-50" fill="#8D8F90" mask="url(#mask-16)"></path>
                    <path d="M145.951225,164.713913 C145.951225,167.417273 143.760506,169.608312 141.055546,169.608312 C138.351866,169.608312 136.163066,167.417273 136.163066,164.713913 C136.163066,162.011193 138.351866,159.819833 141.055546,159.819833 C143.760506,159.819833 145.951225,162.011193 145.951225,164.713913" id="Fill-51" fill="#BCBEC0" mask="url(#mask-16)"></path>
                    <path d="M144.455578,164.713913 C144.455578,166.591993 142.934298,168.114552 141.055578,168.114552 C139.180058,168.114552 137.658138,166.591993 137.658138,164.713913 C137.658138,162.835513 139.180058,161.314873 141.055578,161.314873 C142.934298,161.314873 144.455578,162.835513 144.455578,164.713913" id="Fill-52" fill="#58595B" mask="url(#mask-16)"></path>
                    <polygon id="Fill-53" fill="#FCAE88" mask="url(#mask-16)" points="97.3180756 95.3862357 119.825595 95.3862357 119.825595 77.6460765 97.3180756 77.6460765"></polygon>
                    <path d="M119.825595,77.6461085 L119.825595,89.090268 C116.363835,91.4502679 112.565755,92.7507479 108.572475,92.7507479 C104.584955,92.7507479 100.789435,91.4502679 97.3180756,89.090268 L97.3180756,77.6461085 L119.825595,77.6461085 Z" id="Fill-54" fill="#B06D4D" mask="url(#mask-16)"></path>
                    <path d="M107.908091,77.5839005 C102.322491,77.5839005 97.7944916,73.0546207 97.7944916,67.469981 L118.018811,67.469981 C118.018811,73.0546207 113.491771,77.5839005 107.908091,77.5839005" id="Fill-55" fill="#720711" mask="url(#mask-16)"></path>
                    <path d="M118.018715,67.469853 C118.018715,67.469853 116.799195,69.9834529 116.013595,70.3981729 C112.478875,72.2640928 103.600475,72.1744928 100.019356,70.3981729 C99.1956756,69.9892129 97.7943956,67.469853 97.7943956,67.469853 L118.018715,67.469853 Z" id="Fill-56" fill="#F1F2F2" mask="url(#mask-16)"></path>
                    <path d="M77.3981085,53.1676456 C78.5542685,56.1865255 81.9376283,57.6959654 84.9549082,56.5436455 C87.9763481,55.3887655 89.487388,52.0057257 88.3331481,48.9852458 L85.3113882,41.0886062 C84.1606682,38.0710063 80.7731484,36.5596464 77.7568285,37.7132463 C74.7379487,38.8671663 73.2256287,42.2505261 74.3798687,45.269726 L77.3981085,53.1676456 Z" id="Fill-57" fill="#FCAE88" mask="url(#mask-16)"></path>
                    <path d="M83.3062043,44.526718 C83.3062043,44.526718 70.9513248,39.3247982 81.3554844,52.9788776 C81.3554844,50.3788777 74.8530847,45.177278 83.3062043,44.526718" id="Fill-58" fill="#B06D4D" mask="url(#mask-16)"></path>
                    <path d="M138.63497,53.1676456 C137.47881,56.1865255 134.09673,57.6959654 131.07753,56.5436455 C128.05929,55.3887655 126.54825,52.0057257 127.70185,48.9852458 L130.72009,41.0886062 C131.87369,38.0710063 135.25609,36.5596464 138.27689,37.7132463 C141.29609,38.8671663 142.80873,42.2505261 141.65449,45.269726 L138.63497,53.1676456 Z" id="Fill-59" fill="#FCAE88" mask="url(#mask-16)"></path>
                    <path d="M132.726202,44.526718 C132.726202,44.526718 145.081082,39.3247982 134.675642,52.9788776 C134.675642,50.3788777 141.179322,45.177278 132.726202,44.526718" id="Fill-60" fill="#B06D4D" mask="url(#mask-16)"></path>
                    <path d="M91.0774679,11.4389115 C91.0774679,11.4389115 79.3238685,12.9726714 77.4637085,16.0488313 C73.4710687,22.650431 82.2761883,46.5339499 82.2761883,46.5339499 L91.0774679,11.4389115 Z" id="Fill-61" fill="#E6E7E8" mask="url(#mask-16)"></path>
                    <path d="M133.758074,44.641086 C133.758074,44.641086 141.168634,23.9220469 138.502394,17.5975672 C136.297914,12.3636474 119.750715,4.78412779 119.750715,4.78412779 L111.004475,16.3431673 L133.758074,44.641086 Z" id="Fill-62" fill="#E6E7E8" mask="url(#mask-16)"></path>
                    <path d="M82.2743323,46.5307819 C82.2743323,51.6943017 82.8573723,56.6389415 83.9092122,61.2011813 L83.9162522,61.2011813 C84.1648922,62.3048612 84.4500122,63.3781412 84.7568922,64.4293411 C85.0180122,65.3202211 85.2980122,66.190941 85.5975322,67.036381 C90.008092,79.7211804 98.3904916,88.2875801 108.016731,88.2875801 C117.473691,88.2875801 125.74921,80.0056604 130.21737,67.664861 C130.59625,66.613661 130.94857,65.5391011 131.26857,64.4293411 C131.58377,63.3855012 131.86121,62.3115812 132.11561,61.2159013 L132.11561,61.2011813 C133.17545,56.6389415 133.75945,51.6943017 133.75945,46.5307819 C133.75945,44.646622 133.67945,42.7912621 133.52681,40.9730222 C133.51881,40.8639022 133.51881,40.8050222 133.51881,40.8050222 C131.79497,20.4591031 121.029851,4.78774379 108.016731,4.78774379 C94.9581718,4.78774379 84.1648922,20.5608631 82.5005723,41.0091822 C82.3549723,42.8139821 82.2743323,44.661022 82.2743323,46.5307819" id="Fill-63" fill="#FCAE88" mask="url(#mask-16)"></path>
                    <path d="M129.85433,68.6395489 C125.31129,80.4369884 117.223611,88.2894681 108.015611,88.2894681 C98.6136916,88.2894681 90.403132,80.1173084 85.9167322,67.922749 C94.5807318,65.0523491 111.093051,61.6974692 129.85433,68.6395489" id="Fill-64" fill="#D1D3D4" mask="url(#mask-16)"></path>
                    <path d="M100.419356,29.0267187 L100.419356,30.9723186 L101.511835,30.9723186 L101.511835,28.8289587 L104.928155,28.2081587 C104.928155,28.2081587 105.906715,32.7611185 104.928155,33.7377585 C102.238235,36.4254384 89.721756,33.7377585 89.721756,33.7377585 L89.721756,30.9723186 L100.419356,29.0267187 Z" id="Fill-65" fill="#9D9E9F" mask="url(#mask-16)"></path>
                    <path d="M115.616219,28.3564147 L115.616219,30.3013746 L114.522459,30.3013746 L114.522459,28.1576947 L111.107419,27.5378548 C111.107419,27.5378548 110.128219,32.0908146 111.107419,33.0674545 C113.793819,35.7570544 126.311898,33.0674545 126.311898,33.0674545 L126.311898,30.3013746 L115.616219,28.3564147 Z" id="Fill-66" fill="#9D9E9F" mask="url(#mask-16)"></path>
                    <path d="M108.664347,43.0132781 C108.664347,43.0132781 110.211227,53.8724776 111.311067,61.5697572 C94.0438678,65.6171171 108.356187,43.4823981 108.656987,43.0212781 L108.664347,43.0132781 Z" id="Fill-67" fill="#FCAE88" mask="url(#mask-16)"></path>
                    <path d="M111.311227,61.5698532 C94.0437078,65.6168931 108.356347,43.4824941 108.656827,43.0213741 C108.441147,43.4575341 99.0523476,62.6860132 111.311227,61.5698532" id="Fill-68" fill="#B06D4D" mask="url(#mask-16)"></path>
                    <path d="M127.31433,16.1692153 C126.54057,16.7218553 124.58249,17.1170552 121.934811,17.3935352 C121.819291,17.4076152 121.703771,17.4178552 121.588571,17.4290552 C117.870491,17.7999352 112.891291,17.9535352 107.938651,17.9951352 C107.820571,17.9989752 107.704411,17.9989752 107.585691,17.9989752 C101.997531,18.0408952 96.4855317,17.9468152 92.9044118,17.8588152 C92.7818519,17.8549752 92.6624919,17.8517752 92.5476119,17.8479352 C90.259932,17.7919352 88.848092,17.7429752 88.848092,17.7429752 L84.6679322,12.6655354 C84.6679322,12.6655354 81.6400924,-0.760383966 97.7930516,1.13145595 C98.5968916,1.22617595 99.3956116,1.31289594 100.193052,1.39353594 C100.562972,1.43193594 100.930011,1.46713593 101.297371,1.50201593 C105.909851,1.94969591 110.377371,2.2226559 114.495451,2.58649588 C114.813851,2.61465588 115.129371,2.64249588 115.440731,2.67033588 C119.539291,3.05177586 123.27689,3.53785584 126.45257,4.3980158 C126.59945,4.4399358 126.74697,4.4783358 126.89001,4.5205758 C130.21321,5.47161576 132.88809,6.85913569 134.67817,9.0002556 C137.15433,11.9589755 131.23305,13.3717754 127.31433,16.1692153" id="Fill-69" fill="#D1D3D4" mask="url(#mask-16)"></path>
                    <path d="M126.889978,4.5204798 C126.617338,4.70575979 126.354938,4.90479978 126.103098,5.12175977 C122.428219,8.28367963 121.886779,13.9630394 121.935099,17.3937592 C121.819259,17.4075192 121.703739,17.4180792 121.588859,17.4289592 C121.539899,13.9345594 122.088059,8.11567964 125.872378,4.85615978 C126.061818,4.69551979 126.253818,4.5409598 126.452538,4.3979198 C126.599418,4.4398398 126.746938,4.4782398 126.889978,4.5204798" id="Fill-70" fill="#9D9E9F" mask="url(#mask-16)"></path>
                    <path d="M115.440603,2.67046388 C112.894363,3.34470385 110.946843,4.5802238 109.613083,6.36006372 C107.047323,9.79462356 107.298843,14.6173433 107.938843,17.9952632 C107.820763,17.9987832 107.704283,17.9987832 107.585563,17.9987832 C106.945563,14.5539833 106.711323,9.65766357 109.334363,6.15046373 C110.561883,4.5101438 112.285723,3.31718385 114.495643,2.58630388 C114.813723,2.61446388 115.129243,2.64230388 115.440603,2.67046388" id="Fill-71" fill="#9D9E9F" mask="url(#mask-16)"></path>
                    <path d="M101.297467,1.50204793 C98.2305876,2.10012791 95.9301077,3.41532785 94.4219478,5.43292776 C91.6488279,9.14396759 92.1669079,14.4767674 92.9041878,17.8588472 C92.7819479,17.8550072 92.6625879,17.8518072 92.5473879,17.8479672 C91.8056279,14.3967674 91.3163479,9.0034876 94.1387478,5.22364777 C95.5237077,3.36636785 97.5480276,2.08988791 100.193148,1.39356794 C100.563068,1.43196794 100.930107,1.46716793 101.297467,1.50204793" id="Fill-72" fill="#9D9E9F" mask="url(#mask-16)"></path>
                    <path d="M132.113082,61.2229733 C131.860602,62.3154532 131.583162,63.3903332 131.269882,64.4303331 C130.950522,65.5407331 130.595642,66.612413 130.216122,67.666493 C125.750522,80.0050524 117.473083,88.2895321 108.015483,88.2895321 C106.581883,88.2895321 105.176763,88.0997721 103.806843,87.7308121 C125.820602,85.2466522 131.916282,61.9887332 132.113082,61.2229733" id="Fill-73" fill="#B06D4D" mask="url(#mask-16)"></path>
                    <path d="M132.116826,61.2020453 L132.116826,61.2158053 C132.116826,61.2193253 132.116826,61.2193253 132.112986,61.2228453 C132.116826,61.2087653 132.116826,61.2020453 132.116826,61.2020453" id="Fill-74" fill="#FCAE88" mask="url(#mask-16)"></path>
                    <path d="M132.553722,62.0551652 C132.401082,64.7287651 131.951802,67.314685 131.228602,69.7418849 C130.502522,72.2334048 129.498042,74.5697247 128.266362,76.7038046 C123.816122,84.4465242 116.363003,89.515324 107.926843,89.515324 C106.890043,89.515324 105.867003,89.444604 104.856123,89.284924 L104.847483,89.284924 C100.707963,88.670204 96.8868437,86.8298841 93.6394838,84.0660442 C92.5070039,83.1009243 91.4430039,82.0260443 90.463804,80.8529244 C89.288124,79.4439644 88.2382041,77.8974045 87.3182041,76.2353246 C86.5130841,74.7754847 85.8113242,73.2289247 85.2356442,71.6065248 C85.1924442,71.5031648 85.1556442,71.3966048 85.1230042,71.2922848 C84.9431642,70.7857248 84.7780442,70.2657249 84.6263642,69.7418849 C84.5044442,69.3262049 84.3879642,68.9047649 84.2788442,68.4810849 C84.2148442,68.2318049 84.1562842,67.981565 84.0993242,67.727485 C83.6794843,65.9022051 83.4113243,64.0030051 83.3018843,62.0551652 C83.6993243,61.4359653 84.1393242,60.8538853 84.6023642,60.2942053 C87.7713241,56.4980455 92.1393239,54.1537256 96.9694037,54.1537256 L118.886203,54.1537256 C124.418042,54.1537256 129.358202,57.2401254 132.553722,62.0551652" id="Fill-75" fill="#7DCC89" mask="url(#mask-16)"></path>
                    <path d="M132.553722,62.0551652 C132.401082,64.7287651 131.951802,67.314685 131.228602,69.7418849 C130.502522,72.2334048 129.498042,74.5697247 128.266362,76.7038046 C123.816122,84.4465242 116.363003,89.515324 107.926843,89.515324 C106.890043,89.515324 105.867003,89.444604 104.856123,89.284924 L104.847483,89.284924 C100.707963,88.670204 96.8868437,86.8298841 93.6394838,84.0660442 C119.028603,83.0417243 132.553722,62.0551652 132.553722,62.0551652" id="Fill-76" fill="#268B85" mask="url(#mask-16)"></path>
                    <path d="M84.5993562,62.6645412 C84.5993562,62.6645412 90.045756,55.8459815 95.3961557,56.5378215 C92.4675159,57.4264614 84.5993562,62.6645412 84.5993562,62.6645412" id="Fill-77" fill="#7DB9B6" mask="url(#mask-16)"></path>
                    <path d="M102.548091,61.0686053 C102.359291,60.9668453 116.016251,61.0686053 116.016251,61.0686053 C116.016251,61.0686053 103.726331,61.6967652 102.548091,61.0686053" id="Fill-78" fill="#268B85" mask="url(#mask-16)"></path>
                    <path d="M111.184955,62.7095332 C110.995515,62.6080932 124.652474,62.7095332 124.652474,62.7095332 C124.652474,62.7095332 112.362555,63.3373732 111.184955,62.7095332" id="Fill-79" fill="#268B85" mask="url(#mask-16)"></path>
                    <path d="M102.618075,67.830781 C102.618075,67.830781 93.2286358,68.3104609 84.2785562,68.4810209 C84.2148762,68.2317409 84.1563162,67.981501 84.0993562,67.727421 C93.0798358,67.758781 102.618075,67.830781 102.618075,67.830781" id="Fill-80" fill="#B5B6B6" mask="url(#mask-16)"></path>
                    <path d="M91.6330839,71.3332768 C91.6330839,71.3332768 88.910524,71.4718368 85.2356442,71.6065568 C85.1924442,71.5031968 85.1556442,71.3966368 85.1230042,71.2923168 C88.850684,71.3131168 91.6330839,71.3332768 91.6330839,71.3332768" id="Fill-81" fill="#B5B6B6" mask="url(#mask-16)"></path>
                    <path d="M136.88809,34.7395504 C131.96169,30.1219507 126.97385,27.1024308 122.100571,25.2621109 C98.9725716,16.5062713 78.3268125,34.2672305 78.3268125,34.2672305 C64.1181731,-1.68636792 92.0842519,0.335391985 92.0842519,0.335391985 C92.0842519,0.335391985 104.230491,0.00515199977 125.57193,-0.00124799994 L125.93481,-0.00124799994 C143.68297,-0.00124799994 139.77449,29.9133107 136.88809,34.7395504" id="Fill-82" fill="#2B96F4" mask="url(#mask-16)"></path>
                    <path d="M81.3655964,8.49641562 L109.161115,8.49641562 C109.161115,8.49641562 87.1806361,9.63401557 81.3655964,8.49641562" id="Fill-83" fill="#0071D6" mask="url(#mask-16)"></path>
                    <path d="M85.4399642,12.3948474 L113.236763,12.3948474 C113.236763,12.3948474 91.2562839,13.5318074 85.4399642,12.3948474" id="Fill-84" fill="#0071D6" mask="url(#mask-16)"></path>
                    <path d="M76.0649566,19.7676471 L103.860475,19.7676471 C103.860475,19.7676471 81.8799963,20.9052471 76.0649566,19.7676471" id="Fill-85" fill="#0071D6" mask="url(#mask-16)"></path>
                    <path d="M122.293723,15.0557753 L137.618842,15.0557753 C137.618842,15.0557753 125.499482,15.6826553 122.293723,15.0557753" id="Fill-86" fill="#0071D6" mask="url(#mask-16)"></path>
                    <path d="M136.88809,34.7395504 C131.96169,30.1219507 126.97385,27.1024308 122.100571,25.2621109 C127.37193,17.9689912 126.92009,7.55491166 125.57193,-0.00124799994 L125.93481,-0.00124799994 C143.68297,-0.00124799994 139.77449,29.9133107 136.88809,34.7395504" id="Fill-87" fill="#0071D6" mask="url(#mask-16)"></path>
                    <path d="M112.870907,43.4029741 C112.870907,43.4029741 120.224187,25.4794549 126.713466,42.4602541 C124.093626,44.981854 118.155387,47.3130539 112.870907,43.4029741" id="Fill-88" fill="#FFFFFF" mask="url(#mask-16)"></path>
                    <path d="M126.711834,42.4589101 C121.550235,30.1552307 114.900635,39.5718702 114.900635,39.5718702 C114.900635,39.5680302 114.901595,39.5645102 114.906075,39.5613102 C117.542555,35.4566704 122.326555,30.9753906 126.711834,42.4589101" id="Fill-89" fill="#BD8366" mask="url(#mask-16)"></path>
                    <path d="M126.699642,42.4682861 C124.078522,44.986046 118.148923,47.3092459 112.870843,43.4017261 C120.437243,47.3367659 126.400762,42.7044461 126.699642,42.4682861" id="Fill-90" fill="#BD8366" mask="url(#mask-16)"></path>
                    <path d="M122.089019,41.7007981 C121.780539,43.5763181 120.010939,44.847038 118.135419,44.538878 C116.260219,44.231038 114.989499,42.4614381 115.297019,40.5859182 C115.605179,38.7103983 117.375419,37.4399983 119.250299,37.7475183 C121.126139,38.0553583 122.396539,39.8252782 122.089019,41.7007981" id="Fill-91" fill="#58595B" mask="url(#mask-16)"></path>
                    <path d="M121.261851,38.8551663 C121.638171,39.5159662 121.800411,40.3047662 121.667611,41.1140462 C121.359451,42.9892461 119.589531,44.260286 117.714011,43.952126 C116.905371,43.819326 116.208731,43.4129261 115.703451,42.8452461 C116.200091,43.715646 117.069531,44.363966 118.135131,44.539006 C120.010971,44.847166 121.780571,43.5764461 122.089051,41.7009261 C122.264411,40.6350062 121.927771,39.6039662 121.261851,38.8551663" id="Fill-92" fill="#2C2D2E" mask="url(#mask-16)"></path>
                    <path d="M119.954971,41.3610862 C119.809691,42.2404461 118.980251,42.8359661 118.100891,42.6913261 C117.221531,42.5470061 116.625371,41.7178861 116.770331,40.8378862 C116.914651,39.9585262 117.744731,39.3630062 118.623131,39.5076462 C119.503771,39.6516462 120.098971,40.4814062 119.954971,41.3610862" id="Fill-93" fill="#231F20" mask="url(#mask-16)"></path>
                    <path d="M118.545915,39.9807982 C118.509435,40.2083182 118.294715,40.3615982 118.067835,40.3244782 C117.840955,40.2870382 117.687035,40.0729582 117.724795,39.8463982 C117.761595,39.6191982 117.975995,39.4655982 118.202235,39.5030382 C118.429435,39.5398382 118.583355,39.7542382 118.545915,39.9807982" id="Fill-94" fill="#FFFFFF" mask="url(#mask-16)"></path>
                    <path d="M102.984027,43.4029741 C102.984027,43.4029741 95.6310677,25.4794549 89.142108,42.4602541 C91.7616279,44.981854 97.7001876,47.3130539 102.984027,43.4029741" id="Fill-95" fill="#FFFFFF" mask="url(#mask-16)"></path>
                    <path d="M89.143708,42.4589101 C94.3053078,30.1552307 100.955227,39.5718702 100.955227,39.5718702 C100.955227,39.5680302 100.953947,39.5645102 100.949787,39.5613102 C98.3126676,35.4566704 93.5286678,30.9753906 89.143708,42.4589101" id="Fill-96" fill="#BD8366" mask="url(#mask-16)"></path>
                    <path d="M89.155292,42.4682861 C91.7776919,44.986046 97.7066516,47.3092459 102.984091,43.4017261 C95.4186517,47.3367659 89.453852,42.7044461 89.155292,42.4682861" id="Fill-97" fill="#BD8366" mask="url(#mask-16)"></path>
                    <path d="M93.7665238,41.7007981 C94.0746838,43.5763181 95.8446037,44.847038 97.7198036,44.538878 C99.5953235,44.231038 100.866363,42.4614381 100.558524,40.5859182 C100.250044,38.7103983 98.4804436,37.4399983 96.6049237,37.7475183 C94.7290838,38.0553583 93.4586838,39.8252782 93.7665238,41.7007981" id="Fill-98" fill="#58595B" mask="url(#mask-16)"></path>
                    <path d="M94.5940438,38.8551663 C94.2170838,39.5159662 94.0551638,40.3047662 94.1879638,41.1140462 C94.4954838,42.9892461 96.2663637,44.260286 98.1415636,43.952126 C98.9508436,43.819326 99.6468435,43.4129261 100.152124,42.8452461 C99.6558035,43.715646 98.7860436,44.363966 97.7201236,44.539006 C95.8446037,44.847166 94.0746838,43.5764461 93.7665238,41.7009261 C93.5914838,40.6350062 93.9274838,39.6039662 94.5940438,38.8551663" id="Fill-99" fill="#2C2D2E" mask="url(#mask-16)"></path>
                    <path d="M95.9006037,41.3610862 C96.0455637,42.2404461 96.8746837,42.8359661 97.7543636,42.6913261 C98.6340436,42.5470061 99.2295636,41.7178861 99.0852436,40.8378862 C98.9409236,39.9585262 98.1108436,39.3630062 97.2321237,39.5076462 C96.3521237,39.6516462 95.7566037,40.4814062 95.9006037,41.3610862" id="Fill-100" fill="#231F20" mask="url(#mask-16)"></path>
                    <path d="M97.3090196,39.9807982 C97.3464596,40.2083182 97.5605396,40.3615982 97.7877396,40.3244782 C98.0142996,40.2870382 98.1682196,40.0729582 98.1314196,39.8463982 C98.0936596,39.6191982 97.8795796,39.4655982 97.6530196,39.5030382 C97.4254996,39.5398382 97.2725397,39.7542382 97.3090196,39.9807982" id="Fill-101" fill="#FFFFFF" mask="url(#mask-16)"></path>
                    <path d="M114.782779,35.3435824 C114.782779,35.9496624 114.291579,36.4411824 113.685819,36.4411824 L103.069179,36.4411824 C102.463099,36.4411824 101.972539,35.9496624 101.972539,35.3435824 C101.972539,34.7368624 102.463099,34.2459825 103.069179,34.2459825 L113.685819,34.2459825 C114.291579,34.2459825 114.782779,34.7368624 114.782779,35.3435824" id="Fill-102" fill="#6D6E71" mask="url(#mask-16)"></path>
                    <path d="M86.6093401,36.4410864 C86.6093401,37.3770863 85.8487002,38.1370863 84.9117402,38.1370863 L82.3415003,38.1370863 C81.4045404,38.1370863 80.6451804,37.3770863 80.6451804,36.4410864 C80.6451804,35.5028464 81.4045404,34.7431664 82.3415003,34.7431664 L84.9117402,34.7431664 C85.8487002,34.7431664 86.6093401,35.5028464 86.6093401,36.4410864" id="Fill-103" fill="#525355" mask="url(#mask-16)"></path>
                    <path d="M105.548731,36.0463984 L105.546491,36.0809584 C105.501371,36.5535984 105.440571,37.0255983 105.368891,37.4982383 C105.367291,37.4982383 105.367291,37.5001583 105.367291,37.5001583 C105.055931,39.4995182 104.485051,41.5027181 103.661691,43.4982381 L103.660731,43.4995181 C103.150331,44.741438 102.540091,45.9814379 101.830011,47.2140779 C101.555131,47.6940779 101.044731,47.9881579 100.492412,47.9881579 C100.468092,47.9881579 100.444732,47.9865579 100.418812,47.9859179 C98.1740116,47.8793579 95.8997717,47.8236779 93.6604118,47.8236779 C91.8188119,47.8236779 89.947132,47.8604779 88.0968921,47.9331179 C88.0792921,47.9343979 88.0565721,47.9343979 88.0354521,47.9343979 C87.6741721,47.9343979 87.3205721,47.8063979 87.0421721,47.5708779 C86.5394521,47.1465579 86.0511322,46.6879979 85.5954522,46.2131179 C85.5372122,46.1539179 85.4856922,46.0883179 85.4383322,46.0201579 C83.7036123,43.4963181 82.8661723,40.4771182 82.2447323,37.5001583 C82.1535323,37.0687983 82.0690523,36.6409584 81.9848923,36.2137584 C81.9016923,35.7801584 82.0066523,35.3321584 82.2754523,34.9817584 C82.5432923,34.6319985 82.9500123,34.4121585 83.3906523,34.3814385 C86.8354521,34.1359985 90.322172,34.0115185 93.7554518,34.0115185 C95.9880917,34.0115185 98.2447316,34.0636785 100.495612,34.1692785 L100.497532,34.1692785 C101.708091,34.2249585 102.917051,34.2950385 104.121531,34.3814385 C104.533051,34.4105585 104.916091,34.6031985 105.182651,34.9161584 C105.451771,35.2300784 105.582011,35.6367984 105.548731,36.0463984" id="Fill-104" fill="#F1F2F2" opacity="0.503534226" mask="url(#mask-16)"></path>
                    <path d="M105.182779,34.9160944 C104.916219,34.6031345 104.533179,34.4104945 104.121659,34.3813745 C103.603579,34.3445745 103.086459,34.3109745 102.566779,34.2802545 C102.369339,34.2684145 102.171899,34.2565745 101.972539,34.2460145 C101.575739,34.2236145 101.179899,34.2031345 100.782139,34.1832945 C100.688379,34.1791345 100.59238,34.1730545 100.49734,34.1692145 L100.49926,34.1695345 C98.2461396,34.0648945 95.9901397,34.0114545 93.7555798,34.0114545 C90.3223,34.0114545 86.8352601,34.1359345 83.3904603,34.3813745 C82.9498203,34.4120945 82.5434203,34.6319345 82.2752603,34.9816944 C82.0064603,35.3320944 81.9015003,35.7800944 81.9850203,36.2140144 C82.0691803,36.6412144 82.1533403,37.0690543 82.2445403,37.5000943 C82.2445403,37.5000943 99.4566996,33.4917745 102.482619,36.5183344 C103.954299,37.9906543 104.660859,40.7871342 103.661499,43.4981741 C104.484859,41.5026541 105.056059,39.4994542 105.367099,37.5000943 C105.367099,37.5000943 105.367099,37.4981743 105.369019,37.4981743 C105.440699,37.0255343 105.501179,36.5535344 105.546619,36.0812144 L105.548859,36.0463344 C105.581819,35.6367344 105.451899,35.2300144 105.182779,34.9160944" id="Fill-105" fill="#6D6E71" mask="url(#mask-16)"></path>
                    <path d="M104.654971,44.054846 C104.575931,44.398526 104.231931,44.613246 103.888251,44.532926 C103.542331,44.453886 103.328251,44.109886 103.408571,43.765566 L104.290491,39.9642862 C104.370171,39.6193262 104.714491,39.4055662 105.058171,39.4855662 C105.402491,39.5649262 105.616891,39.9095662 105.537531,40.2532462 L104.654971,44.054846 Z" id="Fill-106" fill="#BCBEC0" mask="url(#mask-16)"></path>
                    <path d="M129.203418,36.4410864 C129.203418,37.3770863 129.964058,38.1370863 130.901018,38.1370863 L133.471258,38.1370863 C134.408538,38.1370863 135.168218,37.3770863 135.168218,36.4410864 C135.168218,35.5028464 134.408538,34.7431664 133.471258,34.7431664 L130.901018,34.7431664 C129.964058,34.7431664 129.203418,35.5028464 129.203418,36.4410864" id="Fill-107" fill="#525355" mask="url(#mask-16)"></path>
                    <path d="M110.264667,36.0463984 L110.268507,36.0809584 C110.312667,36.5535984 110.372187,37.0255983 110.445467,37.4982383 L110.446747,37.5001583 C110.756187,39.4995182 111.326747,41.5027181 112.151067,43.4982381 L112.152347,43.4995181 C112.663067,44.741438 113.273947,45.9814379 113.982427,47.2140779 C114.258907,47.6940779 114.769307,47.9881579 115.320987,47.9881579 C115.345947,47.9881579 115.369947,47.9865579 115.395227,47.9859179 C117.641627,47.8793579 119.913627,47.8236779 122.152027,47.8236779 C123.995226,47.8236779 125.866906,47.8604779 127.715226,47.9331179 C127.734426,47.9343979 127.756826,47.9343979 127.776346,47.9343979 C128.139226,47.9343979 128.492826,47.8063979 128.770586,47.5708779 C129.276186,47.1465579 129.761626,46.6879979 130.218266,46.2131179 C130.274266,46.1539179 130.328026,46.0883179 130.375706,46.0201579 C132.111066,43.4963181 132.946906,40.4771182 133.569306,37.5001583 C133.659866,37.0687983 133.745626,36.6409584 133.827546,36.2137584 C133.911066,35.7801584 133.805786,35.3321584 133.537946,34.9817584 C133.270106,34.6319985 132.863066,34.4121585 132.422106,34.3814385 C128.977946,34.1359985 125.489946,34.0115185 122.057947,34.0115185 C119.825947,34.0115185 117.568667,34.0636785 115.317787,34.1692785 L115.315547,34.1692785 C114.106267,34.2249585 112.896347,34.2950385 111.692827,34.3814385 C111.279707,34.4105585 110.897947,34.6031985 110.630747,34.9161584 C110.361307,35.2300784 110.230107,35.6367984 110.264667,36.0463984" id="Fill-108" fill="#F1F2F2" opacity="0.503534226" mask="url(#mask-16)"></path>
                    <path d="M110.630587,34.9160944 C110.897787,34.6031345 111.279547,34.4104945 111.692667,34.3813745 C112.210427,34.3445745 112.726907,34.3109745 113.246587,34.2802545 C113.445307,34.2684145 113.642107,34.2565745 113.841467,34.2460145 C114.237307,34.2236145 114.634747,34.2031345 115.031867,34.1832945 C115.126267,34.1791345 115.220987,34.1730545 115.315707,34.1692145 L115.315067,34.1695345 C117.568187,34.0648945 119.825787,34.0114545 122.057787,34.0114545 C125.490106,34.0114545 128.977786,34.1359345 132.422266,34.3813745 C132.863226,34.4120945 133.269946,34.6319345 133.538106,34.9816944 C133.805946,35.3320944 133.910906,35.7800944 133.827386,36.2140144 C133.745466,36.6412144 133.660026,37.0690543 133.569466,37.5000943 C133.569466,37.5000943 116.357307,33.4917745 113.331387,36.5183344 C111.857467,37.9906543 111.151547,40.7871342 112.150907,43.4981741 C111.326907,41.5026541 110.756347,39.4994542 110.446907,37.5000943 L110.445627,37.4981743 C110.372027,37.0255343 110.312827,36.5535344 110.268347,36.0812144 L110.264507,36.0463344 C110.229947,35.6367344 110.361147,35.2300144 110.630587,34.9160944" id="Fill-109" fill="#6D6E71" mask="url(#mask-16)"></path>
                    <path d="M111.158715,44.054846 C111.237435,44.398526 111.582075,44.613246 111.925435,44.532926 C112.270075,44.453886 112.484155,44.109886 112.406075,43.765566 L111.524155,39.9642862 C111.441275,39.6193262 111.099515,39.4055662 110.755195,39.4855662 C110.409915,39.5649262 110.194875,39.9095662 110.276155,40.2532462 L111.158715,44.054846 Z" id="Fill-110" fill="#BCBEC0" mask="url(#mask-16)"></path>
                    <path d="M50.9437097,236.490773 C50.9437097,236.490773 48.7837098,236.897493 47.2793899,238.351253 C45.73507,239.844053 45.71651,240.894933 44.83715,242.854933 C44.26883,244.118933 41.5613101,245.684053 41.1712302,247.014613 C40.8825902,247.997013 42.0790701,250.082773 41.7917101,251.065173 C41.4006701,252.394773 38.1222703,253.838613 38.1248288,255.224853 C38.1344303,258.830932 46.0553899,265.111252 46.0553899,265.111252 C46.0553899,265.111252 56.5641895,273.677972 60.2585893,272.220692 C60.8755493,271.976532 61.1817893,269.733972 61.1817893,269.733972 C61.1817893,269.733972 66.311709,273.140692 67.976989,272.394452 C68.5225889,272.151252 68.9849889,270.725652 68.8073889,270.156052 C68.2893089,268.484052 63.0873892,266.123412 63.0873892,266.123412 C63.0873892,266.123412 68.128349,268.692052 69.6387489,267.917012 C70.1705889,267.644052 70.6019488,266.260052 70.4697888,265.677972 C69.8909089,263.136212 62.9667492,258.436372 62.9667492,258.436372 C62.9667492,258.436372 66.285149,260.382932 67.444509,260.097172 C68.3488289,259.876052 69.2701089,259.483412 69.0374689,258.582612 C68.4214689,256.196053 58.0374694,250.935893 58.1901094,246.965013 C58.5037094,238.773653 50.9437097,236.490773 50.9437097,236.490773" id="Fill-111" fill="#D6F1EF" mask="url(#mask-16)"></path>
                    <path d="M164.005593,236.490773 C164.005593,236.490773 166.165593,236.897493 167.669913,238.351253 C169.214232,239.844053 169.233112,240.894933 170.112472,242.854933 C170.680472,244.118933 173.387992,245.684053 173.778072,247.014613 C174.066712,247.997013 172.870552,250.082773 173.157592,251.065173 C173.548632,252.394773 176.827352,253.838613 176.824474,255.224853 C176.814872,258.830932 168.894232,265.111252 168.894232,265.111252 C168.894232,265.111252 158.385113,273.677972 154.690713,272.220692 C154.073753,271.976532 153.767513,269.733972 153.767513,269.733972 C153.767513,269.733972 148.637593,273.140692 146.972313,272.394452 C146.426713,272.151252 145.964313,270.725652 146.141913,270.156052 C146.659993,268.484052 151.861913,266.123412 151.861913,266.123412 C151.861913,266.123412 146.821273,268.692052 145.310554,267.917012 C144.778714,267.644052 144.347354,266.260052 144.479834,265.677972 C145.058714,263.136212 151.982553,258.436372 151.982553,258.436372 C151.982553,258.436372 148.664473,260.382932 147.505113,260.097172 C146.600473,259.876052 145.679193,259.483412 145.911833,258.582612 C146.528153,256.196053 156.911833,250.935893 156.759193,246.965013 C156.445593,238.773653 164.005593,236.490773 164.005593,236.490773" id="Fill-112" fill="#D6F1EF" mask="url(#mask-16)"></path>
                </g>
            </g>
        </g>
    </g>
</svg>