<?xml version="1.0" encoding="UTF-8"?>
<svg width="87px" height="86px" viewBox="0 0 87 86" version="1.1" xmlns="http://www.w3.org/2000/svg" xmlns:xlink="http://www.w3.org/1999/xlink">
    <!-- Generator: Sketch 61.1 (89650) - https://sketch.com -->
    <title>Group 5</title>
    <desc>Created with Sketch.</desc>
    <defs>
        <polygon id="path-1" points="-0.000154455436 0.0613655777 41.599946 0.0613655777 41.599946 22.3465304 -0.000154455436 22.3465304"></polygon>
        <polygon id="path-3" points="0 0.0614399963 35.2001626 0.0614399963 35.2001626 19.199978 0 19.199978"></polygon>
        <polygon id="path-5" points="0 0.0606761254 5.51596673 0.0606761254 5.51596673 3.15745013 0 3.15745013"></polygon>
    </defs>
    <g id="Page-1" stroke="none" stroke-width="1" fill="none" fill-rule="evenodd">
        <g id="Droplet-&amp;-Contact_2-Copy-9" transform="translate(-677.000000, -46.000000)">
            <g id="Group-5" transform="translate(677.000000, 46.000000)">
                <ellipse id="Oval-Copy-3" fill="#F6D23C" fill-rule="nonzero" cx="43.5" cy="43" rx="43.5" ry="43"></ellipse>
                <g id="Group-14-Copy-2" transform="translate(19.000000, 22.000000)">
                    <g id="Group-3" transform="translate(11.199999, 0.000000)">
                        <mask id="mask-2" fill="white">
                            <use xlink:href="#path-1"></use>
                        </mask>
                        <g id="Clip-2"></g>
                        <path d="M30.5874794,0.0613447405 C28.0894201,0.0613447405 25.6410955,0.932756782 23.6933095,2.51503018 C23.0281214,3.05544317 22.9218561,4.03895939 23.455654,4.71200121 C23.9898639,5.38493884 24.9619035,5.49266721 25.6270915,4.95225422 C27.0285172,3.81381335 28.7902359,3.18692595 30.5874794,3.18692595 C34.9565088,3.18692595 38.5108373,6.78332387 38.5108373,11.2039376 C38.5108373,15.6245513 34.9564058,19.2209492 30.5874794,19.2209492 L1.54439991,19.2209492 C0.691394018,19.2209492 -0.000154455436,19.9206626 -0.000154455436,20.7837398 C-0.000154455436,21.6468169 0.691394018,22.3465304 1.54439991,22.3465304 L30.5874794,22.3465304 C36.6598434,22.3465304 41.599946,17.3479967 41.599946,11.2039376 C41.599946,5.0598784 36.6597404,0.0613447405 30.5874794,0.0613447405" id="Fill-1" fill="#000000" mask="url(#mask-2)"></path>
                    </g>
                    <path d="M9.57698801,15.999999 L26.4230098,15.999999 C27.2940332,15.999999 27.9999995,15.2836258 27.9999995,14.3999991 C27.9999995,13.5163725 27.2940332,12.7999992 26.4230098,12.7999992 L9.57698801,12.7999992 C8.70606984,12.7999992 7.99999952,13.5163725 7.99999952,14.3999991 C7.99999952,15.2836258 8.70606984,15.999999 9.57698801,15.999999" id="Fill-4" fill="#000000"></path>
                    <g id="Group-8" transform="translate(0.000000, 24.799999)">
                        <mask id="mask-4" fill="white">
                            <use xlink:href="#path-3"></use>
                        </mask>
                        <g id="Clip-7"></g>
                        <path d="M25.761314,0.0614399963 L1.54381839,0.0614399963 C0.691196216,0.0614399963 -4.11695882e-05,0.762239955 -4.11695882e-05,1.62665729 C-4.11695882e-05,2.49107463 0.691196216,3.19187459 1.54381839,3.19187459 L25.761314,3.19187459 C29.2633021,3.19187459 32.1124435,6.08043094 32.1124435,9.63076117 C32.1124435,13.1811957 29.2633021,16.0696477 25.761314,16.0696477 C24.3206872,16.0696477 22.9087762,15.5660652 21.785361,14.6517696 C21.1205751,14.1107261 20.1489728,14.2183087 19.6150033,14.8923956 C19.0812396,15.5664826 19.1874571,16.5516303 19.8524489,17.0927781 C21.5219786,18.4515954 23.6203925,19.199978 25.761314,19.199978 C30.9658704,19.199978 35.2001626,14.907213 35.2001626,9.63065682 C35.2001626,4.35420496 30.9658704,0.0614399963 25.761314,0.0614399963" id="Fill-6" fill="#000000" mask="url(#mask-4)"></path>
                    </g>
                    <g id="Group-11" transform="translate(0.000000, 12.799999)">
                        <mask id="mask-6" fill="white">
                            <use xlink:href="#path-5"></use>
                        </mask>
                        <g id="Clip-10"></g>
                        <path d="M1.64702578,3.15745013 L3.868908,3.15745013 C4.77863344,3.15745013 5.51596673,2.46418566 5.51596673,1.60906313 C5.51596673,0.7539406 4.77863344,0.0606761254 3.868908,0.0606761254 L1.64702578,0.0606761254 C0.737410152,0.0606761254 -3.29411745e-05,0.7539406 -3.29411745e-05,1.60906313 C-3.29411745e-05,2.46418566 0.737410152,3.15745013 1.64702578,3.15745013" id="Fill-9" fill="#000000" mask="url(#mask-6)"></path>
                    </g>
                    <path d="M19.9999995,32.799998 C19.9999995,31.9163714 19.3283988,31.1999981 18.4999995,31.1999981 L9.49999952,31.1999981 C8.67159948,31.1999981 7.99999952,31.9163714 7.99999952,32.799998 C7.99999952,33.6836247 8.67159948,34.3999979 9.49999952,34.3999979 L18.4999995,34.3999979 C19.3284988,34.3999979 19.9999995,33.6836247 19.9999995,32.799998" id="Fill-12" fill="#000000"></path>
                </g>
            </g>
        </g>
    </g>
</svg>