<?xml version="1.0" encoding="UTF-8"?>
<svg width="54px" height="54px" viewBox="0 0 54 54" version="1.1" xmlns="http://www.w3.org/2000/svg" xmlns:xlink="http://www.w3.org/1999/xlink">
    <!-- Generator: Sketch 61.1 (89650) - https://sketch.com -->
    <title>Group 2</title>
    <desc>Created with Sketch.</desc>
    <defs>
        <polygon id="path-1" points="0 1.43999979e-05 7.32806604 1.43999979e-05 7.32806604 10.3651735 0 10.3651735"></polygon>
    </defs>
    <g id="Page-1" stroke="none" stroke-width="1" fill="none" fill-rule="evenodd">
        <g id="1" transform="translate(-161.000000, -55.000000)">
            <g id="Group-2" transform="translate(161.000000, 55.000000)">
                <circle id="Oval-Copy-3" fill="#187DD7" cx="27" cy="27" r="27"></circle>
                <g id="Group-16" transform="translate(7.000000, 9.000000)">
                    <path d="M23.5748537,16.0885597 C22.8404384,16.0885597 22.8395358,17.2799975 23.5748537,17.2799975 C25.4108226,17.2799975 26.3519962,15.7135547 26.3519962,13.7056843 C26.3519962,9.93731564 22.4639967,9.93694332 22.4639967,13.1099654 C22.4639967,13.8975057 23.5748537,13.8987717 23.5748537,13.1099654 C23.5748537,11.4805998 25.2411392,11.571447 25.2411392,13.7056843 C25.2411392,14.4221851 25.0787458,16.0885597 23.5748537,16.0885597" id="Fill-1" fill="#FFFFFF"></path>
                    <path d="M24.8399964,27.647996 C22.5745154,27.6504778 20.738562,29.4268276 20.735997,31.6189188 L20.735997,36.1571163 C20.735997,36.9070534 21.9085682,36.9081879 21.9085682,36.1571163 L21.9085682,31.6189188 C21.9085682,30.0524606 23.2210419,28.7825453 24.8399964,28.7825453 C26.4590241,28.7825453 27.7714245,30.0524606 27.7714245,31.6189188 L27.7714245,36.1571163 C27.7714245,36.9070534 28.9439958,36.9081879 28.9439958,36.1571163 L28.9439958,31.6189188 C28.9415041,29.4268276 27.1055506,27.6504778 24.8399964,27.647996" id="Fill-3" fill="#FFFFFF"></path>
                    <path d="M33.2526411,11.8703037 C33.9300431,9.01742288 33.8284726,6.43335568 32.9666076,4.59397663 C32.3045534,3.18105582 31.2373757,2.32605943 29.9365785,2.15371178 C28.660251,-0.223437839 25.8100516,-0.231757575 23.139899,0.252365038 C22.3869165,0.388636588 22.5941116,1.51847119 23.3483972,1.38112381 C29.2615656,0.308881871 28.5188631,3.23398656 29.5374637,3.27070816 C30.8255193,3.31704049 31.5417975,4.27861558 31.915936,5.07709514 C32.6581316,6.66114433 32.7344362,9.04137799 32.1251581,11.6075147 C31.4306709,14.5319022 29.9079824,17.5741287 27.7120909,20.4299501 C26.7143401,19.9950287 25.9338474,19.3907002 25.3343426,18.5909296 C24.8782528,17.9818675 23.9473228,18.6649466 24.4044262,19.2750128 C25.1317084,20.2454097 26.1121568,20.9959073 27.3213016,21.5113724 L27.3213016,23.7513181 C26.2861225,24.2794779 22.7180522,25.9865301 19.2387384,26.3307951 C20.9466862,23.9076 20.1661934,26.0324321 20.3713614,21.801846 C20.3713614,21.4849788 20.1120418,21.228071 19.7921997,21.228071 C19.7448533,21.228071 19.697724,21.2338088 19.651753,21.2452125 L17.0591358,21.8873384 C16.3930999,22.0533028 15.6936897,21.7857086 15.3130357,21.219321 C15.6885497,20.929708 17.8099465,20.5481477 17.549179,18.6073539 C17.3773127,17.3281227 16.2941356,16.6040904 14.1908376,17.7554416 C13.9873346,17.1896995 14.0219395,16.904103 13.7249744,16.7230053 L12.3928301,15.9109703 C13.8417479,14.00281 14.0000762,14.0103408 14.0000762,13.6660758 L14.0000762,10.5149755 C15.5557045,11.1030948 17.6891913,10.9022736 21.529178,10.9001219 C22.2949745,10.9001219 22.2958433,9.75257204 21.529178,9.75257204 L16.1631727,9.75257204 C16.0609506,9.6812805 11.5400146,10.2343996 11.1298957,3.47848641 C12.709704,4.29202757 15.0448115,3.63075194 18.5748019,2.60283412 C18.6335868,2.56697318 19.5430154,2.48140899 19.3363271,1.78348349 C19.1288424,1.08240222 18.3195364,1.50025383 18.2480823,1.50190343 C15.4186603,2.32577254 11.9391294,3.46758469 11.0575729,1.93130226 C10.8145422,1.41289659 10.0071184,1.54206768 9.9633193,2.15005396 C9.77407822,4.75714389 10.5503721,8.29166929 12.8422596,9.9023273 L12.8422596,13.4695579 C10.3431046,16.8016125 10.2492804,15.838316 12.930075,17.5858194 L13.2963948,18.7938308 C13.3883367,19.0973577 13.7112193,19.269562 14.0175958,19.1784035 C14.0703719,19.1626964 14.1206866,19.1396019 14.1668024,19.1098374 C15.4675271,18.2717673 15.9936955,18.2904867 16.1596253,18.3371777 C16.4263293,18.4126291 16.5987023,19.2246641 16.0364811,19.5786832 L14.2954487,20.4400629 C13.2673643,20.9487861 14.9790042,23.5850668 17.3398844,23.0005336 L19.2128209,22.5366365 L19.2128209,24.4592129 C16.6878208,27.4624227 14.5795275,31.9429596 14.5795275,36.146148 C14.5795275,36.9046785 15.7378508,36.905826 15.7378508,36.146148 C15.7378508,32.7034983 17.1951664,29.5815888 18.4489066,27.5327819 C22.3187202,27.4087748 26.3878377,25.5143851 27.7299725,24.8348204 C33.2294022,32.3521328 30.2530904,36.7199946 31.954595,36.7199946 C32.274437,36.7199946 32.5337567,36.4631586 32.5337567,36.1462197 C32.5337567,31.9433182 31.851649,28.4192642 28.4796249,23.9066676 L28.4796249,21.3228873 C30.8558529,18.2830277 32.5051606,15.0184634 33.2526411,11.8703037" id="Fill-5" fill="#FFFFFF"></path>
                    <path d="M20.9522111,1.72799975 C21.8152725,1.72799975 21.8165781,0.431999937 20.9522111,0.431999937 C20.0879257,0.431999937 20.0879257,1.72799975 20.9522111,1.72799975" id="Fill-7" fill="#FFFFFF"></path>
                    <path d="M11.5236239,18.5759973 L5.75626545,18.5759973 C4.99374857,18.5759973 4.99273928,19.8719971 5.75626545,19.8719971 L11.5236239,19.8719971 C12.286285,19.8719971 12.2872942,18.5759973 11.5236239,18.5759973" id="Fill-9" fill="#FFFFFF"></path>
                    <path d="M11.5237701,20.735997 L4.02811951,20.735997 C3.26579742,20.735997 3.26478839,22.0319968 4.02811951,22.0319968 L11.5237701,22.0319968 C12.2862363,22.0319968 12.2872454,20.735997 11.5237701,20.735997" id="Fill-11" fill="#FFFFFF"></path>
                    <g id="Group-15" transform="translate(0.000000, 14.687998)">
                        <mask id="mask-2" fill="white">
                            <use xlink:href="#path-1"></use>
                        </mask>
                        <g id="Clip-14"></g>
                        <path d="M6.22376002,8.35158118 C5.30465856,9.90922896 2.87372147,9.20492506 2.93519074,7.45107731 C2.93276722,7.44387732 2.96353858,6.97587738 2.4945508,6.8579414 C0.736911541,6.41593347 0.736250581,3.95230982 2.4945508,3.50994189 C2.76121141,3.4428379 2.94459106,3.20329393 2.93577826,2.93350997 L2.93519074,2.91687798 C2.87372147,1.16432623 5.30194128,0.456278334 6.22309906,2.01637411 C6.38562176,2.29170207 6.74511051,2.38573405 7.02594502,2.22639808 C8.00056712,1.67343816 6.35272064,1.43999979e-05 4.69664888,1.43999979e-05 C3.21125166,0.00181439974 1.96027488,1.08887024 1.78012659,2.53441403 C-0.594261705,3.52599789 -0.592499146,6.8425334 1.78012659,7.83361326 C2.11435198,10.5624129 5.82711064,11.3246767 7.24097731,8.9285891 C7.62984206,8.2692132 6.61313884,7.69141328 6.22376002,8.35158118" id="Fill-13" fill="#FFFFFF" mask="url(#mask-2)"></path>
                    </g>
                </g>
            </g>
        </g>
    </g>
</svg>