<?xml version="1.0" encoding="UTF-8"?>
<svg width="19px" height="14px" viewBox="0 0 19 14" version="1.1" xmlns="http://www.w3.org/2000/svg" xmlns:xlink="http://www.w3.org/1999/xlink">
    <!-- Generator: Sketch 61.1 (89650) - https://sketch.com -->
    <title>mail (1)</title>
    <desc>Created with Sketch.</desc>
    <g id="Page-1" stroke="none" stroke-width="1" fill="none" fill-rule="evenodd">
        <g id="Home-Copy" transform="translate(-829.000000, -5805.000000)" fill="#187DD7" fill-rule="nonzero">
            <g id="mail-(1)" transform="translate(829.000000, 5805.000000)">
                <path d="M18.3999992,1.31999994 C18.3999992,1.29895994 18.4144792,1.27847994 18.4135649,1.25767994 L12.7943194,6.6720797 L18.4067992,11.9135195 C18.4100792,11.8760795 18.3999992,11.8383195 18.3999992,11.8000795 L18.3999992,1.31999994 L18.3999992,1.31999994 Z" id="Path"></path>
                <path d="M11.9365595,7.50527966 L9.64263957,9.71231957 C9.52655957,9.82399956 9.37663958,9.87999956 9.22663959,9.87999956 C9.07975959,9.87999956 8.9328796,9.82639956 8.81759961,9.71895957 L6.52991971,7.58719966 L0.880799961,13.0323194 C1.01815995,13.0816794 1.16559995,13.1199994 1.31999994,13.1199994 L17.1333592,13.1199994 C17.3626392,13.1199994 17.5776792,13.0501594 17.7646392,12.9459994 L11.9365595,7.50527966 Z" id="Path"></path>
                <path d="M9.22007959,8.45375962 L17.7957592,0.192879991 C17.6015992,0.0774399965 17.3755992,7.1942452e-13 17.1333592,7.1942452e-13 L1.31999994,7.1942452e-13 C1.00455996,7.1942452e-13 0.715519968,0.122479995 0.490399978,0.309279986 L9.22007959,8.45375962 Z" id="Path"></path>
                <path d="M2.69118061e-13,1.52119993 L2.69118061e-13,11.7999195 C2.69118061e-13,11.9179195 0.0271199988,12.0316795 0.0565599975,12.1403995 L5.63559975,6.7679197 L2.69118061e-13,1.52119993 Z" id="Path"></path>
            </g>
        </g>
    </g>
</svg>