<?xml version="1.0" encoding="UTF-8"?>
<svg width="484px" height="372px" viewBox="0 0 484 372" version="1.1" xmlns="http://www.w3.org/2000/svg" xmlns:xlink="http://www.w3.org/1999/xlink">
    <!-- Generator: Sketch 61.1 (89650) - https://sketch.com -->
    <title>Group</title>
    <desc>Created with Sketch.</desc>
    <defs>
        <polygon id="path-1" points="0.000108079124 0.384445532 483.890308 0.384445532 483.890308 371.886479 0.000108079124 371.886479"></polygon>
        <path d="M67,366 C111.666667,384.666667 157.333333,395 204,397 C250.666667,399 299.666667,395.666667 351,387 L358,336 L358,168 L294,67 L274,35 C245.333333,11.6666667 229.666667,0 227,0 C224.333333,0 199.333333,11.6666667 152,35 L97,63 L8,68 L0,124 L8,252 L8,285 L67,366 Z" id="path-3"></path>
        <polygon id="path-5" points="0 0.47 88.4379 0.47 88.4379 88.907 0 88.907"></polygon>
    </defs>
    <g id="Page-1" stroke="none" stroke-width="1" fill="none" fill-rule="evenodd">
        <g id="Home" transform="translate(-786.000000, -1225.000000)">
            <g id="Group" transform="translate(786.000000, 1200.000000)">
                <g id="Group-12" opacity="0.271042597" transform="translate(0.000000, 25.000000)">
                    <path d="M28.2995746,56.8092347 C28.9204354,44.8473644 30.62752,32.4608858 37.182182,22.4289504 C46.8750749,7.59363386 65.5116436,0.780138968 83.2367116,0.074340624 C111.272141,-1.04251468 138.272802,10.5771846 162.522563,24.6711306 C186.771759,38.7650766 209.557013,55.6184117 235.327826,66.6988811 C282.562444,87.0083696 335.687889,86.368634 386.959233,90.3724868 C403.881931,91.694306 421.838833,93.9901268 434.921015,104.789971 C445.825096,113.791441 451.78208,127.666307 453.96414,141.624739 C459.712475,178.387799 440.931152,215.980313 412.633355,240.187502 C384.335558,264.39582 347.789021,276.930799 311.236263,284.155351 C270.573836,292.191853 228.125728,294.239798 187.876643,284.342246 C112.408124,265.784267 58.3095448,206.330073 37.2234596,133.105471 C30.1056124,108.389542 26.9668159,82.5042469 28.2995746,56.8092347" id="Fill-1" fill="#90CCFF"></path>
                    <g id="Group-5">
                        <mask id="mask-2" fill="white">
                            <use xlink:href="#path-1"></use>
                        </mask>
                        <g id="Clip-4"></g>
                        <path d="M266.080018,58.5485252 C304.498649,34.4514025 342.733518,5.576101 387.890831,0.953438273 C402.71842,-0.564535078 418.169102,0.765241132 431.578616,7.25240787 C450.455181,16.3850404 463.343378,34.7646888 471.23156,54.1422328 C488.623896,96.8686186 485.045915,144.972146 478.457635,190.610516 C473.769167,223.086919 467.432499,256.111574 450.879812,284.474686 C428.497074,322.826333 388.791546,349.250564 346.076284,361.758349 C303.362153,374.266134 257.745153,373.889176 213.668924,367.635284 C170.44535,361.501409 127.489784,349.585262 90.058943,327.188675 C52.6281019,304.792089 20.9605925,271.214112 6.17201776,230.27729 C0.7502,215.27054 -2.34491215,198.70074 2.18410654,183.402679 C14.924728,140.370895 84.4884196,138.819114 119.180364,127.424171 C170.70205,110.502206 220.166172,87.3460686 266.080018,58.5485252" id="Fill-3" fill="#4DBCFF" mask="url(#mask-2)"></path>
                    </g>
                    <path d="M269.323514,329 C253.631271,329 236.601004,327.709365 218.70642,325.166471 C175.055301,318.961606 139.842156,307.556391 111.055142,290.301843 C92.4392575,279.143243 75.5378747,264.691747 62.66413,247.162932 C53.0701547,234.100829 31.2547707,203.021197 48.3370439,188.874442 C53.4862026,184.61089 60.1898883,182.754791 66.7545145,181.470365 C76.8058035,179.504785 86.8327852,177.729951 96.8264153,175.641911 C109.194797,173.058384 120.878057,170.616506 131.573203,167.097876 C186.505665,149.022784 239.066766,124.334248 287.795817,93.7162416 C293.629533,90.0503202 299.44403,86.2890261 305.065764,82.6518858 C334.792843,63.420471 362.870992,45.2550854 391.234044,42.3470661 C393.482738,42.1162531 395.672642,42 397.745533,42 C403.511981,42 408.419198,42.898986 411.938082,44.6015853 C428.484468,52.60668 435.03157,78.7337065 437.681049,95.151346 C446.179507,147.802127 439.339023,229.642017 405.68097,273.485218 C373.923396,314.852681 319.265097,329 269.323514,329 Z" id="Stroke-6" stroke="#FFF0DE" stroke-width="1.33"></path>
                    <path d="M270.538678,288 C238.311248,287.941225 204.000499,282.056835 173.95268,272.977495 C158.690871,268.36565 143.674892,262.348232 130.202992,253.734209 C127.059322,251.724063 93.8785954,223.006314 97.2386403,221.043719 C103.516917,217.376094 110.862909,216.115436 117.993092,214.685521 C169.347629,204.39081 217.945932,183.617413 263.7121,158.54125 C283.151308,147.887079 301.881915,135.78318 320.958044,124.498963 C329.097033,119.683896 384.864603,80.331789 392.676764,86.6939498 C394.454778,88.1408474 395.062554,90.5523435 395.523059,92.7979785 C401.199791,120.454895 398.987327,154.069792 395.525891,182.077112 C392.149986,209.392117 382.878709,237.032051 363.417411,256.505165 C343.472384,276.462843 314.791353,285.741442 286.622939,287.520062 C281.341007,287.854049 275.96958,288.00972 270.538678,288 Z" id="Stroke-8" stroke="#FFF0DE" stroke-width="1.33"></path>
                    <path d="M269.954078,244.998873 C247.436581,244.957726 222.310022,241.55892 198,235.332847 C225.602276,225.073299 253.993852,211.963375 283.607115,195.837926 C297.077439,188.49921 310.00189,180.653772 322.500199,173.06705 C329.277634,168.954099 335.678294,165.069427 342.179956,161.246192 C344.45707,159.906961 347.130253,158.161339 352.480024,154.649802 C353.331176,154.091789 354.171546,153.541667 355,153 C354.475691,160.454828 353.689794,168.39665 352.644013,176.808555 C350.739136,192.125731 345.726988,213.110965 332.665217,226.102523 C322.004261,236.705334 304.471675,243.275796 283.297296,244.606573 C279.147649,244.866979 274.784079,245 270.328017,245 L269.954078,244.998873 Z" id="Stroke-10" stroke="#FFF0DE" stroke-width="1.33"></path>
                </g>
                <g id="Group-273" transform="translate(48.000000, 0.000000)">
                    <mask id="mask-4" fill="white">
                        <use xlink:href="#path-3"></use>
                    </mask>
                    <g id="Mask"></g>
                    <g mask="url(#mask-4)">
                        <g transform="translate(22.000000, 28.000000)">
                            <path d="M177.4835,372.0308 C174.3585,361.0928 166.8585,344.2178 161.5455,337.0308 C137.1835,331.3238 95.8015,323.1558 74.6535,336.5308 C63.9165,343.3208 54.6595,355.8308 48.0235,372.0308" id="Fill-1" fill="#FFFFFF"></path>
                            <path d="M79.046,371.7183 C79.046,356.7063 82.989,342.6983 89.803,330.8463 C84.126,331.9853 78.965,333.8043 74.653,336.5303 C63.916,343.3213 54.659,355.8303 48.024,372.0303 L79.05,372.0303 C79.05,371.9263 79.046,371.8223 79.046,371.7183" id="Fill-3" fill="#7FCCFF"></path>
                            <path d="M177.4835,372.0308 C176.4995,368.9678 175.3375,365.9688 174.1425,362.9888 C172.9335,360.0138 171.6335,357.0768 170.2625,354.1768 C168.8865,351.2798 167.4365,348.4198 165.9205,345.6038 C164.3895,342.8018 162.7655,340.0358 160.8915,337.5148 L161.3605,337.8238 C155.9185,336.6388 150.4585,335.5568 144.9895,334.5618 C139.5235,333.5458 134.0325,332.7028 128.5295,332.0018 C123.0275,331.3118 117.5045,330.8038 111.9775,330.6278 C109.2155,330.5188 106.4535,330.4878 103.6985,330.5758 C100.9415,330.6428 98.1925,330.8348 95.4645,331.1598 C92.7375,331.4758 90.0255,331.9128 87.3715,332.5608 C84.7195,333.2088 82.0965,333.9978 79.6185,335.1048 C74.6635,337.2598 70.1785,340.5668 66.2785,344.4338 C58.4535,352.2148 52.6385,361.9018 48.0235,372.0308 C49.9625,366.8008 52.2945,361.6938 55.1085,356.8428 C57.8845,351.9688 61.2285,347.3938 65.1205,343.2948 C67.0595,341.2388 69.1635,339.3238 71.4315,337.6068 C73.6865,335.8908 76.1345,334.3358 78.7455,333.1518 C81.3425,331.9378 84.0705,331.0668 86.8185,330.3448 C89.5715,329.6338 92.3655,329.1008 95.1755,328.7728 C106.4285,327.4068 117.7385,328.1528 128.8395,329.6158 C134.3955,330.3658 139.9125,331.3478 145.3965,332.4538 C150.8795,333.5648 156.3145,334.8848 161.7325,336.2378 L162.0385,336.3138 L162.2015,336.5478 C164.0925,339.2468 165.6505,342.0908 167.1235,344.9708 C168.5975,347.8508 169.9175,350.8008 171.1625,353.7758 C173.6315,359.7318 175.8905,365.7898 177.4835,372.0308" id="Fill-5" fill="#3DB9FF"></path>
                            <path d="M101.5226,320.7691 C93.7336,327.9681 84.3586,343.5931 87.1956,366.4171" id="Fill-7" fill="#FFFFFF"></path>
                            <path d="M101.5226,320.7691 C98.8796,323.9901 96.5856,327.3651 94.7156,330.9721 C92.8506,334.5721 91.3156,338.3241 90.1976,342.2051 C89.5866,344.1301 89.1456,346.1061 88.7456,348.0891 C88.5676,349.0851 88.3556,350.0781 88.2036,351.0811 C88.0856,352.0881 87.9476,353.0941 87.7986,354.1031 C87.3646,358.1551 87.2516,362.2461 87.1956,366.4171 C86.2166,362.3721 85.7736,358.1771 85.8526,353.9711 C85.9316,349.7611 86.6316,345.5601 87.8006,341.4971 C89.0196,337.4491 90.7426,333.5381 93.0386,329.9911 C95.2976,326.4331 98.1636,323.2381 101.5226,320.7691" id="Fill-9" fill="#3DB9FF"></path>
                            <path d="M136.8517,173.6187 L141.3647,203.2077 C178.3337,195.8207 229.2257,198.6267 235.6817,187.1367 C243.4697,173.2747 190.3127,163.4227 136.8517,173.6187" id="Fill-11" fill="#0066CF"></path>
                            <path d="M147.6417,201.064 L150.8987,223.449 C178.8747,218.058 217.3217,220.442 222.2597,211.792 C228.2167,201.358 188.0957,193.636 147.6417,201.064" id="Fill-13" fill="#0066CF"></path>
                            <path d="M136.8517,173.6187 C153.4947,170.0197 170.5847,168.3527 187.6687,168.6307 C196.2087,168.7787 204.7687,169.3857 213.2277,170.9017 C217.4547,171.6647 221.6627,172.6357 225.7707,174.0747 C227.8227,174.7997 229.8437,175.6667 231.7837,176.7787 C233.6877,177.9167 235.6347,179.2747 236.8977,181.5097 C237.5167,182.6187 237.7987,184.0307 237.5997,185.3517 C237.3927,186.6847 236.7947,187.7957 236.0097,188.8037 C235.6187,189.2887 235.1567,189.6837 234.7187,190.1067 C234.2427,190.4487 233.7717,190.8147 233.2837,191.1277 L231.7867,191.9627 L230.2517,192.6517 C226.1177,194.2917 221.8647,195.1337 217.6297,195.8347 C209.1457,197.1877 200.6427,197.8717 192.1527,198.5267 C175.1917,199.8857 158.1837,200.7367 141.4867,203.8177 L140.8327,203.9377 L140.7497,203.3017 L136.8517,173.6187 Z M136.8517,173.6187 L141.9797,203.1137 L141.2437,202.5977 C149.6037,200.8447 158.0657,199.6677 166.5347,198.6917 C175.0027,197.7077 183.4937,196.9947 191.9647,196.2567 C200.4277,195.4727 208.9067,194.7737 217.2287,193.4117 C221.3737,192.7197 225.5147,191.8407 229.3037,190.3477 C231.1607,189.5857 232.9857,188.6107 234.0977,187.2437 C234.6227,186.5827 235.0627,185.7657 235.1737,184.9787 C235.2817,184.1937 235.1517,183.4107 234.7437,182.6567 C233.9147,181.1397 232.2867,179.8767 230.5657,178.8647 C228.8177,177.8507 226.9147,177.0267 224.9627,176.3197 C221.0547,174.8957 216.9557,173.8917 212.8207,173.0967 C204.5347,171.5457 196.0827,170.7277 187.6197,170.3777 C179.1497,170.0277 170.6577,170.2257 162.1827,170.7477 C153.7047,171.2617 145.2567,172.2717 136.8517,173.6187 L136.8517,173.6187 Z" id="Fill-15" fill="#004C9C"></path>
                            <path d="M147.6417,201.064 C160.2187,198.325 173.1517,197.087 186.0787,197.345 C192.5417,197.477 199.0207,197.954 205.4267,199.14 C208.6277,199.734 211.8167,200.486 214.9387,201.597 C216.4967,202.158 218.0347,202.829 219.5177,203.691 C220.9737,204.577 222.4767,205.625 223.4727,207.408 C223.9587,208.293 224.1837,209.439 224.0147,210.502 C223.8387,211.575 223.3627,212.446 222.7317,213.246 C222.4177,213.628 222.0547,213.937 221.7067,214.266 C221.3357,214.531 220.9657,214.815 220.5847,215.054 L219.4237,215.692 L218.2427,216.215 C215.0667,217.451 211.8337,218.059 208.6197,218.569 C202.1807,219.546 195.7477,220.016 189.3257,220.453 C176.4967,221.377 163.6447,221.863 151.0167,224.06 L150.3577,224.174 L150.2837,223.539 L147.6417,201.064 Z M147.6417,201.064 L151.5137,223.36 L150.7817,222.838 C157.1117,221.531 163.5157,220.661 169.9217,219.943 C176.3287,219.214 182.7497,218.705 189.1537,218.18 C195.5497,217.617 201.9577,217.13 208.2347,216.143 C211.3607,215.642 214.4807,214.995 217.3097,213.903 C218.6947,213.35 220.0437,212.63 220.8297,211.673 C221.1977,211.218 221.5147,210.639 221.5907,210.112 C221.6647,209.585 221.5887,209.069 221.3097,208.541 C220.7447,207.477 219.5587,206.527 218.2857,205.769 C216.9937,205.005 215.5747,204.377 214.1157,203.835 C211.1937,202.742 208.1137,201.959 205.0037,201.332 C198.7717,200.112 192.4027,199.425 186.0167,199.091 C179.6267,198.755 173.2147,198.848 166.8097,199.158 C160.4007,199.459 154.0107,200.149 147.6417,201.064 L147.6417,201.064 Z" id="Fill-17" fill="#004C9C"></path>
                            <path d="M119.089,152.8013 C124.57,163.5573 129.761,172.4753 134.656,183.3783 C152.342,173.0453 193.496,162.1003 193.496,162.1003 C193.496,162.1003 239.62,155.9383 243.359,149.4523 C250.405,137.9793 215.151,129.5513 167.939,137.8213 C152.696,140.4893 135.623,146.7663 119.089,152.8013" id="Fill-19" fill="#0066CF"></path>
                            <path d="M134.3947,183.5044 C141.1977,178.7604 148.7837,175.2114 156.4987,172.1534 C164.2457,169.1434 172.2087,166.7124 180.2447,164.6314 C184.2617,163.5854 188.2957,162.6154 192.3377,161.6894 C196.3847,160.7824 200.4397,159.9254 204.4927,159.0804 C212.5857,157.3584 220.7297,155.8474 228.6677,153.8364 C230.6477,153.3244 232.6117,152.7754 234.5177,152.1334 C236.4157,151.4904 238.2907,150.7584 239.8837,149.8164 C240.6617,149.3464 241.3737,148.7944 241.7557,148.2414 C241.9537,147.9684 242.0577,147.7154 242.0957,147.4774 C242.1127,147.3354 242.1237,147.2784 242.1037,147.0574 C242.0907,146.8444 242.0627,146.6344 242.0317,146.4264 C241.7687,144.7654 240.8237,143.3004 239.4387,142.1324 C238.0557,140.9604 236.3127,140.0844 234.4907,139.3874 C232.6557,138.6974 230.7207,138.1814 228.7527,137.7754 C224.8087,136.9774 220.7447,136.5404 216.6647,136.3124 C208.4937,135.8554 200.2507,136.1614 192.0347,136.6824 C183.8177,137.2274 175.5957,138.1104 167.4477,139.2434 L167.5417,139.2234 C159.4247,141.3064 151.3147,143.4614 143.2207,145.6614 C139.1767,146.7734 135.1367,147.9024 131.1157,149.0934 C127.0987,150.2974 123.0697,151.4674 119.0887,152.8014 C122.9977,151.2724 126.9477,149.8364 130.9277,148.4984 C134.9047,147.1474 138.9007,145.8574 142.9027,144.5834 C150.9047,142.0264 158.9507,139.6294 167.0337,137.3234 L167.0697,137.3134 L167.1287,137.3024 C175.3317,135.8954 183.5627,134.9084 191.8417,134.1674 C200.1197,133.4504 208.4467,133.0984 216.8087,133.4414 C220.9877,133.6364 225.1837,133.9924 229.3537,134.8324 C231.4367,135.2544 233.5147,135.7954 235.5567,136.5534 C237.5887,137.3254 239.6167,138.3014 241.4097,139.7994 C243.1947,141.2644 244.6847,143.4604 245.0687,145.9174 C245.1167,146.2204 245.1577,146.5244 245.1777,146.8274 C245.2097,147.1194 245.2077,147.5834 245.1457,147.9534 C245.0267,148.7394 244.6927,149.4524 244.2897,150.0204 C243.4717,151.1664 242.4717,151.8634 241.5007,152.4764 C239.5367,153.6564 237.5177,154.4024 235.5007,155.0784 C233.4827,155.7464 231.4567,156.2994 229.4277,156.8134 C221.3117,158.8254 213.1697,160.3034 205.0477,161.8604 C200.9877,162.6374 196.9337,163.4294 192.8917,164.2624 C188.8457,165.0774 184.8107,165.9344 180.7937,166.8654 C172.7647,168.7404 164.7857,170.8284 156.9767,173.4694 C149.1617,176.0764 141.5337,179.3064 134.3947,183.5044" id="Fill-21" fill="#004C9C"></path>
                            <path d="M212.5988,140.3394 C197.3878,135.1504 145.1788,186.3614 145.1788,186.3614 L134.9698,160.2774 C135.8408,152.7434 138.2818,145.3964 142.0838,138.8344 C160.1188,135.6294 200.7658,127.2454 199.0788,117.9604 C196.8238,105.5354 148.8818,105.9114 128.1058,110.1874 C128.1058,110.1874 85.6698,141.6524 80.8908,151.3854 C78.1028,157.0634 84.9838,236.0934 88.0938,277.4294 C88.0938,277.4294 80.4278,317.5324 74.6538,336.5304 C74.6538,336.5304 114.3588,350.4684 164.7448,338.4474 C164.7448,338.4474 157.0778,293.7214 161.0638,257.8164 C161.0638,257.8164 207.0098,194.6114 216.0868,157.1444 C217.5398,151.1454 218.4408,142.3314 212.5988,140.3394" id="Fill-23" fill="#00ADFF"></path>
                            <path d="M84.9835,339.2183 C95.6085,312.9683 112.4835,277.9683 112.4835,277.9683 C112.4835,277.9683 90.6085,234.8433 94.0385,137.4483 C87.5975,143.1383 82.3895,148.3313 80.8905,151.3853 C78.1025,157.0633 84.9835,236.0933 88.0935,277.4293 C88.0935,277.4293 80.4275,317.5323 74.6535,336.5303 C74.6535,336.5303 78.1085,338.5933 84.9835,339.2183" id="Fill-25" fill="#0066CF"></path>
                            <path d="M125.13,142.2935 C131.474,141.3095 137.754,139.9775 144.024,138.6205 C150.288,137.2395 156.525,135.7315 162.717,134.0715 C168.906,132.4055 175.061,130.5975 181.093,128.4765 C184.109,127.4185 187.097,126.2825 189.984,124.9575 C191.425,124.2935 192.84,123.5795 194.181,122.7725 C195.505,121.9635 196.816,121.0525 197.701,119.9375 C198.133,119.3825 198.401,118.7765 198.35,118.2515 C198.263,117.6625 197.998,116.9555 197.609,116.3915 C196.819,115.2215 195.584,114.2955 194.245,113.5685 C191.541,112.1095 188.463,111.2515 185.381,110.5855 C179.179,109.2915 172.788,108.8055 166.418,108.5935 C160.038,108.4075 153.645,108.5555 147.274,108.9465 C140.909,109.3655 134.534,110.0185 128.329,111.2735 L128.767,111.0785 C122.475,115.7965 116.246,120.6285 110.107,125.5495 C103.977,130.4815 97.906,135.4985 92.121,140.7865 C89.252,143.4405 86.393,146.1515 83.953,149.0885 C83.354,149.8225 82.783,150.5775 82.328,151.3345 C82.207,151.5235 82.117,151.7095 82.016,151.8965 C81.978,151.9785 81.984,152.0015 81.956,152.0545 L81.895,152.3145 C81.813,152.6985 81.759,153.1635 81.717,153.6235 C81.562,155.4985 81.56,157.4665 81.567,159.4155 C81.624,167.2455 82.047,175.1235 82.479,182.9835 C83.38,198.7145 84.523,214.4405 85.681,230.1655 C86.842,245.8935 88.094,261.6075 89.019,277.3705 L89.026,277.5085 L88.997,277.6355 L75.296,336.6765 L74.895,335.9175 C78.263,337.1745 81.811,338.1475 85.345,339.0165 C88.891,339.8755 92.474,340.5935 96.079,341.1785 C103.293,342.3425 110.592,343.0005 117.904,343.2025 C125.217,343.3915 132.548,343.1515 139.836,342.4335 C147.125,341.7305 154.379,340.6195 161.55,339.0865 C154.41,340.7535 147.172,342.0165 139.879,342.8455 C132.585,343.6705 125.235,344.0165 117.89,343.9335 C110.544,343.8345 103.198,343.2785 95.92,342.2105 C92.28,341.6735 88.66,341.0025 85.068,340.1875 C81.472,339.3635 77.929,338.4155 74.413,337.1435 L73.885,336.9525 L74.012,336.3845 L87.191,277.2245 L87.169,277.4875 C86.62,269.6325 85.951,261.7745 85.328,253.9165 L83.473,230.3335 C82.251,214.6075 81.044,198.8805 80.078,183.1245 C79.614,175.2425 79.158,167.3675 79.067,159.4275 C79.068,157.4355 79.074,155.4555 79.25,153.3995 C79.301,152.8795 79.358,152.3625 79.482,151.7825 C79.52,151.6295 79.548,151.4905 79.597,151.3255 C79.66,151.1495 79.737,150.9365 79.807,150.7965 C79.94,150.5495 80.069,150.2925 80.214,150.0665 C80.779,149.1365 81.409,148.3195 82.059,147.5305 C84.676,144.4095 87.573,141.6985 90.497,139.0115 C96.374,133.6815 102.488,128.6715 108.663,123.7435 C114.849,118.8265 121.101,114.0155 127.445,109.2965 L127.645,109.1475 L127.883,109.1015 C134.27,107.8365 140.701,107.2105 147.142,106.8105 C153.583,106.4195 160.04,106.3595 166.489,106.6295 C172.935,106.9245 179.394,107.4895 185.751,108.8965 C188.917,109.6265 192.09,110.5335 195.03,112.1615 C196.483,112.9815 197.907,114.0295 198.907,115.5405 C199.401,116.3135 199.742,117.1335 199.867,118.1355 C199.941,119.2375 199.422,120.1665 198.876,120.8575 C197.731,122.2465 196.322,123.1555 194.915,124.0035 C193.496,124.8345 192.032,125.5495 190.551,126.2105 C187.586,127.5265 184.554,128.6355 181.5,129.6645 C175.382,131.6875 169.172,133.3705 162.935,134.9175 C156.695,136.4565 150.421,137.8405 144.123,139.0965 C137.825,140.3495 131.496,141.4665 125.13,142.2935" id="Fill-27" fill="#0066CF"></path>
                            <path d="M145.1788,186.3618 C143.8248,184.3148 142.6998,182.1778 141.6578,180.0098 C140.6158,177.8418 139.6528,175.6428 138.7828,173.4068 C137.9048,171.1738 137.1248,168.9038 136.4218,166.6028 C135.7198,164.3018 135.1018,161.9678 134.7138,159.5448 C136.0718,161.5908 137.1968,163.7258 138.2398,165.8938 C139.2798,168.0628 140.2438,170.2608 141.1108,172.4988 C141.9848,174.7328 142.7658,177.0028 143.4678,179.3038 C144.1678,181.6048 144.7878,183.9388 145.1788,186.3618" id="Fill-29" fill="#0066CF"></path>
                            <path d="M141.423,139.4175 C140.786,143.5465 139.663,147.5755 138.385,151.5335 C137.112,155.4975 135.611,159.3805 133.984,163.2115 C132.308,167.0215 130.516,170.7865 128.444,174.4115 C126.378,178.0235 124.109,181.5995 121.202,184.6135 C123.262,180.9895 124.983,177.2665 126.707,173.5235 C127.547,171.6465 128.412,169.7775 129.22,167.8845 C130.061,166.0045 130.883,164.1165 131.69,162.2215 C133.346,158.4485 134.931,154.6435 136.565,150.8535 L141.423,139.4175 Z" id="Fill-31" fill="#0066CF"></path>
                            <path d="M119.7228,284.8218 C122.9998,282.4978 126.3078,280.2918 129.5878,278.0568 C132.8588,275.8098 136.1328,273.5848 139.3508,271.2788 C142.5958,269.0108 145.7858,266.6678 148.9948,264.3328 C152.1958,261.9848 155.3778,259.6028 158.6638,257.2918 C156.0808,260.3708 153.2218,263.1928 150.2208,265.8508 C147.2278,268.5218 144.0558,270.9858 140.7928,273.3188 C137.5038,275.6138 134.1228,277.7828 130.6068,279.7128 C127.0998,281.6548 123.4868,283.4108 119.7228,284.8218" id="Fill-33" fill="#0066CF"></path>
                            <path d="M131.7931,293.9868 C133.7781,291.6368 135.8181,289.4088 137.8321,287.1658 C139.8341,284.9128 141.8481,282.6888 143.7971,280.4068 C145.7811,278.1548 147.7011,275.8488 149.6511,273.5508 C151.5891,271.2428 153.5111,268.9118 155.5631,266.6188 C154.3931,269.4658 152.8921,272.1478 151.2191,274.7128 C149.5571,277.2888 147.6771,279.7158 145.6841,282.0448 C143.6551,284.3418 141.5161,286.5448 139.1961,288.5498 C136.8911,290.5648 134.4461,292.4268 131.7931,293.9868" id="Fill-35" fill="#0066CF"></path>
                            <path d="M242.9328,195.6275 L242.9328,195.6275 C236.8708,201.6795 227.0518,201.6715 220.9998,195.6095 L126.2398,100.6935 C125.7628,100.2165 125.7638,99.4435 126.2418,98.9675 L146.4638,78.7775 C146.9418,78.3015 147.7138,78.3025 148.1908,78.7785 L242.9508,173.6945 C249.0018,179.7565 248.9948,189.5765 242.9328,195.6275" id="Fill-37" fill="#0066CF"></path>
                            <path d="M240.8966,193.5884 L240.8966,193.5884 C236.3636,198.1134 229.0206,198.1084 224.4956,193.5744 L128.7636,97.6854 C128.4216,97.3434 128.4226,96.7894 128.7646,96.4474 L143.9406,81.2974 C144.2826,80.9554 144.8366,80.9564 145.1776,81.2984 L240.9106,177.1874 C245.4346,181.7204 245.4286,189.0634 240.8966,193.5884" id="Fill-39" fill="#00ADFF"></path>
                            <path d="M238.8859,191.5738 L238.8859,191.5738 C235.1989,195.2548 229.2269,195.2498 225.5459,191.5628 L130.2019,96.0618 C129.9119,95.7718 129.9119,95.3028 130.2029,95.0118 L142.5019,82.7328 C142.7919,82.4428 143.2629,82.4438 143.5519,82.7338 L238.8969,178.2348 C242.5769,181.9218 242.5729,187.8938 238.8859,191.5738" id="Fill-41" fill="#49AA49"></path>
                            <g id="Group-47" stroke-width="1" fill="none" transform="translate(132.000000, 84.031000)">
                                <path d="M22.8136,17.9676 L5.6856,0.8116 L0.4776,6.0106 L17.6056,23.1666 C18.8246,24.3876 20.9776,24.2126 22.4166,22.7776 C23.8536,21.3416 24.0326,19.1886 22.8136,17.9676" id="Fill-43" fill="#FFFFFF"></path>
                                <path d="M77.6935,84.2703 L97.2645,103.9093 C98.6285,105.2753 101.0215,105.3203 102.7535,103.8513 C104.7395,102.1653 105.0645,99.3993 103.5385,97.8703 L83.8545,78.1193 C82.4125,76.6753 79.8645,76.8813 78.1635,78.5803 C76.4625,80.2793 76.2515,82.8263 77.6935,84.2703" id="Fill-45" fill="#FFFFFF"></path>
                            </g>
                            <path d="M202.9962,164.6851 L158.4862,120.1021 C155.9872,117.5991 155.9912,113.5441 158.4942,111.0451 C160.9972,108.5461 165.0522,108.5491 167.5512,111.0531 L212.0602,155.6351 C214.5592,158.1391 214.5562,162.1941 212.0532,164.6931 C209.5502,167.1921 205.4952,167.1881 202.9962,164.6851" id="Fill-48" fill="#FFFFFF"></path>
                            <path d="M123.8761,105.6822 L110.6221,92.4362 C109.4181,91.2332 109.4171,89.2812 110.6211,88.0762 L135.4371,63.2472 C136.6411,62.0422 138.5931,62.0422 139.7971,63.2452 L153.0511,76.4922 C154.2551,77.6962 154.2561,79.6482 153.0521,80.8532 L128.2361,105.6812 C127.0321,106.8862 125.0801,106.8862 123.8761,105.6822" id="Fill-50" fill="#004C9C"></path>
                            <path d="M150.4513,79.6714 C150.1323,79.6714 149.8113,79.5494 149.5673,79.3064 L136.9853,66.7304 C136.4973,66.2414 136.4973,65.4504 136.9853,64.9624 C137.4733,64.4744 138.2643,64.4744 138.7533,64.9614 L151.3353,77.5374 C151.8233,78.0254 151.8233,78.8174 151.3363,79.3054 C151.0923,79.5494 150.7713,79.6714 150.4513,79.6714" id="Fill-52" fill="#0066CF"></path>
                            <path d="M147.9865,82.1372 C147.6675,82.1372 147.3465,82.0152 147.1025,81.7722 L134.5205,69.1972 C134.0325,68.7082 134.0325,67.9162 134.5205,67.4282 C135.0085,66.9402 135.7995,66.9412 136.2885,67.4282 L148.8705,80.0032 C149.3585,80.4912 149.3585,81.2832 148.8715,81.7712 C148.6275,82.0152 148.3065,82.1372 147.9865,82.1372" id="Fill-54" fill="#0066CF"></path>
                            <path d="M145.5216,84.604 C145.2026,84.604 144.8816,84.482 144.6376,84.238 L132.0556,71.663 C131.5676,71.174 131.5676,70.383 132.0556,69.895 C132.5436,69.407 133.3346,69.407 133.8236,69.894 L146.4056,82.469 C146.8936,82.958 146.8936,83.75 146.4066,84.238 C146.1626,84.482 145.8416,84.604 145.5216,84.604" id="Fill-56" fill="#0066CF"></path>
                            <path d="M143.0568,87.0698 C142.7378,87.0698 142.4168,86.9478 142.1728,86.7038 L129.5908,74.1288 C129.1028,73.6398 129.1028,72.8488 129.5908,72.3608 C130.0788,71.8728 130.8698,71.8728 131.3588,72.3598 L143.9408,84.9348 C144.4288,85.4238 144.4288,86.2158 143.9418,86.7038 C143.6978,86.9478 143.3768,87.0698 143.0568,87.0698" id="Fill-58" fill="#0066CF"></path>
                            <path d="M140.5919,89.5357 C140.2729,89.5357 139.9519,89.4137 139.7079,89.1707 L127.1259,76.5957 C126.6379,76.1067 126.6379,75.3147 127.1259,74.8267 C127.6139,74.3387 128.4049,74.3397 128.8939,74.8267 L141.4759,87.4017 C141.9639,87.8897 141.9639,88.6817 141.4769,89.1697 C141.2329,89.4137 140.9119,89.5357 140.5919,89.5357" id="Fill-60" fill="#0066CF"></path>
                            <path d="M138.1271,92.0025 C137.8081,92.0025 137.4871,91.8805 137.2431,91.6365 L124.6611,79.0615 C124.1731,78.5725 124.1731,77.7805 124.6611,77.2925 C125.1491,76.8045 125.9401,76.8055 126.4291,77.2925 L139.0111,89.8675 C139.4991,90.3565 139.4991,91.1485 139.0121,91.6365 C138.7681,91.8805 138.4471,92.0025 138.1271,92.0025" id="Fill-62" fill="#0066CF"></path>
                            <path d="M135.6632,94.4683 C135.3432,94.4683 135.0232,94.3463 134.7792,94.1023 L122.1962,81.5273 C121.7082,81.0383 121.7082,80.2473 122.1962,79.7593 C122.6842,79.2713 123.4752,79.2713 123.9642,79.7583 L136.5472,92.3333 C137.0352,92.8223 137.0352,93.6143 136.5472,94.1023 C136.3032,94.3463 135.9822,94.4683 135.6632,94.4683" id="Fill-64" fill="#0066CF"></path>
                            <path d="M133.1984,96.9341 C132.8784,96.9341 132.5584,96.8121 132.3144,96.5691 L119.7324,83.9931 C119.2444,83.5041 119.2444,82.7131 119.7314,82.2251 C120.2194,81.7371 121.0114,81.7371 121.5004,82.2241 L134.0824,94.8001 C134.5704,95.2881 134.5704,96.0801 134.0824,96.5681 C133.8384,96.8121 133.5174,96.9341 133.1984,96.9341" id="Fill-66" fill="#0066CF"></path>
                            <path d="M130.7335,99.3999 C130.4135,99.3999 130.0935,99.2779 129.8495,99.0349 L117.2675,86.4599 C116.7795,85.9709 116.7795,85.1789 117.2665,84.6909 C117.7545,84.2029 118.5465,84.2039 119.0355,84.6909 L131.6175,97.2659 C132.1055,97.7539 132.1055,98.5459 131.6175,99.0339 C131.3735,99.2779 131.0525,99.3999 130.7335,99.3999" id="Fill-68" fill="#0066CF"></path>
                            <path d="M128.2687,101.8667 C127.9487,101.8667 127.6287,101.7447 127.3847,101.5007 L114.8027,88.9257 C114.3147,88.4367 114.3147,87.6447 114.8017,87.1567 C115.2897,86.6687 116.0817,86.6697 116.5707,87.1567 L129.1527,99.7317 C129.6407,100.2207 129.6407,101.0127 129.1527,101.5007 C128.9087,101.7447 128.5877,101.8667 128.2687,101.8667" id="Fill-70" fill="#0066CF"></path>
                            <path d="M125.8038,104.3325 C125.4838,104.3325 125.1638,104.2105 124.9198,103.9665 L112.3378,91.3915 C111.8498,90.9025 111.8498,90.1115 112.3368,89.6235 C112.8248,89.1355 113.6168,89.1355 114.1058,89.6225 L126.6878,102.1975 C127.1758,102.6865 127.1758,103.4785 126.6878,103.9665 C126.4438,104.2105 126.1228,104.3325 125.8038,104.3325" id="Fill-72" fill="#0066CF"></path>
                            <path d="M212.5988,140.3394 C200.2138,136.1134 163.3028,169.2774 150.0148,181.7464 L178.4988,232.1134 C192.5178,210.3554 210.7278,179.2654 216.0868,157.1444 C217.5398,151.1454 218.4408,142.3314 212.5988,140.3394" id="Fill-74" fill="#00ADFF"></path>
                            <path d="M164.7443,338.4478 C163.2433,331.8578 162.0933,325.1868 161.1883,318.4828 C160.2803,311.7808 159.5883,305.0458 159.1303,298.2908 C158.7043,291.5338 158.4923,284.7598 158.5823,277.9788 C158.6833,271.1998 159.0513,264.4078 160.0873,257.6488 L160.1203,257.4358 L160.2633,257.2328 C172.0023,240.5188 183.1623,223.3318 193.2393,205.5658 C198.2413,196.6658 203.0123,187.6318 207.1993,178.3478 C209.2793,173.7038 211.2173,168.9948 212.8293,164.1878 C214.3883,159.3808 215.9003,154.4708 216.0403,149.5718 C216.0873,147.1698 215.7803,144.6488 214.4743,142.9618 C213.8213,142.1298 212.9713,141.5498 211.8803,141.2678 C210.7923,140.9448 209.6263,140.8408 208.4483,140.9028 C206.0833,141.0278 203.7063,141.7888 201.4383,142.7788 C199.1613,143.7678 196.9603,144.9988 194.8233,146.3398 C190.5333,149.0228 186.5433,152.1798 182.4313,155.2788 C178.3153,158.3108 174.2883,161.4418 170.3313,164.6778 C166.3713,167.9068 162.4963,171.2408 158.6533,174.6148 C154.8213,177.9968 150.9713,181.3828 147.2963,184.9248 C139.9623,192.0528 132.8643,199.4428 125.7683,206.8258 C132.6163,199.2088 139.5423,191.6648 146.7393,184.3598 C154.0233,177.1328 161.5433,170.1658 169.3853,163.5398 C173.3013,160.2258 177.3073,157.0018 181.3833,153.8898 C185.3933,150.7608 189.3923,147.4808 193.7443,144.6538 C195.9223,143.2448 198.1713,141.9078 200.5863,140.8418 C202.9923,139.7798 205.5643,138.9158 208.3273,138.7468 C209.7023,138.6658 211.1233,138.7768 212.4923,139.1748 C213.8873,139.5168 215.2953,140.4108 216.2103,141.6028 C217.1473,142.7958 217.6563,144.1898 217.9413,145.5478 C218.2313,146.9138 218.3053,148.2758 218.2863,149.6158 C218.2313,152.2988 217.7953,154.9038 217.1883,157.4518 L216.1893,161.2138 L215.0423,164.9238 C213.4243,169.8378 211.4873,174.6208 209.4093,179.3318 C207.3223,184.0388 205.0923,188.6768 202.7383,193.2448 C200.3573,197.8008 197.8813,202.3008 195.3343,206.7588 C190.2263,215.6658 184.8343,224.3988 179.2553,233.0068 C176.4613,237.3068 173.6233,241.5788 170.7323,245.8148 C167.8473,250.0568 164.9133,254.2558 161.8643,258.3978 L162.0403,257.9818 C160.9103,264.5658 160.4233,271.2928 160.2043,278.0148 C159.9963,284.7438 160.0873,291.4868 160.3913,298.2208 C160.6713,304.9578 161.1533,311.6898 161.8703,318.3998 C162.5993,325.1088 163.5223,331.8018 164.7443,338.4478" id="Fill-76" fill="#0066CF"></path>
                            <path d="M62.4835,198.2808 C62.4835,200.5248 60.6655,202.3428 58.4215,202.3428 C56.1775,202.3428 54.3585,200.5248 54.3585,198.2808 C54.3585,196.0378 56.1775,194.2188 58.4215,194.2188 C60.6655,194.2188 62.4835,196.0378 62.4835,198.2808" id="Fill-78" fill="#0066CF"></path>
                            <path d="M45.6085,297.0308 C45.6085,299.2748 43.7905,301.0928 41.5465,301.0928 C39.3025,301.0928 37.4835,299.2748 37.4835,297.0308 C37.4835,294.7878 39.3025,292.9688 41.5465,292.9688 C43.7905,292.9688 45.6085,294.7878 45.6085,297.0308" id="Fill-80" fill="#0066CF"></path>
                            <path d="M313.7336,232.0308 C313.7336,234.2748 311.9156,236.0928 309.6716,236.0928 C307.4276,236.0928 305.6086,234.2748 305.6086,232.0308 C305.6086,229.7878 307.4276,227.9688 309.6716,227.9688 C311.9156,227.9688 313.7336,229.7878 313.7336,232.0308" id="Fill-82" fill="#0066CF"></path>
                            <path d="M111.2335,59.2183 C111.2335,61.6343 109.2755,63.5933 106.8585,63.5933 C104.4425,63.5933 102.4835,61.6343 102.4835,59.2183 C102.4835,56.8023 104.4425,54.8433 106.8585,54.8433 C109.2755,54.8433 111.2335,56.8023 111.2335,59.2183" id="Fill-84" fill="#FFFFFF"></path>
                            <path d="M283.7336,184.5308 C283.7336,188.5008 280.5156,191.7178 276.5466,191.7178 C272.5776,191.7178 269.3586,188.5008 269.3586,184.5308 C269.3586,180.5608 272.5776,177.3438 276.5466,177.3438 C280.5156,177.3438 283.7336,180.5608 283.7336,184.5308" id="Fill-86" fill="#7FCCFF"></path>
                            <path d="M12.0636,164.19 C10.8666,164.156 9.9226,163.157 9.9586,161.96 C9.9926,160.761 10.9906,159.819 12.1886,159.853 C13.3856,159.887 14.3296,160.886 14.2946,162.084 C14.2596,163.281 13.2616,164.224 12.0636,164.19" id="Fill-88" fill="#0066CF"></path>
                            <path d="M225.1886,114.815 C223.9916,114.781 223.0476,113.782 223.0836,112.585 C223.1176,111.386 224.1156,110.444 225.3136,110.478 C226.5106,110.512 227.4546,111.511 227.4196,112.709 C227.3846,113.906 226.3866,114.849 225.1886,114.815" id="Fill-90" fill="#0066CF"></path>
                            <path d="M36.0607,239.6118 C40.2807,243.8318 40.2807,250.6728 36.0607,254.8918 C31.8417,259.1108 25.0007,259.1108 20.7817,254.8918 C16.5627,250.6728 16.5627,243.8318 20.7817,239.6118 C25.0007,235.3928 31.8417,235.3928 36.0607,239.6118" id="Fill-92" fill="#D1ECFF"></path>
                            <polygon id="Fill-94" fill="#D1ECFF" points="14.5831 246.5161 11.9161 246.5161 11.9161 247.9881 14.5831 247.9881 18.8121 250.0101 18.8121 244.4941"></polygon>
                            <path d="M9.5255,244.5855 C10.9985,244.5855 12.1925,245.7785 12.1925,247.2525 C12.1925,248.7255 10.9985,249.9185 9.5255,249.9185 C8.0525,249.9185 6.8585,248.7255 6.8585,247.2525 C6.8585,245.7785 8.0525,244.5855 9.5255,244.5855" id="Fill-96" fill="#D1ECFF"></path>
                            <polygon id="Fill-98" fill="#D1ECFF" points="42.2599 246.5161 38.0309 244.4941 38.0309 250.0101 42.2599 247.9881 44.9269 247.9881 44.9269 246.5161"></polygon>
                            <path d="M47.3175,249.9185 C45.8445,249.9185 44.6505,248.7255 44.6505,247.2525 C44.6505,245.7785 45.8445,244.5855 47.3175,244.5855 C48.7905,244.5855 49.9835,245.7785 49.9835,247.2525 C49.9835,248.7255 48.7905,249.9185 47.3175,249.9185" id="Fill-100" fill="#D1ECFF"></path>
                            <path d="M33.8507,241.8228 C36.8487,244.8218 36.8487,249.6828 33.8507,252.6808 C30.8517,255.6788 25.9907,255.6788 22.9927,252.6808 C19.9947,249.6828 19.9947,244.8218 22.9927,241.8228 C25.9907,238.8248 30.8517,238.8248 33.8507,241.8228" id="Fill-102" fill="#D1ECFF"></path>
                            <polygon id="Fill-104" fill="#D1ECFF" points="29.1574 233.4136 29.1574 230.7466 27.6854 230.7466 27.6854 233.4136 25.6634 237.6426 31.1794 237.6426"></polygon>
                            <path d="M31.088,228.356 C31.088,229.829 29.894,231.023 28.421,231.023 C26.948,231.023 25.755,229.829 25.755,228.356 C25.755,226.883 26.948,225.69 28.421,225.69 C29.894,225.69 31.088,226.883 31.088,228.356" id="Fill-106" fill="#D1ECFF"></path>
                            <polygon id="Fill-108" fill="#D1ECFF" points="25.6632 256.8608 27.6852 261.0898 27.6852 263.7568 29.1572 263.7568 29.1572 261.0898 31.1802 256.8608"></polygon>
                            <path d="M25.755,266.148 C25.755,264.675 26.948,263.481 28.421,263.481 C29.894,263.481 31.088,264.675 31.088,266.148 C31.088,267.621 29.894,268.815 28.421,268.815 C26.948,268.815 25.755,267.621 25.755,266.148" id="Fill-110" fill="#D1ECFF"></path>
                            <polygon id="Fill-112" fill="#D1ECFF" points="19.3898 237.3482 17.8098 235.7692 16.9378 236.6402 18.5178 238.2202 19.8258 241.9252 23.0948 238.6562"></polygon>
                            <path d="M17.5372,233.2075 C18.4102,234.0805 18.4102,235.4955 17.5372,236.3675 C16.6652,237.2405 15.2502,237.2405 14.3772,236.3675 C13.5052,235.4955 13.5052,234.0805 14.3772,233.2075 C15.2502,232.3355 16.6652,232.3355 17.5372,233.2075" id="Fill-114" fill="#D1ECFF"></path>
                            <polygon id="Fill-116" fill="#D1ECFF" points="39.9044 257.8638 38.3244 256.2838 37.0164 252.5788 33.7484 255.8478 37.4534 257.1558 39.0334 258.7358"></polygon>
                            <path d="M39.3058,261.2964 C38.4328,260.4234 38.4328,259.0084 39.3058,258.1364 C40.1778,257.2634 41.5928,257.2634 42.4658,258.1364 C43.3378,259.0084 43.3378,260.4234 42.4658,261.2964 C41.5928,262.1684 40.1778,262.1684 39.3058,261.2964" id="Fill-118" fill="#D1ECFF"></path>
                            <polygon id="Fill-120" fill="#D1ECFF" points="39.9044 236.6402 39.0334 235.7692 37.4534 237.3482 33.7484 238.6562 37.0164 241.9252 38.3244 238.2202"></polygon>
                            <path d="M42.466,236.3677 C41.593,237.2407 40.178,237.2407 39.306,236.3677 C38.433,235.4957 38.433,234.0807 39.306,233.2077 C40.178,232.3357 41.593,232.3357 42.466,233.2077 C43.338,234.0807 43.338,235.4957 42.466,236.3677" id="Fill-122" fill="#D1ECFF"></path>
                            <polygon id="Fill-124" fill="#D1ECFF" points="23.0949 255.8482 19.8249 252.5782 18.5179 256.2842 16.9379 257.8642 17.8099 258.7362 19.3899 257.1562"></polygon>
                            <path d="M14.3771,258.1362 C15.2501,257.2632 16.6651,257.2632 17.5371,258.1362 C18.4101,259.0082 18.4101,260.4232 17.5371,261.2962 C16.6651,262.1682 15.2501,262.1682 14.3771,261.2962 C13.5051,260.4232 13.5051,259.0082 14.3771,258.1362" id="Fill-126" fill="#D1ECFF"></path>
                            <path d="M54.3058,80.6323 C59.8758,86.2023 59.8758,95.2353 54.3058,100.8063 C48.7348,106.3773 39.7018,106.3773 34.1318,100.8063 C28.5608,95.2353 28.5608,86.2023 34.1318,80.6323 C39.7018,75.0613 48.7348,75.0613 54.3058,80.6323" id="Fill-128" fill="#0066CF"></path>
                            <polygon id="Fill-130" fill="#0066CF" points="26.0704 88.3911 22.5584 88.1281 22.4144 90.0661 25.9254 90.3281 31.2964 93.4071 31.8384 86.1431"></polygon>
                            <path d="M20.4415,84.6275 C22.8125,84.8055 24.5905,86.8705 24.4145,89.2405 C24.2375,91.6115 22.1715,93.3915 19.8005,93.2135 C17.4295,93.0365 15.6515,90.9715 15.8285,88.6005 C16.0045,86.2295 18.0705,84.4505 20.4415,84.6275" id="Fill-132" fill="#0066CF"></path>
                            <polygon id="Fill-134" fill="#0066CF" points="62.5119 91.1109 57.1419 88.0319 56.5999 95.2959 62.3669 93.0479 65.8779 93.3089 66.0229 91.3729"></polygon>
                            <path d="M68.8361,96.0865 C66.8981,95.9415 65.4421,94.2535 65.5871,92.3145 C65.7321,90.3745 67.4211,88.9205 69.3601,89.0655 C71.3001,89.2095 72.7541,90.8995 72.6091,92.8375 C72.4651,94.7765 70.7751,96.2325 68.8361,96.0865" id="Fill-136" fill="#0066CF"></path>
                            <path d="M51.3869,83.5513 C55.3459,87.5103 55.3459,93.9283 51.3869,97.8873 C47.4279,101.8463 41.0089,101.8463 37.0509,97.8873 C33.0919,93.9283 33.0919,87.5103 37.0509,83.5513 C41.0089,79.5923 47.4279,79.5923 51.3869,83.5513" id="Fill-138" fill="#00ADFF"></path>
                            <path d="M45.2638,90.3579 C43.7248,88.8189 41.2288,88.8189 39.6888,90.3579 C38.1488,91.8979 38.1488,94.3939 39.6888,95.9339 C41.2288,97.4729 43.7248,97.4729 45.2638,95.9339 C46.8038,94.3939 46.8038,91.8979 45.2638,90.3579" id="Fill-140" fill="#0066CF"></path>
                            <path d="M48.0636,83.8081 C47.1706,82.9151 45.7216,82.9151 44.8296,83.8081 C43.9356,84.7021 43.9356,86.1501 44.8296,87.0431 C45.7216,87.9371 47.1706,87.9371 48.0636,87.0431 C48.9576,86.1501 48.9576,84.7021 48.0636,83.8081" id="Fill-142" fill="#0066CF"></path>
                            <polygon id="Fill-144" fill="#0066CF" points="43.4288 72.438 43.0668 68.936 41.1348 69.136 41.4968 72.638 39.4138 78.468 46.6598 77.718"></polygon>
                            <path d="M46.3507,64.2134 C46.6197,66.8094 44.7337,69.1304 42.1377,69.3984 C39.5427,69.6664 37.2217,67.7804 36.9537,65.1854 C36.6857,62.5904 38.5717,60.2694 41.1657,60.0004 C43.7617,59.7334 46.0827,61.6184 46.3507,64.2134" id="Fill-146" fill="#0066CF"></path>
                            <polygon id="Fill-148" fill="#0066CF" points="42.0246 103.7066 45.2556 108.9876 45.6186 112.4896 47.5496 112.2896 47.1876 108.7876 49.2706 102.9576"></polygon>
                            <path d="M43.4064,115.8911 C43.2074,113.9571 44.6124,112.2271 46.5474,112.0271 C48.4804,111.8281 50.2114,113.2331 50.4114,115.1671 C50.6104,117.1011 49.2054,118.8311 47.2704,119.0321 C45.3374,119.2321 43.6064,117.8261 43.4064,115.8911" id="Fill-150" fill="#0066CF"></path>
                            <polygon id="Fill-152" fill="#0066CF" points="31.0626 78.9038 28.7876 77.0258 27.7506 78.2818 30.0276 80.1588 32.2126 84.8638 36.0966 80.1548"></polygon>
                            <path d="M28.1056,73.6948 C29.3636,74.7318 29.5416,76.5908 28.5046,77.8478 C27.4676,79.1048 25.6086,79.2838 24.3516,78.2468 C23.0946,77.2108 22.9166,75.3508 23.9536,74.0938 C24.9896,72.8368 26.8486,72.6588 28.1056,73.6948" id="Fill-154" fill="#0066CF"></path>
                            <polygon id="Fill-156" fill="#0066CF" points="60.6144 103.2779 58.3394 101.3999 56.1524 96.6959 52.2684 101.4049 57.3024 102.6559 59.5794 104.5339"></polygon>
                            <path d="M59.6447,108.4077 C57.9157,106.9807 57.6697,104.4237 59.0957,102.6937 C60.5227,100.9647 63.0807,100.7197 64.8097,102.1447 C66.5397,103.5717 66.7857,106.1297 65.3587,107.8587 C63.9327,109.5887 61.3737,109.8337 59.6447,108.4077" id="Fill-158" fill="#0066CF"></path>
                            <polygon id="Fill-160" fill="#0066CF" points="59.3068 76.6284 58.1498 75.4834 56.0748 77.5804 51.1928 79.3324 55.5318 83.6264 57.2318 78.7264"></polygon>
                            <path d="M62.6857,76.2515 C61.5397,77.4095 59.6717,77.4195 58.5137,76.2725 C57.3557,75.1275 57.3457,73.2595 58.4917,72.1015 C59.6377,70.9425 61.5057,70.9335 62.6647,72.0785 C63.8217,73.2255 63.8317,75.0935 62.6857,76.2515" id="Fill-162" fill="#0066CF"></path>
                            <polygon id="Fill-164" fill="#0066CF" points="37.2453 102.105 32.9063 97.812 31.2063 102.712 29.1313 104.81 30.2883 105.955 32.3633 103.858"></polygon>
                            <path d="M25.7521,105.187 C26.8981,104.029 28.7661,104.019 29.9241,105.166 C31.0821,106.311 31.0921,108.179 29.9451,109.337 C28.8001,110.496 26.9321,110.505 25.7731,109.36 C24.6151,108.213 24.6061,106.345 25.7521,105.187" id="Fill-166" fill="#0066CF"></path>
                            <g id="Group-170" stroke-width="1" fill="none" transform="translate(0.000000, 46.031000)">
                                <mask id="mask-6" fill="white">
                                    <use xlink:href="#path-5"></use>
                                </mask>
                                <g id="Clip-169"></g>
                                <path d="M44.2189,1.407 C20.3539,1.407 0.9379,20.823 0.9379,44.688 C0.9379,68.553 20.3539,87.97 44.2189,87.97 C68.0839,87.97 87.4999,68.553 87.4999,44.688 C87.4999,20.823 68.0839,1.407 44.2189,1.407 M44.2189,88.907 C19.8359,88.907 -0.0001,69.07 -0.0001,44.688 C-0.0001,20.305 19.8359,0.47 44.2189,0.47 C68.6009,0.47 88.4379,20.305 88.4379,44.688 C88.4379,69.07 68.6009,88.907 44.2189,88.907" id="Fill-168" fill="#FFFFFF" mask="url(#mask-6)"></path>
                            </g>
                            <path d="M275.0451,295.522 C275.0451,308.256 264.7221,318.579 251.9871,318.579 C239.2541,318.579 228.9311,308.256 228.9311,295.522 C228.9311,282.788 239.2541,272.465 251.9871,272.465 C264.7221,272.465 275.0451,282.788 275.0451,295.522" id="Fill-171" fill="#0066CF"></path>
                            <polygon id="Fill-173" fill="#0066CF" points="235.5167 274.0933 233.1427 276.1483 227.7487 269.9163 230.1227 267.8623"></polygon>
                            <polygon id="Fill-175" fill="#0066CF" points="243.0187 276.1646 234.1167 283.8696 231.4737 274.2196 233.8477 272.1646"></polygon>
                            <path d="M231.1788,261.6226 C233.5098,264.3156 233.2158,268.3906 230.5228,270.7216 C227.8288,273.0536 223.7548,272.7596 221.4238,270.0646 C219.0918,267.3716 219.3858,263.2976 222.0788,260.9666 C224.7738,258.6356 228.8468,258.9286 231.1788,261.6226" id="Fill-177" fill="#0066CF"></path>
                            <polygon id="Fill-179" fill="#0066CF" points="268.4582 316.9507 270.8322 314.8957 276.2262 321.1277 273.8522 323.1817"></polygon>
                            <polygon id="Fill-181" fill="#0066CF" points="260.9562 314.8794 269.8582 307.1744 272.5012 316.8244 270.1282 318.8794"></polygon>
                            <path d="M274.0744,329.7368 C272.0174,327.3608 272.2764,323.7668 274.6534,321.7108 C277.0294,319.6528 280.6234,319.9128 282.6804,322.2888 C284.7374,324.6658 284.4774,328.2588 282.1014,330.3158 C279.7254,332.3728 276.1324,332.1138 274.0744,329.7368" id="Fill-183" fill="#0066CF"></path>
                            <path d="M268.3732,295.522 C268.3732,304.571 261.0372,311.907 251.9872,311.907 C242.9382,311.907 235.6022,304.571 235.6022,295.522 C235.6022,286.473 242.9382,279.137 251.9872,279.137 C261.0372,279.137 268.3732,286.473 268.3732,295.522" id="Fill-185" fill="#00ADFF"></path>
                            <path d="M247.3927,283.5034 C244.9627,283.5034 242.9937,285.4734 242.9937,287.9024 C242.9937,290.3324 244.9627,292.3024 247.3927,292.3024 C249.8237,292.3024 251.7927,290.3324 251.7927,287.9024 C251.7927,285.4734 249.8237,283.5034 247.3927,283.5034" id="Fill-187" fill="#0066CF"></path>
                            <path d="M247.3927,298.7417 C244.9627,298.7417 242.9937,300.7117 242.9937,303.1407 C242.9937,305.5707 244.9627,307.5417 247.3927,307.5417 C249.8237,307.5417 251.7927,305.5707 251.7927,303.1407 C251.7927,300.7117 249.8237,298.7417 247.3927,298.7417" id="Fill-189" fill="#0066CF"></path>
                            <path d="M257.7941,289.5864 C254.5161,289.5864 251.8581,292.2434 251.8581,295.5224 C251.8581,298.8004 254.5161,301.4574 257.7941,301.4574 C261.0711,301.4574 263.7301,298.8004 263.7301,295.5224 C263.7301,292.2434 261.0711,289.5864 257.7941,289.5864" id="Fill-191" fill="#0066CF"></path>
                            <polygon id="Fill-193" fill="#0066CF" points="270.5011 275.8306 268.0921 273.8166 273.3791 267.4946 275.7871 269.5086"></polygon>
                            <polygon id="Fill-195" fill="#0066CF" points="269.6584 283.5679 260.6264 276.0149 269.7284 271.8599 272.1374 273.8739"></polygon>
                            <path d="M281.8947,270.5415 C279.3817,273.5475 274.9077,273.9465 271.9027,271.4335 C268.8967,268.9195 268.4977,264.4455 271.0107,261.4395 C273.5247,258.4355 277.9987,258.0355 281.0037,260.5495 C284.0087,263.0625 284.4087,267.5365 281.8947,270.5415" id="Fill-197" fill="#0066CF"></path>
                            <polygon id="Fill-199" fill="#0066CF" points="233.4747 315.2134 235.8827 317.2274 230.5957 323.5494 228.1877 321.5354"></polygon>
                            <polygon id="Fill-201" fill="#0066CF" points="234.3165 307.4761 243.3485 315.0291 234.2465 319.1841 231.8375 317.1701"></polygon>
                            <path d="M221.9337,321.5357 C224.2237,318.7977 228.3007,318.4337 231.0387,320.7237 C233.7777,323.0147 234.1417,327.0917 231.8517,329.8297 C229.5607,332.5677 225.4847,332.9317 222.7457,330.6407 C220.0067,328.3507 219.6437,324.2747 221.9337,321.5357" id="Fill-203" fill="#0066CF"></path>
                            <polygon id="Fill-205" fill="#0066CF" points="251.7013 269.0552 249.0753 269.2132 248.6603 262.3202 251.2873 262.1612"></polygon>
                            <polygon id="Fill-207" fill="#0066CF" points="255.6378 274.2544 245.7888 274.8464 248.9468 267.0794 251.5738 266.9214"></polygon>
                            <path d="M254.924,258.5151 C255.095,261.3631 252.926,263.8101 250.078,263.9811 C247.231,264.1521 244.784,261.9821 244.612,259.1351 C244.442,256.2871 246.611,253.8401 249.459,253.6691 C252.306,253.4981 254.753,255.6671 254.924,258.5151" id="Fill-209" fill="#0066CF"></path>
                            <polygon id="Fill-211" fill="#0066CF" points="252.2462 321.9898 254.8732 321.8318 255.2872 328.7248 252.6612 328.8838"></polygon>
                            <polygon id="Fill-213" fill="#0066CF" points="248.3097 316.7905 258.1587 316.1975 255.0007 323.9655 252.3747 324.1235"></polygon>
                            <path d="M248.2658,332.2896 C248.0708,329.0326 250.5508,326.2346 253.8078,326.0386 C257.0648,325.8436 259.8628,328.3246 260.0588,331.5806 C260.2538,334.8376 257.7728,337.6366 254.5168,337.8316 C251.2598,338.0276 248.4608,335.5466 248.2658,332.2896" id="Fill-215" fill="#0066CF"></path>
                            <polygon id="Fill-217" fill="#0066CF" points="277.9826 300.5044 278.3486 297.8994 285.1876 298.8604 284.8216 301.4654"></polygon>
                            <polygon id="Fill-219" fill="#0066CF" points="272.1056 303.3316 273.4796 293.5606 280.4656 298.1966 280.0996 300.8026"></polygon>
                            <path d="M288.5744,305.48 C285.9674,305.114 284.1494,302.703 284.5164,300.094 C284.8834,297.487 287.2944,295.669 289.9024,296.036 C292.5104,296.403 294.3274,298.814 293.9614,301.422 C293.5944,304.03 291.1824,305.847 288.5744,305.48" id="Fill-221" fill="#0066CF"></path>
                            <polygon id="Fill-223" fill="#0066CF" points="225.9923 290.5396 225.6263 293.1446 218.7873 292.1836 219.1533 289.5786"></polygon>
                            <polygon id="Fill-225" fill="#0066CF" points="231.8693 287.7124 230.4963 297.4834 223.5093 292.8474 223.8753 290.2414"></polygon>
                            <path d="M214.5997,284.6431 C217.7167,285.0811 219.8877,287.9621 219.4497,291.0791 C219.0117,294.1961 216.1297,296.3671 213.0137,295.9281 C209.8977,295.4911 207.7267,292.6091 208.1637,289.4931 C208.6027,286.3761 211.4837,284.2061 214.5997,284.6431" id="Fill-227" fill="#0066CF"></path>
                            <path d="M251.9874,231.6157 C216.7504,231.6157 188.0814,260.2837 188.0814,295.5217 C188.0814,330.7607 216.7504,359.4287 251.9874,359.4287 C287.2254,359.4287 315.8934,330.7607 315.8934,295.5217 C315.8934,260.2837 287.2254,231.6157 251.9874,231.6157 M251.9874,360.3657 C216.2324,360.3657 187.1434,331.2767 187.1434,295.5217 C187.1434,259.7667 216.2324,230.6787 251.9874,230.6787 C287.7424,230.6787 316.8314,259.7667 316.8314,295.5217 C316.8314,331.2767 287.7424,360.3657 251.9874,360.3657" id="Fill-229" fill="#FFFFFF"></path>
                            <path d="M200.6085,0.937 C176.0535,0.937 156.0775,20.914 156.0775,45.468 C156.0775,70.023 176.0535,90 200.6085,90 C225.1635,90 245.1395,70.023 245.1395,45.468 C245.1395,20.914 225.1635,0.937 200.6085,0.937 M200.6085,90.937 C175.5375,90.937 155.1395,70.541 155.1395,45.468 C155.1395,20.397 175.5375,0 200.6085,0 C225.6805,0 246.0775,20.397 246.0775,45.468 C246.0775,70.541 225.6805,90.937 200.6085,90.937" id="Fill-231" fill="#0066CF"></path>
                            <path d="M210.7267,35.2954 C216.3157,40.8834 216.3157,49.9434 210.7267,55.5314 C205.1387,61.1194 196.0797,61.1194 190.4907,55.5314 C184.9027,49.9434 184.9027,40.8834 190.4907,35.2954 C196.0797,29.7074 205.1387,29.7074 210.7267,35.2954" id="Fill-233" fill="#0066CF"></path>
                            <polygon id="Fill-235" fill="#0066CF" points="186.7677 33.3618 183.9707 31.2048 182.7817 32.7478 185.5777 34.9048 188.3757 40.4478 192.8387 34.6628"></polygon>
                            <path d="M183.0265,27.2456 C184.5705,28.4366 184.8565,30.6546 183.6655,32.1986 C182.4735,33.7436 180.2555,34.0296 178.7125,32.8386 C177.1675,31.6466 176.8805,29.4296 178.0725,27.8846 C179.2635,26.3406 181.4815,26.0546 183.0265,27.2456" id="Fill-237" fill="#0066CF"></path>
                            <polygon id="Fill-239" fill="#0066CF" points="215.7902 55.7525 212.9912 50.2095 208.5282 55.9945 214.6002 57.2955 217.3962 59.4525 218.5872 57.9095"></polygon>
                            <path d="M216.9415,62.3316 C215.3975,61.1406 215.1115,58.9226 216.3025,57.3786 C217.4945,55.8336 219.7125,55.5476 221.2555,56.7386 C222.7995,57.9306 223.0865,60.1476 221.8945,61.6926 C220.7035,63.2366 218.4855,63.5226 216.9415,62.3316" id="Fill-241" fill="#0066CF"></path>
                            <path d="M207.799,38.2232 C211.771,42.1952 211.771,48.6332 207.799,52.6042 C203.828,56.5752 197.39,56.5752 193.418,52.6042 C189.447,48.6332 189.447,42.1952 193.418,38.2232 C197.39,34.2522 203.828,34.2522 207.799,38.2232" id="Fill-243" fill="#00ADFF"></path>
                            <path d="M199.7208,44.5152 C201.0288,43.2112 201.0328,41.0932 199.7288,39.7862 C198.4238,38.4772 196.3068,38.4732 194.9978,39.7772 C193.6908,41.0812 193.6868,43.1992 194.9908,44.5072 C196.2948,45.8152 198.4118,45.8192 199.7208,44.5152" id="Fill-245" fill="#0066CF"></path>
                            <path d="M206.2863,51.1021 C207.5943,49.7981 207.5983,47.6811 206.2943,46.3731 C204.9903,45.0651 202.8723,45.0611 201.5643,46.3651 C200.2563,47.6681 200.2533,49.7871 201.5573,51.0941 C202.8603,52.4031 204.9773,52.4071 206.2863,51.1021" id="Fill-247" fill="#0066CF"></path>
                            <polygon id="Fill-249" fill="#0066CF" points="214.2579 33.1431 216.7549 30.6451 215.3769 29.2671 212.8799 31.7651 207.0249 33.8311 212.1919 38.9981"></polygon>
                            <path d="M220.8019,30.2144 C219.4229,31.5944 217.1869,31.5944 215.8079,30.2144 C214.4289,28.8354 214.4289,26.5994 215.8079,25.2204 C217.1869,23.8414 219.4229,23.8414 220.8019,25.2204 C222.1819,26.5994 222.1819,28.8354 220.8019,30.2144" id="Fill-251" fill="#0066CF"></path>
                            <polygon id="Fill-253" fill="#0066CF" points="189.0265 51.8286 186.9605 57.6846 184.4635 60.1826 185.8405 61.5596 188.3385 59.0616 194.1935 56.9956"></polygon>
                            <path d="M180.4152,60.6128 C181.7952,59.2328 184.0302,59.2328 185.4102,60.6128 C186.7892,61.9918 186.7892,64.2278 185.4102,65.6068 C184.0302,66.9858 181.7952,66.9858 180.4152,65.6068 C179.0362,64.2278 179.0362,61.9918 180.4152,60.6128" id="Fill-255" fill="#0066CF"></path>
                            <polygon id="Fill-257" fill="#0066CF" points="201.5402 26.6216 201.5402 23.2466 199.6782 23.2466 199.6782 26.6216 197.1172 31.9766 204.1012 31.9766"></polygon>
                            <path d="M204.6271,19.4859 C204.6271,21.7059 202.8281,23.5049 200.6081,23.5049 C198.3901,23.5049 196.5911,21.7059 196.5911,19.4859 C196.5911,17.2669 198.3901,15.4679 200.6081,15.4679 C202.8281,15.4679 204.6271,17.2669 204.6271,19.4859" id="Fill-259" fill="#0066CF"></path>
                            <polygon id="Fill-261" fill="#0066CF" points="201.4738 67.023 201.4738 63.887 203.8528 58.915 197.3658 58.915 199.7448 63.887 199.7448 67.023"></polygon>
                            <path d="M197.4738,69.8335 C197.4738,68.1025 198.8768,66.6975 200.6088,66.6975 C202.3398,66.6975 203.7448,68.1025 203.7448,69.8335 C203.7448,71.5645 202.3398,72.9685 200.6088,72.9685 C198.8768,72.9685 197.4738,71.5645 197.4738,69.8335" id="Fill-263" fill="#0066CF"></path>
                            <polygon id="Fill-265" fill="#0066CF" points="220.4572 46.1402 220.4572 44.6872 217.8242 44.6872 213.6472 42.6902 213.6472 48.1372 217.8242 46.1402"></polygon>
                            <path d="M221.4035,47.7447 C220.1165,47.7447 219.0725,46.7007 219.0725,45.4137 C219.0725,44.1267 220.1165,43.0827 221.4035,43.0827 C222.6905,43.0827 223.7335,44.1267 223.7335,45.4137 C223.7335,46.7007 222.6905,47.7447 221.4035,47.7447" id="Fill-267" fill="#0066CF"></path>
                            <polygon id="Fill-269" fill="#0066CF" points="187.5704 48.4751 187.5704 42.3521 182.8764 44.5971 179.9174 44.5971 179.9174 46.2301 182.8764 46.2301"></polygon>
                            <path d="M178.7062,41.0113 C181.1382,41.0113 183.1082,42.9823 183.1082,45.4133 C183.1082,47.8453 181.1382,49.8163 178.7062,49.8163 C176.2752,49.8163 174.3042,47.8453 174.3042,45.4133 C174.3042,42.9823 176.2752,41.0113 178.7062,41.0113" id="Fill-271" fill="#0066CF"></path>
                        </g>
                    </g>
                </g>
            </g>
        </g>
    </g>
</svg>