<?xml version="1.0" encoding="UTF-8"?>
<svg width="14px" height="14px" viewBox="0 0 14 14" version="1.1" xmlns="http://www.w3.org/2000/svg" xmlns:xlink="http://www.w3.org/1999/xlink">
    <!-- Generator: Sketch 61.1 (89650) - https://sketch.com -->
    <title>phone (1)</title>
    <desc>Created with Sketch.</desc>
    <g id="Page-1" stroke="none" stroke-width="1" fill="none" fill-rule="evenodd">
        <g id="Home-Copy" transform="translate(-831.000000, -5773.000000)" fill="#187DD7" fill-rule="nonzero">
            <g id="phone-(1)" transform="translate(831.000000, 5773.000000)">
                <path d="M13.6328822,10.2745768 L11.6750296,8.32083723 C10.9757965,7.6230731 9.78710028,7.90220601 9.50740706,8.80927211 C9.29763714,9.43728709 8.59840407,9.78616915 7.96909431,9.64658907 C6.57062817,9.297707 4.68269889,7.48352027 4.33308236,6.0182156 C4.12331244,5.39020063 4.54285228,4.6924365 5.17216204,4.48313452 C6.08116503,4.20402887 6.36085825,3.01782985 5.66162519,2.32006573 L3.7037726,0.366326167 C3.14438614,-0.122108722 2.30530646,-0.122108722 1.81584332,0.366326167 L0.487300489,1.69207801 C-0.841242339,3.08760627 0.627147102,6.78575614 3.91354252,10.0652475 C7.19993793,13.3447389 10.9058732,14.8798473 12.3043393,13.4842918 L13.6328822,12.1585399 C14.1223726,11.6003286 14.1223726,10.7630117 13.6328822,10.2745768 Z" id="Path"></path>
            </g>
        </g>
    </g>
</svg>