<?xml version="1.0" encoding="utf-8"?>
<!-- Generator: Adobe Illustrator 25.0.0, SVG Export Plug-In . SVG Version: 6.00 Build 0)  -->
<svg version="1.1" id="Layer_1" xmlns="http://www.w3.org/2000/svg" xmlns:xlink="http://www.w3.org/1999/xlink" x="0px" y="0px"
	 viewBox="0 0 499 428" style="enable-background:new 0 0 499 428;" xml:space="preserve">
<style type="text/css">
	.st0{opacity:0.4394;}
	.st1{fill-rule:evenodd;clip-rule:evenodd;fill:#90CCFF;}
	.st2{filter:url(#Adobe_OpacityMaskFilter);}
	.st3{fill-rule:evenodd;clip-rule:evenodd;fill:#FFFFFF;}
	.st4{mask:url(#mask-2_1_);fill-rule:evenodd;clip-rule:evenodd;fill:#4DBCFF;}
	.st5{fill:none;stroke:#FFF0DE;stroke-width:1.33;}
	.st6{opacity:0.362;}
	.st7{fill-rule:evenodd;clip-rule:evenodd;fill:#2BA0FF;}
	.st8{fill-rule:evenodd;clip-rule:evenodd;fill:#2B9DFF;}
	.st9{fill-rule:evenodd;clip-rule:evenodd;fill:#6EBDFF;}
	.st10{filter:url(#Adobe_OpacityMaskFilter_1_);}
	.st11{mask:url(#mask-12_1_);fill-rule:evenodd;clip-rule:evenodd;fill:#2B9DFF;}
	.st12{opacity:0.3815;}
	.st13{filter:url(#Adobe_OpacityMaskFilter_2_);}
	.st14{mask:url(#mask-14_1_);fill-rule:evenodd;clip-rule:evenodd;fill:#2B9DFF;}
	.st15{fill:#0390CF;}
	.st16{fill:#F6B5A0;}
	.st17{fill:#2965AD;}
	.st18{fill:#462620;}
	.st19{fill:#F1927C;}
	.st20{fill:#21263D;}
	.st21{fill:#2A3768;}
	.st22{fill:#45A4DC;}
	.st23{fill:#5F3731;}
	.st24{fill:#FFFFFF;}
	.st25{filter:url(#Adobe_OpacityMaskFilter_3_);}
	.st26{mask:url(#mask-8_2_);fill-rule:evenodd;clip-rule:evenodd;fill:#FFFFFB;}
	.st27{fill-rule:evenodd;clip-rule:evenodd;fill:#34A853;}
	.st28{filter:url(#Adobe_OpacityMaskFilter_4_);}
	.st29{mask:url(#mask-10_8_);fill-rule:evenodd;clip-rule:evenodd;fill:#34A853;}
</style>
<desc>Created with Sketch.</desc>
<g id="Home" transform="translate(-235.000000, -1744.000000)">
	<g id="Group-4" transform="translate(177.148045, 1714.526718)">
		<g id="Group-2">
			<g id="Group-12-Copy" transform="translate(57.851955, 84.473282)" class="st0">
				<path id="Fill-1" class="st1" d="M28.3,56.8c0.6-12,2.3-24.3,8.9-34.4C46.9,7.6,65.5,0.8,83.2,0.1c28-1.1,55,10.5,79.3,24.6
					c24.2,14.1,47,30.9,72.8,42C282.6,87,335.7,86.4,387,90.4c16.9,1.3,34.9,3.6,48,14.4c10.9,9,16.9,22.9,19,36.8
					c5.7,36.8-13,74.4-41.3,98.6c-28.3,24.2-64.8,36.7-101.4,44c-40.7,8-83.1,10.1-123.4,0.2c-75.5-18.6-129.6-78-150.7-151.2
					C30.1,108.4,27,82.5,28.3,56.8"/>
				<g id="Group-5">
					<g id="Clip-4">
					</g>
					<defs>
						<filter id="Adobe_OpacityMaskFilter" filterUnits="userSpaceOnUse" x="0" y="0.4" width="483.9" height="371.5">
							<feColorMatrix  type="matrix" values="1 0 0 0 0  0 1 0 0 0  0 0 1 0 0  0 0 0 1 0"/>
						</filter>
					</defs>
					<mask maskUnits="userSpaceOnUse" x="0" y="0.4" width="483.9" height="371.5" id="mask-2_1_">
						<g class="st2">
							<polygon id="path-1_1_" class="st3" points="0,0.4 483.9,0.4 483.9,371.9 0,371.9 							"/>
						</g>
					</mask>
					<path id="Fill-3" class="st4" d="M266.1,58.5c38.4-24.1,76.7-53,121.8-57.6c14.8-1.5,30.3-0.2,43.7,6.3
						c18.9,9.1,31.8,27.5,39.7,46.9c17.4,42.7,13.8,90.8,7.2,136.5c-4.7,32.5-11,65.5-27.6,93.9c-22.4,38.4-62.1,64.8-104.8,77.3
						c-42.7,12.5-88.3,12.1-132.4,5.9c-43.2-6.1-86.2-18.1-123.6-40.4c-37.4-22.4-69.1-56-83.9-96.9c-5.4-15-8.5-31.6-4-46.9
						c12.7-43,82.3-44.6,117-56C170.7,110.5,220.2,87.3,266.1,58.5"/>
				</g>
				<path id="Stroke-6" class="st5" d="M269.3,329c-15.7,0-32.7-1.3-50.6-3.8c-43.7-6.2-78.9-17.6-107.7-34.9
					c-18.6-11.2-35.5-25.6-48.4-43.1c-9.6-13.1-31.4-44.1-14.3-58.3c5.1-4.3,11.9-6.1,18.4-7.4c10.1-2,20.1-3.7,30.1-5.8
					c12.4-2.6,24.1-5,34.7-8.5c54.9-18.1,107.5-42.8,156.2-73.4c5.8-3.7,11.6-7.4,17.3-11.1c29.7-19.2,57.8-37.4,86.2-40.3
					c2.2-0.2,4.4-0.3,6.5-0.3c5.8,0,10.7,0.9,14.2,2.6c16.5,8,23.1,34.1,25.7,50.5c8.5,52.7,1.7,134.5-32,178.3
					C373.9,314.9,319.3,329,269.3,329z"/>
				<path id="Stroke-8" class="st5" d="M270.5,288c-32.2-0.1-66.5-5.9-96.6-15c-15.3-4.6-30.3-10.6-43.7-19.2
					c-3.1-2-36.3-30.7-33-32.7c6.3-3.7,13.6-4.9,20.8-6.4c51.4-10.3,100-31.1,145.7-56.1c19.4-10.7,38.2-22.8,57.2-34
					c8.1-4.8,63.9-44.2,71.7-37.8c1.8,1.4,2.4,3.9,2.8,6.1c5.7,27.7,3.5,61.3,0,89.3c-3.4,27.3-12.6,55-32.1,74.4
					c-19.9,20-48.6,29.2-76.8,31C281.3,287.9,276,288,270.5,288z"/>
				<path id="Stroke-10" class="st5" d="M270,245c-22.5,0-47.6-3.4-72-9.7c27.6-10.3,56-23.4,85.6-39.5
					c13.5-7.3,26.4-15.2,38.9-22.8c6.8-4.1,13.2-8,19.7-11.8c2.3-1.3,5-3.1,10.3-6.6c0.9-0.6,1.7-1.1,2.5-1.6
					c-0.5,7.5-1.3,15.4-2.4,23.8c-1.9,15.3-6.9,36.3-20,49.3c-10.7,10.6-28.2,17.2-49.4,18.5c-4.1,0.3-8.5,0.4-13,0.4L270,245z"/>
			</g>
		</g>
		<g id="Group-102-Copy-8" transform="translate(400.851955, 65.473282)" class="st6">
			<path id="Fill-1_2_" class="st7" d="M-293.9,15.5h3c-0.3-2.7-0.3-5.3,0-8h-3C-293.6,10.2-293.6,12.8-293.9,15.5"/>
			<path id="Fill-3_2_" class="st7" d="M-302.7,18.5l2.8-1.4c-1.7-2-3.1-4.2-4.2-6.6l-2.8,1.4C-305.2,14-303.8,16.2-302.7,18.5"/>
			<path id="Fill-5_1_" class="st7" d="M-309.3,26.5l1.4-2.8c-2.3-1.1-4.5-2.5-6.6-4.2l-1.4,2.8C-313.5,23.4-311.3,24.8-309.3,26.5"
				/>
			<path id="Fill-7_1_" class="st7" d="M-311.9,35.5l0-3c-2.7,0.3-5.3,0.3-8,0l0,3C-317.2,35.2-314.5,35.2-311.9,35.5"/>
			<path id="Fill-9_1_" class="st7" d="M-307.9,45.3l-1.4-2.8c-2,1.7-4.2,3.1-6.6,4.2l1.4,2.8C-312.4,47.8-310.2,46.4-307.9,45.3"/>
			<path id="Fill-11" class="st7" d="M-299.9,51.9l-2.8-1.4c-1.1,2.3-2.5,4.5-4.2,6.6l2.8,1.4C-303,56.2-301.6,54-299.9,51.9"/>
			<path id="Fill-13_1_" class="st7" d="M-290.9,53.5l-3,0c0.3,2.7,0.3,5.3,0,8l3,0C-291.2,58.8-291.2,56.2-290.9,53.5"/>
			<path id="Fill-15_1_" class="st7" d="M-281.1,50.5l-2.8,1.4c1.7,2,3.1,4.2,4.2,6.6l2.8-1.4C-278.6,55-280,52.8-281.1,50.5"/>
			<path id="Fill-17_1_" class="st7" d="M-274.4,42.5l-1.4,2.8c2.3,1.1,4.5,2.5,6.6,4.2l1.4-2.8C-270.2,45.6-272.4,44.2-274.4,42.5"
				/>
			<path id="Fill-19_1_" class="st7" d="M-271.9,32.5l0,3c2.7-0.3,5.3-0.3,8,0v-3C-266.5,32.8-269.2,32.8-271.9,32.5"/>
			<path id="Fill-21_1_" class="st7" d="M-275.9,23.7l1.4,2.8c2-1.7,4.2-3.1,6.6-4.2l-1.4-2.8C-271.3,21.2-273.5,22.6-275.9,23.7"/>
			<path id="Fill-23_1_" class="st7" d="M-283.9,17.1l2.8,1.4c1.1-2.3,2.5-4.5,4.2-6.6l-2.8-1.4C-280.8,12.8-282.2,15-283.9,17.1"/>
			<path id="Fill-25_1_" class="st7" d="M-269.9,34c0,11.9-9.8,21.5-22,21.5c-12.1,0-22-9.6-22-21.5s9.8-21.5,22-21.5
				C-279.7,12.5-269.9,22.1-269.9,34"/>
			<path id="Fill-27_1_" class="st7" d="M-269.9,34c0,2.6-0.5,5.1-1.3,7.3c-0.5,1.5-1.2,2.8-2.1,4.1c-2.7,4.2-6.8,7.4-11.7,9
				c-2.2,0.7-4.5,1.1-6.9,1.1c-12.2,0-22-9.6-22-21.5c0-2.3,0.4-4.6,1.1-6.7c1.6-4.8,4.9-8.8,9.2-11.5c1.3-0.8,2.7-1.5,4.2-2
				c2.3-0.8,4.9-1.3,7.5-1.3C-279.7,12.5-269.9,22.1-269.9,34"/>
			<path id="Fill-29" class="st8" d="M-283.9,48.5c0,2.4-0.4,4.7-1.1,6.9c-2.2,0.7-4.5,1.1-6.9,1.1c-12.2,0-22-9.9-22-22
				c0-2.4,0.4-4.7,1.1-6.9c2.2-0.7,4.5-1.1,6.9-1.1C-293.7,26.5-283.9,36.4-283.9,48.5"/>
			<path id="Fill-31" class="st9" d="M-269.9,34.4c0,2.6-0.5,5.2-1.3,7.5c-0.5,1.5-1.2,2.9-2.1,4.2c-3.4,2.1-7.4,3.4-11.7,3.4
				c-12.1,0-21.9-9.8-21.9-21.9c0-4.3,1.2-8.3,3.4-11.7c1.3-0.8,2.7-1.5,4.2-2.1c2.3-0.8,4.9-1.3,7.5-1.3
				C-279.7,12.5-269.9,22.3-269.9,34.4"/>
			<path id="Fill-33" class="st9" d="M-286.9,22c0,0.8-0.7,1.5-1.5,1.5c-0.8,0-1.5-0.7-1.5-1.5c0-0.8,0.7-1.5,1.5-1.5
				C-287.6,20.5-286.9,21.2-286.9,22"/>
			<path id="Fill-35_1_" class="st8" d="M-274.9,38c0,0.8-0.7,1.5-1.5,1.5c-0.8,0-1.5-0.7-1.5-1.5c0-0.8,0.7-1.5,1.5-1.5
				C-275.6,36.5-274.9,37.2-274.9,38"/>
			<path id="Fill-37_1_" class="st8" d="M-303.9,33.5c0,1.7-1.3,3-3,3c-1.7,0-3-1.3-3-3c0-1.7,1.3-3,3-3
				C-305.2,30.5-303.9,31.8-303.9,33.5"/>
			<path id="Fill-39" class="st8" d="M-284.9,29c0,1.4-1.1,2.5-2.5,2.5c-1.4,0-2.5-1.1-2.5-2.5c0-1.4,1.1-2.5,2.5-2.5
				C-286,26.5-284.9,27.6-284.9,29"/>
			<path id="Fill-41_1_" class="st8" d="M-281.9,47.5c0,0.6-0.4,1-1,1c-0.6,0-1-0.4-1-1s0.4-1,1-1
				C-282.3,46.5-281.9,46.9-281.9,47.5"/>
			<path id="Fill-43_1_" class="st9" d="M-296.9,22.5c0,1.7-1.3,3-3,3c-1.7,0-3-1.3-3-3c0-1.7,1.3-3,3-3
				C-298.2,19.5-296.9,20.8-296.9,22.5"/>
			<path id="Fill-45" class="st8" d="M-291.9,18.5c0,0.6-0.4,1-1,1c-0.6,0-1-0.4-1-1c0-0.6,0.4-1,1-1
				C-292.3,17.5-291.9,17.9-291.9,18.5"/>
			<path id="Fill-47" class="st8" d="M-276.9,24.5c0,0.6-0.4,1-1,1c-0.6,0-1-0.4-1-1c0-0.6,0.4-1,1-1
				C-277.3,23.5-276.9,23.9-276.9,24.5"/>
			<path id="Fill-49" class="st9" d="M-293.9,46.5c0,1.7-1.3,3-3,3c-1.7,0-3-1.3-3-3s1.3-3,3-3C-295.2,43.5-293.9,44.8-293.9,46.5"
				/>
			<path id="Fill-51" class="st9" d="M-272.9,28.5c0,0.6-0.7,1-1.5,1s-1.5-0.4-1.5-1s0.7-1,1.5-1S-272.9,27.9-272.9,28.5"/>
			<path id="Fill-53" class="st8" d="M-287.9,6.5c0,1.1-2,2-4.5,2s-4.5-0.9-4.5-2s2-2,4.5-2S-287.9,5.4-287.9,6.5"/>
			<path id="Fill-55" class="st8" d="M-289.9,6.5c0,0.6-1.1,1-2.5,1c-1.4,0-2.5-0.4-2.5-1s1.1-1,2.5-1C-291,5.5-289.9,5.9-289.9,6.5
				"/>
			<path id="Fill-57_1_" class="st8" d="M-287.9,61.5c0,1.1-2,2-4.5,2s-4.5-0.9-4.5-2c0-1.1,2-2,4.5-2S-287.9,60.4-287.9,61.5"/>
			<path id="Fill-59_1_" class="st8" d="M-289.9,61.5c0,0.6-1.1,1-2.5,1c-1.4,0-2.5-0.4-2.5-1c0-0.6,1.1-1,2.5-1
				C-291,60.5-289.9,60.9-289.9,61.5"/>
			<path id="Fill-61_1_" class="st8" d="M-274,12.9c-0.5,1-2.7,0.7-4.9-0.6c-2.1-1.3-3.4-3.2-2.9-4.2c0.5-1,2.7-0.7,4.9,0.6
				S-273.5,11.9-274,12.9"/>
			<path id="Fill-63" class="st8" d="M-275.9,11.2c-0.3,0.5-1.7,0.3-3-0.4c-1.3-0.7-2.2-1.6-1.9-2.1c0.3-0.5,1.7-0.3,3,0.4
				C-276.5,9.8-275.6,10.8-275.9,11.2"/>
			<path id="Fill-65_1_" class="st8" d="M-302,60.9c-0.5,1-2.7,0.7-4.9-0.6c-2.1-1.3-3.4-3.2-2.9-4.2c0.5-1,2.7-0.7,4.9,0.6
				C-302.8,58-301.5,59.9-302,60.9"/>
			<path id="Fill-67_1_" class="st8" d="M-303.9,59.2c-0.3,0.5-1.7,0.3-3-0.4c-1.3-0.7-2.2-1.6-1.9-2.1c0.3-0.5,1.7-0.3,3,0.4
				C-304.5,57.8-303.6,58.8-303.9,59.2"/>
			<path id="Fill-69" class="st8" d="M-265.5,24.4c-1,0.5-2.9-0.8-4.2-2.9c-1.3-2.1-1.5-4.3-0.5-4.8c1-0.5,2.9,0.8,4.2,2.9
				S-264.5,23.9-265.5,24.4"/>
			<path id="Fill-71_1_" class="st8" d="M-266.2,23.4c-0.5,0.3-1.4-0.6-2.1-1.9c-0.7-1.3-0.8-2.7-0.4-3c0.5-0.3,1.4,0.6,2.1,1.9
				C-265.8,21.8-265.7,23.1-266.2,23.4"/>
			<path id="Fill-73_1_" class="st8" d="M-313.5,51.4c-1,0.5-2.9-0.8-4.2-2.9c-1.3-2.1-1.5-4.3-0.5-4.8c1-0.5,2.9,0.8,4.2,2.9
				C-312.7,48.7-312.5,50.9-313.5,51.4"/>
			<path id="Fill-75" class="st8" d="M-315.2,50.4c-0.5,0.3-1.4-0.6-2.1-1.9c-0.7-1.3-0.8-2.7-0.4-3c0.5-0.3,1.4,0.6,2.1,1.9
				C-314.8,48.8-314.7,50.1-315.2,50.4"/>
			<path id="Fill-77" class="st8" d="M-264,38.5c-1.1,0-2-2.1-1.9-4.5c0.1-2.5,1-4.5,2.1-4.5c1.1,0,2,2.1,1.9,4.5
				C-261.9,36.5-262.9,38.5-264,38.5"/>
			<path id="Fill-79" class="st8" d="M-263.9,36.5c-0.6,0-1-1.1-0.9-2.5c0-1.4,0.5-2.5,1-2.5c0.6,0,1,1.1,0.9,2.5
				C-262.9,35.4-263.4,36.5-263.9,36.5"/>
			<g id="Group-83" transform="translate(0.000000, 24.000000)">
				<g id="Clip-82">
				</g>
				<defs>
					<filter id="Adobe_OpacityMaskFilter_1_" filterUnits="userSpaceOnUse" x="-321.9" y="4.9" width="4" height="9.5">
						<feColorMatrix  type="matrix" values="1 0 0 0 0  0 1 0 0 0  0 0 1 0 0  0 0 0 1 0"/>
					</filter>
				</defs>
				<mask maskUnits="userSpaceOnUse" x="-321.9" y="4.9" width="4" height="9.5" id="mask-12_1_">
					<g class="st10">
						<polygon id="path-11_1_" class="st3" points="-321.9,4.9 -317.9,4.9 -317.9,14.5 -321.9,14.5 						"/>
					</g>
				</mask>
				<path id="Fill-81" class="st11" d="M-320,14.5c-1.1,0-2-2.2-1.9-4.8c0.1-2.6,1-4.7,2.1-4.7c1.1,0,2,2.2,1.9,4.8
					C-317.9,12.4-318.9,14.5-320,14.5"/>
			</g>
			<path id="Fill-84" class="st8" d="M-319.9,36.5c-0.6,0-1-1.1-0.9-2.5c0-1.4,0.5-2.5,1-2.5c0.6,0,1,1.1,0.9,2.5
				C-318.9,35.4-319.4,36.5-319.9,36.5"/>
			<path id="Fill-86" class="st8" d="M-270.3,51.4c-1-0.5-0.7-2.7,0.6-4.8c1.3-2.1,3.2-3.4,4.2-2.9c1,0.5,0.7,2.7-0.6,4.8
				C-267.4,50.6-269.3,51.9-270.3,51.4"/>
			<path id="Fill-88" class="st8" d="M-268.6,50.4c-0.5-0.3-0.3-1.6,0.4-3c0.7-1.3,1.6-2.2,2.1-1.9c0.5,0.3,0.3,1.6-0.4,3
				C-267.2,49.9-268.1,50.7-268.6,50.4"/>
			<path id="Fill-90" class="st8" d="M-318.3,24.4c-1-0.5-0.7-2.7,0.6-4.8c1.3-2.1,3.2-3.4,4.2-2.9c1,0.5,0.7,2.7-0.6,4.8
				C-315.4,23.6-317.3,24.9-318.3,24.4"/>
			<path id="Fill-92" class="st8" d="M-317.6,22.4c-0.5-0.3-0.3-1.6,0.4-3c0.7-1.3,1.6-2.2,2.1-1.9c0.5,0.3,0.3,1.6-0.4,3
				C-316.2,21.9-317.1,22.7-317.6,22.4"/>
			<path id="Fill-94" class="st8" d="M-281.8,60.9c-0.5-1,0.7-2.9,2.9-4.2c2.1-1.3,4.3-1.6,4.9-0.6c0.6,1-0.7,2.9-2.9,4.2
				C-279,61.6-281.2,61.9-281.8,60.9"/>
			<path id="Fill-96" class="st8" d="M-280.8,59.2c-0.3-0.5,0.5-1.4,1.9-2.1c1.3-0.7,2.7-0.9,3-0.4c0.3,0.5-0.5,1.4-1.9,2.1
				C-279.2,59.5-280.5,59.7-280.8,59.2"/>
			<path id="Fill-98" class="st8" d="M-309.8,12.9c-0.5-1,0.7-2.9,2.9-4.2c2.1-1.3,4.3-1.6,4.9-0.6c0.6,1-0.7,2.9-2.9,4.2
				C-307,13.6-309.2,13.9-309.8,12.9"/>
			<path id="Fill-100" class="st8" d="M-308.8,11.2c-0.3-0.5,0.5-1.4,1.9-2.1s2.7-0.9,3-0.4c0.3,0.5-0.5,1.4-1.9,2.1
				C-307.2,11.5-308.5,11.7-308.8,11.2"/>
		</g>
		<g id="Group-102-Copy-9" transform="translate(452.851955, 299.473282)" class="st12">
			<path id="Fill-1_3_" class="st7" d="M49,19h5c-0.6-4.7-0.6-9.3,0-14h-5C49.6,9.7,49.6,14.3,49,19"/>
			<path id="Fill-3_3_" class="st7" d="M33.3,24l4.7-2.5c-2.9-3.6-5.4-7.4-7.3-11.5L26,12.5C28.9,16.1,31.4,19.9,33.3,24"/>
			<path id="Fill-5_2_" class="st7" d="M21.5,38l2.5-4.7c-4.1-1.9-7.9-4.3-11.5-7.3L10,30.7C14.1,32.6,17.9,35.1,21.5,38"/>
			<path id="Fill-7_2_" class="st7" d="M17,54l0-5c-4.7,0.6-9.3,0.6-14,0l0,5C7.7,53.4,12.3,53.4,17,54"/>
			<path id="Fill-9_2_" class="st7" d="M24,70.7L21.5,66c-3.6,2.9-7.4,5.4-11.5,7.3l2.5,4.7C16.1,75.1,19.9,72.6,24,70.7"/>
			<path id="Fill-11_1_" class="st7" d="M38,81.5L33.3,79c-1.9,4.1-4.3,7.9-7.3,11.5l4.7,2.5C32.6,88.9,35.1,85.1,38,81.5"/>
			<path id="Fill-13_2_" class="st7" d="M54,85l-5,0c0.6,4.7,0.6,9.3,0,14l5,0C53.4,94.3,53.4,89.7,54,85"/>
			<path id="Fill-15_2_" class="st7" d="M70.8,79L66,81.5c2.9,3.6,5.4,7.4,7.3,11.5l4.7-2.5C75.1,86.9,72.6,83.1,70.8,79"/>
			<path id="Fill-17_2_" class="st7" d="M82.5,66L80,70.8c4.1,1.9,7.9,4.3,11.5,7.2l2.5-4.7C89.9,71.4,86.1,68.9,82.5,66"/>
			<path id="Fill-19_2_" class="st7" d="M87,49l0,5c4.7-0.6,9.3-0.6,14,0v-5C96.3,49.6,91.7,49.6,87,49"/>
			<path id="Fill-21_2_" class="st7" d="M80,33.2l2.5,4.8c3.6-2.9,7.4-5.4,11.5-7.3L91.5,26C87.9,28.9,84.1,31.4,80,33.2"/>
			<path id="Fill-23_2_" class="st7" d="M66,21.5l4.8,2.5c1.9-4.1,4.3-7.9,7.2-11.5L73.3,10C71.4,14.1,68.9,17.9,66,21.5"/>
			<path id="Fill-25_2_" class="st7" d="M90,51c0,20.4-17,37-38,37c-21,0-38-16.6-38-37s17-37,38-37C73,14,90,30.6,90,51"/>
			<path id="Fill-27_2_" class="st7" d="M90,51c0,4.4-0.8,8.7-2.3,12.6c-0.9,2.5-2.1,4.9-3.6,7.1c-4.7,7.2-11.8,12.7-20.3,15.4
				C60.1,87.4,56.1,88,52,88c-21,0-38-16.6-38-37c0-4,0.7-7.9,1.9-11.5c2.8-8.2,8.4-15.2,15.8-19.8c2.3-1.4,4.7-2.6,7.3-3.5
				c4.1-1.4,8.4-2.2,13-2.2C73,14,90,30.6,90,51"/>
			<path id="Fill-29_1_" class="st8" d="M66,76.2c0,4.2-0.7,8.2-1.9,11.9c-3.7,1.2-7.7,1.9-11.9,1.9C31.1,90,14,72.9,14,51.8
				c0-4.2,0.7-8.2,1.9-11.9c3.7-1.2,7.7-1.9,11.9-1.9C48.9,38,66,55.1,66,76.2"/>
			<path id="Fill-31_1_" class="st9" d="M90,51.9c0,4.6-0.8,8.9-2.3,13c-0.9,2.6-2.1,5-3.6,7.3C78.3,75.9,71.4,78,63.9,78
				C43,78,26,61,26,40.1c0-7.4,2.1-14.4,5.8-20.2c2.3-1.4,4.7-2.6,7.3-3.6c4-1.5,8.4-2.3,13-2.3C73,14,90,31,90,51.9"/>
			<path id="Fill-33_1_" class="st9" d="M61,30.5c0,1.4-1.1,2.5-2.5,2.5c-1.4,0-2.5-1.1-2.5-2.5c0-1.4,1.1-2.5,2.5-2.5
				C59.9,28,61,29.1,61,30.5"/>
			<path id="Fill-35_2_" class="st8" d="M81,57.5c0,1.4-1.1,2.5-2.5,2.5c-1.4,0-2.5-1.1-2.5-2.5c0-1.4,1.1-2.5,2.5-2.5
				C79.9,55,81,56.1,81,57.5"/>
			<path id="Fill-37_2_" class="st8" d="M31,50c0,2.8-2.2,5-5,5s-5-2.2-5-5s2.2-5,5-5S31,47.2,31,50"/>
			<path id="Fill-39_1_" class="st8" d="M64,42.5c0,2.5-2,4.5-4.5,4.5C57,47,55,45,55,42.5c0-2.5,2-4.5,4.5-4.5C62,38,64,40,64,42.5
				"/>
			<path id="Fill-41_2_" class="st8" d="M69,74.5c0,0.8-0.7,1.5-1.5,1.5c-0.8,0-1.5-0.7-1.5-1.5c0-0.8,0.7-1.5,1.5-1.5
				C68.3,73,69,73.7,69,74.5"/>
			<path id="Fill-43_2_" class="st9" d="M43,31c0,2.8-2.2,5-5,5c-2.8,0-5-2.2-5-5c0-2.8,2.2-5,5-5C40.8,26,43,28.2,43,31"/>
			<path id="Fill-45_1_" class="st8" d="M52,24.5c0,0.8-0.7,1.5-1.5,1.5c-0.8,0-1.5-0.7-1.5-1.5c0-0.8,0.7-1.5,1.5-1.5
				C51.3,23,52,23.7,52,24.5"/>
			<path id="Fill-47_1_" class="st8" d="M78,34.5c0,0.8-0.7,1.5-1.5,1.5c-0.8,0-1.5-0.7-1.5-1.5c0-0.8,0.7-1.5,1.5-1.5
				C77.3,33,78,33.7,78,34.5"/>
			<path id="Fill-49_1_" class="st9" d="M48,73c0,2.8-2.2,5-5,5c-2.8,0-5-2.2-5-5s2.2-5,5-5C45.8,68,48,70.2,48,73"/>
			<path id="Fill-51_1_" class="st9" d="M85,41.5c0,0.8-1.1,1.5-2.5,1.5S80,42.3,80,41.5s1.1-1.5,2.5-1.5S85,40.7,85,41.5"/>
			<path id="Fill-53_1_" class="st8" d="M59,3.5C59,5.4,55.4,7,51,7s-8-1.6-8-3.5S46.6,0,51,0S59,1.6,59,3.5"/>
			<path id="Fill-55_1_" class="st8" d="M56,3.5C56,4.3,54,5,51.5,5C49,5,47,4.3,47,3.5S49,2,51.5,2C54,2,56,2.7,56,3.5"/>
			<path id="Fill-57_2_" class="st8" d="M59,98.5c0,1.9-3.6,3.5-8,3.5s-8-1.6-8-3.5s3.6-3.5,8-3.5S59,96.6,59,98.5"/>
			<path id="Fill-59_2_" class="st8" d="M56,98.5c0,0.8-2,1.5-4.5,1.5c-2.5,0-4.5-0.7-4.5-1.5c0-0.8,2-1.5,4.5-1.5
				C54,97,56,97.7,56,98.5"/>
			<path id="Fill-61_2_" class="st8" d="M82.8,14c-1,1.6-4.8,1.2-8.5-1c-3.7-2.2-6-5.3-5-7c1-1.6,4.8-1.2,8.5,1S83.7,12.4,82.8,14"
				/>
			<path id="Fill-63_1_" class="st8" d="M79.9,11.6c-0.6,0.8-3,0.5-5.4-0.7c-2.4-1.1-3.9-2.7-3.4-3.5c0.6-0.8,3-0.5,5.4,0.7
				C78.9,9.2,80.4,10.8,79.9,11.6"/>
			<path id="Fill-65_2_" class="st8" d="M34.8,97c-1,1.6-4.8,1.2-8.5-1c-3.7-2.2-6-5.3-5-7c1-1.6,4.8-1.2,8.5,1
				C33.5,92.2,35.7,95.4,34.8,97"/>
			<path id="Fill-67_2_" class="st8" d="M30.9,94.6c-0.6,0.8-3,0.5-5.4-0.7c-2.4-1.1-3.9-2.7-3.4-3.5c0.6-0.8,3-0.5,5.4,0.7
				C29.9,92.2,31.4,93.8,30.9,94.6"/>
			<path id="Fill-69_1_" class="st8" d="M97.9,34.8c-1.7,0.9-4.8-1.4-7-5.1c-2.2-3.8-2.6-7.5-0.9-8.5c1.7-0.9,4.8,1.4,7,5.1
				S99.6,33.9,97.9,34.8"/>
			<path id="Fill-71_2_" class="st8" d="M96.5,32.9c-0.8,0.5-2.4-1-3.5-3.4c-1.1-2.4-1.4-4.8-0.6-5.4c0.8-0.5,2.4,1,3.5,3.4
				C97.1,30,97.3,32.4,96.5,32.9"/>
			<path id="Fill-73_2_" class="st8" d="M13.9,80.8c-1.7,0.9-4.8-1.4-7-5.1c-2.2-3.8-2.6-7.5-0.9-8.5c1.7-0.9,4.8,1.4,7,5.1
				C15.3,76.1,15.6,79.9,13.9,80.8"/>
			<path id="Fill-75_1_" class="st8" d="M11.5,79.9c-0.8,0.5-2.4-1-3.5-3.4c-1.1-2.4-1.4-4.8-0.6-5.4c0.8-0.5,2.4,1,3.5,3.4
				C12.1,77,12.3,79.4,11.5,79.9"/>
			<path id="Fill-77_1_" class="st8" d="M100.3,59c-1.9,0-3.4-3.7-3.3-8.1c0.1-4.4,1.7-8,3.7-7.9c1.9,0,3.4,3.7,3.3,8.1
				C103.9,55.5,102.3,59,100.3,59"/>
			<path id="Fill-79_1_" class="st8" d="M100.4,56c-0.8,0-1.5-2.1-1.4-4.5c0-2.5,0.7-4.5,1.6-4.5s1.5,2.1,1.4,4.5
				C102,54,101.3,56,100.4,56"/>
			<g id="Group-83_1_" transform="translate(0.000000, 42.000000)">
				<g id="Clip-82_1_">
				</g>
				<defs>
					<filter id="Adobe_OpacityMaskFilter_2_" filterUnits="userSpaceOnUse" x="0" y="0.8" width="7" height="16.2">
						<feColorMatrix  type="matrix" values="1 0 0 0 0  0 1 0 0 0  0 0 1 0 0  0 0 0 1 0"/>
					</filter>
				</defs>
				<mask maskUnits="userSpaceOnUse" x="0" y="0.8" width="7" height="16.2" id="mask-14_1_">
					<g class="st13">
						<polygon id="path-13_1_" class="st3" points="0,0.8 7,0.8 7,17 0,17 						"/>
					</g>
				</mask>
				<path id="Fill-81_1_" class="st14" d="M3.3,17c-1.9,0-3.4-3.7-3.3-8.2c0.1-4.5,1.7-8.1,3.7-8S7.1,4.5,7,8.9
					C6.9,13.4,5.3,17,3.3,17"/>
			</g>
			<path id="Fill-84_1_" class="st8" d="M3.4,56C2.6,56,2,53.9,2,51.5C2,49,2.7,47,3.6,47S5,49.1,5,51.5C5,54,4.3,56,3.4,56"/>
			<path id="Fill-86_1_" class="st8" d="M90,80.8c-1.7-0.9-1.2-4.7,0.9-8.5c2.2-3.7,5.3-6,7-5.1c1.7,0.9,1.2,4.7-0.9,8.5
				C94.8,79.4,91.7,81.7,90,80.8"/>
			<path id="Fill-88_1_" class="st8" d="M92.4,79.9c-0.8-0.5-0.5-3,0.6-5.4c1.1-2.4,2.7-3.9,3.5-3.4c0.8,0.5,0.5,3-0.6,5.4
				C94.8,78.9,93.2,80.4,92.4,79.9"/>
			<path id="Fill-90_1_" class="st8" d="M6,34.8c-1.7-0.9-1.2-4.7,1-8.5c2.2-3.7,5.3-6,7-5.1c1.7,0.9,1.2,4.7-1,8.5
				C10.8,33.4,7.7,35.7,6,34.8"/>
			<path id="Fill-92_1_" class="st8" d="M7.4,30.9c-0.8-0.5-0.5-3,0.6-5.4s2.7-3.9,3.5-3.4c0.8,0.5,0.5,3-0.6,5.4
				C9.8,29.9,8.2,31.4,7.4,30.9"/>
			<path id="Fill-94_1_" class="st8" d="M69.2,97c-1-1.6,1.3-4.8,5-7c3.7-2.2,7.6-2.7,8.5-1c1,1.6-1.3,4.8-5,7
				C74,98.2,70.2,98.7,69.2,97"/>
			<path id="Fill-96_1_" class="st8" d="M71.1,94.6c-0.6-0.8,0.9-2.3,3.4-3.5c2.4-1.1,4.8-1.5,5.4-0.7c0.6,0.8-0.9,2.3-3.4,3.5
				C74.1,95,71.7,95.3,71.1,94.6"/>
			<path id="Fill-98_1_" class="st8" d="M21.2,14c-1-1.6,1.3-4.8,5-7c3.7-2.2,7.6-2.7,8.5-1c1,1.6-1.3,4.8-5,7
				C26,15.2,22.2,15.7,21.2,14"/>
			<path id="Fill-100_1_" class="st8" d="M22.1,11.6c-0.6-0.8,0.9-2.3,3.4-3.5s4.8-1.5,5.4-0.7c0.6,0.8-0.9,2.3-3.4,3.5
				S22.7,12.3,22.1,11.6"/>
		</g>
		<path id="Path-2" class="st8" d="M0,0"/>
	</g>
</g>
<g>
	<g>
		<path class="st15" d="M46.2,170.4c0,0-28.5,49.9-1.4,71.3L161,284.8c37.6,4.4,45.8-15.2,45.8-15.2l-12.8-39.8
			c0,0-6.2-14.4-24.3-20.5C169.8,209.3,103.5,173.3,46.2,170.4z"/>
	</g>
	<g>
		<g>
			<path class="st16" d="M37.9,197.7c19.8-52.5,75.6-100,141.3-149.6l10.1,9.3c-7.8,12-97.8,118.7-96.8,134.3
				C92.5,191.8,71.5,218.4,37.9,197.7z"/>
		</g>
		<g>
			<path class="st16" d="M212,54.3l6.1,0.2c0,0,8.5-0.9,8.2,4.2c-0.2,3.2-7.7,3.7-7.7,3.7s-7.5,1.2-19.6,3.3c0,0-4.9,0.5-7.9,1.7
				c-3.7,0.9-6.1,1.4-10.2-0.4c-5.8-2.7-10.4-4.9-8.7-14.5c2.8-8.6,8.8-21.1,21.8-28.7c0,0,5.6-2.1,6.8,1.8c0,0,5.7-0.4,6.9,4.4
				c0,0,6.3-0.9,6.8,5.6c0,0,10.1-1.4,10.8,5.7c-0.3-0.4-3-3-9.4,5.9l-4.5,4.8C211.3,52,208.6,54.4,212,54.3z"/>
		</g>
		<g>
			<g>
				<path class="st15" d="M147.7,63.8c0,0,6.4-4.7,13-4.4l9.6-7.4c0,0,7.2,13.3,16.6,17.5l-8,7.7c0,0,1.8,10.1-6.5,20.9
					c0,0-42.4,70-88.5,121.3c0,0-44.5,6.4-48.3-21.4c-1.2-9.1,5.2-22.6,9.8-29.6c9.2-14.1,16.3-26.7,27-39.7
					C92.6,104.2,121.3,81.5,147.7,63.8z"/>
			</g>
			<g>
				<path class="st17" d="M44.8,243.1c-0.3,0-0.6-0.1-0.8-0.3c-12.1-8.5-14.1-27.6-13.2-35.1c2.7-22,9.8-33.3,16.7-44.2
					c1.5-2.5,3.1-4.9,4.5-7.4c17.3-30,44.3-57.8,82.5-85l1.8-1.3c7.2-5.2,15.4-11.1,24.9-12.1l8.1-6.8c0.6-0.5,1.5-0.4,2,0.2
					c0.5,0.6,0.4,1.5-0.2,2l-8.5,7.1c-0.2,0.2-0.5,0.3-0.8,0.3c-8.9,0.8-16.5,6.3-23.9,11.6l-1.8,1.3
					c-37.8,26.9-64.6,54.4-81.7,84.1c-1.5,2.6-3,5-4.6,7.5c-6.7,10.7-13.6,21.7-16.3,43c-0.9,6.9,1,24.6,12,32.4
					c0.6,0.5,0.8,1.3,0.3,2C45.7,242.9,45.2,243.1,44.8,243.1z"/>
			</g>
			<g>
				<path class="st17" d="M88.3,212.7c-0.3,0-0.7-0.1-0.9-0.3c-0.6-0.5-0.7-1.4-0.1-2c29.8-34.3,52.4-63.3,71.1-91.2
					c5.8-8.7,11.4-17.2,15.8-26.4c1.6-3.3,2.4-6.8,3.3-10.5c0.6-2.3,1.2-4.8,2-7.1c0.1-0.2,0.2-0.4,0.3-0.6l4.4-4.4
					c-2.1-1.3-5.8-4.7-12.6-12.8c-0.5-0.6-0.4-1.5,0.2-2c0.6-0.5,1.5-0.4,2,0.2c8.8,10.5,11.9,12.3,12.6,12.6c0.4-0.2,1-0.1,1.4,0.2
					c0.6,0.4,0.8,1.2,0.4,1.8c-0.1,0.2-0.2,0.4-0.4,0.5l-5.8,5.7c-0.7,2.2-1.3,4.4-1.8,6.6c-0.9,3.7-1.8,7.4-3.5,11
					c-4.4,9.3-10.1,18-16,26.8c-18.8,28-41.4,57.1-71.3,91.5C89.1,212.5,88.7,212.7,88.3,212.7z"/>
			</g>
		</g>
	</g>
	<g>
		<path class="st18" d="M207.2,56.2c-13.2,7.4-9.5,20.5-10.2,33.6c-0.3,5.4-1.7,10.7-2.3,16c-3.5-5.3-5.1-11.6-6.9-17.6
			c-3.8-12.4-6.8-23.4-4.2-36.4c1.7-8.3,25-20.9,33-23.6c11.4-3.9,8.5,6.6,6.2,19L207.2,56.2z"/>
	</g>
	<g>
		<path class="st16" d="M289.6,89.9c1.4,8.2-1.6,18.2-8.4,22.8c-9.2,6.2-14.6-2.3-16-11.3c-1.2-7.2,0-20.2,7.8-24.1
			C280.3,73.6,288.4,83.2,289.6,89.9z"/>
	</g>
	<g>
		
			<rect x="232.1" y="115.2" transform="matrix(0.9873 -0.1591 0.1591 0.9873 -19.9556 42.7283)" class="st16" width="49.6" height="61.7"/>
	</g>
	<g>
		<path class="st19" d="M267,147.7c3.3-11.1,4.5-22,1.6-34.9l-41.1,6.6l8.5,53C248.6,168.4,263.5,159.6,267,147.7z"/>
	</g>
	<g>
		<path class="st16" d="M272.7,115.4c-2.8,12.5-7.6,23.3-17.6,31.9c-9.8,8.4-20.5,13.6-32.4,6.7c-9.5-5.6-16.5-14.7-21.1-24.4
			c-10.7-22.2-10.6-55.3,1.2-76.5c13-23.2,45.1-23.7,61-2.7C276.6,67.6,277.2,95.2,272.7,115.4z"/>
	</g>
	<g>
		<g>
			<path class="st19" d="M279.6,105.5c-0.5,0-1.1-0.3-1.3-0.8c-4-8.6-3.4-17.4,1.3-20.9c0.6-0.5,1.5-0.4,2,0.3
				c0.5,0.6,0.3,1.5-0.3,2c-3.5,2.7-3.7,10.3-0.5,17.5c0.3,0.7,0,1.6-0.7,1.9C280,105.4,279.8,105.5,279.6,105.5z"/>
		</g>
		<g>
			<path class="st19" d="M277.4,93.7c-0.4,0-0.8-0.2-1.1-0.5c-0.5-0.6-0.5-1.5,0.1-2c2.8-2.5,7.7-1.5,9.1-1.1c0.8,0.2,1.2,1,1,1.7
				c-0.2,0.8-1,1.2-1.7,1c-2.3-0.6-5.2-0.6-6.5,0.5C278.1,93.6,277.7,93.7,277.4,93.7z"/>
		</g>
	</g>
	<g>
		<g>
			<path class="st20" d="M212.1,97c0.3,2.6-0.8,4.9-2.4,5c-1.6,0.2-3.1-1.8-3.3-4.4c-0.3-2.6,0.8-4.9,2.4-5
				C210.4,92.4,211.9,94.4,212.1,97z"/>
		</g>
		<g>
			<path class="st20" d="M246.2,93.5c0.3,2.6-0.8,4.9-2.4,5c-1.6,0.2-3.1-1.8-3.3-4.4c-0.3-2.6,0.8-4.9,2.4-5
				C244.4,88.9,245.9,90.9,246.2,93.5z"/>
		</g>
		<g>
			<path class="st19" d="M252.5,102c0.2,1.9-3.1,3.7-7.3,4.1c-4.2,0.4-7.8-0.7-8-2.6c-0.2-1.9,3.1-3.7,7.3-4.1
				C248.7,99,252.3,100.1,252.5,102z"/>
		</g>
		<g>
			<path class="st19" d="M215.2,107.9c0.2,1.9-3.1,3.7-7.3,4.1c-4.2,0.4-7.8-0.7-8-2.6c-0.2-1.9,3.1-3.7,7.3-4.1
				C211.5,104.9,215.1,106.1,215.2,107.9z"/>
		</g>
		<g>
			<path class="st19" d="M224.2,113.6c-3.1,0-6.4-0.8-7.5-2.5c-0.4-0.6-1.2-2.3,1-4.3c2.7-2.5,5.3-7.4,4.5-12.3l-3.2-11.6
				c-0.2-0.8,0.2-1.5,1-1.8c0.8-0.2,1.5,0.2,1.8,1l3.2,11.8c1,6.1-2,11.9-5.3,15c-0.5,0.4-0.5,0.7-0.5,0.7c0.5,1,6.2,1.9,9.3,0.5
				c0.7-0.3,1.6,0,1.9,0.7c0.3,0.7,0,1.6-0.7,1.9C228.2,113.2,226.2,113.6,224.2,113.6z"/>
		</g>
		<g>
			<path class="st21" d="M202.7,89.7c-1,0-1.8-0.7-1.8-1.7c-0.1-1,0.7-1.9,1.7-2c7.1-0.5,11.4-3.3,12.5-5.1c0.6-0.9,1.7-1.1,2.6-0.5
				c0.9,0.6,1.1,1.7,0.5,2.6c-1.9,3-7.4,6.3-15.4,6.8C202.8,89.7,202.8,89.7,202.7,89.7z"/>
		</g>
		<g>
			<path class="st21" d="M242.6,85.6c-3.8,0-7.6-1.5-10.1-3.8c-0.7-0.7-0.8-1.9-0.1-2.6c0.7-0.8,1.9-0.8,2.6-0.1
				c3,2.8,9.1,3.9,12.7,1.2c0.8-0.6,2-0.4,2.6,0.4c0.6,0.8,0.4,2-0.4,2.6C247.8,84.9,245.2,85.6,242.6,85.6z"/>
		</g>
		<g>
			<path class="st19" d="M220.8,129.1c-0.4,0-0.8-0.2-1.1-0.5c-0.5-0.6-0.5-1.5,0.1-2c4.9-4.5,10-4.1,15-3.8
				c2.1,0.1,4.2,0.3,6.3,0.1c0.7-0.1,1.5,0.5,1.6,1.3c0.1,0.8-0.5,1.5-1.3,1.6c-2.3,0.2-4.6,0.1-6.8-0.1c-4.7-0.3-8.8-0.6-12.8,3
				C221.5,129,221.1,129.1,220.8,129.1z"/>
		</g>
	</g>
	<g>
		<polygon class="st16" points="213.7,185.9 236,169.3 285.6,169.3 312.4,185.9 		"/>
	</g>
	<g>
		<path class="st22" d="M363.2,397.9c-1.1-19.6-2.2-39.8-7-57.7l10.9-114c3.8-22.8-16.2-30.2-16.2-30.2l-64.5-27.1
			c-28.1,21.2-50.5-0.3-50.5-0.3l-35.8,14.6c0,0-17.1,9.3-20.7,38.5l-10.3,131.5c-0.3,15.9-0.6,31.8-0.9,47.7
			c-0.1,6.8,3.8,20.5,10.7,20.5h168.1C355.5,421.4,363.7,406.3,363.2,397.9z"/>
	</g>
	<g>
		<path class="st18" d="M204.6,18.7c0,0,62.9-13.7,74.7,6.4c14.3,30.9,7.9,58.9,7.9,58.9c-1.6-3.5-7.8-9.8-12.5-4
			c-2,2.4-1.6,13.6-2.3,16.5c-1,3.9-1.9,2.6-5.3,3.1c-2-10.8-4.7-17.3-11.9-25.8c-2-2.1,3.3-22.7-5.7-16.2
			c-10.4,7.6-42.8,6.2-42.8,6.2s-32.2,5.4-42.2-30.9c0,0,9.3,5.7,15.7,2.8c0,0-22.1-14.3,1.4-32.1C181.6,3.7,180.5,21.6,204.6,18.7z
			"/>
	</g>
	<g>
		<path class="st23" d="M279.1,24.8c-7,12.7-15.5,24.9-27.6,31.8c6.2-2.1,1.9,15.3,3.7,17.2c7.1,8.6,9.9,15.1,11.9,25.8
			c3.3-0.5,3.8-1,5.3-3.1c1.8-2.4,0.3-14.1,2.3-16.5c4.7-5.8,10.9,0.5,12.5,4c0,0,6.4-28.1-7.9-58.9C279.2,25,279.1,24.9,279.1,24.8
			z"/>
	</g>
	<g>
		<path class="st17" d="M167.1,400.4C167.1,400.4,167.1,400.4,167.1,400.4c-0.8,0-1.4-0.7-1.4-1.4c0.6-58,4.8-115.8,12.4-171.8
			c0.1-0.8,0.8-1.4,1.6-1.2c0.8,0.1,1.3,0.8,1.2,1.6c-7.6,55.9-11.7,113.6-12.3,171.5C168.5,399.8,167.9,400.4,167.1,400.4z"/>
	</g>
	<g>
		<path class="st20" d="M347.9,398.8c-0.7,0-1.3-0.5-1.4-1.3c-2-17.7-3.7-35.7-5.5-53.2c-1.3-12.8-2.5-25.7-3.9-38.5
			c-0.1-0.8,0.5-1.5,1.3-1.6c0.8-0.1,1.5,0.5,1.6,1.3c1.4,12.8,2.6,25.7,3.9,38.5c1.7,17.4,3.5,35.4,5.5,53.1
			c0.1,0.8-0.5,1.5-1.3,1.6C348.1,398.8,348,398.8,347.9,398.8z"/>
	</g>
	<g>
		<path class="st16" d="M349.5,393.6c11.9,0.7,16.6-12,19.3-21.3c16.2-56.3,7.8-117.1-0.6-134.3c-0.3-4-23.1-27.4-37.6,4.1
			c-6.5,15.9-10.8,110.3-8.7,137.7C322,379.8,324.1,393.9,349.5,393.6z"/>
	</g>
	<g>
		<path class="st15" d="M387,325.8c-31.4,13.5-79.1-3.6-79.1-3.6l0.4-64.3c4.2-52.7,45.7-60.5,45.7-60.5s26.1,11.7,28.6,31.9
			C382.6,229.4,392.7,260.2,387,325.8z"/>
	</g>
	<g>
		<path class="st17" d="M308.9,299.6c-0.8,0-1.4-0.6-1.4-1.4c-1.1-21.6-1.3-31.7-0.2-53.1c0-0.8,1.2-18.3,16.2-31
			c0.6-0.5,1.5-0.4,2,0.2c0.5,0.6,0.4,1.5-0.2,2c-14.1,11.8-15.2,28.7-15.2,28.9c-1,21.2-0.8,31.3,0.2,52.8
			C310.4,298.9,309.8,299.5,308.9,299.6C308.9,299.6,308.9,299.6,308.9,299.6z"/>
	</g>
	<g>
		<g>
			<path class="st16" d="M344.8,386.8c20.4-24-7-54.6-7-54.6c-62.7-20-134.8-99.7-144.9-109.2l-10.6,8
				c19.4,52.7,92.3,135.5,140,157.3C322.4,388.3,338.2,394.4,344.8,386.8z"/>
		</g>
		<g>
			<g>
				<path class="st16" d="M183.4,231.7c0,0,11.3-2.2,14.2-12.5l0.7-12c0.9-14,0.4-16.1,0.4-16.1c-0.7-5.2-7.6-8.8-7.6-8.8l-7.1-3.4
					c-5.8-2.6-5.8-1.4-5.8-1.4c-3.7,1.8-2.3,3.7-2.3,3.7c-2.1-1.4-3.2,0.2-3.2,0.2c-2.5,1.8-1.8,4.1-1.8,4.1c-1.4-0.7-3,0.9-3,0.9
					c-3.5,3.9-0.5,6-0.5,6c-3-2.5-4.6,1.6-4.6,1.6c-1.4,3.5,0.8,4.8,0.8,4.8l7,8.1c0,3.7,1,10.9,1,10.9
					C173,227.9,183.4,231.7,183.4,231.7"/>
			</g>
			<g>
				<path class="st20" d="M174.1,197.3c-0.1,0-0.3,0-0.4-0.1l-7.6-5.1c-0.3-0.2-0.4-0.6-0.2-1c0.2-0.3,0.6-0.4,1-0.2l7.6,5.1
					c0.3,0.2,0.4,0.6,0.2,1C174.5,197.2,174.3,197.3,174.1,197.3z"/>
			</g>
			<g>
				<path class="st20" d="M178.5,191.5c-0.1,0-0.3,0-0.4-0.1l-7.6-5.1c-0.3-0.2-0.4-0.6-0.2-1c0.2-0.3,0.6-0.4,1-0.2l7.6,5.1
					c0.3,0.2,0.4,0.6,0.2,1C178.9,191.4,178.7,191.5,178.5,191.5z"/>
			</g>
			<g>
				<path class="st20" d="M182.8,186.4c-0.1,0-0.3,0-0.4-0.1l-7.6-5.1c-0.3-0.2-0.4-0.6-0.2-1c0.2-0.3,0.6-0.4,1-0.2l7.6,5.1
					c0.3,0.2,0.4,0.6,0.2,1C183.3,186.3,183.1,186.4,182.8,186.4z"/>
			</g>
		</g>
		<g>
			<path class="st15" d="M184.9,269.5c0,0-4.3-12.8-1.2-23.9l-4.5-15.6c0,0,11.6-1.1,18.1-9l8.4,11.6c0,0,11.9-3.4,20.1,7.4
				c0,0,58.9,58,116.9,77.9c28.8,9.9,25-4,44.7,6.7c0,0-5.7,67.5-29.5,71.3c0,0-27.6,14.2-50.4,1
				C307.4,396.8,219.1,363.6,184.9,269.5z"/>
		</g>
	</g>
	<g>
		<path class="st17" d="M349.2,322.9C349.2,322.9,349.2,322.9,349.2,322.9c-4.4-0.1-9.1-1.6-13.2-3.1c-18.1-6.7-36.5-19.5-52.8-30.7
			c-2.3-1.6-4.6-3.2-6.8-4.7c-10.8-7.4-20.5-16.4-29.9-25.1c-8.8-8.1-17.9-16.5-27.8-23.6c-0.6-0.5-0.8-1.3-0.3-2
			c0.5-0.6,1.4-0.8,2-0.3c10.1,7.1,19.2,15.6,28.1,23.8c9.3,8.6,19,17.5,29.6,24.8c2.2,1.5,4.5,3.1,6.8,4.7
			c16.1,11.2,34.4,23.9,52.2,30.4c3.8,1.4,8.2,2.8,12.2,2.9c0.8,0,1.4,0.7,1.4,1.5C350.6,322.3,350,322.9,349.2,322.9z"/>
	</g>
	<g>
		<path class="st24" d="M242.8,63.5c0,0-0.8,9.2,2.5,8.1C245.3,71.5,248.6,70.3,242.8,63.5z"/>
	</g>
	<g>
		<path class="st24" d="M252.3,68.5c0,0-1.1,12.6,3.5,11C255.7,79.5,260.3,77.8,252.3,68.5z"/>
	</g>
</g>
<g id="Mask">
</g>
<g id="Clip-60">
</g>
<g>
	<g id="Group-56">
		<g id="Clip-55">
		</g>
		<defs>
			<filter id="Adobe_OpacityMaskFilter_3_" filterUnits="userSpaceOnUse" x="421.2" y="6" width="45.7" height="147.9">
				<feColorMatrix  type="matrix" values="1 0 0 0 0  0 1 0 0 0  0 0 1 0 0  0 0 0 1 0"/>
			</filter>
		</defs>
		<mask maskUnits="userSpaceOnUse" x="421.2" y="6" width="45.7" height="147.9" id="mask-8_2_">
			<g class="st25">
				<polygon id="path-7_2_" class="st3" points="421.2,6 466.8,6 466.8,153.9 421.2,153.9 				"/>
			</g>
		</mask>
		<path id="Fill-54" class="st26" d="M452.8,109.5V14.9c0-4.9-3.9-8.9-8.8-8.9c-4.8,0-8.8,4-8.8,8.9v94.6
			c-8.3,3.5-14.1,11.7-14.1,21.3c0,12.8,10.2,23.1,22.8,23.1c12.6,0,22.8-10.3,22.8-23.1C466.8,121.2,461,113,452.8,109.5"/>
	</g>
	<path id="Fill-57" class="st27" d="M430.2,130.8c0,8,6.5,14.5,14.5,14.5c8,0,14.5-6.5,14.5-14.5c0-8-6.5-14.5-14.5-14.5
		C436.6,116.2,430.2,122.7,430.2,130.8"/>
	<defs>
		<filter id="Adobe_OpacityMaskFilter_4_" filterUnits="userSpaceOnUse" x="440.2" y="44.2" width="8" height="83">
			<feColorMatrix  type="matrix" values="1 0 0 0 0  0 1 0 0 0  0 0 1 0 0  0 0 0 1 0"/>
		</filter>
	</defs>
	<mask maskUnits="userSpaceOnUse" x="440.2" y="44.2" width="8" height="83" id="mask-10_8_">
		<g class="st28">
			<polygon id="path-9_8_" class="st3" points="421.2,448.2 770.2,448.2 770.2,6.2 421.2,6.2 			"/>
		</g>
	</mask>
	<polygon id="Fill-59" class="st29" points="440.2,127.2 448.2,127.2 448.2,44.2 440.2,44.2 	"/>
</g>
</svg>
