<?xml version="1.0" encoding="UTF-8"?>
<svg width="286px" height="283px" viewBox="0 0 286 283" version="1.1" xmlns="http://www.w3.org/2000/svg" xmlns:xlink="http://www.w3.org/1999/xlink">
    <!-- Generator: Sketch 61.1 (89650) - https://sketch.com -->
    <title>Group 15</title>
    <desc>Created with Sketch.</desc>
    <defs>
        <polygon id="path-1" points="6.38649367e-05 0.227360261 285.935182 0.227360261 285.935182 219.932864 6.38649367e-05 219.932864"></polygon>
        <path d="M158.775862,296 C109.775862,299 77.7758621,298 27.7758621,271 C-5.55747126,253 -8.22413793,218.666667 19.7758621,168 L45.7758621,20 C107.775862,6.66666667 140.775862,2.27373675e-13 144.775862,2.27373675e-13 C148.775862,2.27373675e-13 164.775862,6.66666667 192.775862,20 C208.775862,36 216.775862,45 216.775862,47 C216.775862,49 221.109195,57.6666667 229.775862,73 L229.775862,114 L234.775862,222 C224.775862,248 218.775862,262 216.775862,264 C214.775862,266 207.442529,272.333333 194.775862,283 C203.442529,289.666667 191.442529,294 158.775862,296 Z" id="path-3"></path>
        <polygon id="path-5" points="0.598194643 0.2051403 71.6581188 0.2051403 71.6581188 48.9292926 0.598194643 48.9292926"></polygon>
        <polygon id="path-7" points="0.430797857 0.100342839 120.437376 0.100342839 120.437376 145.491333 0.430797857 145.491333"></polygon>
        <polygon id="path-9" points="0.430797857 0.100342839 120.437376 0.100342839 118.457143 155.528786 0.457142857 152.528786"></polygon>
        <path d="M27.2459608,0.62375 C22.8366667,1.1025 18.3896863,3.58 14.031451,7.995 L14.031451,7.995 C9.6634902,12.4175 7.11176471,13.08 2.16635294,11.07875 L2.16635294,11.07875 C1.612,10.8475 0.98227451,11.1325 0.76345098,11.70625 L0.76345098,11.70625 C0.545843137,12.27625 0.819372549,12.92125 1.37372549,13.145 L1.37372549,13.145 C3.42094118,13.975 5.15815686,14.36125 6.71788235,14.36125 L6.71788235,14.36125 C10.0585882,14.36125 12.5799216,12.585 15.5486275,9.58125 L15.5486275,9.58125 C19.5482353,5.52875 23.5612157,3.26 27.4732941,2.83375 L27.4732941,2.83375 C30.1003922,2.55 32.7287059,4.035 35.2634118,5.47375 L35.2634118,5.47375 C36.2906667,6.05875 37.3106275,6.63375 38.3257255,7.105 L38.3257255,7.105 C46.0526275,10.67875 53.8573333,6.90125 60.5667059,3.07875 L60.5667059,3.07875 C61.089451,2.7825 61.279098,2.105 60.988549,1.5675 L60.988549,1.5675 C60.7004314,1.03 60.0415294,0.8425 59.5187843,1.135 L59.5187843,1.135 C52.9783922,4.8575 46.0210196,8.22875 39.2119608,5.0775 L39.2119608,5.0775 C38.2491373,4.6325 37.2826667,4.0825 36.3076863,3.53 L36.3076863,3.53 C33.7535294,2.07875 31.1142745,0.57125 28.1881176,0.57125 L28.1881176,0.57125 C27.8781176,0.57125 27.5632549,0.5875 27.2459608,0.62375" id="path-11"></path>
        <radialGradient cx="49.9999115%" cy="49.9984055%" fx="49.9999115%" fy="49.9984055%" r="157.715922%" gradientTransform="translate(0.499999,0.499984),scale(0.228175,1.000000),scale(1.000000,1.168770),translate(-0.499999,-0.499984)" id="radialGradient-13">
            <stop stop-color="#EB4849" offset="0%"></stop>
            <stop stop-color="#E41717" offset="100%"></stop>
        </radialGradient>
        <path d="M1.43197917,0.984 C0.9403125,1.3236 0.824770833,1.9908 1.17508333,2.472 L1.17508333,2.472 C4.44466667,6.9636 12.5166042,8.8884 17.5488125,7.5972 L17.5488125,7.5972 C19.2880833,7.1508 20.8442083,6.3936 22.3487083,5.6604 L22.3487083,5.6604 C24.492375,4.6164 26.5180417,3.63 28.8682083,3.63 L28.8682083,3.63 L28.8805,3.63 C31.4740417,3.6348 33.342375,4.9332 35.5057083,6.4356 L35.5057083,6.4356 C36.5025625,7.128 37.5338333,7.8456 38.7015417,8.4792 L38.7015417,8.4792 C41.8051875,10.1604 44.5290208,10.8324 47.1913958,10.8324 L47.1913958,10.8324 C50.6478125,10.8324 54.0009792,9.6996 57.9576667,8.1804 L57.9576667,8.1804 C58.5181667,7.9656 58.7947292,7.3476 58.5747083,6.7992 L58.5747083,6.7992 C58.3522292,6.2496 57.7155208,5.9736 57.15625,6.1956 L57.15625,6.1956 C50.5433333,8.7348 46.0765417,10.0308 39.7635417,6.6108 L39.7635417,6.6108 C38.7015417,6.0348 37.723125,5.3556 36.7754375,4.6968 L36.7754375,4.6968 C34.5125417,3.126 32.1746667,1.5012 28.8854167,1.4964 L28.8854167,1.4964 L28.8682083,1.4964 C26.0017917,1.4964 23.6491667,2.6424 21.37275,3.7524 L21.37275,3.7524 C19.9038958,4.4664 18.5137083,5.1444 16.9932292,5.5332 L16.9932292,5.5332 C12.8300417,6.5964 5.63941667,4.92 2.957375,1.2336 L2.957375,1.2336 C2.7435,0.942 2.40670833,0.786 2.065,0.786 L2.065,0.786 C1.84620833,0.786 1.62495833,0.8508 1.43197917,0.984" id="path-14"></path>
        <radialGradient cx="49.9992522%" cy="49.9971249%" fx="49.9992522%" fy="49.9971249%" r="205.331236%" gradientTransform="translate(0.499993,0.499971),scale(0.174181,1.000000),scale(1.000000,1.168771),translate(-0.499993,-0.499971)" id="radialGradient-16">
            <stop stop-color="#EB4849" offset="0%"></stop>
            <stop stop-color="#E41717" offset="100%"></stop>
        </radialGradient>
        <path d="M1.17455556,0.193375 C0.66,0.504525 0.501111111,1.185625 0.807888889,1.702575 L0.807888889,1.702575 C2.78911111,5.0162 5.78355556,10.03135 10.1688889,12.19225 L10.1688889,12.19225 C14.5847778,14.364175 19.7498889,13.977075 24.3051111,13.636525 L24.3051111,13.636525 C25.1618889,13.570375 26.004,13.509125 26.8265556,13.462575 L26.8265556,13.462575 C31.9476667,13.18205 35.6424444,13.234725 40.2318889,16.446675 L40.2318889,16.446675 C44.3727778,19.34625 48.9133333,20.79665 53.295,20.79665 L53.295,20.79665 C57.6546667,20.79665 61.8566667,19.3585 65.3436667,16.483425 L65.3436667,16.483425 C65.8068889,16.103675 65.8728889,15.41645 65.4927778,14.952175 L65.4927778,14.952175 C65.1126667,14.4879 64.427,14.41685 63.9637778,14.802725 L63.9637778,14.802725 C57.7451111,19.923225 48.9194444,19.874225 41.4761111,14.660625 L41.4761111,14.660625 C36.3232222,11.051775 32.1041111,10.9844 26.7055556,11.2882 L26.7055556,11.2882 C25.8695556,11.33475 25.014,11.39845 24.1425556,11.4646 L24.1425556,11.4646 C19.6545556,11.799025 15.0125556,12.14815 11.1271111,10.235925 L11.1271111,10.235925 C7.31988889,8.36045 4.52344444,3.679725 2.673,0.5817 L2.673,0.5817 L2.65833333,0.5572 C2.45544444,0.217875 2.10466667,0.034125 1.74166667,0.034125 L1.74166667,0.034125 C1.54977778,0.034125 1.353,0.085575 1.17455556,0.193375" id="path-17"></path>
        <radialGradient cx="50.0001582%" cy="50.0028639%" fx="50.0001582%" fy="50.0028639%" r="114.871428%" gradientTransform="translate(0.500002,0.500029),scale(0.318994,1.000000),scale(1.000000,1.168770),translate(-0.500002,-0.500029)" id="radialGradient-19">
            <stop stop-color="#EB4849" offset="0%"></stop>
            <stop stop-color="#E41717" offset="100%"></stop>
        </radialGradient>
        <path d="M0.865333333,2.42125 C0.865333333,3.22375 1.55733333,3.87375 2.41333333,3.87375 L2.41333333,3.87375 C3.26933333,3.87375 3.96133333,3.22375 3.96133333,2.42125 L3.96133333,2.42125 C3.96133333,1.62 3.26933333,0.97 2.41333333,0.97 L2.41333333,0.97 C1.55733333,0.97 0.865333333,1.62 0.865333333,2.42125" id="path-20"></path>
        <radialGradient cx="49.9913523%" cy="49.9980284%" fx="49.9913523%" fy="49.9980284%" r="53.3230019%" gradientTransform="translate(0.499914,0.499980),scale(0.937904,1.000000),translate(-0.499914,-0.499980)" id="radialGradient-22">
            <stop stop-color="#EB4849" offset="0%"></stop>
            <stop stop-color="#E41717" offset="100%"></stop>
        </radialGradient>
        <path d="M0.86,2.272 C0.86,3.12666667 1.51,3.82 2.31125,3.82 L2.31125,3.82 C3.11375,3.82 3.76375,3.12666667 3.76375,2.272 L3.76375,2.272 C3.76375,1.416 3.11375,0.724 2.31125,0.724 L2.31125,0.724 C1.51,0.724 0.86,1.416 0.86,2.272" id="path-23"></path>
        <radialGradient cx="49.9869737%" cy="49.9695435%" fx="49.9869737%" fy="49.9695435%" r="49.9913431%" gradientTransform="translate(0.499870,0.499695),scale(1.000000,0.937904),translate(-0.499870,-0.499695)" id="radialGradient-25">
            <stop stop-color="#EB4849" offset="0%"></stop>
            <stop stop-color="#E41717" offset="100%"></stop>
        </radialGradient>
        <path d="M0.6984,2.4875 C0.6984,3.80125 1.7184,4.86375 2.9772,4.86375 L2.9772,4.86375 C4.2372,4.86375 5.2572,3.80125 5.2572,2.4875 L5.2572,2.4875 C5.2572,1.1775 4.2372,0.11375 2.9772,0.11375 L2.9772,0.11375 C1.7184,0.11375 0.6984,1.1775 0.6984,2.4875" id="path-26"></path>
        <radialGradient cx="49.9945433%" cy="49.9999289%" fx="49.9945433%" fy="49.9999289%" r="50.0013161%" gradientTransform="translate(0.499945,0.499999),scale(1.000000,0.959747),translate(-0.499945,-0.499999)" id="radialGradient-28">
            <stop stop-color="#EB4849" offset="0%"></stop>
            <stop stop-color="#E41717" offset="100%"></stop>
        </radialGradient>
        <path d="M0.1515,3.4825 C0.1515,4.88133333 1.28433333,6.0165 2.68433333,6.0165 L2.68433333,6.0165 C4.08316667,6.0165 5.21716667,4.88133333 5.21716667,3.4825 L5.21716667,3.4825 C5.21716667,2.0825 4.08316667,0.949666667 2.68433333,0.949666667 L2.68433333,0.949666667 C1.28433333,0.949666667 0.1515,2.0825 0.1515,3.4825" id="path-29"></path>
        <radialGradient cx="49.9918517%" cy="49.988501%" fx="49.9918517%" fy="49.988501%" r="50.0040304%" gradientTransform="translate(0.499919,0.499885),scale(1.000000,0.999770),translate(-0.499919,-0.499885)" id="radialGradient-31">
            <stop stop-color="#EB4849" offset="0%"></stop>
            <stop stop-color="#E41717" offset="100%"></stop>
        </radialGradient>
        <path d="M0.9625,3.23866667 C0.9625,4.865 2.282,6.18566667 3.90833333,6.18566667 L3.90833333,6.18566667 C5.53583333,6.18566667 6.85533333,4.865 6.85533333,3.23866667 L6.85533333,3.23866667 C6.85533333,1.61116667 5.53583333,0.294 3.90833333,0.294 L3.90833333,0.294 C2.282,0.294 0.9625,1.61116667 0.9625,3.23866667" id="path-32"></path>
        <radialGradient cx="50.0029103%" cy="49.9832396%" fx="50.0029103%" fy="49.9832396%" r="50.0029723%" gradientTransform="translate(0.500029,0.499832),scale(0.999802,1.000000),translate(-0.500029,-0.499832)" id="radialGradient-34">
            <stop stop-color="#EB4849" offset="0%"></stop>
            <stop stop-color="#E41717" offset="100%"></stop>
        </radialGradient>
        <path d="M0.9564,2.4348 C0.9564,3.7512 2.0232,4.818 3.3396,4.818 L3.3396,4.818 C4.656,4.818 5.724,3.7512 5.724,2.4348 L5.724,2.4348 C5.724,1.1172 4.656,0.0492 3.3396,0.0492 L3.3396,0.0492 C2.0232,0.0492 0.9564,1.1172 0.9564,2.4348" id="path-35"></path>
        <radialGradient cx="49.9811981%" cy="50.0088274%" fx="49.9811981%" fy="50.0088274%" r="50.0138409%" gradientTransform="translate(0.499812,0.500088),scale(1.000000,0.999748),translate(-0.499812,-0.500088)" id="radialGradient-37">
            <stop stop-color="#EB4849" offset="0%"></stop>
            <stop stop-color="#E41717" offset="100%"></stop>
        </radialGradient>
        <path d="M0.684,2.5044 C0.684,3.8016 1.7352,4.854 3.0348,4.854 L3.0348,4.854 C4.3332,4.854 5.3844,3.8016 5.3844,2.5044 L5.3844,2.5044 C5.3844,1.206 4.3332,0.1524 3.0348,0.1524 L3.0348,0.1524 C1.7352,0.1524 0.684,1.206 0.684,2.5044" id="path-38"></path>
        <radialGradient cx="50.0102144%" cy="50.0128152%" fx="50.0102144%" fy="50.0128152%" r="50.0102119%" gradientTransform="translate(0.500102,0.500128),scale(1.000000,0.999745),translate(-0.500102,-0.500128)" id="radialGradient-40">
            <stop stop-color="#EB4849" offset="0%"></stop>
            <stop stop-color="#E41717" offset="100%"></stop>
        </radialGradient>
        <path d="M0.213333333,0.958 C0.213333333,1.462 0.758666667,1.87 1.43066667,1.87 L1.43066667,1.87 C2.10266667,1.87 2.64666667,1.462 2.64666667,0.958 L2.64666667,0.958 C2.64666667,0.454 2.10266667,0.045 1.43066667,0.045 L1.43066667,0.045 C0.758666667,0.045 0.213333333,0.454 0.213333333,0.958" id="path-41"></path>
        <radialGradient cx="50.0001151%" cy="50.0002356%" fx="50.0001151%" fy="50.0002356%" r="66.6738922%" gradientTransform="translate(0.500001,0.500002),scale(0.750000,1.000000),translate(-0.500001,-0.500002)" id="radialGradient-43">
            <stop stop-color="#EB4849" offset="0%"></stop>
            <stop stop-color="#E41717" offset="100%"></stop>
        </radialGradient>
        <path d="M0.574666667,0.991 C0.574666667,1.495 1.11866667,1.903 1.79066667,1.903 L1.79066667,1.903 C2.46266667,1.903 3.008,1.495 3.008,0.991 L3.008,0.991 C3.008,0.486 2.46266667,0.077 1.79066667,0.077 L1.79066667,0.077 C1.11866667,0.077 0.574666667,0.486 0.574666667,0.991" id="path-44"></path>
        <radialGradient cx="49.9894521%" cy="50.0111665%" fx="49.9894521%" fy="50.0111665%" r="66.6411902%" gradientTransform="translate(0.499895,0.500112),scale(0.750411,1.000000),translate(-0.499895,-0.500112)" id="radialGradient-46">
            <stop stop-color="#EB4849" offset="0%"></stop>
            <stop stop-color="#E41717" offset="100%"></stop>
        </radialGradient>
        <path d="M0.8304,2.5175 C0.8304,3.89766667 1.9836,5.01883333 3.4044,5.01883333 L3.4044,5.01883333 C4.824,5.01883333 5.9784,3.89766667 5.9784,2.5175 L5.9784,2.5175 C5.9784,1.13616667 4.824,0.015 3.4044,0.015 L3.4044,0.015 C1.9836,0.015 0.8304,1.13616667 0.8304,2.5175" id="path-47"></path>
        <radialGradient cx="49.9965734%" cy="50.0013266%" fx="49.9965734%" fy="50.0013266%" r="51.4273699%" gradientTransform="translate(0.499966,0.500013),scale(0.971996,1.000000),translate(-0.499966,-0.500013)" id="radialGradient-49">
            <stop stop-color="#EB4849" offset="0%"></stop>
            <stop stop-color="#E41717" offset="100%"></stop>
        </radialGradient>
        <path d="M0.9528,3.0096 C0.9528,4.1244 1.8552,5.028 2.97,5.028 L2.97,5.028 C4.0824,5.028 4.9872,4.1244 4.9872,3.0096 L4.9872,3.0096 C4.9872,1.896 4.0824,0.9936 2.97,0.9936 L2.97,0.9936 C1.8552,0.9936 0.9528,1.896 0.9528,3.0096" id="path-50"></path>
        <radialGradient cx="49.9865645%" cy="49.9910024%" fx="49.9865645%" fy="49.9910024%" r="49.9918203%" id="radialGradient-52">
            <stop stop-color="#EB4849" offset="0%"></stop>
            <stop stop-color="#E41717" offset="100%"></stop>
        </radialGradient>
        <path d="M0.641333333,1.716 C0.641333333,2.52666667 1.29733333,3.18133333 2.10533333,3.18133333 L2.10533333,3.18133333 C2.916,3.18133333 3.57066667,2.52666667 3.57066667,1.716 L3.57066667,1.716 C3.57066667,0.908 2.916,0.253333333 2.10533333,0.253333333 L2.10533333,0.253333333 C1.29733333,0.253333333 0.641333333,0.908 0.641333333,1.716" id="path-53"></path>
        <radialGradient cx="50.0138143%" cy="49.9931421%" fx="50.0138143%" fy="49.9931421%" r="50.0193534%" gradientTransform="translate(0.500138,0.499931),scale(0.999545,1.000000),translate(-0.500138,-0.499931)" id="radialGradient-55">
            <stop stop-color="#EB4849" offset="0%"></stop>
            <stop stop-color="#E41717" offset="100%"></stop>
        </radialGradient>
        <path d="M0.02875,2.30375 C0.02875,3.37625 0.89875,4.2475 1.97125,4.2475 L1.97125,4.2475 C3.04625,4.2475 3.915,3.37625 3.915,2.30375 L3.915,2.30375 C3.915,1.23 3.04625,0.35875 1.97125,0.35875 L1.97125,0.35875 C0.89875,0.35875 0.02875,1.23 0.02875,2.30375" id="path-56"></path>
        <radialGradient cx="49.9968897%" cy="50.0048666%" fx="49.9968897%" fy="50.0048666%" r="50.0120618%" gradientTransform="translate(0.499969,0.500049),scale(1.000000,0.999357),translate(-0.499969,-0.500049)" id="radialGradient-58">
            <stop stop-color="#EB4849" offset="0%"></stop>
            <stop stop-color="#E41717" offset="100%"></stop>
        </radialGradient>
        <path d="M0.605333333,1.496 C0.605333333,2.26 1.224,2.87733333 1.98666667,2.87733333 L1.98666667,2.87733333 C2.75066667,2.87733333 3.36933333,2.26 3.36933333,1.496 L3.36933333,1.496 C3.36933333,0.733333333 2.75066667,0.116 1.98666667,0.116 L1.98666667,0.116 C1.224,0.116 0.605333333,0.733333333 0.605333333,1.496" id="path-59"></path>
        <radialGradient cx="49.9904969%" cy="49.9976726%" fx="49.9904969%" fy="49.9976726%" r="50.0181072%" gradientTransform="translate(0.499905,0.499977),scale(0.999035,1.000000),translate(-0.499905,-0.499977)" id="radialGradient-61">
            <stop stop-color="#EB4849" offset="0%"></stop>
            <stop stop-color="#E41717" offset="100%"></stop>
        </radialGradient>
        <path d="M0.0048,2.97 C0.0048,4.3176 1.098,5.4096 2.4468,5.4096 L2.4468,5.4096 C3.7932,5.4096 4.8864,4.3176 4.8864,2.97 L4.8864,2.97 C4.8864,1.6224 3.7932,0.5304 2.4468,0.5304 L2.4468,0.5304 C1.098,0.5304 0.0048,1.6224 0.0048,2.97" id="path-62"></path>
        <radialGradient cx="49.9987365%" cy="50.0061535%" fx="49.9987365%" fy="50.0061535%" r="50.008608%" gradientTransform="translate(0.499987,0.500062),scale(0.999508,1.000000),translate(-0.499987,-0.500062)" id="radialGradient-64">
            <stop stop-color="#EB4849" offset="0%"></stop>
            <stop stop-color="#E41717" offset="100%"></stop>
        </radialGradient>
        <path d="M0.71125,1.75733333 C0.71125,2.696 1.425,3.45733333 2.30625,3.45733333 L2.30625,3.45733333 C3.1875,3.45733333 3.90125,2.696 3.90125,1.75733333 L3.90125,1.75733333 C3.90125,0.817333333 3.1875,0.0546666667 2.30625,0.0546666667 L2.30625,0.0546666667 C1.425,0.0546666667 0.71125,0.817333333 0.71125,1.75733333" id="path-65"></path>
        <radialGradient cx="50.000047%" cy="50.0138049%" fx="50.000047%" fy="50.0138049%" r="50.0009757%" gradientTransform="translate(0.500000,0.500138),scale(1.000000,0.937500),translate(-0.500000,-0.500138)" id="radialGradient-67">
            <stop stop-color="#EB4849" offset="0%"></stop>
            <stop stop-color="#E41717" offset="100%"></stop>
        </radialGradient>
        <path d="M0.641333333,1.73466667 C0.641333333,2.64666667 1.38133333,3.39066667 2.29733333,3.39066667 L2.29733333,3.39066667 C3.21066667,3.39066667 3.952,2.64666667 3.952,1.73466667 L3.952,1.73466667 C3.952,0.82 3.21066667,0.0786666667 2.29733333,0.0786666667 L2.29733333,0.0786666667 C1.38133333,0.0786666667 0.641333333,0.82 0.641333333,1.73466667" id="path-68"></path>
        <radialGradient cx="49.9921587%" cy="49.9838205%" fx="49.9921587%" fy="49.9838205%" r="49.9959323%" gradientTransform="translate(0.499922,0.499838),scale(1.000000,0.999597),translate(-0.499922,-0.499838)" id="radialGradient-70">
            <stop stop-color="#EB4849" offset="0%"></stop>
            <stop stop-color="#E41717" offset="100%"></stop>
        </radialGradient>
    </defs>
    <g id="Page-1" stroke="none" stroke-width="1" fill="none" fill-rule="evenodd">
        <g id="Home" transform="translate(-323.000000, -2459.000000)">
            <g id="Group-15" transform="translate(323.000000, 2444.000000)">
                <g id="Group-12-Copy-2" opacity="0.265601749" transform="translate(0.000000, 78.000000)">
                    <path d="M17.1767981,33.3827462 C17.5432078,26.3536059 18.5506675,19.0749535 22.4189926,13.1798987 C28.1393885,4.46223845 39.1380192,0.458432177 49.5987151,0.0436846966 C66.1442142,-0.612611716 82.0790306,6.215459 96.3903652,14.4974685 C110.701366,22.779478 124.148401,32.6829842 139.357406,39.1941879 C167.233573,51.1286296 198.586295,50.7527024 228.844793,53.1054819 C238.831959,53.882221 249.429475,55.2313116 257.150107,61.5776117 C263.585302,66.8671351 267.1009,75.020407 268.388673,83.222785 C271.781133,104.82582 260.697073,126.916266 243.996734,141.141109 C227.296395,155.366616 205.727947,162.732531 184.155827,166.977887 C160.158329,171.700367 135.106987,172.903799 111.353428,167.087712 C66.8146305,156.182507 34.8876002,121.245507 22.4433532,78.216617 C18.2426565,63.6928238 16.390252,48.481877 17.1767981,33.3827462" id="Fill-1" fill="#90CCFF"></path>
                    <g id="Group-5">
                        <mask id="mask-2" fill="white">
                            <use xlink:href="#path-1"></use>
                        </mask>
                        <g id="Clip-4"></g>
                        <path d="M157.229101,34.6254719 C179.93102,20.3744854 202.524351,3.29769414 229.208218,0.563861344 C237.969975,-0.333864831 247.099924,0.45256196 255.023728,4.28905842 C266.178062,9.69007767 273.793814,20.5597622 278.455013,32.0196 C288.732302,57.2878927 286.618041,85.7362154 282.724966,112.726649 C279.954508,131.933124 276.210113,151.463834 266.42898,168.237717 C253.202816,190.918799 229.740459,206.546033 204.499622,213.94311 C179.259454,221.340187 152.303954,221.117255 126.25891,217.418716 C100.717707,213.791156 75.3348724,206.743972 53.2166481,193.498679 C31.0984238,180.253386 12.3858047,160.395443 3.6471014,136.185494 C0.4433,127.310534 -1.38562991,117.51119 1.29060841,108.46395 C8.81915748,83.0150454 49.9249752,82.0973253 70.4247603,75.3583809 C100.869393,65.3507667 130.098193,51.6562771 157.229101,34.6254719" id="Fill-3" fill="#4DBCFF" mask="url(#mask-2)"></path>
                    </g>
                    <path d="M158.457016,194 C149.175388,194 139.102348,193.235513 128.518083,191.729269 C102.699376,188.053913 81.8715508,181.298211 64.8446456,171.077747 C53.8337463,164.468123 43.8369384,155.908004 36.2223927,145.525081 C30.5477607,137.787948 17.6444258,119.378409 27.7482265,110.998799 C30.7938442,108.473349 34.7589314,107.373918 38.641768,106.613108 C44.5868913,105.448827 50.5176374,104.397532 56.4286567,103.160714 C63.7442912,101.630402 70.6546904,100.183993 76.9806413,98.099787 C109.472022,87.3932866 140.560794,72.769415 169.38299,54.6333139 C172.833508,52.4618621 176.272659,50.2339179 179.597795,48.0795142 C197.180729,36.6880839 213.788356,25.9280994 230.564497,24.2055792 C231.894552,24.0688607 233.189834,24 234.415905,24 C237.826635,24 240.72915,24.5325004 242.810495,25.5410087 C252.597329,30.2827024 256.469801,45.7586415 258.036911,55.4833757 C263.063568,86.6702493 259.017568,135.146839 239.109546,161.11668 C220.325618,185.620055 187.996398,194 158.457016,194 Z" id="Stroke-6" stroke="#FFF0DE" stroke-width="1.33"></path>
                    <path d="M159.859018,170 C140.757329,169.965084 120.420826,166.469407 102.611026,161.07574 C93.565119,158.33603 84.6649192,154.761326 76.6799191,149.644085 C74.8166181,148.449938 55.1498959,131.38989 57.1414458,130.223991 C60.862676,128.045204 65.2167572,127.296299 69.4429252,126.446844 C99.8815414,120.331174 128.686496,107.990542 155.812801,93.0938116 C167.334715,86.7646012 178.436632,79.5741661 189.743344,72.870671 C194.567447,70.0102351 227.621735,46.632746 232.252121,50.4122474 C233.305978,51.2717906 233.666216,52.7043625 233.939164,54.0384031 C237.303849,70.4682546 235.992488,90.4375004 233.940843,107.075512 C231.939893,123.302248 226.444666,139.722011 214.909657,151.290197 C203.087936,163.146243 186.088252,168.658282 169.392404,169.714888 C166.261723,169.913296 163.077996,170.005774 159.859018,170 Z" id="Stroke-8" stroke="#FFF0DE" stroke-width="1.33"></path>
                    <path d="M159.622479,143.999338 C146.284089,143.975187 131.400204,141.980236 117,138.325802 C133.350393,132.303893 150.168333,124.608938 167.709947,115.144 C175.689183,110.836493 183.345069,106.231562 190.748525,101.778486 C194.763185,99.3643626 198.554658,97.0842288 202.405961,94.8401564 C203.754825,94.0540858 205.338303,93.0294813 208.507275,90.9683621 C209.011461,90.6408327 209.50926,90.3179351 210,90 C209.689422,94.3756601 209.223891,99.0371641 208.604415,103.974587 C207.476048,112.965103 204.507069,125.282523 196.769842,132.908003 C190.454753,139.131392 180.069209,142.987967 167.526424,143.769075 C165.068352,143.921922 162.483562,144 159.843984,144 L159.622479,143.999338 Z" id="Stroke-10" stroke="#FFF0DE" stroke-width="1.33"></path>
                </g>
                <g id="Group-109" transform="translate(25.224138, 0.000000)">
                    <mask id="mask-4" fill="white">
                        <use xlink:href="#path-3"></use>
                    </mask>
                    <g id="Mask"></g>
                    <g mask="url(#mask-4)">
                        <g transform="translate(32.775862, 15.000000)">
                            <g id="Group-48">
                                <path d="M114.760909,132.433327 C110.108488,131.592008 105.890895,131.114568 102.128895,130.882564 C97.8563379,130.620034 94.4913021,127.154628 94.4913021,122.873545 L94.4913021,104.409697 L66.7538807,104.409697 L66.7538807,122.878429 C66.7538807,127.092353 63.5036593,130.621255 59.2958379,130.872796 C55.9833236,131.07061 52.3141521,131.458911 48.3054236,132.120733 L47.8754807,169.762757 L115.210395,169.762757 L114.760909,132.433327 Z" id="Fill-1" fill="#FBA489"></path>
                                <path d="M66.7542471,117.984368 C71.0206971,120.14811 75.6865543,121.425352 80.6235686,121.425352 C85.5593614,121.425352 90.2252186,120.14811 94.4904471,117.985589 L94.4904471,95.9842918 L66.7542471,95.9842918 L66.7542471,117.984368 Z" id="Fill-3" fill="#F1856A"></path>
                                <path d="M57.0865179,73.6894485 C57.0865179,80.318655 52.0798821,85.6913772 45.9043393,85.6913772 C39.727575,85.6913772 34.7978893,74.9740176 34.7978893,68.3448111 C34.7978893,61.7168257 39.6555107,60.7021138 45.9043393,61.688741 C52.0041536,62.6509467 57.0865179,67.0614631 57.0865179,73.6894485" id="Fill-5" fill="#FBA489"></path>
                                <path d="M104.161596,73.6894485 C104.161596,80.318655 109.168232,85.6913772 115.343775,85.6913772 C121.520539,85.6913772 126.450225,74.9740176 126.450225,68.3448111 C126.450225,61.7168257 121.592604,60.7021138 115.343775,61.688741 C109.243961,62.6509467 104.161596,67.0614631 104.161596,73.6894485" id="Fill-7" fill="#FBA489"></path>
                                <path d="M115.679301,40.3186165 C111.404301,27.9247234 80.6243014,27.4973478 80.6243014,27.4973478 C80.6243014,27.4973478 49.84308,27.9247234 45.56808,40.3186165 C41.29308,52.7125097 41.72058,78.3550472 48.13308,90.7501614 C54.54558,103.144055 66.5168014,113.402291 80.6243014,113.402291 C94.7318014,113.402291 106.701801,103.144055 113.114301,90.7501614 C119.526801,78.3550472 119.954301,52.7125097 115.679301,40.3186165" id="Fill-9" fill="#FBA489"></path>
                                <path d="M55.073115,31.8927229 C57.1544293,31.694909 59.305365,31.6240868 61.2877436,32.2956771 C63.2689007,32.9660463 65.0668436,34.513146 65.5090007,36.5572226 C66.0879579,39.2289308 64.3095579,41.784637 62.6325364,43.9434945 C60.2189936,47.0511258 57.8030079,50.1587571 55.389465,53.2663885 C53.679465,55.4655413 51.9499221,57.7001053 50.8982721,60.2777909 C50.0102936,62.4549644 49.6365364,64.8043093 49.3824793,67.1426645 C49.0392579,70.3052441 48.9012364,73.4910241 48.9733007,76.6719199 C48.9818507,77.0064939 48.9867364,77.3606052 48.8255079,77.6548838 C48.6422936,77.9870157 48.2819721,78.175061 47.942415,78.3460113 C46.9054221,78.8661884 45.8672079,79.3851446 44.8277721,79.9041007 C43.4951936,74.0087592 41.9305436,55.4862996 41.2795221,53.3616322 C40.1497007,49.67277 39.3802007,45.8715691 38.9869007,42.033736 C38.9001793,41.1887533 38.8330007,40.3254545 39.0211007,39.4975669 C39.4595936,37.581703 41.1610436,36.229975 42.880815,35.2775379 C46.5976221,33.2212506 50.8433079,32.294456 55.073115,31.8927229" id="Fill-11" fill="#382040"></path>
                                <path d="M99.2067493,18.0328093 C98.980785,18.0901997 98.8122279,18.178117 98.7169564,18.3087718 C98.0928064,19.1610809 99.006435,21.9353593 99.1798779,22.8389534 C99.4046207,24.0111837 101.724114,31.7234822 100.034878,32.2961655 C98.0537207,32.9665347 96.2569993,34.5136345 95.8148421,36.557711 C95.235885,39.2281981 97.0130636,41.7839044 98.690085,43.9439829 C101.106071,47.0516142 103.519614,50.1592456 105.934378,53.2656558 C107.643156,55.4648087 109.372699,57.6993727 110.425571,60.2782793 C111.312328,62.4554529 111.687306,64.8047977 111.941364,67.1431529 C112.284585,70.3057326 112.421385,73.4915126 112.350542,76.6711872 C112.343214,77.0069824 112.337106,77.3610936 112.498335,77.6541512 C112.681549,77.9875042 113.040649,78.1755494 113.380206,78.3464997 C114.418421,78.8654558 115.457856,79.3844119 116.494849,79.9045891 C116.491185,79.903368 116.554699,79.6310687 116.551035,79.6481637 C118.050949,72.6269927 118.469899,65.343291 119.323678,58.2256552 C119.748735,54.6711111 119.626592,51.1580835 120.741756,47.7415206 C122.487178,42.3956621 123.921135,36.7787253 123.132092,31.1190509 C122.840171,29.0175839 122.225792,26.9210012 121.012914,25.1809719 C119.453149,22.9427447 117.002964,21.44693 114.424528,20.5567676 C111.844871,19.6678263 109.112535,19.329589 106.405849,18.9974571 C105.152664,18.8448229 100.786056,17.6396237 99.2067493,18.0328093" id="Fill-13" fill="#382040"></path>
                                <g id="Group-17" transform="translate(34.200000, 0.000000)">
                                    <mask id="mask-6" fill="white">
                                        <use xlink:href="#path-5"></use>
                                    </mask>
                                    <g id="Clip-16"></g>
                                    <path d="M68.6913107,13.4024996 C64.4932607,8.67694627 60.050925,3.7792216 54.1269964,1.5727423 C47.2589036,-0.986627159 39.6066536,0.507966458 32.4991607,2.29683872 C28.5417321,3.29445554 24.4951393,4.42394826 21.2400321,6.88807401 C17.7479679,9.53169752 15.4919893,13.4598901 12.5141464,16.6725337 C9.53508214,19.8839562 5.134275,22.5080426 0.927675,21.2784219 C0.552696429,24.6595736 0.359710714,28.1152108 1.12066071,31.4316457 C2.81233929,38.8105911 9.16621071,44.5105609 16.3127893,47.013761 C23.4605893,49.5194032 31.2984964,49.2458828 38.7711964,48.0162621 C46.1425179,46.8037364 53.570025,44.5850463 59.3913536,39.9046727 C64.4138679,35.8653625 67.9401321,30.2166778 70.4123036,24.2651669 C71.2868464,22.1588157 72.0502393,19.830229 71.4358607,17.6347394 C70.977825,16.0009434 69.8186893,14.6711947 68.6913107,13.4024996" id="Fill-15" fill="#382040" mask="url(#mask-6)"></path>
                                </g>
                                <path d="M80.6229579,81.2138238 C78.4292721,81.2138238 76.6423221,80.2565024 76.0255007,78.9609437 C75.8850364,79.2576645 75.7396864,79.5556064 75.7396864,79.882854 C75.7396864,81.6363151 77.9260436,83.0576444 80.6229579,83.0576444 C83.3198721,83.0576444 85.5050079,81.6363151 85.5050079,79.882854 C85.5050079,79.5556064 85.3608793,79.2576645 85.2191936,78.9609437 C84.6035936,80.2565024 82.8166436,81.2138238 80.6229579,81.2138238" id="Fill-18" fill="#E4776D"></path>
                                <path d="M63.2044093,81.0086835 C63.2044093,84.0784616 60.6931521,86.5657877 57.5956093,86.5657877 C54.4992879,86.5657877 51.9880307,84.0784616 51.9880307,81.0086835 C51.9880307,77.9401265 54.4992879,75.4528004 57.5956093,75.4528004 C60.6931521,75.4528004 63.2044093,77.9401265 63.2044093,81.0086835" id="Fill-20" fill="#F8918B"></path>
                                <path d="M109.256053,81.0086835 C109.256053,84.0784616 106.746017,86.5657877 103.648474,86.5657877 C100.552153,86.5657877 98.0408957,84.0784616 98.0408957,81.0086835 C98.0408957,77.9401265 100.552153,75.4528004 103.648474,75.4528004 C106.746017,75.4528004 109.256053,77.9401265 109.256053,81.0086835" id="Fill-22" fill="#F8918B"></path>
                                <g id="Group-26" transform="translate(19.542857, 130.471214)">
                                    <mask id="mask-8" fill="white">
                                        <use xlink:href="#path-7"></use>
                                    </mask>
                                    <g id="Clip-25"></g>
                                    <path d="M120.437376,10.1851865 C102.763305,2.64505942 93.5451836,0.782922767 82.7184407,0.100342839 C80.8252264,4.50231178 71.8745979,7.84194703 61.0796121,7.84194703 C50.2846264,7.84194703 41.3339979,4.50231178 39.4407836,0.100342839 C28.6140407,0.782922767 18.1048693,3.60482297 0.430797857,11.1461712 C0.430797857,11.1461712 19.3775979,76.9925443 20.5403979,98.6983418 C21.145005,110.003038 20.7883479,137.972941 20.2924479,145.49231 L101.867998,145.49231 C101.370876,137.972941 101.014219,110.003038 101.620048,98.6983418 C102.782848,76.9925443 120.437376,10.1851865 120.437376,10.1851865" id="Fill-24" fill="#6BDAED" mask="url(#mask-8)"></path>
                                </g>
                                <g id="Group-29" transform="translate(19.542857, 130.471214)">
                                    <mask id="mask-10" fill="white">
                                        <use xlink:href="#path-9"></use>
                                    </mask>
                                    <g id="Clip-28"></g>
                                    <path d="M82.7184407,0.100342839 C80.8252264,4.50231178 71.8745979,7.84194703 61.0796121,7.84194703 C50.2846264,7.84194703 41.3339979,4.50231178 39.4407836,0.100342839 C28.6140407,0.782922767 18.1048693,3.60482297 0.430797857,11.1461712 C0.430797857,11.1461712 19.3775979,76.9925443 20.5403979,98.6983418 C21.145005,110.003038 20.7883479,137.972941 20.2924479,145.49231 C74.7336588,157.862873 101.788557,161.541698 101.457143,156.528786 C100.960021,149.009417 101.014219,110.003038 101.620048,98.6983418 C102.782848,76.9925443 120.437376,10.1851865 120.437376,10.1851865 C102.763305,2.64505942 93.5451836,0.782922767 82.7184407,0.100342839 Z" id="Fill-27" fill="#0066CF" mask="url(#mask-10)"></path>
                                </g>
                                <path d="M57.739005,57.4922787 C57.4837264,57.3884874 57.2699764,57.1845682 57.1600479,56.9073846 C56.9475193,56.3688913 57.2101264,55.7620179 57.7487764,55.5483301 C57.8257264,55.5190243 65.5842407,52.5554796 71.1124264,59.7097476 C71.4654193,60.166429 71.3823621,60.8258085 70.9243264,61.1799198 C70.4662907,61.5352521 69.8079407,61.450998 69.4549479,60.9894323 C64.8745907,55.0647851 58.5793479,57.4690783 58.5207193,57.497163 C58.2581121,57.5997331 57.9796264,57.5899645 57.739005,57.4922787" id="Fill-30" fill="#382040"></path>
                                <path d="M104.090143,58.7873489 C103.842193,58.8606133 103.56615,58.8410761 103.3182,58.7140845 C103.072693,58.5870929 97.1939571,55.6858229 92.0786143,61.0719769 C91.6840929,61.4932472 91.0196357,61.5091211 90.5970214,61.1098302 C90.1780714,60.7117603 90.1621929,60.0487175 90.5603786,59.6286684 C96.7786714,53.084937 104.2074,56.8165367 104.278243,56.85439 C104.791243,57.1193629 104.991557,57.7482156 104.726507,58.2610664 C104.589707,58.5272603 104.356414,58.7104213 104.090143,58.7873489" id="Fill-32" fill="#382040"></path>
                                <path d="M33.3677186,275.890259 C31.5490114,259.966243 31.8421543,246.369593 30.18834,224.920221 C29.9306186,221.559828 30.6011829,187.03154 31.3963329,183.290172 C34.94214,166.588332 32.1487329,139.944515 27.2569114,139.481728 C21.0520543,138.895613 9.51688286,147.253859 7.30243286,163.71881 C4.64338286,183.50386 -0.99351,209.476087 0.15219,224.063028 C2.71596857,256.764589 4.44184714,275.890259 4.44184714,275.890259 L33.3677186,275.890259 Z" id="Fill-34" fill="#00ADFF"></path>
                                <path d="M152.442714,249.422643 C146.305035,249.368915 135.949764,241.898389 135.731128,240.793318 C135.255992,238.373151 135.006821,235.916352 134.912771,233.452226 C134.479164,221.974138 129.924456,186.263852 129.273435,183.192852 C125.629914,166.034332 130.718385,138.15723 133.526449,138.186513 C139.927956,138.256137 154.822056,146.035594 157.096356,162.949901 C159.467149,180.594409 168.542364,223.601828 170.093578,233.537701 C170.367178,235.28872 167.501706,232.857563 167.527356,234.629341 C167.561556,237.048287 167.501706,240.005726 167.373456,243.341698 C164.902506,249.360368 158.565735,249.475149 152.442714,249.422643" id="Fill-36" fill="#00ADFF"></path>
                                <path d="M77.3153293,115.468224 C77.4448007,115.451129 77.5864864,115.449908 77.739165,115.468224 C79.5664221,115.672144 79.7166579,125.181862 80.2394293,124.499282 C80.6266221,123.990094 78.525765,116.08853 80.4715007,110.259126 C80.877015,109.042937 82.1265364,106.8621 83.5580507,107.517817 C84.9016221,108.133238 84.9944507,109.597304 84.9614721,110.760987 C84.9236079,112.033345 84.2481579,116.658771 84.2506007,116.534221 C84.2591507,116.079982 84.4961079,122.169474 84.4961079,122.169474 C84.7941364,121.997303 84.7196293,119.910489 84.7257364,119.312163 C84.7355079,118.369494 84.7697079,117.469563 84.8466579,116.522011 C84.9968936,114.694064 85.1837721,112.894202 85.5050079,111.121204 C85.8213579,109.371406 86.2048864,107.506827 87.1001936,105.9292 C88.477965,103.498044 92.8763293,102.454026 92.3572221,105.931643 C91.9993436,108.339599 90.9305936,110.427634 90.3296507,114.449849 C90.2123936,115.241105 88.9885221,120.930085 89.1802864,120.866589 C89.3732721,120.803093 90.0523864,117.182611 90.2404864,116.343734 C90.6227936,114.644 91.6634507,110.919727 93.8119436,108.218713 C95.3118579,106.329712 98.3910793,108.167428 97.925715,110.115039 C97.5421864,111.71953 96.831315,113.254419 96.1522007,114.734359 C94.8929079,117.485437 94.6913721,120.479509 94.8147364,123.463812 C94.9490936,126.705761 95.848065,129.08197 98.5278793,130.613196 C101.395794,132.251876 101.901465,130.699892 102.050479,127.210064 C102.137201,125.169651 101.074558,122.138947 102.049258,120.109524 C103.285344,117.535501 106.793286,120.429445 107.010701,123.071847 C107.283079,126.378514 108.015936,128.939104 107.819286,131.301881 C107.388122,136.470684 106.087301,140.224263 106.099515,145.479762 C106.103179,147.200254 106.464722,148.511687 107.057115,149.804803 C107.113301,149.925689 107.539579,150.853705 108.222358,152.317772 C106.525794,156.333882 103.723836,160.106998 100.841265,163.467391 C98.8454507,158.274167 97.0511721,153.620657 95.5976721,150.2102 C94.9124507,149.859752 94.8245079,148.365158 94.2773079,147.748516 C92.6918936,145.952317 91.0234221,145.270958 88.8932507,144.287994 C84.6634436,142.335498 82.296315,139.166813 80.2663007,135.242284 C78.7981436,132.403289 78.0652864,130.282285 77.0185221,126.501842 C75.9290079,122.573649 74.7833079,115.796693 77.3153293,115.468224" id="Fill-38" fill="#FBA489"></path>
                                <path d="M141.152805,249.930609 C139.739612,248.564228 138.672084,246.869378 137.599669,245.191624 C124.905362,225.327205 95.0365479,163.082998 90.0250264,154.305923 C90.0250264,154.305923 106.384841,142.632463 112.731384,141.413832 C120.041634,154.236322 157.621326,210.019831 165.713291,221.937506 C167.235191,224.176954 168.086526,226.771734 168.979391,229.364073 C175.274634,247.624002 153.376862,261.756703 141.152805,249.930609" id="Fill-40" fill="#00ADFF"></path>
                                <path d="M73.7261614,100.222759 C73.7261614,100.222759 72.8210829,90.9914455 83.7870686,90.3381713 C94.54419,89.6983289 95.3405614,97.7342118 95.3405614,97.7342118 C95.3405614,97.7342118 90.31194,96.28724 85.1440757,96.4227791 C78.1575043,96.603498 77.5272471,97.6890321 73.7261614,100.222759" id="Fill-42" fill="#DB675C"></path>
                                <path d="M101.637636,64.174846 C101.637636,64.174846 94.993065,62.8157916 91.581615,68.4022015 C91.581615,68.4022015 99.8885507,67.7806753 104.080494,71.8163222 C104.080494,71.8163222 104.269815,70.2863175 102.844408,68.8674304 C100.826608,66.859986 96.1546436,66.6279821 96.1546436,66.6279821 C96.1546436,66.6279821 99.0653079,65.0271552 104.429822,66.7525316 C104.429822,66.7525316 104.025529,64.3482384 101.637636,64.174846" id="Fill-44" fill="#391829"></path>
                                <path d="M59.2037421,64.174846 C59.2037421,64.174846 65.8483136,62.8157916 69.2585421,68.4022015 C69.2585421,68.4022015 60.9516064,67.7806753 56.760885,71.8163222 C56.760885,71.8163222 56.5703421,70.2863175 57.9969707,68.8674304 C60.0147707,66.859986 64.686735,66.6279821 64.686735,66.6279821 C64.686735,66.6279821 61.7760707,65.0271552 56.4115564,66.7525316 C56.4115564,66.7525316 56.8158493,64.3482384 59.2037421,64.174846" id="Fill-46" fill="#391829"></path>
                            </g>
                            <g id="Group-51" transform="translate(114.000000, 83.000000)">
                                <mask id="mask-12" fill="white">
                                    <use xlink:href="#path-11"></use>
                                </mask>
                                <g id="Clip-50"></g>
                                <path d="M27.2459608,0.62375 C22.8366667,1.1025 18.3896863,3.58 14.031451,7.995 L14.031451,7.995 C9.6634902,12.4175 7.11176471,13.08 2.16635294,11.07875 L2.16635294,11.07875 C1.612,10.8475 0.98227451,11.1325 0.76345098,11.70625 L0.76345098,11.70625 C0.545843137,12.27625 0.819372549,12.92125 1.37372549,13.145 L1.37372549,13.145 C3.42094118,13.975 5.15815686,14.36125 6.71788235,14.36125 L6.71788235,14.36125 C10.0585882,14.36125 12.5799216,12.585 15.5486275,9.58125 L15.5486275,9.58125 C19.5482353,5.52875 23.5612157,3.26 27.4732941,2.83375 L27.4732941,2.83375 C30.1003922,2.55 32.7287059,4.035 35.2634118,5.47375 L35.2634118,5.47375 C36.2906667,6.05875 37.3106275,6.63375 38.3257255,7.105 L38.3257255,7.105 C46.0526275,10.67875 53.8573333,6.90125 60.5667059,3.07875 L60.5667059,3.07875 C61.089451,2.7825 61.279098,2.105 60.988549,1.5675 L60.988549,1.5675 C60.7004314,1.03 60.0415294,0.8425 59.5187843,1.135 L59.5187843,1.135 C52.9783922,4.8575 46.0210196,8.22875 39.2119608,5.0775 L39.2119608,5.0775 C38.2491373,4.6325 37.2826667,4.0825 36.3076863,3.53 L36.3076863,3.53 C33.7535294,2.07875 31.1142745,0.57125 28.1881176,0.57125 L28.1881176,0.57125 C27.8781176,0.57125 27.5632549,0.5875 27.2459608,0.62375" id="Fill-49" fill="url(#radialGradient-13)" mask="url(#mask-12)"></path>
                            </g>
                            <g id="Group-54" transform="translate(111.000000, 98.000000)">
                                <mask id="mask-15" fill="white">
                                    <use xlink:href="#path-14"></use>
                                </mask>
                                <g id="Clip-53"></g>
                                <path d="M1.43197917,0.984 C0.9403125,1.3236 0.824770833,1.9908 1.17508333,2.472 L1.17508333,2.472 C4.44466667,6.9636 12.5166042,8.8884 17.5488125,7.5972 L17.5488125,7.5972 C19.2880833,7.1508 20.8442083,6.3936 22.3487083,5.6604 L22.3487083,5.6604 C24.492375,4.6164 26.5180417,3.63 28.8682083,3.63 L28.8682083,3.63 L28.8805,3.63 C31.4740417,3.6348 33.342375,4.9332 35.5057083,6.4356 L35.5057083,6.4356 C36.5025625,7.128 37.5338333,7.8456 38.7015417,8.4792 L38.7015417,8.4792 C41.8051875,10.1604 44.5290208,10.8324 47.1913958,10.8324 L47.1913958,10.8324 C50.6478125,10.8324 54.0009792,9.6996 57.9576667,8.1804 L57.9576667,8.1804 C58.5181667,7.9656 58.7947292,7.3476 58.5747083,6.7992 L58.5747083,6.7992 C58.3522292,6.2496 57.7155208,5.9736 57.15625,6.1956 L57.15625,6.1956 C50.5433333,8.7348 46.0765417,10.0308 39.7635417,6.6108 L39.7635417,6.6108 C38.7015417,6.0348 37.723125,5.3556 36.7754375,4.6968 L36.7754375,4.6968 C34.5125417,3.126 32.1746667,1.5012 28.8854167,1.4964 L28.8854167,1.4964 L28.8682083,1.4964 C26.0017917,1.4964 23.6491667,2.6424 21.37275,3.7524 L21.37275,3.7524 C19.9038958,4.4664 18.5137083,5.1444 16.9932292,5.5332 L16.9932292,5.5332 C12.8300417,6.5964 5.63941667,4.92 2.957375,1.2336 L2.957375,1.2336 C2.7435,0.942 2.40670833,0.786 2.065,0.786 L2.065,0.786 C1.84620833,0.786 1.62495833,0.8508 1.43197917,0.984" id="Fill-52" fill="url(#radialGradient-16)" mask="url(#mask-15)"></path>
                            </g>
                            <g id="Group-57" transform="translate(110.000000, 106.000000)">
                                <mask id="mask-18" fill="white">
                                    <use xlink:href="#path-17"></use>
                                </mask>
                                <g id="Clip-56"></g>
                                <path d="M1.17455556,0.193375 C0.66,0.504525 0.501111111,1.185625 0.807888889,1.702575 L0.807888889,1.702575 C2.78911111,5.0162 5.78355556,10.03135 10.1688889,12.19225 L10.1688889,12.19225 C14.5847778,14.364175 19.7498889,13.977075 24.3051111,13.636525 L24.3051111,13.636525 C25.1618889,13.570375 26.004,13.509125 26.8265556,13.462575 L26.8265556,13.462575 C31.9476667,13.18205 35.6424444,13.234725 40.2318889,16.446675 L40.2318889,16.446675 C44.3727778,19.34625 48.9133333,20.79665 53.295,20.79665 L53.295,20.79665 C57.6546667,20.79665 61.8566667,19.3585 65.3436667,16.483425 L65.3436667,16.483425 C65.8068889,16.103675 65.8728889,15.41645 65.4927778,14.952175 L65.4927778,14.952175 C65.1126667,14.4879 64.427,14.41685 63.9637778,14.802725 L63.9637778,14.802725 C57.7451111,19.923225 48.9194444,19.874225 41.4761111,14.660625 L41.4761111,14.660625 C36.3232222,11.051775 32.1041111,10.9844 26.7055556,11.2882 L26.7055556,11.2882 C25.8695556,11.33475 25.014,11.39845 24.1425556,11.4646 L24.1425556,11.4646 C19.6545556,11.799025 15.0125556,12.14815 11.1271111,10.235925 L11.1271111,10.235925 C7.31988889,8.36045 4.52344444,3.679725 2.673,0.5817 L2.673,0.5817 L2.65833333,0.5572 C2.45544444,0.217875 2.10466667,0.034125 1.74166667,0.034125 L1.74166667,0.034125 C1.54977778,0.034125 1.353,0.085575 1.17455556,0.193375" id="Fill-55" fill="url(#radialGradient-19)" mask="url(#mask-18)"></path>
                            </g>
                            <g id="Group-60" transform="translate(152.000000, 73.000000)">
                                <mask id="mask-21" fill="white">
                                    <use xlink:href="#path-20"></use>
                                </mask>
                                <g id="Clip-59"></g>
                                <path d="M0.865333333,2.42125 C0.865333333,3.22375 1.55733333,3.87375 2.41333333,3.87375 L2.41333333,3.87375 C3.26933333,3.87375 3.96133333,3.22375 3.96133333,2.42125 L3.96133333,2.42125 C3.96133333,1.62 3.26933333,0.97 2.41333333,0.97 L2.41333333,0.97 C1.55733333,0.97 0.865333333,1.62 0.865333333,2.42125" id="Fill-58" fill="url(#radialGradient-22)" mask="url(#mask-21)"></path>
                            </g>
                            <g id="Group-63" transform="translate(158.000000, 80.000000)">
                                <mask id="mask-24" fill="white">
                                    <use xlink:href="#path-23"></use>
                                </mask>
                                <g id="Clip-62"></g>
                                <path d="M0.86,2.272 C0.86,3.12666667 1.51,3.82 2.31125,3.82 L2.31125,3.82 C3.11375,3.82 3.76375,3.12666667 3.76375,2.272 L3.76375,2.272 C3.76375,1.416 3.11375,0.724 2.31125,0.724 L2.31125,0.724 C1.51,0.724 0.86,1.416 0.86,2.272" id="Fill-61" fill="url(#radialGradient-25)" mask="url(#mask-24)"></path>
                            </g>
                            <g id="Group-66" transform="translate(164.000000, 93.000000)">
                                <mask id="mask-27" fill="white">
                                    <use xlink:href="#path-26"></use>
                                </mask>
                                <g id="Clip-65"></g>
                                <path d="M0.6984,2.4875 C0.6984,3.80125 1.7184,4.86375 2.9772,4.86375 L2.9772,4.86375 C4.2372,4.86375 5.2572,3.80125 5.2572,2.4875 L5.2572,2.4875 C5.2572,1.1775 4.2372,0.11375 2.9772,0.11375 L2.9772,0.11375 C1.7184,0.11375 0.6984,1.1775 0.6984,2.4875" id="Fill-64" fill="url(#radialGradient-28)" mask="url(#mask-27)"></path>
                            </g>
                            <g id="Group-69" transform="translate(138.000000, 71.000000)">
                                <mask id="mask-30" fill="white">
                                    <use xlink:href="#path-29"></use>
                                </mask>
                                <g id="Clip-68"></g>
                                <path d="M0.1515,3.4825 C0.1515,4.88133333 1.28433333,6.0165 2.68433333,6.0165 L2.68433333,6.0165 C4.08316667,6.0165 5.21716667,4.88133333 5.21716667,3.4825 L5.21716667,3.4825 C5.21716667,2.0825 4.08316667,0.949666667 2.68433333,0.949666667 L2.68433333,0.949666667 C1.28433333,0.949666667 0.1515,2.0825 0.1515,3.4825" id="Fill-67" fill="url(#radialGradient-31)" mask="url(#mask-30)"></path>
                            </g>
                            <g id="Group-72" transform="translate(168.000000, 71.000000)">
                                <mask id="mask-33" fill="white">
                                    <use xlink:href="#path-32"></use>
                                </mask>
                                <g id="Clip-71"></g>
                                <path d="M0.9625,3.23866667 C0.9625,4.865 2.282,6.18566667 3.90833333,6.18566667 L3.90833333,6.18566667 C5.53583333,6.18566667 6.85533333,4.865 6.85533333,3.23866667 L6.85533333,3.23866667 C6.85533333,1.61116667 5.53583333,0.294 3.90833333,0.294 L3.90833333,0.294 C2.282,0.294 0.9625,1.61116667 0.9625,3.23866667" id="Fill-70" fill="url(#radialGradient-34)" mask="url(#mask-33)"></path>
                            </g>
                            <g id="Group-75" transform="translate(143.000000, 90.000000)">
                                <mask id="mask-36" fill="white">
                                    <use xlink:href="#path-35"></use>
                                </mask>
                                <g id="Clip-74"></g>
                                <path d="M0.9564,2.4348 C0.9564,3.7512 2.0232,4.818 3.3396,4.818 L3.3396,4.818 C4.656,4.818 5.724,3.7512 5.724,2.4348 L5.724,2.4348 C5.724,1.1172 4.656,0.0492 3.3396,0.0492 L3.3396,0.0492 C2.0232,0.0492 0.9564,1.1172 0.9564,2.4348" id="Fill-73" fill="url(#radialGradient-37)" mask="url(#mask-36)"></path>
                            </g>
                            <g id="Group-78" transform="translate(135.000000, 107.000000)">
                                <mask id="mask-39" fill="white">
                                    <use xlink:href="#path-38"></use>
                                </mask>
                                <g id="Clip-77"></g>
                                <path d="M0.684,2.5044 C0.684,3.8016 1.7352,4.854 3.0348,4.854 L3.0348,4.854 C4.3332,4.854 5.3844,3.8016 5.3844,2.5044 L5.3844,2.5044 C5.3844,1.206 4.3332,0.1524 3.0348,0.1524 L3.0348,0.1524 C1.7352,0.1524 0.684,1.206 0.684,2.5044" id="Fill-76" fill="url(#radialGradient-40)" mask="url(#mask-39)"></path>
                            </g>
                            <g id="Group-81" transform="translate(151.000000, 111.000000)">
                                <mask id="mask-42" fill="white">
                                    <use xlink:href="#path-41"></use>
                                </mask>
                                <g id="Clip-80"></g>
                                <path d="M0.213333333,0.958 C0.213333333,1.462 0.758666667,1.87 1.43066667,1.87 L1.43066667,1.87 C2.10266667,1.87 2.64666667,1.462 2.64666667,0.958 L2.64666667,0.958 C2.64666667,0.454 2.10266667,0.045 1.43066667,0.045 L1.43066667,0.045 C0.758666667,0.045 0.213333333,0.454 0.213333333,0.958" id="Fill-79" fill="url(#radialGradient-43)" mask="url(#mask-42)"></path>
                            </g>
                            <g id="Group-84" transform="translate(156.000000, 101.000000)">
                                <mask id="mask-45" fill="white">
                                    <use xlink:href="#path-44"></use>
                                </mask>
                                <g id="Clip-83"></g>
                                <path d="M0.574666667,0.991 C0.574666667,1.495 1.11866667,1.903 1.79066667,1.903 L1.79066667,1.903 C2.46266667,1.903 3.008,1.495 3.008,0.991 L3.008,0.991 C3.008,0.486 2.46266667,0.077 1.79066667,0.077 L1.79066667,0.077 C1.11866667,0.077 0.574666667,0.486 0.574666667,0.991" id="Fill-82" fill="url(#radialGradient-46)" mask="url(#mask-45)"></path>
                            </g>
                            <g id="Group-87" transform="translate(163.000000, 113.000000)">
                                <mask id="mask-48" fill="white">
                                    <use xlink:href="#path-47"></use>
                                </mask>
                                <g id="Clip-86"></g>
                                <path d="M0.8304,2.5175 C0.8304,3.89766667 1.9836,5.01883333 3.4044,5.01883333 L3.4044,5.01883333 C4.824,5.01883333 5.9784,3.89766667 5.9784,2.5175 L5.9784,2.5175 C5.9784,1.13616667 4.824,0.015 3.4044,0.015 L3.4044,0.015 C1.9836,0.015 0.8304,1.13616667 0.8304,2.5175" id="Fill-85" fill="url(#radialGradient-49)" mask="url(#mask-48)"></path>
                            </g>
                            <g id="Group-90" transform="translate(138.000000, 124.000000)">
                                <mask id="mask-51" fill="white">
                                    <use xlink:href="#path-50"></use>
                                </mask>
                                <g id="Clip-89"></g>
                                <path d="M0.9528,3.0096 C0.9528,4.1244 1.8552,5.028 2.97,5.028 L2.97,5.028 C4.0824,5.028 4.9872,4.1244 4.9872,3.0096 L4.9872,3.0096 C4.9872,1.896 4.0824,0.9936 2.97,0.9936 L2.97,0.9936 C1.8552,0.9936 0.9528,1.896 0.9528,3.0096" id="Fill-88" fill="url(#radialGradient-52)" mask="url(#mask-51)"></path>
                            </g>
                            <g id="Group-93" transform="translate(166.000000, 128.000000)">
                                <mask id="mask-54" fill="white">
                                    <use xlink:href="#path-53"></use>
                                </mask>
                                <g id="Clip-92"></g>
                                <path d="M0.641333333,1.716 C0.641333333,2.52666667 1.29733333,3.18133333 2.10533333,3.18133333 L2.10533333,3.18133333 C2.916,3.18133333 3.57066667,2.52666667 3.57066667,1.716 L3.57066667,1.716 C3.57066667,0.908 2.916,0.253333333 2.10533333,0.253333333 L2.10533333,0.253333333 C1.29733333,0.253333333 0.641333333,0.908 0.641333333,1.716" id="Fill-91" fill="url(#radialGradient-55)" mask="url(#mask-54)"></path>
                            </g>
                            <g id="Group-96" transform="translate(152.000000, 130.000000)">
                                <mask id="mask-57" fill="white">
                                    <use xlink:href="#path-56"></use>
                                </mask>
                                <g id="Clip-95"></g>
                                <path d="M0.02875,2.30375 C0.02875,3.37625 0.89875,4.2475 1.97125,4.2475 L1.97125,4.2475 C3.04625,4.2475 3.915,3.37625 3.915,2.30375 L3.915,2.30375 C3.915,1.23 3.04625,0.35875 1.97125,0.35875 L1.97125,0.35875 C0.89875,0.35875 0.02875,1.23 0.02875,2.30375" id="Fill-94" fill="url(#radialGradient-58)" mask="url(#mask-57)"></path>
                            </g>
                            <g id="Group-99" transform="translate(123.000000, 110.000000)">
                                <mask id="mask-60" fill="white">
                                    <use xlink:href="#path-59"></use>
                                </mask>
                                <g id="Clip-98"></g>
                                <path d="M0.605333333,1.496 C0.605333333,2.26 1.224,2.87733333 1.98666667,2.87733333 L1.98666667,2.87733333 C2.75066667,2.87733333 3.36933333,2.26 3.36933333,1.496 L3.36933333,1.496 C3.36933333,0.733333333 2.75066667,0.116 1.98666667,0.116 L1.98666667,0.116 C1.224,0.116 0.605333333,0.733333333 0.605333333,1.496" id="Fill-97" fill="url(#radialGradient-61)" mask="url(#mask-60)"></path>
                            </g>
                            <g id="Group-102" transform="translate(118.000000, 120.000000)">
                                <mask id="mask-63" fill="white">
                                    <use xlink:href="#path-62"></use>
                                </mask>
                                <g id="Clip-101"></g>
                                <path d="M0.0048,2.97 C0.0048,4.3176 1.098,5.4096 2.4468,5.4096 L2.4468,5.4096 C3.7932,5.4096 4.8864,4.3176 4.8864,2.97 L4.8864,2.97 C4.8864,1.6224 3.7932,0.5304 2.4468,0.5304 L2.4468,0.5304 C1.098,0.5304 0.0048,1.6224 0.0048,2.97" id="Fill-100" fill="url(#radialGradient-64)" mask="url(#mask-63)"></path>
                            </g>
                            <g id="Group-105" transform="translate(132.000000, 90.000000)">
                                <mask id="mask-66" fill="white">
                                    <use xlink:href="#path-65"></use>
                                </mask>
                                <g id="Clip-104"></g>
                                <path d="M0.71125,1.75733333 C0.71125,2.696 1.425,3.45733333 2.30625,3.45733333 L2.30625,3.45733333 C3.1875,3.45733333 3.90125,2.696 3.90125,1.75733333 L3.90125,1.75733333 C3.90125,0.817333333 3.1875,0.0546666667 2.30625,0.0546666667 L2.30625,0.0546666667 C1.425,0.0546666667 0.71125,0.817333333 0.71125,1.75733333" id="Fill-103" fill="url(#radialGradient-67)" mask="url(#mask-66)"></path>
                            </g>
                            <g id="Group-108" transform="translate(129.000000, 78.000000)">
                                <mask id="mask-69" fill="white">
                                    <use xlink:href="#path-68"></use>
                                </mask>
                                <g id="Clip-107"></g>
                                <path d="M0.641333333,1.73466667 C0.641333333,2.64666667 1.38133333,3.39066667 2.29733333,3.39066667 L2.29733333,3.39066667 C3.21066667,3.39066667 3.952,2.64666667 3.952,1.73466667 L3.952,1.73466667 C3.952,0.82 3.21066667,0.0786666667 2.29733333,0.0786666667 L2.29733333,0.0786666667 C1.38133333,0.0786666667 0.641333333,0.82 0.641333333,1.73466667" id="Fill-106" fill="url(#radialGradient-70)" mask="url(#mask-69)"></path>
                            </g>
                        </g>
                    </g>
                </g>
            </g>
        </g>
    </g>
</svg>