<?xml version="1.0" encoding="UTF-8"?>
<svg width="99px" height="97px" viewBox="0 0 158 154" version="1.1" xmlns="http://www.w3.org/2000/svg" xmlns:xlink="http://www.w3.org/1999/xlink">
    <!-- Generator: Sketch 61.1 (89650) - https://sketch.com -->
    <title>Group 102 Copy 4</title>
    <desc>Created with Sketch.</desc>
    <defs>
        <polygon id="path-1" points="0 0.0357880921 10.9800625 0.0357880921 10.9800625 24.9490981 0 24.9490981"></polygon>
    </defs>
    <g id="Page-1" stroke="none" stroke-width="1" fill="none" fill-rule="evenodd" opacity="0.151553199">
        <g id="Home" transform="translate(-450.000000, -3095.000000)">
            <g id="Group-102-Copy-4" transform="translate(450.000000, 3095.000000)">
                <path d="M74.5,29 L82.5,29 C81.6170355,21.9978826 81.6170355,15 82.5,8 L74.5,8 C75.3829645,15 75.3829645,21.9978826 74.5,29" id="Fill-1" fill="#2BA0FF"></path>
                <path d="M49.3763251,36 L56.5,32.0575361 C52.0871817,26.4750072 48.4639332,20.4530249 45.6236749,14 L38.5,17.9424639 C42.9106251,23.5270955 46.5360668,29.5490777 49.3763251,36" id="Fill-3" fill="#2BA0FF"></path>
                <path d="M33.5554334,57 L37.5,49.875457 C31.0469751,47.0370461 25.0249928,43.4111626 19.4403613,39 L15.5,46.124543 C21.9509223,48.9651475 27.9729045,52.5888374 33.5554334,57" id="Fill-5" fill="#2BA0FF"></path>
                <path d="M28.4977816,82 L28.5,74 C21.1681456,74.8829645 13.8340728,74.8829645 6.5,74 L6.50221841,82 C13.8340728,81.1191682 21.1681456,81.1170355 28.4977816,82" id="Fill-7" fill="#2BA0FF"></path>
                <path d="M37.5,107.124543 L33.5592621,100 C27.9740967,104.411163 21.9536418,108.034853 15.5,110.875457 L19.4449436,118 C25.0259033,113.588837 31.0484611,109.962954 37.5,107.124543" id="Fill-9" fill="#2BA0FF"></path>
                <path d="M56.5,122.942841 L49.375457,119 C46.5370461,125.451539 42.9111626,131.474097 38.5,137.059262 L45.624543,141 C48.4629539,134.548461 52.0888374,128.525903 56.5,122.942841" id="Fill-11" fill="#2BA0FF"></path>
                <path d="M82.5,128.002118 L74.5,128 C75.3850973,135.000706 75.3829645,142.001412 74.5021328,149 L82.5,148.997882 C81.6170355,142.001412 81.6170355,135.000706 82.5,128.002118" id="Fill-13" fill="#2BA0FF"></path>
                <path d="M108.62893,119 L101.5,122.942841 C105.913356,128.525903 109.537046,134.548461 112.379844,141 L119.5,137.057159 C115.091031,131.474097 111.465147,125.451539 108.62893,119" id="Fill-15" fill="#2BA0FF"></path>
                <path d="M124.448394,100 L120.5,107.126737 C126.954511,109.962954 132.973815,113.591031 138.557913,118 L142.5,110.875457 C136.047592,108.037046 130.026185,104.413356 124.448394,100" id="Fill-17" fill="#2BA0FF"></path>
                <path d="M129.504437,74 L129.5,82 C136.836291,81.1172708 144.170364,81.1172708 151.5,81.9978678 L151.5,74.0021322 C144.165927,74.8848614 136.834073,74.8848614 129.504437,74" id="Fill-19" fill="#2BA0FF"></path>
                <path d="M120.5,49.8719386 L124.442464,57 C130.024993,52.5871817 136.049078,48.96174 142.5,46.1214817 L138.557536,39 C132.972905,43.4106251 126.950922,47.0360668 120.5,49.8719386" id="Fill-21" fill="#2BA0FF"></path>
                <path d="M101.5,32.0516055 L108.626737,36 C111.462954,29.5475917 115.093224,23.5240826 119.5,17.9420872 L112.379844,14 C109.53924,20.4524083 105.913356,26.473815 101.5,32.0516055" id="Fill-23" fill="#2BA0FF"></path>
                <path d="M135.5,78.5010705 C135.5,109.704049 109.981867,135 78.49784,135 C47.0202925,135 21.5,109.704049 21.5,78.5010705 C21.5,47.298092 47.0202925,22 78.49784,22 C109.981867,22 135.5,47.298092 135.5,78.5010705" id="Fill-25" fill="#2BA0FF"></path>
                <path d="M135.5,78.4989295 C135.5,85.2792293 134.294657,91.7876319 132.08486,97.8100453 C130.680786,101.62945 128.883572,105.262594 126.712658,108.647392 C119.707409,119.645308 108.973804,128.067695 96.2701753,132.199674 C90.6841213,134.017317 84.7070867,135 78.5054003,135 C47.0217432,135 21.5,109.702867 21.5,78.4989295 C21.5,72.3523427 22.4936523,66.4305527 24.3383894,60.881283 C28.492288,48.3033667 36.9901753,37.6779712 48.0758787,30.7221159 C51.4910185,28.5683485 55.1567314,26.7785377 59.0103742,25.3826566 C65.086774,23.1946344 71.6513595,22 78.5054003,22 C109.980417,22 135.5,47.2949925 135.5,78.4989295" id="Fill-27" fill="#2BA0FF"></path>
                <path d="M99.5,114.294514 C99.5,120.527653 98.5033406,126.535002 96.6598463,132.160242 C91.0446801,134.003479 85.0386671,135 78.8046601,135 C47.1569233,135 21.5,109.348818 21.5,77.7033151 C21.5,71.4701756 22.4988308,65.4671695 24.3553533,59.8375873 C29.9705195,57.9965207 35.9743611,57 42.2083681,57 C73.8474194,57 99.5,82.6511816 99.5,114.294514" id="Fill-29" fill="#2B9DFF"></path>
                <path d="M136.5,77.8737232 C136.5,84.699001 135.297306,91.2505781 133.092366,97.312942 C131.691379,101.157683 129.898114,104.814929 127.731971,108.22218 C118.95101,113.7824 108.540593,117 97.3822631,117 C65.9656489,117 40.5,91.5393647 40.5,60.1262768 C40.5,48.9670446 43.7201167,38.5599506 49.2680287,29.7799753 C52.6756623,27.6119205 56.3333184,25.8102368 60.1784912,24.405096 C66.2415357,22.2025592 72.7916929,21 79.6306691,21 C111.036507,21 136.5,46.4627904 136.5,77.8737232" id="Fill-31" fill="#6EBDFF"></path>
                <path d="M92.5,45.5 C92.5,47.9867257 90.4845133,50 88,50 C85.5132743,50 83.5,47.9867257 83.5,45.5 C83.5,43.0154867 85.5132743,41 88,41 C90.4845133,41 92.5,43.0154867 92.5,45.5" id="Fill-33" fill="#6EBDFF"></path>
                <path d="M124.5,87.5010323 C124.5,89.9848589 122.482794,92 119.998968,92 C117.513076,92 115.5,89.9848589 115.5,87.5010323 C115.5,85.0151411 117.513076,83 119.998968,83 C122.482794,83 124.5,85.0151411 124.5,87.5010323" id="Fill-35" fill="#2B9DFF"></path>
                <path d="M49.5,74.5 C49.5,79.1952587 45.6952587,83 41,83 C36.3047413,83 32.5,79.1952587 32.5,74.5 C32.5,69.8047413 36.3047413,66 41,66 C45.6952587,66 49.5,69.8047413 49.5,74.5" id="Fill-37" fill="#2B9DFF"></path>
                <path d="M97.5,63.501065 C97.5,67.0924136 94.5902835,70 90.998935,70 C87.4118466,70 84.5,67.0924136 84.5,63.501065 C84.5,59.9097165 87.4118466,57 90.998935,57 C94.5902835,57 97.5,59.9097165 97.5,63.501065" id="Fill-39" fill="#2B9DFF"></path>
                <path d="M106.5,112.498905 C106.5,114.43228 104.93398,116 103,116 C101.06821,116 99.5,114.43228 99.5,112.498905 C99.5,110.56553 101.06821,109 103,109 C104.93398,109 106.5,110.56553 106.5,112.498905" id="Fill-41" fill="#2B9DFF"></path>
                <path d="M64.5,48.0011473 C64.5,52.420479 60.918698,56 56.5022942,56 C52.081302,56 48.5,52.420479 48.5,48.0011473 C48.5,43.579521 52.081302,40 56.5022942,40 C60.918698,40 64.5,43.579521 64.5,48.0011473" id="Fill-43" fill="#6EBDFF"></path>
                <path d="M79.5,35.5 C79.5,37.4312896 77.9312896,39 76,39 C74.0662438,39 72.5,37.4312896 72.5,35.5 C72.5,33.5662438 74.0662438,32 76,32 C77.9312896,32 79.5,33.5662438 79.5,35.5" id="Fill-45" fill="#2B9DFF"></path>
                <path d="M119.5,51.5 C119.5,53.4323879 117.93418,55 116.001155,55 C114.06582,55 112.5,53.4323879 112.5,51.5 C112.5,49.5653034 114.06582,48 116.001155,48 C117.93418,48 119.5,49.5653034 119.5,51.5" id="Fill-47" fill="#2B9DFF"></path>
                <path d="M72.5,108.998853 C72.5,113.418184 68.918698,117 64.5022942,117 C60.081302,117 56.5,113.418184 56.5,108.998853 C56.5,104.579521 60.081302,101 64.5022942,101 C68.918698,101 72.5,104.579521 72.5,108.998853" id="Fill-49" fill="#6EBDFF"></path>
                <path d="M128.5,62.5 C128.5,64.434322 126.711195,66 124.50121,66 C122.291225,66 120.5,64.434322 120.5,62.5 C120.5,60.565678 122.291225,59 124.50121,59 C126.711195,59 128.5,60.565678 128.5,62.5" id="Fill-51" fill="#6EBDFF"></path>
                <path d="M90.5,5.5 C90.5,8.53790614 84.9034091,11 78,11 C71.0965909,11 65.5,8.53790614 65.5,5.5 C65.5,2.46209386 71.0965909,0 78,0 C84.9034091,0 90.5,2.46209386 90.5,5.5" id="Fill-53" fill="#2B9DFF"></path>
                <path d="M85.5,5.5 C85.5,6.87918216 82.1428782,8 78.0022072,8 C73.859329,8 70.5,6.87918216 70.5,5.5 C70.5,4.12081784 73.859329,3 78.0022072,3 C82.1428782,3 85.5,4.12081784 85.5,5.5" id="Fill-55" fill="#2B9DFF"></path>
                <path d="M90.5,148.501103 C90.5,151.5384 84.9034091,154 78,154 C71.0965909,154 65.5,151.5384 65.5,148.501103 C65.5,145.463806 71.0965909,143 78,143 C84.9034091,143 90.5,145.463806 90.5,148.501103" id="Fill-57" fill="#2B9DFF"></path>
                <path d="M85.5,148.5 C85.5,149.879182 82.1428782,151 78.0022072,151 C73.859329,151 70.5,149.879182 70.5,148.5 C70.5,147.118959 73.859329,146 78.0022072,146 C82.1428782,146 85.5,147.118959 85.5,148.5" id="Fill-59" fill="#2B9DFF"></path>
                <path d="M126.154507,22.4192336 C124.651661,25.0552988 118.661874,24.3186207 112.77789,20.7750212 C106.891746,17.2269839 103.341923,12.2166848 104.844768,9.58061956 C106.347613,6.94455432 112.33956,7.68123249 118.223544,11.2270509 C124.107528,14.7728693 127.659511,19.7853873 126.154507,22.4192336" id="Fill-61" fill="#2B9DFF"></path>
                <path d="M121.330206,19.229067 C120.51815,20.6198877 117.028036,20.077446 113.531443,18.0161673 C110.03485,15.9570583 107.857849,13.1602285 108.669905,11.7694078 C109.479801,10.3807569 112.972075,10.9231987 116.468668,12.9823076 C119.963101,15.0414166 122.142263,17.8382464 121.330206,19.229067" id="Fill-63" fill="#2B9DFF"></path>
                <path d="M53.155213,145.42103 C51.6523188,148.054799 45.6601763,147.318143 39.7781597,143.774647 C33.8918244,140.226714 30.3418848,135.216561 31.844779,132.580573 C33.3476731,129.944585 39.3398156,130.681242 45.2239916,134.226956 C51.1081675,137.77489 54.6581071,142.785042 53.155213,145.42103" id="Fill-65" fill="#2B9DFF"></path>
                <path d="M48.3308963,142.229067 C47.518883,143.619888 44.0267939,143.077446 40.5325451,141.016167 C37.0361367,138.957058 34.85925,136.160229 35.6691037,134.769408 C36.481117,133.380757 39.9732061,133.923199 43.4674549,135.982308 C46.9638633,138.041417 49.14075,140.838246 48.3308963,142.229067" id="Fill-67" fill="#2B9DFF"></path>
                <path d="M148.810324,52.6839045 C146.097348,54.1243902 141.068967,50.5049826 137.583436,44.6060546 C134.097905,38.7049862 133.47444,32.7546888 136.189676,31.3163435 C138.902652,29.8758578 143.931033,33.4909846 147.416564,39.392053 C150.902095,45.2931214 151.52556,51.2434188 148.810324,52.6839045" id="Fill-69" fill="#2B9DFF"></path>
                <path d="M145.675094,48.8453366 C144.240235,49.6199149 141.432517,47.4095852 139.402015,43.9047255 C137.373726,40.4020056 136.891011,36.9313814 138.32587,36.1546634 C139.760729,35.3800851 142.568447,37.5904148 144.59895,41.0952745 C146.627238,44.6001342 147.107739,48.0686186 145.675094,48.8453366" id="Fill-71" fill="#2B9DFF"></path>
                <path d="M21.8120968,122.683779 C19.096791,124.124257 14.0705387,120.507009 10.5849174,114.608114 C7.09929618,108.707077 6.473556,102.754672 9.18886174,101.316335 C11.9041675,99.8758569 16.9304198,103.490964 20.4160411,109.39414 C23.9016623,115.293036 24.5251435,121.243301 21.8120968,122.683779" id="Fill-73" fill="#2B9DFF"></path>
                <path d="M18.6736605,118.845337 C17.2412671,119.619915 14.4318277,117.409585 12.4016811,113.904726 C10.3737485,110.402006 9.89111826,106.933521 11.3257256,106.154663 C12.760333,105.380085 15.5697724,107.590415 17.597705,111.095274 C19.6278515,114.600134 20.1082679,118.070758 18.6736605,118.845337" id="Fill-75" fill="#2B9DFF"></path>
                <path d="M151.748587,90.9994985 C148.713916,90.940487 146.369043,85.2950587 146.505681,78.3907195 C146.646726,71.4863804 149.220797,65.9393045 152.253264,66.0005015 C155.285731,66.0616986 157.635012,71.7071269 157.493967,78.6092805 C157.355126,85.5136196 154.783259,91.0606955 151.748587,90.9994985" id="Fill-77" fill="#2B9DFF"></path>
                <path d="M151.871903,85.9997553 C150.493485,85.9666438 149.432736,82.5826482 149.503329,78.4392956 C149.572064,74.2981504 150.747991,70.9671332 152.126408,71.0002447 C153.504825,71.0333562 154.565575,74.4173518 154.49684,78.5607044 C154.426247,82.7018496 153.252177,86.0328668 151.871903,85.9997553" id="Fill-79" fill="#2B9DFF"></path>
                <g id="Group-83" transform="translate(0.500000, 63.000000)">
                    <mask id="mask-2" fill="white">
                        <use xlink:href="#path-1"></use>
                    </mask>
                    <g id="Clip-82"></g>
                    <path d="M5.23864,24.9485985 C2.20924,24.8897917 -0.13156,19.2639394 0.00484,12.3835417 C0.14564,5.50314394 2.71524,-0.0246969697 5.74244,0.0362878788 C8.76964,0.0972727273 11.11484,5.723125 10.97404,12.6013447 C10.83544,19.4795644 8.26804,25.0095833 5.23864,24.9485985" id="Fill-81" fill="#2B9DFF" mask="url(#mask-2)"></path>
                </g>
                <path d="M5.87190252,82.9997553 C4.49348546,82.9644363 3.43273595,79.5826482 3.50332874,75.4392956 C3.57206382,71.2981504 4.74799104,67.9671332 6.12640809,68.0002447 C7.50482515,68.0333562 8.56557466,71.4173518 8.49683958,75.558497 C8.42624679,79.7018496 7.25217728,83.0328668 5.87190252,82.9997553" id="Fill-84" fill="#2B9DFF"></path>
                <path d="M135.135622,123.670382 C132.459397,122.198178 133.137971,116.229841 136.654016,110.336727 C140.167821,104.445761 145.186583,100.860891 147.865048,102.328796 C150.541273,103.801 149.860459,109.769337 146.346654,115.660302 C142.830609,121.555566 137.809608,125.140437 135.135622,123.670382" id="Fill-86" fill="#2B9DFF"></path>
                <path d="M138.299071,118.838596 C136.884913,118.045549 137.397957,114.566024 139.44136,111.065009 C141.486957,107.563993 144.288963,105.36753 145.700929,106.162727 C147.115087,106.955774 146.602043,110.435298 144.55864,113.936314 C142.515236,117.43733 139.71323,119.629495 138.299071,118.838596" id="Fill-88" fill="#2B9DFF"></path>
                <path d="M9.13440959,52.670382 C6.46058596,51.198178 7.13687971,45.2298413 10.6549508,39.3367267 C14.1685432,33.4457613 19.1870011,29.8608907 21.8653035,31.3287963 C24.5413666,32.8010004 23.860594,38.7693371 20.3447623,44.6603025 C16.8311699,50.5555663 11.8104726,54.1404369 9.13440959,52.670382" id="Fill-90" fill="#2B9DFF"></path>
                <path d="M12.2990823,47.8385963 C10.884905,47.0455485 11.3979554,43.5660244 13.4413868,40.0650085 C15.4848182,36.5639926 18.2868625,34.3675296 19.7010398,35.1627266 C21.1152171,35.9557744 20.6021667,39.4352985 18.5565428,42.9363144 C16.5153039,46.4373303 13.7132596,48.6294949 12.2990823,47.8385963" id="Fill-92" fill="#2B9DFF"></path>
                <path d="M104.847328,145.428057 C103.339049,142.798185 106.882857,137.791016 112.766874,134.239471 C118.650892,130.690142 124.642953,129.941282 126.151232,132.571153 C127.663833,135.201025 124.115703,140.210409 118.231686,143.761954 C112.349829,147.311284 106.355607,148.057928 104.847328,145.428057" id="Fill-94" fill="#2B9DFF"></path>
                <path d="M108.671087,142.234005 C107.856203,140.847409 110.030667,138.050383 113.525804,135.989987 C117.020942,133.927424 120.513918,133.379285 121.328801,134.765882 C122.143685,136.150312 119.971382,138.947338 116.474083,141.012067 C112.978946,143.072463 109.483809,143.620602 108.671087,142.234005" id="Fill-96" fill="#2B9DFF"></path>
                <path d="M31.8473279,22.4283115 C30.3390487,19.7986234 33.8828567,14.7895882 39.7668744,11.2382907 C45.6508921,7.68920866 51.6429527,6.9426165 53.1512319,9.57008922 C54.6638329,12.2019928 51.1157032,17.211028 45.2316855,20.7601101 C39.3498287,24.3114075 33.3556072,25.0579997 31.8473279,22.4283115" id="Fill-98" fill="#2B9DFF"></path>
                <path d="M35.6702826,19.2342477 C34.8576035,17.8478853 37.0319522,15.0513322 40.5269044,12.989118 C44.0218565,10.9269038 47.5146473,10.3788574 48.3294877,11.7673861 C49.1421668,13.1515824 46.9721408,15.9481354 43.4750273,18.0103496 C39.9779138,20.0725638 36.485123,20.6206102 35.6702826,19.2342477" id="Fill-100" fill="#2B9DFF"></path>
            </g>
        </g>
    </g>
</svg>