<?xml version="1.0" encoding="UTF-8"?>
<svg width="335px" height="329px" viewBox="0 0 335 329" version="1.1" xmlns="http://www.w3.org/2000/svg" xmlns:xlink="http://www.w3.org/1999/xlink">
    <!-- Generator: Sketch 61.1 (89650) - https://sketch.com -->
    <title>Group 103 Copy 2</title>
    <desc>Created with Sketch.</desc>
    <defs>
        <polygon id="path-1" points="0.001696 0.000218181818 53.001696 0.000218181818 53.001696 24 0.001696 24"></polygon>
        <polygon id="path-3" points="0 0.0761079581 22.9595193 0.0761079581 22.9595193 52.8917023 0 52.8917023"></polygon>
    </defs>
    <g id="Symbols" stroke="none" stroke-width="1" fill="none" fill-rule="evenodd" opacity="0.207147507">
        <g id="Group-103-Copy-2">
            <g>
                <path d="M158,62 L175,62 C173.123625,46.9957143 173.123625,32 175,17 L158,17 C159.876375,32 159.876375,46.9957143 158,62" id="Fill-1" fill="#E8CE0C"></path>
                <path d="M103.960444,77 L119,68.5784545 C109.683667,56.6511364 102.033,43.7859545 96.0374444,30 L81,38.4215455 C90.31,50.3531364 97.9648889,63.2183182 103.960444,77" id="Fill-3" fill="#E8CE0C"></path>
                <path d="M70.5741818,122 L79,106.958333 C65.2140455,100.967 52.3488636,93.3121111 40.4194091,84 L32,99.0416667 C45.7816818,105.037222 58.6468636,112.687889 70.5741818,122" id="Fill-5" fill="#E8CE0C"></path>
                <path d="M59.9957273,175 L60,158 C44.3361818,159.876375 28.6680909,159.876375 13,158 L13.0064091,175 C28.6680909,173.127875 44.3361818,173.123625 59.9957273,175" id="Fill-7" fill="#E8CE0C"></path>
                <path d="M79,229.039556 L70.5805909,214 C58.649,223.312111 45.7880909,230.962778 32,236.958333 L40.4279545,252 C52.351,242.687889 65.2161818,235.033 79,229.039556" id="Fill-9" fill="#E8CE0C"></path>
                <path d="M119,262.421545 L103.958333,254 C97.967,267.781682 90.3121111,280.646864 81,292.580591 L96.0416667,301 C102.033,287.214045 109.687889,274.348864 119,262.421545" id="Fill-11" fill="#E8CE0C"></path>
                <path d="M175,273.004286 L158,273 C159.880625,288.002143 159.876375,303.002143 158.00425,318 L175,317.995714 C173.123625,303.002143 173.123625,288.002143 175,273.004286" id="Fill-13" fill="#E8CE0C"></path>
                <path d="M231.050111,254 L216,262.421545 C225.316333,274.348864 232.967,287.216182 238.968889,301 L254,292.576318 C244.692111,280.649 237.037222,267.781682 231.050111,254" id="Fill-15" fill="#E8CE0C"></path>
                <path d="M264.434364,214 L256,229.045889 C269.788091,235.033 282.646864,242.692111 294.576318,252 L303,236.958333 C289.216182,230.967 276.351,223.316333 264.434364,214" id="Fill-17" fill="#E8CE0C"></path>
                <path d="M275.010682,158 L275,175 C290.672364,173.123625 306.340455,173.123625 322,174.99575 L322,158.00425 C306.331909,159.880625 290.668091,159.880625 275.010682,158" id="Fill-19" fill="#E8CE0C"></path>
                <path d="M256,106.952 L264.421545,122 C276.348864,112.683667 289.218318,105.030889 303,99.0353333 L294.578455,84 C282.646864,93.3121111 269.781682,100.967 256,106.952" id="Fill-21" fill="#E8CE0C"></path>
                <path d="M216,68.5635 L231.045889,77 C237.033,63.2140455 244.696333,50.3467273 254,38.4215455 L238.968889,30 C232.971222,43.7838182 225.316333,56.6468636 216,68.5635" id="Fill-23" fill="#E8CE0C"></path>
                <path d="M288,167.502133 C288,234.050124 233.604237,288 166.495737,288 C99.4000263,288 45,234.050124 45,167.502133 C45,100.954142 99.4000263,47 166.495737,47 C233.604237,47 288,100.954142 288,167.502133" id="Fill-25" fill="#E8CE0C"></path>
                <path d="M288,167.497867 C288,181.957867 285.431447,195.837761 280.720658,208.683274 C277.727921,216.828221 273.897474,224.578611 269.269816,231.795814 C254.335974,255.251726 231.457737,273.21369 204.380289,282.026186 C192.473289,285.905646 179.730711,288 166.510658,288 C99.4021579,288 45,234.047991 45,167.497867 C45,154.387894 47.1187895,141.75992 51.0494211,129.923195 C59.904,103.097549 78.0181579,80.4371504 101.648842,65.6017876 C108.928184,61.0078584 116.742553,57.1902478 124.955526,54.2129381 C137.909132,49.5464956 151.900816,47 166.510658,47 C233.602105,47 288,100.947743 288,167.497867" id="Fill-27" fill="#E8CE0C"></path>
                <path d="M211,244.667923 C211,258.012936 208.878179,270.876218 204.955897,282.919487 C193.006026,286.865397 180.224026,289 166.956795,289 C99.603359,289 45,234.080551 45,166.325654 C45,152.980641 47.1260769,140.128064 51.0760256,128.07409 C63.0280256,124.134603 75.803641,122 89.0708718,122 C156.407282,122 211,176.919449 211,244.667923" id="Fill-29" fill="#E8CF0C"></path>
                <path d="M290,166.449688 C290,181.026042 287.431094,195.013021 282.724635,207.960052 C279.730781,216.170729 275.901979,223.979948 271.276667,231.255313 C252.525573,243.130365 230.295885,250 206.466771,250 C139.380521,250 85,195.632292 85,128.550313 C85,104.721198 91.8760417,82.5000521 103.723333,63.7489583 C111.000833,59.119375 118.812188,55.2734896 127.022865,52.2710938 C139.969896,47.5689063 153.956875,45 168.56099,45 C235.62375,45 290,99.3741146 290,166.449688" id="Fill-31" fill="#E8D649"></path>
                <path d="M196,97.5 C196,102.750333 191.744,107 186.5,107 C181.251778,107 177,102.750333 177,97.5 C177,92.2538889 181.251778,88 186.5,88 C191.744,88 196,92.2538889 196,97.5" id="Fill-33" fill="#E8D649"></path>
                <path d="M264,186.502111 C264,191.744 259.739778,196 254.497889,196 C249.249667,196 245,191.744 245,186.502111 C245,181.253889 249.249667,177 254.497889,177 C259.739778,177 264,181.253889 264,186.502111" id="Fill-35" fill="#E8CF0C"></path>
                <path d="M104,159 C104,168.942353 95.9423529,177 86,177 C76.0576471,177 68,168.942353 68,159 C68,149.057647 76.0576471,141 86,141 C95.9423529,141 104,149.057647 104,159" id="Fill-37" fill="#E8CF0C"></path>
                <path d="M207,136.002154 C207,143.736615 200.732308,150 192.997846,150 C185.272,150 179,143.736615 179,136.002154 C179,128.267692 185.272,122 192.997846,122 C200.732308,122 207,128.267692 207,136.002154" id="Fill-39" fill="#E8CF0C"></path>
                <path d="M226,240.497857 C226,244.642143 222.644286,248 218.5,248 C214.36,248 211,244.642143 211,240.497857 C211,236.353571 214.36,233 218.5,233 C222.644286,233 226,236.353571 226,240.497857" id="Fill-41" fill="#E8CF0C"></path>
                <path d="M136,103.002125 C136,112.3925 128.38825,120 119.00425,120 C109.61175,120 102,112.3925 102,103.002125 C102,93.6075 109.61175,86 119.00425,86 C128.38825,86 136,93.6075 136,103.002125" id="Fill-43" fill="#E8D649"></path>
                <path d="M169,75.5 C169,79.6378571 165.637857,83 161.5,83 C157.355714,83 154,79.6378571 154,75.5 C154,71.3557143 157.355714,68 161.5,68 C165.637857,68 169,71.3557143 169,75.5" id="Fill-45" fill="#E8CF0C"></path>
                <path d="M254,110.5 C254,114.64 250.646429,118 246.502143,118 C242.353571,118 239,114.64 239,110.5 C239,106.353571 242.353571,103 246.502143,103 C250.646429,103 254,106.353571 254,110.5" id="Fill-47" fill="#E8CF0C"></path>
                <path d="M154,232.997875 C154,242.38825 146.390375,250 137.00425,250 C127.61175,250 120,242.38825 120,232.997875 C120,223.605375 127.61175,216 137.00425,216 C146.390375,216 154,223.605375 154,232.997875" id="Fill-49" fill="#E8D649"></path>
                <path d="M273,133.5 C273,137.644286 269.198375,141 264.502125,141 C259.805875,141 256,137.644286 256,133.5 C256,129.353571 259.805875,126 264.502125,126 C269.198375,126 273,129.353571 273,133.5" id="Fill-51" fill="#E8D649"></path>
                <path d="M192,12 C192,18.6283636 180.13436,24 165.5,24 C150.86564,24 139,18.6283636 139,12 C139,5.37163636 150.86564,0 165.5,0 C180.13436,0 192,5.37163636 192,12" id="Fill-53" fill="#E8CF0C"></path>
                <path d="M181,11.5 C181,14.5338 173.8384,17 165.004267,17 C156.165867,17 149,14.5338 149,11.5 C149,8.4662 156.165867,6 165.004267,6 C173.8384,6 181,8.4662 181,11.5" id="Fill-55" fill="#E8CF0C"></path>
                <g id="Group-59" transform="translate(139.000000, 305.000000)">
                    <mask id="mask-2" fill="white">
                        <use xlink:href="#path-1"></use>
                    </mask>
                    <g id="Clip-58"></g>
                    <path d="M53.001696,12.0024 C53.001696,18.6285818 41.136056,24.0002182 26.501696,24.0002182 C11.867336,24.0002182 0.001696,18.6285818 0.001696,12.0024 C0.001696,5.37621818 11.867336,0.000218181818 26.501696,0.000218181818 C41.136056,0.000218181818 53.001696,5.37621818 53.001696,12.0024" id="Fill-57" fill="#E8CF0C" mask="url(#mask-2)"></path>
                </g>
                <path d="M181,317.5 C181,320.5338 173.8384,323 165.004267,323 C156.165867,323 149,320.5338 149,317.5 C149,314.4618 156.165867,312 165.004267,312 C173.8384,312 181,314.4618 181,317.5" id="Fill-60" fill="#E8CF0C"></path>
                <path d="M268.261906,47.6411141 C265.050947,53.24266 252.25625,51.6765222 239.68587,44.1475854 C227.109082,36.6080236 219.527118,25.9616862 222.73594,20.3601403 C225.946899,14.7564693 238.750142,16.3226072 251.318385,23.857919 C263.888764,31.3932308 271.477137,42.0438181 268.261906,47.6411141" id="Fill-62" fill="#E8CF0C"></path>
                <path d="M257.634313,41.3725246 C255.885388,44.3090906 248.368454,43.1627532 240.836443,38.8117377 C233.306587,34.4649445 228.615503,28.5601458 230.366582,25.6235798 C232.109046,22.6933472 239.632442,23.8375735 247.164452,28.1843667 C254.690001,32.533271 259.383239,38.4359586 257.634313,41.3725246" id="Fill-64" fill="#E8CF0C"></path>
                <path d="M112.263337,310.644599 C109.052427,316.241673 96.2515158,314.675598 83.6856009,307.146959 C71.1090044,299.607696 63.527156,288.96178 66.7359293,283.358331 C69.9468388,277.757007 82.7498868,279.323083 95.3200743,286.858096 C107.890262,294.397359 115.474247,305.043275 112.263337,310.644599" id="Fill-66" fill="#E8CF0C"></path>
                <path d="M102.635686,303.371114 C100.886804,306.309659 93.3657457,305.163373 85.8403804,300.810443 C78.3085536,296.465956 73.6197384,290.561424 75.3643136,287.62499 C77.1131965,284.692779 84.6342543,285.836954 92.1596196,290.185662 C99.6914464,294.532259 104.380262,300.43468 102.635686,303.371114" id="Fill-68" fill="#E8CF0C"></path>
                <path d="M316.409614,112.325035 C310.644608,115.401471 299.960329,107.669789 292.550607,95.0670827 C285.145135,82.460104 283.821287,69.748441 289.590543,66.6762778 C295.355549,63.5977052 306.039828,71.3208417 313.447425,83.9278204 C320.855022,96.5347991 322.178869,109.248599 316.409614,112.325035" id="Fill-70" fill="#E8CF0C"></path>
                <path d="M309.258247,104.667277 C306.228759,106.33436 300.302785,101.574343 296.017168,94.0272389 C291.733662,86.4822889 290.713981,79.0062623 293.743469,77.3327178 C296.772957,75.665635 302.701042,80.425652 306.986659,87.9749096 C311.268054,95.5241673 312.283513,102.993732 309.258247,104.667277" id="Fill-72" fill="#E8CF0C"></path>
                <path d="M45.4129317,262.324775 C39.6435169,265.401203 28.9610681,257.673814 21.555392,245.073279 C14.1475909,232.464198 12.8194567,219.748296 18.5888715,216.676142 C24.3582864,213.597577 35.0407351,221.322829 42.4464112,233.93191 C49.8542124,246.534582 51.1780965,259.248347 45.4129317,262.324775" id="Fill-74" fill="#E8CF0C"></path>
                <path d="M38.2553307,253.666616 C35.2302279,255.335897 29.3003509,250.5736 25.0149646,243.026296 C20.7338003,235.4833 19.7141739,228.011383 22.7434987,226.333486 C25.7707125,224.664205 31.7027005,229.424348 35.9838648,236.973806 C40.2692512,244.523264 41.2846555,251.999489 38.2553307,253.666616" id="Fill-76" fill="#E8CF0C"></path>
                <path d="M322.974835,193.998909 C316.628775,193.873829 311.725478,181.906435 312.011939,167.269963 C312.304673,152.63137 317.688891,140.871737 324.028678,141.001056 C330.370555,141.132496 335.282217,153.09989 334.987392,167.732123 C334.696749,182.370715 329.318803,194.130349 322.974835,193.998909" id="Fill-78" fill="#E8CF0C"></path>
                <path d="M323.218619,183.999481 C320.185045,183.929084 317.85322,176.710118 318.007208,167.869871 C318.158997,159.036024 320.746004,151.930121 323.777377,152.000519 C326.81095,152.070916 329.142776,159.289882 328.993187,168.130129 C328.836999,176.963976 326.254392,184.069879 323.218619,183.999481" id="Fill-80" fill="#E8CF0C"></path>
                <g id="Group-84" transform="translate(0.000000, 135.000000)">
                    <mask id="mask-4" fill="white">
                        <use xlink:href="#path-3"></use>
                    </mask>
                    <g id="Clip-83"></g>
                    <path d="M10.9555273,52.890608 C4.62216364,52.765528 -0.272654545,40.838408 0.0117090909,26.252808 C0.306527273,11.667208 5.68016364,-0.052152 12.0093455,0.077168 C18.3385273,0.206488 23.2417091,12.133608 22.9468909,26.714968 C22.6583455,41.296328 17.2888909,53.022048 10.9555273,52.890608" id="Fill-82" fill="#E8CF0C" mask="url(#mask-4)"></path>
                </g>
                <path d="M11.2186154,176.999481 C8.18724029,176.922684 5.85321341,169.710118 6.00720199,160.869871 C6.15899073,152.036024 8.74599884,144.930121 11.777374,145.000519 C14.810949,145.070916 17.142776,152.289882 16.9931871,161.125863 C16.8369987,169.963976 14.2543903,177.069879 11.2186154,176.999481" id="Fill-85" fill="#E8CF0C"></path>
                <path d="M287.476517,264.295058 C281.787918,261.150358 283.230787,248.400647 290.704377,235.811163 C298.169467,223.223815 308.834792,215.565016 314.525515,218.703308 C320.211989,221.848008 318.766995,234.599855 311.29978,247.18293 C303.828315,259.778824 293.15874,267.437623 287.476517,264.295058" id="Fill-87" fill="#E8CF0C"></path>
                <path d="M293.686129,253.65293 C290.700901,251.944947 291.786054,244.449637 296.099223,236.909096 C300.416614,229.368556 306.332178,224.636603 309.313183,226.351047 C312.298411,228.05903 311.215368,235.554341 306.9022,243.094881 C302.589032,250.635422 296.671356,255.354452 293.686129,253.65293" id="Fill-89" fill="#E8CF0C"></path>
                <path d="M18.4734802,112.29589 C12.7912814,109.151222 14.2277684,96.3995078 21.705576,83.8101541 C29.1706337,71.2250729 39.8359126,63.5663536 45.5266113,66.7024763 C51.2130601,69.8471443 49.7659481,82.5988587 42.2945155,95.1839398 C34.8294577,107.777566 24.1599289,115.436286 18.4734802,112.29589" id="Fill-91" fill="#E8CF0C"></path>
                <path d="M25.6876291,102.652266 C22.7004883,100.944276 23.7855699,93.4510897 28.0984523,85.9105187 C32.4134457,78.3699476 38.3265068,73.6379754 41.3136475,75.3502731 C44.2986773,77.058263 43.2157068,84.5536036 38.8964912,92.0941746 C34.5878309,99.6347457 28.6726588,104.355949 25.6876291,102.652266" id="Fill-93" fill="#E8CF0C"></path>
                <path d="M222.742601,310.658897 C219.518849,305.069957 227.090073,294.429721 239.660357,286.883589 C252.232777,279.341708 265.031651,277.750029 268.255403,283.338969 C271.485564,288.925784 263.905794,299.57027 251.33551,307.118527 C238.769499,314.662533 225.964217,316.247837 222.742601,310.658897" id="Fill-95" fill="#E8CF0C"></path>
                <path d="M230.367964,303.38219 C228.614747,300.456113 233.295019,294.549069 240.822655,290.202177 C248.352444,285.84684 255.875772,284.689921 257.631143,287.615998 C259.386514,290.539964 254.708396,296.444897 247.174299,300.802344 C239.646664,305.153459 232.116874,306.310378 230.367964,303.38219" id="Fill-97" fill="#E8CF0C"></path>
                <path d="M66.74175,47.6599438 C63.5201336,42.071254 71.0913594,31.4272438 83.6616452,23.8814501 C96.231931,16.3399064 109.032943,14.7525485 112.254559,20.3369883 C115.486857,25.927803 107.907086,36.5739383 95.3346638,44.115482 C82.7686507,51.6612757 69.9633664,53.2486336 66.74175,47.6599438" id="Fill-99" fill="#E8CF0C"></path>
                <path d="M75.3670558,41.3829985 C73.6159858,38.4569847 78.2984288,32.552179 85.8260912,28.1990474 C93.3559075,23.8459157 100.877108,22.6890214 102.632486,25.6192574 C104.383556,28.541049 99.7097285,34.4458546 92.1777583,38.7989863 C84.6457882,43.1521179 77.1224334,44.3111234 75.3670558,41.3829985" id="Fill-101" fill="#E8CF0C"></path>
            </g>
        </g>
    </g>
</svg>