<?xml version="1.0" encoding="utf-8"?>
<!-- Generator: Adobe Illustrator 22.1.0, SVG Export Plug-In . SVG Version: 6.00 Build 0)  -->
<svg version="1.1" id="Layer_1" xmlns="http://www.w3.org/2000/svg" xmlns:xlink="http://www.w3.org/1999/xlink" x="0px" y="0px"
	 viewBox="0 0 300.5 821.3" style="enable-background:new 0 0 300.5 821.3;" xml:space="preserve">
<style type="text/css">
	.st0{fill:#FFFFFF;}
	.st1{fill:#22366B;}
	.st2{fill:#18294C;}
	.st3{fill:#22AA66;}
	.st4{fill:#229958;}
	.st5{fill:#209E5F;}
	.st6{fill:#25AF66;}
	.st7{fill:#E3AC81;}
	.st8{fill:#803E19;}
	.st9{fill:#FBB087;}
	.st10{fill:#EF9D65;}
	.st11{fill:#F8BA8C;}
	.st12{clip-path:url(#SVGID_2_);}
	.st13{clip-path:url(#SVGID_4_);}
	.st14{fill:#793B16;}
	.st15{fill:#EADBD5;}
	.st16{fill:#F7E88F;}
	.st17{fill:#F2D453;}
</style>
<g id="BACKGROUND">
</g>
<g id="OBJECT">
	<g>
		<g>
			<path class="st0" d="M74.8,816.7c24.4-6.5,45.1-11.1,50-14.3c3.3-2.2-0.1-10.7-0.1-10.7L98.4,778L44,800.8c0,0-1.3,5.4,1,8.6
				C48.9,814.7,62.5,819.9,74.8,816.7z"/>
			<path class="st0" d="M229.8,816.7c-24.4-6.5-45.1-11.1-50-14.3c-3.3-2.2,0.1-10.7,0.1-10.7l26.3-13.7l54.4,22.9
				c0,0,1.3,5.4-1,8.6C255.7,814.7,242.1,819.9,229.8,816.7z"/>
			<path class="st1" d="M230.3,810.8c-24.4-6.5-45.2-11-50-14.3s0-24.9,0-24.9l26.4,0.5c0,0,36.7,21.5,47.3,23.7
				C273.1,799.5,250,815.9,230.3,810.8z"/>
			<path class="st2" d="M259.9,798.2c-5.4,4-13.4,6.2-19.8,5.9c-5.9-0.3-11.4-2.1-16.8-4.4c-5.6-2.3-12.3-4.5-17.3-8
				c-7.2-5.1-10.4-12.9-15.2-19.9l-10.5-0.2c0,0-4.8,21.5,0,24.9c4.8,3.3,25.6,7.9,50,14.3C247,815.2,266.2,804,259.9,798.2z"/>
			<path class="st3" d="M151.2,501.4c6.7,10.5,18.8,58.9,20.7,119.6c2.1,65.5-1.9,157.2,4.8,161.1c11.3,6.4,37.8-3.3,40.1-10.5
				c-0.5-13.9-11.7-207.7-5.3-288.7C174.1,461.1,136,477.4,151.2,501.4z"/>
			<path class="st4" d="M192.4,772.2c-7.8-9.2-7.9-25-9.3-36.4c-2.2-18.1,0.5-35.9-2-54.1c-1.6-11.8-5.7-28.6-0.4-39.9
				c1.9-4,7.4-5.7,10.2-8.7c1.9-2-4.3-3.6-5.5-4.4c-1.7-1-2.9-3.2-3.7-5c-2.3-5.4-1.7-12.5-2.3-18.3c-1.1-9.8-1.9-19.7-2.4-29.5
				c-1.2-22.8,3.6-63-24.2-71.6c6.9,14.8,17.4,60.5,19.2,116.7c2.1,65.5-1.9,157.2,4.8,161.1c8,4.6,23.7,1,32.9-4.1
				C203.3,778.8,197.2,777.9,192.4,772.2z"/>
			<path class="st1" d="M74.8,810.8c24.4-6.5,45.2-11,50-14.3s0-24.9,0-24.9L98.4,772c0,0-36.7,21.5-47.3,23.7
				C32,799.5,55.2,815.9,74.8,810.8z"/>
			<path class="st2" d="M124.8,771.6l-14,0.3c2.4,7.1,0.2,15.5-7.9,19.7c-8.2,4.3-17.6,9-26.6,10.8c-10.1,2.1-20.8-1-31-1.2
				c-0.5,0-0.9-0.1-1.3-0.3c0.2,5.9,16.4,13.7,30.8,9.9c24.4-6.5,45.2-11,50-14.3C129.6,793.1,124.8,771.6,124.8,771.6z"/>
			<path class="st3" d="M148.1,499.5c-6.7,10.5-15.8,60.8-17.7,121.5c-2.1,65.5,3.5,157.2-3.2,161.1c-11.3,6.4-37.8-3.3-40.1-10.5
				c0.5-14.3,9.7-207.4,3.2-288.8C127.8,461,163.3,475.6,148.1,499.5z"/>
			<path class="st4" d="M148.1,499.5c0.5-0.8,0.9-1.5,1.3-2.3c-19.2,13-24.8,40.2-27.1,62.3c-1.6,15.6-0.2,31-1.4,46.5
				c-0.5,6.1-0.9,13.2-5,18.1c-2.6,3.1-5.9,5.3-9.3,7.4c3.5,2.3,7.8,4.3,9.5,8c3.3,7-1.2,11-1,18c0.3,10.1,2.6,20.1,2.6,30.3
				c0,10.3-1.1,20.5-0.9,30.8c0.3,15.1,5.4,33.8-3.4,47.5c-6,9.2-12.5,10.9-21,10.7c8.9,5.6,26.2,10,34.7,5.1
				c6.7-3.8,1.1-95.6,3.2-161.1C132.3,560.3,141.4,510.1,148.1,499.5z"/>
			<path class="st3" d="M211.6,482.9c-3.2,26.1-117,27.9-120.2,4.9c-1.5-10.9-1.5-26-0.5-34.8c0.3-2.4,0.6-4.3,1.1-5.6
				c2-6,112.9-18.2,116.1-1.7c0.4,0,1,1.7,1.7,4.5C211.4,457,213.2,470.4,211.6,482.9z"/>
			<path class="st5" d="M209.8,450.3c-1.7,1.2-3.6,2-5.6,2.8c-29.4,11.8-62.5,11.2-93.6,5.4c-6.3-1.2-13.5-2.5-19.7-5.4
				c0.3-2.4,0.6-4.3,1.1-5.6c2-6,112.9-18.2,116.1-1.7C208.5,445.7,209.1,447.4,209.8,450.3z"/>
			<path class="st5" d="M169.9,251.4c-2.7,6-12.9,27.2-23.6,29.5c0,0-24.9-1.5-35.6-29c2-0.6,3.9-1.1,5.8-1.6l0,0
				c0.2-0.1,0.4-0.2,0.6-0.3c0.1-0.1,0.3-0.2,0.4-0.3c1.3-0.9,3.3-2.5,5.4-5.4c0.1-0.2,0.2-0.3,0.3-0.5c0.2-0.3,0.4-0.6,0.6-1
				c0.1-0.2,0.2-0.4,0.3-0.6c0.5-1,0.9-2,1.2-3.2c2.1-0.1,4.6-0.2,7.2-0.3l0,0c7.4-0.2,16.2,0,23.4,1.1c0.7,2.3,1.5,3.9,2.6,5.5
				c2.3,3.3,6.3,4.7,7.4,5c0.2,0.1,0.3,0.1,0.3,0.1l0,0C167.6,250.7,168.7,251,169.9,251.4z"/>
			<path class="st5" d="M191.3,327.7c0.5,17.3,3.3,34.2,7.6,51c2.1,8.1,3.8,16.3,5.9,24.4c0.7,2.7,1.7,5.3,2.8,7.9
				c-1.5-14.8-3.8-33.3-5-56.2c-1.4-26.4,1-51.6,2.5-68.5C198,299.3,190.9,313.4,191.3,327.7z"/>
			<path class="st6" d="M151.9,447.5c-25,0.9-44.8-11.7-48.8-24.9c-4-13.1-2.8-69.5-4.6-94.1c-1.2-17-7.5-30.5-18.7-41.2
				c3.5,15.5,9.3,33.7,9.3,33.7S85.3,432.8,92,447.4c14.5,9.2,59.5,11.4,90.1,6.7C171.6,453.7,161.9,447.1,151.9,447.5z"/>
			<path class="st7" d="M166.4,250.4L166.4,250.4c-0.2,0.6-8.9,23.9-22,27c-0.8-0.2-1.7-0.4-2.5-0.6c-0.2-0.1-0.4-0.1-0.6-0.2
				c-0.3-0.1-0.6-0.2-0.8-0.3c-0.4-0.1-0.7-0.3-1.1-0.4c-0.3-0.1-0.7-0.3-1-0.5c-12-5.9-20.6-21-22.3-24.2c-0.1-0.1-0.1-0.2-0.2-0.3
				c0-0.1-0.1-0.1-0.1-0.2c0-0.1,0-0.1,0-0.1s0,0,0.1-0.1s0.3-0.1,0.5-0.2l0,0c0.2-0.1,0.4-0.2,0.6-0.3c0.1-0.1,0.3-0.2,0.4-0.3
				c1.3-0.9,3.3-2.5,5.4-5.4c0.1-0.2,0.2-0.3,0.3-0.5c0.2-0.3,0.4-0.6,0.6-1c0.1-0.2,0.2-0.4,0.3-0.6c0.5-1,0.9-2,1.2-3.2
				c0.1-0.5,0.3-1.1,0.4-1.8c0-0.3,0.1-0.5,0.1-0.8c0,0,0-0.1,0-0.2c0.1-0.5,0.1-0.9,0.2-1.5c0.2-2.3,0.2-5.2,0-8.7
				c0-0.4,0-0.8-0.1-1.3c0-0.2,0-0.4,0-0.7c0-0.1,0-0.2,0-0.4l0,0c0-0.1,0-0.2,0-0.3s0-0.3,0-0.5c0-0.1,0-0.1,0-0.2
				c0-0.1,0-0.3,0-0.5l0,0c0-0.3,0-0.6-0.1-1c0-0.3,0-0.5-0.1-0.8c0-0.2,0-0.4,0-0.6c0-0.3,0-0.6-0.1-0.9c0-0.5-0.1-1.1-0.1-1.6
				c0-0.1,0-0.2,0-0.4c0-0.1,0-0.2,0-0.3l0,0c0-0.1,0-0.1,0-0.2c0-0.2,0-0.4,0-0.6c0-0.2,0-0.4-0.1-0.6c0-0.2,0-0.4-0.1-0.6
				c0-0.2,0-0.4-0.1-0.6c0-0.2,0-0.4-0.1-0.6c0-0.2,0-0.3-0.1-0.5l0,0l0,0c0-0.1,0-0.3,0-0.4v-0.1c0-0.2,0-0.4-0.1-0.6
				c0-0.2,0-0.4-0.1-0.6c0-0.2,0-0.4-0.1-0.6c0-0.2,0-0.4-0.1-0.6c0-0.2,0-0.4-0.1-0.6c0-0.1,0-0.3,0-0.5v-0.1c0-0.2,0-0.4-0.1-0.6
				c0-0.2,0-0.4-0.1-0.6c0-0.2,0-0.4-0.1-0.6c0-0.2,0-0.4-0.1-0.6c0-0.2,0-0.3-0.1-0.5v-0.1c0-0.2,0-0.4-0.1-0.6
				c0-0.2,0-0.4-0.1-0.6c0-0.2,0-0.4,0-0.6s0-0.4,0-0.6c0-0.2,0-0.4,0-0.5l0,0c0-0.2,0-0.4,0-0.6c0-0.2,0-0.4,0-0.6l0,0
				c0-0.2,0-0.4,0-0.6v-0.1c0-0.2,0-0.3,0-0.5s0-0.4,0-0.6c0-0.2,0-0.4,0-0.6l0,0c0-0.2,0-0.4,0-0.6c0-0.2,0-0.4,0-0.5
				c0-0.2,0-0.4,0.1-0.6c0-0.2,0-0.4,0-0.6c0-0.2,0-0.4,0.1-0.6c0-0.2,0-0.4,0.1-0.6c0-0.2,0.1-0.4,0.1-0.5V195c0-0.1,0-0.3,0.1-0.4
				c0-0.2,0.1-0.4,0.1-0.5c0-0.2,0.1-0.4,0.1-0.6c0-0.2,0.1-0.4,0.1-0.5c0-0.2,0.1-0.3,0.1-0.5l0,0c0.1-0.2,0.1-0.4,0.2-0.5
				c0-0.2,0.1-0.4,0.2-0.5c0.1-0.2,0.1-0.4,0.2-0.5c0.1-0.2,0.1-0.4,0.2-0.5c0.1-0.2,0.1-0.4,0.2-0.5c0.1-0.2,0.2-0.4,0.2-0.5
				c0.1-0.2,0.2-0.4,0.2-0.5c0.1-0.2,0.2-0.3,0.3-0.5c0.1-0.2,0.2-0.3,0.3-0.5c0.1-0.2,0.2-0.4,0.3-0.5c0.1-0.2,0.2-0.3,0.3-0.5
				c0.1-0.2,0.2-0.3,0.3-0.5c0.1-0.2,0.2-0.3,0.4-0.5c0.1-0.2,0.3-0.3,0.4-0.5c0.1-0.2,0.3-0.4,0.4-0.5c0.2-0.2,0.3-0.3,0.5-0.5
				s0.3-0.3,0.5-0.5s0.3-0.3,0.5-0.5l0,0c0.2-0.2,0.4-0.3,0.6-0.5c0.2-0.2,0.4-0.3,0.7-0.5s0.5-0.3,0.8-0.5s0.6-0.3,0.9-0.5
				c0.4-0.2,0.7-0.4,1.1-0.5l0,0c0.5-0.2,1-0.4,1.5-0.5c0.2-0.1,0.4-0.1,0.6-0.1c0.2,0,0.4-0.1,0.6-0.1c1.2-0.2,2.5-0.2,3.7,0
				c0.2,0,0.4,0.1,0.6,0.1c0.1,0,0.2,0,0.4,0.1l0,0c0.5,0.1,1,0.3,1.5,0.5c0.4,0.1,0.7,0.3,1.1,0.5l0,0c0.3,0.1,0.6,0.3,0.9,0.5
				c0.3,0.1,0.5,0.3,0.8,0.5c0.2,0.1,0.5,0.3,0.7,0.5c0.2,0.1,0.4,0.3,0.6,0.5c0.2,0.1,0.4,0.3,0.6,0.5c0.2,0.2,0.3,0.3,0.5,0.5
				s0.3,0.3,0.5,0.5c0.1,0.2,0.3,0.3,0.4,0.5c0.1,0.2,0.3,0.3,0.4,0.5c0.1,0.2,0.3,0.3,0.4,0.5c0.1,0.2,0.2,0.3,0.4,0.5
				c0.1,0.2,0.2,0.3,0.3,0.5s0.2,0.3,0.3,0.5s0.2,0.3,0.3,0.5s0.2,0.4,0.3,0.5c0.1,0.2,0.2,0.3,0.2,0.5c0.1,0.2,0.2,0.3,0.2,0.5l0,0
				c0,0.1,0.1,0.1,0.1,0.2c0,0.1,0.1,0.2,0.1,0.4c0.1,0.2,0.1,0.3,0.2,0.5c0.1,0.2,0.1,0.4,0.2,0.5c0,0,0,0,0,0.1s0.1,0.3,0.1,0.5
				c0.1,0.2,0.1,0.4,0.2,0.5c0.1,0.2,0.1,0.4,0.1,0.5c0,0.2,0.1,0.4,0.1,0.6c0,0.2,0.1,0.4,0.1,0.5l0,0c0,0.2,0.1,0.4,0.1,0.5
				c0,0.2,0.1,0.4,0.1,0.5c0,0.2,0.1,0.4,0.1,0.6c0,0.2,0,0.4,0.1,0.5c0,0.2,0,0.4,0.1,0.6c0,0.2,0,0.4,0.1,0.6c0,0.2,0,0.4,0,0.5
				c0,0.2,0,0.4,0,0.6c0,0.2,0,0.4,0,0.6v0.1c0,0.1,0,0.3,0,0.4c0,0.2,0,0.4,0,0.6c0,0.2,0,0.4,0,0.6l0,0c0,0.2,0,0.4,0,0.6
				c0,0.2,0,0.4,0,0.6c0,0.2,0,0.4,0,0.6v0.1c0,0.2,0,0.3,0,0.5s0,0.4,0,0.6s0,0.4,0,0.6c0,0.2,0,0.4,0,0.6c0,0.2,0,0.4,0,0.6
				c0,0.2,0,0.4,0,0.6l0,0c0,0.2,0,0.4,0,0.6c0,0.2,0,0.4,0,0.6v0.6c0,0.2,0,0.4,0,0.6c0,0.2,0,0.4,0,0.6c0,0.2,0,0.4,0,0.6
				s0,0.4,0,0.6v0.6c0,0.2,0,0.4,0,0.5v0.6c0,0.2,0,0.4,0,0.6s0,0.4,0,0.6c0,0.2,0,0.4,0,0.5v0.6c0,0.2,0,0.4,0,0.6
				c0,0.2,0,0.4,0,0.6v0.4c0,2.3,0,4.3,0.1,6.2c0,0.2,0,0.4,0,0.6c0.2,8.3,0.8,13.4,1.8,17c0.7,2.3,1.5,3.9,2.6,5.5
				c2.3,3.3,6.3,4.7,7.4,5C166.3,250.4,166.4,250.4,166.4,250.4z"/>
			<g>
				<path class="st8" d="M74.4,126.7c0,0-1.7,35.7-9.3,46.4c0,0-13.7,19.4,2.5,37.8s-7.2,45.9-7.2,45.9H139V122.1L74.4,126.7z"/>
				<path class="st8" d="M207.7,126.8c0,0,0.2,35.6,7.8,46.3c0,0,13.7,19.4-2.5,37.8s7.2,45.9,7.2,45.9h-78.5V122.1L207.7,126.8z"/>
				<path class="st8" d="M203.4,137.9c0,34.8-28.2,62.9-62.9,62.9s-62.9-28.2-62.9-62.9c0-34.8,28.2-57.6,62.9-57.6
					S203.4,103.1,203.4,137.9z"/>
				<g>
					<g>
						<g>
							<path class="st9" d="M95.6,171.9c3.2,7.2,3,18.9-3.9,21.5s-15-6.7-18.3-14c-3.2-7.2-1.3-13.5,5.6-16.1
								C85.9,160.7,92.4,164.6,95.6,171.9z"/>
						</g>
					</g>
					<line class="st10" x1="81.1" y1="172" x2="92.6" y2="181.1"/>
				</g>
				<g>
					<g>
						<g>
							<path class="st9" d="M186.1,171.9c-3.2,7.2-3,18.9,3.9,21.5s15-6.7,18.3-14c3.2-7.2,1.3-13.5-5.6-16.1
								C195.8,160.7,189.3,164.6,186.1,171.9z"/>
						</g>
					</g>
					<line class="st10" x1="201.8" y1="172" x2="190.3" y2="181.1"/>
				</g>
				<path class="st8" d="M198.4,162.5c0,0-25.1,37-57,37s-58.8-37-58.8-37c0-30.6,26.9-74,58.8-74S198.4,131.8,198.4,162.5z"/>
				<g>
					<polygon class="st7" points="124.7,211.6 117.4,283.5 160.5,283.5 153.1,210.9 					"/>
					<polygon class="st10" points="123.7,223.8 157.2,249.7 153.6,214.9 					"/>
				</g>
				<g>
					<g>
						<path id="XMLID_18_" class="st11" d="M141.4,92.3L141.4,92.3c-26.7,0-50.3,23.4-50.3,48.9l1.5,30.6c0,0,0.6,43.4,41.7,56.6
							c4.6,1.5,9.5,1.5,14.1,0c41.2-13.2,41.7-56.6,41.7-56.6l1.5-30.6C191.7,115.7,168.1,92.3,141.4,92.3z"/>
					</g>
				</g>
				<g>
					<g>
						<g>
							<g>
								<path id="XMLID_17_" class="st0" d="M153.2,161.8c0,0,0.1-6.5,12.5-5.6c11.1,0.8,12.4,5.8,12.4,5.8s-1.6,7.5-13.8,7.7
									C152.1,170,153.2,161.8,153.2,161.8z"/>
							</g>
							<g>
								<defs>
									<path id="SVGID_1_" d="M153.2,161.8c0,0,0.1-6.5,12.5-5.6c11.1,0.8,12.4,5.8,12.4,5.8s-1.6,7.5-13.8,7.7
										C152.1,170,153.2,161.8,153.2,161.8z"/>
								</defs>
								<clipPath id="SVGID_2_">
									<use xlink:href="#SVGID_1_"  style="overflow:visible;"/>
								</clipPath>
								<path class="st12" d="M172.7,163.3c0,4.6-3.5,8.4-7.8,8.3c-4.3,0-7.7-3.8-7.7-8.5c0-4.6,3.5-8.4,7.8-8.3
									C169.3,154.8,172.7,158.6,172.7,163.3z"/>
							</g>
						</g>
						<g>
							<path d="M151.9,158.5c0.6-0.5,1.1-0.8,1.7-1.1c0.6-0.3,1.1-0.6,1.7-0.9c1.2-0.5,2.3-0.9,3.5-1.2c2.4-0.6,4.9-0.8,7.3-0.6
								c2.5,0.2,4.9,0.8,7.1,2c2.1,1.2,4,2.9,5.2,5.1c0.1,0.2,0,0.5-0.2,0.6s-0.5,0.1-0.6-0.1l0,0c-1.2-1.8-3.1-3.3-5.1-4.3
								s-4.3-1.4-6.5-1.4s-4.5,0.4-6.6,1c-1.1,0.3-2.1,0.8-3.1,1.3c-0.5,0.3-1,0.5-1.4,0.8s-0.9,0.6-1.2,0.9l0,0
								c-0.6,0.5-1.5,0.5-2-0.1S151.3,159.1,151.9,158.5C151.9,158.6,151.9,158.5,151.9,158.5z"/>
						</g>
					</g>
					<g>
						<g>
							<g>
								<path id="XMLID_16_" class="st0" d="M127.8,161.8c0,0-0.1-6.5-12.5-5.6c-11.1,0.8-12.4,5.8-12.4,5.8s1.5,7.5,13.7,7.7
									C128.8,170,127.8,161.8,127.8,161.8z"/>
							</g>
							<g>
								<defs>
									<path id="SVGID_3_" d="M127.8,161.8c0,0-0.1-6.5-12.5-5.6c-11.1,0.8-12.4,5.8-12.4,5.8s1.5,7.5,13.7,7.7
										C128.8,170,127.8,161.8,127.8,161.8z"/>
								</defs>
								<clipPath id="SVGID_4_">
									<use xlink:href="#SVGID_3_"  style="overflow:visible;"/>
								</clipPath>
								<path class="st13" d="M108.2,163.2c0,4.6,3.5,8.4,7.8,8.3c4.3,0,7.7-3.8,7.7-8.5c0-4.6-3.5-8.4-7.8-8.3
									C111.6,154.8,108.1,158.6,108.2,163.2z"/>
							</g>
						</g>
						<g>
							<path d="M127.1,160.6c-0.3-0.3-0.8-0.6-1.2-0.9c-0.4-0.3-0.9-0.6-1.4-0.8c-1-0.5-2-0.9-3.1-1.3c-2.1-0.7-4.4-1-6.6-1
								s-4.5,0.4-6.5,1.4s-3.9,2.4-5.1,4.3l0,0c-0.1,0.2-0.4,0.3-0.6,0.1c-0.2-0.1-0.3-0.4-0.1-0.6c1.2-2.2,3.1-3.9,5.2-5.1
								c2.1-1.2,4.6-1.9,7.1-2c2.5-0.2,4.9,0.1,7.3,0.6c1.2,0.3,2.4,0.7,3.5,1.2c0.6,0.3,1.1,0.5,1.7,0.9c0.6,0.3,1.1,0.6,1.7,1.1
								c0.6,0.5,0.7,1.4,0.2,2S127.8,161.2,127.1,160.6C127.2,160.7,127.1,160.7,127.1,160.6L127.1,160.6z"/>
						</g>
					</g>
					<path class="st14" d="M148.4,136c0,0,14.2-13.1,34.9,5L148.4,136z"/>
					<path class="st14" d="M132.5,136c0,0-14.2-13.1-34.9,5L132.5,136z"/>
					<path class="st0" d="M127.5,191.9h27.3c0,0-1.5,8.9-13.7,8.9C128.8,200.8,127.5,191.9,127.5,191.9z"/>
				</g>
				<path class="st8" d="M123.7,95.8c0,0-15.9,4.5-19.1,21c-3.3,17.5-19.9,31.7-19.9,31.7s7.1-41.9,7.8-43.2
					C93.3,104,123.7,95.8,123.7,95.8z"/>
				<path class="st8" d="M123.7,95.8c0,0,15.7-8.6,23.9,10.3c9.6,22.3,49.3,29.4,49.3,29.4S202,109,176.1,98
					C150.3,86.9,139.5,86.6,123.7,95.8z"/>
				<path class="st8" d="M120.8,82.9c0,0,12.5-14.2,39.7-7.9c22.8,5.3,45.9,22.7,47.1,51.7l-10.3,9.4L157.2,95L120.8,82.9z"/>
				<path class="st8" d="M120.8,82.9c0,0-19.7-5.4-35.2,12.9C65,120.2,79.2,152,79.2,152l25.1-45.5L120.8,82.9z"/>
			</g>
			<path class="st15" d="M78.6,338.2c-2.2,8.2-5.1,17.6-9.9,24.7c-1.4,2-2.9,4.9-5.2,6c-4.9,2.5-3.1,5.5,0,8.6
				c13,12.9,6.9,31.4,10.3,47.8c2,9.6,4.4,19.2,6.7,28.6c2,7.7,5.6,14.2,10.1,20.4c-3.4-17.8-15.5-82.6-13.3-104.3
				c2.9-28,13.3-56.6,13.3-56.6s0-4.4-0.3-10.6c-1.2,2.9-2.5,5.8-3.6,8.7C83.3,320.3,81,329.2,78.6,338.2z"/>
		</g>
	</g>
	<path class="st11" d="M228.2,481.9l-17-2.4c0,0,10-84.7,5.4-109.7c-5.1-27.7-17.9-55.3-17.9-55.3s-6.9-55.1,6.3-49.7
		s32.8,66.9,36.6,105.5C244.4,400,228.2,481.9,228.2,481.9z"/>
	<path class="st11" d="M74.7,482.7l16.8-3.8c0,0-16.8-83.6-14.2-108.9c2.9-28,13.3-56.6,13.3-56.6s1.3-55.2-11.3-48.7
		c-12.7,6.5-26.2,69.1-26.9,107.8C51.9,402.4,74.7,482.7,74.7,482.7z"/>
	<g>
		<path class="st16" d="M216.5,278.4c-9.6-22.5-46.2-27.6-46.2-27.6l-2.7,0.4l-10.7,8.7l-7.9,4h-5.6l-11.8-1.1h-6l-2.9-2.9l-9-9.1
			c-3.1,0.9-8.7,2.6-18.6,5.4c-33.4,9.7-35,46-41.5,88.1c-1.5,9.5-1.8,19.1-1.5,28.3c9.1,7.1,18.6,13.6,29,18.7
			c-0.1-2.8-0.1-5.8-0.1-9c-0.1-7.9,0.4-15.6,1.1-22.7l0,0c2-19.7,6.1-34.5,6.1-34.5S87,348,86.3,357c-0.6,9,5.5,87,2.4,92.3
			s-0.4,99.9-0.4,99.9s-3.7,103.6-3.2,120.1c0.6,16.1,138.7,11.9,135.9-21.6c-0.1-0.7-0.2-1.3-0.3-2c-8.6-35.4-7.5-196.6-7.5-196.6
			l-8.1-108.8c0,0,8.3,13,12.4,30.5c1.3,5.7,1.8,13.6,1.9,21.8c0.2,0,0.3-0.1,0.5-0.1c1.9-0.3,3.7-0.3,5.4-0.1c1-0.9,4-3.2,3.8-1.7
			s1.3,1.2,1.5,1.1c3.5-4,7.7-5.5,12.9-14.5C243.5,339.1,225.1,298.5,216.5,278.4z"/>
		<path class="st17" d="M84.8,669.2C84.2,652.8,88,549.1,88,549.1s-2.7-94.7,0.4-99.9c3.1-5.3-3.1-83.3-2.4-92.3
			c0.6-9,1.8-31.8,1.8-31.8s-4.1,14.8-6.1,34.5c-0.3-14.9,1.6-29.1,9.1-40.6c7.7,4.8,8.9,31.8,10.1,40.7c1.9,14.8,2.8,29.7,3,44.6
			c0.4,30.4-1.8,60.7-3.1,91.1c-1.5,35-1.3,71.3,13.1,103.2c14.4,31.9,46.8,58.2,81.7,54.8c8.6-0.8,17-3.4,25.3-5.9
			C223.5,681.1,85.3,685.3,84.8,669.2z"/>
	</g>
	<path class="st17" d="M159.9,245.7c-3.1,7.7-10.6,16.3-19.3,16.3c-8.8,0-16.2-8.6-19.3-16.3c0,0-11.2,4.2-10.3,6.1
		c3.6,7.7,10.2,17.8,18.2,20.8c3.6,1.3,7.4-7.3,11.5-7.3c3.9,0,7.2,7.5,10.6,6.3c8.4-3,15.5-12,19.1-20
		C171.2,249.6,159.9,245.7,159.9,245.7z"/>
	<g>
		<path class="st11" d="M230.4,497c1.6-5.7-6.4-26.4-11.2-26.3c-4,0.1-10.4,16.1-10.2,23.7c1.6,0.9,2.7,3.9,3.3,5.4
			C213,501.4,228.8,502.7,230.4,497z"/>
		<path class="st11" d="M218,516.4c-0.3-4.1-0.7-10.6-0.6-16.3c1.3-0.1,2.6-0.4,3.9-0.8c0.8,5.3,1.2,12,1.4,16c0.3,5.8-0.5,8.8-2,9
			C219.2,524.5,218.4,521.8,218,516.4z"/>
		<path class="st11" d="M223.6,514.2c-0.6-3.9-1.4-9.9-1.6-15.3c1.3-0.1,2.9-0.6,4.1-1.1c1.1,4.9,1.5,11.4,2,15.2
			c0.7,5.5,0.1,8.3-1.4,8.5C225.4,521.7,224.4,519.2,223.6,514.2z"/>
		<path class="st11" d="M228.3,510.5c-0.5-3.3-1.2-8.5-1.3-13c1.1-0.1,2.5-0.5,3.5-0.9c1,4.2,1.3,9.7,1.7,13
			c0.6,4.7,0.1,7.1-1.2,7.3C229.7,516.9,228.9,514.8,228.3,510.5z"/>
		<path class="st11" d="M211.8,514.6c0.1-3.9,0.1-11.4,0.8-16.7c1.3,0.1,3.2,1.3,4.4,1c0.3,5-0.4,11.5-0.6,15.3
			c-0.2,5.5-1.3,8.2-2.8,8.2C212.3,522.3,211.7,519.6,211.8,514.6z"/>
		<path class="st11" d="M202.8,493c3.1-2.4,5.7-11,10.3-13.7c0.7,1.1,4.2,6.5,5.2,7.3c-3.8,3.3-8.3,7.2-11.4,9.4
			c-4.5,3.1-8.2,1.9-9.1,0.7C197.1,495.6,201.3,494.2,202.8,493z"/>
	</g>
	<path class="st16" d="M228.2,481.9l-17-2.4c0,0,10-84.7,5.4-109.7c-5.1-27.7-17.9-55.3-17.9-55.3s-6.9-55.1,6.3-49.7
		s34.7,66.8,38.5,105.3C246.3,399.8,228.2,481.9,228.2,481.9z"/>
	<g>
		<path class="st11" d="M73.8,498c-2-5.5,4.2-26.8,9-27.1c4-0.2,11.7,15.3,12.1,22.8c-1.5,1-2.4,4.1-2.9,5.7
			C91.4,500.9,75.8,503.5,73.8,498z"/>
		<path class="st11" d="M87.7,516.3c0-4.1-0.1-10.7-0.7-16.3c-1.3,0-2.6-0.1-3.9-0.5c-0.4,5.3-0.2,12-0.1,16.1
			c0.1,5.9,1.2,8.8,2.8,8.8C87.1,524.5,87.7,521.7,87.7,516.3z"/>
		<path class="st11" d="M81.9,514.6c0.3-3.9,0.5-10,0.3-15.3c-1.3,0-3-0.4-4.2-0.8c-0.7,5-0.6,11.5-0.7,15.3
			c-0.2,5.5,0.6,8.3,2.1,8.4C80.7,522.2,81.5,519.6,81.9,514.6z"/>
		<path class="st11" d="M76.9,511.3c0.2-3.3,0.5-8.5,0.3-13.1c-1.1,0-2.5-0.3-3.6-0.7c-0.6,4.3-0.5,9.8-0.6,13
			c-0.2,4.7,0.5,7.1,1.8,7.1C76,517.8,76.7,515.6,76.9,511.3z"/>
		<path class="st11" d="M93.7,514c-0.4-3.9-1-11.4-2.1-16.6c-1.3,0.2-3.1,1.5-4.3,1.4c0.1,5,1.3,11.4,1.8,15.2
			c0.7,5.5,2,8.1,3.5,7.9C93.8,521.7,94.2,519,93.7,514z"/>
		<path class="st11" d="M100.8,491.7c-3.2-2.2-6.6-10.5-11.4-12.8c-0.6,1.2-3.7,6.8-4.6,7.7c4.1,3,8.8,6.5,12.1,8.4
			c4.8,2.8,8.3,1.3,9.1,0C106.8,493.9,102.5,492.8,100.8,491.7z"/>
	</g>
	<path class="st16" d="M74.7,482.7l16.8-3.8c0,0-12.9-83.3-10.3-108.6c2.9-28,9.4-56.9,9.4-56.9s1.3-55.2-11.3-48.7
		c-12.7,6.5-26.2,69.1-26.9,107.8C51.9,402.4,74.7,482.7,74.7,482.7z"/>
	<path class="st10" d="M140.2,182.4c-4.2,0-7.8-1.8-8.7-4.3c-0.1,0.4-0.2,0.8-0.2,1.3c0,3.1,4,5.5,8.9,5.5s8.9-2.5,8.9-5.5
		c0-0.4-0.1-0.9-0.2-1.3C148,180.6,144.4,182.4,140.2,182.4z"/>
</g>
</svg>
