<?xml version="1.0" encoding="utf-8"?>
<!-- Generator: Adobe Illustrator 22.1.0, SVG Export Plug-In . SVG Version: 6.00 Build 0)  -->
<svg version="1.1" id="Layer_1" xmlns="http://www.w3.org/2000/svg" xmlns:xlink="http://www.w3.org/1999/xlink" x="0px" y="0px"
	 viewBox="0 0 300.5 821.3" style="enable-background:new 0 0 300.5 821.3;" xml:space="preserve">
<style type="text/css">
	.st0{fill:#FFFFFF;}
	.st1{fill:#22366B;}
	.st2{fill:#18294C;}
	.st3{fill:#22AA66;}
	.st4{fill:#229958;}
	.st5{fill:#209E5F;}
	.st6{fill:#803E19;}
	.st7{fill:#FBB087;}
	.st8{fill:#EF9D65;}
	.st9{fill:#E3AC81;}
	.st10{fill:#F8BA8C;}
	.st11{clip-path:url(#SVGID_2_);}
	.st12{clip-path:url(#SVGID_4_);}
	.st13{fill:#793B16;}
	.st14{fill:#24BF77;}
	.st15{fill:#24AA63;}
	.st16{fill:none;stroke:#FFFFFF;stroke-width:2.27;stroke-linecap:round;stroke-linejoin:round;}
	.st17{fill:none;stroke:#FFFFFF;stroke-width:1.89;stroke-linecap:round;stroke-linejoin:round;}
	.st18{fill:none;stroke:#FFFFFF;stroke-width:0.91;stroke-linecap:round;stroke-linejoin:round;}
</style>
<g id="BACKGROUND">
</g>
<g id="OBJECT">
	<path class="st0" d="M74.8,816.7c24.4-6.5,45.1-11.1,50-14.3c3.3-2.2-0.1-10.7-0.1-10.7L98.4,778L44,800.8c0,0-1.3,5.4,1,8.6
		C48.9,814.7,62.5,819.9,74.8,816.7z"/>
	<path class="st0" d="M229.8,816.7c-24.4-6.5-45.1-11.1-50-14.3c-3.3-2.2,0.1-10.7,0.1-10.7l26.3-13.7l54.4,22.9c0,0,1.3,5.4-1,8.6
		C255.7,814.7,242.1,819.9,229.8,816.7z"/>
	<path class="st1" d="M230.3,810.8c-24.4-6.5-45.2-11-50-14.3s0-24.9,0-24.9l26.4,0.5c0,0,36.7,21.5,47.3,23.7
		C273.1,799.5,250,815.9,230.3,810.8z"/>
	<path class="st2" d="M259.9,798.2c-5.4,4-13.4,6.2-19.8,5.9c-5.9-0.3-11.4-2.1-16.8-4.4c-5.6-2.3-12.3-4.5-17.3-8
		c-7.2-5.1-10.4-12.9-15.2-19.9l-10.5-0.2c0,0-4.8,21.5,0,24.9c4.8,3.3,25.6,7.9,50,14.3C247,815.2,266.2,804,259.9,798.2z"/>
	<path class="st3" d="M151.2,501.4c6.7,10.5,18.8,58.9,20.7,119.6c2.1,65.5-1.9,157.2,4.8,161.1c11.3,6.4,37.8-3.3,40.1-10.5
		c-0.5-13.9-11.7-207.7-5.3-288.7C174.1,461.1,136,477.4,151.2,501.4z"/>
	<path class="st4" d="M192.4,772.2c-7.8-9.2-7.9-25-9.3-36.4c-2.2-18.1,0.5-35.9-2-54.1c-1.6-11.8-5.7-28.6-0.4-39.9
		c1.9-4,7.4-5.7,10.2-8.7c1.9-2-4.3-3.6-5.5-4.4c-1.7-1-2.9-3.2-3.7-5c-2.3-5.4-1.7-12.5-2.3-18.3c-1.1-9.8-1.9-19.7-2.4-29.5
		c-1.2-22.8,3.6-63-24.2-71.6c6.9,14.8,17.4,60.5,19.2,116.7c2.1,65.5-1.9,157.2,4.8,161.1c8,4.6,23.7,1,32.9-4.1
		C203.3,778.8,197.2,777.9,192.4,772.2z"/>
	<path class="st1" d="M74.8,810.8c24.4-6.5,45.2-11,50-14.3s0-24.9,0-24.9L98.4,772c0,0-36.7,21.5-47.3,23.7
		C32,799.5,55.2,815.9,74.8,810.8z"/>
	<path class="st2" d="M124.8,771.6l-14,0.3c2.4,7.1,0.2,15.5-7.9,19.7c-8.2,4.3-17.6,9-26.6,10.8c-10.1,2.1-20.8-1-31-1.2
		c-0.5,0-0.9-0.1-1.3-0.3c0.2,5.9,16.4,13.7,30.8,9.9c24.4-6.5,45.2-11,50-14.3C129.6,793.1,124.8,771.6,124.8,771.6z"/>
	<path class="st3" d="M148.1,499.5c-6.7,10.5-15.8,60.8-17.7,121.5c-2.1,65.5,3.5,157.2-3.2,161.1c-11.3,6.4-37.8-3.3-40.1-10.5
		c0.5-14.3,9.7-207.4,3.2-288.8C127.8,461,163.3,475.6,148.1,499.5z"/>
	<path class="st4" d="M148.1,499.5c0.5-0.8,0.9-1.5,1.3-2.3c-19.2,13-24.8,40.2-27.1,62.3c-1.6,15.6-0.2,31-1.4,46.5
		c-0.5,6.1-0.9,13.2-5,18.1c-2.6,3.1-5.9,5.3-9.3,7.4c3.5,2.3,7.8,4.3,9.5,8c3.3,7-1.2,11-1,18c0.3,10.1,2.6,20.1,2.6,30.3
		c0,10.3-1.1,20.5-0.9,30.8c0.3,15.1,5.4,33.8-3.4,47.5c-6,9.2-12.5,10.9-21,10.7c8.9,5.6,26.2,10,34.7,5.1
		c6.7-3.8,1.1-95.6,3.2-161.1C132.3,560.3,141.4,510.1,148.1,499.5z"/>
	<path class="st3" d="M211.6,482.9c-3.2,26.1-117,27.9-120.2,4.9c-1.5-10.9-1.5-26-0.5-34.8c0.3-2.4,0.6-4.3,1.1-5.6
		c2-6,112.9-18.2,116.1-1.7c0.4,0,1,1.7,1.7,4.5C211.4,457,213.2,470.4,211.6,482.9z"/>
	<path class="st5" d="M209.8,450.3c-1.7,1.2-3.6,2-5.6,2.8c-29.4,11.8-62.5,11.2-93.6,5.4c-6.3-1.2-13.5-2.5-19.7-5.4
		c0.3-2.4,0.6-4.3,1.1-5.6c2-6,112.9-18.2,116.1-1.7C208.5,445.7,209.1,447.4,209.8,450.3z"/>
	<g>
		<path class="st6" d="M74.4,126.7c0,0-1.7,35.7-9.3,46.4c0,0-13.7,19.4,2.5,37.8s-7.2,45.9-7.2,45.9H139V122.1L74.4,126.7z"/>
		<path class="st6" d="M207.7,126.8c0,0,0.2,35.6,7.8,46.3c0,0,13.7,19.4-2.5,37.8s7.2,45.9,7.2,45.9h-78.5V122.1L207.7,126.8z"/>
		<path class="st6" d="M203.4,137.9c0,34.8-28.2,62.9-62.9,62.9s-62.9-28.2-62.9-62.9c0-34.8,28.2-57.6,62.9-57.6
			S203.4,103.1,203.4,137.9z"/>
		<g>
			<g>
				<g>
					<path class="st7" d="M95.6,171.9c3.2,7.2,3,18.9-3.9,21.5s-15-6.7-18.3-14c-3.2-7.2-1.3-13.5,5.6-16.1
						C85.9,160.7,92.4,164.6,95.6,171.9z"/>
				</g>
			</g>
			<line class="st8" x1="81.1" y1="172" x2="92.6" y2="181.1"/>
		</g>
		<g>
			<g>
				<g>
					<path class="st7" d="M186.1,171.9c-3.2,7.2-3,18.9,3.9,21.5s15-6.7,18.3-14c3.2-7.2,1.3-13.5-5.6-16.1
						C195.8,160.7,189.3,164.6,186.1,171.9z"/>
				</g>
			</g>
			<line class="st8" x1="201.8" y1="172" x2="190.3" y2="181.1"/>
		</g>
		<path class="st6" d="M198.4,162.5c0,0-25.1,37-57,37s-58.8-37-58.8-37c0-30.6,26.9-74,58.8-74S198.4,131.8,198.4,162.5z"/>
		<g>
			<polygon class="st9" points="124.7,211.6 117.4,283.5 160.5,283.5 153.1,210.9 			"/>
			<polygon class="st8" points="123.7,223.8 157.2,249.7 153.6,214.9 			"/>
		</g>
		<g>
			<g>
				<path id="XMLID_12_" class="st10" d="M141.4,92.3L141.4,92.3c-26.7,0-50.3,23.4-50.3,48.9l1.5,30.6c0,0,0.6,43.4,41.7,56.6
					c4.6,1.5,9.5,1.5,14.1,0c41.2-13.2,41.7-56.6,41.7-56.6l1.5-30.6C191.7,115.7,168.1,92.3,141.4,92.3z"/>
			</g>
		</g>
		<g>
			<g>
				<g>
					<g>
						<path id="XMLID_11_" class="st0" d="M153.2,161.8c0,0,0.1-6.5,12.5-5.6c11.1,0.8,12.4,5.8,12.4,5.8s-1.6,7.5-13.8,7.7
							C152.1,170,153.2,161.8,153.2,161.8z"/>
					</g>
					<g>
						<defs>
							<path id="SVGID_1_" d="M153.2,161.8c0,0,0.1-6.5,12.5-5.6c11.1,0.8,12.4,5.8,12.4,5.8s-1.6,7.5-13.8,7.7
								C152.1,170,153.2,161.8,153.2,161.8z"/>
						</defs>
						<clipPath id="SVGID_2_">
							<use xlink:href="#SVGID_1_"  style="overflow:visible;"/>
						</clipPath>
						<path class="st11" d="M172.7,163.3c0,4.6-3.5,8.4-7.8,8.3c-4.3,0-7.7-3.8-7.7-8.5c0-4.6,3.5-8.4,7.8-8.3
							C169.3,154.8,172.7,158.6,172.7,163.3z"/>
					</g>
				</g>
				<g>
					<path d="M151.9,158.5c0.6-0.5,1.1-0.8,1.7-1.1c0.6-0.3,1.1-0.6,1.7-0.9c1.2-0.5,2.3-0.9,3.5-1.2c2.4-0.6,4.9-0.8,7.3-0.6
						c2.5,0.2,4.9,0.8,7.1,2c2.1,1.2,4,2.9,5.2,5.1c0.1,0.2,0,0.5-0.2,0.6s-0.5,0.1-0.6-0.1l0,0c-1.2-1.8-3.1-3.3-5.1-4.3
						s-4.3-1.4-6.5-1.4s-4.5,0.4-6.6,1c-1.1,0.3-2.1,0.8-3.1,1.3c-0.5,0.3-1,0.5-1.4,0.8s-0.9,0.6-1.2,0.9l0,0
						c-0.6,0.5-1.5,0.5-2-0.1S151.3,159.1,151.9,158.5C151.9,158.6,151.9,158.5,151.9,158.5z"/>
				</g>
			</g>
			<g>
				<g>
					<g>
						<path id="XMLID_10_" class="st0" d="M127.8,161.8c0,0-0.1-6.5-12.5-5.6c-11.1,0.8-12.4,5.8-12.4,5.8s1.5,7.5,13.7,7.7
							C128.8,170,127.8,161.8,127.8,161.8z"/>
					</g>
					<g>
						<defs>
							<path id="SVGID_3_" d="M127.8,161.8c0,0-0.1-6.5-12.5-5.6c-11.1,0.8-12.4,5.8-12.4,5.8s1.5,7.5,13.7,7.7
								C128.8,170,127.8,161.8,127.8,161.8z"/>
						</defs>
						<clipPath id="SVGID_4_">
							<use xlink:href="#SVGID_3_"  style="overflow:visible;"/>
						</clipPath>
						<path class="st12" d="M108.2,163.2c0,4.6,3.5,8.4,7.8,8.3c4.3,0,7.7-3.8,7.7-8.5c0-4.6-3.5-8.4-7.8-8.3
							C111.6,154.8,108.1,158.6,108.2,163.2z"/>
					</g>
				</g>
				<g>
					<path d="M127.1,160.6c-0.3-0.3-0.8-0.6-1.2-0.9c-0.4-0.3-0.9-0.6-1.4-0.8c-1-0.5-2-0.9-3.1-1.3c-2.1-0.7-4.4-1-6.6-1
						s-4.5,0.4-6.5,1.4s-3.9,2.4-5.1,4.3l0,0c-0.1,0.2-0.4,0.3-0.6,0.1c-0.2-0.1-0.3-0.4-0.1-0.6c1.2-2.2,3.1-3.9,5.2-5.1
						c2.1-1.2,4.6-1.9,7.1-2c2.5-0.2,4.9,0.1,7.3,0.6c1.2,0.3,2.4,0.7,3.5,1.2c0.6,0.3,1.1,0.5,1.7,0.9c0.6,0.3,1.1,0.6,1.7,1.1
						c0.6,0.5,0.7,1.4,0.2,2S127.8,161.2,127.1,160.6C127.2,160.7,127.1,160.7,127.1,160.6L127.1,160.6z"/>
				</g>
			</g>
			<path class="st13" d="M148.4,136c0,0,14.2-13.1,34.9,5L148.4,136z"/>
			<path class="st13" d="M132.5,136c0,0-14.2-13.1-34.9,5L132.5,136z"/>
			<path class="st0" d="M127.5,191.9h27.3c0,0-1.5,8.9-13.7,8.9C128.8,200.8,127.5,191.9,127.5,191.9z"/>
		</g>
		<path class="st6" d="M123.7,95.8c0,0-15.9,4.5-19.1,21c-3.3,17.5-19.9,31.7-19.9,31.7s7.1-41.9,7.8-43.2
			C93.3,104,123.7,95.8,123.7,95.8z"/>
		<path class="st6" d="M123.7,95.8c0,0,15.7-8.6,23.9,10.3c9.6,22.3,49.3,29.4,49.3,29.4S202,109,176.1,98
			C150.3,86.9,139.5,86.6,123.7,95.8z"/>
		<path class="st6" d="M120.8,82.9c0,0,12.5-14.2,39.7-7.9c22.8,5.3,45.9,22.7,47.1,51.7l-10.3,9.4L157.2,95L120.8,82.9z"/>
		<path class="st6" d="M120.8,82.9c0,0-19.7-5.4-35.2,12.9C65,120.2,79.2,152,79.2,152l25.1-45.5L120.8,82.9z"/>
	</g>
	<path class="st14" d="M208.1,445.7c-22.4,15.1-98,13.3-116.1,1.7c-0.8-1.9-0.3-5,0.9-9.3c2.6-9.4,8.4-24.1,8.2-41
		c-0.3-34.8-12-76.2-12-76.2s6.4,2.6-0.2-0.6c0-0.1-0.1-0.2-0.1-0.3c-0.1-0.2-0.1-0.4-0.2-0.6c0,0,0,0,0-0.1l0,0
		c0-0.1-0.1-0.2-0.1-0.3c-0.2-0.8-0.5-1.7-0.9-2.8c-0.2-0.7-0.4-1.4-0.6-2.1c-0.1-0.2-0.1-0.4-0.2-0.6c-0.1-0.4-0.3-0.8-0.4-1.3
		c0,0,0,0,0-0.1l0,0c-1.7-5.6-3.4-11.7-4.8-17.5c-0.2-0.9-0.5-1.9-0.7-2.8c0-0.1,0-0.1,0-0.2c-2.6-10.1-5.1-23.9-3-25.7
		c0.3-0.4,0.8-0.8,1.3-1.2l0,0c6-5.2,24.6-11.1,37.3-14.5l0,0c6.9-1.9,21.1-5.3,24.9-6c0,0,12.1,2.7,25,6.2l0,0
		c13.5,3.6,32.1,9.5,37.6,14.1l0,0c0.6,0.5,1.1,1,1.4,1.5c1.2,1.8,0.7,9.3-0.3,20.4c-1.1,12.2-2.2,24.5-2.6,36.9c0,0.2,0,0.3,0,0.4
		c-0.3,6.9-1.2,14.1-2.2,21.4c-2.2,16.5-5.1,33.5-3.5,48.9C198.4,410.4,211.2,433.9,208.1,445.7z"/>
	<path class="st14" d="M179.2,361.6h-67c-14.3,0-26-11.7-26-26v-4.4c0-14.3,11.7-26,26-26h67c14.3,0,20.2,0.5,20.2,14.8l5.8,15.5
		C205.2,349.9,193.5,361.6,179.2,361.6z"/>
	<path class="st15" d="M208.1,445.7c-22.4,15.1-98,13.3-116.1,1.7c-0.8-1.9-0.3-5,0.9-9.3c15.6,10.5,89.3,7.7,99.5,5.1
		c11.1-2.7,5.3-14.9,5.3-14.9s-3.5-7.4-9.7-27.8c-6.3-20.4,8.9-55.6,8.9-55.6c1-0.9,2.2-0.8,3.5,0.1c-2.2,16.5-5.1,33.5-3.5,48.9
		C198.4,410.4,211.2,433.9,208.1,445.7z"/>
	<path class="st5" d="M169.9,251.4c-2.7,6-12.9,27.2-23.6,29.5c0,0-24.9-1.5-35.6-29c2-0.6,3.9-1.1,5.8-1.6l0,0
		c0.2-0.1,0.4-0.2,0.6-0.3c0.1-0.1,0.3-0.2,0.4-0.3c1.3-0.9,3.3-2.5,5.4-5.4c0.1-0.2,0.2-0.3,0.3-0.5c0.2-0.3,0.4-0.6,0.6-1
		c0.1-0.2,0.2-0.4,0.3-0.6c0.5-1,0.9-2,1.2-3.2c2.1-0.1,4.6-0.2,7.2-0.3l0,0c7.4-0.2,16.2,0,23.4,1.1c0.7,2.3,1.5,3.9,2.6,5.5
		c2.3,3.3,6.3,4.7,7.4,5c0.2,0.1,0.3,0.1,0.3,0.1l0,0C167.6,250.7,168.7,251,169.9,251.4z"/>
	<path class="st9" d="M122.7,231.2c1,12.8-2.9,18.3-9,20.2c10.7,13.5,17.3,20,30.4,25.8c9-7.5,16.4-13,19.9-27.4
		c-6.3-2.8-8.4-9.3-8.7-17.4L122.7,231.2z"/>
	<path class="st8" d="M133.8,231.6l28.1,24.9l2.1-6.7c-6.3-2.8-8.4-9.3-8.7-17.4L133.8,231.6z"/>
	<path class="st15" d="M86.6,340c0,0,1.3,18.7,22.8,18.7c18.3,0,71.6,0,71.6,0s21.2,0.9,23.8-18.3c0,0-3.8,9.3-24.1,9.3
		c-16.8,0-72.3,0.1-72.3,0.1S92.9,349.6,86.6,340z"/>
	<path class="st10" d="M180.5,432.7l-7-18.3c0,0,43.8-21.1,43.3-32.6c-1.3-29.3-16.2-58.2-16.2-58.2s-7.3-58.3,6.3-52.7
		c13.6,5.6,37.6,68.9,37.8,109C244.7,418.7,180.5,432.7,180.5,432.7z"/>
	<path class="st10" d="M202.6,302.3c16.2,4,22,7.9,31.3,78.2v0.3c0.7,8.9-2.9,17.6-9.7,23.4c-11.7,10-31.5,25-52.5,31.9
		c-5.5,4.2-11.9,12.5-15.6,14.6c-3.7,2.1-14.9,3.9-17.6,4.2c-2.8,0.3-6-2.1-3.6-4.6c-4.2,1-5.7-0.2-5.2-2.9
		c-3.2,1.4-7.4-1.1-4.7-4.7c-1.6-0.6-4.6-1.8,0.4-5.9c5-4.1,10.8-9,10.8-9s-6.3,0.5-4.5-2.4c1.7-3,13-10.8,17.9-10.3
		s35.4,7.5,74.2-30c-2.9-9.9-10.3-37-10.3-37"/>
	<path class="st10" d="M87.5,291.3c-17.3,3.7-22.2,15.7-31,86.1v0.3c-0.6,8.9,3.2,17.4,10.1,23.1c12.6,10.2,34.5,26.2,57.6,33.5
		c6,4.3,13,12.7,17,15c4,2.2,16,4.1,19,4.5s6.4-2,3.8-4.5c4.5,1.1,6.1-0.1,5.5-2.9c3.5,1.5,7.9-1,4.9-4.6c1.7-0.5,4.9-1.7-0.5-5.9
		s-11.6-9.2-11.6-9.2s6.7,0.7,4.8-2.4c-1.9-3-14.1-11.1-19.3-10.7s-32.8,8.3-75-30c3-9.9,8.6-52.8,8.6-52.8"/>
	<path class="st10" d="M122.1,433.6l6.7-19.6c0,0-48.2-14.3-52.6-35.3c3.7-29.2,12.6-56.9,12.6-56.9s2.4-59.5-10.7-52.9
		c-13.1,6.7-39.6,83.3-30.2,122.2C58.6,435.1,122.1,433.6,122.1,433.6z"/>
	<path class="st14" d="M87.9,259.8c0,0-28.2,2.8-36.6,67.9l32.4,12.8c0,0,8.4-34.6,12.5-37.6C100.4,299.9,91.5,258.6,87.9,259.8z"/>
	<path class="st14" d="M201.8,263.2c0,0,27.5,3.3,35.9,68.4L206,343.8c0,0-8.4-34.6-12.5-37.6C189.4,303.3,198.3,262,201.8,263.2z"
		/>
	<g>
		<line class="st16" x1="188.4" y1="449.5" x2="188.4" y2="457.9"/>
		<line class="st16" x1="192.6" y1="453.7" x2="184.2" y2="453.7"/>
		<line class="st17" x1="141.9" y1="401" x2="141.9" y2="408"/>
		<line class="st17" x1="145.4" y1="404.5" x2="138.4" y2="404.5"/>
		<circle class="st18" cx="115.2" cy="455.6" r="2.2"/>
	</g>
	<path class="st8" d="M140.9,182.4c-4.2,0-7.8-1.8-8.7-4.3c-0.1,0.4-0.2,0.8-0.2,1.3c0,3.1,4,5.5,8.9,5.5s8.9-2.5,8.9-5.5
		c0-0.4-0.1-0.9-0.2-1.3C148.7,180.6,145.2,182.4,140.9,182.4z"/>
</g>
</svg>
