<?xml version="1.0" encoding="utf-8"?>
<!-- Generator: Adobe Illustrator 22.1.0, SVG Export Plug-In . SVG Version: 6.00 Build 0)  -->
<svg version="1.1" id="Layer_1" xmlns="http://www.w3.org/2000/svg" xmlns:xlink="http://www.w3.org/1999/xlink" x="0px" y="0px"
	 viewBox="0 0 247 313.2" style="enable-background:new 0 0 247 313.2;" xml:space="preserve">
<style type="text/css">
	.st0{fill:#F2D453;}
	.st1{fill:#F7E88F;}
	.st2{fill:none;stroke:#F2D453;stroke-width:3;stroke-miterlimit:10;}
</style>
<g id="OBJECT_1_">
	<g>
		<g>
			<g>
				<path class="st0" d="M14.6,228.1c-0.4-0.3-10.1-6.8-11.9-17c-1-5.7,0.7-11.4,5.1-16.8c7.8-9.8,14.4-10,20.1-10.2
					c5.1-0.2,9.1-0.3,13.8-7.3l0.5-0.7c10.4-15.5,11.8-17.5,27-20.3l0.7,3.3c-13.8,2.6-14.6,3.8-24.6,18.9l-0.5,0.7
					c-5.7,8.5-11.4,8.7-16.8,8.9c-5.4,0.2-10.6,0.3-17.3,8.8c-3.7,4.7-5.2,9.5-4.4,14.2c1.5,8.8,10.3,14.7,10.4,14.7L14.6,228.1z"/>
			</g>
			<g>
				<path class="st0" d="M241.9,225.1c-4.7,0-13.2-2.1-23.1-14.8c-7.9-10-7.8-14.2-7.6-18.3c0.1-3.3,0.2-6.4-4.5-13.4l-0.5-0.7
					c-10.1-15.1-10.9-16.3-24.6-18.9l0.7-3.3c15.3,2.9,16.7,4.9,27,20.3l0.5,0.7c5.3,7.9,5.2,11.8,5,15.3c-0.1,3.7-0.2,7.1,6.9,16.1
					c13,16.3,22.4,13.1,22.5,13.1l1.4,3.2C245.5,224.6,244.1,225.1,241.9,225.1z"/>
			</g>
			<g>
				<path class="st1" d="M205.2,300.9c-2.8,1.8-7.9,3.4-14.5,4.7c-28.7,5.8-84.6,7.6-84.6,7.6s-29.3-1.7-48.3-7.6
					c-4.3-1.3-8.1-2.9-10.9-4.7c0,0,10.6-103.7,14.9-124.4c0.9-4.5,2-10.1,3-16.3c0.2-1.2,0.4-2.4,0.6-3.6
					c1.4-8.8,2.7-18.4,3.7-27.8s1.5-18.7,1.4-26.4c0-3.5-0.3-6.7-0.6-9.5l-0.5-3.8c0,0-1.4-3.8-3.3-9.4C61.8,66.5,54.9,43,57.9,33.5
					c0.5-1.6,1.3-2.9,2.5-3.5c12.5-7.3,27-8.8,27-8.8l10.8-3.1l0.3-0.1c4.6,3.2,16.8,5.4,29.9,5.4c12.9,0,25.4-3.7,30.1-6.9
					c0,0,0.1,0,0.1-0.1l6.6,3.7c0,0,14.4,2.5,26.8,9.8c0,0-5.1,52.9-7.4,48.6l-2.2,14.5c-2,15.4,1.1,42.5,4.5,63.9
					c0.2,1.2,0.4,2.5,0.6,3.6c1,6.1,2,11.6,3,16.1C194.7,197.2,205.2,300.9,205.2,300.9z"/>
				<path class="st0" d="M205.2,300.9c-2.8,1.8-7.9,3.4-14.5,4.7c-28.7,5.8-84.6,7.6-84.6,7.6s-29.3-1.7-48.3-7.6
					c-4.3-1.3-8.1-2.9-10.9-4.7c0,0,10.6-103.7,14.9-124.4c2.4-11.6,5.5-30.1,7.3-47.7c-1.6,43.6-0.5,107.4,17.6,130.9
					c28.5,36.9,37.6,39.5,67.7,35.9C184.4,291.9,205.2,300.9,205.2,300.9z"/>
			</g>
			<g>
				<path class="st0" d="M157,11.8c-6.9,4-31.7,15.3-56.9,2c-1.6-0.8-1.1,1.9-1.9,3.4l-0.3,0.7c0,0,32.8,22,60.6-1.5l-0.3-0.8
					C157.8,14.2,158.3,11,157,11.8z"/>
			</g>
		</g>
		<path class="st2" d="M154.4,16.6c2.5-5.4,6.8-10,12-12.9c2.1-1.1,4.6-2,6.8-1.2c2.3,0.8,3.6,3.2,4.2,5.5s0.6,4.8,1.1,7.2
			c1.1,4.4,4.3,8.3,8.5,10.1c4.2,1.8,9.2,1.6,13.2-0.6"/>
		<path class="st2" d="M100.7,16.2c0.5-1.8,1-3.8,0.6-5.6c-0.4-1.9-1.9-3.7-3.8-3.7c-1,0-1.9,0.4-2.7,0.8c-3.8,1.8-7.6,3.6-11.5,5.5
			c-3.7,1.7-7.8,3.5-11.7,2.2c0,0-12.5-1.6-10.9,4.1"/>
	</g>
</g>
</svg>
