<?xml version="1.0" encoding="utf-8"?>
<!-- Generator: Adobe Illustrator 22.1.0, SVG Export Plug-In . SVG Version: 6.00 Build 0)  -->
<svg version="1.1" id="Layer_1" xmlns="http://www.w3.org/2000/svg" xmlns:xlink="http://www.w3.org/1999/xlink" x="0px" y="0px"
	 viewBox="0 0 500 500" style="enable-background:new 0 0 500 500;" xml:space="preserve">
<style type="text/css">
	.st0{opacity:0.1;}
	.st1{fill:#F646FF;}
	.st2{fill:#40D3E2;}
	.st3{fill:#2980D6;}
	.st4{fill:#C388EA;}
	.st5{fill:#FFFFFF;}
	.st6{fill:#C6C1C6;}
	.st7{fill:#E4E7EF;}
	.st8{fill:#676072;}
	.st9{fill:none;stroke:#1558BA;stroke-linecap:round;stroke-linejoin:round;stroke-miterlimit:10;}
	.st10{fill:#F8BA8C;}
	.st11{fill:#22366B;}
	.st12{fill:#18294C;}
	.st13{fill:#22AA66;}
	.st14{fill:#229958;}
	.st15{fill:#209E5F;}
	.st16{fill:#803E19;}
	.st17{fill:#FBB087;}
	.st18{fill:none;}
	.st19{fill:#E3AC81;}
	.st20{fill:#EF9D65;}
	.st21{clip-path:url(#SVGID_2_);}
	.st22{clip-path:url(#SVGID_4_);}
	.st23{fill:#793B16;}
	.st24{fill:#24BF77;}
	.st25{fill:#24AA63;}
	.st26{fill:#E5897A;}
	.st27{fill:#F7AD9C;}
	.st28{fill:#216BC2;}
	.st29{fill:#254B62;}
	.st30{fill:#FFFFFF;stroke:#216BC2;stroke-width:6;stroke-miterlimit:10;}
</style>
<g>
	<g id="_x31__1_">
		<g class="st0">
			<path class="st1" d="M217.8,129.5c0,20.4-19.1,36.9-42.8,36.9s-58,6.3-58-14.1s34.4-59.8,58-59.8S217.8,109.1,217.8,129.5z"/>
			<path class="st2" d="M45.3,366.3c-2.4-8.7,1-19.3,9-23.4c10.8-5.5,25,1.9,35.6-4.1c9.1-5.2,10.7-18.7,5.5-27.8
				s-15-14.6-24.9-17.9s-20.3-5.1-29.8-9.4c-6.1-2.7-11.8-6.7-15.3-12.4c-3.5-5.7-4.3-13.4-0.8-19c3.7-5.9,11-8.3,17.8-9
				s13.9-0.2,20.5-2c9-2.4,16.3-8.9,23.6-14.8c16.1-13.1,33.6-24.2,51.1-35.2c5.9-3.8,12.2-7.6,19.1-8.3c10.8-1.1,21,5.6,31.9,5.9
				c8,0.3,15.6-2.8,23.4-4.6c7.8-1.8,16.7-2,22.9,3.2c7,5.9,7.7,16.8,4.7,25.5s-8.8,16.1-13.3,24.1c-4.4,8-7.5,17.7-4.4,26.4
				c3.8,10.6,15.2,15.8,24.6,21.9c9.4,6,18.6,17,14.4,27.4c-1.7,4.2-5.4,7.6-5.9,12.2c-0.9,7.3,6.7,12.6,13.4,15.5
				c10.5,4.4,21.5,7.5,32.7,9c8.4,1.2,18,2,23.2,8.8c3.6,4.7,4.1,11.5,2.1,17.1s-6,10.4-10.5,14.3c-15.9,13.7-37.9,18-58.9,18.2
				s-41.8-3.3-62.8-2.9c-18.9,0.4-37.7,4-56.6,4c-18.2,0-38-2.3-54-11.7C70,389.3,50,383.6,45.3,366.3z"/>
			<path class="st2" d="M103.3,160.9c6,13.6-15.5,36.8-31.2,45.8s-46.6,0.3-52.6-13.3s0.6-44.6,16.3-53.6
				C51.5,130.8,97.3,147.3,103.3,160.9z"/>
			<path class="st2" d="M409,208.7c-13.2-1.5-18.8-34.7-17.1-54.6c1.8-20,24.8-45.1,38.1-43.5c13.2,1.5,32.6,24.5,30.8,44.5
				C459.1,175.1,422.3,210.3,409,208.7z"/>
			<path class="st2" d="M293.8,404.8c-6.7-5-10.6-15.1-7.6-23.6c4-11.4,17.7-15.3,21.2-26.9c3-9.9-3.8-21.1-12.5-24.5
				s-18.4-0.9-26.9,3.3c-8.5,4.1-16.4,9.8-25.2,12.9c-5.6,2-11.7,2.9-17.3,1s-10.6-7.1-11.6-13.7c-1-6.8,2.4-13.5,6.5-18.7
				s9.1-9.4,12.4-15.2c4.6-7.9,5.6-17.6,7-26.9c3.1-20.5,8.2-40.6,13.4-60.6c1.8-6.8,3.6-13.8,7.8-19c6.5-8.1,17.2-9.9,24.6-16.9
				c5.4-5.1,8.7-12.6,12.8-19.1c4.1-6.5,9.9-12.7,17-12.9c8.1-0.3,14.8,7.5,17.9,16s3.5,17.9,5.2,26.9s5.3,18.3,12.4,22.7
				c8.7,5.4,19.2,1.7,29-0.1s22.2,0.3,25.5,10.9c1.3,4.3,0.9,9.3,3.1,13.1c3.7,6.1,11.8,5,17.9,2.6c9.5-3.7,18.6-8.8,26.9-15.1
				c6.3-4.8,13.1-10.5,20.5-8.9c5.2,1.1,9.3,5.9,11.3,11.4s2.1,11.8,1.4,17.7c-2.6,20.9-14.6,38.9-28.4,53s-29.6,25.5-43.2,39.9
				c-12.3,13-22.6,28.2-35.2,40.9c-12,12.2-26.5,23.7-42.5,27.3C323.5,405.5,306.9,414.6,293.8,404.8z"/>
		</g>
		<g>
			<g>
				<g>
					<g>
						<g>
							<path class="st3" d="M349.6,411.5l-144.8-0.1l-70.5-0.1c-7.5,0-13.6-6.1-13.6-13.6l0.3-285.8c0-7.5,6.1-13.6,13.6-13.6
								l215.3,0.2c7.5,0,13.6,6.1,13.6,13.6l-0.3,285.8C363.3,405.4,357.2,411.5,349.6,411.5z"/>
						</g>
						<g>
							<g>
								<path class="st3" d="M120.9,281.9L120.9,281.9c-0.2,0-0.4-0.2-0.4-0.4l0.1-92.3l0.1-77.3c0-7.7,6.3-14,14.1-14l0,0l153,0.2
									c0.2,0,0.4,0.2,0.4,0.4c0,0.2-0.2,0.4-0.4,0.4l0,0l-153-0.2l0,0c-7.3,0-13.2,5.9-13.2,13.2l-0.1,77.3l-0.1,92.3
									C121.4,281.7,121.2,281.9,120.9,281.9z"/>
							</g>
							<g>
								<path class="st4" d="M134.4,411.7L134.4,411.7c-7.8,0-14-6.3-14-14.1v-89.1c0-0.2,0.2-0.4,0.4-0.4l0,0
									c0.2,0,0.4,0.2,0.4,0.4v89.1c0,7.3,5.9,13.2,13.2,13.2c0.2,0,0.4,0.2,0.4,0.4C134.8,411.6,134.6,411.7,134.4,411.7z"/>
							</g>
							<g>
								<path class="st3" d="M349.7,412C349.7,412,349.6,412,349.7,412l-114.3-0.1c-0.2,0-0.4-0.2-0.4-0.4c0-0.2,0.2-0.4,0.4-0.4
									l0,0l114.3,0.1l0,0c3.5,0,6.8-1.4,9.3-3.8c2.5-2.5,3.9-5.8,3.9-9.3v-20.8c0-0.2,0.2-0.4,0.4-0.4l0,0c0.2,0,0.4,0.2,0.4,0.4
									v20.8c0,3.8-1.5,7.3-4.1,9.9C356.9,410.5,353.4,412,349.7,412z"/>
							</g>
							<g>
								<path class="st3" d="M363.3,323.5L363.3,323.5c-0.2,0-0.4-0.2-0.4-0.4l0.2-210.9c0-7.3-5.9-13.2-13.2-13.2
									c-0.2,0-0.4-0.2-0.4-0.4c0-0.2,0.2-0.4,0.4-0.4l0,0c7.7,0,14,6.3,14,14.1l-0.2,210.9C363.8,323.4,363.6,323.5,363.3,323.5z"
									/>
							</g>
						</g>
						<g>
							<g>
								<path class="st5" d="M291.7,400.3l-161-0.2l0.3-288.9l223.9,0.2l-0.2,226C354.7,372.2,326.5,400.4,291.7,400.3z"/>
							</g>
							<g>
								<path class="st6" d="M354.7,336v2.5c0,34.2-27.8,61.9-62,61.8c0,0,23.2-5.4,8.3-26C301,374.3,344.5,364.5,354.7,336z"/>
							</g>
						</g>
						<g>
							<path class="st7" d="M173.4,386c-17.3,0-31.4-14.1-31.4-31.5c0-17.3,14.1-31.4,31.5-31.4c17.3,0,31.4,14.1,31.4,31.5
								C204.8,371.9,190.7,386,173.4,386z M173.4,324.2c-16.7,0-30.4,13.6-30.4,30.3c0,16.7,13.6,30.4,30.3,30.4
								s30.4-13.6,30.4-30.3C203.8,337.8,190.2,324.2,173.4,324.2z"/>
						</g>
						<g>
							<path class="st7" d="M173.4,379.3c-13.7,0-24.8-11.1-24.8-24.8c0-13.7,11.1-24.8,24.8-24.8s24.8,11.1,24.8,24.8
								C198.2,368.2,186.9,379.3,173.4,379.3z M173.4,336.2c-10.1,0-18.3,8.2-18.4,18.3c0,10.1,8.2,18.3,18.3,18.4
								c10.1,0,18.3-8.2,18.4-18.3C191.8,344.5,183.4,336.2,173.4,336.2z"/>
						</g>
						<g>
							<g>
								<path class="st2" d="M171.2,368.1L171.2,368.1c-0.9,0-1.8-0.4-2.3-1.1l-11.3-14.9c-1-1.3-0.7-3.1,0.6-4c1.3-1,3.1-0.7,4,0.6
									l9.1,12l21.2-26.4c1-1.2,2.8-1.4,4.1-0.4c1.2,1,1.4,2.8,0.4,4.1l-23.5,29.2C172.9,367.7,172.1,368.1,171.2,368.1z"/>
							</g>
						</g>
					</g>
					<g>
						<path class="st8" d="M277,378.4l-58.2-0.1c-1,0-1.7-0.8-1.7-1.7l0,0c0-1,0.8-1.7,1.7-1.7L277,375c1,0,1.7,0.8,1.7,1.7l0,0
							C278.8,377.7,278,378.4,277,378.4z"/>
					</g>
					<g>
						<g>
							<path class="st8" d="M279,233.7l-123.5-0.1c-1,0-1.8-0.8-1.8-1.8l0,0c0-1,0.8-1.8,1.8-1.8l123.5,0.1c1,0,1.8,0.8,1.8,1.8l0,0
								C280.8,232.9,280,233.7,279,233.7z"/>
						</g>
						<g>
							<path class="st8" d="M279,242.8l-123.5-0.1c-1,0-1.8-0.8-1.8-1.8l0,0c0-1,0.8-1.8,1.8-1.8l123.5,0.1c1,0,1.8,0.8,1.8,1.8l0,0
								C280.8,242,280,242.8,279,242.8z"/>
						</g>
						<g>
							<g>
								<path class="st3" d="M318,245.2L318,245.2c-0.5,0-0.9-0.2-1.2-0.6L311,237c-0.5-0.6-0.4-1.6,0.3-2.1
									c0.6-0.5,1.6-0.4,2.1,0.3l4.6,6.1l10.8-13.4c0.5-0.6,1.4-0.7,2.1-0.2c0.6,0.5,0.7,1.4,0.2,2.1l-12,14.9
									C318.9,245,318.5,245.2,318,245.2z"/>
							</g>
						</g>
					</g>
					<g>
						<g>
							<path class="st8" d="M279,262.1L155.4,262c-1,0-1.8-0.8-1.8-1.8l0,0c0-1,0.8-1.8,1.8-1.8l123.5,0.1c1,0,1.8,0.8,1.8,1.8l0,0
								C280.8,261.3,280,262.1,279,262.1z"/>
						</g>
						<g>
							<path class="st8" d="M279,271.2l-123.5-0.1c-1,0-1.8-0.8-1.8-1.8l0,0c0-1,0.8-1.8,1.8-1.8l123.5,0.1c1,0,1.8,0.8,1.8,1.8l0,0
								C280.8,270.4,280,271.2,279,271.2z"/>
						</g>
						<g>
							<g>
								<path class="st3" d="M318,273.6L318,273.6c-0.5,0-0.9-0.2-1.2-0.6l-5.8-7.6c-0.5-0.6-0.4-1.6,0.3-2.1
									c0.6-0.5,1.6-0.4,2.1,0.3l4.6,6.1l10.8-13.4c0.5-0.6,1.4-0.7,2.1-0.2c0.6,0.5,0.7,1.4,0.2,2.1l-12,14.9
									C318.9,273.4,318.5,273.6,318,273.6z"/>
							</g>
						</g>
					</g>
					<g>
						<g>
							<path class="st8" d="M279,290.6l-123.5-0.1c-1,0-1.8-0.8-1.8-1.8l0,0c0-1,0.8-1.8,1.8-1.8L279,287c1,0,1.8,0.8,1.8,1.8l0,0
								C280.7,289.8,279.9,290.6,279,290.6z"/>
						</g>
						<g>
							<path class="st8" d="M278.9,299.7l-123.5-0.1c-1,0-1.8-0.8-1.8-1.8l0,0c0-1,0.8-1.8,1.8-1.8l123.5,0.1c1,0,1.8,0.8,1.8,1.8
								l0,0C280.7,298.9,279.9,299.7,278.9,299.7z"/>
						</g>
						<g>
							<g>
								<path class="st3" d="M318,302L318,302c-0.5,0-0.9-0.2-1.2-0.6l-5.8-7.6c-0.5-0.6-0.4-1.6,0.3-2.1c0.6-0.5,1.6-0.4,2.1,0.3
									l4.6,6.1l10.8-13.4c0.5-0.6,1.4-0.7,2.1-0.2c0.6,0.5,0.7,1.4,0.2,2.1l-12,14.9C318.8,301.8,318.4,302,318,302z"/>
							</g>
						</g>
					</g>
					<g>
						<g>
							<path class="st8" d="M279,141.7l-123.5-0.1c-1,0-1.8-0.8-1.8-1.8l0,0c0-1,0.8-1.8,1.8-1.8l123.5,0.1c1,0,1.8,0.8,1.8,1.8l0,0
								C280.8,140.9,280,141.7,279,141.7z"/>
						</g>
						<g>
							<path class="st8" d="M279,150.8l-123.5-0.1c-1,0-1.8-0.8-1.8-1.8l0,0c0-1,0.8-1.8,1.8-1.8l123.5,0.1c1,0,1.8,0.8,1.8,1.8l0,0
								C280.8,150,280,150.8,279,150.8z"/>
						</g>
						<g>
							<g>
								<path class="st3" d="M318,153.1L318,153.1c-0.5,0-0.9-0.2-1.2-0.6l-5.8-7.6c-0.5-0.6-0.4-1.6,0.3-2.1
									c0.6-0.5,1.6-0.4,2.1,0.3l4.6,6.1l10.8-13.4c0.5-0.6,1.4-0.7,2.1-0.2c0.6,0.5,0.7,1.4,0.2,2.1l-12,14.9
									C318.9,152.9,318.5,153.1,318,153.1z"/>
							</g>
						</g>
					</g>
					<g>
						<g>
							<path class="st8" d="M279,170.1L155.4,170c-1,0-1.8-0.8-1.8-1.8l0,0c0-1,0.8-1.8,1.8-1.8l123.5,0.1c1,0,1.8,0.8,1.8,1.8l0,0
								C280.8,169.3,280,170.1,279,170.1z"/>
						</g>
						<g>
							<path class="st8" d="M279,179.2l-123.5-0.1c-1,0-1.8-0.8-1.8-1.8l0,0c0-1,0.8-1.8,1.8-1.8l123.5,0.1c1,0,1.8,0.8,1.8,1.8l0,0
								C280.8,178.4,280,179.2,279,179.2z"/>
						</g>
						<g>
							<g>
								<path class="st3" d="M318,181.6L318,181.6c-0.5,0-0.9-0.2-1.2-0.6l-5.8-7.6c-0.5-0.6-0.4-1.6,0.3-2.1
									c0.6-0.5,1.6-0.4,2.1,0.3l4.6,6.1l10.8-13.4c0.5-0.6,1.4-0.7,2.1-0.2c0.6,0.5,0.7,1.4,0.2,2.1l-12,14.9
									C318.9,181.4,318.5,181.6,318,181.6z"/>
							</g>
						</g>
					</g>
					<g>
						<g>
							<path class="st8" d="M279,198.5l-123.5-0.1c-1,0-1.8-0.8-1.8-1.8l0,0c0-1,0.8-1.8,1.8-1.8l123.5,0.1c1,0,1.8,0.8,1.8,1.8l0,0
								C280.7,197.7,279.9,198.5,279,198.5z"/>
						</g>
						<g>
							<path class="st8" d="M278.9,207.6l-123.5-0.1c-1,0-1.8-0.8-1.8-1.8l0,0c0-1,0.8-1.8,1.8-1.8l123.5,0.1c1,0,1.8,0.8,1.8,1.8
								l0,0C280.7,206.8,279.9,207.6,278.9,207.6z"/>
						</g>
						<g>
							<g>
								<path class="st3" d="M318,210L318,210c-0.5,0-0.9-0.2-1.2-0.6l-5.8-7.6c-0.5-0.6-0.4-1.6,0.3-2.1c0.6-0.5,1.6-0.4,2.1,0.3
									l4.6,6.1l10.8-13.4c0.5-0.6,1.4-0.7,2.1-0.2c0.6,0.5,0.7,1.4,0.2,2.1l-12,14.9C318.8,209.8,318.4,210,318,210z"/>
							</g>
						</g>
					</g>
				</g>
			</g>
			<circle class="st9" cx="49.2" cy="202" r="4.9"/>
			<circle class="st9" cx="39.2" cy="147.1" r="5.1"/>
			<circle class="st9" cx="399.3" cy="130" r="5.1"/>
			<polygon class="st9" points="271.2,71.8 273.6,76.2 278,78.6 273.6,80.9 271.2,85.3 268.8,80.9 264.4,78.6 268.8,76.2 			"/>
			<polygon class="st9" points="106.7,290.2 102.1,289.9 99.1,293.6 98,289 93.6,287.3 97.6,284.9 97.8,280.2 101.4,283.2 
				105.9,282 104.2,286.3 			"/>
			<polygon class="st9" points="79.6,110.4 82.2,115.1 86.9,117.7 82.2,120.3 79.6,125 77,120.3 72.3,117.7 77,115.1 			"/>
			<polygon class="st9" points="464.7,187.4 467.1,191.8 471.5,194.2 467.1,196.6 464.7,201 462.3,196.6 457.9,194.2 462.3,191.8 
							"/>
		</g>
		<g>
			<g>
				<path class="st3" d="M451.7,412.9L451.7,412.9l-400.2-0.2c-0.3,0-0.6-0.3-0.6-0.6c0-0.3,0.3-0.6,0.6-0.6l0,0l400.2,0.2
					c0.3,0,0.6,0.3,0.6,0.6S452,412.9,451.7,412.9z"/>
			</g>
			<g>
				<g>
					<path class="st3" d="M364.7,418.8h-35.5c-0.3,0-0.6-0.3-0.6-0.6s0.3-0.6,0.6-0.6h35.5c0.3,0,0.6,0.3,0.6,0.6
						S365,418.8,364.7,418.8z"/>
				</g>
				<g>
					<path class="st3" d="M271.2,418.8h-42.5c-0.3,0-0.6-0.3-0.6-0.6s0.3-0.6,0.6-0.6h42.5c0.3,0,0.6,0.3,0.6,0.6
						S271.5,418.8,271.2,418.8z"/>
				</g>
				<g>
					<path class="st3" d="M165.7,418.8H94.2c-0.3,0-0.6-0.3-0.6-0.6s0.3-0.6,0.6-0.6h71.5c0.3,0,0.6,0.3,0.6,0.6
						S165.9,418.8,165.7,418.8z"/>
				</g>
				<g>
					<path class="st3" d="M49.1,418.8H8.9c-0.3,0-0.6-0.3-0.6-0.6s0.3-0.6,0.6-0.6h40.2c0.3,0,0.6,0.3,0.6,0.6
						S49.4,418.8,49.1,418.8z"/>
				</g>
			</g>
			<g>
				<g>
					<path class="st3" d="M453.9,427.5h-17.8c-0.3,0-0.6-0.3-0.6-0.6s0.3-0.6,0.6-0.6h17.8c0.3,0,0.6,0.3,0.6,0.6
						S454.2,427.5,453.9,427.5z"/>
				</g>
				<g>
					<path class="st3" d="M401.9,427.5h-17.8c-0.3,0-0.6-0.3-0.6-0.6s0.3-0.6,0.6-0.6h17.8c0.3,0,0.6,0.3,0.6,0.6
						S402.2,427.5,401.9,427.5z"/>
				</g>
				<g>
					<path class="st3" d="M352,427.5h-52.4c-0.3,0-0.6-0.3-0.6-0.6s0.3-0.6,0.6-0.6H352c0.3,0,0.6,0.3,0.6,0.6
						S352.3,427.5,352,427.5z"/>
				</g>
				<g>
					<path class="st3" d="M261.3,427.5h-37.9c-0.3,0-0.6-0.3-0.6-0.6s0.3-0.6,0.6-0.6h37.9c0.3,0,0.6,0.3,0.6,0.6
						S261.6,427.5,261.3,427.5z"/>
				</g>
				<g>
					<path class="st1" d="M174.4,427.5h-23.9c-0.3,0-0.6-0.3-0.6-0.6s0.3-0.6,0.6-0.6h23.9c0.3,0,0.6,0.3,0.6,0.6
						S174.7,427.5,174.4,427.5z"/>
				</g>
				<g>
					<path class="st3" d="M114.3,427.5H98.1c-0.3,0-0.6-0.3-0.6-0.6s0.3-0.6,0.6-0.6h16.2c0.3,0,0.6,0.3,0.6,0.6
						S114.6,427.5,114.3,427.5z"/>
				</g>
			</g>
			<g>
				<g>
					<path class="st3" d="M477.6,415.7h-43.4c-0.3,0-0.6-0.3-0.6-0.6s0.3-0.6,0.6-0.6h43.4c0.3,0,0.6,0.3,0.6,0.6
						S477.9,415.7,477.6,415.7z"/>
				</g>
				<g>
					<path class="st3" d="M490,413h-17.8c-0.3,0-0.6-0.3-0.6-0.6s0.3-0.6,0.6-0.6H490c0.3,0,0.6,0.3,0.6,0.6S490.3,413,490,413z"/>
				</g>
				<g>
					<path class="st3" d="M400,415.7h-17.8c-0.3,0-0.6-0.3-0.6-0.6s0.3-0.6,0.6-0.6H400c0.3,0,0.6,0.3,0.6,0.6
						S400.4,415.7,400,415.7z"/>
				</g>
				<g>
					<path class="st3" d="M350.2,415.7h-52.4c-0.3,0-0.6-0.3-0.6-0.6s0.3-0.6,0.6-0.6h52.4c0.3,0,0.6,0.3,0.6,0.6
						S350.5,415.7,350.2,415.7z"/>
				</g>
				<g>
					<path class="st3" d="M259.5,415.7h-37.9c-0.3,0-0.6-0.3-0.6-0.6s0.3-0.6,0.6-0.6h37.9c0.3,0,0.6,0.3,0.6,0.6
						S259.8,415.7,259.5,415.7z"/>
				</g>
				<g>
					<path class="st1" d="M172.6,415.7h-23.9c-0.3,0-0.6-0.3-0.6-0.6s0.3-0.6,0.6-0.6h23.9c0.3,0,0.6,0.3,0.6,0.6
						S172.9,415.7,172.6,415.7z"/>
				</g>
				<g>
					<path class="st3" d="M112.5,415.7H96.3c-0.3,0-0.6-0.3-0.6-0.6s0.3-0.6,0.6-0.6h16.2c0.3,0,0.6,0.3,0.6,0.6
						S112.8,415.7,112.5,415.7z"/>
				</g>
			</g>
		</g>
	</g>
	<g>
		<g>
			<g>
				<g>
					<path class="st10" d="M417.8,310.6l-5.2-0.7c0,0,3.1-26,1.7-33.6c-1.6-8.5-5.5-17-5.5-17s-2.1-16.9,1.9-15.2
						s10.1,20.5,11.2,32.4C422.8,285.5,417.8,310.6,417.8,310.6z"/>
					<g>
						<g>
							<path class="st5" d="M370.8,413.2c7.5-2,13.8-3.4,15.3-4.4c1-0.7,0-3.3,0-3.3l-8.1-4.2l-16.7,7c0,0-0.4,1.7,0.3,2.6
								C362.8,412.6,367,414.2,370.8,413.2z"/>
							<path class="st5" d="M418.3,413.2c-7.5-2-13.8-3.4-15.3-4.4c-1-0.7,0-3.3,0-3.3l8.1-4.2l16.7,7c0,0,0.4,1.7-0.3,2.6
								C426.3,412.6,422.1,414.2,418.3,413.2z"/>
							<path class="st11" d="M418.5,411.4c-7.5-2-13.9-3.4-15.3-4.4c-1.5-1,0-7.6,0-7.6l8.1,0.2c0,0,11.3,6.6,14.5,7.3
								C431.6,408,424.5,413,418.5,411.4z"/>
							<path class="st12" d="M427.6,407.6c-1.7,1.2-4.1,1.9-6.1,1.8c-1.8-0.1-3.5-0.6-5.2-1.3c-1.7-0.7-3.8-1.4-5.3-2.5
								c-2.2-1.6-3.2-4-4.7-6.1l-3.2-0.1c0,0-1.5,6.6,0,7.6s7.9,2.4,15.3,4.4C423.6,412.8,429.5,409.4,427.6,407.6z"/>
							<path class="st13" d="M394.2,316.6c2.1,3.2,5.8,18.1,6.3,36.7c0.6,20.1-0.6,48.2,1.5,49.4c3.5,2,11.6-1,12.3-3.2
								c-0.2-4.3-3.6-63.7-1.6-88.5C401.2,304.2,389.6,309.2,394.2,316.6z"/>
							<path class="st14" d="M406.9,399.6c-2.4-2.8-2.4-7.7-2.9-11.2c-0.7-5.6,0.2-11-0.6-16.6c-0.5-3.6-1.7-8.8-0.1-12.2
								c0.6-1.2,2.3-1.7,3.1-2.7c0.6-0.6-1.3-1.1-1.7-1.3c-0.5-0.3-0.9-1-1.1-1.5c-0.7-1.7-0.5-3.8-0.7-5.6c-0.3-3-0.6-6-0.7-9
								c-0.4-7,1.1-19.3-7.4-22c2.1,4.5,5.3,18.6,5.9,35.8c0.6,20.1-0.6,48.2,1.5,49.4c2.5,1.4,7.3,0.3,10.1-1.3
								C410.2,401.6,408.3,401.3,406.9,399.6z"/>
							<path class="st11" d="M370.8,411.4c7.5-2,13.9-3.4,15.3-4.4s0-7.6,0-7.6l-8.1,0.1c0,0-11.3,6.6-14.5,7.3
								C357.7,408,364.8,413,370.8,411.4z"/>
							<path class="st12" d="M386.1,399.4l-4.3,0.1c0.7,2.2,0.1,4.8-2.4,6c-2.5,1.3-5.4,2.8-8.2,3.3c-3.1,0.6-6.4-0.3-9.5-0.4
								c-0.2,0-0.3,0-0.4-0.1c0.1,1.8,5,4.2,9.4,3c7.5-2,13.9-3.4,15.3-4.4C387.6,406,386.1,399.4,386.1,399.4z"/>
							<path class="st13" d="M393.3,316c-2.1,3.2-4.8,18.6-5.4,37.3c-0.6,20.1,1.1,48.2-1,49.4c-3.5,2-11.6-1-12.3-3.2
								c0.2-4.4,3-63.6,1-88.6C387,304.2,397.9,308.6,393.3,316z"/>
							<path class="st14" d="M393.3,316c0.2-0.2,0.3-0.5,0.4-0.7c-5.9,4-7.6,12.3-8.3,19.1c-0.5,4.8-0.1,9.5-0.4,14.3
								c-0.2,1.9-0.3,4-1.5,5.6c-0.8,1-1.8,1.6-2.9,2.3c1.1,0.7,2.4,1.3,2.9,2.5c1,2.1-0.4,3.4-0.3,5.5c0.1,3.1,0.8,6.2,0.8,9.3
								c0,3.2-0.3,6.3-0.3,9.4c0.1,4.6,1.7,10.4-1,14.6c-1.8,2.8-3.8,3.3-6.4,3.3c2.7,1.7,8,3.1,10.6,1.6c2.1-1.2,0.3-29.3,1-49.4
								C388.4,334.6,391.2,319.2,393.3,316z"/>
							<path class="st13" d="M412.7,310.9c-1,8-35.9,8.6-36.9,1.5c-0.5-3.3-0.5-8-0.2-10.7c0.1-0.7,0.2-1.3,0.3-1.7
								c0.6-1.8,34.6-5.6,35.6-0.5c0.1,0,0.3,0.5,0.5,1.4C412.7,302.9,413.2,307,412.7,310.9z"/>
							<path class="st15" d="M412.2,300.9c-0.5,0.4-1.1,0.6-1.7,0.9c-9,3.6-19.2,3.4-28.7,1.7c-1.9-0.4-4.1-0.8-6-1.7
								c0.1-0.7,0.2-1.3,0.3-1.7c0.6-1.8,34.6-5.6,35.6-0.5C411.8,299.5,412,300,412.2,300.9z"/>
							<g>
								<path class="st16" d="M370.7,201.6c0,0-0.5,10.9-2.9,14.2c0,0-4.2,5.9,0.8,11.6s-2.2,14.1-2.2,14.1h24.1v-41.3L370.7,201.6z
									"/>
								<path class="st16" d="M411.5,201.7c0,0,0.1,10.9,2.4,14.2c0,0,4.2,5.9-0.8,11.6s2.2,14.1,2.2,14.1h-24.1v-41.3L411.5,201.7z
									"/>
								<path class="st16" d="M410.2,205.1c0,10.7-8.6,19.3-19.3,19.3s-19.3-8.6-19.3-19.3s8.6-17.7,19.3-17.7
									S410.2,194.4,410.2,205.1z"/>
								<g>
									<g>
										<g>
											<path class="st17" d="M377.2,215.5c1,2.2,0.9,5.8-1.2,6.6s-4.6-2.1-5.6-4.3s-0.4-4.1,1.7-4.9S376.2,213.3,377.2,215.5z"
												/>
										</g>
									</g>
									<line class="st18" x1="372.7" y1="215.5" x2="376.2" y2="218.3"/>
								</g>
								<g>
									<g>
										<g>
											<path class="st17" d="M404.9,215.5c-1,2.2-0.9,5.8,1.2,6.6s4.6-2.1,5.6-4.3s0.4-4.1-1.7-4.9S405.9,213.3,404.9,215.5z"/>
										</g>
									</g>
									<line class="st18" x1="409.7" y1="215.5" x2="406.2" y2="218.3"/>
								</g>
								<path class="st16" d="M408.7,212.6c0,0-7.7,11.3-17.5,11.3s-18-11.3-18-11.3c0-9.4,8.2-22.7,18-22.7
									C401,189.9,408.7,203.2,408.7,212.6z"/>
								<g>
									<polygon class="st19" points="386.1,227.7 383.8,249.7 397.1,249.7 394.8,227.5 									"/>
									<polygon class="st20" points="385.8,231.4 396.1,239.4 395,228.7 									"/>
								</g>
								<g>
									<g>
										<path id="XMLID_15_" class="st10" d="M391.2,191.1L391.2,191.1c-8.2,0-15.4,7.2-15.4,15l0.5,9.4c0,0,0.2,13.3,12.8,17.4
											c1.4,0.5,2.9,0.5,4.3,0c12.6-4,12.8-17.4,12.8-17.4l0.5-9.4C406.6,198.3,399.4,191.1,391.2,191.1z"/>
									</g>
								</g>
								<g>
									<g>
										<g>
											<g>
												<path id="XMLID_14_" class="st5" d="M394.8,212.4c0,0,0-2,3.8-1.7c3.4,0.2,3.8,1.8,3.8,1.8s-0.5,2.3-4.2,2.4
													C394.5,214.9,394.8,212.4,394.8,212.4z"/>
											</g>
											<g>
												<g>
													<g>
														<g>
															<g>
																<g>
																	<defs>
																		<path id="SVGID_1_" d="M394.8,212.4c0,0,0-2,3.8-1.7c3.4,0.2,3.8,1.8,3.8,1.8s-0.5,2.3-4.2,2.4
																			C394.5,214.9,394.8,212.4,394.8,212.4z"/>
																	</defs>
																	<clipPath id="SVGID_2_">
																		<use xlink:href="#SVGID_1_"  style="overflow:visible;"/>
																	</clipPath>
																	<path class="st21" d="M400.8,212.9c0,1.4-1.1,2.6-2.4,2.5c-1.3,0-2.4-1.2-2.4-2.6c0-1.4,1.1-2.6,2.4-2.5
																		C399.8,210.3,400.8,211.4,400.8,212.9z"/>
																</g>
															</g>
														</g>
													</g>
												</g>
											</g>
										</g>
										<g>
											<path d="M394.4,211.4c0.2-0.2,0.3-0.2,0.5-0.3s0.3-0.2,0.5-0.3c0.4-0.2,0.7-0.3,1.1-0.4c0.7-0.2,1.5-0.2,2.2-0.2
												c0.8,0.1,1.5,0.2,2.2,0.6c0.6,0.4,1.2,0.9,1.6,1.6c0,0.1,0,0.2-0.1,0.2s-0.2,0-0.2,0l0,0c-0.4-0.6-1-1-1.6-1.3
												s-1.3-0.4-2-0.4s-1.4,0.1-2,0.3c-0.3,0.1-0.6,0.2-1,0.4c-0.2,0.1-0.3,0.2-0.4,0.2c-0.1,0.1-0.3,0.2-0.4,0.3l0,0
												c-0.2,0.2-0.5,0.2-0.6,0C394.2,211.8,394.2,211.6,394.4,211.4L394.4,211.4z"/>
										</g>
									</g>
									<g>
										<g>
											<g>
												<path id="XMLID_13_" class="st5" d="M387,212.4c0,0,0-2-3.8-1.7c-3.4,0.2-3.8,1.8-3.8,1.8s0.5,2.3,4.2,2.4
													C387.3,214.9,387,212.4,387,212.4z"/>
											</g>
											<g>
												<g>
													<g>
														<g>
															<g>
																<g>
																	<defs>
																		<path id="SVGID_3_" d="M387,212.4c0,0,0-2-3.8-1.7c-3.4,0.2-3.8,1.8-3.8,1.8s0.5,2.3,4.2,2.4
																			C387.3,214.9,387,212.4,387,212.4z"/>
																	</defs>
																	<clipPath id="SVGID_4_">
																		<use xlink:href="#SVGID_3_"  style="overflow:visible;"/>
																	</clipPath>
																	<path class="st22" d="M381,212.8c0,1.4,1.1,2.6,2.4,2.5c1.3,0,2.4-1.2,2.4-2.6c0-1.4-1.1-2.6-2.4-2.5
																		S381,211.4,381,212.8z"/>
																</g>
															</g>
														</g>
													</g>
												</g>
											</g>
										</g>
										<g>
											<path d="M386.8,212c-0.1-0.1-0.2-0.2-0.4-0.3c-0.1-0.1-0.3-0.2-0.4-0.2c-0.3-0.2-0.6-0.3-1-0.4c-0.6-0.2-1.3-0.3-2-0.3
												s-1.4,0.1-2,0.4c-0.6,0.3-1.2,0.7-1.6,1.3l0,0c0,0.1-0.1,0.1-0.2,0c-0.1,0-0.1-0.1,0-0.2c0.4-0.7,1-1.2,1.6-1.6
												c0.6-0.4,1.4-0.6,2.2-0.6c0.8-0.1,1.5,0,2.2,0.2c0.4,0.1,0.7,0.2,1.1,0.4c0.2,0.1,0.3,0.2,0.5,0.3s0.3,0.2,0.5,0.3
												c0.2,0.2,0.2,0.4,0.1,0.6C387.3,212.2,387,212.2,386.8,212C386.9,212.1,386.8,212.1,386.8,212L386.8,212z"/>
										</g>
									</g>
									<path class="st23" d="M393.4,204.5c0,0,4.4-4,10.7,1.5L393.4,204.5z"/>
									<path class="st23" d="M388.5,204.5c0,0-4.4-4-10.7,1.5L388.5,204.5z"/>
									<path class="st5" d="M386.9,221.6h8.4c0,0-0.5,2.7-4.2,2.7C387.3,224.4,386.9,221.6,386.9,221.6z"/>
								</g>
								<path class="st16" d="M385.8,192.2c0,0-4.9,1.4-5.9,6.4c-1,5.4-6.1,9.7-6.1,9.7s2.2-12.9,2.4-13.2
									C376.5,194.7,385.8,192.2,385.8,192.2z"/>
								<path class="st16" d="M385.8,192.2c0,0,4.8-2.6,7.3,3.2c2.9,6.8,15.1,9,15.1,9s1.6-8.1-6.4-11.5
									C393.9,189.4,390.6,189.3,385.8,192.2z"/>
								<path class="st16" d="M384.9,188.2c0,0,3.8-4.4,12.2-2.4c7,1.6,14.1,7,14.4,15.9l-3.2,2.9L396,192L384.9,188.2z"/>
								<path class="st16" d="M384.9,188.2c0,0-6-1.7-10.8,4c-6.3,7.5-2,17.2-2,17.2l7.7-14L384.9,188.2z"/>
							</g>
							<path class="st24" d="M411.7,299.5c-6.9,4.6-30.1,4.1-35.6,0.5c-0.2-0.6-0.1-1.5,0.3-2.9c0.8-2.9,2.6-7.4,2.5-12.6
								c-0.1-10.7-3.7-23.4-3.7-23.4s2,0.8-0.1-0.2v-0.1c0-0.1,0-0.1-0.1-0.2l0,0l0,0v-0.1c-0.1-0.2-0.2-0.5-0.3-0.9
								c-0.1-0.2-0.1-0.4-0.2-0.6c0-0.1,0-0.1-0.1-0.2c0-0.1-0.1-0.2-0.1-0.4l0,0l0,0c-0.5-1.7-1-3.6-1.5-5.4
								c-0.1-0.3-0.2-0.6-0.2-0.9c0,0,0,0,0-0.1c-0.8-3.1-1.6-7.3-0.9-7.9c0.1-0.1,0.2-0.2,0.4-0.4l0,0c1.8-1.6,7.5-3.4,11.4-4.4
								l0,0c2.1-0.6,6.5-1.6,7.6-1.8c0,0,3.7,0.8,7.7,1.9l0,0c4.1,1.1,9.8,2.9,11.5,4.3l0,0c0.2,0.2,0.3,0.3,0.4,0.5
								c0.4,0.6,0.2,2.9-0.1,6.3c-0.3,3.7-0.7,7.5-0.8,11.3c0,0.1,0,0.1,0,0.1c-0.1,2.1-0.4,4.3-0.7,6.6c-0.7,5.1-1.6,10.3-1.1,15
								C408.7,288.6,412.6,295.9,411.7,299.5z"/>
							<path class="st24" d="M402.8,273.7h-20.5c-4.4,0-8-3.6-8-8v-1.3c0-4.4,3.6-8,8-8h20.5c4.4,0,6.2,0.2,6.2,4.5l1.8,4.8
								C410.8,270.1,407.2,273.7,402.8,273.7z"/>
							<path class="st25" d="M411.7,299.5c-6.9,4.6-30.1,4.1-35.6,0.5c-0.2-0.6-0.1-1.5,0.3-2.9c4.8,3.2,27.4,2.4,30.5,1.6
								c3.4-0.8,1.6-4.6,1.6-4.6s-1.1-2.3-3-8.5c-1.9-6.3,2.7-17.1,2.7-17.1c0.3-0.3,0.7-0.2,1.1,0c-0.7,5.1-1.6,10.3-1.1,15
								C408.7,288.6,412.6,295.9,411.7,299.5z"/>
							<path class="st15" d="M400,239.9c-0.8,1.8-4,8.3-7.2,9c0,0-7.6-0.5-10.9-8.9c0.6-0.2,1.2-0.3,1.8-0.5l0,0
								c0.1,0,0.1-0.1,0.2-0.1l0.1-0.1c0.4-0.3,1-0.8,1.7-1.7c0-0.1,0.1-0.1,0.1-0.2c0.1-0.1,0.1-0.2,0.2-0.3c0-0.1,0.1-0.1,0.1-0.2
								c0.2-0.3,0.3-0.6,0.4-1c0.6,0,1.4-0.1,2.2-0.1l0,0c2.3-0.1,5,0,7.2,0.3c0.2,0.7,0.5,1.2,0.8,1.7c0.7,1,1.9,1.4,2.3,1.5
								c0.1,0,0.1,0,0.1,0l0,0C399.2,239.7,399.6,239.8,400,239.9z"/>
						</g>
					</g>
					<path class="st10" d="M417.8,310.6l-5.2-0.7c0,0,3.1-26,1.7-33.6c-1.6-8.5-5.5-17-5.5-17s-2.1-16.9,1.9-15.2
						s10.1,20.5,11.2,32.4C422.8,285.5,417.8,310.6,417.8,310.6z"/>
					<path class="st24" d="M409.7,243.5c0,0,8,1,10.6,20.9l-9.3,3.8c0,0-2.6-10.6-3.8-11.5C405.9,255.8,408.7,243.1,409.7,243.5z"/>
					<g>
						<path class="st10" d="M418.5,315.2c0.5-1.7-1.3-8.3-3.4-8.1c-1.2,0.2-3.2,4.9-3.1,7.3c0.5,0.3,0.8,1.2,1,1.7
							S418,317,418.5,315.2z"/>
						<path class="st10" d="M414.7,321.2c-0.1-1.3-0.2-3.3-0.2-5c0.4,0,0.8-0.1,1.2-0.2c0.2,1.6,0.4,3.7,0.4,4.9
							c0.1,1.8-0.2,2.7-0.6,2.8C415.1,323.6,414.8,322.8,414.7,321.2z"/>
						<path class="st10" d="M416.4,320.5c-0.2-1.2-0.4-3-0.5-4.7c0.4,0,0.9-0.2,1.3-0.3c0.3,1.5,0.5,3.5,0.6,4.7
							c0.2,1.7,0,2.5-0.4,2.6C417,322.8,416.7,322,416.4,320.5z"/>
						<path class="st10" d="M417.9,319.3c-0.2-1-0.4-2.6-0.4-4c0.3,0,0.8-0.2,1.1-0.3c0.3,1.3,0.4,3,0.5,4c0.2,1.4,0,2.2-0.4,2.2
							C418.3,321.3,418,320.7,417.9,319.3z"/>
						<path class="st10" d="M412.8,320.6c0-1.2,0-3.5,0.2-5.1c0.4,0,1,0.4,1.3,0.3c0.1,1.5-0.1,3.5-0.2,4.7
							c-0.1,1.7-0.4,2.5-0.9,2.5C413,323,412.8,322.1,412.8,320.6z"/>
						<path class="st10" d="M410,314c1-0.7,1.5-3.6,2.9-4.4c0.2,0.3,1.6,2.2,1.9,2.5c-1.2,1-2.5,2.2-3.5,2.9c-1.4,1-2.5,0.6-2.8,0.2
							C408.3,314.8,409.6,314.3,410,314z"/>
					</g>
					<g>
						<path class="st24" d="M376.8,244.3c0,0-3.7-5-21.4,9.4l4.5,8.7c0,0,12.3-6.7,13.8-6.6C375.3,255.9,377.9,244.7,376.8,244.3z"
							/>
						<path class="st10" d="M348.7,259.1c5.1,10.8,11.6,5,7.2-2.4c-3.9-6.7-9.8-32.2-9.8-32.2l-5.2,1
							C340.9,225.5,344.7,250.9,348.7,259.1z"/>
						<g>
							<path class="st10" d="M343.6,218.6c0.3,0.4,1,1.2,1.5,1.3c0.9,2.1,0.7,7.5-0.5,7.9c-2.1,0.8-5.9-4.7-6-6.5
								C338.6,219.5,343.3,218.3,343.6,218.6z"/>
							<path class="st10" d="M348,218.1c-0.4-0.2-1.5-0.2-2.5,1.2c-0.7,0.9-1.6,2.6-2.4,3.9c0.4,0.1,2.5,1.2,2.8,1.5
								c1.1-1.3,0.5-4,1.1-5C347.4,219.2,348.5,218.4,348,218.1z"/>
						</g>
					</g>
					<path class="st10" d="M417.8,310.6l-5.2-0.7c0,0,3.1-26,1.7-33.6c-1.6-8.5,6.5-11.7,7.7,0.1
						C422.8,285.5,417.8,310.6,417.8,310.6z"/>
					<path class="st19" d="M385.5,233.7c0.3,3.9-0.9,5.6-2.8,6.2c3.3,4.1,5.3,6.1,9.3,7.9c2.8-2.3,5-4,6.1-8.4
						c-1.9-0.9-2.6-2.9-2.7-5.3L385.5,233.7z"/>
					<path class="st20" d="M388.9,233.8l8.6,7.6l0.6-2.1c-1.9-0.9-2.6-2.9-2.7-5.3L388.9,233.8z"/>
					<path class="st25" d="M374.4,267.1c0,0,0.4,5.7,7,5.7c5.6,0,22,0,22,0s6.5,0.3,7.3-5.6c0,0-1.2,2.9-7.4,2.9
						c-5.2,0-22.2,0-22.2,0S376.3,270,374.4,267.1z"/>
					<path class="st20" d="M390.8,218.6c-1.3,0-2.4-0.6-2.7-1.3c0,0.1-0.1,0.2-0.1,0.4c0,1,1.2,1.7,2.7,1.7s2.7-0.8,2.7-1.7
						c0-0.1,0-0.3-0.1-0.4C393.2,218,392.1,218.6,390.8,218.6z"/>
				</g>
			</g>
			<polygon class="st10" points="356.1,255 355.3,255.6 355.5,264.8 359.8,261.9 			"/>
		</g>
		<g>
			<g>
				<g>
					<polygon class="st26" points="330.2,220.6 331.6,222 331.6,222.2 331.3,224 328.6,224 326.4,223.9 325.8,223.9 					"/>
					<polygon class="st27" points="330.3,221 331.6,222.2 331.3,224 328.6,224 326.4,223.9 328.1,222.6 					"/>
					<path class="st28" d="M330.2,220.6L330.2,220.6l17.3-5.6c0.5-0.2,1.1,0,1.4,0.3c0.2,0.2,0.3,0.3,0.4,0.6l0.2,0.7
						c0.2,0.7-0.2,1.5-0.9,1.8l-17.2,5.6l0,0l0,0l0,0l0,0l0,0l-0.1-0.2l-0.3-0.4l0.2-0.9l-0.5-0.6l-0.3-0.6l0,0L330.2,220.6
						L330.2,220.6L330.2,220.6L330.2,220.6z"/>
					<path class="st3" d="M330.3,221.4l18.6-6c0.2,0.2,0.3,0.3,0.4,0.6l0.2,0.7c0.2,0.7-0.2,1.5-0.9,1.8l-17.2,5.6l0,0l0,0l0,0l0,0
						l-0.1-0.2l-0.3-0.4l0.2-0.9l-0.5-0.6L330.3,221.4L330.3,221.4z"/>
					<path class="st29" d="M349,215.2l0.7,2.1c0.1,0.3-0.1,0.7-0.4,0.8l-1.2,0.4l-1.1-3.4l1.2-0.4
						C348.5,214.6,348.9,214.8,349,215.2z"/>
					
						<rect x="346.9" y="215.1" transform="matrix(0.951 -0.3093 0.3093 0.951 -50.0629 118.0223)" class="st5" width="0.6" height="3.6"/>
					<polygon class="st29" points="327.8,223.9 327.4,222.7 325.8,223.9 					"/>
				</g>
			</g>
		</g>
		<g>
			<path class="st10" d="M341.7,218c-0.2-0.3-0.3-0.6-0.5-1c-0.5-1.1-1.9-0.6-1.3,0.5c0.2,0.3,0.3,0.6,0.5,0.9
				c0.8,1.6,1.5,2.3,1.9,2.1C342.7,220.4,342.5,219.5,341.7,218z"/>
			<path class="st10" d="M340,218.3c-0.1-0.2-0.2-0.5-0.3-0.7c-0.5-1-1.8-0.6-1.3,0.4c0.1,0.3,0.2,0.5,0.3,0.7
				c0.7,1.5,1.3,2.2,1.7,2.1C340.6,220.6,340.5,219.7,340,218.3z"/>
			<path class="st10" d="M338.1,218.1c-0.4-0.9-1.6-0.6-1.2,0.2c0.6,1.4,1.1,1.9,1.4,1.7C338.7,220,338.6,219.4,338.1,218.1z"/>
			<path class="st10" d="M343.1,216.6c0-0.1-0.1-0.1-0.1-0.2c-0.7-1.1-2.1-0.6-1.4,0.5c0.1,0.1,0.2,0.2,0.2,0.4
				c0.9,1.4,1.7,1.9,2,1.6C344.2,218.7,343.9,217.8,343.1,216.6z"/>
		</g>
	</g>
	<g>
		<path class="st28" d="M194.5,415.7c23.7-23.7,23.7-62.1,0-85.8c-23.7-23.7-62.1-23.7-85.8,0s-23.7,62.1,0,85.8
			C132.3,439.4,170.7,439.4,194.5,415.7z"/>
		<path class="st30" d="M144.8,404.3l-33-31.1l14.1-13.2l18.9,17.7l38.1-35.7l14.1,13.3L144.8,404.3z"/>
	</g>
</g>
</svg>
