<?xml version="1.0" encoding="UTF-8"?>
<svg width="443px" height="617px" viewBox="0 0 443 617" version="1.1" xmlns="http://www.w3.org/2000/svg" xmlns:xlink="http://www.w3.org/1999/xlink">
    <!-- Generator: Sketch 61.1 (89650) - https://sketch.com -->
    <title>Group 21 Copy</title>
    <desc>Created with Sketch.</desc>
    <g id="Page-1" stroke="none" stroke-width="1" fill="none" fill-rule="evenodd" opacity="0.185477121">
        <g id="Droplet-&amp;-Contact" transform="translate(-169.000000, -2959.000000)">
            <g id="Group-21-Copy" transform="translate(169.000000, 2959.000000)">
                <polygon id="Fill-1" fill="#E1E1E1" points="0.5 617 442.5 617 442.5 0 0.5 0"></polygon>
                <polygon id="Fill-2" fill="#E1E1E1" points="216.5 617 227.5 617 227.5 17 216.5 17"></polygon>
                <polygon id="Fill-3" fill="#38B5F9" points="17.5 617 216.5 617 216.5 17 17.5 17"></polygon>
                <polygon id="Fill-4" fill="#FFFFFF" points="50.5 257 182.5 257 182.5 51 50.5 51"></polygon>
                <g id="Group-9" transform="translate(50.500000, 51.000000)" fill="#38B5F9">
                    <polygon id="Fill-5" points="132.737093 0.098983 132.737093 205.727153 0.236100775 205.727153 0.236100775 189.576753 131.651442 0.098983"></polygon>
                    <polygon id="Fill-7" points="102.681774 0.098983 0.23671938 123.315823 0.23671938 99.091253 78.9850915 0.098983"></polygon>
                </g>
                <polygon id="Fill-10" fill="#717984" points="195.5 299 208.5 299 208.5 165 195.5 165"></polygon>
                <polygon id="Fill-11" fill="#FFFFFF" points="193.5 296 206.5 296 206.5 162 193.5 162"></polygon>
                <polygon id="Fill-12" fill="#38B5F9" points="228.5 617 427.5 617 427.5 17 228.5 17"></polygon>
                <polygon id="Fill-13" fill="#FFFFFF" points="261.5 257 393.5 257 393.5 51 261.5 51"></polygon>
                <g id="Group-18" transform="translate(260.500000, 51.000000)" fill="#38B5F9">
                    <polygon id="Fill-14" points="133.125083 0.098983 133.125083 205.727153 0.655775385 205.727153 0.655775385 189.576753 132.040714 0.098983"></polygon>
                    <polygon id="Fill-16" points="103.078778 0.098983 0.656393846 123.315823 0.656393846 99.091253 79.3875785 0.098983"></polygon>
                </g>
                <polygon id="Fill-19" fill="#717984" points="237.5 299 250.5 299 250.5 165 237.5 165"></polygon>
                <polygon id="Fill-20" fill="#FFFFFF" points="235.5 296 248.5 296 248.5 162 235.5 162"></polygon>
            </g>
        </g>
    </g>
</svg>