<?xml version="1.0" encoding="UTF-8"?>
<svg width="83px" height="89px" viewBox="0 0 83 89" version="1.1" xmlns="http://www.w3.org/2000/svg" xmlns:xlink="http://www.w3.org/1999/xlink">
    <!-- Generator: Sketch 61.1 (89650) - https://sketch.com -->
    <title>Group 2</title>
    <desc>Created with Sketch.</desc>
    <defs>
        <polygon id="path-1" points="0.236017241 0.0894406025 29.9758448 0.0894406025 29.9758448 33.5071408 0.236017241 33.5071408"></polygon>
    </defs>
    <g id="Page-1" stroke="none" stroke-width="1" fill="none" fill-rule="evenodd">
        <g id="Airbone-&amp;-Contact" transform="translate(-799.000000, -3556.000000)">
            <g id="Group-2" transform="translate(799.000000, 3556.000000)">
                <g id="Group-18-Copy-3">
                    <polygon id="Fill-1" fill="#43ACEC" points="0 0.0141898284 0.0777727683 3.83733502 3.14979711 15 6 13.4080364 0 0"></polygon>
                    <polygon id="Fill-2" fill="#43ACEC" points="34 13.4078061 36.8502029 15 39.9222272 3.8377514 40 0"></polygon>
                    <g id="Group-17" transform="translate(2.000000, 7.000000)">
                        <path d="M16.9960457,26.999865 C-0.847611429,26.999865 -0.355268571,4.1602275 0.343474286,3.14334 C0.498102857,2.9189025 0.87456,2.8757025 1.10118857,2.9033775 C1.48244571,2.9499525 1.85513143,3.110265 2.21753143,3.241215 C2.69170286,3.4130025 3.16656,3.5844525 3.64621714,3.738015 C4.19410286,3.913515 4.75090286,4.0623525 5.32107429,4.10994 C5.76027429,4.1467275 6.20324571,4.15449 6.64176,4.0981275 C6.73227429,4.0859775 6.82141714,4.070115 6.90953143,4.0502025 C7.39570286,3.9408525 7.84656,3.720465 8.31078857,3.5210025 C8.59707429,3.397815 8.88781714,3.2867775 9.17684571,3.172365 C10.1834743,2.775465 11.1163886,2.2290525 12.06576,1.6937775 C13.5085029,0.87939 15.5368457,0.107865 17.8915886,0.15039 C17.90016,0.1507275 17.9077029,0.1514025 17.9162743,0.15174 C17.92416,0.1514025 17.9317029,0.1507275 17.9402743,0.15039 C20.2950171,0.107865 22.32336,0.87939 23.7661029,1.6937775 C24.7158171,2.2290525 25.6483886,2.775465 26.6550171,3.172365 C26.9447314,3.2867775 27.2351314,3.397815 27.5214171,3.5210025 C27.9856457,3.720465 28.4365029,3.9408525 28.9223314,4.0502025 C29.0104457,4.070115 29.0999314,4.0859775 29.1904457,4.0981275 C29.6286171,4.15449 30.0719314,4.1467275 30.5107886,4.10994 C31.0813029,4.0623525 31.6381029,3.913515 32.1859886,3.738015 C32.6653029,3.5844525 33.1405029,3.4130025 33.6150171,3.241215 C33.9770743,3.110265 34.34976,2.9499525 34.73136,2.9033775 C34.9576457,2.8757025 35.3341029,2.9189025 35.4887314,3.14334 C36.1874743,4.1602275 36.62256,26.999865 18.7789029,26.999865 L16.9960457,26.999865 Z" id="Fill-3" fill="#F7F7F6"></path>
                        <path d="M17.0288571,26.5176787 C-0.173657143,26.5176787 0.300857143,4.81271625 0.974571429,3.84679125 C1.12337143,3.63315375 1.4868,3.59197875 1.70485714,3.61830375 C2.07274286,3.66251625 2.43205714,3.81506625 2.78108571,3.93994125 C3.23845714,4.10295375 3.69651429,4.26562875 4.15902857,4.41176625 C4.68702857,4.57849125 5.2236,4.71956625 5.77354286,4.76512875 C6.19697143,4.79989125 6.62417143,4.80765375 7.04657143,4.75365375 C7.134,4.74217875 7.2204,4.72732875 7.30508571,4.70842875 C7.77342857,4.60447875 8.20817143,4.39489125 8.6556,4.20555375 C8.93194286,4.08844125 9.21171429,3.98280375 9.4908,3.87412875 C10.4614286,3.49680375 11.3607429,2.97806625 12.2761714,2.46877875 C13.6668,1.69522875 15.6221143,0.96184125 17.8928571,1.00234125 C17.9007429,1.00234125 17.9079429,1.00335375 17.9161714,1.00335375 C17.9237143,1.00335375 17.9312571,1.00234125 17.9391429,1.00234125 C20.2095429,0.96184125 22.1648571,1.69522875 23.5558286,2.46877875 C24.4712571,2.97806625 25.3709143,3.49680375 26.3408571,3.87412875 C26.6202857,3.98280375 26.9000571,4.08844125 27.1764,4.20555375 C27.6234857,4.39489125 28.0585714,4.60447875 28.5269143,4.70842875 C28.6119429,4.72732875 28.6976571,4.74217875 28.7854286,4.75365375 C29.2078286,4.80765375 29.6350286,4.79989125 30.0584571,4.76512875 C30.6080571,4.71956625 31.1449714,4.57849125 31.6733143,4.41176625 C32.1358286,4.26562875 32.5932,4.10295375 33.0509143,3.93994125 C33.3999429,3.81506625 33.7592571,3.66251625 34.1268,3.61830375 C34.3452,3.59197875 34.7079429,3.63315375 34.8570857,3.84679125 C35.5311429,4.81271625 35.9504571,26.5176787 18.7479429,26.5176787 L17.0288571,26.5176787 Z" id="Stroke-5" stroke="#C6C6C5" stroke-width="0.312" stroke-linecap="round" stroke-linejoin="round" stroke-dasharray="2.101,4.201"></path>
                        <path d="M17.0569714,25.5101062 C0.404057143,25.5101062 0.863485714,5.42818125 1.5156,4.53414375 C1.6596,4.33670625 2.01102857,4.29856875 2.22222857,4.32320625 C2.57845714,4.36404375 2.92611429,4.50511875 3.26417143,4.62020625 C3.7068,4.77140625 4.15011429,4.92193125 4.59788571,5.05693125 C5.10908571,5.21116875 5.62885714,5.34178125 6.16131429,5.38396875 C6.57102857,5.41636875 6.98451429,5.42278125 7.39354286,5.37350625 C7.47822857,5.36304375 7.56154286,5.34886875 7.64382857,5.33131875 C8.09708571,5.23513125 8.51811429,5.04174375 8.95114286,4.86590625 C9.21857143,4.75790625 9.48977143,4.66036875 9.75994286,4.55979375 C10.6990286,4.21081875 11.5698857,3.73055625 12.4558286,3.25906875 C13.8025714,2.54323125 15.6954857,1.86485625 17.8932,1.90265625 C17.9010857,1.90265625 17.9079429,1.90333125 17.9158286,1.90400625 C17.9233714,1.90333125 17.9305714,1.90265625 17.9384571,1.90265625 C20.1361714,1.86485625 22.0294286,2.54323125 23.3758286,3.25906875 C24.2621143,3.73055625 25.1326286,4.21081875 26.0720571,4.55979375 C26.3418857,4.66036875 26.6130857,4.75790625 26.8805143,4.86590625 C27.3135429,5.04174375 27.7345714,5.23513125 28.1881714,5.33131875 C28.2701143,5.34886875 28.3534286,5.36304375 28.4381143,5.37350625 C28.8471429,5.42278125 29.2606286,5.41636875 29.6706857,5.38396875 C30.2028,5.34178125 30.7222286,5.21116875 31.2337714,5.05693125 C31.6812,4.92193125 32.1245143,4.77140625 32.5674857,4.62020625 C32.9058857,4.50511875 33.2532,4.36404375 33.6090857,4.32320625 C33.8206286,4.29856875 34.1720571,4.33670625 34.3164,4.53414375 C34.9685143,5.42818125 35.3744571,25.5101062 18.7212,25.5101062 L17.0569714,25.5101062 Z" id="Fill-7" fill="#2B96F4"></path>
                        <path d="M6.21915429,9.7646175 C6.21915429,9.7646175 13.6025829,12.346155 18.8105829,12.32253 C23.6458971,12.300255 30.4900114,9.7646175 30.4900114,9.7646175 C30.4900114,9.7646175 24.2959543,10.3957425 18.8530971,10.3201425 C13.41024,10.244205 6.21915429,9.7646175 6.21915429,9.7646175" id="Fill-9" fill="#0C87D4"></path>
                        <path d="M6.21915429,15.4595925 C6.21915429,15.4595925 14.0668114,17.84538 18.5842971,17.76573 C23.4192686,17.680005 30.4900114,15.4595925 30.4900114,15.4595925 C30.4900114,15.4595925 24.2959543,15.860205 18.8530971,15.7842675 C13.41024,15.70833 6.21915429,15.4595925 6.21915429,15.4595925" id="Fill-11" fill="#0C87D4"></path>
                        <path d="M6.21915429,19.8718312 C6.21915429,19.8718312 13.9817829,22.5887063 19.0324114,22.5525937 C23.8680686,22.5181688 30.4900114,19.5272438 30.4900114,19.5272438 C30.4900114,19.5272438 24.1591543,20.8934437 18.7162971,20.8181813 C13.27344,20.7422438 6.21915429,19.8718312 6.21915429,19.8718312" id="Fill-13" fill="#0C87D4"></path>
                        <path d="M1.96388571,5.82933375 C2.10308571,5.63898375 2.44251429,5.60185875 2.64651429,5.62548375 C2.9904,5.66530875 3.32674286,5.80098375 3.65314286,5.91269625 C4.08102857,6.05849625 4.50925714,6.20395875 4.94194286,6.33457125 C5.43565714,6.48340875 5.93794286,6.60997125 6.45188571,6.65047125 C6.84788571,6.68152125 7.24731429,6.68827125 7.64228571,6.64000875 C7.72422857,6.63022125 7.8048,6.61638375 7.88434286,6.59950875 C8.32217143,6.50669625 8.7288,6.31938375 9.14742857,6.14995875 C9.4056,6.04567125 9.66754286,5.95117125 9.92845714,5.85430875 C10.836,5.51680875 11.6773714,5.05274625 12.5334857,4.59779625 C13.8342857,3.90625875 15.6630857,3.25083375 17.7860571,3.28728375 C17.7939429,3.28728375 17.8004571,3.28795875 17.808,3.28829625 C17.8155429,3.28795875 17.8224,3.28728375 17.8299429,3.28728375 C19.9532571,3.25083375 21.7820571,3.90625875 23.0832,4.59779625 C23.9393143,5.05274625 24.7803429,5.51680875 25.6875429,5.85430875 C25.9488,5.95117125 26.2107429,6.04567125 26.4689143,6.14995875 C26.8872,6.31938375 27.2938286,6.50669625 27.732,6.59950875 C27.8115429,6.61638375 27.8921143,6.63022125 27.9737143,6.64000875 C28.3690286,6.68827125 28.7684571,6.68152125 29.1644571,6.65047125 C29.6784,6.60997125 30.1806857,6.48340875 30.6744,6.33457125 C31.1070857,6.20395875 31.5353143,6.05849625 31.9628571,5.91269625 C32.2896,5.80098375 32.6256,5.66530875 32.9694857,5.62548375 C33.1734857,5.60185875 33.5132571,5.63898375 33.6524571,5.82933375 C34.0446857,6.36764625 34.3429714,14.0960588 30.6260571,19.8500963 C35.0571429,13.8382088 34.7413714,5.11653375 34.3162286,4.53400875 C34.1718857,4.33657125 33.8204571,4.29877125 33.6092571,4.32307125 C33.2533714,4.36390875 32.9053714,4.50498375 32.5676571,4.62007125 C32.1246857,4.77127125 31.6813714,4.92213375 31.2336,5.05713375 C30.7224,5.21137125 30.2026286,5.34198375 29.6708571,5.38417125 C29.2604571,5.41623375 28.8469714,5.42298375 28.4382857,5.37337125 C28.3536,5.36290875 28.2702857,5.34873375 28.188,5.33118375 C27.7347429,5.23499625 27.3137143,5.04160875 26.8806857,4.86610875 C26.6132571,4.75777125 26.3424,4.66023375 26.0718857,4.55965875 C25.1324571,4.21068375 24.2619429,3.73042125 23.3756571,3.25927125 C22.0292571,2.54343375 20.1363429,1.86505875 17.9386286,1.90252125 C17.9304,1.90252125 17.9235429,1.90353375 17.9156571,1.90353375 C17.9081143,1.90353375 17.9009143,1.90252125 17.8933714,1.90252125 C15.6956571,1.86505875 13.8024,2.54343375 12.456,3.25927125 C11.5700571,3.73042125 10.6992,4.21068375 9.75977143,4.55965875 C9.4896,4.66023375 9.2184,4.75777125 8.95131429,4.86610875 C8.51794286,5.04160875 8.09725714,5.23499625 7.64365714,5.33118375 C7.56137143,5.34873375 7.47805714,5.36290875 7.39337143,5.37337125 C6.98468571,5.42298375 6.5712,5.41623375 6.16114286,5.38417125 C5.62868571,5.34198375 5.10925714,5.21137125 4.59805714,5.05713375 C4.15028571,4.92213375 3.70697143,4.77127125 3.26434286,4.62007125 C2.92628571,4.50498375 2.57828571,4.36390875 2.2224,4.32307125 C2.0112,4.29877125 1.65942857,4.33657125 1.51542857,4.53400875 C1.15577143,5.02743375 0.860571429,11.3619712 3.4608,16.9421963 C1.36182857,11.7841838 1.63474286,6.28057125 1.96388571,5.82933375" id="Fill-15" fill="#DAE8EF"></path>
                    </g>
                    <circle id="Oval" fill="#FFFFFF" cx="18.5" cy="27.5" r="2.5"></circle>
                </g>
                <g id="Group-12-Copy-2" transform="translate(44.000000, 55.000000)">
                    <polygon id="Fill-1" fill="#4197E5" points="0 4 39 4 39 0 0 0"></polygon>
                    <g id="Group-11" transform="translate(5.000000, 0.000000)">
                        <g id="Group-4">
                            <mask id="mask-2" fill="white">
                                <use xlink:href="#path-1"></use>
                            </mask>
                            <g id="Clip-3"></g>
                            <path d="M22.0855862,33.5071408 L8.12601724,33.5071408 C3.76851724,33.5071408 0.236017241,29.9033969 0.236017241,25.4577505 L0.236017241,0.0893350679 L29.9758448,0.0893350679 L29.9758448,25.4577505 C29.9758448,29.9033969 26.4433448,33.5071408 22.0855862,33.5071408" id="Fill-2" stroke="#979797" stroke-width="2" fill="#A7ECFF" opacity="0.250279018" mask="url(#mask-2)"></path>
                        </g>
                        <path d="M27.9441983,27.2005758 L27.9441983,0.0895197535 L25.0362672,0.0895197535 L25.0362672,27.2005758 C25.0362672,29.4566424 24.0995431,31.5098187 22.5674741,33.0474584 C21.7598017,33.301533 20.901181,33.4503368 20.0110086,33.4899123 C20.0045431,33.4954529 19.9983362,33.501785 19.9921293,33.5070617 L20.6466983,33.5070617 C22.993681,33.5070617 25.1366121,32.7036793 26.77575,31.380275 C27.5190259,30.1415622 27.9441983,28.7173723 27.9441983,27.2005758" id="Fill-5" fill="#C0EDFF" opacity="0.413760231"></path>
                        <path d="M2.92869828,2.14047984 C2.92869828,2.52515358 2.59171552,2.83674459 2.17611207,2.83674459 C1.76025,2.83674459 1.42352586,2.52515358 1.42352586,2.14047984 C1.42352586,1.75606993 1.76025,1.44421509 2.17611207,1.44421509 C2.59171552,1.44421509 2.92869828,1.75606993 2.92869828,2.14047984" id="Fill-7" fill="#FFFFFF"></path>
                        <path d="M28.6968362,2.14047984 C28.6968362,2.52515358 28.3598534,2.83674459 27.94425,2.83674459 C27.5283879,2.83674459 27.1916638,2.52515358 27.1916638,2.14047984 C27.1916638,1.75606993 27.5283879,1.44421509 27.94425,1.44421509 C28.3598534,1.44421509 28.6968362,1.75606993 28.6968362,2.14047984" id="Fill-9" fill="#FFFFFF"></path>
                    </g>
                </g>
                <line x1="78" y1="8" x2="4" y2="77" id="Line-2-Copy" stroke="#558FF9" opacity="0.465425037" stroke-linecap="square"></line>
            </g>
        </g>
    </g>
</svg>