<?xml version="1.0" encoding="UTF-8"?>
<svg width="147px" height="130px" viewBox="0 0 147 130" version="1.1" xmlns="http://www.w3.org/2000/svg" xmlns:xlink="http://www.w3.org/1999/xlink">
    <!-- Generator: Sketch 61.1 (89650) - https://sketch.com -->
    <title>Faceshield-33</title>
    <desc>Created with Sketch.</desc>
    <g id="Page-1" stroke="none" stroke-width="1" fill="none" fill-rule="evenodd">
        <g id="Airbone-&amp;-Contact-Copy" transform="translate(-959.000000, -1320.000000)">
            <g id="Faceshield-33" transform="translate(959.000000, 1321.000000)">
                <path d="M15.46,0.65 L130.46,0.65 L130.46,96.81 C130.46,113.660208 116.800208,127.320015 99.95,127.320015 L46,127.320015 C37.9030483,127.327962 30.1350011,124.117039 24.4067761,118.394441 C18.6785511,112.671843 15.46,104.906956 15.46,96.81 L15.46,0.65 Z" id="Path" stroke="#979797" stroke-width="2" fill="#A7ECFF" opacity="0.250279018"></path>
                <path d="M122.6,103.41 L122.6,0.65 L111.35,0.65 L111.35,103.41 C111.292788,111.781832 107.851862,119.774592 101.81,125.57 C98.599222,126.55266 95.2751619,127.117314 91.92,127.25 L91.85,127.310913 L94.38,127.310913 C102.962319,127.369387 111.313302,124.529348 118.08,119.25 C121.024369,114.490414 122.589172,109.006682 122.6,103.41 L122.6,103.41 Z" id="Path" fill="#C0EDFF" opacity="0.413760231"></path>
                <path d="M146.68,15.86 L1.09,16.2 L0.41,10.06 L0,0.66 L146,0 C146,0 146.93,7.46 146.93,9.77 C146.9,11.35 146.68,15.86 146.68,15.86 Z" id="Path" fill="#2B96F4" fill-rule="nonzero"></path>
                <ellipse id="Oval" fill="#FFFFFF" fill-rule="nonzero" cx="22.96" cy="8.43" rx="2.91" ry="2.64"></ellipse>
                <ellipse id="Oval" fill="#FFFFFF" fill-rule="nonzero" cx="122.6" cy="8.43" rx="2.91" ry="2.64"></ellipse>
                <polygon id="Path" fill="#FFFFFF" fill-rule="nonzero" points="39.57 4.42 44.51 4.42 44.51 5.92 41.4 5.92 41.4 7.76 44.31 7.76 44.31 9.25 41.4 9.25 41.4 12.5 39.57 12.5"></polygon>
                <path d="M47,10.43 L46.4,12.5 L44.5,12.5 L47,4.42 L49.4,4.42 L51.91,12.5 L49.91,12.5 L49.29,10.43 L47,10.43 Z M49,9.06 L48.5,7.34 C48.36,6.87 48.21,6.27 48.09,5.79 L48.09,5.79 C47.97,6.27 47.85,6.88 47.72,7.34 L47.24,9.06 L49,9.06 Z" id="Shape" fill="#FFFFFF" fill-rule="nonzero"></path>
                <path d="M58.6,12.27 C57.9380085,12.5280849 57.2299997,12.647221 56.52,12.62 C53.73,12.62 52.29,10.88 52.29,8.62 C52.2266708,7.43915644 52.673794,6.28803046 53.5175949,5.45953659 C54.3613958,4.63104271 55.5205135,4.20506596 56.7,4.29 C57.3849424,4.26271616 58.0675628,4.38558783 58.7,4.65 L58.32,6.1 C57.8356338,5.89723803 57.3150711,5.79516692 56.79,5.8 C56.0750955,5.74858241 55.3741769,6.01671637 54.8761189,6.53214856 C54.3780608,7.04758076 54.1341088,7.75727795 54.21,8.47 C54.1395941,9.18053429 54.38788,9.88571066 54.8879145,10.3953983 C55.3879489,10.905086 56.0882495,11.1668085 56.8,11.11 C57.3175899,11.108349 57.8312886,11.0204795 58.32,10.85 L58.6,12.27 Z" id="Path" fill="#FFFFFF" fill-rule="nonzero"></path>
                <polygon id="Path" fill="#FFFFFF" fill-rule="nonzero" points="64.61 9.08 61.61 9.08 61.61 11 65 11 65 12.5 59.8 12.5 59.8 4.42 64.8 4.42 64.8 5.92 61.64 5.92 61.64 7.6 64.64 7.6"></polygon>
                <path d="M68.69,10.62 C69.3114486,10.932624 69.9945458,11.1033983 70.69,11.12 C71.53,11.12 71.97,10.77 71.97,10.25 C71.97,9.73 71.59,9.46 70.62,9.11 C69.27,8.64 68.4,7.9 68.4,6.72 C68.4,5.34 69.55,4.29 71.46,4.29 C72.1670739,4.27791732 72.8688294,4.41418051 73.52,4.69 L73.11,6.17 C72.5836749,5.91422637 72.005153,5.78414452 71.42,5.79 C70.63,5.79 70.25,6.15 70.25,6.57 C70.25,6.99 70.7,7.31 71.74,7.7 C73.17,8.23 73.84,8.98 73.84,10.12 C73.84,11.47 72.84,12.62 70.58,12.62 C69.7898137,12.6281189 69.0076747,12.4607616 68.29,12.13 L68.69,10.62 Z" id="Path" fill="#FFFFFF" fill-rule="nonzero"></path>
                <polygon id="Path" fill="#FFFFFF" fill-rule="nonzero" points="77 4.42 77 7.52 80 7.52 80 4.42 81.82 4.42 81.82 12.5 80 12.5 80 9.12 77 9.12 77 12.5 75.11 12.5 75.11 4.42"></polygon>
                <polygon id="Path" fill="#FFFFFF" fill-rule="nonzero" points="85.22 4.42 85.22 12.5 83.38 12.5 83.38 4.42"></polygon>
                <polygon id="Path" fill="#FFFFFF" fill-rule="nonzero" points="91.61 9.08 88.61 9.08 88.61 11 92 11 92 12.5 86.8 12.5 86.8 4.42 91.8 4.42 91.8 5.92 88.64 5.92 88.64 7.6 91.64 7.6"></polygon>
                <polygon id="Path" fill="#FFFFFF" fill-rule="nonzero" points="93.21 4.42 95 4.42 95 11 98.22 11 98.22 12.5 93.21 12.5"></polygon>
                <path d="M99.34,4.53 C100.157707,4.40962139 100.983512,4.35278461 101.81,4.36 C102.978876,4.2636807 104.145842,4.56688017 105.12,5.22 C106.051129,5.94897753 106.563539,7.08974549 106.49,8.27 C106.557215,9.50594881 106.065194,10.7066285 105.15,11.54 C104.060376,12.3079972 102.740128,12.6786551 101.41,12.59 C100.718123,12.595138 100.026649,12.5550526 99.34,12.47 L99.34,4.53 Z M101.18,11.12 C101.389394,11.1425649 101.600606,11.1425649 101.81,11.12 C102.574006,11.19714 103.33129,10.9203115 103.865427,10.3686294 C104.399565,9.8169473 104.651783,9.05111508 104.55,8.29 C104.613025,7.59801942 104.363924,6.91401836 103.870664,6.42462704 C103.377404,5.93523573 102.691463,5.69152811 102,5.76 C101.725013,5.75583964 101.450303,5.77929051 101.18,5.83 L101.18,11.12 Z" id="Shape" fill="#FFFFFF" fill-rule="nonzero"></path>
            </g>
        </g>
    </g>
</svg>