<svg xmlns="http://www.w3.org/2000/svg" xmlns:xlink="http://www.w3.org/1999/xlink" viewBox="0 0 121.82 78.89"><defs><style>.cls-1,.cls-4,.cls-5,.cls-7,.cls-8{fill:none;}.cls-2{fill:#ffca47;}.cls-3{fill:#e6e8e8;}.cls-4,.cls-5,.cls-7,.cls-8{stroke:#bfbfbf;stroke-miterlimit:10;}.cls-4{stroke-width:1.67px;}.cls-5{stroke-width:0.29px;stroke-dasharray:0 0.58 1.45 0 0 0;}.cls-6,.cls-9{fill:#bfbfbf;}.cls-6{opacity:0.4;}.cls-7,.cls-8{stroke-width:0.28px;}.cls-7{stroke-dasharray:1.39 0 0 0;}.cls-8{stroke-dasharray:0.01 0.55 1.39 0 0 0;}.cls-10{fill:#f7fbfc;}.cls-11{opacity:0.3;}.cls-12{clip-path:url(#clip-path);}.cls-13{opacity:0.5;}</style><clipPath id="clip-path"><path class="cls-1" d="M52.09,15.07S31,57.75,31,62.27s56.64-.55,56.64-.55S70.07,16.64,69.52,16.18,63.05,0,63.05,0s-7.19,2.4-7.63,3.92S50.71,10.76,52.09,15.07Z"/></clipPath></defs><g id="OBJECT"><path class="cls-2" d="M106.23,61.78a17.92,17.92,0,0,1-5.4-.81,14.73,14.73,0,0,1-9.5-9l2-.68a12.53,12.53,0,0,0,8.12,7.63,17.83,17.83,0,0,0,11.61-.59c3-1.15,6.31-3.54,6.56-6.82.16-2.2-1-4.24-2.3-6.39a20.23,20.23,0,0,1-2.45-5.29c-.86-3.58.3-7,1.42-10.38a34.1,34.1,0,0,0,1.49-5.37A15.31,15.31,0,0,0,114.42,12c-1.22-1.44-3.19-2.66-4.61-1.92a5.16,5.16,0,0,0-1.56,1.59l-12,16.07-1.72-1.29,12-16.06a7.17,7.17,0,0,1,2.31-2.23c2.64-1.36,5.55.47,7.23,2.45a17.49,17.49,0,0,1,3.88,13.81,35.93,35.93,0,0,1-1.57,5.73c-1.07,3.19-2.09,6.21-1.37,9.18A18.22,18.22,0,0,0,119.21,44c1.38,2.34,2.8,4.77,2.59,7.64-.28,3.64-3.24,6.88-7.94,8.67A21.56,21.56,0,0,1,106.23,61.78Z"/><path class="cls-2" d="M14.57,63.08a12,12,0,0,1-4.25-.76c-6-2.3-8.78-9-9.41-14.52a61.35,61.35,0,0,1-.08-9.58A75.65,75.65,0,0,0,.9,30.54C.81,29.17.64,27.76.48,26.4a32.89,32.89,0,0,1-.16-9.86c.9-4.88,5.05-9.82,10.17-9.3,4.08.42,6.87,4,8.85,7l.29.44c1.85,2.85,3.76,5.8,6.73,6.86l-.6,1.68C22.21,22,20,18.62,18.13,15.67l-.29-.44C16.08,12.51,13.63,9.36,10.31,9c-4.07-.44-7.47,3.74-8.23,7.85a31.12,31.12,0,0,0,.18,9.32c.17,1.38.34,2.82.42,4.24a73.48,73.48,0,0,1-.06,7.86,60.29,60.29,0,0,0,.07,9.31c.57,5,3,11,8.28,13a11.22,11.22,0,0,0,10.28-1.5A14.92,14.92,0,0,0,27,50.06l1.75.37a16.79,16.79,0,0,1-6.48,10.19A13.52,13.52,0,0,1,14.57,63.08Z"/><path class="cls-3" d="M104.16,34.16l-.93,1.61L89.11,60.2a4.15,4.15,0,0,1-3.59,2.07H31a4.14,4.14,0,0,1-3.6-2.08l-14-24.44-.92-1.62A4.15,4.15,0,0,1,14,28.43c9.4-5.18,34.13-17.59,39.22-21.25,6.2-4.46,13.93,0,13.93,0L102.7,28.53A4.15,4.15,0,0,1,104.16,34.16Z"/><ellipse class="cls-3" cx="58.82" cy="58.03" rx="29.78" ry="20.03"/><ellipse class="cls-4" cx="58.82" cy="58.03" rx="29.78" ry="20.03"/><ellipse class="cls-5" cx="58.82" cy="58.03" rx="27.37" ry="18.41"/><path class="cls-6" d="M84,64.89H32.44a2.2,2.2,0,0,1-2.2-2.19h0a2.21,2.21,0,0,1,2.2-2.2H84a2.21,2.21,0,0,1,2.2,2.2h1C87.21,63.91,85.21,64.89,84,64.89Z"/><path class="cls-7" d="M14.48,31.64,15.7,31"/><path class="cls-8" d="M15.7,31c10.39-5.59,32.8-16.75,37.52-20.32,6.41-4.85,11.13-2.42,13.93,0,8.1,7,36.24,22.41,36.75,22.69"/><path class="cls-7" d="M14.48,33l1.22-.66"/><path class="cls-8" d="M15.7,32.29C26.09,26.7,48.5,15.53,53.22,12c6.41-4.85,11.13-2.42,13.93,0,8.1,7,36.24,22.41,36.75,22.69"/><path class="cls-9" d="M41.68,67c2.86.21,5.72.42,8.58.56l2.14.09,2.14.06,2.14,0H61l2.15,0,2.14-.06c.71,0,1.43-.07,2.14-.09,2.86-.14,5.71-.35,8.57-.55a67.37,67.37,0,0,1-8.54,1.44l-2.14.2-2.15.14L61,68.86l-2.16,0-2.15,0-2.15-.08-2.15-.14-2.15-.2A67.7,67.7,0,0,1,41.68,67Z"/><path class="cls-9" d="M44.78,69.75c2.36.17,4.72.35,7.08.46l1.77.07,1.77.06,1.77,0h3.54l1.77,0,1.76,0c.59,0,1.18-.06,1.77-.08,2.36-.11,4.72-.29,7.09-.46A56.89,56.89,0,0,1,66,71l-1.77.16-1.78.12-1.77.07-1.78,0-1.78,0-1.78-.07-1.77-.12-1.78-.17A54.91,54.91,0,0,1,44.78,69.75Z"/><path class="cls-9" d="M48.06,72.23c1.81.13,3.63.27,5.44.35l1.36.06,1.36,0,1.36,0H60.3l1.36,0,1.36,0,1.35-.06c1.82-.08,3.63-.22,5.45-.35a44.14,44.14,0,0,1-5.42.92L63,73.28l-1.36.09-1.37,0-1.36,0-1.37,0-1.37,0-1.36-.1-1.36-.12A43.51,43.51,0,0,1,48.06,72.23Z"/><path class="cls-10" d="M103.23,35.77,89.11,60.2a4.15,4.15,0,0,1-3.59,2.07H31a4.14,4.14,0,0,1-3.6-2.08l-14-24.44a5.29,5.29,0,0,1,.67-.46c1.31-.72,2.92-1.56,4.75-2.48C30.09,27.07,49.58,18,53.22,14.05c5.06-5.54,11.35-2.73,13.93,0,5.17,5.44,21.48,14.19,30.1,18.6,3.29,1.69,5.45,2.74,5.45,2.74A3.39,3.39,0,0,1,103.23,35.77Z"/><g class="cls-11"><g class="cls-12"><path class="cls-6" d="M103.23,35.77,89.11,60.2a4.15,4.15,0,0,1-3.59,2.07H31a4.14,4.14,0,0,1-3.6-2.08l-14-24.44a5.29,5.29,0,0,1,.67-.46c9.4-5.17,35-16.62,39.22-21.24,5.07-5.54,11.35-2.72,13.93,0,7.14,7.52,35.55,21.34,35.55,21.34A3.39,3.39,0,0,1,103.23,35.77Z"/></g></g><g class="cls-13"><path class="cls-9" d="M53.29,18.13a.44.44,0,0,1-.32-.75,10.33,10.33,0,0,1,7.46-3.15h0a10.31,10.31,0,0,1,7.45,3.15.45.45,0,0,1,0,.63.44.44,0,0,1-.62,0,9.49,9.49,0,0,0-13.64,0A.44.44,0,0,1,53.29,18.13Z"/></g><path class="cls-6" d="M102.71,35.39a.66.66,0,0,1,.22.9L89.11,60.2a4.15,4.15,0,0,1-3.59,2.07H31a4.14,4.14,0,0,1-3.6-2.08L13.63,36.27a.67.67,0,0,1,.24-.9l.13-.08c1.17-.64.67-2.49,2.27-3.31.31-.16-1.49,1.46-1.31,1.76L32.65,55.58a.67.67,0,0,0,.58.32L85.79,55a.69.69,0,0,0,.59-.37l16.22-20.7c.17-.33.09-1.17.42-1,3,1.5-.32,2.5-.32,2.5Z"/><path class="cls-4" d="M12.4,34.13l15,26.06A4.14,4.14,0,0,0,31,62.27H85.52a4.15,4.15,0,0,0,3.59-2.07l15-26a4.15,4.15,0,0,0-1.46-5.63L67.15,7.19s-7.73-4.47-13.93,0C48.13,10.84,23.4,23.25,14,28.43A4.16,4.16,0,0,0,12.4,34.13Z"/></g></svg>