<?xml version="1.0" encoding="UTF-8"?>
<svg width="82px" height="79px" viewBox="0 0 82 79" version="1.1" xmlns="http://www.w3.org/2000/svg" xmlns:xlink="http://www.w3.org/1999/xlink">
    <!-- Generator: Sketch 61.1 (89650) - https://sketch.com -->
    <title>Group 14 Copy</title>
    <desc>Created with Sketch.</desc>
    <defs>
        <polygon id="path-1" points="0.0800427742 0.207165644 59.8298569 0.207165644 59.8298569 71.989669 0.0800427742 71.989669"></polygon>
        <polygon id="path-3" points="1.83708598e-05 0.0453556802 67.8984502 0.0453556802 67.8984502 61 1.83708598e-05 61"></polygon>
        <polygon id="path-5" points="0.0999947712 0.0156568528 31.9003633 0.0156568528 31.9003633 44 0.0999947712 44"></polygon>
    </defs>
    <g id="Page-1" stroke="none" stroke-width="1" fill="none" fill-rule="evenodd">
        <g id="Droplet-&amp;-Contact" transform="translate(-798.000000, -1449.000000)">
            <g id="Group-14-Copy" transform="translate(798.000000, 1449.000000)">
                <g id="Group-3" transform="translate(22.000000, 0.000000)">
                    <mask id="mask-2" fill="white">
                        <use xlink:href="#path-1"></use>
                    </mask>
                    <g id="Clip-2"></g>
                    <path d="M59.1682581,58.5481914 L44.423957,71.3933448 L44.2650323,71.5324859 C43.4155699,72.2723632 42.1295484,72.0934675 41.5056774,71.1459828 C39.0284731,67.3825472 33.0693333,58.4223018 28.2777204,51.8804613 C28.0306237,51.5425472 27.7876129,51.2311362 27.5508387,50.9373939 C25.1037419,47.9204613 23.0906237,46.9796025 20.5661075,44.1636515 C15.4822366,38.4942037 12.9489032,34.8853693 11.3876129,33.6861055 C2.72954839,27.0294184 -1.09410753,24.8915043 0.394064516,22.1749399 C0.400301075,22.1616883 0.40911828,22.1484368 0.415569892,22.1351853 C2.08223656,19.1823018 12.5768602,29.5604613 13.6435269,28.0873325 C14.4843871,26.9278233 -1.42765591,16.0505227 1.94890323,11.798989 C4.22417204,8.92782331 12.6454624,18.4203387 16.563957,21.6227926 C17.5446022,22.426719 18.2435269,22.835308 18.4929892,22.5570258 C18.6886882,22.3383755 18.4370753,21.8061055 17.8886882,21.0507681 C14.9164301,16.9670871 3.2671828,6.36144294 6.81341935,3.32021595 C10.6110538,0.0581300613 22.3682581,19.0718724 23.5661075,18.1729767 C24.7618065,17.2718724 13.4972903,2.75702577 16.9338495,0.418130061 C21.2112688,-2.49279018 33.8949247,25.7020564 36.5252473,24.1692957 C37.9230968,23.356535 36.7099785,19.0056147 36.4994409,14.0650012 C36.3381505,10.1292957 39.0112688,8.8505227 40.5809462,9.60144294 C40.9811613,9.79359018 41.3101935,10.1160442 41.5015914,10.5599706 C42.596,13.104265 42.4413763,19.2176393 44.0499785,25.8213202 C44.052129,25.827946 44.052129,25.8301546 44.052129,25.8301546 C44.1465376,26.2188663 44.2263226,26.5987436 44.2906237,26.9764123 C44.3209462,27.1486822 44.3489032,27.3209521 44.3747097,27.4910135 C45.2456774,33.3548172 43.3252473,38.2843877 47.9338495,43.8345718 C50.2607312,46.6350626 56.4218065,52.8632834 59.2650323,55.7101546 C60.0564301,56.5006086 60.0089032,57.8149399 59.1682581,58.5481914" id="Fill-1" fill="#16AFF2" mask="url(#mask-2)"></path>
                </g>
                <path d="M81.34412,58.562481 L66.7272679,71.4038514 L66.5697169,71.5429515 C65.7275972,72.2826109 64.452692,72.1037679 63.8342138,71.1565623 C61.3784223,67.3942351 55.470793,58.4366285 50.7205986,51.8967147 C50.4756377,51.5589001 50.2347275,51.2475807 50,50.9539249 C51.7076907,51.452919 54.2193393,51.8437241 56.7540128,51.022371 C57.3935974,50.8148248 58.0355271,50.5300007 58.6665838,50.1502353 C63.2801204,47.361609 64.8961373,44.1556822 65.8235349,38.1876244 C66.4266632,34.3215241 66.689106,31.5704327 66.5950871,27 C66.6251476,27.1722192 66.6528629,27.3444384 66.6784463,27.5144497 C67.5418854,33.3765264 65.6380554,38.3046452 70.206821,43.8531947 C72.5135893,46.6528607 78.6214085,52.8792473 81.4400576,55.72528 C82.2246147,56.5155012 82.1774986,57.8294454 81.34412,58.562481" id="Fill-4" fill="#0D9ACC"></path>
                <path d="M71.7059069,62.2638737 L66.0472695,71.4031819 L65.8894087,71.5424602 C65.0454194,72.2828458 63.7680071,72.1039948 63.1483126,71.1555761 C60.6876918,67.3884301 54.7684452,58.4191299 50.0091232,51.8708398 C49.763467,51.5328136 49.5220831,51.2210956 49.2871075,50.9270637 C46.8561791,47.9071568 44.8567512,46.9653703 42.3489217,44.1466432 C37.2990845,38.4716059 34.7827104,34.8592136 33.2318721,33.6585464 C24.6317686,26.9955176 20.83371,24.8554957 22.3119195,22.1362531 C29.3974991,27.5636845 39.0571285,37.7177345 40.4563008,36.1834627 C41.5542773,34.9850062 39.170344,31.1871306 37.5682383,26.5224136 C36.745824,24.1170997 37.3695771,22.4170204 38.3735634,21.5835615 C39.3476437,22.3882804 40.0418895,22.7970511 40.2896818,22.5187156 C40.4840707,22.2996287 40.2341422,21.7670551 39.6894262,21.0107519 C39.8539091,20.9932868 40.0183919,20.9977084 40.1786025,21.019595 C40.6143753,21.0837072 41.0181059,21.2939511 41.3257102,21.6587275 C43.086104,23.7653668 44.6706933,29.6617018 48.0716433,35.4981251 C48.0759156,35.5045363 48.0780518,35.5069681 48.0780518,35.5069681 C48.2767129,35.8496369 48.460421,36.190095 48.6291761,36.530553 C48.7060772,36.6875174 48.7808421,36.8444818 48.8536845,36.9992355 C51.2245874,42.0906304 50.9490252,47.1378101 56.0541885,50.9953763 C56.310739,51.1899238 56.5820289,51.3802708 56.8661357,51.5679648 C59.871686,53.5466007 67.4870285,57.6500042 70.994572,59.5181018 C71.9684386,60.0376319 72.2954818,61.3108123 71.7059069,62.2638737" id="Fill-6" fill="#5CC5F2"></path>
                <g id="Group-10" transform="translate(0.000000, 18.000000)">
                    <mask id="mask-4" fill="white">
                        <use xlink:href="#path-3"></use>
                    </mask>
                    <g id="Clip-9"></g>
                    <path d="M67.6048113,43.2666394 L57.1539147,60.1167332 C56.5572627,61.0775383 55.2880715,61.291809 54.4298646,60.5752242 C51.0172878,57.7331087 42.8355448,50.9779643 36.4426922,46.1796646 C36.1131373,45.9319209 35.7961592,45.7070798 35.4874947,45.4994155 C32.3164351,43.3564877 30.1427799,43.0644805 26.9536013,41.1382458 C20.5300527,37.2591303 17.1089492,34.5795347 15.2910683,33.9041303 C5.15160752,30.1388668 0.934754859,29.2588812 1.6252,26.1844372 C2.36978934,22.869957 15.2497141,29.6136502 15.8450871,27.8897946 C16.3142658,26.5325996 -1.8434395,20.9384372 0.15350094,15.8714733 C1.83559498,11.5972892 18.0897266,22.8598271 18.8760966,21.1630581 C19.6690746,19.445809 -0.595778056,11.0260473 2.36573918,6.32860686 C5.04204013,2.0804083 21.5641216,16.6768054 22.4427925,15.4596682 C23.3216765,14.2427513 8.54009655,3.78532527 11.136247,0.525458845 C14.3659273,-3.53313321 34.3619774,19.5389606 36.4215887,17.2868054 C37.5166232,16.0923505 35.1372627,12.3096899 33.5393693,7.66267906 C32.2727361,3.96039747 34.4440464,1.93814838 36.1442596,2.18258881 C36.578479,2.24513032 36.9815762,2.4543361 37.2881091,2.81967545 C39.0454508,4.91679819 40.6267172,10.7912964 44.0203223,16.6045744 C44.0230934,16.6109606 44.0254382,16.6129426 44.0254382,16.6129426 C44.2247486,16.9533975 44.4067925,17.2934119 44.5760464,17.6327657 C44.6527862,17.7886791 44.7276075,17.9448126 44.800084,18.0989643 C47.2845354,23.4264444 46.85799,28.7023939 52.7959461,32.610578 C55.7945542,34.5826177 63.3943536,38.6707188 66.8943285,40.530448 C67.8663661,41.0475166 68.1937893,42.3155238 67.6048113,43.2666394" id="Fill-8" fill="#5CC5F2" mask="url(#mask-4)"></path>
                </g>
                <g id="Group-13" transform="translate(35.000000, 35.000000)">
                    <mask id="mask-6" fill="white">
                        <use xlink:href="#path-5"></use>
                    </mask>
                    <g id="Clip-12"></g>
                    <path d="M31.6122562,26.0142964 L21.3582431,43.1041645 C20.7728314,44.0786416 19.5275503,44.2959614 18.6855111,43.5691797 C15.3372235,40.6866213 7.30961569,33.8353523 1.03719739,28.9687736 C0.71385098,28.7175046 0.402844444,28.489464 0.0999947712,28.2788447 C2.28059608,28.2263574 5.59855686,27.6246518 8.00650458,24.8399208 C11.5599686,20.7262558 12.1853281,17.1312102 11.3982954,11.0730579 C10.8904784,7.14946396 10.3728314,4.40739289 9.0173281,0.0156568528 C9.09262222,0.173788832 9.16603399,0.332144162 9.2371451,0.48848934 C11.6747922,5.89177868 11.2562824,11.2428041 17.0823739,15.206601 C20.0244915,17.2067025 27.481119,21.3529766 30.9151582,23.2391695 C31.8688837,23.7635959 32.1901386,25.0496467 31.6122562,26.0142964" id="Fill-11" fill="#35B9F2" mask="url(#mask-6)"></path>
                </g>
            </g>
        </g>
    </g>
</svg>