<?xml version="1.0" encoding="utf-8"?>
<!-- Generator: Adobe Illustrator 25.0.0, SVG Export Plug-In . SVG Version: 6.00 Build 0)  -->
<svg version="1.1" id="Layer_1" xmlns="http://www.w3.org/2000/svg" xmlns:xlink="http://www.w3.org/1999/xlink" x="0px" y="0px"
	 viewBox="0 0 318.5 302.2" style="enable-background:new 0 0 318.5 302.2;" xml:space="preserve">
<style type="text/css">
	.st0{fill:#2F8BE7;}
	.st1{fill:#369DFD;}
</style>
<g id="OBJECT">
	<path class="st0" d="M48.4,216.9c-0.4-0.3-10.1-6.8-11.9-17c-1-5.7,0.7-11.4,5.1-16.8c7.8-9.8,14.4-10,20.2-10.2
		c5.1-0.2,9.1-0.3,13.8-7.3l0.5-0.7c10.4-15.6,11.8-17.5,27.1-20.4l0.7,3.3c-13.8,2.6-14.6,3.8-24.7,18.9l-0.5,0.7
		c-5.7,8.6-11.4,8.8-16.8,8.9s-10.6,0.3-17.3,8.8c-3.7,4.7-5.2,9.5-4.4,14.2c1.5,8.8,10.3,14.7,10.4,14.8L48.4,216.9z"/>
	<path class="st0" d="M276.3,213.9c-4.7,0-13.2-2.1-23.2-14.8c-7.9-10-7.8-14.2-7.6-18.3c0.1-3.3,0.2-6.4-4.5-13.4l-0.5-0.7
		c-10.1-15.1-10.9-16.3-24.7-18.9l0.7-3.3c15.3,2.9,16.6,4.9,27.1,20.4l0.5,0.7c5.3,7.9,5.2,11.8,5,15.3c-0.1,3.6-0.2,7.1,6.9,16.1
		c13,16.3,22.5,13.1,22.6,13.1l1.4,3.1C278.8,213.7,277.6,213.9,276.3,213.9z"/>
	<path class="st1" d="M317.8,117.5l-16,13.1l-9.9-8.7c-4.5,4.9-68.1-46.1-73-55l-2.2,14.5c-2.7,20.8,3.8,63.2,8.1,83.9
		s14.8,124.7,14.8,124.7c-2.8,1.8-7.9,3.3-14.5,4.7c-28.8,5.9-84.8,7.6-84.8,7.6s-29.4-1.7-48.4-7.6c-3.8-1.1-7.5-2.7-10.9-4.7
		c0,0,10.6-104,14.8-124.7s10.8-63.1,8-83.8l-1.1-7.7c-28.8,25.7-61.4,52.7-76,48.2L15.8,130L0,115.8c0,0,10.2-8.9,10-9.3
		C4.1,94.7,69.5,32.3,94.2,18.2c12.5-7.3,27.1-8.8,27.1-8.8l11.1-3.2c4.6,3.2,16.8,5.4,30,5.4s25.6-3.8,30.3-6.9l6.6,3.7
		c0,0,14.4,2.5,26.9,9.8c0,0,41.8,42.9,50.8,48.7c3.9,2.5,37.9,37.4,32.7,41.3L317.8,117.5z"/>
	<polygon class="st0" points="291.8,121.9 309.7,108.2 318.5,116.9 301.6,131.7 	"/>
	<path class="st0" d="M191.1,0.1c-6.9,4-31.8,15.3-57,2c-1.6-0.9-1.1,1.9-1.9,3.4l-0.3,0.7c0,0,32.9,22.1,60.8-1.5l-0.3-0.8
		C192,2.5,192.4-0.6,191.1,0.1z"/>
	<polygon class="st0" points="9.9,106.4 26.7,121.8 15.9,131.9 0,115.8 	"/>
	<path class="st0" d="M239.6,289.9c-2.8,1.8-7.9,3.4-14.5,4.7c-28.8,5.9-84.8,7.6-84.8,7.6s-29.4-1.7-48.4-7.6
		c-3.8-1.1-7.5-2.7-10.9-4.7c0,0,10.6-104,14.9-124.7c2.4-11.6,5.5-30.1,7.3-47.8c-1.6,43.7-0.5,107.7,17.6,131.2
		c28.6,37,37.7,39.7,67.9,36S239.6,289.9,239.6,289.9z"/>
</g>
</svg>
