<svg xmlns="http://www.w3.org/2000/svg" viewBox="0 0 318.54 302.17"><defs><style>.cls-1{fill:#f2d453;}.cls-2{fill:#f7e88f;}</style></defs><g id="OBJECT"><path class="cls-1" d="M48.42,216.91c-.41-.27-10.12-6.78-11.88-17-1-5.69.72-11.35,5.06-16.82,7.79-9.81,14.36-10,20.17-10.18,5.09-.16,9.12-.28,13.81-7.28l.49-.72c10.42-15.55,11.75-17.54,27.07-20.44l.73,3.34c-13.76,2.61-14.59,3.84-24.69,18.9l-.48.72C73,176,67.33,176.18,61.88,176.35s-10.59.31-17.32,8.8c-3.73,4.69-5.21,9.48-4.39,14.23,1.5,8.76,10.29,14.69,10.38,14.75Z"/><path class="cls-1" d="M276.32,213.88c-4.67,0-13.23-2.14-23.25-14.76-7.92-10-7.78-14.2-7.64-18.27.11-3.28.22-6.38-4.48-13.39l-.49-.72c-10.09-15.06-10.92-16.29-24.69-18.9l.74-3.34c15.31,2.9,16.65,4.89,27.07,20.44l.48.72c5.29,7.89,5.16,11.82,5,15.3-.12,3.65-.24,7.1,6.93,16.14,13,16.32,22.52,13.11,22.62,13.07l1.41,3.15A10.65,10.65,0,0,1,276.32,213.88Z"/><path class="cls-2" d="M317.77,117.48l-16,13.09-9.92-8.68c-4.5,4.87-68.12-46.07-73-55l-2.22,14.46c-2.68,20.77,3.84,63.2,8.08,83.85s14.82,124.68,14.82,124.68c-2.76,1.79-7.93,3.34-14.51,4.69-28.81,5.85-84.81,7.57-84.81,7.57s-29.44-1.72-48.4-7.57a45.8,45.8,0,0,1-10.87-4.69s10.59-104,14.85-124.68,10.76-63.08,8-83.85l-1.12-7.74c-28.83,25.66-61.42,52.7-76,48.2l-10.83,8.21L0,115.76s10.16-8.88,10-9.3C4.06,94.7,69.53,32.28,94.19,18.19c12.54-7.28,27.14-8.78,27.14-8.78l11.08-3.19c4.64,3.2,16.81,5.36,30,5.36S188,7.83,192.71,4.64l6.6,3.75s14.42,2.52,26.94,9.8c0,0,41.77,42.93,50.81,48.71,3.89,2.47,37.86,37.44,32.67,41.34Z"/><polygon class="cls-1" points="291.82 121.89 309.73 108.24 318.54 116.86 301.58 131.71 291.82 121.89"/><path class="cls-1" d="M191.14.12c-6.87,4-31.82,15.28-57,2C132.55,1.25,133,4,132.26,5.5l-.34.69s32.9,22.09,60.79-1.55l-.28-.83C192,2.47,192.42-.64,191.14.12Z"/><polygon class="cls-1" points="9.95 106.45 26.71 121.84 15.89 131.89 0 115.76 9.95 106.45"/><path class="cls-1" d="M239.62,289.9c-2.76,1.79-7.94,3.35-14.51,4.69-28.81,5.85-84.81,7.58-84.81,7.58s-29.44-1.73-48.41-7.58A45.75,45.75,0,0,1,81,289.9s10.6-104,14.86-124.68c2.38-11.62,5.49-30.15,7.27-47.83-1.62,43.72-.5,107.71,17.63,131.19,28.6,37,37.72,39.65,67.86,36S239.62,289.9,239.62,289.9Z"/></g></svg>