<?xml version="1.0" encoding="utf-8"?>
<!-- Generator: Adobe Illustrator 24.1.2, SVG Export Plug-In . SVG Version: 6.00 Build 0)  -->
<svg version="1.1" id="Layer_1" xmlns="http://www.w3.org/2000/svg" xmlns:xlink="http://www.w3.org/1999/xlink" x="0px" y="0px"
	 viewBox="0 0 55 60" style="enable-background:new 0 0 55 60;" xml:space="preserve">
<style type="text/css">
	.st0{fill-rule:evenodd;clip-rule:evenodd;fill:#34A853;}
	.st1{filter:url(#Adobe_OpacityMaskFilter);}
	.st2{fill-rule:evenodd;clip-rule:evenodd;fill:#FFFFFF;}
	.st3{mask:url(#mask-2_1_);fill-rule:evenodd;clip-rule:evenodd;fill:#34A853;}
</style>
<desc>Created with Sketch.</desc>
<g id="Page-1">
	<g id="Droplet-_x26_-Contact_x5F_2-Copy-11" transform="translate(-842.000000, -60.000000)">
		<g id="Group-5-Copy" transform="translate(842.000000, 60.000000)">
			<g id="Group-16">
				<path id="Fill-1" class="st0" d="M38.2,26.1c-1.2,0-1.2,1.9,0,1.9c3,0,4.5-2.5,4.5-5.8c0-6.1-6.3-6.1-6.3-1c0,1.3,1.8,1.3,1.8,0
					c0-2.6,2.7-2.5,2.7,1C40.9,23.4,40.6,26.1,38.2,26.1"/>
				<path id="Fill-3" class="st0" d="M40.2,44.8c-3.7,0-6.6,2.9-6.7,6.4v7.4c0,1.2,1.9,1.2,1.9,0v-7.4c0-2.5,2.1-4.6,4.8-4.6
					c2.6,0,4.8,2.1,4.8,4.6v7.4c0,1.2,1.9,1.2,1.9,0v-7.4C46.9,47.7,43.9,44.8,40.2,44.8"/>
				<path id="Fill-5" class="st0" d="M53.9,19.2c1.1-4.6,0.9-8.8-0.5-11.8c-1.1-2.3-2.8-3.7-4.9-4c-2.1-3.9-6.7-3.9-11-3.1
					c-1.2,0.2-0.9,2.1,0.3,1.8c9.6-1.7,8.4,3,10,3.1c2.1,0.1,3.2,1.6,3.9,2.9c1.2,2.6,1.3,6.4,0.3,10.6c-1.1,4.7-3.6,9.7-7.2,14.3
					c-1.6-0.7-2.9-1.7-3.9-3c-0.7-1-2.2,0.1-1.5,1.1c1.2,1.6,2.8,2.8,4.7,3.6v3.6c-1.7,0.9-7.5,3.6-13.1,4.2
					c2.8-3.9,1.5-0.5,1.8-7.3c0-0.5-0.4-0.9-0.9-0.9c-0.1,0-0.2,0-0.2,0l-4.2,1c-1.1,0.3-2.2-0.2-2.8-1.1c0.6-0.5,4-1.1,3.6-4.2
					c-0.3-2.1-2-3.2-5.4-1.4c-0.3-0.9-0.3-1.4-0.8-1.7l-2.2-1.3c2.3-3.1,2.6-3.1,2.6-3.6V17c2.5,1,6,0.6,12.2,0.6
					c1.2,0,1.2-1.9,0-1.9h-8.7C26,15.7,18.7,16.6,18,5.6c2.6,1.3,6.3,0.2,12.1-1.4c0.1-0.1,1.6-0.2,1.2-1.3
					c-0.3-1.1-1.6-0.5-1.8-0.5C25,3.8,19.3,5.6,17.9,3.1c-0.4-0.8-1.7-0.6-1.8,0.4c-0.3,4.2,1,10,4.7,12.6v5.8
					c-4,5.4-4.2,3.8,0.1,6.7l0.6,2c0.1,0.5,0.7,0.8,1.2,0.6c0.1,0,0.2-0.1,0.2-0.1c2.1-1.4,3-1.3,3.2-1.3c0.4,0.1,0.7,1.4-0.2,2
					l-2.8,1.4c-1.7,0.8,1.1,5.1,4.9,4.1l3-0.8v3.1c-4.1,4.9-7.5,12.1-7.5,18.9c0,1.2,1.9,1.2,1.9,0c0-5.6,2.4-10.6,4.4-14
					c6.3-0.2,12.9-3.3,15-4.4c8.9,12.2,4.1,19.3,6.8,19.3c0.5,0,0.9-0.4,0.9-0.9c0-6.8-1.1-12.5-6.6-19.8v-4.2
					C50,29.6,52.7,24.3,53.9,19.2"/>
				<path id="Fill-7" class="st0" d="M34,2.8c1.4,0,1.4-2.1,0-2.1C32.5,0.7,32.5,2.8,34,2.8"/>
				<path id="Fill-9" class="st0" d="M18.7,30.1H9.3c-1.2,0-1.2,2.1,0,2.1h9.3C19.9,32.2,19.9,30.1,18.7,30.1"/>
				<path id="Fill-11" class="st0" d="M18.7,33.6H6.5c-1.2,0-1.2,2.1,0,2.1h12.1C19.9,35.7,19.9,33.6,18.7,33.6"/>
				<g id="Group-15" transform="translate(0.000000, 23.800000)">
					<g id="Clip-14">
					</g>
					<defs>
						<filter id="Adobe_OpacityMaskFilter" filterUnits="userSpaceOnUse" x="0" y="0" width="11.9" height="16.8">
							<feColorMatrix  type="matrix" values="1 0 0 0 0  0 1 0 0 0  0 0 1 0 0  0 0 0 1 0"/>
						</filter>
					</defs>
					<mask maskUnits="userSpaceOnUse" x="0" y="0" width="11.9" height="16.8" id="mask-2_1_">
						<g class="st1">
							<polygon id="path-1_1_" class="st2" points="0,0 11.9,0 11.9,16.8 0,16.8 							"/>
						</g>
					</mask>
					<path id="Fill-13" class="st3" d="M10.1,13.5c-1.5,2.5-5.4,1.4-5.3-1.5c0,0,0-0.8-0.7-1c-2.8-0.7-2.8-4.7,0-5.4
						c0.4-0.1,0.7-0.5,0.7-0.9l0,0c-0.1-2.8,3.8-4,5.3-1.5c0.3,0.4,0.8,0.6,1.3,0.3C13,2.7,10.3,0,7.6,0C5.2,0,3.2,1.8,2.9,4.1
						c-3.8,1.6-3.8,7,0,8.6c0.5,4.4,6.6,5.7,8.8,1.8C12.4,13.4,10.7,12.5,10.1,13.5"/>
				</g>
			</g>
		</g>
	</g>
</g>
</svg>
