<?xml version="1.0" encoding="utf-8"?>
<!-- Generator: Adobe Illustrator 24.1.2, SVG Export Plug-In . SVG Version: 6.00 Build 0)  -->
<svg version="1.1" id="Layer_1" xmlns="http://www.w3.org/2000/svg" xmlns:xlink="http://www.w3.org/1999/xlink" x="0px" y="0px"
	 viewBox="0 0 53 44" style="enable-background:new 0 0 53 44;" xml:space="preserve">
<style type="text/css">
	.st0{filter:url(#Adobe_OpacityMaskFilter);}
	.st1{fill-rule:evenodd;clip-rule:evenodd;fill:#FFFFFF;}
	.st2{mask:url(#mask-2_1_);fill-rule:evenodd;clip-rule:evenodd;fill:#F6D23C;}
	.st3{fill-rule:evenodd;clip-rule:evenodd;fill:#F6D23C;}
	.st4{filter:url(#Adobe_OpacityMaskFilter_1_);}
	.st5{mask:url(#mask-4_1_);fill-rule:evenodd;clip-rule:evenodd;fill:#F6D23C;}
	.st6{filter:url(#Adobe_OpacityMaskFilter_2_);}
	.st7{mask:url(#mask-6_1_);fill-rule:evenodd;clip-rule:evenodd;fill:#F6D23C;}
</style>
<desc>Created with Sketch.</desc>
<g id="Page-1">
	<g id="Droplet-_x26_-Contact_x5F_2-Copy-9" transform="translate(-871.000000, -68.000000)">
		<g id="Group-5-Copy" transform="translate(871.000000, 68.000000)">
			<g id="Group-14-Copy-2">
				<g id="Group-3" transform="translate(11.199999, 0.000000)">
					<g id="Clip-2">
					</g>
					<defs>
						<filter id="Adobe_OpacityMaskFilter" filterUnits="userSpaceOnUse" x="0" y="0.1" width="41.6" height="22.3">
							<feColorMatrix  type="matrix" values="1 0 0 0 0  0 1 0 0 0  0 0 1 0 0  0 0 0 1 0"/>
						</filter>
					</defs>
					<mask maskUnits="userSpaceOnUse" x="0" y="0.1" width="41.6" height="22.3" id="mask-2_1_">
						<g class="st0">
							<polygon id="path-1_1_" class="st1" points="0,0.1 41.6,0.1 41.6,22.3 0,22.3 							"/>
						</g>
					</mask>
					<path id="Fill-1" class="st2" d="M30.6,0.1c-2.5,0-4.9,0.9-6.9,2.5C23,3.1,22.9,4,23.5,4.7C24,5.4,25,5.5,25.6,5
						c1.4-1.1,3.2-1.8,5-1.8c4.4,0,7.9,3.6,7.9,8s-3.6,8-7.9,8h-29c-0.9,0-1.5,0.7-1.5,1.6s0.7,1.6,1.5,1.6h29c6.1,0,11-5,11-11.1
						S36.7,0.1,30.6,0.1"/>
				</g>
				<path id="Fill-4" class="st3" d="M9.6,16h16.8c0.9,0,1.6-0.7,1.6-1.6c0-0.9-0.7-1.6-1.6-1.6H9.6c-0.9,0-1.6,0.7-1.6,1.6
					C8,15.3,8.7,16,9.6,16"/>
				<g id="Group-8" transform="translate(0.000000, 24.799999)">
					<g id="Clip-7">
					</g>
					<defs>
						<filter id="Adobe_OpacityMaskFilter_1_" filterUnits="userSpaceOnUse" x="0" y="0.1" width="35.2" height="19.1">
							<feColorMatrix  type="matrix" values="1 0 0 0 0  0 1 0 0 0  0 0 1 0 0  0 0 0 1 0"/>
						</filter>
					</defs>
					<mask maskUnits="userSpaceOnUse" x="0" y="0.1" width="35.2" height="19.1" id="mask-4_1_">
						<g class="st4">
							<polygon id="path-3_1_" class="st1" points="0,0.1 35.2,0.1 35.2,19.2 0,19.2 							"/>
						</g>
					</mask>
					<path id="Fill-6" class="st5" d="M25.8,0.1H1.5C0.7,0.1,0,0.8,0,1.6s0.7,1.6,1.5,1.6h24.2c3.5,0,6.4,2.9,6.4,6.4
						c0,3.6-2.8,6.4-6.4,6.4c-1.4,0-2.9-0.5-4-1.4c-0.7-0.5-1.6-0.4-2.2,0.2c-0.5,0.7-0.4,1.7,0.2,2.2c1.7,1.4,3.8,2.1,5.9,2.1
						c5.2,0,9.4-4.3,9.4-9.6C35.2,4.4,31,0.1,25.8,0.1"/>
				</g>
				<g id="Group-11" transform="translate(0.000000, 12.799999)">
					<g id="Clip-10">
					</g>
					<defs>
						<filter id="Adobe_OpacityMaskFilter_2_" filterUnits="userSpaceOnUse" x="0" y="0.1" width="5.5" height="3.1">
							<feColorMatrix  type="matrix" values="1 0 0 0 0  0 1 0 0 0  0 0 1 0 0  0 0 0 1 0"/>
						</filter>
					</defs>
					<mask maskUnits="userSpaceOnUse" x="0" y="0.1" width="5.5" height="3.1" id="mask-6_1_">
						<g class="st6">
							<polygon id="path-5_1_" class="st1" points="0,0.1 5.5,0.1 5.5,3.2 0,3.2 							"/>
						</g>
					</mask>
					<path id="Fill-9" class="st7" d="M1.6,3.2h2.2c0.9,0,1.6-0.7,1.6-1.5S4.8,0.1,3.9,0.1H1.6C0.7,0.1,0,0.8,0,1.6S0.7,3.2,1.6,3.2
						"/>
				</g>
				<path id="Fill-12" class="st3" d="M20,32.8c0-0.9-0.7-1.6-1.5-1.6h-9c-0.8,0-1.5,0.7-1.5,1.6c0,0.9,0.7,1.6,1.5,1.6h9
					C19.3,34.4,20,33.7,20,32.8"/>
			</g>
		</g>
	</g>
</g>
</svg>
