<?xml version="1.0" encoding="UTF-8"?>
<svg width="87px" height="86px" viewBox="0 0 87 86" version="1.1" xmlns="http://www.w3.org/2000/svg" xmlns:xlink="http://www.w3.org/1999/xlink">
    <!-- Generator: Sketch 61.1 (89650) - https://sketch.com -->
    <title>Group 5</title>
    <desc>Created with Sketch.</desc>
    <defs>
        <polygon id="path-1" points="0 2.33333329e-05 11.8741826 2.33333329e-05 11.8741826 16.7954223 0 16.7954223"></polygon>
    </defs>
    <g id="Page-1" stroke="none" stroke-width="1" fill="none" fill-rule="evenodd">
        <g id="Droplet-&amp;-Contact_2-Copy-11" transform="translate(-677.000000, -46.000000)">
            <g id="Group-5" transform="translate(677.000000, 46.000000)">
                <ellipse id="Oval-Copy-3" fill="#34A853" cx="43.5" cy="43" rx="43.5" ry="43"></ellipse>
                <g id="Group-16" transform="translate(10.000000, 14.000000)">
                    <path d="M38.1999993,26.0694289 C37.0099744,26.0694289 37.0085119,27.9999997 38.1999993,27.9999997 C41.1749493,27.9999997 42.6999993,25.4617818 42.6999993,22.2082876 C42.6999993,16.1021339 36.3999994,16.1015306 36.3999994,21.2430022 C36.3999994,22.5191094 38.1999993,22.5211607 38.1999993,21.2430022 C38.1999993,18.6028262 40.8999994,18.7500322 40.8999994,22.2082876 C40.8999994,23.3692845 40.6368618,26.0694289 38.1999993,26.0694289" id="Fill-1" fill="#FFFFFF"></path>
                    <path d="M40.2499993,44.7999992 C36.5790806,44.8040207 33.6041557,47.6823656 33.5999994,51.2343657 L33.5999994,58.5879274 C33.5999994,59.8031035 35.4999994,59.8049419 35.4999994,58.5879274 L35.4999994,51.2343657 C35.4999994,48.696123 37.6266931,46.6383897 40.2499993,46.6383897 C42.8734243,46.6383897 44.9999992,48.696123 44.9999992,51.2343657 L44.9999992,58.5879274 C44.9999992,59.8031035 46.8999992,59.8049419 46.8999992,58.5879274 L46.8999992,51.2343657 C46.8959617,47.6823656 43.9210368,44.8040207 40.2499993,44.7999992" id="Fill-3" fill="#FFFFFF"></path>
                    <path d="M53.8816013,19.2342908 C54.9792436,14.6115667 54.8146617,10.4244203 53.4181211,7.44394458 C52.345348,5.15448926 50.6161245,3.76907826 48.5083511,3.4898112 C46.4402275,-0.3620521 41.8218482,-0.375533157 37.4952116,0.408924883 C36.2751008,0.629735294 36.6108336,2.46048603 37.833056,2.23793238 C47.41458,0.500503095 46.2111268,5.24025668 47.8616372,5.29975927 C49.9487646,5.37483481 51.1094007,6.9329428 51.7156436,8.22677559 C52.9182757,10.7935223 53.0419173,14.6503829 52.054661,18.8084754 C50.9293343,23.5470668 48.4620148,28.4766011 44.9038568,33.10409 C43.2871308,32.3993562 42.0224433,31.4201201 41.0510234,30.1241954 C40.3119889,29.1372891 38.8035373,30.2441303 39.5442142,31.2326637 C40.722681,32.8050662 42.3113706,34.0211505 44.2706332,34.856395 L44.2706332,38.485937 C42.5932595,39.3417517 36.8116633,42.1078089 31.1738856,42.6656457 C33.941394,38.7391717 32.6767065,42.1821871 33.0091547,35.3270698 C33.0091547,34.8136275 32.5889608,34.3973417 32.0706982,34.3973417 C31.9939793,34.3973417 31.9176124,34.406639 31.8431225,34.4251174 L27.6421217,35.4655993 C26.5628967,35.7345231 25.4295931,35.3009212 24.8127926,34.3831634 C25.4212643,33.9138831 28.8587133,33.295614 28.4361733,30.1508089 C28.1576863,28.0779802 26.4025379,26.9047796 22.9944157,28.7703952 C22.6646655,27.8536833 22.7207383,27.3909112 22.2395447,27.0974658 L20.0809774,25.7816681 C22.428761,22.6897413 22.6853116,22.701944 22.6853116,22.1441072 L22.6853116,17.0381569 C25.2060058,17.9911282 28.6630451,17.6657234 34.8852466,17.6622369 C36.1261208,17.6622369 36.1275285,15.8027808 34.8852466,15.8027808 L26.1903295,15.8027808 C26.0246919,15.6872621 18.6991001,16.5835199 18.0345556,5.63643704 C20.5944304,6.95467519 24.3781699,5.88316362 30.0980625,4.21755583 C30.1933158,4.15944782 31.6669272,4.02080213 31.3320156,2.88990418 C30.9958135,1.75389272 29.6844378,2.43096717 29.5686557,2.43364014 C24.9839436,3.7686134 19.345814,5.61877221 17.9173658,3.12942536 C17.523566,2.28941607 16.2152402,2.4987211 16.1442695,3.48388418 C15.8376288,7.70833599 17.0955125,13.435577 20.8092196,16.0454398 L20.8092196,21.8256753 C16.7596623,27.2248385 16.6076324,25.6639413 20.9515131,28.4955443 L21.5450869,30.4529705 C21.6940668,30.9447966 22.2172564,31.2238313 22.7136999,31.0761207 C22.7992167,31.0506694 22.8807451,31.0132479 22.9554697,30.9650182 C25.0631258,29.6070342 25.9157136,29.6373666 26.1845814,29.7130232 C26.6167406,29.8352824 26.8960488,31.15108 25.9850421,31.7247222 L23.1639244,33.1204765 C21.4980467,33.9447966 24.2715377,38.2165483 28.0970385,37.2693879 L31.1318897,36.5177028 L31.1318897,39.632989 C27.0404538,44.4993018 23.6242373,51.7594319 23.6242373,58.5701547 C23.6242373,59.7992552 25.5011504,59.8011147 25.5011504,58.5701547 C25.5011504,52.9917864 27.8625417,47.9331361 29.8940655,44.6133097 C36.1645975,44.4123722 42.7580759,41.3427589 44.9328316,40.2416122 C53.8439458,52.4224442 49.0212176,59.5 51.7782856,59.5 C52.2965482,59.5 52.7167421,59.0838295 52.7167421,58.5702709 C52.7167421,51.760013 51.6114749,46.0497396 46.1475463,38.7376609 L46.1475463,34.5509793 C49.9979162,29.6252801 52.6704058,24.3354762 53.8816013,19.2342908" id="Fill-5" fill="#FFFFFF"></path>
                    <path d="M33.9503464,2.79999995 C35.3488258,2.79999995 35.3509413,0.699999988 33.9503464,0.699999988 C32.5498838,0.699999988 32.5498838,2.79999995 33.9503464,2.79999995" id="Fill-7" fill="#FFFFFF"></path>
                    <path d="M18.6725411,30.0999995 L9.32728318,30.0999995 C8.09172326,30.0999995 8.09008784,32.1999995 9.32728318,32.1999995 L18.6725411,32.1999995 C19.9083347,32.1999995 19.9099701,30.0999995 18.6725411,30.0999995" id="Fill-9" fill="#FFFFFF"></path>
                    <path d="M18.6727781,33.5999994 L6.52704634,33.5999994 C5.29180206,33.5999994 5.29016706,35.6999994 6.52704634,35.6999994 L18.6727781,35.6999994 C19.9082559,35.6999994 19.9098909,33.5999994 18.6727781,33.5999994" id="Fill-11" fill="#FFFFFF"></path>
                    <g id="Group-15" transform="translate(0.000000, 23.800000)">
                        <mask id="mask-2" fill="white">
                            <use xlink:href="#path-1"></use>
                        </mask>
                        <g id="Clip-14"></g>
                        <path d="M10.0847976,13.5326564 C8.59551265,16.0566231 4.65649372,14.9153897 4.75609672,12.0735065 C4.75216972,12.0618398 4.80203072,11.3035065 4.04209673,11.1124065 C1.19406978,10.3961898 1.19299878,6.40420656 4.04209673,5.68740657 C4.47418572,5.57867324 4.77132872,5.19052324 4.75704872,4.75337325 L4.75609672,4.72642325 C4.65649372,1.88663997 8.59110965,0.739339987 10.0837266,3.26727328 C10.3470736,3.7134066 10.9295786,3.86577327 11.3846346,3.60758994 C12.9638836,2.71158995 10.2937616,2.33333329e-05 7.61031167,2.33333329e-05 C5.20341771,0.00293999995 3.17637175,1.7643733 2.88446475,4.10668993 C-0.962924184,5.71342324 -0.960068184,11.0874398 2.88446475,12.6933565 C3.42603374,17.115023 9.44207864,18.350173 11.7330666,14.4676231 C12.3631716,13.3991898 10.7157356,12.4629398 10.0847976,13.5326564" id="Fill-13" fill="#FFFFFF" mask="url(#mask-2)"></path>
                    </g>
                </g>
            </g>
        </g>
    </g>
</svg>