<?xml version="1.0" encoding="utf-8"?>
<!-- Generator: Adobe Illustrator 24.1.2, SVG Export Plug-In . SVG Version: 6.00 Build 0)  -->
<svg version="1.1" id="Layer_1" xmlns="http://www.w3.org/2000/svg" xmlns:xlink="http://www.w3.org/1999/xlink" x="0px" y="0px"
	 viewBox="0 0 137.2 85.5" style="enable-background:new 0 0 137.2 85.5;" xml:space="preserve">
<style type="text/css">
	.st0{fill:#24BF77;}
	.st1{opacity:0.2;fill:#FFFFFF;}
	.st2{opacity:0.1;fill:#FFFFFF;}
	.st3{fill:#60D2A5;}
	.st4{fill:#57C193;}
	.st5{fill:#45BF87;}
	.st6{fill:#028251;}
	.st7{fill:#07AF72;}
	.st8{opacity:0.25;}
	.st9{fill:#8DD9B8;}
</style>
<g>
	<g id="OBJECT">
		<path class="st0" d="M118.9,63.7c-0.3,0-0.7,0-1-0.2c-0.7-0.2-1-0.9-0.8-1.6c0.2-0.7,0.9-1,1.6-0.8c0.2,0.1,0.5,0,0.7-0.1
			c0.9-0.5,1.9-2.1,2.4-4.1c0.6-3,0.9-6,0.8-9v-0.7c0-3.5,0.2-7.2,1.3-10.3c1.1-2.7,2.8-5,5.1-6.8c1.4-1.2,2.7-2.6,3.7-4.1
			c2.4-4,2.8-11.1,1-15.9c-0.7-1.8-1.4-2.4-1.7-2.5l0,0c-0.8,0-2,2.8-2.5,4l-0.2,0.4c-2.8,6.1-6.7,10.7-11.2,12.7
			c-0.6,0.4-1.4,0.2-1.8-0.4c-0.4-0.6-0.2-1.4,0.4-1.8c0.1-0.1,0.2-0.1,0.3-0.1c3.9-1.8,7.4-5.8,9.9-11.4l0.2-0.4
			c1.2-2.7,2.5-5.7,5-5.5c1.6,0.1,2.9,1.5,3.9,4.1c2.1,5.5,1.6,13.5-1.2,18.1c-1.1,1.8-2.5,3.4-4.1,4.7c-1.8,1.6-3.4,3.2-4.4,5.8
			s-1.1,6.3-1.2,9.4v0.7c0.1,3.2-0.2,6.5-0.9,9.7c-0.7,2.7-2,4.8-3.6,5.6C120.1,63.5,119.5,63.7,118.9,63.7z"/>
		<path class="st0" d="M17.8,62.1c-0.6,0-1.2-0.2-1.7-0.5c-1.6-0.9-3-3-3.7-5.7c-0.3-1.1-0.4-2.2-0.4-3.3c-0.1-2.1-0.2-3.1-1.7-4.1
			l-0.8-0.5c-1.3-0.6-2.5-1.6-3.3-2.9c-1-1.8-0.9-4.2,0.5-7c0.2-0.4,0.4-0.8,0.6-1.2c0.7-1.2,1.2-2.5,1.5-3.8c0.2-2.7-1.9-5.1-4-7.4
			l-0.6-0.7c-1.8-2-4.1-5-4.2-8.7c0-2.1,0.8-4.1,2.3-5.6C3.5,9.6,5,9,6.6,9.1c3.1,0.2,4.6,2.5,5.7,4.4c0.3,0.5,0.6,0.9,0.9,1.4
			c1.7,2.3,3.9,4.2,6.5,5.4c0.6,0.3,0.9,1,0.6,1.7c0,0,0,0,0,0c-0.3,0.6-1.1,0.9-1.7,0.6c-3-1.4-5.5-3.6-7.5-6.3
			c-0.4-0.5-0.7-1-1-1.5C9,13,8.2,11.8,6.5,11.7c-0.9,0-1.7,0.3-2.4,1c-1,1-1.5,2.3-1.5,3.7c0.1,2.2,1.2,4.4,3.6,7.1l0.6,0.7
			c2.3,2.6,5,5.5,4.7,9.3c-0.2,1.7-0.9,3.4-1.8,4.9c-0.2,0.4-0.4,0.8-0.6,1.1c-0.7,1.3-1.3,3.2-0.5,4.5c0.6,0.8,1.5,1.5,2.4,2
			l0.8,0.5c2.8,1.8,2.9,4.1,2.9,6.2c0,0.9,0.1,1.8,0.3,2.7c0.5,1.9,1.5,3.6,2.4,4.1c0.2,0.1,0.4,0.2,0.7,0.1
			c0.7-0.2,1.4,0.2,1.6,0.9c0.2,0.7-0.2,1.4-0.9,1.6C18.5,62.1,18.2,62.1,17.8,62.1z"/>
		<path class="st0" d="M119.2,24.8C119.2,22.2,84,0,67.3,0S15.4,22.2,15.4,24.8s3.7,13.2,3.7,18s-3.7,15.4-3.7,18
			s35.2,24.8,51.9,24.8s51.9-22.2,51.9-24.8s-3.7-13.2-3.7-18S119.2,27.3,119.2,24.8z"/>
		<path class="st1" d="M19.8,61.3c-0.1,0-0.1,0-0.2-0.1c-0.5-0.4-0.9-0.7-1.2-1c-0.1-0.1-0.1-0.2-0.1-0.2c0.1-0.4,0.2-0.8,0.3-1.4
			c0-0.2,0.2-0.3,0.4-0.2c0,0,0,0,0,0c0.2,0,0.3,0.2,0.2,0.3c0,0,0,0,0,0c-0.1,0.5-0.2,0.9-0.3,1.2c0.3,0.2,0.6,0.5,1,0.8
			c0.1,0.1,0.1,0.3,0,0.4c0,0,0,0,0,0C19.9,61.3,19.9,61.3,19.8,61.3z"/>
		<path class="st2" d="M19.6,56.1L19.6,56.1c-0.2,0-0.3-0.2-0.3-0.3l0.2-0.9c0.2-0.6,0.3-1.3,0.5-1.9c0-0.2,0.2-0.3,0.4-0.2
			c0.2,0,0.3,0.2,0.2,0.3c0,0,0,0,0,0c-0.2,0.7-0.3,1.3-0.5,1.9L20,55.8C19.9,56,19.8,56.1,19.6,56.1z M21.1,50.3L21.1,50.3
			c-0.2,0-0.4-0.2-0.3-0.3c0,0,0,0,0,0c0.2-1.1,0.5-2,0.6-2.9c0-0.2,0.2-0.3,0.4-0.2c0.2,0,0.3,0.2,0.3,0.3c0,0,0,0,0,0
			c-0.2,0.9-0.4,1.8-0.6,2.9C21.3,50.2,21.2,50.3,21.1,50.3z M22.1,44.5L22.1,44.5c-0.2,0-0.3-0.1-0.3-0.3c0,0,0,0,0,0
			c0-0.5,0.1-1,0.1-1.4s0-0.9-0.1-1.5c0-0.2,0.1-0.3,0.3-0.3c0,0,0,0,0,0c0.2,0,0.3,0.1,0.3,0.3c0,0.5,0.1,1,0.1,1.5s0,1-0.1,1.5
			C22.5,44.4,22.3,44.5,22.1,44.5C22.1,44.5,22.1,44.5,22.1,44.5z M21.7,38.7c-0.1,0-0.3-0.1-0.3-0.2c-0.2-0.9-0.4-1.8-0.6-2.9
			c0-0.2,0.1-0.3,0.2-0.3c0.2,0,0.3,0.1,0.4,0.2c0.2,1.1,0.5,2,0.6,2.9C22,38.5,21.9,38.6,21.7,38.7C21.8,38.7,21.7,38.7,21.7,38.7
			L21.7,38.7z M20.4,32.9c-0.1,0-0.3-0.1-0.3-0.2l-0.5-2l-0.2-0.9c0-0.2,0.1-0.3,0.2-0.3c0,0,0,0,0,0c0.2,0,0.3,0.1,0.4,0.2l0.2,0.9
			c0.2,0.7,0.3,1.3,0.5,2C20.7,32.7,20.6,32.8,20.4,32.9C20.5,32.9,20.5,32.9,20.4,32.9L20.4,32.9z"/>
		<path class="st2" d="M18.9,27.2c-0.1,0-0.3-0.1-0.3-0.2c-0.1-0.6-0.2-1.1-0.3-1.4c0-0.1,0-0.2,0.1-0.2c0.3-0.3,0.7-0.6,1.2-1
			c0.1-0.1,0.3-0.1,0.4,0c0.1,0.1,0.1,0.3,0,0.4c0,0,0,0,0,0c-0.4,0.3-0.8,0.6-1,0.9c0.1,0.3,0.1,0.8,0.3,1.2c0,0.2-0.1,0.3-0.2,0.3
			c0,0,0,0,0,0L18.9,27.2z"/>
		<path class="st2" d="M22.2,23c-0.1,0-0.2,0-0.2-0.1c-0.1-0.1-0.1-0.3,0-0.4c0,0,0,0,0,0c0.8-0.5,1.6-1.1,2.5-1.7
			c0.1-0.1,0.3-0.1,0.4,0.1c0.1,0.1,0.1,0.3,0,0.4c0,0,0,0,0,0c-0.9,0.6-1.7,1.1-2.5,1.7C22.3,23,22.2,23,22.2,23z M112.5,23
			c-0.1,0-0.1,0-0.2-0.1c-0.8-0.5-1.6-1.1-2.5-1.7c-0.1-0.1-0.2-0.2-0.1-0.4c0,0,0,0,0,0c0.1-0.1,0.3-0.2,0.4-0.1
			c0.9,0.6,1.7,1.1,2.5,1.7c0.1,0.1,0.2,0.3,0.1,0.4c0,0,0,0,0,0C112.7,23,112.6,23,112.5,23z M27.2,19.7c-0.1,0-0.2,0-0.2-0.1
			c-0.1-0.1-0.1-0.3,0-0.4c0,0,0,0,0,0c0.8-0.5,1.7-1,2.6-1.6c0.1-0.1,0.3,0,0.4,0.1c0.1,0.1,0.1,0.3-0.1,0.4c0,0,0,0,0,0
			c-0.9,0.5-1.7,1-2.5,1.6C27.3,19.7,27.2,19.7,27.2,19.7z M107.5,19.7c-0.1,0-0.1,0-0.2,0l-2.6-1.6c-0.1-0.1-0.2-0.2-0.1-0.3
			c0,0,0,0,0,0c0.1-0.1,0.3-0.2,0.4-0.1c0.9,0.5,1.7,1,2.6,1.6c0.1,0.1,0.2,0.2,0.1,0.4c0,0,0,0,0,0
			C107.7,19.7,107.6,19.7,107.5,19.7z M32.3,16.6c-0.1,0-0.2,0-0.3-0.1c-0.1-0.1,0-0.3,0.1-0.4c0,0,0,0,0,0c0.9-0.5,1.7-1,2.6-1.5
			c0.1-0.1,0.3,0,0.4,0.1c0.1,0.1,0,0.3-0.1,0.4c0,0,0,0,0,0c-0.9,0.5-1.8,1-2.6,1.5C32.4,16.6,32.4,16.6,32.3,16.6z M102.4,16.6
			c-0.1,0-0.1,0-0.2,0c-0.9-0.5-1.7-1-2.6-1.5c-0.1-0.1-0.2-0.2-0.1-0.4c0,0,0,0,0,0c0.1-0.1,0.3-0.2,0.4-0.1c0.9,0.5,1.8,1,2.6,1.5
			c0.1,0.1,0.2,0.2,0.1,0.4c0,0,0,0,0,0C102.6,16.6,102.5,16.6,102.4,16.6z M37.6,13.7c-0.1,0-0.2-0.1-0.3-0.1
			c-0.1-0.1,0-0.3,0.1-0.4l0.7-0.4l2-1c0.1-0.1,0.3,0,0.4,0.1c0.1,0.1,0,0.3-0.1,0.4c0,0,0,0,0,0l-2,1l-0.7,0.4
			C37.7,13.7,37.6,13.7,37.6,13.7z M97.1,13.7c0,0-0.1,0-0.2,0l-0.7-0.4l-2-1c-0.1-0.1-0.2-0.2-0.1-0.4c0,0,0,0,0,0
			c0.1-0.1,0.3-0.2,0.4-0.1l2,1l0.7,0.4c0.1,0.1,0.2,0.2,0.1,0.4c0,0,0,0,0,0C97.3,13.7,97.2,13.7,97.1,13.7z M42.9,11
			c-0.1,0-0.2-0.1-0.3-0.1c-0.1-0.1,0-0.3,0.1-0.4c0,0,0,0,0,0c0.9-0.4,1.8-0.9,2.7-1.3c0.2-0.1,0.3,0,0.4,0.1
			c0.1,0.1,0,0.3-0.1,0.4c0,0,0,0,0,0c-0.9,0.4-1.8,0.9-2.7,1.3L42.9,11z M91.7,11h-0.2c-0.9-0.4-1.8-0.9-2.7-1.3
			c-0.1-0.1-0.2-0.2-0.1-0.4c0,0,0,0,0,0c0.1-0.1,0.3-0.2,0.4-0.1C90,9.6,91,10,91.9,10.5c0.1,0.1,0.2,0.2,0.1,0.4c0,0,0,0,0,0
			C91.9,11,91.8,11,91.7,11z M48.4,8.5c-0.1,0-0.2-0.1-0.3-0.2c-0.1-0.1,0-0.3,0.1-0.4c0,0,0,0,0,0c0.9-0.4,1.9-0.8,2.8-1.2
			c0.2-0.1,0.3,0,0.4,0.2c0.1,0.1,0,0.3-0.1,0.4c0,0,0,0,0,0c-0.9,0.4-1.8,0.8-2.8,1.2C48.5,8.5,48.5,8.5,48.4,8.5z M86.2,8.5
			c0,0-0.1,0-0.1,0c-0.9-0.4-1.9-0.8-2.8-1.2c-0.1-0.1-0.2-0.2-0.2-0.4c0,0,0,0,0,0c0.1-0.1,0.2-0.2,0.4-0.2
			c0.9,0.4,1.9,0.8,2.8,1.2c0.1,0.1,0.2,0.2,0.2,0.4c0,0,0,0,0,0C86.5,8.4,86.4,8.5,86.2,8.5z M54,6.2c-0.1,0-0.2-0.1-0.3-0.2
			c-0.1-0.1,0-0.3,0.2-0.4c0,0,0,0,0,0c1-0.4,2-0.7,2.9-1c0.2-0.1,0.3,0,0.4,0.2c0,0,0,0,0,0c0.1,0.1,0,0.3-0.2,0.4c0,0,0,0,0,0
			c-0.9,0.3-1.9,0.6-2.9,1C54.1,6.2,54,6.2,54,6.2z M80.6,6.2c0,0-0.1,0-0.1,0c-1-0.3-1.9-0.7-2.9-1c-0.2-0.1-0.2-0.2-0.2-0.4
			c0.1-0.2,0.2-0.2,0.4-0.2c0.9,0.3,1.9,0.6,2.9,1c0.1,0,0.2,0.2,0.2,0.4c0,0,0,0,0,0C80.8,6.1,80.7,6.2,80.6,6.2L80.6,6.2z
			 M59.8,4.4c-0.1,0-0.3-0.1-0.3-0.2c0-0.1,0-0.3,0.2-0.3c0,0,0,0,0,0c1-0.3,2-0.5,3-0.7c0.2,0,0.3,0.1,0.4,0.2
			c0,0.2-0.1,0.3-0.2,0.3c0,0,0,0,0,0C61.9,3.8,60.9,4.1,59.8,4.4L59.8,4.4z M74.8,4.4L74.8,4.4c-1.1-0.3-2.1-0.5-3-0.7
			c-0.2,0-0.3-0.2-0.2-0.3c0,0,0,0,0,0c0-0.2,0.2-0.3,0.4-0.2c0.9,0.2,2,0.4,3,0.7c0.2,0,0.3,0.2,0.2,0.4C75.1,4.3,75,4.4,74.8,4.4
			L74.8,4.4z M65.8,3.2c-0.1,0-0.3-0.1-0.3-0.2c0-0.2,0.1-0.3,0.3-0.3c0.6,0,1.1-0.1,1.6-0.1s1,0,1.6,0.1c0.2,0,0.3,0.1,0.3,0.3
			c0,0.2-0.2,0.3-0.3,0.3c-0.5,0-1-0.1-1.5-0.1S66.3,3.2,65.8,3.2L65.8,3.2z"/>
		<path class="st1" d="M115.7,27.2L115.7,27.2c-0.2,0-0.3-0.2-0.3-0.3c0,0,0,0,0,0c0.1-0.5,0.2-0.9,0.3-1.2c-0.3-0.2-0.6-0.5-1-0.9
			c-0.1-0.1-0.1-0.3,0-0.4c0,0,0,0,0,0c0.1-0.1,0.3-0.1,0.4,0c0.5,0.4,0.9,0.7,1.2,1c0.1,0.1,0.1,0.1,0.1,0.2
			c-0.1,0.4-0.2,0.8-0.3,1.4C116,27.1,115.9,27.2,115.7,27.2z"/>
		<path class="st2" d="M115,56.1c-0.1,0-0.3-0.1-0.3-0.2l-0.3-1.2c-0.1-0.6-0.3-1.1-0.4-1.7c0-0.2,0.1-0.3,0.2-0.3c0,0,0,0,0,0
			c0.2,0,0.3,0,0.4,0.2c0,0,0,0,0,0c0.2,0.6,0.3,1.2,0.4,1.7l0.3,1.2C115.3,55.9,115.2,56,115,56.1C115.1,56.1,115.1,56.1,115,56.1
			L115,56.1z M113.6,50.3c-0.1,0-0.3-0.1-0.3-0.2c-0.2-1.1-0.4-2-0.6-2.9c0-0.2,0.1-0.3,0.2-0.3c0,0,0,0,0,0c0.2,0,0.3,0.1,0.4,0.2
			c0,0,0,0,0,0c0.2,0.9,0.4,1.8,0.6,2.9C113.9,50.1,113.8,50.3,113.6,50.3C113.6,50.3,113.6,50.3,113.6,50.3L113.6,50.3z
			 M112.6,44.5c-0.2,0-0.3-0.1-0.3-0.3c0-0.5-0.1-1-0.1-1.5s0-1,0.1-1.5c0-0.2,0.2-0.3,0.3-0.3c0.2,0,0.3,0.1,0.3,0.3c0,0,0,0,0,0
			c0,0.5-0.1,1-0.1,1.5s0,0.9,0.1,1.4C112.9,44.4,112.7,44.5,112.6,44.5C112.6,44.5,112.6,44.5,112.6,44.5L112.6,44.5z M113,38.7
			L113,38.7c-0.2,0-0.3-0.2-0.3-0.3c0.2-0.9,0.4-1.8,0.6-2.9c0-0.2,0.2-0.3,0.4-0.2c0,0,0,0,0,0c0.2,0,0.3,0.2,0.2,0.3c0,0,0,0,0,0
			c-0.2,1.1-0.5,2-0.6,2.9C113.3,38.6,113.1,38.7,113,38.7L113,38.7z M114.3,32.9L114.3,32.9c-0.2,0-0.3-0.2-0.3-0.3c0,0,0,0,0,0
			l0.5-1.9l0.3-1c0-0.2,0.2-0.3,0.4-0.2c0,0,0,0,0,0c0.2,0,0.3,0.2,0.2,0.3c0,0,0,0,0,0l-0.2,1c-0.2,0.6-0.3,1.2-0.5,1.9
			C114.6,32.8,114.4,32.9,114.3,32.9L114.3,32.9z"/>
		<path class="st1" d="M114.9,61.3c-0.1,0-0.2,0-0.2-0.1c-0.1-0.1-0.1-0.3,0-0.4c0,0,0,0,0,0c0.4-0.3,0.8-0.6,1-0.8
			c-0.1-0.3-0.2-0.7-0.3-1.2c0-0.2,0.1-0.3,0.2-0.3c0,0,0,0,0,0c0.2,0,0.3,0,0.4,0.2c0,0,0,0,0,0c0.1,0.6,0.2,1.1,0.3,1.4
			c0,0.1,0,0.2-0.1,0.2c-0.3,0.3-0.7,0.6-1.2,1C115,61.3,114.9,61.3,114.9,61.3z"/>
		<path class="st2" d="M67.3,83c-0.5,0-1,0-1.6-0.1c-0.2,0-0.3-0.1-0.3-0.3c0,0,0,0,0,0c0-0.2,0.2-0.3,0.3-0.3c0,0,0,0,0,0
			c0.5,0,1,0.1,1.5,0.1c0.5,0,1,0,1.5-0.1c0.2,0,0.3,0.1,0.3,0.3c0,0,0,0,0,0c0,0.2-0.1,0.3-0.3,0.3c0,0,0,0,0,0
			C68.3,82.9,67.8,83,67.3,83z M62.8,82.5L62.8,82.5c-1-0.2-2-0.4-3.1-0.7c-0.2,0-0.2-0.2-0.2-0.3c0,0,0,0,0,0
			c0.1-0.2,0.2-0.2,0.4-0.2c1,0.3,2,0.5,3,0.7c0.2,0,0.3,0.2,0.2,0.3c0,0,0,0,0,0C63.1,82.4,62.9,82.5,62.8,82.5L62.8,82.5z
			 M71.9,82.5c-0.1,0-0.3-0.1-0.3-0.2c0-0.2,0.1-0.3,0.2-0.3c0,0,0,0,0,0c0.9-0.2,1.9-0.4,2.9-0.7c0.2-0.1,0.3,0,0.4,0.2
			c0,0.2,0,0.3-0.2,0.4c0,0,0,0,0,0C73.9,82.1,72.9,82.3,71.9,82.5L71.9,82.5z M56.9,80.9L56.9,80.9c-1-0.3-2-0.6-3-1
			c-0.1,0-0.2-0.2-0.2-0.3c0,0,0,0,0,0c0.1-0.1,0.2-0.2,0.4-0.2c1,0.4,1.9,0.7,2.9,1c0.1,0,0.2,0.2,0.2,0.3c0,0,0,0,0,0
			C57.1,80.9,57,80.9,56.9,80.9L56.9,80.9z M77.8,80.9c-0.1,0-0.2-0.1-0.3-0.2c0-0.1,0-0.3,0.2-0.4c0,0,0,0,0,0
			c0.9-0.3,1.9-0.6,2.9-1c0.2-0.1,0.3,0,0.4,0.2c0.1,0.1,0,0.3-0.1,0.4c0,0,0,0,0,0c-1,0.4-2,0.7-2.9,1L77.8,80.9z M51.2,78.8
			c0,0-0.1,0-0.1,0c-0.9-0.4-1.8-0.8-2.8-1.2c-0.1-0.1-0.2-0.2-0.2-0.4c0,0,0,0,0,0c0.1-0.1,0.3-0.2,0.4-0.1c1,0.4,1.9,0.8,2.8,1.2
			c0.1,0.1,0.2,0.2,0.2,0.4c0,0,0,0,0,0C51.4,78.8,51.3,78.8,51.2,78.8z M83.5,78.8c-0.1,0-0.2-0.1-0.3-0.2c-0.1-0.1,0-0.3,0.1-0.4
			c0,0,0,0,0,0c0.9-0.4,1.8-0.8,2.8-1.2c0.2-0.1,0.3,0,0.4,0.1c0.1,0.1,0,0.3-0.1,0.4c0,0,0,0,0,0c-1,0.4-1.9,0.8-2.8,1.2
			C83.5,78.8,83.5,78.8,83.5,78.8z M45.6,76.4c0,0-0.1,0-0.1,0c-0.9-0.4-1.8-0.8-2.7-1.3c-0.1-0.1-0.2-0.2-0.1-0.4c0,0,0,0,0,0
			c0.1-0.1,0.3-0.2,0.4-0.1c0.9,0.4,1.8,0.9,2.7,1.3c0.1,0.1,0.2,0.2,0.2,0.3c0,0,0,0,0,0C45.9,76.4,45.8,76.4,45.6,76.4z M89,76.4
			c-0.1,0-0.2-0.1-0.3-0.2c-0.1-0.1,0-0.3,0.1-0.4c0,0,0,0,0,0c0.9-0.4,1.8-0.8,2.7-1.3c0.2-0.1,0.3,0,0.4,0.1
			c0.1,0.1,0,0.3-0.1,0.4c0,0,0,0,0,0c-0.9,0.4-1.8,0.9-2.7,1.3C89.1,76.4,89,76.4,89,76.4z M40.2,73.8c0,0-0.1,0-0.2,0l-2-1
			l-0.7-0.4c-0.1-0.1-0.2-0.2-0.1-0.4c0,0,0,0,0,0c0.1-0.1,0.3-0.2,0.4-0.1l0.7,0.4l2,1c0.1,0.1,0.2,0.2,0.1,0.4c0,0,0,0,0,0
			C40.4,73.7,40.3,73.8,40.2,73.8z M94.4,73.8c-0.1,0-0.2-0.1-0.3-0.2c-0.1-0.1,0-0.3,0.1-0.4c0,0,0,0,0,0l2-1l0.7-0.4
			c0.1-0.1,0.3,0,0.4,0.1c0.1,0.1,0,0.3-0.1,0.4c0,0,0,0,0,0l-0.7,0.4l-2,1C94.5,73.8,94.5,73.8,94.4,73.8z M34.9,71
			c-0.1,0-0.1,0-0.2,0c-0.9-0.5-1.8-1-2.6-1.5c-0.1,0-0.3-0.1-0.3-0.2c0-0.1,0-0.3,0.2-0.3c0.1-0.1,0.3-0.2,0.4-0.1
			c0.9,0.5,1.7,1,2.6,1.5c0.1,0.1,0.2,0.2,0.1,0.4c0,0,0,0,0,0C35.1,70.9,35,71,34.9,71z M99.8,71c-0.1,0-0.2-0.1-0.3-0.1
			c-0.1-0.1,0-0.3,0.1-0.4c0,0,0,0,0,0c0.9-0.5,1.8-1,2.6-1.5c0.1-0.1,0.3,0,0.4,0.1c0.1,0.1,0,0.3-0.1,0.4c0,0,0,0,0,0
			c-0.9,0.5-1.8,1-2.6,1.5C99.9,71,99.8,71,99.8,71L99.8,71z M29.8,68c-0.1,0-0.1,0-0.2,0L27,66.3c-0.1-0.1-0.2-0.2-0.1-0.4
			c0,0,0,0,0,0c0.1-0.1,0.3-0.2,0.4-0.1c0.8,0.5,1.7,1.1,2.5,1.6c0.1,0.1,0.2,0.2,0.1,0.4c0,0,0,0,0,0C29.9,67.9,29.8,68,29.8,68
			L29.8,68z M105,68c-0.1,0-0.2,0-0.3-0.1c-0.1-0.1-0.1-0.3,0.1-0.4c0,0,0,0,0,0c0.9-0.5,1.7-1,2.6-1.6c0.1-0.1,0.3-0.1,0.4,0.1
			c0.1,0.1,0.1,0.3-0.1,0.4c0,0,0,0,0,0l-2.6,1.6C105.1,68,105,68,105,68L105,68z M24.7,64.8c-0.1,0-0.1,0-0.2-0.1
			c-0.9-0.6-1.7-1.2-2.5-1.7c-0.1-0.1-0.2-0.3-0.1-0.4c0,0,0,0,0,0c0.1-0.1,0.3-0.1,0.4,0c0.8,0.5,1.6,1.1,2.5,1.7
			c0.1,0.1,0.2,0.3,0.1,0.4c0,0,0,0,0,0C24.8,64.8,24.7,64.8,24.7,64.8L24.7,64.8z M110.1,64.8c-0.1,0-0.2,0-0.2-0.1
			c-0.1-0.1-0.1-0.3,0-0.4c0,0,0,0,0,0c0.9-0.6,1.7-1.1,2.5-1.7c0.1-0.1,0.3-0.1,0.4,0c0.1,0.1,0.1,0.3-0.1,0.4c0,0,0,0,0,0
			c-0.8,0.5-1.6,1.1-2.5,1.7C110.2,64.8,110.1,64.8,110.1,64.8L110.1,64.8z"/>
		<path class="st3" d="M67.3,79.8c-5.5,0-15.3-3.4-26.9-9.5c-5.5-2.8-10.8-6-16-9.5c-1.5-1-2.2-2.8-1.8-4.6c0.1-0.2,0.1-0.5,0.2-0.7
			c1.1-4.4,2.4-9.4,2.4-12.8S24,34.3,22.9,30c0-0.2-0.1-0.4-0.2-0.6c-0.4-1.8,0.3-3.6,1.8-4.6c5.1-3.5,10.5-6.6,16-9.5
			C52,9.2,61.8,5.7,67.3,5.7s15.3,3.4,26.9,9.5c5.5,2.8,10.9,6,16,9.5c1.5,1,2.2,2.9,1.8,4.6c-0.1,0.2-0.1,0.4-0.2,0.6
			c-1.1,4.4-2.4,9.4-2.4,12.8s1.3,8.4,2.4,12.8c0.1,0.2,0.1,0.4,0.2,0.7c0.4,1.8-0.3,3.6-1.8,4.6c-5.1,3.5-10.5,6.6-16,9.5
			C82.6,76.3,72.8,79.8,67.3,79.8z"/>
		<g>
			<path class="st4" d="M23.2,29.9c0.1,0.2,0.1,0.5,0.2,0.7c28.6-9.4,59.4-9.4,87.9,0l0.1-0.4l0.1-0.4l0.2-0.6
				c0.4-1.6-0.2-3.4-1.6-4.3c-5.1-3.5-10.4-6.6-15.9-9.5C82.5,9.5,72.8,6,67.3,6s-15.2,3.4-26.7,9.4c-5.5,2.8-10.8,6-15.9,9.5
				c-1.4,0.9-2.1,2.7-1.7,4.4L23.2,29.9z"/>
		</g>
		<path class="st5" d="M23.2,29.9c0.1,0.2,0.1,0.5,0.2,0.7c9.6-3.2,24.7-9.2,43.5-9.3c19.3-0.1,34.7,6,44.5,9.3l0.1-0.4l0.1-0.4
			l0.2-0.6c0.4-1.6-0.2-3.4-1.6-4.3c-5.1-3.5-10.4-6.6-15.9-9.5C82.5,9.5,72.8,6,67.3,6s-15.2,3.4-26.7,9.4
			c-5.5,2.8-10.8,6-15.9,9.5c-1.4,0.9-2.1,2.7-1.7,4.4L23.2,29.9z"/>
		<path class="st6" d="M111.5,55.7c-0.1-0.2-0.1-0.5-0.2-0.7c-14,4.6-28.7,7-43.5,7.1c-15.1,0.1-30.1-2.3-44.5-7l-0.1,0.4l-0.1,0.4
			L23,56.4c-0.4,1.7,0.3,3.4,1.7,4.3c5.1,3.5,10.4,6.6,15.9,9.4c11.5,6,21.3,9.4,26.7,9.4s15.2-3.4,26.7-9.4
			c5.5-2.8,10.8-6,15.9-9.5c1.4-0.9,2.1-2.7,1.7-4.3L111.5,55.7z"/>
		<path class="st7" d="M111.5,55.7c-0.1-0.2-0.1-0.5-0.2-0.7c-9.6,3.2-24.7,9.2-43.5,9.3c-19.3,0.1-34.7-6-44.5-9.2l-0.1,0.4
			l-0.1,0.4L23,56.4c-0.4,1.7,0.3,3.4,1.7,4.3c5.1,3.5,10.4,6.6,15.9,9.4c11.5,6,21.3,9.4,26.7,9.4s15.2-3.4,26.7-9.4
			c5.5-2.8,10.8-6,15.9-9.5c1.4-0.9,2.1-2.7,1.7-4.3L111.5,55.7z"/>
		<g class="st8">
			<path class="st9" d="M69.3,79.7c1.2-0.2,2.4-0.4,3.7-0.7c-1.9,0.1-3.7,0.1-5.6,0.1s-3.8,0-5.6-0.1c1.2,0.3,2.4,0.5,3.6,0.7h2
				L69.3,79.7z"/>
			<path class="st9" d="M75.6,78.3c0.8-0.2,1.5-0.5,2.3-0.8c-3.5,0.3-7,0.5-10.6,0.5s-7.1-0.2-10.5-0.5c0.8,0.3,1.6,0.5,2.3,0.8
				c2.7,0.2,5.4,0.3,8.2,0.3S72.8,78.5,75.6,78.3z"/>
			<path class="st9" d="M80.1,76.7c0.7-0.3,1.4-0.5,2.1-0.8c-4.9,0.7-9.9,1-14.9,1c-5,0-10-0.3-14.9-1c0.7,0.3,1.4,0.6,2.1,0.8
				c4.2,0.5,8.5,0.7,12.8,0.7C71.6,77.5,75.9,77.2,80.1,76.7z"/>
			<path class="st9" d="M84.3,75c0.7-0.3,1.4-0.6,2.1-0.9c-6.3,1.1-12.7,1.7-19.1,1.7c-6.4,0-12.8-0.6-19.1-1.7l2.1,0.9
				c5.6,0.9,11.3,1.3,17,1.3C73,76.3,78.7,75.9,84.3,75z"/>
			<path class="st9" d="M88.5,73.1c0.7-0.3,1.4-0.7,2.1-1c-7.7,1.7-15.5,2.6-23.3,2.6c-7.8,0-15.7-0.9-23.3-2.6
				c0.7,0.4,1.4,0.7,2.1,1c7,1.4,14.1,2.1,21.2,2.1C74.4,75.2,81.5,74.5,88.5,73.1z"/>
			<path class="st9" d="M92.8,71l1.4-0.7l0.9-0.5c-9,2.5-18.4,3.7-27.7,3.7c-9.4,0-18.7-1.2-27.7-3.7l0.9,0.5l1.4,0.7
				c8.3,2.1,16.9,3.1,25.5,3.1C75.9,74.1,84.5,73.1,92.8,71z"/>
			<path class="st9" d="M97.4,68.6l2.4-1.4c-10.5,3.5-21.5,5.2-32.5,5.2c-11,0-22-1.8-32.5-5.2l2.4,1.4C47,71.5,57.1,73,67.3,73
				C77.5,73,87.6,71.5,97.4,68.6z"/>
			<path class="st9" d="M102.4,65.8c1-0.6,1.8-1.1,2.7-1.6c-12,4.8-24.8,7.2-37.8,7.2c-12.9,0-25.7-2.4-37.8-7.2
				c0.9,0.5,1.8,1.1,2.7,1.6c11.2,4.1,23.1,6.1,35,6.1C79.3,71.9,91.1,69.9,102.4,65.8z"/>
			<path class="st9" d="M107.9,62.3c0.8-0.5,1.6-1,2.2-1.5c0.2-0.1,0.3-0.2,0.4-0.3c-13.5,6.5-28.3,9.8-43.3,9.8
				c-15,0-29.8-3.3-43.3-9.8c0.1,0.1,0.3,0.2,0.5,0.3c0.7,0.5,1.4,1,2.2,1.5c12.8,5.6,26.6,8.5,40.6,8.5
				C81.3,70.8,95.1,67.9,107.9,62.3z"/>
			<path class="st9" d="M111.5,59.4c0.1-0.3,0.3-0.5,0.4-0.8c-13.8,7-29.1,10.6-44.5,10.5c-15.5,0-30.7-3.6-44.5-10.5
				c0.1,0.3,0.2,0.6,0.4,0.8C36.9,66.2,52,69.7,67.3,69.7C82.6,69.7,97.8,66.2,111.5,59.4z"/>
			<path class="st9" d="M112,57.9c0-0.2,0-0.4,0-0.7C98.2,64.3,82.9,68,67.3,68c-15.6,0-30.9-3.7-44.8-10.8c0,0.2,0,0.4,0,0.7
				c13.8,7.1,29.2,10.7,44.7,10.7C82.8,68.6,98.2,64.9,112,57.9z"/>
			<path class="st9" d="M112,56.6c0-0.1,0-0.3-0.1-0.4V56C98.2,63.2,82.9,67,67.3,66.9c-15.5,0-30.8-3.7-44.6-10.9l0,0.2
				c0,0.1-0.1,0.2-0.1,0.4c13.8,7.2,29.1,10.9,44.7,10.9C82.9,67.5,98.2,63.8,112,56.6z"/>
			<path class="st9" d="M111.8,55.5l-0.2-0.6C98,62.1,82.8,65.8,67.3,65.8c-15.4,0-30.6-3.7-44.3-10.9l-0.1,0.6
				c13.7,7.2,29,10.9,44.4,10.9C82.8,66.4,98.1,62.7,111.8,55.5z"/>
			<path class="st9" d="M111.5,54.4c0-0.2-0.1-0.4-0.1-0.6c-13.5,7.2-28.7,10.9-44,10.9c-15.3,0-30.5-3.7-44-10.9l-0.1,0.6
				c13.6,7.2,28.8,10.9,44.2,10.9C82.7,65.3,97.9,61.5,111.5,54.4z"/>
			<path class="st9" d="M111.2,53.2c-0.1-0.2-0.1-0.4-0.1-0.6c-13.4,7.2-28.5,11-43.7,10.9c-15.3,0-30.3-3.7-43.7-10.9
				c0,0.2-0.1,0.4-0.1,0.6C37,60.4,52,64.2,67.3,64.1C82.6,64.2,97.7,60.4,111.2,53.2z"/>
			<path class="st9" d="M110.9,52.1c-0.1-0.2-0.1-0.4-0.1-0.6c-13.3,7.2-28.3,11-43.4,10.9c-15.2,0-30.1-3.7-43.4-10.9
				c0,0.2-0.1,0.4-0.1,0.6c13.4,7.2,28.4,11,43.6,10.9C82.5,63.1,97.5,59.3,110.9,52.1z"/>
			<path class="st9" d="M110.6,51c0-0.2-0.1-0.4-0.1-0.6c-13.2,7.3-28.1,11-43.2,11c-15.1,0-29.9-3.7-43.2-11c0,0.2-0.1,0.4-0.1,0.6
				c13.3,7.2,28.2,11,43.3,10.9C82.4,62,97.3,58.2,110.6,51z"/>
			<path class="st9" d="M110.4,49.8c0-0.2-0.1-0.4-0.1-0.6c-13.1,7.3-27.9,11.1-42.9,11c-15,0.1-29.8-3.7-42.9-11
				c0,0.2-0.1,0.4-0.1,0.6c13.2,7.2,28,11,43,11C82.4,60.9,97.2,57.1,110.4,49.8z"/>
			<path class="st9" d="M110.1,48.7c0-0.2-0.1-0.4-0.1-0.6c-13,7.3-27.7,11.1-42.7,11.1c-14.9,0-29.6-3.8-42.7-11.1l-0.1,0.6
				c13.1,7.3,27.8,11.1,42.8,11C82.3,59.7,97,55.9,110.1,48.7z"/>
			<path class="st9" d="M109.9,47.5c0-0.2-0.1-0.4-0.1-0.6C96.8,54.2,82.2,58.1,67.3,58c-14.9,0.1-29.5-3.8-42.4-11.1
				c0,0.2-0.1,0.4-0.1,0.6c13,7.3,27.6,11.1,42.6,11.1C82.2,58.6,96.9,54.8,109.9,47.5z"/>
			<path class="st9" d="M109.7,46.3l-0.1-0.6C96.7,53.1,82.2,57,67.3,56.9c-14.8,0-29.4-3.8-42.3-11.2c0,0.2,0,0.4-0.1,0.6
				c12.9,7.4,27.5,11.2,42.4,11.2C82.2,57.5,96.8,53.7,109.7,46.3z"/>
			<path class="st9" d="M109.5,45.1l-0.1-0.6c-12.8,7.5-27.3,11.4-42.1,11.3c-14.8,0-29.3-3.9-42.1-11.3c0,0.2,0,0.4-0.1,0.6
				C38,52.5,52.5,56.4,67.3,56.3C82.1,56.4,96.7,52.5,109.5,45.1z"/>
			<path class="st9" d="M109.4,43.8c0-0.2,0-0.4,0-0.6c-12.7,7.6-27.2,11.5-42,11.5c-14.8,0-29.3-3.9-42-11.5v0.6
				c12.7,7.5,27.3,11.5,42.1,11.4C82.2,55.3,96.7,51.3,109.4,43.8z"/>
			<path class="st9" d="M67.3,53.6c-14.8,0-29.3-4-42-11.7c0,0.2,0,0.5,0,0.7c12.7,7.6,27.2,11.6,42,11.6c14.8,0,29.3-4,42-11.6
				c0-0.2,0-0.5,0-0.7C96.7,49.6,82.1,53.6,67.3,53.6z"/>
			<path class="st9" d="M109.4,41.2c0-0.2,0-0.5,0.1-0.7c-12.6,7.9-27.3,12.1-42.2,12c-14.9,0.1-29.5-4.1-42.2-12
				c0,0.2,0,0.5,0.1,0.7C37.9,49,52.5,53.1,67.3,53C82.2,53.1,96.8,49,109.4,41.2z"/>
			<path class="st9" d="M109.6,39.7c0-0.2,0.1-0.5,0.1-0.8c-12.6,8.1-27.4,12.4-42.4,12.4c-15,0.1-29.8-4.2-42.4-12.3
				c0,0.2,0.1,0.5,0.1,0.8c12.6,8,27.3,12.3,42.3,12.2C82.3,52,97,47.7,109.6,39.7z"/>
			<path class="st9" d="M109.9,38.2c0-0.3,0.1-0.5,0.2-0.8c-12.6,8.4-27.5,12.9-42.7,12.8c-15.2,0.1-30-4.4-42.7-12.8l0.1,0.8
				c12.6,8.3,27.4,12.7,42.5,12.6C82.4,50.9,97.2,46.5,109.9,38.2z"/>
			<path class="st9" d="M110.2,36.6c0-0.3,0.1-0.5,0.2-0.8c-12.6,8.7-27.6,13.4-43,13.3C52,49.2,37,44.5,24.3,35.8l0.2,0.8
				c12.6,8.6,27.5,13.1,42.8,13.1C82.6,49.7,97.5,45.2,110.2,36.6z"/>
			<path class="st9" d="M110.5,35c0.1-0.3,0.1-0.6,0.2-0.8C98.1,43.2,82.9,48.1,67.3,48c-15.6,0.1-30.8-4.8-43.4-13.9
				c0.1,0.3,0.1,0.6,0.2,0.8c12.6,8.9,27.7,13.7,43.2,13.6C82.8,48.6,97.9,43.9,110.5,35z"/>
			<path class="st9" d="M110.9,33.3c0.1-0.3,0.2-0.6,0.2-0.9c-12.6,9.5-28,14.6-43.8,14.5c-15.8,0.1-31.2-5-43.8-14.5
				c0.1,0.3,0.1,0.6,0.2,0.9c12.6,9.3,27.9,14.3,43.6,14.2C83,47.5,98.3,42.6,110.9,33.3z"/>
			<path class="st9" d="M111.4,31.5l0.2-0.9C99,40.5,83.4,45.9,67.3,45.8C51.3,45.9,35.6,40.5,23,30.6c0.1,0.3,0.1,0.6,0.2,0.9
				c12.6,9.7,28.2,15,44.1,14.9C83.3,46.4,98.8,41.2,111.4,31.5z"/>
			<path class="st9" d="M111.9,29.6l0.1-0.3c0-0.2,0.1-0.4,0.1-0.6c-12.6,10.4-28.4,16.1-44.7,16c-16.3,0.1-32.1-5.6-44.7-16
				c0,0.2,0.1,0.4,0.1,0.6l0.1,0.3c12.6,10.2,28.3,15.7,44.5,15.6C83.5,45.3,99.3,39.8,111.9,29.6z"/>
			<path class="st9" d="M112.1,28c0-0.2,0-0.5-0.1-0.7C99.5,37.9,83.7,43.7,67.3,43.6C51,43.7,35.1,37.9,22.7,27.3
				c-0.1,0.2-0.1,0.4-0.1,0.7C35.1,38.5,51,44.2,67.3,44.1C83.7,44.2,99.5,38.5,112.1,28z"/>
			<path class="st9" d="M111.8,26.7c-0.1-0.2-0.2-0.4-0.2-0.5c-12.3,10.6-28,16.4-44.2,16.3c-16.2,0.1-31.9-5.7-44.2-16.3
				c-0.1,0.2-0.2,0.3-0.3,0.5C35.3,37.3,51,43.1,67.3,43C83.6,43.1,99.4,37.3,111.8,26.7z"/>
			<path class="st9" d="M111.2,25.7c-0.1-0.2-0.2-0.3-0.4-0.4C98.8,35.7,83.3,41.4,67.3,41.3c-16,0.1-31.4-5.6-43.5-16.1
				c-0.1,0.1-0.3,0.3-0.4,0.4C35.6,36.2,51.2,42,67.3,41.9C83.4,42,99,36.2,111.2,25.7z"/>
			<path class="st9" d="M110.4,24.9l-0.2-0.2l-0.2-0.2C98.1,34.7,83,40.3,67.3,40.2c-15.6,0.1-30.8-5.5-42.6-15.7l-0.2,0.2l-0.2,0.2
				c11.9,10.4,27.3,16,43.1,15.9C83.1,40.9,98.5,35.2,110.4,24.9z"/>
			<path class="st9" d="M109.4,24.2l-0.5-0.3c-11.6,9.9-26.4,15.4-41.6,15.3c-15.3,0.1-30-5.3-41.6-15.3l-0.5,0.3
				c11.7,10.1,26.7,15.6,42.1,15.5C82.8,39.8,97.7,34.3,109.4,24.2z"/>
			<path class="st9" d="M108.4,23.5l-0.5-0.3C96.6,32.8,82.2,38.1,67.3,38c-14.9,0.1-29.3-5.2-40.6-14.8l-0.5,0.3
				c11.5,9.8,26.1,15.1,41.1,15C82.4,38.6,97,33.3,108.4,23.5z"/>
			<path class="st9" d="M107.4,22.9l-0.5-0.3C95.9,31.9,81.8,37,67.3,36.9c-14.5,0.1-28.5-5-39.6-14.4l-0.5,0.3
				c11.2,9.5,25.4,14.7,40.1,14.6C82,37.5,96.2,32.4,107.4,22.9z"/>
			<path class="st9" d="M106.4,22.2l-0.5-0.3c-10.8,9-24.5,14-38.6,13.9C53.2,35.9,39.6,31,28.7,21.9l-0.5,0.3
				C39.2,31.4,53,36.4,67.3,36.3C81.6,36.4,95.5,31.4,106.4,22.2z"/>
			<path class="st9" d="M105.4,21.6l-0.5-0.3C94.3,30,81,34.8,67.3,34.7c-13.7,0.1-27-4.7-37.6-13.4l-0.5,0.3
				c10.7,8.9,24.2,13.7,38.1,13.7C81.2,35.3,94.7,30.5,105.4,21.6z"/>
			<path class="st9" d="M104.4,21l-0.5-0.3c-10.3,8.4-23.2,13-36.5,12.9C54,33.6,41.1,29.1,30.8,20.6L30.3,21
				c10.4,8.6,23.5,13.2,37.1,13.2C80.8,34.2,93.9,29.6,104.4,21z"/>
			<path class="st9" d="M103.3,20.3l-0.5-0.3c-10,8.1-22.6,12.5-35.5,12.4C54.4,32.5,41.9,28.1,31.8,20l-0.5,0.3
				c10.2,8.3,22.9,12.8,36,12.7C80.4,33.1,93.2,28.6,103.3,20.3z"/>
			<path class="st9" d="M102.3,19.7c-0.2-0.1-0.3-0.2-0.5-0.3c-9.8,7.8-21.9,12.1-34.4,12c-12.5,0-24.7-4.2-34.4-12l-0.5,0.3
				c9.9,8,22.3,12.3,35,12.2C80.1,32,92.4,27.7,102.3,19.7z"/>
			<path class="st9" d="M101.2,19.1l-0.5-0.3c-9.5,7.5-21.3,11.5-33.4,11.5c-12.1,0.1-23.8-4-33.3-11.5l-0.5,0.3
				c9.6,7.6,21.6,11.8,33.9,11.7C79.6,30.9,91.6,26.7,101.2,19.1z"/>
			<path class="st9" d="M100.2,18.5l-0.5-0.3c-9.2,7.2-20.6,11-32.3,11c-11.7,0-23.1-3.8-32.3-11l-0.5,0.3
				c9.4,7.3,20.9,11.3,32.8,11.2C79.2,29.7,90.8,25.8,100.2,18.5z"/>
			<path class="st9" d="M99.1,17.9l-0.5-0.3c-9,6.8-20,10.5-31.2,10.4c-11.3,0.1-22.3-3.6-31.2-10.4l-0.5,0.3
				c9.1,7,20.3,10.8,31.8,10.7C78.8,28.6,90,24.9,99.1,17.9z"/>
			<path class="st9" d="M98,17.3L97.4,17c-8.7,6.5-19.3,10-30.1,10c-10.9,0-21.4-3.5-30.1-10l-0.5,0.3c8.8,6.7,19.6,10.3,30.7,10.2
				C78.4,27.5,89.2,23.9,98,17.3z"/>
			<path class="st9" d="M96.9,16.7l-0.6-0.3c-8.4,6.2-18.6,9.5-29,9.4c-10.4,0-20.6-3.3-29-9.4l-0.6,0.3c8.6,6.3,18.9,9.7,29.6,9.7
				C78,26.4,88.4,23,96.9,16.7z"/>
			<path class="st9" d="M95.8,16.1l-0.6-0.3c-8.1,5.8-17.9,9-27.9,8.9c-10,0-19.8-3.1-27.9-8.9l-0.6,0.3c8.3,6,18.2,9.2,28.5,9.2
				C77.6,25.3,87.5,22.1,95.8,16.1z"/>
			<path class="st9" d="M94.7,15.5l-0.5-0.2h-0.1c-7.8,5.5-17.2,8.4-26.8,8.4c-9.6,0-18.9-2.9-26.8-8.4h-0.1L40,15.5
				c8,5.7,17.5,8.7,27.3,8.7C77.1,24.2,86.7,21.1,94.7,15.5z"/>
			<path class="st9" d="M93.5,14.9L93,14.6c-7.5,5.2-16.5,7.9-25.6,7.9c-9.2,0-18.1-2.7-25.7-7.9l-0.6,0.3C48.8,20.2,58,23,67.3,23
				C76.7,23,85.8,20.2,93.5,14.9z"/>
			<path class="st9" d="M92.4,14.3L91.8,14c-7.2,4.8-15.8,7.4-24.5,7.4c-8.7,0-17.2-2.5-24.5-7.4l-0.6,0.3c7.4,5,16.1,7.7,25,7.6
				C76.2,22,85,19.3,92.4,14.3z"/>
			<path class="st9" d="M91.2,13.7l-0.6-0.3c-6.9,4.5-15,6.9-23.3,6.8c-8.3,0-16.4-2.3-23.3-6.8l-0.6,0.3c7.1,4.7,15.4,7.1,23.9,7.1
				C75.8,20.8,84.1,18.4,91.2,13.7z"/>
			<path class="st9" d="M90,13.1l-0.6-0.3c-6.6,4.1-14.3,6.3-22.1,6.3c-7.8,0-15.5-2.2-22.1-6.3l-0.6,0.3c6.8,4.3,14.7,6.6,22.7,6.6
				C75.3,19.7,83.2,17.4,90,13.1z"/>
			<path class="st9" d="M88.8,12.5l-0.6-0.3C81.9,16,74.7,18,67.3,18c-7.4,0-14.6-2-20.9-5.8l-0.6,0.3c6.5,4,13.9,6,21.5,6
				C74.9,18.6,82.4,16.5,88.8,12.5z"/>
			<path class="st9" d="M87.6,12L87,11.7c-6,3.5-12.8,5.3-19.7,5.2c-6.9,0-13.7-1.8-19.6-5.2L47.1,12c6.1,3.6,13.1,5.5,20.3,5.5
				C74.4,17.5,81.4,15.6,87.6,12z"/>
			<path class="st9" d="M86.3,11.4l-0.7-0.3c-5.6,3.1-11.9,4.7-18.3,4.7c-6.4,0-12.7-1.6-18.3-4.7l-0.7,0.3c5.8,3.3,12.3,5,19,5
				C74,16.4,80.5,14.7,86.3,11.4z"/>
			<path class="st9" d="M85,10.8l-0.7-0.3c-5.2,2.7-11.1,4.2-17,4.2c-5.9,0-11.8-1.4-17-4.2l-0.7,0.3c5.4,2.9,11.5,4.4,17.7,4.4
				C73.5,15.2,79.6,13.7,85,10.8z"/>
			<path class="st9" d="M83.7,10.2L83,10c-4.9,2.4-10.2,3.6-15.7,3.6c-5.4,0-10.8-1.2-15.7-3.6L51,10.3c5.1,2.6,10.7,3.9,16.4,3.9
				C73,14.2,78.6,12.8,83.7,10.2z"/>
			<path class="st9" d="M82.3,9.7l-0.7-0.3c-4.5,2-9.3,3.1-14.2,3.1c-4.9,0-9.8-1-14.2-3.1l-0.7,0.3c4.7,2.2,9.8,3.4,15,3.4
				C72.5,13,77.6,11.9,82.3,9.7z"/>
			<path class="st9" d="M80.8,9.1l-0.8-0.3c-4,1.7-8.4,2.6-12.8,2.6c-4.4,0-8.7-0.9-12.8-2.6l-0.8,0.3c4.3,1.9,8.9,2.8,13.5,2.8
				C72,11.9,76.6,11,80.8,9.1z"/>
			<path class="st9" d="M79.3,8.5l-0.8-0.3c-3.6,1.3-7.4,2-11.2,2c-3.8,0-7.6-0.7-11.2-2l-0.8,0.3c3.8,1.5,7.9,2.3,12,2.3
				C71.4,10.8,75.5,10,79.3,8.5z"/>
			<path class="st9" d="M77.7,7.9l-0.9-0.3c-3.1,1-6.2,1.5-9.4,1.5c-3.2,0-6.4-0.5-9.5-1.5L57,7.9c3.3,1.2,6.8,1.8,10.3,1.8
				C70.8,9.7,74.3,9.1,77.7,7.9z"/>
			<path class="st9" d="M75.8,7.3l-1-0.3c-2.4,0.7-5,1-7.5,1c-2.5,0-5.1-0.3-7.5-1l-1,0.3c2.8,0.8,5.6,1.2,8.5,1.2
				C70.2,8.6,73.1,8.2,75.8,7.3z"/>
			<path class="st9" d="M73.7,6.7l-1.3-0.3c-1.7,0.3-3.4,0.5-5.1,0.5c-1.7,0-3.4-0.2-5.1-0.5l-1.3,0.3c2.1,0.5,4.2,0.7,6.4,0.7
				C69.5,7.5,71.6,7.2,73.7,6.7z"/>
			<path class="st9" d="M70.9,6.1c-0.9-0.2-1.8-0.3-2.7-0.3h-0.9h-0.9c-0.9,0.1-1.8,0.2-2.7,0.3c1.2,0.2,2.4,0.2,3.6,0.2
				C68.5,6.3,69.7,6.3,70.9,6.1z"/>
		</g>
		<g class="st8">
			<path class="st9" d="M69.3,79.7c1.2-0.2,2.4-0.4,3.7-0.7c-1.9,0.1-3.7,0.1-5.6,0.1s-3.8,0-5.6-0.1c1.2,0.3,2.4,0.5,3.6,0.7h2
				L69.3,79.7z"/>
			<path class="st9" d="M75.6,78.3c0.8-0.2,1.5-0.5,2.3-0.8c-3.5,0.3-7,0.5-10.6,0.5s-7.1-0.2-10.5-0.5c0.8,0.3,1.6,0.5,2.3,0.8
				c2.7,0.2,5.4,0.3,8.2,0.3S72.8,78.5,75.6,78.3z"/>
			<path class="st9" d="M80.1,76.7c0.7-0.3,1.4-0.5,2.1-0.8c-4.9,0.7-9.9,1-14.9,1c-5,0-10-0.3-14.9-1c0.7,0.3,1.4,0.6,2.1,0.8
				c4.2,0.5,8.5,0.7,12.8,0.7C71.6,77.5,75.9,77.2,80.1,76.7z"/>
			<path class="st9" d="M84.3,75c0.7-0.3,1.4-0.6,2.1-0.9c-6.3,1.1-12.7,1.7-19.1,1.7c-6.4,0-12.8-0.6-19.1-1.7l2.1,0.9
				c5.6,0.9,11.3,1.3,17,1.3C73,76.3,78.7,75.9,84.3,75z"/>
			<path class="st9" d="M88.5,73.1c0.7-0.3,1.4-0.7,2.1-1c-7.7,1.7-15.5,2.6-23.3,2.6c-7.8,0-15.7-0.9-23.3-2.6
				c0.7,0.4,1.4,0.7,2.1,1c7,1.4,14.1,2.1,21.2,2.1C74.4,75.2,81.5,74.5,88.5,73.1z"/>
			<path class="st9" d="M92.8,71l1.4-0.7l0.9-0.5c-9,2.5-18.4,3.7-27.7,3.7c-9.4,0-18.7-1.2-27.7-3.7l0.9,0.5l1.4,0.7
				c8.3,2.1,16.9,3.1,25.5,3.1C75.9,74.1,84.5,73.1,92.8,71z"/>
			<path class="st9" d="M97.4,68.6l2.4-1.4c-10.5,3.5-21.5,5.2-32.5,5.2c-11,0-22-1.8-32.5-5.2l2.4,1.4C47,71.5,57.1,73,67.3,73
				C77.5,73,87.6,71.5,97.4,68.6z"/>
			<path class="st9" d="M102.4,65.8c1-0.6,1.8-1.1,2.7-1.6c-12,4.8-24.8,7.2-37.8,7.2c-12.9,0-25.7-2.4-37.8-7.2
				c0.9,0.5,1.8,1.1,2.7,1.6c11.2,4.1,23.1,6.1,35,6.1C79.3,71.9,91.1,69.9,102.4,65.8z"/>
			<path class="st9" d="M107.9,62.3c0.8-0.5,1.6-1,2.2-1.5c0.2-0.1,0.3-0.2,0.4-0.3c-13.5,6.5-28.3,9.8-43.3,9.8
				c-15,0-29.8-3.3-43.3-9.8c0.1,0.1,0.3,0.2,0.5,0.3c0.7,0.5,1.4,1,2.2,1.5c12.8,5.6,26.6,8.5,40.6,8.5
				C81.3,70.8,95.1,67.9,107.9,62.3z"/>
			<path class="st9" d="M111.5,59.4c0.1-0.3,0.3-0.5,0.4-0.8c-13.8,7-29.1,10.6-44.5,10.5c-15.5,0-30.7-3.6-44.5-10.5
				c0.1,0.3,0.2,0.6,0.4,0.8C36.9,66.2,52,69.7,67.3,69.7C82.6,69.7,97.8,66.2,111.5,59.4z"/>
			<path class="st9" d="M112,57.9c0-0.2,0-0.4,0-0.7C98.2,64.3,82.9,68,67.3,68c-15.6,0-30.9-3.7-44.8-10.8c0,0.2,0,0.4,0,0.7
				c13.8,7.1,29.2,10.7,44.7,10.7C82.8,68.6,98.2,64.9,112,57.9z"/>
			<path class="st9" d="M112,56.6c0-0.1,0-0.3-0.1-0.4V56C98.2,63.2,82.9,67,67.3,66.9c-15.5,0-30.8-3.7-44.6-10.9l0,0.2
				c0,0.1-0.1,0.2-0.1,0.4c13.8,7.2,29.1,10.9,44.7,10.9C82.9,67.5,98.2,63.8,112,56.6z"/>
			<path class="st9" d="M111.8,55.5l-0.2-0.6C98,62.1,82.8,65.8,67.3,65.8c-15.4,0-30.6-3.7-44.3-10.9l-0.1,0.6
				c13.7,7.2,29,10.9,44.4,10.9C82.8,66.4,98.1,62.7,111.8,55.5z"/>
			<path class="st9" d="M111.5,54.4c0-0.2-0.1-0.4-0.1-0.6c-13.5,7.2-28.7,10.9-44,10.9c-15.3,0-30.5-3.7-44-10.9l-0.1,0.6
				c13.6,7.2,28.8,10.9,44.2,10.9C82.7,65.3,97.9,61.5,111.5,54.4z"/>
			<path class="st9" d="M111.2,53.2c-0.1-0.2-0.1-0.4-0.1-0.6c-13.4,7.2-28.5,11-43.7,10.9c-15.3,0-30.3-3.7-43.7-10.9
				c0,0.2-0.1,0.4-0.1,0.6C37,60.4,52,64.2,67.3,64.1C82.6,64.2,97.7,60.4,111.2,53.2z"/>
			<path class="st9" d="M110.9,52.1c-0.1-0.2-0.1-0.4-0.1-0.6c-13.3,7.2-28.3,11-43.4,10.9c-15.2,0-30.1-3.7-43.4-10.9
				c0,0.2-0.1,0.4-0.1,0.6c13.4,7.2,28.4,11,43.6,10.9C82.5,63.1,97.5,59.3,110.9,52.1z"/>
			<path class="st9" d="M110.6,51c0-0.2-0.1-0.4-0.1-0.6c-13.2,7.3-28.1,11-43.2,11c-15.1,0-29.9-3.7-43.2-11c0,0.2-0.1,0.4-0.1,0.6
				c13.3,7.2,28.2,11,43.3,10.9C82.4,62,97.3,58.2,110.6,51z"/>
			<path class="st9" d="M110.4,49.8c0-0.2-0.1-0.4-0.1-0.6c-13.1,7.3-27.9,11.1-42.9,11c-15,0.1-29.8-3.7-42.9-11
				c0,0.2-0.1,0.4-0.1,0.6c13.2,7.2,28,11,43,11C82.4,60.9,97.2,57.1,110.4,49.8z"/>
			<path class="st9" d="M110.1,48.7c0-0.2-0.1-0.4-0.1-0.6c-13,7.3-27.7,11.1-42.7,11.1c-14.9,0-29.6-3.8-42.7-11.1l-0.1,0.6
				c13.1,7.3,27.8,11.1,42.8,11C82.3,59.7,97,55.9,110.1,48.7z"/>
			<path class="st9" d="M109.9,47.5c0-0.2-0.1-0.4-0.1-0.6C96.8,54.2,82.2,58.1,67.3,58c-14.9,0.1-29.5-3.8-42.4-11.1
				c0,0.2-0.1,0.4-0.1,0.6c13,7.3,27.6,11.1,42.6,11.1C82.2,58.6,96.9,54.8,109.9,47.5z"/>
			<path class="st9" d="M109.7,46.3l-0.1-0.6C96.7,53.1,82.2,57,67.3,56.9c-14.8,0-29.4-3.8-42.3-11.2c0,0.2,0,0.4-0.1,0.6
				c12.9,7.4,27.5,11.2,42.4,11.2C82.2,57.5,96.8,53.7,109.7,46.3z"/>
			<path class="st9" d="M109.5,45.1l-0.1-0.6c-12.8,7.5-27.3,11.4-42.1,11.3c-14.8,0-29.3-3.9-42.1-11.3c0,0.2,0,0.4-0.1,0.6
				C38,52.5,52.5,56.4,67.3,56.3C82.1,56.4,96.7,52.5,109.5,45.1z"/>
			<path class="st9" d="M109.4,43.8c0-0.2,0-0.4,0-0.6c-12.7,7.6-27.2,11.5-42,11.5c-14.8,0-29.3-3.9-42-11.5v0.6
				c12.7,7.5,27.3,11.5,42.1,11.4C82.2,55.3,96.7,51.3,109.4,43.8z"/>
			<path class="st9" d="M67.3,53.6c-14.8,0-29.3-4-42-11.7c0,0.2,0,0.5,0,0.7c12.7,7.6,27.2,11.6,42,11.6c14.8,0,29.3-4,42-11.6
				c0-0.2,0-0.5,0-0.7C96.7,49.6,82.1,53.6,67.3,53.6z"/>
			<path class="st9" d="M109.4,41.2c0-0.2,0-0.5,0.1-0.7c-12.6,7.9-27.3,12.1-42.2,12c-14.9,0.1-29.5-4.1-42.2-12
				c0,0.2,0,0.5,0.1,0.7C37.9,49,52.5,53.1,67.3,53C82.2,53.1,96.8,49,109.4,41.2z"/>
			<path class="st9" d="M109.6,39.7c0-0.2,0.1-0.5,0.1-0.8c-12.6,8.1-27.4,12.4-42.4,12.4c-15,0.1-29.8-4.2-42.4-12.3
				c0,0.2,0.1,0.5,0.1,0.8c12.6,8,27.3,12.3,42.3,12.2C82.3,52,97,47.7,109.6,39.7z"/>
			<path class="st9" d="M109.9,38.2c0-0.3,0.1-0.5,0.2-0.8c-12.6,8.4-27.5,12.9-42.7,12.8c-15.2,0.1-30-4.4-42.7-12.8l0.1,0.8
				c12.6,8.3,27.4,12.7,42.5,12.6C82.4,50.9,97.2,46.5,109.9,38.2z"/>
			<path class="st9" d="M110.2,36.6c0-0.3,0.1-0.5,0.2-0.8c-12.6,8.7-27.6,13.4-43,13.3C52,49.2,37,44.5,24.3,35.8l0.2,0.8
				c12.6,8.6,27.5,13.1,42.8,13.1C82.6,49.7,97.5,45.2,110.2,36.6z"/>
			<path class="st9" d="M110.5,35c0.1-0.3,0.1-0.6,0.2-0.8C98.1,43.2,82.9,48.1,67.3,48c-15.6,0.1-30.8-4.8-43.4-13.9
				c0.1,0.3,0.1,0.6,0.2,0.8c12.6,8.9,27.7,13.7,43.2,13.6C82.8,48.6,97.9,43.9,110.5,35z"/>
			<path class="st9" d="M110.9,33.3c0.1-0.3,0.2-0.6,0.2-0.9c-12.6,9.5-28,14.6-43.8,14.5c-15.8,0.1-31.2-5-43.8-14.5
				c0.1,0.3,0.1,0.6,0.2,0.9c12.6,9.3,27.9,14.3,43.6,14.2C83,47.5,98.3,42.6,110.9,33.3z"/>
			<path class="st9" d="M111.4,31.5l0.2-0.9C99,40.5,83.4,45.9,67.3,45.8C51.3,45.9,35.6,40.5,23,30.6c0.1,0.3,0.1,0.6,0.2,0.9
				c12.6,9.7,28.2,15,44.1,14.9C83.3,46.4,98.8,41.2,111.4,31.5z"/>
			<path class="st9" d="M111.9,29.6l0.1-0.3c0-0.2,0.1-0.4,0.1-0.6c-12.6,10.4-28.4,16.1-44.7,16c-16.3,0.1-32.1-5.6-44.7-16
				c0,0.2,0.1,0.4,0.1,0.6l0.1,0.3c12.6,10.2,28.3,15.7,44.5,15.6C83.5,45.3,99.3,39.8,111.9,29.6z"/>
			<path class="st9" d="M112.1,28c0-0.2,0-0.5-0.1-0.7C99.5,37.9,83.7,43.7,67.3,43.6C51,43.7,35.1,37.9,22.7,27.3
				c-0.1,0.2-0.1,0.4-0.1,0.7C35.1,38.5,51,44.2,67.3,44.1C83.7,44.2,99.5,38.5,112.1,28z"/>
			<path class="st9" d="M111.8,26.7c-0.1-0.2-0.2-0.4-0.2-0.5c-12.3,10.6-28,16.4-44.2,16.3c-16.2,0.1-31.9-5.7-44.2-16.3
				c-0.1,0.2-0.2,0.3-0.3,0.5C35.3,37.3,51,43.1,67.3,43C83.6,43.1,99.4,37.3,111.8,26.7z"/>
			<path class="st9" d="M111.2,25.7c-0.1-0.2-0.2-0.3-0.4-0.4C98.8,35.7,83.3,41.4,67.3,41.3c-16,0.1-31.4-5.6-43.5-16.1
				c-0.1,0.1-0.3,0.3-0.4,0.4C35.6,36.2,51.2,42,67.3,41.9C83.4,42,99,36.2,111.2,25.7z"/>
			<path class="st9" d="M110.4,24.9l-0.2-0.2l-0.2-0.2C98.1,34.7,83,40.3,67.3,40.2c-15.6,0.1-30.8-5.5-42.6-15.7l-0.2,0.2l-0.2,0.2
				c11.9,10.4,27.3,16,43.1,15.9C83.1,40.9,98.5,35.2,110.4,24.9z"/>
			<path class="st9" d="M109.4,24.2l-0.5-0.3c-11.6,9.9-26.4,15.4-41.6,15.3c-15.3,0.1-30-5.3-41.6-15.3l-0.5,0.3
				c11.7,10.1,26.7,15.6,42.1,15.5C82.8,39.8,97.7,34.3,109.4,24.2z"/>
			<path class="st9" d="M108.4,23.5l-0.5-0.3C96.6,32.8,82.2,38.1,67.3,38c-14.9,0.1-29.3-5.2-40.6-14.8l-0.5,0.3
				c11.5,9.8,26.1,15.1,41.1,15C82.4,38.6,97,33.3,108.4,23.5z"/>
			<path class="st9" d="M107.4,22.9l-0.5-0.3C95.9,31.9,81.8,37,67.3,36.9c-14.5,0.1-28.5-5-39.6-14.4l-0.5,0.3
				c11.2,9.5,25.4,14.7,40.1,14.6C82,37.5,96.2,32.4,107.4,22.9z"/>
			<path class="st9" d="M106.4,22.2l-0.5-0.3c-10.8,9-24.5,14-38.6,13.9C53.2,35.9,39.6,31,28.7,21.9l-0.5,0.3
				C39.2,31.4,53,36.4,67.3,36.3C81.6,36.4,95.5,31.4,106.4,22.2z"/>
			<path class="st9" d="M105.4,21.6l-0.5-0.3C94.3,30,81,34.8,67.3,34.7c-13.7,0.1-27-4.7-37.6-13.4l-0.5,0.3
				c10.7,8.9,24.2,13.7,38.1,13.7C81.2,35.3,94.7,30.5,105.4,21.6z"/>
			<path class="st9" d="M104.4,21l-0.5-0.3c-10.3,8.4-23.2,13-36.5,12.9C54,33.6,41.1,29.1,30.8,20.6L30.3,21
				c10.4,8.6,23.5,13.2,37.1,13.2C80.8,34.2,93.9,29.6,104.4,21z"/>
			<path class="st9" d="M103.3,20.3l-0.5-0.3c-10,8.1-22.6,12.5-35.5,12.4C54.4,32.5,41.9,28.1,31.8,20l-0.5,0.3
				c10.2,8.3,22.9,12.8,36,12.7C80.4,33.1,93.2,28.6,103.3,20.3z"/>
			<path class="st9" d="M102.3,19.7c-0.2-0.1-0.3-0.2-0.5-0.3c-9.8,7.8-21.9,12.1-34.4,12c-12.5,0-24.7-4.2-34.4-12l-0.5,0.3
				c9.9,8,22.3,12.3,35,12.2C80.1,32,92.4,27.7,102.3,19.7z"/>
			<path class="st9" d="M101.2,19.1l-0.5-0.3c-9.5,7.5-21.3,11.5-33.4,11.5c-12.1,0.1-23.8-4-33.3-11.5l-0.5,0.3
				c9.6,7.6,21.6,11.8,33.9,11.7C79.6,30.9,91.6,26.7,101.2,19.1z"/>
			<path class="st9" d="M100.2,18.5l-0.5-0.3c-9.2,7.2-20.6,11-32.3,11c-11.7,0-23.1-3.8-32.3-11l-0.5,0.3
				c9.4,7.3,20.9,11.3,32.8,11.2C79.2,29.7,90.8,25.8,100.2,18.5z"/>
			<path class="st9" d="M99.1,17.9l-0.5-0.3c-9,6.8-20,10.5-31.2,10.4c-11.3,0.1-22.3-3.6-31.2-10.4l-0.5,0.3
				c9.1,7,20.3,10.8,31.8,10.7C78.8,28.6,90,24.9,99.1,17.9z"/>
			<path class="st9" d="M98,17.3L97.4,17c-8.7,6.5-19.3,10-30.1,10c-10.9,0-21.4-3.5-30.1-10l-0.5,0.3c8.8,6.7,19.6,10.3,30.7,10.2
				C78.4,27.5,89.2,23.9,98,17.3z"/>
			<path class="st9" d="M96.9,16.7l-0.6-0.3c-8.4,6.2-18.6,9.5-29,9.4c-10.4,0-20.6-3.3-29-9.4l-0.6,0.3c8.6,6.3,18.9,9.7,29.6,9.7
				C78,26.4,88.4,23,96.9,16.7z"/>
			<path class="st9" d="M95.8,16.1l-0.6-0.3c-8.1,5.8-17.9,9-27.9,8.9c-10,0-19.8-3.1-27.9-8.9l-0.6,0.3c8.3,6,18.2,9.2,28.5,9.2
				C77.6,25.3,87.5,22.1,95.8,16.1z"/>
			<path class="st9" d="M94.7,15.5l-0.5-0.2h-0.1c-7.8,5.5-17.2,8.4-26.8,8.4c-9.6,0-18.9-2.9-26.8-8.4h-0.1L40,15.5
				c8,5.7,17.5,8.7,27.3,8.7C77.1,24.2,86.7,21.1,94.7,15.5z"/>
			<path class="st9" d="M93.5,14.9L93,14.6c-7.5,5.2-16.5,7.9-25.6,7.9c-9.2,0-18.1-2.7-25.7-7.9l-0.6,0.3C48.8,20.2,58,23,67.3,23
				C76.7,23,85.8,20.2,93.5,14.9z"/>
			<path class="st9" d="M92.4,14.3L91.8,14c-7.2,4.8-15.8,7.4-24.5,7.4c-8.7,0-17.2-2.5-24.5-7.4l-0.6,0.3c7.4,5,16.1,7.7,25,7.6
				C76.2,22,85,19.3,92.4,14.3z"/>
			<path class="st9" d="M91.2,13.7l-0.6-0.3c-6.9,4.5-15,6.9-23.3,6.8c-8.3,0-16.4-2.3-23.3-6.8l-0.6,0.3c7.1,4.7,15.4,7.1,23.9,7.1
				C75.8,20.8,84.1,18.4,91.2,13.7z"/>
			<path class="st9" d="M90,13.1l-0.6-0.3c-6.6,4.1-14.3,6.3-22.1,6.3c-7.8,0-15.5-2.2-22.1-6.3l-0.6,0.3c6.8,4.3,14.7,6.6,22.7,6.6
				C75.3,19.7,83.2,17.4,90,13.1z"/>
			<path class="st9" d="M88.8,12.5l-0.6-0.3C81.9,16,74.7,18,67.3,18c-7.4,0-14.6-2-20.9-5.8l-0.6,0.3c6.5,4,13.9,6,21.5,6
				C74.9,18.6,82.4,16.5,88.8,12.5z"/>
			<path class="st9" d="M87.6,12L87,11.7c-6,3.5-12.8,5.3-19.7,5.2c-6.9,0-13.7-1.8-19.6-5.2L47.1,12c6.1,3.6,13.1,5.5,20.3,5.5
				C74.4,17.5,81.4,15.6,87.6,12z"/>
			<path class="st9" d="M86.3,11.4l-0.7-0.3c-5.6,3.1-11.9,4.7-18.3,4.7c-6.4,0-12.7-1.6-18.3-4.7l-0.7,0.3c5.8,3.3,12.3,5,19,5
				C74,16.4,80.5,14.7,86.3,11.4z"/>
			<path class="st9" d="M85,10.8l-0.7-0.3c-5.2,2.7-11.1,4.2-17,4.2c-5.9,0-11.8-1.4-17-4.2l-0.7,0.3c5.4,2.9,11.5,4.4,17.7,4.4
				C73.5,15.2,79.6,13.7,85,10.8z"/>
			<path class="st9" d="M83.7,10.2L83,10c-4.9,2.4-10.2,3.6-15.7,3.6c-5.4,0-10.8-1.2-15.7-3.6L51,10.3c5.1,2.6,10.7,3.9,16.4,3.9
				C73,14.2,78.6,12.8,83.7,10.2z"/>
			<path class="st9" d="M82.3,9.7l-0.7-0.3c-4.5,2-9.3,3.1-14.2,3.1c-4.9,0-9.8-1-14.2-3.1l-0.7,0.3c4.7,2.2,9.8,3.4,15,3.4
				C72.5,13,77.6,11.9,82.3,9.7z"/>
			<path class="st9" d="M80.8,9.1l-0.8-0.3c-4,1.7-8.4,2.6-12.8,2.6c-4.4,0-8.7-0.9-12.8-2.6l-0.8,0.3c4.3,1.9,8.9,2.8,13.5,2.8
				C72,11.9,76.6,11,80.8,9.1z"/>
			<path class="st9" d="M79.3,8.5l-0.8-0.3c-3.6,1.3-7.4,2-11.2,2c-3.8,0-7.6-0.7-11.2-2l-0.8,0.3c3.8,1.5,7.9,2.3,12,2.3
				C71.4,10.8,75.5,10,79.3,8.5z"/>
			<path class="st9" d="M77.7,7.9l-0.9-0.3c-3.1,1-6.2,1.5-9.4,1.5c-3.2,0-6.4-0.5-9.5-1.5L57,7.9c3.3,1.2,6.8,1.8,10.3,1.8
				C70.8,9.7,74.3,9.1,77.7,7.9z"/>
			<path class="st9" d="M75.8,7.3l-1-0.3c-2.4,0.7-5,1-7.5,1c-2.5,0-5.1-0.3-7.5-1l-1,0.3c2.8,0.8,5.6,1.2,8.5,1.2
				C70.2,8.6,73.1,8.2,75.8,7.3z"/>
			<path class="st9" d="M73.7,6.7l-1.3-0.3c-1.7,0.3-3.4,0.5-5.1,0.5c-1.7,0-3.4-0.2-5.1-0.5l-1.3,0.3c2.1,0.5,4.2,0.7,6.4,0.7
				C69.5,7.5,71.6,7.2,73.7,6.7z"/>
			<path class="st9" d="M70.9,6.1c-0.9-0.2-1.8-0.3-2.7-0.3h-0.9h-0.9c-0.9,0.1-1.8,0.2-2.7,0.3c1.2,0.2,2.4,0.2,3.6,0.2
				C68.5,6.3,69.7,6.3,70.9,6.1z"/>
		</g>
	</g>
</g>
</svg>
