<?xml version="1.0" encoding="utf-8"?>
<!-- Generator: Adobe Illustrator 24.1.2, SVG Export Plug-In . SVG Version: 6.00 Build 0)  -->
<svg version="1.1" id="Layer_1" xmlns="http://www.w3.org/2000/svg" xmlns:xlink="http://www.w3.org/1999/xlink" x="0px" y="0px"
	 viewBox="0 0 177 365.3" style="enable-background:new 0 0 177 365.3;" xml:space="preserve">
<style type="text/css">
	.st0{fill:#2B96F4;}
	.st1{opacity:5.000000e-02;enable-background:new    ;}
	.st2{opacity:0.2;fill:#FFFFFF;enable-background:new    ;}
	.st3{opacity:0.1;enable-background:new    ;}
	.st4{fill:#D0ECFF;}
	.st5{opacity:3.000000e-02;enable-background:new    ;}
	.st6{fill-rule:evenodd;clip-rule:evenodd;fill:#D0ECFF;}
	.st7{fill:none;stroke:#2B96F4;stroke-width:3;stroke-miterlimit:10;}
	.st8{fill:none;stroke:#2B96F4;stroke-width:2.02;stroke-miterlimit:10;}
	.st9{opacity:0.4;fill-rule:evenodd;clip-rule:evenodd;fill:#2B96F4;enable-background:new    ;}
	.st10{opacity:0.4;fill:#2B96F4;enable-background:new    ;}
	.st11{enable-background:new    ;}
	.st12{fill:#FFFFFF;}
	.st13{opacity:0.6;fill:#D0ECFF;enable-background:new    ;}
	.st14{opacity:0.2;fill:#D0ECFF;enable-background:new    ;}
	.st15{opacity:0.3;fill:#D0ECFF;enable-background:new    ;}
</style>
<g>
	<g id="OBJECT">
		<path class="st0" d="M25.9,58.6c-0.2,7.1-6.2,12.8-13.3,12.6C5.7,71,0.2,65.5,0,58.6c0-7.2,13-33.7,13-33.7S25.9,51.4,25.9,58.6z"
			/>
		<path class="st1" d="M13.5,26.1c1.9,7.2,6.1,24.5,5.4,29.8c-1,6.7-6.6,11.4-12.5,10.5c-1.9-0.3-3.7-1.1-5.2-2.4
			c3,6.5,10.6,9.4,17.1,6.4c4.6-2.1,7.6-6.7,7.6-11.8C25.9,52.3,16,31.4,13.5,26.1z"/>
		<path class="st2" d="M10.6,54.7c-0.7,3-2.8,5.2-4.7,4.8S3,56.2,3.6,53.2s2.8-5.2,4.7-4.8S11.3,51.6,10.6,54.7z"/>
		<rect x="80.5" y="18.3" class="st0" width="36.5" height="89.2"/>
		<rect x="100.3" y="18.3" class="st3" width="11.4" height="89.2"/>
		<rect x="85.5" y="18.3" class="st3" width="6.5" height="89.2"/>
		<path class="st3" d="M117,50.1c-6-1.3-12.1-2-18.3-1.9l0,0c-6.1-0.1-12.3,0.5-18.3,1.9v57.4H117V50.1z"/>
		<path class="st4" d="M113.9,0H13v12.1c0,0,34.3-2.2,52.4,12.9c1.3,1.1,2.4,2.4,3.4,3.8c0.8,1.1,1.8,2.2,2.8,3.1l0,0l0,0
			c3.3,2.9,7.6,4.5,12,4.6h30.2c10.1,0,18.2-8.2,18.2-18.2l0,0C132,8.2,123.9,0.1,113.9,0z"/>
		<path class="st1" d="M113.9,29.1H83.7c-4.4,0-8.7-1.6-12-4.6l0,0l0,0c-1.1-0.9-2-2-2.8-3.1c-1-1.4-2.1-2.7-3.4-3.8
			C47.3,2.5,13,4.7,13,4.7v7.4c0,0,34.3-2.2,52.4,12.9c1.3,1.1,2.4,2.4,3.4,3.8c0.8,1.1,1.8,2.2,2.8,3.1l0,0l0,0
			c3.3,2.9,7.6,4.5,12,4.6h30.2c10.1,0,18.2-8.2,18.2-18.2l0,0c0-1.2-0.1-2.5-0.4-3.7C130,23,122.5,29.1,113.9,29.1z"/>
		<path class="st4" d="M133.2,76.2v57.6c0,4.1-2.9,7.7-7,9.4c-1.6,0.6-3.3,1-5,1H74.8c-1.7,0-3.4-0.4-5-1c-4.1-1.6-7-5.2-7-9.4V76.2
			c0-4.2,2.9-7.8,7-9.4c1.6-0.6,3.3-1,5-1h46.4c1.7,0,3.4,0.4,5,1C130.3,68.5,133.2,72.1,133.2,76.2z"/>
		<path class="st5" d="M75.3,65.9v78.3h-0.6c-1.7,0-3.4-0.4-5-1V66.8c1.6-0.6,3.3-1,5-1L75.3,65.9z"/>
		<rect x="79.9" y="65.9" class="st5" width="5.6" height="78.3"/>
		<rect x="90.1" y="65.9" class="st5" width="5.6" height="78.3"/>
		<rect x="100.3" y="65.9" class="st5" width="5.6" height="78.3"/>
		<rect x="110.4" y="65.9" class="st5" width="5.6" height="78.3"/>
		<path class="st5" d="M126.2,66.8v76.3c-1.6,0.6-3.3,1-5,1h-0.6V65.9h0.6C122.9,65.9,124.6,66.2,126.2,66.8z"/>
		<path class="st0" d="M30.9,116.9H165c6.6,0,12,5.4,12,12v224.4c0,6.6-5.4,12-12,12H30.9c-6.6,0-12-5.4-12-12V128.9
			C18.9,122.3,24.3,116.9,30.9,116.9z"/>
		<path class="st6" d="M171.4,133.6v211.7c0,6.2-5,11.2-11.1,11.3H35.7c-6.2-0.1-11.2-5.1-11.1-11.3V133.6c0-6.2,5-11.3,11.1-11.3
			h124.6C166.5,122.3,171.4,127.4,171.4,133.6z"/>
		<rect x="79.6" y="122.7" class="st7" width="37" height="41.9"/>
		<path class="st8" d="M84.8,164.4h26.6l0,0v19.9c0,3.7-3,6.6-6.7,6.6H91.5c-3.7,0-6.7-3-6.7-6.6L84.8,164.4L84.8,164.4z"/>
		<polygon class="st8" points="103.7,323.5 92.5,328.2 92.5,191 103.7,191 		"/>
		<path class="st9" d="M171.4,167.3v178c0,6.2-5,11.1-11.1,11.1H35.7c-6.1,0-11.1-5-11.1-11.1V172.8c20.1-7,47.4-13.9,60.9-6
			C101.7,176.3,144.1,174.3,171.4,167.3z"/>
		<path class="st10" d="M32.4,122.2h55.5c4.3,0,7.8,3.5,7.8,7.8v218.6c0,4.3-3.5,7.8-7.8,7.8H32.4c-4.3,0-7.8-3.5-7.8-7.8V130.1
			C24.5,125.7,28,122.2,32.4,122.2z"/>
		<rect x="24.5" y="224.2" class="st0" width="146.9" height="73.4"/>
		<g class="st11">
			<path class="st12" d="M54.6,238.6c0-1.3,1-2.3,2.3-2.3c1.3,0,2.3,1,2.3,2.3v6.1h8.4v-6.1c0-1.3,1-2.3,2.3-2.3
				c1.3,0,2.3,1,2.3,2.3v16.6c0,1.3-1,2.3-2.3,2.3c-1.3,0-2.3-1-2.3-2.3v-6.2h-8.4v6.2c0,1.3-1,2.3-2.3,2.3c-1.3,0-2.3-1-2.3-2.3
				V238.6z"/>
			<path class="st12" d="M76,254.3l7.2-16.3c0.5-1.1,1.4-1.8,2.7-1.8h0.3c1.2,0,2.1,0.7,2.6,1.8l7.2,16.3c0.1,0.3,0.2,0.6,0.2,0.9
				c0,1.2-0.9,2.2-2.2,2.2c-1.1,0-1.8-0.6-2.2-1.6l-1.4-3.3h-9.1L80,256c-0.4,0.9-1.2,1.4-2.1,1.4c-1.2,0-2.1-0.9-2.1-2.1
				C75.7,254.9,75.9,254.6,76,254.3z M88.9,248.5l-2.9-6.9l-2.9,6.9H88.9z"/>
			<path class="st12" d="M99.9,238.6c0-1.3,1-2.3,2.3-2.3h0.5c1.1,0,1.8,0.5,2.4,1.3l8.8,11.6v-10.7c0-1.2,1-2.3,2.3-2.3
				s2.3,1,2.3,2.3v16.5c0,1.3-1,2.3-2.3,2.3h-0.1c-1.1,0-1.8-0.5-2.4-1.3l-9.1-12v11.1c0,1.2-1,2.3-2.3,2.3c-1.2,0-2.3-1-2.3-2.3
				V238.6z"/>
			<path class="st12" d="M123.3,238.7c0-1.3,1-2.3,2.3-2.3h5.8c6.5,0,11,4.5,11,10.3v0.1c0,5.8-4.5,10.4-11,10.4h-5.8
				c-1.3,0-2.3-1-2.3-2.3V238.7z M131.4,253.1c3.7,0,6.3-2.5,6.3-6.2v-0.1c0-3.7-2.5-6.3-6.3-6.3h-3.5v12.5H131.4z"/>
		</g>
		<g class="st11">
			<path class="st12" d="M44,279.5c-0.3-0.2-0.6-0.7-0.6-1.1c0-0.8,0.6-1.4,1.4-1.4c0.4,0,0.7,0.1,0.9,0.3c1,0.8,2.2,1.2,3.5,1.2
				c1.2,0,2-0.5,2-1.3v0c0-0.8-0.5-1.2-2.8-1.8c-2.8-0.7-4.6-1.5-4.6-4.2v0c0-2.5,2-4.2,4.8-4.2c1.7,0,3.1,0.4,4.4,1.2
				c0.3,0.2,0.7,0.6,0.7,1.2c0,0.8-0.6,1.4-1.4,1.4c-0.3,0-0.5-0.1-0.8-0.2c-1-0.6-2-0.9-2.9-0.9c-1.2,0-1.8,0.5-1.8,1.2v0
				c0,0.9,0.6,1.2,3,1.8c2.8,0.7,4.4,1.7,4.4,4.2v0c0,2.7-2.1,4.3-5.1,4.3C47.4,281.2,45.5,280.6,44,279.5z"/>
			<path class="st12" d="M56,279l4.8-10.9c0.3-0.8,0.9-1.2,1.8-1.2h0.2c0.8,0,1.4,0.5,1.8,1.2l4.8,10.9c0.1,0.2,0.2,0.4,0.2,0.6
				c0,0.8-0.6,1.5-1.4,1.5c-0.7,0-1.2-0.4-1.5-1l-0.9-2.2h-6.1l-1,2.3c-0.3,0.6-0.8,0.9-1.4,0.9c-0.8,0-1.4-0.6-1.4-1.4
				C55.9,279.4,55.9,279.2,56,279z M64.6,275.2l-1.9-4.6l-1.9,4.6H64.6z"/>
			<path class="st12" d="M72,268.6c0-0.9,0.7-1.5,1.5-1.5h0.3c0.7,0,1.2,0.4,1.6,0.9l5.9,7.7v-7.1c0-0.8,0.7-1.5,1.5-1.5
				s1.5,0.7,1.5,1.5v11c0,0.8-0.7,1.5-1.5,1.5h-0.1c-0.7,0-1.2-0.4-1.6-0.9l-6.1-8v7.4c0,0.8-0.7,1.5-1.5,1.5s-1.5-0.7-1.5-1.5
				V268.6z"/>
			<path class="st12" d="M87.7,268.5c0-0.9,0.7-1.5,1.5-1.5s1.5,0.7,1.5,1.5v11c0,0.9-0.7,1.5-1.5,1.5s-1.5-0.7-1.5-1.5V268.5z"/>
			<path class="st12" d="M97.5,269.9h-2.9c-0.8,0-1.4-0.6-1.4-1.4c0-0.8,0.6-1.4,1.4-1.4h8.9c0.8,0,1.4,0.6,1.4,1.4
				c0,0.8-0.6,1.4-1.4,1.4h-2.9v9.6c0,0.9-0.7,1.5-1.5,1.5c-0.9,0-1.5-0.7-1.5-1.5V269.9z"/>
			<path class="st12" d="M107.2,268.5c0-0.9,0.7-1.5,1.5-1.5c0.8,0,1.5,0.7,1.5,1.5v11c0,0.9-0.7,1.5-1.5,1.5
				c-0.9,0-1.5-0.7-1.5-1.5V268.5z"/>
			<path class="st12" d="M113.2,279.6L113.2,279.6c0-0.6,0.2-1.1,0.6-1.5l7.2-8.3h-6.2c-0.7,0-1.3-0.6-1.3-1.3s0.6-1.3,1.3-1.3h8.8
				c0.7,0,1.3,0.6,1.3,1.3v0.1c0,0.5-0.2,1-0.6,1.4l-7.2,8.3h6.4c0.7,0,1.3,0.6,1.3,1.3s-0.6,1.3-1.3,1.3h-9.1
				C113.8,281,113.2,280.3,113.2,279.6z"/>
			<path class="st12" d="M127.7,279.4v-10.8c0-0.8,0.7-1.5,1.5-1.5h7.7c0.8,0,1.4,0.6,1.4,1.4c0,0.8-0.6,1.3-1.4,1.3h-6.2v2.8h5.3
				c0.8,0,1.4,0.6,1.4,1.4s-0.6,1.3-1.4,1.3h-5.3v2.9h6.3c0.8,0,1.4,0.6,1.4,1.4s-0.6,1.3-1.4,1.3h-7.8
				C128.4,281,127.7,280.3,127.7,279.4z"/>
			<path class="st12" d="M141,268.6c0-0.8,0.7-1.5,1.5-1.5h4.8c1.8,0,3.1,0.5,4,1.4c0.8,0.8,1.2,1.9,1.2,3.2v0
				c0,2.2-1.1,3.5-2.8,4.2l2.1,2.6c0.3,0.4,0.5,0.7,0.5,1.2c0,0.8-0.7,1.4-1.4,1.4c-0.7,0-1.1-0.3-1.5-0.8l-3-3.8H144v3
				c0,0.9-0.7,1.5-1.5,1.5c-0.8,0-1.5-0.7-1.5-1.5V268.6z M147.1,273.8c1.5,0,2.3-0.8,2.3-2v0c0-1.3-0.9-2-2.4-2h-3v4H147.1z"/>
		</g>
		<circle class="st13" cx="136.3" cy="195.3" r="7.6"/>
		<circle class="st14" cx="69.7" cy="315.3" r="7.6"/>
		<circle class="st13" cx="149.8" cy="180.7" r="3.8"/>
		<circle class="st13" cx="143.8" cy="335" r="3.8"/>
		<circle class="st15" cx="56.3" cy="194.4" r="3.8"/>
	</g>
</g>
</svg>
