<?xml version="1.0" encoding="UTF-8"?>
<svg width="157px" height="154px" viewBox="0 0 157 154" version="1.1" xmlns="http://www.w3.org/2000/svg" xmlns:xlink="http://www.w3.org/1999/xlink">
    <!-- Generator: Sketch 61.1 (89650) - https://sketch.com -->
    <title>Group 103</title>
    <desc>Created with Sketch.</desc>
    <defs>
        <polygon id="path-1" points="0.0008 0.0001 25.0008 0.0001 25.0008 11 0.0008 11"></polygon>
        <polygon id="path-3" points="0 0.0358999802 10.9806397 0.0358999802 10.9806397 24.9489162 0 24.9489162"></polygon>
    </defs>
    <g id="Page-1" stroke="none" stroke-width="1" fill="none" fill-rule="evenodd" opacity="0.3">
        <g id="Droplet-&amp;-Contact_2-Copy-11" transform="translate(-82.000000, -132.000000)">
            <g id="Group-103-Copy-3" transform="translate(82.000000, 132.000000)">
                <g id="Group-103">
                    <path d="M74.0008,29.0001 L82.0008,29.0001 C81.1178,21.9981 81.1178,15.0001 82.0008,8.0001 L74.0008,8.0001 C74.8838,15.0001 74.8838,21.9981 74.0008,29.0001" id="Fill-1" fill="#5ED156"></path>
                    <path d="M48.8773,36.0001 L56.0013,32.0581 C51.5883,26.4751 47.9643,20.4531 45.1243,14.0001 L38.0013,17.9421 C42.4113,23.5271 46.0373,29.5491 48.8773,36.0001" id="Fill-3" fill="#5ED156"></path>
                    <path d="M33.0565,57.0001 L37.0005,49.8751 C30.5475,47.0371 24.5255,43.4111 18.9415,39.0001 L15.0005,46.1251 C21.4515,48.9651 27.4735,52.5891 33.0565,57.0001" id="Fill-5" fill="#5ED156"></path>
                    <path d="M27.9984,82.0001 L28.0004,74.0001 C20.6684,74.8831 13.3344,74.8831 6.0004,74.0001 L6.0034,82.0001 C13.3344,81.1191 20.6684,81.1171 27.9984,82.0001" id="Fill-7" fill="#5ED156"></path>
                    <path d="M37.0008,107.1241 L33.0598,100.0001 C27.4748,104.4111 21.4548,108.0351 15.0008,110.8751 L18.9458,118.0001 C24.5268,113.5891 30.5488,109.9631 37.0008,107.1241" id="Fill-9" fill="#5ED156"></path>
                    <path d="M56.0008,122.9425 L48.8758,119.0005 C46.0378,125.4515 42.4118,131.4735 38.0008,137.0595 L45.1258,141.0005 C47.9638,134.5475 51.5898,128.5255 56.0008,122.9425" id="Fill-11" fill="#5ED156"></path>
                    <path d="M82.0008,128.0021 L74.0008,128.0001 C74.8858,135.0011 74.8838,142.0011 74.0028,149.0001 L82.0008,148.9981 C81.1178,142.0011 81.1178,135.0011 82.0008,128.0021" id="Fill-13" fill="#5ED156"></path>
                    <path d="M108.1297,119.0001 L101.0007,122.9421 C105.4137,128.5251 109.0377,134.5481 111.8807,141.0001 L119.0007,137.0571 C114.5917,131.4741 110.9657,125.4511 108.1297,119.0001" id="Fill-15" fill="#5ED156"></path>
                    <path d="M123.9491,100.0001 L120.0011,107.1271 C126.4551,109.9631 132.4741,113.5911 138.0581,118.0001 L142.0011,110.8751 C135.5491,108.0371 129.5271,104.4131 123.9491,100.0001" id="Fill-17" fill="#5ED156"></path>
                    <path d="M129.0057,74.0001 L129.0007,82.0001 C136.3367,81.1171 143.6707,81.1171 151.0007,81.9981 L151.0007,74.0021 C143.6667,74.8851 136.3347,74.8851 129.0057,74.0001" id="Fill-19" fill="#5ED156"></path>
                    <path d="M120.0008,49.8717 L123.9428,56.9997 C129.5258,52.5867 135.5498,48.9617 142.0008,46.1217 L138.0588,38.9997 C132.4738,43.4107 126.4518,47.0367 120.0008,49.8717" id="Fill-21" fill="#5ED156"></path>
                    <path d="M101.0008,32.0514 L108.1278,36.0004 C110.9638,29.5474 114.5938,23.5244 119.0008,17.9424 L111.8808,14.0004 C109.0398,20.4524 105.4138,26.4734 101.0008,32.0514" id="Fill-23" fill="#5ED156"></path>
                    <path d="M135.0008,78.5011 C135.0008,109.7041 109.4818,135.0001 77.9988,135.0001 C46.5218,135.0001 21.0008,109.7041 21.0008,78.5011 C21.0008,47.2981 46.5218,22.0001 77.9988,22.0001 C109.4818,22.0001 135.0008,47.2981 135.0008,78.5011" id="Fill-25" fill="#5ED156"></path>
                    <path d="M135.0008,78.4991 C135.0008,85.2791 133.7958,91.7871 131.5858,97.8101 C130.1818,101.6291 128.3848,105.2631 126.2138,108.6471 C119.2078,119.6451 108.4748,128.0671 95.7718,132.1991 C90.1858,134.0181 84.2078,135.0001 78.0058,135.0001 C46.5228,135.0001 21.0008,109.7031 21.0008,78.4991 C21.0008,72.3521 21.9948,66.4311 23.8388,60.8811 C27.9928,48.3031 36.4908,37.6781 47.5768,30.7221 C50.9918,28.5681 54.6578,26.7781 58.5108,25.3821 C64.5878,23.1941 71.1518,22.0001 78.0058,22.0001 C109.4808,22.0001 135.0008,47.2951 135.0008,78.4991" id="Fill-27" fill="#5ED156"></path>
                    <path d="M99.0008,114.2941 C99.0008,120.5271 98.0038,126.5351 96.1608,132.1601 C90.5458,134.0031 84.5398,135.0001 78.3058,135.0001 C46.6578,135.0001 21.0008,109.3491 21.0008,77.7031 C21.0008,71.4701 21.9998,65.4671 23.8558,59.8371 C29.4718,57.9971 35.4748,57.0001 41.7088,57.0001 C73.3488,57.0001 99.0008,82.6511 99.0008,114.2941" id="Fill-29" fill="#5CD156"></path>
                    <path d="M136.0008,77.8737 C136.0008,84.6997 134.7978,91.2497 132.5938,97.3127 C131.1918,101.1577 129.3988,104.8147 127.2328,108.2217 C118.4518,113.7827 108.0418,116.9997 96.8828,116.9997 C65.4668,116.9997 40.0008,91.5397 40.0008,60.1257 C40.0008,48.9667 43.2208,38.5607 48.7688,29.7797 C52.1768,27.6117 55.8348,25.8107 59.6798,24.4047 C65.7428,22.2027 72.2928,20.9997 79.1318,20.9997 C110.5368,20.9997 136.0008,46.4627 136.0008,77.8737" id="Fill-31" fill="#90D18D"></path>
                    <path d="M92.0008,45.5001 C92.0008,47.9871 89.9848,50.0001 87.5008,50.0001 C85.0148,50.0001 83.0008,47.9871 83.0008,45.5001 C83.0008,43.0151 85.0148,41.0001 87.5008,41.0001 C89.9848,41.0001 92.0008,43.0151 92.0008,45.5001" id="Fill-33" fill="#90D18D"></path>
                    <path d="M124.0008,87.5011 C124.0008,89.9841 121.9828,92.0001 119.4998,92.0001 C117.0138,92.0001 115.0008,89.9841 115.0008,87.5011 C115.0008,85.0151 117.0138,83.0001 119.4998,83.0001 C121.9828,83.0001 124.0008,85.0151 124.0008,87.5011" id="Fill-35" fill="#5CD156"></path>
                    <path d="M49.0008,74.5001 C49.0008,79.1951 45.1958,83.0001 40.5008,83.0001 C35.8058,83.0001 32.0008,79.1951 32.0008,74.5001 C32.0008,69.8051 35.8058,66.0001 40.5008,66.0001 C45.1958,66.0001 49.0008,69.8051 49.0008,74.5001" id="Fill-37" fill="#5CD156"></path>
                    <path d="M97.0008,63.5011 C97.0008,67.0921 94.0908,70.0001 90.4998,70.0001 C86.9128,70.0001 84.0008,67.0921 84.0008,63.5011 C84.0008,59.9101 86.9128,57.0001 90.4998,57.0001 C94.0908,57.0001 97.0008,59.9101 97.0008,63.5011" id="Fill-39" fill="#5CD156"></path>
                    <path d="M106.0008,112.4991 C106.0008,114.4331 104.4348,116.0001 102.5008,116.0001 C100.5688,116.0001 99.0008,114.4331 99.0008,112.4991 C99.0008,110.5651 100.5688,109.0001 102.5008,109.0001 C104.4348,109.0001 106.0008,110.5651 106.0008,112.4991" id="Fill-41" fill="#5CD156"></path>
                    <path d="M64.0008,48.0011 C64.0008,52.4201 60.4188,56.0001 56.0028,56.0001 C51.5828,56.0001 48.0008,52.4201 48.0008,48.0011 C48.0008,43.5801 51.5828,40.0001 56.0028,40.0001 C60.4188,40.0001 64.0008,43.5801 64.0008,48.0011" id="Fill-43" fill="#90D18D"></path>
                    <path d="M79.0008,35.5001 C79.0008,37.4311 77.4318,39.0001 75.5008,39.0001 C73.5668,39.0001 72.0008,37.4311 72.0008,35.5001 C72.0008,33.5661 73.5668,32.0001 75.5008,32.0001 C77.4318,32.0001 79.0008,33.5661 79.0008,35.5001" id="Fill-45" fill="#5CD156"></path>
                    <path d="M119.0008,51.5001 C119.0008,53.4321 117.4358,55.0001 115.5018,55.0001 C113.5658,55.0001 112.0008,53.4321 112.0008,51.5001 C112.0008,49.5651 113.5658,48.0001 115.5018,48.0001 C117.4358,48.0001 119.0008,49.5651 119.0008,51.5001" id="Fill-47" fill="#5CD156"></path>
                    <path d="M72.0008,108.9991 C72.0008,113.4181 68.4198,117.0001 64.0028,117.0001 C59.5828,117.0001 56.0008,113.4181 56.0008,108.9991 C56.0008,104.5791 59.5828,101.0001 64.0028,101.0001 C68.4198,101.0001 72.0008,104.5791 72.0008,108.9991" id="Fill-49" fill="#90D18D"></path>
                    <path d="M128.0008,62.5001 C128.0008,64.4341 126.2118,66.0001 124.0018,66.0001 C121.7918,66.0001 120.0008,64.4341 120.0008,62.5001 C120.0008,60.5651 121.7918,59.0001 124.0018,59.0001 C126.2118,59.0001 128.0008,60.5651 128.0008,62.5001" id="Fill-51" fill="#90D18D"></path>
                    <path d="M90.0008,5.5001 C90.0008,8.5381 84.4038,11.0001 77.5008,11.0001 C70.5978,11.0001 65.0008,8.5381 65.0008,5.5001 C65.0008,2.4621 70.5978,0.0001 77.5008,0.0001 C84.4038,0.0001 90.0008,2.4621 90.0008,5.5001" id="Fill-53" fill="#5CD156"></path>
                    <path d="M85.0008,5.5001 C85.0008,6.8791 81.6438,8.0001 77.5028,8.0001 C73.3598,8.0001 70.0008,6.8791 70.0008,5.5001 C70.0008,4.1211 73.3598,3.0001 77.5028,3.0001 C81.6438,3.0001 85.0008,4.1211 85.0008,5.5001" id="Fill-55" fill="#5CD156"></path>
                    <g id="Group-59" transform="translate(65.000000, 143.000000)">
                        <mask id="mask-2" fill="white">
                            <use xlink:href="#path-1"></use>
                        </mask>
                        <g id="Clip-58"></g>
                        <path d="M25.0008,5.5011 C25.0008,8.5381 19.4038,11.0001 12.5008,11.0001 C5.5978,11.0001 0.0008,8.5381 0.0008,5.5011 C0.0008,2.4641 5.5978,0.0001 12.5008,0.0001 C19.4038,0.0001 25.0008,2.4641 25.0008,5.5011" id="Fill-57" fill="#5CD156" mask="url(#mask-2)"></path>
                    </g>
                    <path d="M85.0008,148.5001 C85.0008,149.8791 81.6438,151.0001 77.5028,151.0001 C73.3598,151.0001 70.0008,149.8791 70.0008,148.5001 C70.0008,147.1191 73.3598,146.0001 77.5028,146.0001 C81.6438,146.0001 85.0008,147.1191 85.0008,148.5001" id="Fill-60" fill="#5CD156"></path>
                    <path d="M125.6551,22.4191 C124.1521,25.0551 118.1631,24.3181 112.2791,20.7751 C106.3921,17.2271 102.8431,12.2171 104.3451,9.5811 C105.8481,6.9441 111.8411,7.6811 117.7241,11.2271 C123.6081,14.7731 127.1601,19.7851 125.6551,22.4191" id="Fill-62" fill="#5CD156"></path>
                    <path d="M120.8309,19.2291 C120.0189,20.6201 116.5289,20.0771 113.0319,18.0161 C109.5359,15.9571 107.3579,13.1601 108.1709,11.7691 C108.9799,10.3811 112.4729,10.9231 115.9699,12.9821 C119.4639,15.0421 121.6429,17.8381 120.8309,19.2291" id="Fill-64" fill="#5CD156"></path>
                    <path d="M52.6561,145.421 C51.1531,148.055 45.1611,147.318 39.2791,143.775 C33.3921,140.227 29.8431,135.217 31.3451,132.58 C32.8481,129.944 38.8411,130.681 44.7251,134.227 C50.6091,137.775 54.1591,142.785 52.6561,145.421" id="Fill-66" fill="#5CD156"></path>
                    <path d="M47.8319,142.2286 C47.0199,143.6206 43.5279,143.0776 40.0339,141.0156 C36.5369,138.9576 34.3599,136.1606 35.1699,134.7696 C35.9819,133.3806 39.4739,133.9226 42.9679,135.9826 C46.4649,138.0416 48.6419,140.8376 47.8319,142.2286" id="Fill-68" fill="#5CD156"></path>
                    <path d="M148.3114,52.6837 C145.5984,54.1237 140.5704,50.5047 137.0834,44.6057 C133.5984,38.7047 132.9754,32.7547 135.6904,31.3167 C138.4034,29.8757 143.4314,33.4907 146.9174,39.3917 C150.4034,45.2927 151.0264,51.2437 148.3114,52.6837" id="Fill-70" fill="#5CD156"></path>
                    <path d="M145.1756,48.8453 C143.7406,49.6193 140.9336,47.4093 138.9036,43.9053 C136.8746,40.4023 136.3916,36.9313 137.8266,36.1543 C139.2616,35.3803 142.0696,37.5903 144.0996,41.0953 C146.1276,44.6003 146.6086,48.0683 145.1756,48.8453" id="Fill-72" fill="#5CD156"></path>
                    <path d="M21.3129,122.6837 C18.5979,124.1237 13.5709,120.5067 10.0859,114.6087 C6.5999,108.7067 5.9749,102.7547 8.6899,101.3167 C11.4049,99.8757 16.4319,103.4917 19.9169,109.3937 C23.4029,115.2927 24.0259,121.2437 21.3129,122.6837" id="Fill-74" fill="#5CD156"></path>
                    <path d="M18.1747,118.8448 C16.7417,119.6198 13.9327,117.4088 11.9027,113.9048 C9.8747,110.4028 9.3917,106.9338 10.8267,106.1548 C12.2607,105.3798 15.0707,107.5898 17.0987,111.0948 C19.1287,114.5998 19.6097,118.0708 18.1747,118.8448" id="Fill-76" fill="#5CD156"></path>
                    <path d="M151.2498,90.9991 C148.2148,90.9401 145.8698,85.2951 146.0068,78.3911 C146.1468,71.4861 148.7218,65.9391 151.7538,66.0001 C154.7868,66.0621 157.1358,71.7071 156.9948,78.6091 C156.8558,85.5141 154.2838,91.0611 151.2498,90.9991" id="Fill-78" fill="#5CD156"></path>
                    <path d="M151.3729,86.0001 C149.9939,85.9671 148.9339,82.5831 149.0039,78.4391 C149.0729,74.2981 150.2489,70.9671 151.6269,71.0001 C153.0059,71.0331 154.0659,74.4171 153.9979,78.5611 C153.9269,82.7021 152.7529,86.0331 151.3729,86.0001" id="Fill-80" fill="#5CD156"></path>
                    <g id="Group-84" transform="translate(0.000000, 63.000000)">
                        <mask id="mask-4" fill="white">
                            <use xlink:href="#path-3"></use>
                        </mask>
                        <g id="Clip-83"></g>
                        <path d="M5.2396,24.9484 C2.2106,24.8894 -0.1304,19.2634 0.0056,12.3834 C0.1466,5.5034 2.7166,-0.0246 5.7436,0.0364 C8.7706,0.0974 11.1156,5.7234 10.9746,12.6014 C10.8366,19.4794 8.2686,25.0104 5.2396,24.9484" id="Fill-82" fill="#5CD156" mask="url(#mask-4)"></path>
                    </g>
                    <path d="M5.3729,83.0001 C3.9949,82.9641 2.9339,79.5831 3.0039,75.4391 C3.0729,71.2981 4.2489,67.9671 5.6269,68.0001 C7.0059,68.0331 8.0659,71.4171 7.9979,75.5591 C7.9269,79.7021 6.7529,83.0331 5.3729,83.0001" id="Fill-85" fill="#5CD156"></path>
                    <path d="M134.6366,123.67 C131.9596,122.198 132.6386,116.23 136.1556,110.337 C139.6686,104.445 144.6876,100.86 147.3656,102.329 C150.0416,103.801 149.3616,109.77 145.8476,115.66 C142.3316,121.556 137.3106,125.141 134.6366,123.67" id="Fill-87" fill="#5CD156"></path>
                    <path d="M137.7997,118.839 C136.3857,118.046 136.8997,114.566 138.9427,111.065 C140.9877,107.564 143.7897,105.367 145.2017,106.163 C146.6157,106.956 146.1027,110.436 144.0597,113.937 C142.0167,117.438 139.2137,119.629 137.7997,118.839" id="Fill-89" fill="#5CD156"></path>
                    <path d="M8.6351,52.6705 C5.9611,51.1985 6.6371,45.2295 10.1561,39.3365 C13.6691,33.4455 18.6881,29.8605 21.3661,31.3285 C24.0421,32.8005 23.3611,38.7695 19.8451,44.6605 C16.3321,50.5555 11.3111,54.1405 8.6351,52.6705" id="Fill-91" fill="#5CD156"></path>
                    <path d="M11.8001,47.8385 C10.3851,47.0455 10.8991,43.5665 12.9421,40.0655 C14.9861,36.5645 17.7871,34.3675 19.2021,35.1625 C20.6161,35.9555 20.1031,39.4355 18.0571,42.9365 C16.0161,46.4375 13.2141,48.6295 11.8001,47.8385" id="Fill-93" fill="#5CD156"></path>
                    <path d="M104.3485,145.4279 C102.8395,142.7979 106.3835,137.7909 112.2675,134.2399 C118.1525,130.6909 124.1435,129.9419 125.6525,132.5719 C127.1645,135.2009 123.6165,140.2099 117.7325,143.7619 C111.8505,147.3119 105.8565,148.0579 104.3485,145.4279" id="Fill-95" fill="#5CD156"></path>
                    <path d="M108.1717,142.2335 C107.3577,140.8475 109.5307,138.0495 113.0257,135.9905 C116.5217,133.9275 120.0147,133.3795 120.8297,134.7655 C121.6447,136.1505 119.4727,138.9475 115.9747,141.0115 C112.4797,143.0725 108.9837,143.6205 108.1717,142.2335" id="Fill-97" fill="#5CD156"></path>
                    <path d="M31.348,22.4283 C29.84,19.7983 33.384,14.7893 39.268,11.2383 C45.152,7.6893 51.144,6.9423 52.652,9.5703 C54.165,12.2013 50.617,17.2113 44.732,20.7603 C38.85,24.3113 32.856,25.0583 31.348,22.4283" id="Fill-99" fill="#5CD156"></path>
                    <path d="M35.1712,19.234 C34.3582,17.848 36.5322,15.051 40.0272,12.989 C43.5232,10.927 47.0152,10.379 47.8302,11.767 C48.6432,13.151 46.4732,15.948 42.9762,18.01 C39.4792,20.072 35.9862,20.621 35.1712,19.234" id="Fill-101" fill="#5CD156"></path>
                </g>
            </g>
        </g>
    </g>
</svg>